<svg width="111" height="43" viewBox="0 0 111 43" fill="none" xmlns="http://www.w3.org/2000/svg">
    <path
        d="M54.5996 12.766C70.3496 12.766 77.6358 4.36601 77.6358 4.36601V37.966C77.6358 37.966 72.4496 32.716 54.5996 32.716V12.766Z"
        fill="#DBEDFF" />
    <path
        d="M110.25 21.166C110.25 32.764 101.124 42.166 89.8672 42.166C78.6103 42.166 69.4848 32.764 69.4848 21.166C69.4848 9.56804 78.6103 0.166016 89.8672 0.166016C101.124 0.166016 110.25 9.56804 110.25 21.166Z"
        fill="#DBEDFF" />
    <path
        d="M55.6504 12.766C39.9004 12.766 32.6142 4.36601 32.6142 4.36601V37.966C32.6142 37.966 37.8004 32.716 55.6504 32.716V12.766Z"
        fill="#DBEDFF" />
    <path
        d="M0.000450134 21.166C0.000450134 32.764 9.12596 42.166 20.3828 42.166C31.6397 42.166 40.7652 32.764 40.7652 21.166C40.7652 9.56804 31.6397 0.166016 20.3828 0.166016C9.12596 0.166016 0.000450134 9.56804 0.000450134 21.166Z"
        fill="#DBEDFF" />
</svg>
    