<svg width="489" height="63" viewBox="0 0 489 63" fill="none" xmlns="http://www.w3.org/2000/svg">
<path d="M13.4785 19.2793V22H2.91016V19.2793H13.4785ZM3.88086 2.09375V22H0.449219V2.09375H3.88086ZM12.0977 10.4062V13.0859H2.91016V10.4062H12.0977ZM13.4102 2.09375V4.82812H2.91016V2.09375H13.4102ZM19.2207 10.3652V22H15.9258V7.20703H19.0293L19.2207 10.3652ZM18.6328 14.0566L17.5664 14.043C17.5755 12.9948 17.7214 12.0332 18.0039 11.1582C18.2956 10.2832 18.6966 9.53125 19.207 8.90234C19.7266 8.27344 20.3464 7.79036 21.0664 7.45312C21.7865 7.10677 22.5885 6.93359 23.4727 6.93359C24.1836 6.93359 24.8262 7.03385 25.4004 7.23438C25.9837 7.42578 26.4805 7.74023 26.8906 8.17773C27.3099 8.61523 27.6289 9.1849 27.8477 9.88672C28.0664 10.5794 28.1758 11.4316 28.1758 12.4434V22H24.8672V12.4297C24.8672 11.7188 24.7624 11.1582 24.5527 10.748C24.3522 10.3288 24.056 10.0326 23.6641 9.85938C23.2812 9.67708 22.8027 9.58594 22.2285 9.58594C21.6634 9.58594 21.1576 9.70443 20.7109 9.94141C20.2643 10.1784 19.8861 10.502 19.5762 10.9121C19.2754 11.3223 19.043 11.7962 18.8789 12.334C18.7148 12.8717 18.6328 13.446 18.6328 14.0566ZM39.8789 19.0332V11.9785C39.8789 11.4499 39.7832 10.9941 39.5918 10.6113C39.4004 10.2285 39.1087 9.93229 38.7168 9.72266C38.334 9.51302 37.8509 9.4082 37.2676 9.4082C36.7298 9.4082 36.265 9.49935 35.873 9.68164C35.4811 9.86393 35.1758 10.11 34.957 10.4199C34.7383 10.7298 34.6289 11.0807 34.6289 11.4727H31.3477C31.3477 10.8893 31.4889 10.3242 31.7715 9.77734C32.054 9.23047 32.4642 8.74284 33.002 8.31445C33.5397 7.88607 34.1823 7.54883 34.9297 7.30273C35.6771 7.05664 36.5156 6.93359 37.4453 6.93359C38.5573 6.93359 39.5417 7.12044 40.3984 7.49414C41.2643 7.86784 41.9434 8.43294 42.4355 9.18945C42.9368 9.93685 43.1875 10.8757 43.1875 12.0059V18.582C43.1875 19.2565 43.2331 19.8626 43.3242 20.4004C43.4245 20.929 43.5658 21.3893 43.748 21.7812V22H40.3711C40.2161 21.6445 40.0931 21.1934 40.002 20.6465C39.9199 20.0905 39.8789 19.5527 39.8789 19.0332ZM40.3574 13.0039L40.3848 15.041H38.0195C37.4089 15.041 36.8711 15.1003 36.4062 15.2188C35.9414 15.3281 35.554 15.4922 35.2441 15.7109C34.9342 15.9297 34.7018 16.194 34.5469 16.5039C34.3919 16.8138 34.3145 17.1647 34.3145 17.5566C34.3145 17.9486 34.4056 18.3086 34.5879 18.6367C34.7702 18.9557 35.0345 19.2064 35.3809 19.3887C35.7363 19.571 36.1647 19.6621 36.666 19.6621C37.3405 19.6621 37.9284 19.5254 38.4297 19.252C38.9401 18.9694 39.3411 18.6276 39.6328 18.2266C39.9245 17.8164 40.0794 17.429 40.0977 17.0645L41.1641 18.5273C41.0547 18.901 40.8678 19.3021 40.6035 19.7305C40.3392 20.1589 39.9928 20.569 39.5645 20.9609C39.1452 21.3438 38.6393 21.6582 38.0469 21.9043C37.4635 22.1504 36.7891 22.2734 36.0234 22.2734C35.0573 22.2734 34.196 22.082 33.4395 21.6992C32.6829 21.3073 32.0905 20.7832 31.6621 20.127C31.2337 19.4616 31.0195 18.7096 31.0195 17.8711C31.0195 17.0872 31.1654 16.3945 31.457 15.793C31.7578 15.1823 32.1953 14.6719 32.7695 14.2617C33.3529 13.8516 34.0638 13.5417 34.9023 13.332C35.7409 13.1133 36.6979 13.0039 37.7734 13.0039H40.3574ZM46.6465 1H49.9414V18.8418L49.627 22H46.6465V1ZM59.5938 14.4668V14.7539C59.5938 15.8477 59.4707 16.8548 59.2246 17.7754C58.9876 18.6868 58.623 19.4798 58.1309 20.1543C57.6478 20.8288 57.0462 21.3529 56.3262 21.7266C55.6152 22.0911 54.7904 22.2734 53.8516 22.2734C52.931 22.2734 52.1289 22.1003 51.4453 21.7539C50.7617 21.4076 50.1875 20.9154 49.7227 20.2773C49.2669 19.6393 48.8978 18.8783 48.6152 17.9941C48.3327 17.11 48.1322 16.1348 48.0137 15.0684V14.1523C48.1322 13.0768 48.3327 12.1016 48.6152 11.2266C48.8978 10.3424 49.2669 9.58138 49.7227 8.94336C50.1875 8.29622 50.7572 7.79948 51.4316 7.45312C52.1152 7.10677 52.9128 6.93359 53.8242 6.93359C54.7721 6.93359 55.6061 7.11589 56.3262 7.48047C57.0553 7.84505 57.6615 8.36458 58.1445 9.03906C58.6276 9.70443 58.9876 10.4974 59.2246 11.418C59.4707 12.3385 59.5938 13.3548 59.5938 14.4668ZM56.2988 14.7539V14.4668C56.2988 13.8014 56.2441 13.1771 56.1348 12.5938C56.0254 12.0013 55.8431 11.4818 55.5879 11.0352C55.3418 10.5885 55.0046 10.2376 54.5762 9.98242C54.1569 9.7181 53.6328 9.58594 53.0039 9.58594C52.4206 9.58594 51.9193 9.6862 51.5 9.88672C51.0807 10.0872 50.7298 10.3607 50.4473 10.707C50.1647 11.0534 49.9414 11.4544 49.7773 11.9102C49.6224 12.3659 49.5176 12.8581 49.4629 13.3867V15.8613C49.5449 16.5449 49.7181 17.1738 49.9824 17.748C50.2559 18.3132 50.6387 18.7689 51.1309 19.1152C51.623 19.4525 52.2565 19.6211 53.0312 19.6211C53.6419 19.6211 54.1569 19.498 54.5762 19.252C54.9954 19.0059 55.3281 18.6641 55.5742 18.2266C55.8294 17.7799 56.0117 17.2604 56.1211 16.668C56.2396 16.0755 56.2988 15.4375 56.2988 14.7539ZM65.9102 1V22H62.6016V1H65.9102ZM76.041 22.2734C74.9473 22.2734 73.9583 22.0957 73.0742 21.7402C72.1992 21.3757 71.4518 20.8698 70.832 20.2227C70.2214 19.5755 69.752 18.8145 69.4238 17.9395C69.0957 17.0645 68.9316 16.1211 68.9316 15.1094V14.5625C68.9316 13.4049 69.1003 12.3568 69.4375 11.418C69.7747 10.4792 70.2441 9.67708 70.8457 9.01172C71.4473 8.33724 72.1582 7.82227 72.9785 7.4668C73.7988 7.11133 74.6875 6.93359 75.6445 6.93359C76.7018 6.93359 77.627 7.11133 78.4199 7.4668C79.2129 7.82227 79.8691 8.32357 80.3887 8.9707C80.9173 9.60872 81.3092 10.3698 81.5645 11.2539C81.8288 12.138 81.9609 13.1133 81.9609 14.1797V15.5879H70.5312V13.2227H78.707V12.9629C78.6888 12.3704 78.5703 11.8145 78.3516 11.2949C78.1419 10.7754 77.8184 10.3561 77.3809 10.0371C76.9434 9.7181 76.36 9.55859 75.6309 9.55859C75.084 9.55859 74.5964 9.67708 74.168 9.91406C73.7487 10.1419 73.3978 10.4746 73.1152 10.9121C72.8327 11.3496 72.6139 11.8783 72.459 12.498C72.3132 13.1087 72.2402 13.7969 72.2402 14.5625V15.1094C72.2402 15.7565 72.3268 16.3581 72.5 16.9141C72.6823 17.4609 72.9466 17.9395 73.293 18.3496C73.6393 18.7598 74.0586 19.0833 74.5508 19.3203C75.043 19.5482 75.6035 19.6621 76.2324 19.6621C77.0254 19.6621 77.7318 19.5026 78.3516 19.1836C78.9714 18.8646 79.5091 18.4134 79.9648 17.8301L81.7012 19.5117C81.3822 19.9766 80.9674 20.4232 80.457 20.8516C79.9466 21.2708 79.3223 21.6126 78.584 21.877C77.8548 22.1413 77.0072 22.2734 76.041 22.2734ZM98.2852 7.20703V9.61328H89.9453V7.20703H98.2852ZM92.3516 3.58398H95.6465V17.9121C95.6465 18.3678 95.7103 18.7188 95.8379 18.9648C95.9746 19.2018 96.1615 19.3613 96.3984 19.4434C96.6354 19.5254 96.9134 19.5664 97.2324 19.5664C97.4603 19.5664 97.679 19.5527 97.8887 19.5254C98.0983 19.498 98.2669 19.4707 98.3945 19.4434L98.4082 21.959C98.1348 22.041 97.8158 22.1139 97.4512 22.1777C97.0957 22.2415 96.6855 22.2734 96.2207 22.2734C95.4642 22.2734 94.7943 22.1413 94.2109 21.877C93.6276 21.6035 93.1719 21.1615 92.8438 20.5508C92.5156 19.9401 92.3516 19.1289 92.3516 18.1172V3.58398ZM104.082 1V22H100.801V1H104.082ZM103.508 14.0566L102.441 14.043C102.451 13.0221 102.592 12.0788 102.865 11.2129C103.148 10.347 103.54 9.59505 104.041 8.95703C104.551 8.3099 105.162 7.81315 105.873 7.4668C106.584 7.11133 107.372 6.93359 108.238 6.93359C108.967 6.93359 109.624 7.03385 110.207 7.23438C110.799 7.4349 111.31 7.75846 111.738 8.20508C112.167 8.64258 112.49 9.2168 112.709 9.92773C112.937 10.6296 113.051 11.4863 113.051 12.498V22H109.742V12.4707C109.742 11.7598 109.637 11.1947 109.428 10.7754C109.227 10.3561 108.931 10.0553 108.539 9.87305C108.147 9.68164 107.669 9.58594 107.104 9.58594C106.511 9.58594 105.987 9.70443 105.531 9.94141C105.085 10.1784 104.711 10.502 104.41 10.9121C104.109 11.3223 103.882 11.7962 103.727 12.334C103.581 12.8717 103.508 13.446 103.508 14.0566ZM122.908 22.2734C121.814 22.2734 120.826 22.0957 119.941 21.7402C119.066 21.3757 118.319 20.8698 117.699 20.2227C117.089 19.5755 116.619 18.8145 116.291 17.9395C115.963 17.0645 115.799 16.1211 115.799 15.1094V14.5625C115.799 13.4049 115.967 12.3568 116.305 11.418C116.642 10.4792 117.111 9.67708 117.713 9.01172C118.314 8.33724 119.025 7.82227 119.846 7.4668C120.666 7.11133 121.555 6.93359 122.512 6.93359C123.569 6.93359 124.494 7.11133 125.287 7.4668C126.08 7.82227 126.736 8.32357 127.256 8.9707C127.785 9.60872 128.176 10.3698 128.432 11.2539C128.696 12.138 128.828 13.1133 128.828 14.1797V15.5879H117.398V13.2227H125.574V12.9629C125.556 12.3704 125.438 11.8145 125.219 11.2949C125.009 10.7754 124.686 10.3561 124.248 10.0371C123.811 9.7181 123.227 9.55859 122.498 9.55859C121.951 9.55859 121.464 9.67708 121.035 9.91406C120.616 10.1419 120.265 10.4746 119.982 10.9121C119.7 11.3496 119.481 11.8783 119.326 12.498C119.18 13.1087 119.107 13.7969 119.107 14.5625V15.1094C119.107 15.7565 119.194 16.3581 119.367 16.9141C119.549 17.4609 119.814 17.9395 120.16 18.3496C120.507 18.7598 120.926 19.0833 121.418 19.3203C121.91 19.5482 122.471 19.6621 123.1 19.6621C123.893 19.6621 124.599 19.5026 125.219 19.1836C125.839 18.8646 126.376 18.4134 126.832 17.8301L128.568 19.5117C128.249 19.9766 127.835 20.4232 127.324 20.8516C126.814 21.2708 126.189 21.6126 125.451 21.877C124.722 22.1413 123.874 22.2734 122.908 22.2734ZM154.49 2.09375V22H151.059L142.131 7.74023V22H138.699V2.09375H142.131L151.086 16.3809V2.09375H154.49ZM157.621 14.7676V14.4531C157.621 13.3867 157.776 12.3978 158.086 11.4863C158.396 10.5658 158.842 9.76823 159.426 9.09375C160.018 8.41016 160.738 7.88151 161.586 7.50781C162.443 7.125 163.409 6.93359 164.484 6.93359C165.569 6.93359 166.535 7.125 167.383 7.50781C168.24 7.88151 168.964 8.41016 169.557 9.09375C170.149 9.76823 170.6 10.5658 170.91 11.4863C171.22 12.3978 171.375 13.3867 171.375 14.4531V14.7676C171.375 15.834 171.22 16.8229 170.91 17.7344C170.6 18.6458 170.149 19.4434 169.557 20.127C168.964 20.8014 168.244 21.3301 167.396 21.7129C166.549 22.0866 165.587 22.2734 164.512 22.2734C163.427 22.2734 162.456 22.0866 161.6 21.7129C160.752 21.3301 160.032 20.8014 159.439 20.127C158.847 19.4434 158.396 18.6458 158.086 17.7344C157.776 16.8229 157.621 15.834 157.621 14.7676ZM160.916 14.4531V14.7676C160.916 15.4329 160.984 16.0618 161.121 16.6543C161.258 17.2467 161.472 17.7663 161.764 18.2129C162.055 18.6595 162.429 19.0104 162.885 19.2656C163.34 19.5208 163.883 19.6484 164.512 19.6484C165.122 19.6484 165.651 19.5208 166.098 19.2656C166.553 19.0104 166.927 18.6595 167.219 18.2129C167.51 17.7663 167.725 17.2467 167.861 16.6543C168.007 16.0618 168.08 15.4329 168.08 14.7676V14.4531C168.08 13.7969 168.007 13.1771 167.861 12.5938C167.725 12.0013 167.506 11.4772 167.205 11.0215C166.913 10.5658 166.54 10.2103 166.084 9.95508C165.637 9.69076 165.104 9.55859 164.484 9.55859C163.865 9.55859 163.327 9.69076 162.871 9.95508C162.424 10.2103 162.055 10.5658 161.764 11.0215C161.472 11.4772 161.258 12.0013 161.121 12.5938C160.984 13.1771 160.916 13.7969 160.916 14.4531ZM180.918 7.20703V9.61328H172.578V7.20703H180.918ZM174.984 3.58398H178.279V17.9121C178.279 18.3678 178.343 18.7188 178.471 18.9648C178.607 19.2018 178.794 19.3613 179.031 19.4434C179.268 19.5254 179.546 19.5664 179.865 19.5664C180.093 19.5664 180.312 19.5527 180.521 19.5254C180.731 19.498 180.9 19.4707 181.027 19.4434L181.041 21.959C180.768 22.041 180.449 22.1139 180.084 22.1777C179.729 22.2415 179.318 22.2734 178.854 22.2734C178.097 22.2734 177.427 22.1413 176.844 21.877C176.26 21.6035 175.805 21.1615 175.477 20.5508C175.148 19.9401 174.984 19.1289 174.984 18.1172V3.58398ZM186.988 7.20703V22H183.68V7.20703H186.988ZM183.461 3.32422C183.461 2.82292 183.625 2.4082 183.953 2.08008C184.29 1.74284 184.755 1.57422 185.348 1.57422C185.931 1.57422 186.391 1.74284 186.729 2.08008C187.066 2.4082 187.234 2.82292 187.234 3.32422C187.234 3.81641 187.066 4.22656 186.729 4.55469C186.391 4.88281 185.931 5.04688 185.348 5.04688C184.755 5.04688 184.29 4.88281 183.953 4.55469C183.625 4.22656 183.461 3.81641 183.461 3.32422ZM194.836 22H191.527V6.25C191.527 5.05599 191.764 4.04883 192.238 3.22852C192.721 2.4082 193.41 1.78385 194.303 1.35547C195.205 0.927083 196.276 0.712891 197.516 0.712891C198.245 0.712891 198.947 0.790365 199.621 0.945312C200.305 1.10026 201.011 1.29622 201.74 1.5332L201.234 4.21289C200.77 4.05794 200.255 3.91211 199.689 3.77539C199.124 3.62956 198.473 3.55664 197.734 3.55664C196.741 3.55664 196.007 3.78451 195.533 4.24023C195.068 4.68685 194.836 5.35677 194.836 6.25V22ZM197.803 7.20703V9.61328H189.258V7.20703H197.803ZM203.299 7.20703V22H200.004V7.20703H203.299ZM213.02 19.6484C213.557 19.6484 214.04 19.5436 214.469 19.334C214.906 19.1152 215.257 18.8145 215.521 18.4316C215.795 18.0488 215.945 17.6068 215.973 17.1055H219.076C219.058 18.0625 218.775 18.9329 218.229 19.7168C217.682 20.5007 216.957 21.125 216.055 21.5898C215.152 22.0456 214.154 22.2734 213.061 22.2734C211.93 22.2734 210.946 22.082 210.107 21.6992C209.269 21.3073 208.572 20.7695 208.016 20.0859C207.46 19.4023 207.04 18.6139 206.758 17.7207C206.484 16.8275 206.348 15.8704 206.348 14.8496V14.3711C206.348 13.3503 206.484 12.3932 206.758 11.5C207.04 10.5977 207.46 9.80469 208.016 9.12109C208.572 8.4375 209.269 7.9043 210.107 7.52148C210.946 7.12956 211.926 6.93359 213.047 6.93359C214.232 6.93359 215.271 7.17057 216.164 7.64453C217.057 8.10938 217.759 8.76107 218.27 9.59961C218.789 10.429 219.058 11.3952 219.076 12.498H215.973C215.945 11.9512 215.809 11.459 215.562 11.0215C215.326 10.5749 214.988 10.2194 214.551 9.95508C214.122 9.69076 213.607 9.55859 213.006 9.55859C212.34 9.55859 211.789 9.69531 211.352 9.96875C210.914 10.2331 210.572 10.5977 210.326 11.0625C210.08 11.5182 209.902 12.0332 209.793 12.6074C209.693 13.1725 209.643 13.7604 209.643 14.3711V14.8496C209.643 15.4603 209.693 16.0527 209.793 16.627C209.893 17.2012 210.066 17.7161 210.312 18.1719C210.568 18.6185 210.914 18.9785 211.352 19.252C211.789 19.5163 212.345 19.6484 213.02 19.6484ZM229.945 19.0332V11.9785C229.945 11.4499 229.85 10.9941 229.658 10.6113C229.467 10.2285 229.175 9.93229 228.783 9.72266C228.4 9.51302 227.917 9.4082 227.334 9.4082C226.796 9.4082 226.331 9.49935 225.939 9.68164C225.548 9.86393 225.242 10.11 225.023 10.4199C224.805 10.7298 224.695 11.0807 224.695 11.4727H221.414C221.414 10.8893 221.555 10.3242 221.838 9.77734C222.12 9.23047 222.531 8.74284 223.068 8.31445C223.606 7.88607 224.249 7.54883 224.996 7.30273C225.743 7.05664 226.582 6.93359 227.512 6.93359C228.624 6.93359 229.608 7.12044 230.465 7.49414C231.331 7.86784 232.01 8.43294 232.502 9.18945C233.003 9.93685 233.254 10.8757 233.254 12.0059V18.582C233.254 19.2565 233.299 19.8626 233.391 20.4004C233.491 20.929 233.632 21.3893 233.814 21.7812V22H230.438C230.283 21.6445 230.16 21.1934 230.068 20.6465C229.986 20.0905 229.945 19.5527 229.945 19.0332ZM230.424 13.0039L230.451 15.041H228.086C227.475 15.041 226.938 15.1003 226.473 15.2188C226.008 15.3281 225.62 15.4922 225.311 15.7109C225.001 15.9297 224.768 16.194 224.613 16.5039C224.458 16.8138 224.381 17.1647 224.381 17.5566C224.381 17.9486 224.472 18.3086 224.654 18.6367C224.837 18.9557 225.101 19.2064 225.447 19.3887C225.803 19.571 226.231 19.6621 226.732 19.6621C227.407 19.6621 227.995 19.5254 228.496 19.252C229.007 18.9694 229.408 18.6276 229.699 18.2266C229.991 17.8164 230.146 17.429 230.164 17.0645L231.23 18.5273C231.121 18.901 230.934 19.3021 230.67 19.7305C230.406 20.1589 230.059 20.569 229.631 20.9609C229.212 21.3438 228.706 21.6582 228.113 21.9043C227.53 22.1504 226.855 22.2734 226.09 22.2734C225.124 22.2734 224.262 22.082 223.506 21.6992C222.749 21.3073 222.157 20.7832 221.729 20.127C221.3 19.4616 221.086 18.7096 221.086 17.8711C221.086 17.0872 221.232 16.3945 221.523 15.793C221.824 15.1823 222.262 14.6719 222.836 14.2617C223.419 13.8516 224.13 13.5417 224.969 13.332C225.807 13.1133 226.764 13.0039 227.84 13.0039H230.424ZM243.48 7.20703V9.61328H235.141V7.20703H243.48ZM237.547 3.58398H240.842V17.9121C240.842 18.3678 240.906 18.7188 241.033 18.9648C241.17 19.2018 241.357 19.3613 241.594 19.4434C241.831 19.5254 242.109 19.5664 242.428 19.5664C242.656 19.5664 242.874 19.5527 243.084 19.5254C243.294 19.498 243.462 19.4707 243.59 19.4434L243.604 21.959C243.33 22.041 243.011 22.1139 242.646 22.1777C242.291 22.2415 241.881 22.2734 241.416 22.2734C240.66 22.2734 239.99 22.1413 239.406 21.877C238.823 21.6035 238.367 21.1615 238.039 20.5508C237.711 19.9401 237.547 19.1289 237.547 18.1172V3.58398ZM249.551 7.20703V22H246.242V7.20703H249.551ZM246.023 3.32422C246.023 2.82292 246.188 2.4082 246.516 2.08008C246.853 1.74284 247.318 1.57422 247.91 1.57422C248.493 1.57422 248.954 1.74284 249.291 2.08008C249.628 2.4082 249.797 2.82292 249.797 3.32422C249.797 3.81641 249.628 4.22656 249.291 4.55469C248.954 4.88281 248.493 5.04688 247.91 5.04688C247.318 5.04688 246.853 4.88281 246.516 4.55469C246.188 4.22656 246.023 3.81641 246.023 3.32422ZM252.531 14.7676V14.4531C252.531 13.3867 252.686 12.3978 252.996 11.4863C253.306 10.5658 253.753 9.76823 254.336 9.09375C254.928 8.41016 255.648 7.88151 256.496 7.50781C257.353 7.125 258.319 6.93359 259.395 6.93359C260.479 6.93359 261.445 7.125 262.293 7.50781C263.15 7.88151 263.874 8.41016 264.467 9.09375C265.059 9.76823 265.51 10.5658 265.82 11.4863C266.13 12.3978 266.285 13.3867 266.285 14.4531V14.7676C266.285 15.834 266.13 16.8229 265.82 17.7344C265.51 18.6458 265.059 19.4434 264.467 20.127C263.874 20.8014 263.154 21.3301 262.307 21.7129C261.459 22.0866 260.497 22.2734 259.422 22.2734C258.337 22.2734 257.367 22.0866 256.51 21.7129C255.662 21.3301 254.942 20.8014 254.35 20.127C253.757 19.4434 253.306 18.6458 252.996 17.7344C252.686 16.8229 252.531 15.834 252.531 14.7676ZM255.826 14.4531V14.7676C255.826 15.4329 255.895 16.0618 256.031 16.6543C256.168 17.2467 256.382 17.7663 256.674 18.2129C256.965 18.6595 257.339 19.0104 257.795 19.2656C258.251 19.5208 258.793 19.6484 259.422 19.6484C260.033 19.6484 260.561 19.5208 261.008 19.2656C261.464 19.0104 261.837 18.6595 262.129 18.2129C262.421 17.7663 262.635 17.2467 262.771 16.6543C262.917 16.0618 262.99 15.4329 262.99 14.7676V14.4531C262.99 13.7969 262.917 13.1771 262.771 12.5938C262.635 12.0013 262.416 11.4772 262.115 11.0215C261.824 10.5658 261.45 10.2103 260.994 9.95508C260.548 9.69076 260.014 9.55859 259.395 9.55859C258.775 9.55859 258.237 9.69076 257.781 9.95508C257.335 10.2103 256.965 10.5658 256.674 11.0215C256.382 11.4772 256.168 12.0013 256.031 12.5938C255.895 13.1771 255.826 13.7969 255.826 14.4531ZM272.314 10.3652V22H269.02V7.20703H272.123L272.314 10.3652ZM271.727 14.0566L270.66 14.043C270.669 12.9948 270.815 12.0332 271.098 11.1582C271.389 10.2832 271.79 9.53125 272.301 8.90234C272.82 8.27344 273.44 7.79036 274.16 7.45312C274.88 7.10677 275.682 6.93359 276.566 6.93359C277.277 6.93359 277.92 7.03385 278.494 7.23438C279.077 7.42578 279.574 7.74023 279.984 8.17773C280.404 8.61523 280.723 9.1849 280.941 9.88672C281.16 10.5794 281.27 11.4316 281.27 12.4434V22H277.961V12.4297C277.961 11.7188 277.856 11.1582 277.646 10.748C277.446 10.3288 277.15 10.0326 276.758 9.85938C276.375 9.67708 275.896 9.58594 275.322 9.58594C274.757 9.58594 274.251 9.70443 273.805 9.94141C273.358 10.1784 272.98 10.502 272.67 10.9121C272.369 11.3223 272.137 11.7962 271.973 12.334C271.809 12.8717 271.727 13.446 271.727 14.0566ZM292.932 17.9941C292.932 17.666 292.85 17.3698 292.686 17.1055C292.521 16.832 292.207 16.5859 291.742 16.3672C291.286 16.1484 290.612 15.9479 289.719 15.7656C288.935 15.5924 288.215 15.3874 287.559 15.1504C286.911 14.9043 286.355 14.6081 285.891 14.2617C285.426 13.9154 285.066 13.5052 284.811 13.0312C284.555 12.5573 284.428 12.0104 284.428 11.3906C284.428 10.7891 284.56 10.2194 284.824 9.68164C285.089 9.14388 285.467 8.66992 285.959 8.25977C286.451 7.84961 287.048 7.52604 287.75 7.28906C288.461 7.05208 289.254 6.93359 290.129 6.93359C291.368 6.93359 292.43 7.14323 293.314 7.5625C294.208 7.97266 294.891 8.5332 295.365 9.24414C295.839 9.94596 296.076 10.7389 296.076 11.623H292.781C292.781 11.2311 292.681 10.8665 292.48 10.5293C292.289 10.1829 291.997 9.90495 291.605 9.69531C291.214 9.47656 290.721 9.36719 290.129 9.36719C289.564 9.36719 289.094 9.45833 288.721 9.64062C288.356 9.8138 288.083 10.0417 287.9 10.3242C287.727 10.6068 287.641 10.9167 287.641 11.2539C287.641 11.5 287.686 11.7233 287.777 11.9238C287.878 12.1152 288.042 12.293 288.27 12.457C288.497 12.612 288.807 12.7578 289.199 12.8945C289.6 13.0312 290.102 13.1634 290.703 13.291C291.833 13.528 292.804 13.8333 293.615 14.207C294.436 14.5716 295.064 15.0456 295.502 15.6289C295.939 16.2031 296.158 16.9323 296.158 17.8164C296.158 18.4727 296.017 19.0742 295.734 19.6211C295.461 20.1589 295.06 20.6283 294.531 21.0293C294.003 21.4212 293.369 21.7266 292.631 21.9453C291.902 22.1641 291.081 22.2734 290.17 22.2734C288.83 22.2734 287.695 22.0365 286.766 21.5625C285.836 21.0794 285.13 20.4642 284.646 19.7168C284.173 18.9603 283.936 18.1764 283.936 17.3652H287.121C287.158 17.9759 287.326 18.4635 287.627 18.8281C287.937 19.1836 288.32 19.4434 288.775 19.6074C289.24 19.7624 289.719 19.8398 290.211 19.8398C290.803 19.8398 291.3 19.7624 291.701 19.6074C292.102 19.4434 292.408 19.2246 292.617 18.9512C292.827 18.6686 292.932 18.3496 292.932 17.9941ZM306.029 1H309.324V18.8418L309.01 22H306.029V1ZM318.977 14.4668V14.7539C318.977 15.8477 318.854 16.8548 318.607 17.7754C318.37 18.6868 318.006 19.4798 317.514 20.1543C317.031 20.8288 316.429 21.3529 315.709 21.7266C314.998 22.0911 314.173 22.2734 313.234 22.2734C312.314 22.2734 311.512 22.1003 310.828 21.7539C310.145 21.4076 309.57 20.9154 309.105 20.2773C308.65 19.6393 308.281 18.8783 307.998 17.9941C307.715 17.11 307.515 16.1348 307.396 15.0684V14.1523C307.515 13.0768 307.715 12.1016 307.998 11.2266C308.281 10.3424 308.65 9.58138 309.105 8.94336C309.57 8.29622 310.14 7.79948 310.814 7.45312C311.498 7.10677 312.296 6.93359 313.207 6.93359C314.155 6.93359 314.989 7.11589 315.709 7.48047C316.438 7.84505 317.044 8.36458 317.527 9.03906C318.01 9.70443 318.37 10.4974 318.607 11.418C318.854 12.3385 318.977 13.3548 318.977 14.4668ZM315.682 14.7539V14.4668C315.682 13.8014 315.627 13.1771 315.518 12.5938C315.408 12.0013 315.226 11.4818 314.971 11.0352C314.725 10.5885 314.387 10.2376 313.959 9.98242C313.54 9.7181 313.016 9.58594 312.387 9.58594C311.803 9.58594 311.302 9.6862 310.883 9.88672C310.464 10.0872 310.113 10.3607 309.83 10.707C309.548 11.0534 309.324 11.4544 309.16 11.9102C309.005 12.3659 308.9 12.8581 308.846 13.3867V15.8613C308.928 16.5449 309.101 17.1738 309.365 17.748C309.639 18.3132 310.021 18.7689 310.514 19.1152C311.006 19.4525 311.639 19.6211 312.414 19.6211C313.025 19.6211 313.54 19.498 313.959 19.252C314.378 19.0059 314.711 18.6641 314.957 18.2266C315.212 17.7799 315.395 17.2604 315.504 16.668C315.622 16.0755 315.682 15.4375 315.682 14.7539ZM330.666 18.5137V7.20703H333.975V22H330.857L330.666 18.5137ZM331.131 15.4375L332.238 15.4102C332.238 16.4036 332.129 17.3197 331.91 18.1582C331.691 18.9876 331.354 19.7122 330.898 20.332C330.443 20.9427 329.859 21.4212 329.148 21.7676C328.438 22.1048 327.585 22.2734 326.592 22.2734C325.872 22.2734 325.211 22.1686 324.609 21.959C324.008 21.7493 323.488 21.4258 323.051 20.9883C322.622 20.5508 322.29 19.9811 322.053 19.2793C321.816 18.5775 321.697 17.7389 321.697 16.7637V7.20703H324.992V16.791C324.992 17.3288 325.056 17.7799 325.184 18.1445C325.311 18.5 325.484 18.7871 325.703 19.0059C325.922 19.2246 326.177 19.3796 326.469 19.4707C326.76 19.5618 327.07 19.6074 327.398 19.6074C328.337 19.6074 329.076 19.4251 329.613 19.0605C330.16 18.6868 330.548 18.1855 330.775 17.5566C331.012 16.9277 331.131 16.2214 331.131 15.4375ZM344.133 7.20703V9.61328H335.793V7.20703H344.133ZM338.199 3.58398H341.494V17.9121C341.494 18.3678 341.558 18.7188 341.686 18.9648C341.822 19.2018 342.009 19.3613 342.246 19.4434C342.483 19.5254 342.761 19.5664 343.08 19.5664C343.308 19.5664 343.527 19.5527 343.736 19.5254C343.946 19.498 344.115 19.4707 344.242 19.4434L344.256 21.959C343.982 22.041 343.663 22.1139 343.299 22.1777C342.943 22.2415 342.533 22.2734 342.068 22.2734C341.312 22.2734 340.642 22.1413 340.059 21.877C339.475 21.6035 339.02 21.1615 338.691 20.5508C338.363 19.9401 338.199 19.1289 338.199 18.1172V3.58398ZM353.457 7.20703V9.61328H345.117V7.20703H353.457ZM347.523 3.58398H350.818V17.9121C350.818 18.3678 350.882 18.7188 351.01 18.9648C351.146 19.2018 351.333 19.3613 351.57 19.4434C351.807 19.5254 352.085 19.5664 352.404 19.5664C352.632 19.5664 352.851 19.5527 353.061 19.5254C353.27 19.498 353.439 19.4707 353.566 19.4434L353.58 21.959C353.307 22.041 352.988 22.1139 352.623 22.1777C352.268 22.2415 351.857 22.2734 351.393 22.2734C350.636 22.2734 349.966 22.1413 349.383 21.877C348.799 21.6035 348.344 21.1615 348.016 20.5508C347.688 19.9401 347.523 19.1289 347.523 18.1172V3.58398ZM355.043 14.7676V14.4531C355.043 13.3867 355.198 12.3978 355.508 11.4863C355.818 10.5658 356.264 9.76823 356.848 9.09375C357.44 8.41016 358.16 7.88151 359.008 7.50781C359.865 7.125 360.831 6.93359 361.906 6.93359C362.991 6.93359 363.957 7.125 364.805 7.50781C365.661 7.88151 366.386 8.41016 366.979 9.09375C367.571 9.76823 368.022 10.5658 368.332 11.4863C368.642 12.3978 368.797 13.3867 368.797 14.4531V14.7676C368.797 15.834 368.642 16.8229 368.332 17.7344C368.022 18.6458 367.571 19.4434 366.979 20.127C366.386 20.8014 365.666 21.3301 364.818 21.7129C363.971 22.0866 363.009 22.2734 361.934 22.2734C360.849 22.2734 359.878 22.0866 359.021 21.7129C358.174 21.3301 357.454 20.8014 356.861 20.127C356.269 19.4434 355.818 18.6458 355.508 17.7344C355.198 16.8229 355.043 15.834 355.043 14.7676ZM358.338 14.4531V14.7676C358.338 15.4329 358.406 16.0618 358.543 16.6543C358.68 17.2467 358.894 17.7663 359.186 18.2129C359.477 18.6595 359.851 19.0104 360.307 19.2656C360.762 19.5208 361.305 19.6484 361.934 19.6484C362.544 19.6484 363.073 19.5208 363.52 19.2656C363.975 19.0104 364.349 18.6595 364.641 18.2129C364.932 17.7663 365.146 17.2467 365.283 16.6543C365.429 16.0618 365.502 15.4329 365.502 14.7676V14.4531C365.502 13.7969 365.429 13.1771 365.283 12.5938C365.146 12.0013 364.928 11.4772 364.627 11.0215C364.335 10.5658 363.962 10.2103 363.506 9.95508C363.059 9.69076 362.526 9.55859 361.906 9.55859C361.286 9.55859 360.749 9.69076 360.293 9.95508C359.846 10.2103 359.477 10.5658 359.186 11.0215C358.894 11.4772 358.68 12.0013 358.543 12.5938C358.406 13.1771 358.338 13.7969 358.338 14.4531ZM374.826 10.3652V22H371.531V7.20703H374.635L374.826 10.3652ZM374.238 14.0566L373.172 14.043C373.181 12.9948 373.327 12.0332 373.609 11.1582C373.901 10.2832 374.302 9.53125 374.812 8.90234C375.332 8.27344 375.952 7.79036 376.672 7.45312C377.392 7.10677 378.194 6.93359 379.078 6.93359C379.789 6.93359 380.432 7.03385 381.006 7.23438C381.589 7.42578 382.086 7.74023 382.496 8.17773C382.915 8.61523 383.234 9.1849 383.453 9.88672C383.672 10.5794 383.781 11.4316 383.781 12.4434V22H380.473V12.4297C380.473 11.7188 380.368 11.1582 380.158 10.748C379.958 10.3288 379.661 10.0326 379.27 9.85938C378.887 9.67708 378.408 9.58594 377.834 9.58594C377.269 9.58594 376.763 9.70443 376.316 9.94141C375.87 10.1784 375.492 10.502 375.182 10.9121C374.881 11.3223 374.648 11.7962 374.484 12.334C374.32 12.8717 374.238 13.446 374.238 14.0566ZM400.898 7.20703V9.61328H392.559V7.20703H400.898ZM394.965 3.58398H398.26V17.9121C398.26 18.3678 398.324 18.7188 398.451 18.9648C398.588 19.2018 398.775 19.3613 399.012 19.4434C399.249 19.5254 399.527 19.5664 399.846 19.5664C400.074 19.5664 400.292 19.5527 400.502 19.5254C400.712 19.498 400.88 19.4707 401.008 19.4434L401.021 21.959C400.748 22.041 400.429 22.1139 400.064 22.1777C399.709 22.2415 399.299 22.2734 398.834 22.2734C398.077 22.2734 397.408 22.1413 396.824 21.877C396.241 21.6035 395.785 21.1615 395.457 20.5508C395.129 19.9401 394.965 19.1289 394.965 18.1172V3.58398ZM402.484 14.7676V14.4531C402.484 13.3867 402.639 12.3978 402.949 11.4863C403.259 10.5658 403.706 9.76823 404.289 9.09375C404.882 8.41016 405.602 7.88151 406.449 7.50781C407.306 7.125 408.272 6.93359 409.348 6.93359C410.432 6.93359 411.398 7.125 412.246 7.50781C413.103 7.88151 413.827 8.41016 414.42 9.09375C415.012 9.76823 415.464 10.5658 415.773 11.4863C416.083 12.3978 416.238 13.3867 416.238 14.4531V14.7676C416.238 15.834 416.083 16.8229 415.773 17.7344C415.464 18.6458 415.012 19.4434 414.42 20.127C413.827 20.8014 413.107 21.3301 412.26 21.7129C411.412 22.0866 410.451 22.2734 409.375 22.2734C408.29 22.2734 407.32 22.0866 406.463 21.7129C405.615 21.3301 404.895 20.8014 404.303 20.127C403.71 19.4434 403.259 18.6458 402.949 17.7344C402.639 16.8229 402.484 15.834 402.484 14.7676ZM405.779 14.4531V14.7676C405.779 15.4329 405.848 16.0618 405.984 16.6543C406.121 17.2467 406.335 17.7663 406.627 18.2129C406.919 18.6595 407.292 19.0104 407.748 19.2656C408.204 19.5208 408.746 19.6484 409.375 19.6484C409.986 19.6484 410.514 19.5208 410.961 19.2656C411.417 19.0104 411.79 18.6595 412.082 18.2129C412.374 17.7663 412.588 17.2467 412.725 16.6543C412.87 16.0618 412.943 15.4329 412.943 14.7676V14.4531C412.943 13.7969 412.87 13.1771 412.725 12.5938C412.588 12.0013 412.369 11.4772 412.068 11.0215C411.777 10.5658 411.403 10.2103 410.947 9.95508C410.501 9.69076 409.967 9.55859 409.348 9.55859C408.728 9.55859 408.19 9.69076 407.734 9.95508C407.288 10.2103 406.919 10.5658 406.627 11.0215C406.335 11.4772 406.121 12.0013 405.984 12.5938C405.848 13.1771 405.779 13.7969 405.779 14.4531ZM435.447 7.20703H438.441V21.5898C438.441 22.9206 438.159 24.0508 437.594 24.9805C437.029 25.9102 436.24 26.6165 435.229 27.0996C434.217 27.5918 433.046 27.8379 431.715 27.8379C431.15 27.8379 430.521 27.7559 429.828 27.5918C429.145 27.4277 428.479 27.1634 427.832 26.7988C427.194 26.4434 426.661 25.974 426.232 25.3906L427.777 23.4492C428.306 24.0781 428.889 24.5384 429.527 24.8301C430.165 25.1217 430.835 25.2676 431.537 25.2676C432.294 25.2676 432.936 25.1263 433.465 24.8438C434.003 24.5703 434.417 24.1647 434.709 23.627C435.001 23.0892 435.146 22.4329 435.146 21.6582V10.5566L435.447 7.20703ZM425.398 14.7676V14.4805C425.398 13.3594 425.535 12.3385 425.809 11.418C426.082 10.4883 426.474 9.69076 426.984 9.02539C427.495 8.35091 428.115 7.83594 428.844 7.48047C429.573 7.11589 430.398 6.93359 431.318 6.93359C432.275 6.93359 433.091 7.10677 433.766 7.45312C434.449 7.79948 435.019 8.29622 435.475 8.94336C435.93 9.58138 436.286 10.347 436.541 11.2402C436.805 12.1243 437.001 13.1087 437.129 14.1934V15.1094C437.01 16.1667 436.81 17.1328 436.527 18.0078C436.245 18.8828 435.871 19.6393 435.406 20.2773C434.941 20.9154 434.367 21.4076 433.684 21.7539C433.009 22.1003 432.212 22.2734 431.291 22.2734C430.389 22.2734 429.573 22.0866 428.844 21.7129C428.124 21.3392 427.504 20.8151 426.984 20.1406C426.474 19.4661 426.082 18.6732 425.809 17.7617C425.535 16.8411 425.398 15.8431 425.398 14.7676ZM428.693 14.4805V14.7676C428.693 15.4421 428.757 16.071 428.885 16.6543C429.021 17.2376 429.227 17.7526 429.5 18.1992C429.783 18.6367 430.138 18.9831 430.566 19.2383C431.004 19.4844 431.519 19.6074 432.111 19.6074C432.886 19.6074 433.52 19.4434 434.012 19.1152C434.513 18.7871 434.896 18.3451 435.16 17.7891C435.434 17.224 435.625 16.5951 435.734 15.9023V13.4277C435.68 12.89 435.566 12.3887 435.393 11.9238C435.229 11.459 435.005 11.0534 434.723 10.707C434.44 10.3516 434.085 10.0781 433.656 9.88672C433.228 9.6862 432.722 9.58594 432.139 9.58594C431.546 9.58594 431.031 9.71354 430.594 9.96875C430.156 10.224 429.796 10.5749 429.514 11.0215C429.24 11.4681 429.035 11.9876 428.898 12.5801C428.762 13.1725 428.693 13.806 428.693 14.4805ZM445.168 10.0234V22H441.873V7.20703H445.018L445.168 10.0234ZM449.693 7.11133L449.666 10.1738C449.465 10.1374 449.247 10.11 449.01 10.0918C448.782 10.0736 448.554 10.0645 448.326 10.0645C447.761 10.0645 447.264 10.1465 446.836 10.3105C446.408 10.4655 446.048 10.6934 445.756 10.9941C445.473 11.2858 445.255 11.6413 445.1 12.0605C444.945 12.4798 444.854 12.9492 444.826 13.4688L444.074 13.5234C444.074 12.5938 444.165 11.7324 444.348 10.9395C444.53 10.1465 444.803 9.44922 445.168 8.84766C445.542 8.24609 446.007 7.77669 446.562 7.43945C447.128 7.10221 447.779 6.93359 448.518 6.93359C448.718 6.93359 448.932 6.95182 449.16 6.98828C449.397 7.02474 449.575 7.06576 449.693 7.11133ZM459.605 19.0332V11.9785C459.605 11.4499 459.51 10.9941 459.318 10.6113C459.127 10.2285 458.835 9.93229 458.443 9.72266C458.061 9.51302 457.577 9.4082 456.994 9.4082C456.456 9.4082 455.992 9.49935 455.6 9.68164C455.208 9.86393 454.902 10.11 454.684 10.4199C454.465 10.7298 454.355 11.0807 454.355 11.4727H451.074C451.074 10.8893 451.215 10.3242 451.498 9.77734C451.781 9.23047 452.191 8.74284 452.729 8.31445C453.266 7.88607 453.909 7.54883 454.656 7.30273C455.404 7.05664 456.242 6.93359 457.172 6.93359C458.284 6.93359 459.268 7.12044 460.125 7.49414C460.991 7.86784 461.67 8.43294 462.162 9.18945C462.663 9.93685 462.914 10.8757 462.914 12.0059V18.582C462.914 19.2565 462.96 19.8626 463.051 20.4004C463.151 20.929 463.292 21.3893 463.475 21.7812V22H460.098C459.943 21.6445 459.82 21.1934 459.729 20.6465C459.646 20.0905 459.605 19.5527 459.605 19.0332ZM460.084 13.0039L460.111 15.041H457.746C457.135 15.041 456.598 15.1003 456.133 15.2188C455.668 15.3281 455.281 15.4922 454.971 15.7109C454.661 15.9297 454.428 16.194 454.273 16.5039C454.118 16.8138 454.041 17.1647 454.041 17.5566C454.041 17.9486 454.132 18.3086 454.314 18.6367C454.497 18.9557 454.761 19.2064 455.107 19.3887C455.463 19.571 455.891 19.6621 456.393 19.6621C457.067 19.6621 457.655 19.5254 458.156 19.252C458.667 18.9694 459.068 18.6276 459.359 18.2266C459.651 17.8164 459.806 17.429 459.824 17.0645L460.891 18.5273C460.781 18.901 460.594 19.3021 460.33 19.7305C460.066 20.1589 459.719 20.569 459.291 20.9609C458.872 21.3438 458.366 21.6582 457.773 21.9043C457.19 22.1504 456.516 22.2734 455.75 22.2734C454.784 22.2734 453.923 22.082 453.166 21.6992C452.41 21.3073 451.817 20.7832 451.389 20.127C450.96 19.4616 450.746 18.7096 450.746 17.8711C450.746 17.0872 450.892 16.3945 451.184 15.793C451.484 15.1823 451.922 14.6719 452.496 14.2617C453.079 13.8516 453.79 13.5417 454.629 13.332C455.467 13.1133 456.424 13.0039 457.5 13.0039H460.084ZM469.627 10.3652V22H466.332V7.20703H469.436L469.627 10.3652ZM469.039 14.0566L467.973 14.043C467.982 12.9948 468.128 12.0332 468.41 11.1582C468.702 10.2832 469.103 9.53125 469.613 8.90234C470.133 8.27344 470.753 7.79036 471.473 7.45312C472.193 7.10677 472.995 6.93359 473.879 6.93359C474.59 6.93359 475.232 7.03385 475.807 7.23438C476.39 7.42578 476.887 7.74023 477.297 8.17773C477.716 8.61523 478.035 9.1849 478.254 9.88672C478.473 10.5794 478.582 11.4316 478.582 12.4434V22H475.273V12.4297C475.273 11.7188 475.169 11.1582 474.959 10.748C474.758 10.3288 474.462 10.0326 474.07 9.85938C473.688 9.67708 473.209 9.58594 472.635 9.58594C472.07 9.58594 471.564 9.70443 471.117 9.94141C470.671 10.1784 470.292 10.502 469.982 10.9121C469.682 11.3223 469.449 11.7962 469.285 12.334C469.121 12.8717 469.039 13.446 469.039 14.0566ZM488.727 7.20703V9.61328H480.387V7.20703H488.727ZM482.793 3.58398H486.088V17.9121C486.088 18.3678 486.152 18.7188 486.279 18.9648C486.416 19.2018 486.603 19.3613 486.84 19.4434C487.077 19.5254 487.355 19.5664 487.674 19.5664C487.902 19.5664 488.12 19.5527 488.33 19.5254C488.54 19.498 488.708 19.4707 488.836 19.4434L488.85 21.959C488.576 22.041 488.257 22.1139 487.893 22.1777C487.537 22.2415 487.127 22.2734 486.662 22.2734C485.906 22.2734 485.236 22.1413 484.652 21.877C484.069 21.6035 483.613 21.1615 483.285 20.5508C482.957 19.9401 482.793 19.1289 482.793 18.1172V3.58398ZM179.195 45.0508V62.6875H175.9V42.207H178.936L179.195 45.0508ZM188.834 49.4668V49.7539C188.834 50.8294 188.706 51.8275 188.451 52.748C188.205 53.6595 187.836 54.457 187.344 55.1406C186.861 55.8151 186.264 56.3392 185.553 56.7129C184.842 57.0866 184.021 57.2734 183.092 57.2734C182.171 57.2734 181.365 57.1048 180.672 56.7676C179.988 56.4212 179.41 55.9336 178.936 55.3047C178.462 54.6758 178.079 53.9375 177.787 53.0898C177.505 52.2331 177.304 51.2943 177.186 50.2734V49.166C177.304 48.0814 177.505 47.097 177.787 46.2129C178.079 45.3288 178.462 44.5677 178.936 43.9297C179.41 43.2917 179.988 42.7995 180.672 42.4531C181.355 42.1068 182.153 41.9336 183.064 41.9336C183.994 41.9336 184.819 42.1159 185.539 42.4805C186.259 42.8359 186.865 43.3464 187.357 44.0117C187.85 44.668 188.219 45.4609 188.465 46.3906C188.711 47.3112 188.834 48.3366 188.834 49.4668ZM185.539 49.7539V49.4668C185.539 48.7832 185.475 48.1497 185.348 47.5664C185.22 46.974 185.02 46.4544 184.746 46.0078C184.473 45.5612 184.122 45.2148 183.693 44.9688C183.274 44.7135 182.768 44.5859 182.176 44.5859C181.592 44.5859 181.091 44.6862 180.672 44.8867C180.253 45.0781 179.902 45.347 179.619 45.6934C179.337 46.0397 179.118 46.4453 178.963 46.9102C178.808 47.3659 178.699 47.8626 178.635 48.4004V51.0527C178.744 51.709 178.931 52.3105 179.195 52.8574C179.46 53.4043 179.833 53.8418 180.316 54.1699C180.809 54.4889 181.438 54.6484 182.203 54.6484C182.796 54.6484 183.301 54.5208 183.721 54.2656C184.14 54.0104 184.482 53.6595 184.746 53.2129C185.02 52.7572 185.22 52.2331 185.348 51.6406C185.475 51.0482 185.539 50.4193 185.539 49.7539ZM198.158 57.2734C197.064 57.2734 196.076 57.0957 195.191 56.7402C194.316 56.3757 193.569 55.8698 192.949 55.2227C192.339 54.5755 191.869 53.8145 191.541 52.9395C191.213 52.0645 191.049 51.1211 191.049 50.1094V49.5625C191.049 48.4049 191.217 47.3568 191.555 46.418C191.892 45.4792 192.361 44.6771 192.963 44.0117C193.564 43.3372 194.275 42.8223 195.096 42.4668C195.916 42.1113 196.805 41.9336 197.762 41.9336C198.819 41.9336 199.744 42.1113 200.537 42.4668C201.33 42.8223 201.986 43.3236 202.506 43.9707C203.035 44.6087 203.426 45.3698 203.682 46.2539C203.946 47.138 204.078 48.1133 204.078 49.1797V50.5879H192.648V48.2227H200.824V47.9629C200.806 47.3704 200.688 46.8145 200.469 46.2949C200.259 45.7754 199.936 45.3561 199.498 45.0371C199.061 44.7181 198.477 44.5586 197.748 44.5586C197.201 44.5586 196.714 44.6771 196.285 44.9141C195.866 45.1419 195.515 45.4746 195.232 45.9121C194.95 46.3496 194.731 46.8783 194.576 47.498C194.43 48.1087 194.357 48.7969 194.357 49.5625V50.1094C194.357 50.7565 194.444 51.3581 194.617 51.9141C194.799 52.4609 195.064 52.9395 195.41 53.3496C195.757 53.7598 196.176 54.0833 196.668 54.3203C197.16 54.5482 197.721 54.6621 198.35 54.6621C199.143 54.6621 199.849 54.5026 200.469 54.1836C201.089 53.8646 201.626 53.4134 202.082 52.8301L203.818 54.5117C203.499 54.9766 203.085 55.4232 202.574 55.8516C202.064 56.2708 201.439 56.6126 200.701 56.877C199.972 57.1413 199.124 57.2734 198.158 57.2734ZM209.957 45.0234V57H206.662V42.207H209.807L209.957 45.0234ZM214.482 42.1113L214.455 45.1738C214.255 45.1374 214.036 45.11 213.799 45.0918C213.571 45.0736 213.343 45.0645 213.115 45.0645C212.55 45.0645 212.053 45.1465 211.625 45.3105C211.197 45.4655 210.837 45.6934 210.545 45.9941C210.262 46.2858 210.044 46.6413 209.889 47.0605C209.734 47.4798 209.643 47.9492 209.615 48.4688L208.863 48.5234C208.863 47.5938 208.954 46.7324 209.137 45.9395C209.319 45.1465 209.592 44.4492 209.957 43.8477C210.331 43.2461 210.796 42.7767 211.352 42.4395C211.917 42.1022 212.568 41.9336 213.307 41.9336C213.507 41.9336 213.721 41.9518 213.949 41.9883C214.186 42.0247 214.364 42.0658 214.482 42.1113ZM219.842 45.2148V57H216.547V42.207H219.65L219.842 45.2148ZM219.309 49.0566L218.188 49.043C218.188 48.0221 218.315 47.0788 218.57 46.2129C218.826 45.347 219.199 44.5951 219.691 43.957C220.184 43.3099 220.794 42.8132 221.523 42.4668C222.262 42.1113 223.114 41.9336 224.08 41.9336C224.755 41.9336 225.37 42.0339 225.926 42.2344C226.491 42.4258 226.979 42.7311 227.389 43.1504C227.808 43.5697 228.127 44.1074 228.346 44.7637C228.574 45.4199 228.688 46.2129 228.688 47.1426V57H225.393V47.4297C225.393 46.7096 225.283 46.1445 225.064 45.7344C224.855 45.3242 224.549 45.0326 224.148 44.8594C223.757 44.6771 223.287 44.5859 222.74 44.5859C222.12 44.5859 221.592 44.7044 221.154 44.9414C220.726 45.1784 220.375 45.502 220.102 45.9121C219.828 46.3223 219.628 46.7962 219.5 47.334C219.372 47.8717 219.309 48.446 219.309 49.0566ZM228.482 48.1816L226.938 48.5234C226.938 47.6302 227.061 46.7871 227.307 45.9941C227.562 45.1921 227.931 44.4902 228.414 43.8887C228.906 43.278 229.512 42.7995 230.232 42.4531C230.952 42.1068 231.777 41.9336 232.707 41.9336C233.464 41.9336 234.138 42.0384 234.73 42.248C235.332 42.4486 235.842 42.7676 236.262 43.2051C236.681 43.6426 237 44.2122 237.219 44.9141C237.438 45.6068 237.547 46.4453 237.547 47.4297V57H234.238V47.416C234.238 46.6686 234.129 46.0898 233.91 45.6797C233.701 45.2695 233.4 44.987 233.008 44.832C232.616 44.668 232.146 44.5859 231.6 44.5859C231.089 44.5859 230.638 44.6816 230.246 44.873C229.863 45.0553 229.54 45.3151 229.275 45.6523C229.011 45.9805 228.811 46.3587 228.674 46.7871C228.546 47.2155 228.482 47.6803 228.482 48.1816ZM244.465 42.207V57H241.156V42.207H244.465ZM240.938 38.3242C240.938 37.8229 241.102 37.4082 241.43 37.0801C241.767 36.7428 242.232 36.5742 242.824 36.5742C243.408 36.5742 243.868 36.7428 244.205 37.0801C244.542 37.4082 244.711 37.8229 244.711 38.3242C244.711 38.8164 244.542 39.2266 244.205 39.5547C243.868 39.8828 243.408 40.0469 242.824 40.0469C242.232 40.0469 241.767 39.8828 241.43 39.5547C241.102 39.2266 240.938 38.8164 240.938 38.3242ZM256.373 52.9941C256.373 52.666 256.291 52.3698 256.127 52.1055C255.963 51.832 255.648 51.5859 255.184 51.3672C254.728 51.1484 254.053 50.9479 253.16 50.7656C252.376 50.5924 251.656 50.3874 251 50.1504C250.353 49.9043 249.797 49.6081 249.332 49.2617C248.867 48.9154 248.507 48.5052 248.252 48.0312C247.997 47.5573 247.869 47.0104 247.869 46.3906C247.869 45.7891 248.001 45.2194 248.266 44.6816C248.53 44.1439 248.908 43.6699 249.4 43.2598C249.893 42.8496 250.49 42.526 251.191 42.2891C251.902 42.0521 252.695 41.9336 253.57 41.9336C254.81 41.9336 255.872 42.1432 256.756 42.5625C257.649 42.9727 258.333 43.5332 258.807 44.2441C259.281 44.946 259.518 45.7389 259.518 46.623H256.223C256.223 46.2311 256.122 45.8665 255.922 45.5293C255.73 45.1829 255.439 44.9049 255.047 44.6953C254.655 44.4766 254.163 44.3672 253.57 44.3672C253.005 44.3672 252.536 44.4583 252.162 44.6406C251.798 44.8138 251.524 45.0417 251.342 45.3242C251.169 45.6068 251.082 45.9167 251.082 46.2539C251.082 46.5 251.128 46.7233 251.219 46.9238C251.319 47.1152 251.483 47.293 251.711 47.457C251.939 47.612 252.249 47.7578 252.641 47.8945C253.042 48.0312 253.543 48.1634 254.145 48.291C255.275 48.528 256.245 48.8333 257.057 49.207C257.877 49.5716 258.506 50.0456 258.943 50.6289C259.381 51.2031 259.6 51.9323 259.6 52.8164C259.6 53.4727 259.458 54.0742 259.176 54.6211C258.902 55.1589 258.501 55.6283 257.973 56.0293C257.444 56.4212 256.811 56.7266 256.072 56.9453C255.343 57.1641 254.523 57.2734 253.611 57.2734C252.271 57.2734 251.137 57.0365 250.207 56.5625C249.277 56.0794 248.571 55.4642 248.088 54.7168C247.614 53.9603 247.377 53.1764 247.377 52.3652H250.562C250.599 52.9759 250.768 53.4635 251.068 53.8281C251.378 54.1836 251.761 54.4434 252.217 54.6074C252.682 54.7624 253.16 54.8398 253.652 54.8398C254.245 54.8398 254.742 54.7624 255.143 54.6074C255.544 54.4434 255.849 54.2246 256.059 53.9512C256.268 53.6686 256.373 53.3496 256.373 52.9941ZM270.783 52.9941C270.783 52.666 270.701 52.3698 270.537 52.1055C270.373 51.832 270.059 51.5859 269.594 51.3672C269.138 51.1484 268.464 50.9479 267.57 50.7656C266.786 50.5924 266.066 50.3874 265.41 50.1504C264.763 49.9043 264.207 49.6081 263.742 49.2617C263.277 48.9154 262.917 48.5052 262.662 48.0312C262.407 47.5573 262.279 47.0104 262.279 46.3906C262.279 45.7891 262.411 45.2194 262.676 44.6816C262.94 44.1439 263.318 43.6699 263.811 43.2598C264.303 42.8496 264.9 42.526 265.602 42.2891C266.312 42.0521 267.105 41.9336 267.98 41.9336C269.22 41.9336 270.282 42.1432 271.166 42.5625C272.059 42.9727 272.743 43.5332 273.217 44.2441C273.691 44.946 273.928 45.7389 273.928 46.623H270.633C270.633 46.2311 270.533 45.8665 270.332 45.5293C270.141 45.1829 269.849 44.9049 269.457 44.6953C269.065 44.4766 268.573 44.3672 267.98 44.3672C267.415 44.3672 266.946 44.4583 266.572 44.6406C266.208 44.8138 265.934 45.0417 265.752 45.3242C265.579 45.6068 265.492 45.9167 265.492 46.2539C265.492 46.5 265.538 46.7233 265.629 46.9238C265.729 47.1152 265.893 47.293 266.121 47.457C266.349 47.612 266.659 47.7578 267.051 47.8945C267.452 48.0312 267.953 48.1634 268.555 48.291C269.685 48.528 270.656 48.8333 271.467 49.207C272.287 49.5716 272.916 50.0456 273.354 50.6289C273.791 51.2031 274.01 51.9323 274.01 52.8164C274.01 53.4727 273.868 54.0742 273.586 54.6211C273.312 55.1589 272.911 55.6283 272.383 56.0293C271.854 56.4212 271.221 56.7266 270.482 56.9453C269.753 57.1641 268.933 57.2734 268.021 57.2734C266.682 57.2734 265.547 57.0365 264.617 56.5625C263.688 56.0794 262.981 55.4642 262.498 54.7168C262.024 53.9603 261.787 53.1764 261.787 52.3652H264.973C265.009 52.9759 265.178 53.4635 265.479 53.8281C265.788 54.1836 266.171 54.4434 266.627 54.6074C267.092 54.7624 267.57 54.8398 268.062 54.8398C268.655 54.8398 269.152 54.7624 269.553 54.6074C269.954 54.4434 270.259 54.2246 270.469 53.9512C270.678 53.6686 270.783 53.3496 270.783 52.9941ZM280.422 42.207V57H277.113V42.207H280.422ZM276.895 38.3242C276.895 37.8229 277.059 37.4082 277.387 37.0801C277.724 36.7428 278.189 36.5742 278.781 36.5742C279.365 36.5742 279.825 36.7428 280.162 37.0801C280.499 37.4082 280.668 37.8229 280.668 38.3242C280.668 38.8164 280.499 39.2266 280.162 39.5547C279.825 39.8828 279.365 40.0469 278.781 40.0469C278.189 40.0469 277.724 39.8828 277.387 39.5547C277.059 39.2266 276.895 38.8164 276.895 38.3242ZM283.402 49.7676V49.4531C283.402 48.3867 283.557 47.3978 283.867 46.4863C284.177 45.5658 284.624 44.7682 285.207 44.0938C285.799 43.4102 286.52 42.8815 287.367 42.5078C288.224 42.125 289.19 41.9336 290.266 41.9336C291.35 41.9336 292.316 42.125 293.164 42.5078C294.021 42.8815 294.745 43.4102 295.338 44.0938C295.93 44.7682 296.382 45.5658 296.691 46.4863C297.001 47.3978 297.156 48.3867 297.156 49.4531V49.7676C297.156 50.834 297.001 51.8229 296.691 52.7344C296.382 53.6458 295.93 54.4434 295.338 55.127C294.745 55.8014 294.025 56.3301 293.178 56.7129C292.33 57.0866 291.368 57.2734 290.293 57.2734C289.208 57.2734 288.238 57.0866 287.381 56.7129C286.533 56.3301 285.813 55.8014 285.221 55.127C284.628 54.4434 284.177 53.6458 283.867 52.7344C283.557 51.8229 283.402 50.834 283.402 49.7676ZM286.697 49.4531V49.7676C286.697 50.4329 286.766 51.0618 286.902 51.6543C287.039 52.2467 287.253 52.7663 287.545 53.2129C287.837 53.6595 288.21 54.0104 288.666 54.2656C289.122 54.5208 289.664 54.6484 290.293 54.6484C290.904 54.6484 291.432 54.5208 291.879 54.2656C292.335 54.0104 292.708 53.6595 293 53.2129C293.292 52.7663 293.506 52.2467 293.643 51.6543C293.788 51.0618 293.861 50.4329 293.861 49.7676V49.4531C293.861 48.7969 293.788 48.1771 293.643 47.5938C293.506 47.0013 293.287 46.4772 292.986 46.0215C292.695 45.5658 292.321 45.2103 291.865 44.9551C291.419 44.6908 290.885 44.5586 290.266 44.5586C289.646 44.5586 289.108 44.6908 288.652 44.9551C288.206 45.2103 287.837 45.5658 287.545 46.0215C287.253 46.4772 287.039 47.0013 286.902 47.5938C286.766 48.1771 286.697 48.7969 286.697 49.4531ZM303.186 45.3652V57H299.891V42.207H302.994L303.186 45.3652ZM302.598 49.0566L301.531 49.043C301.54 47.9948 301.686 47.0332 301.969 46.1582C302.26 45.2832 302.661 44.5312 303.172 43.9023C303.691 43.2734 304.311 42.7904 305.031 42.4531C305.751 42.1068 306.553 41.9336 307.438 41.9336C308.148 41.9336 308.791 42.0339 309.365 42.2344C309.949 42.4258 310.445 42.7402 310.855 43.1777C311.275 43.6152 311.594 44.1849 311.812 44.8867C312.031 45.5794 312.141 46.4316 312.141 47.4434V57H308.832V47.4297C308.832 46.7188 308.727 46.1582 308.518 45.748C308.317 45.3288 308.021 45.0326 307.629 44.8594C307.246 44.6771 306.768 44.5859 306.193 44.5859C305.628 44.5859 305.122 44.7044 304.676 44.9414C304.229 45.1784 303.851 45.502 303.541 45.9121C303.24 46.3223 303.008 46.7962 302.844 47.334C302.68 47.8717 302.598 48.446 302.598 49.0566Z" fill="#232F4A"/>
</svg>
