<svg width="383" height="55" viewBox="0 0 383 55" fill="none" xmlns="http://www.w3.org/2000/svg">
<path d="M31.5481 11.8115C32.1592 11.0421 32.4986 10.0916 32.4986 9.05058C32.4986 6.56119 30.4618 4.52441 27.9725 4.52441C25.4831 4.52441 23.4463 6.56119 23.4463 9.05058C23.4463 10.0916 23.7858 11.0421 24.3968 11.8115" stroke="#5F88E6" stroke-width="2.26308" stroke-miterlimit="10" stroke-linecap="round" stroke-linejoin="round"/>
<path d="M33.5167 42.9971H22.4276C22.3597 43.3592 22.3145 43.7439 22.3145 44.1286C22.3145 47.2517 24.8491 49.7863 27.9722 49.7863C31.0952 49.7863 33.6299 47.2517 33.6299 44.1286C33.6299 43.7439 33.5846 43.3592 33.5167 42.9971Z" stroke="#5F88E6" stroke-width="2.26308" stroke-miterlimit="10" stroke-linecap="round" stroke-linejoin="round"/>
<path d="M13.5786 33.6975L9.86719 42.9988H46.0765L42.3651 33.6975C41.8219 32.3623 41.5504 30.9366 41.5504 29.5108V25.4599C41.5504 18.037 35.8248 11.5419 28.3792 11.3156C20.7074 11.0893 14.3934 17.2449 14.3934 24.8941V29.5108C14.3934 30.9366 14.1218 32.3623 13.5786 33.6975Z" stroke="#5F88E6" stroke-width="2.26308" stroke-miterlimit="10" stroke-linecap="round" stroke-linejoin="round"/>
<path d="M7.60449 6.78809L48.34 47.5236" stroke="#5F88E6" stroke-width="2.26308" stroke-miterlimit="10" stroke-linecap="round" stroke-linejoin="round"/>
<path d="M86.3463 19.0681V35.1572H84.2025L76.1027 22.7478V35.1572H73.97V19.0681H76.1027L84.2357 31.5107V19.0681H86.3463ZM89.2746 29.3117V29.0575C89.2746 28.1956 89.3998 27.3963 89.6503 26.6596C89.9007 25.9156 90.2617 25.271 90.7332 24.7258C91.2047 24.1733 91.7756 23.746 92.446 23.444C93.1164 23.1346 93.8678 22.9799 94.7002 22.9799C95.54 22.9799 96.2951 23.1346 96.9655 23.444C97.6433 23.746 98.2179 24.1733 98.6893 24.7258C99.1682 25.271 99.5328 25.9156 99.7833 26.6596C100.034 27.3963 100.159 28.1956 100.159 29.0575V29.3117C100.159 30.1736 100.034 30.9729 99.7833 31.7096C99.5328 32.4462 99.1682 33.0908 98.6893 33.6433C98.2179 34.1885 97.6469 34.6158 96.9766 34.9252C96.3136 35.2272 95.5621 35.3782 94.7223 35.3782C93.8825 35.3782 93.1274 35.2272 92.457 34.9252C91.7866 34.6158 91.212 34.1885 90.7332 33.6433C90.2617 33.0908 89.9007 32.4462 89.6503 31.7096C89.3998 30.9729 89.2746 30.1736 89.2746 29.3117ZM91.3189 29.0575V29.3117C91.3189 29.9084 91.3888 30.4719 91.5288 31.0023C91.6688 31.5254 91.8787 31.9895 92.1587 32.3947C92.446 32.7998 92.8033 33.1203 93.2305 33.356C93.6578 33.5844 94.1551 33.6986 94.7223 33.6986C95.2822 33.6986 95.7721 33.5844 96.192 33.356C96.6193 33.1203 96.9729 32.7998 97.2528 32.3947C97.5328 31.9895 97.7427 31.5254 97.8827 31.0023C98.03 30.4719 98.1037 29.9084 98.1037 29.3117V29.0575C98.1037 28.4682 98.03 27.912 97.8827 27.3889C97.7427 26.8585 97.5291 26.3907 97.2418 25.9856C96.9618 25.573 96.6082 25.2489 96.1809 25.0131C95.761 24.7774 95.2675 24.6595 94.7002 24.6595C94.1403 24.6595 93.6468 24.7774 93.2195 25.0131C92.7996 25.2489 92.446 25.573 92.1587 25.9856C91.8787 26.3907 91.6688 26.8585 91.5288 27.3889C91.3888 27.912 91.3189 28.4682 91.3189 29.0575ZM107.728 23.2009V24.77H101.264V23.2009H107.728ZM103.452 20.2947H105.496V32.1958C105.496 32.6009 105.559 32.9067 105.684 33.1129C105.809 33.3192 105.971 33.4555 106.17 33.5218C106.369 33.5881 106.583 33.6212 106.811 33.6212C106.981 33.6212 107.157 33.6065 107.342 33.577C107.533 33.5402 107.677 33.5107 107.773 33.4886L107.784 35.1572C107.622 35.2088 107.408 35.2567 107.143 35.3009C106.885 35.3524 106.572 35.3782 106.203 35.3782C105.703 35.3782 105.242 35.2788 104.822 35.0799C104.402 34.881 104.067 34.5495 103.817 34.0854C103.574 33.6139 103.452 32.9803 103.452 32.1847V20.2947ZM112.347 23.2009V35.1572H110.292V23.2009H112.347ZM110.137 20.0295C110.137 19.698 110.237 19.418 110.436 19.1897C110.642 18.9613 110.944 18.8471 111.342 18.8471C111.732 18.8471 112.031 18.9613 112.237 19.1897C112.451 19.418 112.557 19.698 112.557 20.0295C112.557 20.3463 112.451 20.6188 112.237 20.8472C112.031 21.0682 111.732 21.1787 111.342 21.1787C110.944 21.1787 110.642 21.0682 110.436 20.8472C110.237 20.6188 110.137 20.3463 110.137 20.0295ZM118.359 35.1572H116.314V22.1622C116.314 21.2561 116.491 20.4899 116.845 19.8637C117.198 19.2376 117.703 18.7624 118.359 18.4383C119.014 18.1141 119.792 17.952 120.69 17.952C121.221 17.952 121.74 18.0183 122.248 18.151C122.757 18.2762 123.28 18.4346 123.818 18.6261L123.475 20.3499C123.136 20.2173 122.742 20.0921 122.293 19.9742C121.851 19.849 121.364 19.7864 120.834 19.7864C119.957 19.7864 119.324 19.9853 118.933 20.3831C118.55 20.7735 118.359 21.3666 118.359 22.1622V35.1572ZM120.801 23.2009V24.77H114.425V23.2009H120.801ZM124.823 23.2009V35.1572H122.779V23.2009H124.823ZM132.967 33.6986C133.453 33.6986 133.903 33.5991 134.315 33.4002C134.728 33.2013 135.067 32.9288 135.332 32.5825C135.597 32.2289 135.748 31.8274 135.785 31.3781H137.73C137.693 32.0853 137.453 32.7446 137.011 33.356C136.577 33.9601 136.006 34.45 135.299 34.8257C134.591 35.1941 133.814 35.3782 132.967 35.3782C132.068 35.3782 131.284 35.2198 130.613 34.9031C129.95 34.5863 129.398 34.1517 128.956 33.5991C128.521 33.0466 128.193 32.4131 127.972 31.6985C127.759 30.9766 127.652 30.2141 127.652 29.4111V28.947C127.652 28.144 127.759 27.3852 127.972 26.6707C128.193 25.9487 128.521 25.3115 128.956 24.759C129.398 24.2065 129.95 23.7718 130.613 23.4551C131.284 23.1383 132.068 22.9799 132.967 22.9799C133.903 22.9799 134.72 23.1714 135.42 23.5545C136.12 23.9302 136.669 24.4459 137.067 25.1015C137.472 25.7498 137.693 26.4865 137.73 27.3116H135.785C135.748 26.818 135.608 26.3723 135.365 25.9745C135.129 25.5767 134.805 25.2599 134.393 25.0242C133.987 24.7811 133.512 24.6595 132.967 24.6595C132.341 24.6595 131.814 24.7848 131.387 25.0352C130.967 25.2783 130.632 25.6098 130.381 26.0298C130.138 26.4423 129.961 26.9027 129.851 27.411C129.748 27.912 129.696 28.424 129.696 28.947V29.4111C129.696 29.9342 129.748 30.4498 129.851 30.9581C129.954 31.4665 130.127 31.9269 130.37 32.3394C130.621 32.752 130.956 33.0835 131.376 33.3339C131.803 33.577 132.334 33.6986 132.967 33.6986ZM147.078 33.1129V26.958C147.078 26.4865 146.982 26.0776 146.791 25.7314C146.607 25.3778 146.327 25.1052 145.951 24.9137C145.575 24.7221 145.111 24.6264 144.559 24.6264C144.043 24.6264 143.59 24.7148 143.2 24.8916C142.817 25.0684 142.514 25.3004 142.293 25.5877C142.08 25.875 141.973 26.1845 141.973 26.516H139.929C139.929 26.0887 140.039 25.6651 140.26 25.2452C140.481 24.8253 140.798 24.4459 141.211 24.107C141.63 23.7608 142.131 23.4882 142.713 23.2893C143.303 23.083 143.958 22.9799 144.68 22.9799C145.55 22.9799 146.316 23.1272 146.979 23.4219C147.649 23.7166 148.172 24.1623 148.548 24.759C148.931 25.3483 149.123 26.0887 149.123 26.9801V32.5494C149.123 32.9472 149.156 33.3708 149.222 33.8202C149.296 34.2695 149.402 34.6563 149.542 34.9804V35.1572H147.41C147.307 34.9215 147.226 34.6084 147.167 34.218C147.108 33.8202 147.078 33.4518 147.078 33.1129ZM147.432 27.9083L147.454 29.3448H145.388C144.806 29.3448 144.286 29.3927 143.829 29.4885C143.373 29.5769 142.99 29.7132 142.68 29.8973C142.371 30.0815 142.135 30.3136 141.973 30.5935C141.811 30.8661 141.73 31.1865 141.73 31.5549C141.73 31.9306 141.815 32.2731 141.984 32.5825C142.154 32.8919 142.408 33.1387 142.747 33.3229C143.093 33.4997 143.516 33.5881 144.017 33.5881C144.643 33.5881 145.196 33.4555 145.675 33.1903C146.154 32.9251 146.533 32.6009 146.813 32.2179C147.1 31.8348 147.255 31.4628 147.277 31.1018L148.15 32.0853C148.099 32.3947 147.959 32.7372 147.73 33.1129C147.502 33.4886 147.196 33.8496 146.813 34.1959C146.437 34.5347 145.988 34.8184 145.465 35.0467C144.949 35.2677 144.367 35.3782 143.719 35.3782C142.909 35.3782 142.198 35.2198 141.586 34.9031C140.982 34.5863 140.511 34.1627 140.172 33.6323C139.84 33.0945 139.675 32.4941 139.675 31.8311C139.675 31.1902 139.8 30.6266 140.05 30.1404C140.301 29.6469 140.662 29.238 141.133 28.9139C141.605 28.5824 142.172 28.3319 142.835 28.1624C143.498 27.993 144.238 27.9083 145.056 27.9083H147.432ZM157.344 23.2009V24.77H150.879V23.2009H157.344ZM153.067 20.2947H155.112V32.1958C155.112 32.6009 155.174 32.9067 155.3 33.1129C155.425 33.3192 155.587 33.4555 155.786 33.5218C155.985 33.5881 156.198 33.6212 156.427 33.6212C156.596 33.6212 156.773 33.6065 156.957 33.577C157.149 33.5402 157.292 33.5107 157.388 33.4886L157.399 35.1572C157.237 35.2088 157.023 35.2567 156.758 35.3009C156.5 35.3524 156.187 35.3782 155.819 35.3782C155.318 35.3782 154.858 35.2788 154.438 35.0799C154.018 34.881 153.683 34.5495 153.432 34.0854C153.189 33.6139 153.067 32.9803 153.067 32.1847V20.2947ZM161.963 23.2009V35.1572H159.908V23.2009H161.963ZM159.753 20.0295C159.753 19.698 159.852 19.418 160.051 19.1897C160.257 18.9613 160.559 18.8471 160.957 18.8471C161.348 18.8471 161.646 18.9613 161.852 19.1897C162.066 19.418 162.173 19.698 162.173 20.0295C162.173 20.3463 162.066 20.6188 161.852 20.8472C161.646 21.0682 161.348 21.1787 160.957 21.1787C160.559 21.1787 160.257 21.0682 160.051 20.8472C159.852 20.6188 159.753 20.3463 159.753 20.0295ZM164.703 29.3117V29.0575C164.703 28.1956 164.829 27.3963 165.079 26.6596C165.329 25.9156 165.69 25.271 166.162 24.7258C166.633 24.1733 167.204 23.746 167.875 23.444C168.545 23.1346 169.297 22.9799 170.129 22.9799C170.969 22.9799 171.724 23.1346 172.394 23.444C173.072 23.746 173.647 24.1733 174.118 24.7258C174.597 25.271 174.962 25.9156 175.212 26.6596C175.463 27.3963 175.588 28.1956 175.588 29.0575V29.3117C175.588 30.1736 175.463 30.9729 175.212 31.7096C174.962 32.4462 174.597 33.0908 174.118 33.6433C173.647 34.1885 173.076 34.6158 172.405 34.9252C171.742 35.2272 170.991 35.3782 170.151 35.3782C169.311 35.3782 168.556 35.2272 167.886 34.9252C167.215 34.6158 166.641 34.1885 166.162 33.6433C165.69 33.0908 165.329 32.4462 165.079 31.7096C164.829 30.9729 164.703 30.1736 164.703 29.3117ZM166.748 29.0575V29.3117C166.748 29.9084 166.818 30.4719 166.958 31.0023C167.098 31.5254 167.307 31.9895 167.587 32.3947C167.875 32.7998 168.232 33.1203 168.659 33.356C169.087 33.5844 169.584 33.6986 170.151 33.6986C170.711 33.6986 171.201 33.5844 171.621 33.356C172.048 33.1203 172.402 32.7998 172.682 32.3947C172.962 31.9895 173.171 31.5254 173.311 31.0023C173.459 30.4719 173.532 29.9084 173.532 29.3117V29.0575C173.532 28.4682 173.459 27.912 173.311 27.3889C173.171 26.8585 172.958 26.3907 172.671 25.9856C172.391 25.573 172.037 25.2489 171.61 25.0131C171.19 24.7774 170.696 24.6595 170.129 24.6595C169.569 24.6595 169.076 24.7774 168.648 25.0131C168.228 25.2489 167.875 25.573 167.587 25.9856C167.307 26.3907 167.098 26.8585 166.958 27.3889C166.818 27.912 166.748 28.4682 166.748 29.0575ZM180.196 25.7535V35.1572H178.151V23.2009H180.085L180.196 25.7535ZM179.709 28.726L178.859 28.6929C178.866 27.8751 178.988 27.12 179.223 26.4276C179.459 25.7277 179.791 25.12 180.218 24.6043C180.645 24.0886 181.153 23.6908 181.743 23.4109C182.339 23.1235 182.999 22.9799 183.721 22.9799C184.31 22.9799 184.84 23.0609 185.312 23.223C185.783 23.3777 186.185 23.6282 186.516 23.9744C186.855 24.3207 187.113 24.77 187.29 25.3225C187.467 25.8677 187.555 26.5344 187.555 27.3226V35.1572H185.5V27.3005C185.5 26.6743 185.408 26.1734 185.224 25.7977C185.039 25.4146 184.77 25.1384 184.417 24.9689C184.063 24.7921 183.629 24.7037 183.113 24.7037C182.605 24.7037 182.141 24.8105 181.721 25.0242C181.308 25.2378 180.951 25.5325 180.649 25.9082C180.354 26.2839 180.122 26.7149 179.953 27.2011C179.791 27.6799 179.709 28.1882 179.709 28.726ZM197.622 31.9858C197.622 31.6911 197.556 31.4186 197.423 31.1681C197.298 30.9103 197.036 30.6782 196.638 30.4719C196.248 30.2583 195.659 30.0741 194.87 29.9194C194.207 29.7795 193.607 29.6137 193.069 29.4222C192.539 29.2306 192.086 28.9986 191.71 28.726C191.342 28.4534 191.058 28.133 190.859 27.7646C190.66 27.3963 190.561 26.9653 190.561 26.4718C190.561 26.0003 190.664 25.5546 190.87 25.1347C191.084 24.7148 191.382 24.3428 191.765 24.0186C192.156 23.6945 192.624 23.4403 193.169 23.2561C193.714 23.072 194.322 22.9799 194.992 22.9799C195.95 22.9799 196.767 23.1493 197.445 23.4882C198.123 23.8271 198.642 24.2801 199.003 24.8474C199.364 25.4073 199.545 26.0298 199.545 26.7149H197.5C197.5 26.3834 197.401 26.0629 197.202 25.7535C197.01 25.4367 196.727 25.1752 196.351 24.9689C195.983 24.7627 195.53 24.6595 194.992 24.6595C194.425 24.6595 193.964 24.7479 193.611 24.9247C193.264 25.0942 193.01 25.3115 192.848 25.5767C192.693 25.8419 192.616 26.1218 192.616 26.4165C192.616 26.6375 192.653 26.8364 192.727 27.0132C192.808 27.1827 192.948 27.341 193.147 27.4884C193.345 27.6283 193.625 27.761 193.986 27.8862C194.347 28.0114 194.808 28.1367 195.368 28.2619C196.347 28.4829 197.154 28.7481 197.788 29.0575C198.421 29.3669 198.893 29.7463 199.202 30.1957C199.511 30.6451 199.666 31.1902 199.666 31.8311C199.666 32.3542 199.556 32.833 199.335 33.2676C199.121 33.7023 198.808 34.078 198.395 34.3948C197.99 34.7042 197.504 34.9473 196.937 35.1241C196.377 35.2935 195.747 35.3782 195.047 35.3782C193.994 35.3782 193.102 35.1904 192.373 34.8147C191.644 34.439 191.091 33.9528 190.716 33.356C190.34 32.7593 190.152 32.1295 190.152 31.4665H192.207C192.237 32.0263 192.399 32.472 192.693 32.8035C192.988 33.1277 193.349 33.3597 193.776 33.4997C194.204 33.6323 194.627 33.6986 195.047 33.6986C195.607 33.6986 196.075 33.6249 196.451 33.4776C196.834 33.3303 197.125 33.1277 197.324 32.8698C197.522 32.612 197.622 32.3173 197.622 31.9858Z" fill="#232F4A"/>
<path d="M345.935 40.7341H364.04C371.53 40.7341 377.618 34.6465 377.618 27.1556C377.618 19.6648 371.53 13.5771 364.04 13.5771H345.935C338.444 13.5771 332.356 19.6648 332.356 27.1556C332.356 34.6465 338.444 40.7341 345.935 40.7341Z" stroke="#A9D2FF" stroke-width="2.26308" stroke-miterlimit="10" stroke-linecap="round" stroke-linejoin="round"/>
<path d="M345.936 36.2092C340.937 36.2092 336.884 32.1562 336.884 27.1568C336.884 22.1574 340.937 18.1045 345.936 18.1045C350.936 18.1045 354.988 22.1574 354.988 27.1568C354.988 32.1562 350.936 36.2092 345.936 36.2092Z" fill="#A9D2FF"/>
</svg>
