<svg width="596" height="375" viewBox="0 0 596 375" fill="none" xmlns="http://www.w3.org/2000/svg">
<path opacity="0.8" d="M14.8487 24.0161L80.0613 0L144.632 23.6997C152.877 27.6976 160.105 30.0848 160.105 37.9656V77.1871C160.105 104.425 153.145 131.413 138.831 155.237C126.79 175.284 108.133 195.935 79.419 209.06C53.0252 200.268 33.3234 176.818 21.2722 156.771C6.95842 132.947 -0.00194061 105.949 -0.00194061 78.7211V43.4495C0.00764666 32.2036 5.80794 26.7197 14.8487 24.0161Z" fill="#346BDC"/>
<path opacity="0.4" d="M46.9258 110.554H56.8959V56.3006C56.8959 43.5309 67.2888 33.138 80.0586 33.138C92.8284 33.138 103.221 43.5309 103.221 56.3006V110.554H113.191V56.3006C113.191 38.0353 98.3319 23.1758 80.0666 23.1758C61.8012 23.1758 46.9417 38.0353 46.9417 56.3006V110.554H46.9258Z" fill="white"/>
<path d="M40.0407 143.702H120.065C122.625 143.702 124.699 141.629 124.699 139.068V91.0521C124.699 88.4918 122.625 86.418 120.065 86.418H40.0407C37.4803 86.418 35.4065 88.4918 35.4065 91.0521V139.068C35.4065 141.629 37.4803 143.702 40.0407 143.702Z" fill="white"/>
<path opacity="0.5" d="M72.5921 107.595C72.5921 103.471 75.9341 100.129 80.0578 100.129C84.1814 100.129 87.5234 103.471 87.5234 107.595C87.5234 111.008 85.2183 113.848 82.0997 114.741V125.9H78.0239V114.741C74.8972 113.848 72.5921 111.008 72.5921 107.595Z" fill="#346BDC"/>
<path opacity="0.1" d="M74.611 287.602C113.714 214.607 211.459 207.197 211.459 207.197C211.459 207.197 189.601 109.032 245.401 49.1952C301.201 -10.6421 385.86 -5.57823 420.884 10.9241C497.904 47.213 490.03 127.69 545.095 127.69C658.834 127.69 545.595 359 541.997 366.5C541.105 368.359 521.579 367.5 500.997 367.5C402.641 367.5 255.957 370 137.523 370C68.6287 370 57.9967 379.01 57.9974 366.5C57.9975 364 57.5233 319.5 74.611 287.602Z" fill="#2360DE"/>
<path d="M511.699 340.527H489.313V366.911H505.187L511.699 340.527Z" fill="#DA5C73"/>
<rect width="41.5735" height="26.3832" transform="matrix(-1 0 0 1 490.113 340.527)" fill="#E76980"/>
<path d="M340.496 213.598L452.996 214C449.931 260.37 443.741 353.109 443.741 354.708C443.741 356.307 437.878 363.635 434.947 367.1H341.407L343.605 290.349L340.496 213.598Z" fill="#EACB8F"/>
<path d="M321.821 125.254C313.685 116.033 304.926 110.587 292.64 110.064C277.849 109.434 264.005 113.284 254.664 128.852C249.867 136.847 251.967 149.927 249.867 161.63C247.225 176.353 237.875 198.007 237.875 198.007L249.867 201.605L259.061 191.211L255.464 201.605H264.658V191.211L268.255 201.605L320.222 195.609L343.407 191.211V182.417L346.206 189.213L351.402 186.814C351.402 186.814 339.81 145.641 321.821 125.254Z" fill="#311D17"/>
<path d="M386.207 242.855C405.832 296.806 418.04 329.969 422.559 367.101H236.277L229.482 333.123L248.927 230.56C249.502 227.525 251.773 225.093 254.761 224.311L292.641 214.398L303.435 264.367L357.5 220L374.726 229.454C380.049 232.375 384.132 237.149 386.207 242.855Z" fill="#346BDC"/>
<path d="M263.458 177.222C261.255 169.381 258.262 152.438 258.262 152.438C258.262 152.438 261.06 142.082 279.049 138.047C289.117 135.788 299.435 138.047 305.032 142.844C310.629 147.641 313.827 157.634 315.025 169.227C316.224 180.819 309.03 193.212 309.03 193.212C309.03 193.212 297.045 205.828 286.591 205.204C282.053 204.933 277.158 202.259 274.199 198.808C269.402 193.212 266.761 188.972 263.458 177.222Z" fill="#FEB69B"/>
<path d="M320.222 160.432C320.278 164.086 314.226 169.226 314.226 169.226L311.028 155.235L314.226 152.037C314.226 152.037 315.967 151.76 317.024 152.037C320.418 152.926 320.169 156.924 320.222 160.432Z" fill="#FEB69B"/>
<path d="M285.999 216.002L293.04 213.998L295.439 235.584L303.434 264.766L301.035 267.964L291.041 246.777L274.652 245.578L285.999 216.002Z" fill="white"/>
<path d="M345.007 213.999L340.61 212L333.814 222.393L303.434 267.165L329.417 252.374L336.213 256.372L357.799 219.995L345.007 213.999Z" fill="white"/>
<path d="M255.862 231.586L238.673 265.964H262.658L267.144 238.674C267.333 237.521 268.175 236.585 269.274 236.189C271.545 235.373 275.293 233.756 276.649 231.586C278.648 228.388 278.248 216.795 278.248 216.795C278.248 216.795 286.642 202.405 285.044 198.807C283.445 195.209 278.248 195.609 278.248 195.609C278.248 195.609 259.46 200.806 257.461 203.604C255.462 206.402 255.862 231.586 255.862 231.586Z" fill="#FEB69B"/>
<path d="M448.991 367C448.991 367 463.619 242.302 462.98 225.643C462.488 212.83 451.387 212.829 447.79 215.234C444.192 217.639 447.79 248.47 447.79 248.47C447.79 248.47 444.384 249.415 441.795 253.273C436.152 261.682 442.994 288.915 442.994 288.915C442.994 288.915 441.395 290.519 438.997 300.527C436.599 310.536 442.994 333.363 442.994 333.363L435 367H448.991Z" fill="#E7BA6A"/>
<path d="M327.568 204.804L313.826 172.025L294.239 197.609L298.236 208.402L291.44 215.598C291.44 215.598 293.416 225.991 294.239 231.587C296.237 245.179 303.432 265.566 303.432 265.566C304.935 270.57 341.01 212 340.61 212C340.61 212 333.415 208.402 327.568 204.804Z" fill="#FEB69B"/>
<path d="M383.784 366.301H419.761C419.761 366.301 425.357 358.306 416.563 331.923C407.768 305.539 402.5 287.502 402.5 287.502L386.5 243.5L365.795 283.154L374.589 335.52L383.784 366.301Z" fill="#2C5FC9"/>
<path d="M186.307 271.497L301.034 270.361L306.23 264.365L193.103 265.5L186.307 271.497Z" fill="white"/>
<path d="M329.418 353.844L323.5 358.5L311.03 313.07L300.237 269.897L306.233 264.301L329.418 353.844Z" fill="#85D0CB"/>
<path d="M416.161 363.501C418.679 355.826 409.765 339.117 405.767 337.518C401.769 335.918 359.797 341.915 359.797 341.915C359.797 341.915 341.808 328.325 337.811 328.324C333.813 328.323 326.218 337.518 326.218 337.518C326.218 337.518 322.62 345.512 323.42 348.71C324.219 351.908 348.204 363.501 348.204 363.501L356.998 359.504H373.788L416.161 363.501Z" fill="#FEB69B"/>
<rect width="110.33" height="8.79439" transform="matrix(-1 0 0 1 327.02 358.307)" fill="#7AD3AF"/>
<rect width="58.3628" height="8.79439" transform="matrix(-1 0 0 1 385.379 358.307)" fill="#61B894"/>
<rect width="363.917" height="8.54839" transform="matrix(-1 0 0 1 421.914 366.451)" fill="#B1CAF9"/>
<rect width="120.288" height="8.54839" transform="matrix(-1 0 0 1 542.203 366.451)" fill="#839FD9"/>
<path d="M300.237 269.898C307.299 298.414 323.5 358.5 323.5 358.5L211.893 359.042L186.309 271.497L300.237 269.898Z" fill="#E7FAF2"/>
</svg>
