<svg width="605" height="63" viewBox="0 0 605 63" fill="none" xmlns="http://www.w3.org/2000/svg">
<path d="M10.2168 2.10352V22.0098H6.8125V2.10352H10.2168ZM16.4648 2.10352V4.83789H0.619141V2.10352H16.4648ZM16.2188 14.7773V14.4629C16.2188 13.3965 16.3737 12.4076 16.6836 11.4961C16.9935 10.5755 17.4401 9.77799 18.0234 9.10352C18.6159 8.41992 19.3359 7.89128 20.1836 7.51758C21.0404 7.13477 22.0065 6.94336 23.082 6.94336C24.1667 6.94336 25.1328 7.13477 25.9805 7.51758C26.8372 7.89128 27.5618 8.41992 28.1543 9.10352C28.7467 9.77799 29.1979 10.5755 29.5078 11.4961C29.8177 12.4076 29.9727 13.3965 29.9727 14.4629V14.7773C29.9727 15.8438 29.8177 16.8327 29.5078 17.7441C29.1979 18.6556 28.7467 19.4531 28.1543 20.1367C27.5618 20.8112 26.8418 21.3398 25.9941 21.7227C25.1465 22.0964 24.1849 22.2832 23.1094 22.2832C22.0247 22.2832 21.054 22.0964 20.1973 21.7227C19.3496 21.3398 18.6296 20.8112 18.0371 20.1367C17.4447 19.4531 16.9935 18.6556 16.6836 17.7441C16.3737 16.8327 16.2188 15.8438 16.2188 14.7773ZM19.5137 14.4629V14.7773C19.5137 15.4427 19.582 16.0716 19.7188 16.6641C19.8555 17.2565 20.0697 17.776 20.3613 18.2227C20.653 18.6693 21.0267 19.0202 21.4824 19.2754C21.9382 19.5306 22.4805 19.6582 23.1094 19.6582C23.7201 19.6582 24.2487 19.5306 24.6953 19.2754C25.151 19.0202 25.5247 18.6693 25.8164 18.2227C26.1081 17.776 26.3223 17.2565 26.459 16.6641C26.6048 16.0716 26.6777 15.4427 26.6777 14.7773V14.4629C26.6777 13.8066 26.6048 13.1868 26.459 12.6035C26.3223 12.0111 26.1035 11.487 25.8027 11.0312C25.5111 10.5755 25.1374 10.2201 24.6816 9.96484C24.235 9.70052 23.7018 9.56836 23.082 9.56836C22.4622 9.56836 21.9245 9.70052 21.4688 9.96484C21.0221 10.2201 20.653 10.5755 20.3613 11.0312C20.0697 11.487 19.8555 12.0111 19.7188 12.6035C19.582 13.1868 19.5137 13.8066 19.5137 14.4629ZM43.0156 10.0332V22.0098H39.7207V7.2168H42.8652L43.0156 10.0332ZM47.541 7.12109L47.5137 10.1836C47.3132 10.1471 47.0944 10.1198 46.8574 10.1016C46.6296 10.0833 46.4017 10.0742 46.1738 10.0742C45.6087 10.0742 45.112 10.1562 44.6836 10.3203C44.2552 10.4753 43.8952 10.7031 43.6035 11.0039C43.321 11.2956 43.1022 11.651 42.9473 12.0703C42.7923 12.4896 42.7012 12.959 42.6738 13.4785L41.9219 13.5332C41.9219 12.6035 42.013 11.7422 42.1953 10.9492C42.3776 10.1562 42.651 9.45898 43.0156 8.85742C43.3893 8.25586 43.8542 7.78646 44.4102 7.44922C44.9753 7.11198 45.627 6.94336 46.3652 6.94336C46.5658 6.94336 46.7799 6.96159 47.0078 6.99805C47.2448 7.03451 47.4225 7.07552 47.541 7.12109ZM55.8535 22.2832C54.7598 22.2832 53.7708 22.1055 52.8867 21.75C52.0117 21.3854 51.2643 20.8796 50.6445 20.2324C50.0339 19.5853 49.5645 18.8242 49.2363 17.9492C48.9082 17.0742 48.7441 16.1309 48.7441 15.1191V14.5723C48.7441 13.4147 48.9128 12.3665 49.25 11.4277C49.5872 10.4889 50.0566 9.68685 50.6582 9.02148C51.2598 8.34701 51.9707 7.83203 52.791 7.47656C53.6113 7.12109 54.5 6.94336 55.457 6.94336C56.5143 6.94336 57.4395 7.12109 58.2324 7.47656C59.0254 7.83203 59.6816 8.33333 60.2012 8.98047C60.7298 9.61849 61.1217 10.3796 61.377 11.2637C61.6413 12.1478 61.7734 13.123 61.7734 14.1895V15.5977H50.3438V13.2324H58.5195V12.9727C58.5013 12.3802 58.3828 11.8242 58.1641 11.3047C57.9544 10.7852 57.6309 10.3659 57.1934 10.0469C56.7559 9.72786 56.1725 9.56836 55.4434 9.56836C54.8965 9.56836 54.4089 9.68685 53.9805 9.92383C53.5612 10.1517 53.2103 10.4844 52.9277 10.9219C52.6452 11.3594 52.4264 11.888 52.2715 12.5078C52.1257 13.1185 52.0527 13.8066 52.0527 14.5723V15.1191C52.0527 15.7663 52.1393 16.3678 52.3125 16.9238C52.4948 17.4707 52.7591 17.9492 53.1055 18.3594C53.4518 18.7695 53.8711 19.0931 54.3633 19.3301C54.8555 19.5579 55.416 19.6719 56.0449 19.6719C56.8379 19.6719 57.5443 19.5124 58.1641 19.1934C58.7839 18.8743 59.3216 18.4232 59.7773 17.8398L61.5137 19.5215C61.1947 19.9863 60.7799 20.4329 60.2695 20.8613C59.7591 21.2806 59.1348 21.6224 58.3965 21.8867C57.6673 22.151 56.8197 22.2832 55.8535 22.2832ZM70.3867 19.6582C70.9245 19.6582 71.4076 19.5534 71.8359 19.3438C72.2734 19.125 72.6243 18.8242 72.8887 18.4414C73.1621 18.0586 73.3125 17.6165 73.3398 17.1152H76.4434C76.4251 18.0723 76.1426 18.9427 75.5957 19.7266C75.0488 20.5104 74.3242 21.1348 73.4219 21.5996C72.5195 22.0553 71.5215 22.2832 70.4277 22.2832C69.2975 22.2832 68.3132 22.0918 67.4746 21.709C66.6361 21.3171 65.9388 20.7793 65.3828 20.0957C64.8268 19.4121 64.4076 18.6237 64.125 17.7305C63.8516 16.8372 63.7148 15.8802 63.7148 14.8594V14.3809C63.7148 13.36 63.8516 12.403 64.125 11.5098C64.4076 10.6074 64.8268 9.81445 65.3828 9.13086C65.9388 8.44727 66.6361 7.91406 67.4746 7.53125C68.3132 7.13932 69.293 6.94336 70.4141 6.94336C71.599 6.94336 72.638 7.18034 73.5312 7.6543C74.4245 8.11914 75.1263 8.77083 75.6367 9.60938C76.1562 10.4388 76.4251 11.4049 76.4434 12.5078H73.3398C73.3125 11.9609 73.1758 11.4688 72.9297 11.0312C72.6927 10.5846 72.3555 10.2292 71.918 9.96484C71.4896 9.70052 70.9746 9.56836 70.373 9.56836C69.7077 9.56836 69.1562 9.70508 68.7188 9.97852C68.2812 10.2428 67.9395 10.6074 67.6934 11.0723C67.4473 11.528 67.2695 12.043 67.1602 12.6172C67.0599 13.1823 67.0098 13.7702 67.0098 14.3809V14.8594C67.0098 15.4701 67.0599 16.0625 67.1602 16.6367C67.2604 17.2109 67.4336 17.7259 67.6797 18.1816C67.9349 18.6283 68.2812 18.9883 68.7188 19.2617C69.1562 19.526 69.7122 19.6582 70.3867 19.6582ZM85.4941 22.2832C84.4004 22.2832 83.4115 22.1055 82.5273 21.75C81.6523 21.3854 80.9049 20.8796 80.2852 20.2324C79.6745 19.5853 79.2051 18.8242 78.877 17.9492C78.5488 17.0742 78.3848 16.1309 78.3848 15.1191V14.5723C78.3848 13.4147 78.5534 12.3665 78.8906 11.4277C79.2279 10.4889 79.6973 9.68685 80.2988 9.02148C80.9004 8.34701 81.6113 7.83203 82.4316 7.47656C83.252 7.12109 84.1406 6.94336 85.0977 6.94336C86.1549 6.94336 87.0801 7.12109 87.873 7.47656C88.666 7.83203 89.3223 8.33333 89.8418 8.98047C90.3704 9.61849 90.7624 10.3796 91.0176 11.2637C91.2819 12.1478 91.4141 13.123 91.4141 14.1895V15.5977H79.9844V13.2324H88.1602V12.9727C88.1419 12.3802 88.0234 11.8242 87.8047 11.3047C87.5951 10.7852 87.2715 10.3659 86.834 10.0469C86.3965 9.72786 85.8132 9.56836 85.084 9.56836C84.5371 9.56836 84.0495 9.68685 83.6211 9.92383C83.2018 10.1517 82.8509 10.4844 82.5684 10.9219C82.2858 11.3594 82.0671 11.888 81.9121 12.5078C81.7663 13.1185 81.6934 13.8066 81.6934 14.5723V15.1191C81.6934 15.7663 81.7799 16.3678 81.9531 16.9238C82.1354 17.4707 82.3997 17.9492 82.7461 18.3594C83.0924 18.7695 83.5117 19.0931 84.0039 19.3301C84.4961 19.5579 85.0566 19.6719 85.6855 19.6719C86.4785 19.6719 87.1849 19.5124 87.8047 19.1934C88.4245 18.8743 88.9622 18.4232 89.418 17.8398L91.1543 19.5215C90.8353 19.9863 90.4206 20.4329 89.9102 20.8613C89.3997 21.2806 88.7754 21.6224 88.0371 21.8867C87.3079 22.151 86.4603 22.2832 85.4941 22.2832ZM97.5117 7.2168V22.0098H94.2031V7.2168H97.5117ZM93.9844 3.33398C93.9844 2.83268 94.1484 2.41797 94.4766 2.08984C94.8138 1.7526 95.2786 1.58398 95.8711 1.58398C96.4544 1.58398 96.9147 1.7526 97.252 2.08984C97.5892 2.41797 97.7578 2.83268 97.7578 3.33398C97.7578 3.82617 97.5892 4.23633 97.252 4.56445C96.9147 4.89258 96.4544 5.05664 95.8711 5.05664C95.2786 5.05664 94.8138 4.89258 94.4766 4.56445C94.1484 4.23633 93.9844 3.82617 93.9844 3.33398ZM105.934 19.3984L109.557 7.2168H112.975L107.834 22.0098H105.701L105.934 19.3984ZM103.158 7.2168L106.85 19.4531L107.027 22.0098H104.895L99.7266 7.2168H103.158ZM121.342 22.2832C120.248 22.2832 119.259 22.1055 118.375 21.75C117.5 21.3854 116.753 20.8796 116.133 20.2324C115.522 19.5853 115.053 18.8242 114.725 17.9492C114.396 17.0742 114.232 16.1309 114.232 15.1191V14.5723C114.232 13.4147 114.401 12.3665 114.738 11.4277C115.076 10.4889 115.545 9.68685 116.146 9.02148C116.748 8.34701 117.459 7.83203 118.279 7.47656C119.1 7.12109 119.988 6.94336 120.945 6.94336C122.003 6.94336 122.928 7.12109 123.721 7.47656C124.514 7.83203 125.17 8.33333 125.689 8.98047C126.218 9.61849 126.61 10.3796 126.865 11.2637C127.13 12.1478 127.262 13.123 127.262 14.1895V15.5977H115.832V13.2324H124.008V12.9727C123.99 12.3802 123.871 11.8242 123.652 11.3047C123.443 10.7852 123.119 10.3659 122.682 10.0469C122.244 9.72786 121.661 9.56836 120.932 9.56836C120.385 9.56836 119.897 9.68685 119.469 9.92383C119.049 10.1517 118.699 10.4844 118.416 10.9219C118.133 11.3594 117.915 11.888 117.76 12.5078C117.614 13.1185 117.541 13.8066 117.541 14.5723V15.1191C117.541 15.7663 117.628 16.3678 117.801 16.9238C117.983 17.4707 118.247 17.9492 118.594 18.3594C118.94 18.7695 119.359 19.0931 119.852 19.3301C120.344 19.5579 120.904 19.6719 121.533 19.6719C122.326 19.6719 123.033 19.5124 123.652 19.1934C124.272 18.8743 124.81 18.4232 125.266 17.8398L127.002 19.5215C126.683 19.9863 126.268 20.4329 125.758 20.8613C125.247 21.2806 124.623 21.6224 123.885 21.8867C123.156 22.151 122.308 22.2832 121.342 22.2832ZM140.072 10.375V22.0098H136.777V7.2168H139.881L140.072 10.375ZM139.484 14.0664L138.418 14.0527C138.427 13.0046 138.573 12.043 138.855 11.168C139.147 10.293 139.548 9.54102 140.059 8.91211C140.578 8.2832 141.198 7.80013 141.918 7.46289C142.638 7.11654 143.44 6.94336 144.324 6.94336C145.035 6.94336 145.678 7.04362 146.252 7.24414C146.835 7.43555 147.332 7.75 147.742 8.1875C148.161 8.625 148.48 9.19466 148.699 9.89648C148.918 10.5892 149.027 11.4414 149.027 12.4531V22.0098H145.719V12.4395C145.719 11.7285 145.614 11.168 145.404 10.7578C145.204 10.3385 144.908 10.0423 144.516 9.86914C144.133 9.68685 143.654 9.5957 143.08 9.5957C142.515 9.5957 142.009 9.71419 141.562 9.95117C141.116 10.1882 140.738 10.5117 140.428 10.9219C140.127 11.332 139.895 11.806 139.73 12.3438C139.566 12.8815 139.484 13.4557 139.484 14.0664ZM151.762 14.7773V14.4629C151.762 13.3965 151.917 12.4076 152.227 11.4961C152.536 10.5755 152.983 9.77799 153.566 9.10352C154.159 8.41992 154.879 7.89128 155.727 7.51758C156.583 7.13477 157.549 6.94336 158.625 6.94336C159.71 6.94336 160.676 7.13477 161.523 7.51758C162.38 7.89128 163.105 8.41992 163.697 9.10352C164.29 9.77799 164.741 10.5755 165.051 11.4961C165.361 12.4076 165.516 13.3965 165.516 14.4629V14.7773C165.516 15.8438 165.361 16.8327 165.051 17.7441C164.741 18.6556 164.29 19.4531 163.697 20.1367C163.105 20.8112 162.385 21.3398 161.537 21.7227C160.689 22.0964 159.728 22.2832 158.652 22.2832C157.568 22.2832 156.597 22.0964 155.74 21.7227C154.893 21.3398 154.173 20.8112 153.58 20.1367C152.988 19.4531 152.536 18.6556 152.227 17.7441C151.917 16.8327 151.762 15.8438 151.762 14.7773ZM155.057 14.4629V14.7773C155.057 15.4427 155.125 16.0716 155.262 16.6641C155.398 17.2565 155.613 17.776 155.904 18.2227C156.196 18.6693 156.57 19.0202 157.025 19.2754C157.481 19.5306 158.023 19.6582 158.652 19.6582C159.263 19.6582 159.792 19.5306 160.238 19.2754C160.694 19.0202 161.068 18.6693 161.359 18.2227C161.651 17.776 161.865 17.2565 162.002 16.6641C162.148 16.0716 162.221 15.4427 162.221 14.7773V14.4629C162.221 13.8066 162.148 13.1868 162.002 12.6035C161.865 12.0111 161.646 11.487 161.346 11.0312C161.054 10.5755 160.68 10.2201 160.225 9.96484C159.778 9.70052 159.245 9.56836 158.625 9.56836C158.005 9.56836 157.467 9.70052 157.012 9.96484C156.565 10.2201 156.196 10.5755 155.904 11.0312C155.613 11.487 155.398 12.0111 155.262 12.6035C155.125 13.1868 155.057 13.8066 155.057 14.4629ZM175.059 7.2168V9.62305H166.719V7.2168H175.059ZM169.125 3.59375H172.42V17.9219C172.42 18.3776 172.484 18.7285 172.611 18.9746C172.748 19.2116 172.935 19.3711 173.172 19.4531C173.409 19.5352 173.687 19.5762 174.006 19.5762C174.234 19.5762 174.452 19.5625 174.662 19.5352C174.872 19.5078 175.04 19.4805 175.168 19.4531L175.182 21.9688C174.908 22.0508 174.589 22.1237 174.225 22.1875C173.869 22.2513 173.459 22.2832 172.994 22.2832C172.238 22.2832 171.568 22.151 170.984 21.8867C170.401 21.6133 169.945 21.1712 169.617 20.5605C169.289 19.9499 169.125 19.1387 169.125 18.127V3.59375ZM181.129 7.2168V22.0098H177.82V7.2168H181.129ZM177.602 3.33398C177.602 2.83268 177.766 2.41797 178.094 2.08984C178.431 1.7526 178.896 1.58398 179.488 1.58398C180.072 1.58398 180.532 1.7526 180.869 2.08984C181.206 2.41797 181.375 2.83268 181.375 3.33398C181.375 3.82617 181.206 4.23633 180.869 4.56445C180.532 4.89258 180.072 5.05664 179.488 5.05664C178.896 5.05664 178.431 4.89258 178.094 4.56445C177.766 4.23633 177.602 3.82617 177.602 3.33398ZM188.977 22.0098H185.668V6.25977C185.668 5.06576 185.905 4.05859 186.379 3.23828C186.862 2.41797 187.55 1.79362 188.443 1.36523C189.346 0.936849 190.417 0.722656 191.656 0.722656C192.385 0.722656 193.087 0.80013 193.762 0.955078C194.445 1.11003 195.152 1.30599 195.881 1.54297L195.375 4.22266C194.91 4.06771 194.395 3.92188 193.83 3.78516C193.265 3.63932 192.613 3.56641 191.875 3.56641C190.882 3.56641 190.148 3.79427 189.674 4.25C189.209 4.69661 188.977 5.36654 188.977 6.25977V22.0098ZM191.943 7.2168V9.62305H183.398V7.2168H191.943ZM197.439 7.2168V22.0098H194.145V7.2168H197.439ZM207.16 19.6582C207.698 19.6582 208.181 19.5534 208.609 19.3438C209.047 19.125 209.398 18.8242 209.662 18.4414C209.936 18.0586 210.086 17.6165 210.113 17.1152H213.217C213.199 18.0723 212.916 18.9427 212.369 19.7266C211.822 20.5104 211.098 21.1348 210.195 21.5996C209.293 22.0553 208.295 22.2832 207.201 22.2832C206.071 22.2832 205.087 22.0918 204.248 21.709C203.41 21.3171 202.712 20.7793 202.156 20.0957C201.6 19.4121 201.181 18.6237 200.898 17.7305C200.625 16.8372 200.488 15.8802 200.488 14.8594V14.3809C200.488 13.36 200.625 12.403 200.898 11.5098C201.181 10.6074 201.6 9.81445 202.156 9.13086C202.712 8.44727 203.41 7.91406 204.248 7.53125C205.087 7.13932 206.066 6.94336 207.188 6.94336C208.372 6.94336 209.411 7.18034 210.305 7.6543C211.198 8.11914 211.9 8.77083 212.41 9.60938C212.93 10.4388 213.199 11.4049 213.217 12.5078H210.113C210.086 11.9609 209.949 11.4688 209.703 11.0312C209.466 10.5846 209.129 10.2292 208.691 9.96484C208.263 9.70052 207.748 9.56836 207.146 9.56836C206.481 9.56836 205.93 9.70508 205.492 9.97852C205.055 10.2428 204.713 10.6074 204.467 11.0723C204.221 11.528 204.043 12.043 203.934 12.6172C203.833 13.1823 203.783 13.7702 203.783 14.3809V14.8594C203.783 15.4701 203.833 16.0625 203.934 16.6367C204.034 17.2109 204.207 17.7259 204.453 18.1816C204.708 18.6283 205.055 18.9883 205.492 19.2617C205.93 19.526 206.486 19.6582 207.16 19.6582ZM224.086 19.043V11.9883C224.086 11.4596 223.99 11.0039 223.799 10.6211C223.607 10.2383 223.316 9.94206 222.924 9.73242C222.541 9.52279 222.058 9.41797 221.475 9.41797C220.937 9.41797 220.472 9.50911 220.08 9.69141C219.688 9.8737 219.383 10.1198 219.164 10.4297C218.945 10.7396 218.836 11.0905 218.836 11.4824H215.555C215.555 10.8991 215.696 10.334 215.979 9.78711C216.261 9.24023 216.671 8.7526 217.209 8.32422C217.747 7.89583 218.389 7.55859 219.137 7.3125C219.884 7.06641 220.723 6.94336 221.652 6.94336C222.764 6.94336 223.749 7.13021 224.605 7.50391C225.471 7.8776 226.15 8.44271 226.643 9.19922C227.144 9.94661 227.395 10.8854 227.395 12.0156V18.5918C227.395 19.2663 227.44 19.8724 227.531 20.4102C227.632 20.9388 227.773 21.3991 227.955 21.791V22.0098H224.578C224.423 21.6543 224.3 21.2031 224.209 20.6562C224.127 20.1003 224.086 19.5625 224.086 19.043ZM224.564 13.0137L224.592 15.0508H222.227C221.616 15.0508 221.078 15.11 220.613 15.2285C220.148 15.3379 219.761 15.502 219.451 15.7207C219.141 15.9395 218.909 16.2038 218.754 16.5137C218.599 16.8236 218.521 17.1745 218.521 17.5664C218.521 17.9583 218.613 18.3184 218.795 18.6465C218.977 18.9655 219.242 19.2161 219.588 19.3984C219.943 19.5807 220.372 19.6719 220.873 19.6719C221.548 19.6719 222.135 19.5352 222.637 19.2617C223.147 18.9792 223.548 18.6374 223.84 18.2363C224.132 17.8262 224.286 17.4388 224.305 17.0742L225.371 18.5371C225.262 18.9108 225.075 19.3118 224.811 19.7402C224.546 20.1686 224.2 20.5788 223.771 20.9707C223.352 21.3535 222.846 21.668 222.254 21.9141C221.671 22.1602 220.996 22.2832 220.23 22.2832C219.264 22.2832 218.403 22.0918 217.646 21.709C216.89 21.3171 216.298 20.793 215.869 20.1367C215.441 19.4714 215.227 18.7194 215.227 17.8809C215.227 17.097 215.372 16.4043 215.664 15.8027C215.965 15.1921 216.402 14.6816 216.977 14.2715C217.56 13.8613 218.271 13.5514 219.109 13.3418C219.948 13.123 220.905 13.0137 221.98 13.0137H224.564ZM237.621 7.2168V9.62305H229.281V7.2168H237.621ZM231.688 3.59375H234.982V17.9219C234.982 18.3776 235.046 18.7285 235.174 18.9746C235.311 19.2116 235.497 19.3711 235.734 19.4531C235.971 19.5352 236.249 19.5762 236.568 19.5762C236.796 19.5762 237.015 19.5625 237.225 19.5352C237.434 19.5078 237.603 19.4805 237.73 19.4531L237.744 21.9688C237.471 22.0508 237.152 22.1237 236.787 22.1875C236.432 22.2513 236.021 22.2832 235.557 22.2832C234.8 22.2832 234.13 22.151 233.547 21.8867C232.964 21.6133 232.508 21.1712 232.18 20.5605C231.852 19.9499 231.688 19.1387 231.688 18.127V3.59375ZM243.691 7.2168V22.0098H240.383V7.2168H243.691ZM240.164 3.33398C240.164 2.83268 240.328 2.41797 240.656 2.08984C240.993 1.7526 241.458 1.58398 242.051 1.58398C242.634 1.58398 243.094 1.7526 243.432 2.08984C243.769 2.41797 243.938 2.83268 243.938 3.33398C243.938 3.82617 243.769 4.23633 243.432 4.56445C243.094 4.89258 242.634 5.05664 242.051 5.05664C241.458 5.05664 240.993 4.89258 240.656 4.56445C240.328 4.23633 240.164 3.82617 240.164 3.33398ZM246.672 14.7773V14.4629C246.672 13.3965 246.827 12.4076 247.137 11.4961C247.447 10.5755 247.893 9.77799 248.477 9.10352C249.069 8.41992 249.789 7.89128 250.637 7.51758C251.493 7.13477 252.46 6.94336 253.535 6.94336C254.62 6.94336 255.586 7.13477 256.434 7.51758C257.29 7.89128 258.015 8.41992 258.607 9.10352C259.2 9.77799 259.651 10.5755 259.961 11.4961C260.271 12.4076 260.426 13.3965 260.426 14.4629V14.7773C260.426 15.8438 260.271 16.8327 259.961 17.7441C259.651 18.6556 259.2 19.4531 258.607 20.1367C258.015 20.8112 257.295 21.3398 256.447 21.7227C255.6 22.0964 254.638 22.2832 253.562 22.2832C252.478 22.2832 251.507 22.0964 250.65 21.7227C249.803 21.3398 249.083 20.8112 248.49 20.1367C247.898 19.4531 247.447 18.6556 247.137 17.7441C246.827 16.8327 246.672 15.8438 246.672 14.7773ZM249.967 14.4629V14.7773C249.967 15.4427 250.035 16.0716 250.172 16.6641C250.309 17.2565 250.523 17.776 250.814 18.2227C251.106 18.6693 251.48 19.0202 251.936 19.2754C252.391 19.5306 252.934 19.6582 253.562 19.6582C254.173 19.6582 254.702 19.5306 255.148 19.2754C255.604 19.0202 255.978 18.6693 256.27 18.2227C256.561 17.776 256.775 17.2565 256.912 16.6641C257.058 16.0716 257.131 15.4427 257.131 14.7773V14.4629C257.131 13.8066 257.058 13.1868 256.912 12.6035C256.775 12.0111 256.557 11.487 256.256 11.0312C255.964 10.5755 255.59 10.2201 255.135 9.96484C254.688 9.70052 254.155 9.56836 253.535 9.56836C252.915 9.56836 252.378 9.70052 251.922 9.96484C251.475 10.2201 251.106 10.5755 250.814 11.0312C250.523 11.487 250.309 12.0111 250.172 12.6035C250.035 13.1868 249.967 13.8066 249.967 14.4629ZM266.455 10.375V22.0098H263.16V7.2168H266.264L266.455 10.375ZM265.867 14.0664L264.801 14.0527C264.81 13.0046 264.956 12.043 265.238 11.168C265.53 10.293 265.931 9.54102 266.441 8.91211C266.961 8.2832 267.581 7.80013 268.301 7.46289C269.021 7.11654 269.823 6.94336 270.707 6.94336C271.418 6.94336 272.061 7.04362 272.635 7.24414C273.218 7.43555 273.715 7.75 274.125 8.1875C274.544 8.625 274.863 9.19466 275.082 9.89648C275.301 10.5892 275.41 11.4414 275.41 12.4531V22.0098H272.102V12.4395C272.102 11.7285 271.997 11.168 271.787 10.7578C271.587 10.3385 271.29 10.0423 270.898 9.86914C270.516 9.68685 270.037 9.5957 269.463 9.5957C268.898 9.5957 268.392 9.71419 267.945 9.95117C267.499 10.1882 267.12 10.5117 266.811 10.9219C266.51 11.332 266.277 11.806 266.113 12.3438C265.949 12.8815 265.867 13.4557 265.867 14.0664ZM287.072 18.0039C287.072 17.6758 286.99 17.3796 286.826 17.1152C286.662 16.8418 286.348 16.5957 285.883 16.377C285.427 16.1582 284.753 15.9577 283.859 15.7754C283.076 15.6022 282.355 15.3971 281.699 15.1602C281.052 14.9141 280.496 14.6178 280.031 14.2715C279.566 13.9251 279.206 13.515 278.951 13.041C278.696 12.5671 278.568 12.0202 278.568 11.4004C278.568 10.7988 278.701 10.2292 278.965 9.69141C279.229 9.15365 279.607 8.67969 280.1 8.26953C280.592 7.85938 281.189 7.53581 281.891 7.29883C282.602 7.06185 283.395 6.94336 284.27 6.94336C285.509 6.94336 286.571 7.15299 287.455 7.57227C288.348 7.98242 289.032 8.54297 289.506 9.25391C289.98 9.95573 290.217 10.7487 290.217 11.6328H286.922C286.922 11.2409 286.822 10.8763 286.621 10.5391C286.43 10.1927 286.138 9.91471 285.746 9.70508C285.354 9.48633 284.862 9.37695 284.27 9.37695C283.704 9.37695 283.235 9.4681 282.861 9.65039C282.497 9.82357 282.223 10.0514 282.041 10.334C281.868 10.6165 281.781 10.9264 281.781 11.2637C281.781 11.5098 281.827 11.7331 281.918 11.9336C282.018 12.125 282.182 12.3027 282.41 12.4668C282.638 12.6217 282.948 12.7676 283.34 12.9043C283.741 13.041 284.242 13.1732 284.844 13.3008C285.974 13.5378 286.945 13.8431 287.756 14.2168C288.576 14.5814 289.205 15.0553 289.643 15.6387C290.08 16.2129 290.299 16.9421 290.299 17.8262C290.299 18.4824 290.158 19.084 289.875 19.6309C289.602 20.1686 289.201 20.638 288.672 21.0391C288.143 21.431 287.51 21.7363 286.771 21.9551C286.042 22.1738 285.222 22.2832 284.311 22.2832C282.971 22.2832 281.836 22.0462 280.906 21.5723C279.977 21.0892 279.27 20.474 278.787 19.7266C278.313 18.9701 278.076 18.1862 278.076 17.375H281.262C281.298 17.9857 281.467 18.4733 281.768 18.8379C282.077 19.1934 282.46 19.4531 282.916 19.6172C283.381 19.7721 283.859 19.8496 284.352 19.8496C284.944 19.8496 285.441 19.7721 285.842 19.6172C286.243 19.4531 286.548 19.2344 286.758 18.9609C286.967 18.6784 287.072 18.3594 287.072 18.0039ZM296.273 18.8379L296.26 21.1895C296.26 22.1191 296.027 23.0762 295.562 24.0605C295.098 25.0449 294.482 25.8561 293.717 26.4941L291.953 25.4688C292.208 25.0586 292.441 24.6439 292.65 24.2246C292.86 23.8053 293.029 23.3587 293.156 22.8848C293.284 22.4108 293.348 21.8867 293.348 21.3125V18.8379H296.273ZM309.727 10.0605V27.6973H306.432V7.2168H309.467L309.727 10.0605ZM319.365 14.4766V14.7637C319.365 15.8392 319.238 16.8372 318.982 17.7578C318.736 18.6693 318.367 19.4668 317.875 20.1504C317.392 20.8249 316.795 21.349 316.084 21.7227C315.373 22.0964 314.553 22.2832 313.623 22.2832C312.702 22.2832 311.896 22.1146 311.203 21.7773C310.52 21.431 309.941 20.9434 309.467 20.3145C308.993 19.6855 308.61 18.9473 308.318 18.0996C308.036 17.2428 307.835 16.304 307.717 15.2832V14.1758C307.835 13.0911 308.036 12.1068 308.318 11.2227C308.61 10.3385 308.993 9.57747 309.467 8.93945C309.941 8.30143 310.52 7.80924 311.203 7.46289C311.887 7.11654 312.684 6.94336 313.596 6.94336C314.525 6.94336 315.35 7.12565 316.07 7.49023C316.79 7.8457 317.396 8.35612 317.889 9.02148C318.381 9.67773 318.75 10.4707 318.996 11.4004C319.242 12.321 319.365 13.3464 319.365 14.4766ZM316.07 14.7637V14.4766C316.07 13.793 316.007 13.1595 315.879 12.5762C315.751 11.9837 315.551 11.4642 315.277 11.0176C315.004 10.571 314.653 10.2246 314.225 9.97852C313.805 9.72331 313.299 9.5957 312.707 9.5957C312.124 9.5957 311.622 9.69596 311.203 9.89648C310.784 10.0879 310.433 10.3568 310.15 10.7031C309.868 11.0495 309.649 11.4551 309.494 11.9199C309.339 12.3757 309.23 12.8724 309.166 13.4102V16.0625C309.275 16.7188 309.462 17.3203 309.727 17.8672C309.991 18.4141 310.365 18.8516 310.848 19.1797C311.34 19.4987 311.969 19.6582 312.734 19.6582C313.327 19.6582 313.833 19.5306 314.252 19.2754C314.671 19.0202 315.013 18.6693 315.277 18.2227C315.551 17.7669 315.751 17.2428 315.879 16.6504C316.007 16.0579 316.07 15.429 316.07 14.7637ZM325.695 1.00977V22.0098H322.387V1.00977H325.695ZM335.826 22.2832C334.732 22.2832 333.743 22.1055 332.859 21.75C331.984 21.3854 331.237 20.8796 330.617 20.2324C330.007 19.5853 329.537 18.8242 329.209 17.9492C328.881 17.0742 328.717 16.1309 328.717 15.1191V14.5723C328.717 13.4147 328.885 12.3665 329.223 11.4277C329.56 10.4889 330.029 9.68685 330.631 9.02148C331.232 8.34701 331.943 7.83203 332.764 7.47656C333.584 7.12109 334.473 6.94336 335.43 6.94336C336.487 6.94336 337.412 7.12109 338.205 7.47656C338.998 7.83203 339.654 8.33333 340.174 8.98047C340.702 9.61849 341.094 10.3796 341.35 11.2637C341.614 12.1478 341.746 13.123 341.746 14.1895V15.5977H330.316V13.2324H338.492V12.9727C338.474 12.3802 338.355 11.8242 338.137 11.3047C337.927 10.7852 337.604 10.3659 337.166 10.0469C336.729 9.72786 336.145 9.56836 335.416 9.56836C334.869 9.56836 334.382 9.68685 333.953 9.92383C333.534 10.1517 333.183 10.4844 332.9 10.9219C332.618 11.3594 332.399 11.888 332.244 12.5078C332.098 13.1185 332.025 13.8066 332.025 14.5723V15.1191C332.025 15.7663 332.112 16.3678 332.285 16.9238C332.467 17.4707 332.732 17.9492 333.078 18.3594C333.424 18.7695 333.844 19.0931 334.336 19.3301C334.828 19.5579 335.389 19.6719 336.018 19.6719C336.811 19.6719 337.517 19.5124 338.137 19.1934C338.757 18.8743 339.294 18.4232 339.75 17.8398L341.486 19.5215C341.167 19.9863 340.753 20.4329 340.242 20.8613C339.732 21.2806 339.107 21.6224 338.369 21.8867C337.64 22.151 336.792 22.2832 335.826 22.2832ZM352.656 19.043V11.9883C352.656 11.4596 352.561 11.0039 352.369 10.6211C352.178 10.2383 351.886 9.94206 351.494 9.73242C351.111 9.52279 350.628 9.41797 350.045 9.41797C349.507 9.41797 349.042 9.50911 348.65 9.69141C348.258 9.8737 347.953 10.1198 347.734 10.4297C347.516 10.7396 347.406 11.0905 347.406 11.4824H344.125C344.125 10.8991 344.266 10.334 344.549 9.78711C344.831 9.24023 345.242 8.7526 345.779 8.32422C346.317 7.89583 346.96 7.55859 347.707 7.3125C348.454 7.06641 349.293 6.94336 350.223 6.94336C351.335 6.94336 352.319 7.13021 353.176 7.50391C354.042 7.8776 354.721 8.44271 355.213 9.19922C355.714 9.94661 355.965 10.8854 355.965 12.0156V18.5918C355.965 19.2663 356.01 19.8724 356.102 20.4102C356.202 20.9388 356.343 21.3991 356.525 21.791V22.0098H353.148C352.993 21.6543 352.87 21.2031 352.779 20.6562C352.697 20.1003 352.656 19.5625 352.656 19.043ZM353.135 13.0137L353.162 15.0508H350.797C350.186 15.0508 349.648 15.11 349.184 15.2285C348.719 15.3379 348.331 15.502 348.021 15.7207C347.712 15.9395 347.479 16.2038 347.324 16.5137C347.169 16.8236 347.092 17.1745 347.092 17.5664C347.092 17.9583 347.183 18.3184 347.365 18.6465C347.548 18.9655 347.812 19.2161 348.158 19.3984C348.514 19.5807 348.942 19.6719 349.443 19.6719C350.118 19.6719 350.706 19.5352 351.207 19.2617C351.717 18.9792 352.118 18.6374 352.41 18.2363C352.702 17.8262 352.857 17.4388 352.875 17.0742L353.941 18.5371C353.832 18.9108 353.645 19.3118 353.381 19.7402C353.117 20.1686 352.77 20.5788 352.342 20.9707C351.923 21.3535 351.417 21.668 350.824 21.9141C350.241 22.1602 349.566 22.2832 348.801 22.2832C347.835 22.2832 346.973 22.0918 346.217 21.709C345.46 21.3171 344.868 20.793 344.439 20.1367C344.011 19.4714 343.797 18.7194 343.797 17.8809C343.797 17.097 343.943 16.4043 344.234 15.8027C344.535 15.1921 344.973 14.6816 345.547 14.2715C346.13 13.8613 346.841 13.5514 347.68 13.3418C348.518 13.123 349.475 13.0137 350.551 13.0137H353.135ZM367.709 18.0039C367.709 17.6758 367.627 17.3796 367.463 17.1152C367.299 16.8418 366.984 16.5957 366.52 16.377C366.064 16.1582 365.389 15.9577 364.496 15.7754C363.712 15.6022 362.992 15.3971 362.336 15.1602C361.689 14.9141 361.133 14.6178 360.668 14.2715C360.203 13.9251 359.843 13.515 359.588 13.041C359.333 12.5671 359.205 12.0202 359.205 11.4004C359.205 10.7988 359.337 10.2292 359.602 9.69141C359.866 9.15365 360.244 8.67969 360.736 8.26953C361.229 7.85938 361.826 7.53581 362.527 7.29883C363.238 7.06185 364.031 6.94336 364.906 6.94336C366.146 6.94336 367.208 7.15299 368.092 7.57227C368.985 7.98242 369.669 8.54297 370.143 9.25391C370.617 9.95573 370.854 10.7487 370.854 11.6328H367.559C367.559 11.2409 367.458 10.8763 367.258 10.5391C367.066 10.1927 366.775 9.91471 366.383 9.70508C365.991 9.48633 365.499 9.37695 364.906 9.37695C364.341 9.37695 363.872 9.4681 363.498 9.65039C363.133 9.82357 362.86 10.0514 362.678 10.334C362.505 10.6165 362.418 10.9264 362.418 11.2637C362.418 11.5098 362.464 11.7331 362.555 11.9336C362.655 12.125 362.819 12.3027 363.047 12.4668C363.275 12.6217 363.585 12.7676 363.977 12.9043C364.378 13.041 364.879 13.1732 365.48 13.3008C366.611 13.5378 367.581 13.8431 368.393 14.2168C369.213 14.5814 369.842 15.0553 370.279 15.6387C370.717 16.2129 370.936 16.9421 370.936 17.8262C370.936 18.4824 370.794 19.084 370.512 19.6309C370.238 20.1686 369.837 20.638 369.309 21.0391C368.78 21.431 368.146 21.7363 367.408 21.9551C366.679 22.1738 365.859 22.2832 364.947 22.2832C363.607 22.2832 362.473 22.0462 361.543 21.5723C360.613 21.0892 359.907 20.474 359.424 19.7266C358.95 18.9701 358.713 18.1862 358.713 17.375H361.898C361.935 17.9857 362.104 18.4733 362.404 18.8379C362.714 19.1934 363.097 19.4531 363.553 19.6172C364.018 19.7721 364.496 19.8496 364.988 19.8496C365.581 19.8496 366.077 19.7721 366.479 19.6172C366.88 19.4531 367.185 19.2344 367.395 18.9609C367.604 18.6784 367.709 18.3594 367.709 18.0039ZM380.342 22.2832C379.248 22.2832 378.259 22.1055 377.375 21.75C376.5 21.3854 375.753 20.8796 375.133 20.2324C374.522 19.5853 374.053 18.8242 373.725 17.9492C373.396 17.0742 373.232 16.1309 373.232 15.1191V14.5723C373.232 13.4147 373.401 12.3665 373.738 11.4277C374.076 10.4889 374.545 9.68685 375.146 9.02148C375.748 8.34701 376.459 7.83203 377.279 7.47656C378.1 7.12109 378.988 6.94336 379.945 6.94336C381.003 6.94336 381.928 7.12109 382.721 7.47656C383.514 7.83203 384.17 8.33333 384.689 8.98047C385.218 9.61849 385.61 10.3796 385.865 11.2637C386.13 12.1478 386.262 13.123 386.262 14.1895V15.5977H374.832V13.2324H383.008V12.9727C382.99 12.3802 382.871 11.8242 382.652 11.3047C382.443 10.7852 382.119 10.3659 381.682 10.0469C381.244 9.72786 380.661 9.56836 379.932 9.56836C379.385 9.56836 378.897 9.68685 378.469 9.92383C378.049 10.1517 377.699 10.4844 377.416 10.9219C377.133 11.3594 376.915 11.888 376.76 12.5078C376.614 13.1185 376.541 13.8066 376.541 14.5723V15.1191C376.541 15.7663 376.628 16.3678 376.801 16.9238C376.983 17.4707 377.247 17.9492 377.594 18.3594C377.94 18.7695 378.359 19.0931 378.852 19.3301C379.344 19.5579 379.904 19.6719 380.533 19.6719C381.326 19.6719 382.033 19.5124 382.652 19.1934C383.272 18.8743 383.81 18.4232 384.266 17.8398L386.002 19.5215C385.683 19.9863 385.268 20.4329 384.758 20.8613C384.247 21.2806 383.623 21.6224 382.885 21.8867C382.156 22.151 381.308 22.2832 380.342 22.2832ZM405.279 7.2168H408.273V21.5996C408.273 22.9303 407.991 24.0605 407.426 24.9902C406.861 25.9199 406.072 26.6263 405.061 27.1094C404.049 27.6016 402.878 27.8477 401.547 27.8477C400.982 27.8477 400.353 27.7656 399.66 27.6016C398.977 27.4375 398.311 27.1732 397.664 26.8086C397.026 26.4531 396.493 25.9837 396.064 25.4004L397.609 23.459C398.138 24.0879 398.721 24.5482 399.359 24.8398C399.997 25.1315 400.667 25.2773 401.369 25.2773C402.126 25.2773 402.768 25.1361 403.297 24.8535C403.835 24.5801 404.249 24.1745 404.541 23.6367C404.833 23.099 404.979 22.4427 404.979 21.668V10.5664L405.279 7.2168ZM395.23 14.7773V14.4902C395.23 13.3691 395.367 12.3483 395.641 11.4277C395.914 10.498 396.306 9.70052 396.816 9.03516C397.327 8.36068 397.947 7.8457 398.676 7.49023C399.405 7.12565 400.23 6.94336 401.15 6.94336C402.107 6.94336 402.923 7.11654 403.598 7.46289C404.281 7.80924 404.851 8.30599 405.307 8.95312C405.762 9.59115 406.118 10.3568 406.373 11.25C406.637 12.1341 406.833 13.1185 406.961 14.2031V15.1191C406.842 16.1764 406.642 17.1426 406.359 18.0176C406.077 18.8926 405.703 19.6491 405.238 20.2871C404.773 20.9251 404.199 21.4173 403.516 21.7637C402.841 22.11 402.044 22.2832 401.123 22.2832C400.221 22.2832 399.405 22.0964 398.676 21.7227C397.956 21.349 397.336 20.8249 396.816 20.1504C396.306 19.4759 395.914 18.6829 395.641 17.7715C395.367 16.8509 395.23 15.8529 395.23 14.7773ZM398.525 14.4902V14.7773C398.525 15.4518 398.589 16.0807 398.717 16.6641C398.854 17.2474 399.059 17.7624 399.332 18.209C399.615 18.6465 399.97 18.9928 400.398 19.248C400.836 19.4941 401.351 19.6172 401.943 19.6172C402.718 19.6172 403.352 19.4531 403.844 19.125C404.345 18.7969 404.728 18.3548 404.992 17.7988C405.266 17.2337 405.457 16.6048 405.566 15.9121V13.4375C405.512 12.8997 405.398 12.3984 405.225 11.9336C405.061 11.4688 404.837 11.0632 404.555 10.7168C404.272 10.3613 403.917 10.0879 403.488 9.89648C403.06 9.69596 402.554 9.5957 401.971 9.5957C401.378 9.5957 400.863 9.72331 400.426 9.97852C399.988 10.2337 399.628 10.5846 399.346 11.0312C399.072 11.4779 398.867 11.9974 398.73 12.5898C398.594 13.1823 398.525 13.8158 398.525 14.4902ZM415 10.0332V22.0098H411.705V7.2168H414.85L415 10.0332ZM419.525 7.12109L419.498 10.1836C419.298 10.1471 419.079 10.1198 418.842 10.1016C418.614 10.0833 418.386 10.0742 418.158 10.0742C417.593 10.0742 417.096 10.1562 416.668 10.3203C416.24 10.4753 415.88 10.7031 415.588 11.0039C415.305 11.2956 415.087 11.651 414.932 12.0703C414.777 12.4896 414.686 12.959 414.658 13.4785L413.906 13.5332C413.906 12.6035 413.997 11.7422 414.18 10.9492C414.362 10.1562 414.635 9.45898 415 8.85742C415.374 8.25586 415.839 7.78646 416.395 7.44922C416.96 7.11198 417.611 6.94336 418.35 6.94336C418.55 6.94336 418.764 6.96159 418.992 6.99805C419.229 7.03451 419.407 7.07552 419.525 7.12109ZM429.438 19.043V11.9883C429.438 11.4596 429.342 11.0039 429.15 10.6211C428.959 10.2383 428.667 9.94206 428.275 9.73242C427.893 9.52279 427.41 9.41797 426.826 9.41797C426.288 9.41797 425.824 9.50911 425.432 9.69141C425.04 9.8737 424.734 10.1198 424.516 10.4297C424.297 10.7396 424.188 11.0905 424.188 11.4824H420.906C420.906 10.8991 421.048 10.334 421.33 9.78711C421.613 9.24023 422.023 8.7526 422.561 8.32422C423.098 7.89583 423.741 7.55859 424.488 7.3125C425.236 7.06641 426.074 6.94336 427.004 6.94336C428.116 6.94336 429.1 7.13021 429.957 7.50391C430.823 7.8776 431.502 8.44271 431.994 9.19922C432.495 9.94661 432.746 10.8854 432.746 12.0156V18.5918C432.746 19.2663 432.792 19.8724 432.883 20.4102C432.983 20.9388 433.124 21.3991 433.307 21.791V22.0098H429.93C429.775 21.6543 429.652 21.2031 429.561 20.6562C429.479 20.1003 429.438 19.5625 429.438 19.043ZM429.916 13.0137L429.943 15.0508H427.578C426.967 15.0508 426.43 15.11 425.965 15.2285C425.5 15.3379 425.113 15.502 424.803 15.7207C424.493 15.9395 424.26 16.2038 424.105 16.5137C423.951 16.8236 423.873 17.1745 423.873 17.5664C423.873 17.9583 423.964 18.3184 424.146 18.6465C424.329 18.9655 424.593 19.2161 424.939 19.3984C425.295 19.5807 425.723 19.6719 426.225 19.6719C426.899 19.6719 427.487 19.5352 427.988 19.2617C428.499 18.9792 428.9 18.6374 429.191 18.2363C429.483 17.8262 429.638 17.4388 429.656 17.0742L430.723 18.5371C430.613 18.9108 430.426 19.3118 430.162 19.7402C429.898 20.1686 429.551 20.5788 429.123 20.9707C428.704 21.3535 428.198 21.668 427.605 21.9141C427.022 22.1602 426.348 22.2832 425.582 22.2832C424.616 22.2832 423.755 22.0918 422.998 21.709C422.242 21.3171 421.649 20.793 421.221 20.1367C420.792 19.4714 420.578 18.7194 420.578 17.8809C420.578 17.097 420.724 16.4043 421.016 15.8027C421.316 15.1921 421.754 14.6816 422.328 14.2715C422.911 13.8613 423.622 13.5514 424.461 13.3418C425.299 13.123 426.257 13.0137 427.332 13.0137H429.916ZM439.459 10.375V22.0098H436.164V7.2168H439.268L439.459 10.375ZM438.871 14.0664L437.805 14.0527C437.814 13.0046 437.96 12.043 438.242 11.168C438.534 10.293 438.935 9.54102 439.445 8.91211C439.965 8.2832 440.585 7.80013 441.305 7.46289C442.025 7.11654 442.827 6.94336 443.711 6.94336C444.422 6.94336 445.064 7.04362 445.639 7.24414C446.222 7.43555 446.719 7.75 447.129 8.1875C447.548 8.625 447.867 9.19466 448.086 9.89648C448.305 10.5892 448.414 11.4414 448.414 12.4531V22.0098H445.105V12.4395C445.105 11.7285 445.001 11.168 444.791 10.7578C444.59 10.3385 444.294 10.0423 443.902 9.86914C443.52 9.68685 443.041 9.5957 442.467 9.5957C441.902 9.5957 441.396 9.71419 440.949 9.95117C440.503 10.1882 440.124 10.5117 439.814 10.9219C439.514 11.332 439.281 11.806 439.117 12.3438C438.953 12.8815 438.871 13.4557 438.871 14.0664ZM458.559 7.2168V9.62305H450.219V7.2168H458.559ZM452.625 3.59375H455.92V17.9219C455.92 18.3776 455.984 18.7285 456.111 18.9746C456.248 19.2116 456.435 19.3711 456.672 19.4531C456.909 19.5352 457.187 19.5762 457.506 19.5762C457.734 19.5762 457.952 19.5625 458.162 19.5352C458.372 19.5078 458.54 19.4805 458.668 19.4531L458.682 21.9688C458.408 22.0508 458.089 22.1237 457.725 22.1875C457.369 22.2513 456.959 22.2832 456.494 22.2832C455.738 22.2832 455.068 22.151 454.484 21.8867C453.901 21.6133 453.445 21.1712 453.117 20.5605C452.789 19.9499 452.625 19.1387 452.625 18.127V3.59375ZM471.383 10.0605V27.6973H468.088V7.2168H471.123L471.383 10.0605ZM481.021 14.4766V14.7637C481.021 15.8392 480.894 16.8372 480.639 17.7578C480.393 18.6693 480.023 19.4668 479.531 20.1504C479.048 20.8249 478.451 21.349 477.74 21.7227C477.029 22.0964 476.209 22.2832 475.279 22.2832C474.359 22.2832 473.552 22.1146 472.859 21.7773C472.176 21.431 471.597 20.9434 471.123 20.3145C470.649 19.6855 470.266 18.9473 469.975 18.0996C469.692 17.2428 469.492 16.304 469.373 15.2832V14.1758C469.492 13.0911 469.692 12.1068 469.975 11.2227C470.266 10.3385 470.649 9.57747 471.123 8.93945C471.597 8.30143 472.176 7.80924 472.859 7.46289C473.543 7.11654 474.34 6.94336 475.252 6.94336C476.182 6.94336 477.007 7.12565 477.727 7.49023C478.447 7.8457 479.053 8.35612 479.545 9.02148C480.037 9.67773 480.406 10.4707 480.652 11.4004C480.898 12.321 481.021 13.3464 481.021 14.4766ZM477.727 14.7637V14.4766C477.727 13.793 477.663 13.1595 477.535 12.5762C477.408 11.9837 477.207 11.4642 476.934 11.0176C476.66 10.571 476.309 10.2246 475.881 9.97852C475.462 9.72331 474.956 9.5957 474.363 9.5957C473.78 9.5957 473.279 9.69596 472.859 9.89648C472.44 10.0879 472.089 10.3568 471.807 10.7031C471.524 11.0495 471.305 11.4551 471.15 11.9199C470.995 12.3757 470.886 12.8724 470.822 13.4102V16.0625C470.932 16.7188 471.118 17.3203 471.383 17.8672C471.647 18.4141 472.021 18.8516 472.504 19.1797C472.996 19.4987 473.625 19.6582 474.391 19.6582C474.983 19.6582 475.489 19.5306 475.908 19.2754C476.327 19.0202 476.669 18.6693 476.934 18.2227C477.207 17.7669 477.408 17.2428 477.535 16.6504C477.663 16.0579 477.727 15.429 477.727 14.7637ZM490.346 22.2832C489.252 22.2832 488.263 22.1055 487.379 21.75C486.504 21.3854 485.757 20.8796 485.137 20.2324C484.526 19.5853 484.057 18.8242 483.729 17.9492C483.4 17.0742 483.236 16.1309 483.236 15.1191V14.5723C483.236 13.4147 483.405 12.3665 483.742 11.4277C484.079 10.4889 484.549 9.68685 485.15 9.02148C485.752 8.34701 486.463 7.83203 487.283 7.47656C488.104 7.12109 488.992 6.94336 489.949 6.94336C491.007 6.94336 491.932 7.12109 492.725 7.47656C493.518 7.83203 494.174 8.33333 494.693 8.98047C495.222 9.61849 495.614 10.3796 495.869 11.2637C496.133 12.1478 496.266 13.123 496.266 14.1895V15.5977H484.836V13.2324H493.012V12.9727C492.993 12.3802 492.875 11.8242 492.656 11.3047C492.447 10.7852 492.123 10.3659 491.686 10.0469C491.248 9.72786 490.665 9.56836 489.936 9.56836C489.389 9.56836 488.901 9.68685 488.473 9.92383C488.053 10.1517 487.702 10.4844 487.42 10.9219C487.137 11.3594 486.919 11.888 486.764 12.5078C486.618 13.1185 486.545 13.8066 486.545 14.5723V15.1191C486.545 15.7663 486.632 16.3678 486.805 16.9238C486.987 17.4707 487.251 17.9492 487.598 18.3594C487.944 18.7695 488.363 19.0931 488.855 19.3301C489.348 19.5579 489.908 19.6719 490.537 19.6719C491.33 19.6719 492.036 19.5124 492.656 19.1934C493.276 18.8743 493.814 18.4232 494.27 17.8398L496.006 19.5215C495.687 19.9863 495.272 20.4329 494.762 20.8613C494.251 21.2806 493.627 21.6224 492.889 21.8867C492.16 22.151 491.312 22.2832 490.346 22.2832ZM502.145 10.0332V22.0098H498.85V7.2168H501.994L502.145 10.0332ZM506.67 7.12109L506.643 10.1836C506.442 10.1471 506.223 10.1198 505.986 10.1016C505.758 10.0833 505.531 10.0742 505.303 10.0742C504.738 10.0742 504.241 10.1562 503.812 10.3203C503.384 10.4753 503.024 10.7031 502.732 11.0039C502.45 11.2956 502.231 11.651 502.076 12.0703C501.921 12.4896 501.83 12.959 501.803 13.4785L501.051 13.5332C501.051 12.6035 501.142 11.7422 501.324 10.9492C501.507 10.1562 501.78 9.45898 502.145 8.85742C502.518 8.25586 502.983 7.78646 503.539 7.44922C504.104 7.11198 504.756 6.94336 505.494 6.94336C505.695 6.94336 505.909 6.96159 506.137 6.99805C506.374 7.03451 506.551 7.07552 506.67 7.12109ZM512.029 10.2246V22.0098H508.734V7.2168H511.838L512.029 10.2246ZM511.496 14.0664L510.375 14.0527C510.375 13.0319 510.503 12.0885 510.758 11.2227C511.013 10.3568 511.387 9.60482 511.879 8.9668C512.371 8.31966 512.982 7.82292 513.711 7.47656C514.449 7.12109 515.301 6.94336 516.268 6.94336C516.942 6.94336 517.557 7.04362 518.113 7.24414C518.678 7.43555 519.166 7.74089 519.576 8.16016C519.995 8.57943 520.314 9.11719 520.533 9.77344C520.761 10.4297 520.875 11.2227 520.875 12.1523V22.0098H517.58V12.4395C517.58 11.7194 517.471 11.1543 517.252 10.7441C517.042 10.334 516.737 10.0423 516.336 9.86914C515.944 9.68685 515.475 9.5957 514.928 9.5957C514.308 9.5957 513.779 9.71419 513.342 9.95117C512.913 10.1882 512.562 10.5117 512.289 10.9219C512.016 11.332 511.815 11.806 511.688 12.3438C511.56 12.8815 511.496 13.4557 511.496 14.0664ZM520.67 13.1914L519.125 13.5332C519.125 12.64 519.248 11.7969 519.494 11.0039C519.749 10.2018 520.118 9.5 520.602 8.89844C521.094 8.28776 521.7 7.80924 522.42 7.46289C523.14 7.11654 523.965 6.94336 524.895 6.94336C525.651 6.94336 526.326 7.04818 526.918 7.25781C527.52 7.45833 528.03 7.77734 528.449 8.21484C528.868 8.65234 529.188 9.22201 529.406 9.92383C529.625 10.6165 529.734 11.4551 529.734 12.4395V22.0098H526.426V12.4258C526.426 11.6784 526.316 11.0996 526.098 10.6895C525.888 10.2793 525.587 9.99674 525.195 9.8418C524.803 9.67773 524.334 9.5957 523.787 9.5957C523.277 9.5957 522.826 9.69141 522.434 9.88281C522.051 10.0651 521.727 10.3249 521.463 10.6621C521.199 10.9902 520.998 11.3685 520.861 11.7969C520.734 12.2253 520.67 12.6901 520.67 13.1914ZM536.652 7.2168V22.0098H533.344V7.2168H536.652ZM533.125 3.33398C533.125 2.83268 533.289 2.41797 533.617 2.08984C533.954 1.7526 534.419 1.58398 535.012 1.58398C535.595 1.58398 536.055 1.7526 536.393 2.08984C536.73 2.41797 536.898 2.83268 536.898 3.33398C536.898 3.82617 536.73 4.23633 536.393 4.56445C536.055 4.89258 535.595 5.05664 535.012 5.05664C534.419 5.05664 533.954 4.89258 533.617 4.56445C533.289 4.23633 533.125 3.82617 533.125 3.33398ZM548.561 18.0039C548.561 17.6758 548.479 17.3796 548.314 17.1152C548.15 16.8418 547.836 16.5957 547.371 16.377C546.915 16.1582 546.241 15.9577 545.348 15.7754C544.564 15.6022 543.844 15.3971 543.188 15.1602C542.54 14.9141 541.984 14.6178 541.52 14.2715C541.055 13.9251 540.695 13.515 540.439 13.041C540.184 12.5671 540.057 12.0202 540.057 11.4004C540.057 10.7988 540.189 10.2292 540.453 9.69141C540.717 9.15365 541.096 8.67969 541.588 8.26953C542.08 7.85938 542.677 7.53581 543.379 7.29883C544.09 7.06185 544.883 6.94336 545.758 6.94336C546.997 6.94336 548.059 7.15299 548.943 7.57227C549.837 7.98242 550.52 8.54297 550.994 9.25391C551.468 9.95573 551.705 10.7487 551.705 11.6328H548.41C548.41 11.2409 548.31 10.8763 548.109 10.5391C547.918 10.1927 547.626 9.91471 547.234 9.70508C546.842 9.48633 546.35 9.37695 545.758 9.37695C545.193 9.37695 544.723 9.4681 544.35 9.65039C543.985 9.82357 543.712 10.0514 543.529 10.334C543.356 10.6165 543.27 10.9264 543.27 11.2637C543.27 11.5098 543.315 11.7331 543.406 11.9336C543.507 12.125 543.671 12.3027 543.898 12.4668C544.126 12.6217 544.436 12.7676 544.828 12.9043C545.229 13.041 545.73 13.1732 546.332 13.3008C547.462 13.5378 548.433 13.8431 549.244 14.2168C550.064 14.5814 550.693 15.0553 551.131 15.6387C551.568 16.2129 551.787 16.9421 551.787 17.8262C551.787 18.4824 551.646 19.084 551.363 19.6309C551.09 20.1686 550.689 20.638 550.16 21.0391C549.632 21.431 548.998 21.7363 548.26 21.9551C547.531 22.1738 546.71 22.2832 545.799 22.2832C544.459 22.2832 543.324 22.0462 542.395 21.5723C541.465 21.0892 540.758 20.474 540.275 19.7266C539.801 18.9701 539.564 18.1862 539.564 17.375H542.75C542.786 17.9857 542.955 18.4733 543.256 18.8379C543.566 19.1934 543.949 19.4531 544.404 19.6172C544.869 19.7721 545.348 19.8496 545.84 19.8496C546.432 19.8496 546.929 19.7721 547.33 19.6172C547.731 19.4531 548.036 19.2344 548.246 18.9609C548.456 18.6784 548.561 18.3594 548.561 18.0039ZM562.971 18.0039C562.971 17.6758 562.889 17.3796 562.725 17.1152C562.561 16.8418 562.246 16.5957 561.781 16.377C561.326 16.1582 560.651 15.9577 559.758 15.7754C558.974 15.6022 558.254 15.3971 557.598 15.1602C556.951 14.9141 556.395 14.6178 555.93 14.2715C555.465 13.9251 555.105 13.515 554.85 13.041C554.594 12.5671 554.467 12.0202 554.467 11.4004C554.467 10.7988 554.599 10.2292 554.863 9.69141C555.128 9.15365 555.506 8.67969 555.998 8.26953C556.49 7.85938 557.087 7.53581 557.789 7.29883C558.5 7.06185 559.293 6.94336 560.168 6.94336C561.408 6.94336 562.469 7.15299 563.354 7.57227C564.247 7.98242 564.93 8.54297 565.404 9.25391C565.878 9.95573 566.115 10.7487 566.115 11.6328H562.82C562.82 11.2409 562.72 10.8763 562.52 10.5391C562.328 10.1927 562.036 9.91471 561.645 9.70508C561.253 9.48633 560.76 9.37695 560.168 9.37695C559.603 9.37695 559.133 9.4681 558.76 9.65039C558.395 9.82357 558.122 10.0514 557.939 10.334C557.766 10.6165 557.68 10.9264 557.68 11.2637C557.68 11.5098 557.725 11.7331 557.816 11.9336C557.917 12.125 558.081 12.3027 558.309 12.4668C558.536 12.6217 558.846 12.7676 559.238 12.9043C559.639 13.041 560.141 13.1732 560.742 13.3008C561.872 13.5378 562.843 13.8431 563.654 14.2168C564.475 14.5814 565.104 15.0553 565.541 15.6387C565.979 16.2129 566.197 16.9421 566.197 17.8262C566.197 18.4824 566.056 19.084 565.773 19.6309C565.5 20.1686 565.099 20.638 564.57 21.0391C564.042 21.431 563.408 21.7363 562.67 21.9551C561.941 22.1738 561.12 22.2832 560.209 22.2832C558.869 22.2832 557.734 22.0462 556.805 21.5723C555.875 21.0892 555.169 20.474 554.686 19.7266C554.212 18.9701 553.975 18.1862 553.975 17.375H557.16C557.197 17.9857 557.365 18.4733 557.666 18.8379C557.976 19.1934 558.359 19.4531 558.814 19.6172C559.279 19.7721 559.758 19.8496 560.25 19.8496C560.842 19.8496 561.339 19.7721 561.74 19.6172C562.141 19.4531 562.447 19.2344 562.656 18.9609C562.866 18.6784 562.971 18.3594 562.971 18.0039ZM572.609 7.2168V22.0098H569.301V7.2168H572.609ZM569.082 3.33398C569.082 2.83268 569.246 2.41797 569.574 2.08984C569.911 1.7526 570.376 1.58398 570.969 1.58398C571.552 1.58398 572.012 1.7526 572.35 2.08984C572.687 2.41797 572.855 2.83268 572.855 3.33398C572.855 3.82617 572.687 4.23633 572.35 4.56445C572.012 4.89258 571.552 5.05664 570.969 5.05664C570.376 5.05664 569.911 4.89258 569.574 4.56445C569.246 4.23633 569.082 3.82617 569.082 3.33398ZM575.59 14.7773V14.4629C575.59 13.3965 575.745 12.4076 576.055 11.4961C576.365 10.5755 576.811 9.77799 577.395 9.10352C577.987 8.41992 578.707 7.89128 579.555 7.51758C580.411 7.13477 581.378 6.94336 582.453 6.94336C583.538 6.94336 584.504 7.13477 585.352 7.51758C586.208 7.89128 586.933 8.41992 587.525 9.10352C588.118 9.77799 588.569 10.5755 588.879 11.4961C589.189 12.4076 589.344 13.3965 589.344 14.4629V14.7773C589.344 15.8438 589.189 16.8327 588.879 17.7441C588.569 18.6556 588.118 19.4531 587.525 20.1367C586.933 20.8112 586.213 21.3398 585.365 21.7227C584.518 22.0964 583.556 22.2832 582.48 22.2832C581.396 22.2832 580.425 22.0964 579.568 21.7227C578.721 21.3398 578.001 20.8112 577.408 20.1367C576.816 19.4531 576.365 18.6556 576.055 17.7441C575.745 16.8327 575.59 15.8438 575.59 14.7773ZM578.885 14.4629V14.7773C578.885 15.4427 578.953 16.0716 579.09 16.6641C579.227 17.2565 579.441 17.776 579.732 18.2227C580.024 18.6693 580.398 19.0202 580.854 19.2754C581.309 19.5306 581.852 19.6582 582.48 19.6582C583.091 19.6582 583.62 19.5306 584.066 19.2754C584.522 19.0202 584.896 18.6693 585.188 18.2227C585.479 17.776 585.693 17.2565 585.83 16.6641C585.976 16.0716 586.049 15.4427 586.049 14.7773V14.4629C586.049 13.8066 585.976 13.1868 585.83 12.6035C585.693 12.0111 585.475 11.487 585.174 11.0312C584.882 10.5755 584.508 10.2201 584.053 9.96484C583.606 9.70052 583.073 9.56836 582.453 9.56836C581.833 9.56836 581.296 9.70052 580.84 9.96484C580.393 10.2201 580.024 10.5755 579.732 11.0312C579.441 11.487 579.227 12.0111 579.09 12.6035C578.953 13.1868 578.885 13.8066 578.885 14.4629ZM595.373 10.375V22.0098H592.078V7.2168H595.182L595.373 10.375ZM594.785 14.0664L593.719 14.0527C593.728 13.0046 593.874 12.043 594.156 11.168C594.448 10.293 594.849 9.54102 595.359 8.91211C595.879 8.2832 596.499 7.80013 597.219 7.46289C597.939 7.11654 598.741 6.94336 599.625 6.94336C600.336 6.94336 600.979 7.04362 601.553 7.24414C602.136 7.43555 602.633 7.75 603.043 8.1875C603.462 8.625 603.781 9.19466 604 9.89648C604.219 10.5892 604.328 11.4414 604.328 12.4531V22.0098H601.02V12.4395C601.02 11.7285 600.915 11.168 600.705 10.7578C600.505 10.3385 600.208 10.0423 599.816 9.86914C599.434 9.68685 598.955 9.5957 598.381 9.5957C597.816 9.5957 597.31 9.71419 596.863 9.95117C596.417 10.1882 596.038 10.5117 595.729 10.9219C595.428 11.332 595.195 11.806 595.031 12.3438C594.867 12.8815 594.785 13.4557 594.785 14.0664ZM68.9512 57.0098H65.6562V40.7949C65.6562 39.6921 65.8613 38.7669 66.2715 38.0195C66.6908 37.263 67.2878 36.6934 68.0625 36.3105C68.8372 35.9186 69.7533 35.7227 70.8105 35.7227C71.1387 35.7227 71.4622 35.7454 71.7812 35.791C72.1003 35.8275 72.4102 35.8867 72.7109 35.9688L72.6289 38.5117C72.4466 38.4661 72.2461 38.4342 72.0273 38.416C71.8177 38.3978 71.5898 38.3887 71.3438 38.3887C70.8424 38.3887 70.4095 38.4844 70.0449 38.6758C69.6895 38.8581 69.416 39.127 69.2246 39.4824C69.0423 39.8379 68.9512 40.2754 68.9512 40.7949V57.0098ZM72 42.2168V44.623H63.3867V42.2168H72ZM73.7637 49.7773V49.4629C73.7637 48.3965 73.9186 47.4076 74.2285 46.4961C74.5384 45.5755 74.985 44.778 75.5684 44.1035C76.1608 43.4199 76.8809 42.8913 77.7285 42.5176C78.5853 42.1348 79.5514 41.9434 80.627 41.9434C81.7116 41.9434 82.6777 42.1348 83.5254 42.5176C84.3822 42.8913 85.1068 43.4199 85.6992 44.1035C86.2917 44.778 86.7428 45.5755 87.0527 46.4961C87.3626 47.4076 87.5176 48.3965 87.5176 49.4629V49.7773C87.5176 50.8438 87.3626 51.8327 87.0527 52.7441C86.7428 53.6556 86.2917 54.4531 85.6992 55.1367C85.1068 55.8112 84.3867 56.3398 83.5391 56.7227C82.6914 57.0964 81.7298 57.2832 80.6543 57.2832C79.5697 57.2832 78.599 57.0964 77.7422 56.7227C76.8945 56.3398 76.1745 55.8112 75.582 55.1367C74.9896 54.4531 74.5384 53.6556 74.2285 52.7441C73.9186 51.8327 73.7637 50.8438 73.7637 49.7773ZM77.0586 49.4629V49.7773C77.0586 50.4427 77.127 51.0716 77.2637 51.6641C77.4004 52.2565 77.6146 52.776 77.9062 53.2227C78.1979 53.6693 78.5716 54.0202 79.0273 54.2754C79.4831 54.5306 80.0254 54.6582 80.6543 54.6582C81.265 54.6582 81.7936 54.5306 82.2402 54.2754C82.696 54.0202 83.0697 53.6693 83.3613 53.2227C83.653 52.776 83.8672 52.2565 84.0039 51.6641C84.1497 51.0716 84.2227 50.4427 84.2227 49.7773V49.4629C84.2227 48.8066 84.1497 48.1868 84.0039 47.6035C83.8672 47.0111 83.6484 46.487 83.3477 46.0312C83.056 45.5755 82.6823 45.2201 82.2266 44.9648C81.7799 44.7005 81.2467 44.5684 80.627 44.5684C80.0072 44.5684 79.4694 44.7005 79.0137 44.9648C78.5671 45.2201 78.1979 45.5755 77.9062 46.0312C77.6146 46.487 77.4004 47.0111 77.2637 47.6035C77.127 48.1868 77.0586 48.8066 77.0586 49.4629ZM93.5879 45.0332V57.0098H90.293V42.2168H93.4375L93.5879 45.0332ZM98.1133 42.1211L98.0859 45.1836C97.8854 45.1471 97.6667 45.1198 97.4297 45.1016C97.2018 45.0833 96.974 45.0742 96.7461 45.0742C96.181 45.0742 95.6842 45.1562 95.2559 45.3203C94.8275 45.4753 94.4674 45.7031 94.1758 46.0039C93.8932 46.2956 93.6745 46.651 93.5195 47.0703C93.3646 47.4896 93.2734 47.959 93.2461 48.4785L92.4941 48.5332C92.4941 47.6035 92.5853 46.7422 92.7676 45.9492C92.9499 45.1562 93.2233 44.459 93.5879 43.8574C93.9616 43.2559 94.4264 42.7865 94.9824 42.4492C95.5475 42.112 96.1992 41.9434 96.9375 41.9434C97.138 41.9434 97.3522 41.9616 97.5801 41.998C97.8171 42.0345 97.9948 42.0755 98.1133 42.1211ZM113.932 42.2168V44.623H105.592V42.2168H113.932ZM107.998 38.5938H111.293V52.9219C111.293 53.3776 111.357 53.7285 111.484 53.9746C111.621 54.2116 111.808 54.3711 112.045 54.4531C112.282 54.5352 112.56 54.5762 112.879 54.5762C113.107 54.5762 113.326 54.5625 113.535 54.5352C113.745 54.5078 113.913 54.4805 114.041 54.4531L114.055 56.9688C113.781 57.0508 113.462 57.1237 113.098 57.1875C112.742 57.2513 112.332 57.2832 111.867 57.2832C111.111 57.2832 110.441 57.151 109.857 56.8867C109.274 56.6133 108.818 56.1712 108.49 55.5605C108.162 54.9499 107.998 54.1387 107.998 53.127V38.5938ZM119.729 36.0098V57.0098H116.447V36.0098H119.729ZM119.154 49.0664L118.088 49.0527C118.097 48.0319 118.238 47.0885 118.512 46.2227C118.794 45.3568 119.186 44.6048 119.688 43.9668C120.198 43.3197 120.809 42.8229 121.52 42.4766C122.23 42.1211 123.019 41.9434 123.885 41.9434C124.614 41.9434 125.27 42.0436 125.854 42.2441C126.446 42.4447 126.956 42.7682 127.385 43.2148C127.813 43.6523 128.137 44.2266 128.355 44.9375C128.583 45.6393 128.697 46.4961 128.697 47.5078V57.0098H125.389V47.4805C125.389 46.7695 125.284 46.2044 125.074 45.7852C124.874 45.3659 124.577 45.0651 124.186 44.8828C123.794 44.6914 123.315 44.5957 122.75 44.5957C122.158 44.5957 121.633 44.7142 121.178 44.9512C120.731 45.1882 120.357 45.5117 120.057 45.9219C119.756 46.332 119.528 46.806 119.373 47.3438C119.227 47.8815 119.154 48.4557 119.154 49.0664ZM138.555 57.2832C137.461 57.2832 136.472 57.1055 135.588 56.75C134.713 56.3854 133.965 55.8796 133.346 55.2324C132.735 54.5853 132.266 53.8242 131.938 52.9492C131.609 52.0742 131.445 51.1309 131.445 50.1191V49.5723C131.445 48.4147 131.614 47.3665 131.951 46.4277C132.288 45.4889 132.758 44.6868 133.359 44.0215C133.961 43.347 134.672 42.832 135.492 42.4766C136.312 42.1211 137.201 41.9434 138.158 41.9434C139.215 41.9434 140.141 42.1211 140.934 42.4766C141.727 42.832 142.383 43.3333 142.902 43.9805C143.431 44.6185 143.823 45.3796 144.078 46.2637C144.342 47.1478 144.475 48.123 144.475 49.1895V50.5977H133.045V48.2324H141.221V47.9727C141.202 47.3802 141.084 46.8242 140.865 46.3047C140.656 45.7852 140.332 45.3659 139.895 45.0469C139.457 44.7279 138.874 44.5684 138.145 44.5684C137.598 44.5684 137.11 44.6868 136.682 44.9238C136.262 45.1517 135.911 45.4844 135.629 45.9219C135.346 46.3594 135.128 46.888 134.973 47.5078C134.827 48.1185 134.754 48.8066 134.754 49.5723V50.1191C134.754 50.7663 134.84 51.3678 135.014 51.9238C135.196 52.4707 135.46 52.9492 135.807 53.3594C136.153 53.7695 136.572 54.0931 137.064 54.3301C137.557 54.5579 138.117 54.6719 138.746 54.6719C139.539 54.6719 140.245 54.5124 140.865 54.1934C141.485 53.8743 142.023 53.4232 142.479 52.8398L144.215 54.5215C143.896 54.9863 143.481 55.4329 142.971 55.8613C142.46 56.2806 141.836 56.6224 141.098 56.8867C140.368 57.151 139.521 57.2832 138.555 57.2832ZM245.154 53.7285L248.572 42.2168H250.678L250.104 45.6621L246.658 57.0098H244.771L245.154 53.7285ZM243.145 42.2168L245.811 53.7832L246.029 57.0098H243.924L239.918 42.2168H243.145ZM253.877 53.6465L256.461 42.2168H259.674L255.682 57.0098H253.576L253.877 53.6465ZM251.033 42.2168L254.41 53.5918L254.834 57.0098H252.947L249.461 45.6484L248.887 42.2168H251.033ZM268.438 57.2832C267.344 57.2832 266.355 57.1055 265.471 56.75C264.596 56.3854 263.848 55.8796 263.229 55.2324C262.618 54.5853 262.148 53.8242 261.82 52.9492C261.492 52.0742 261.328 51.1309 261.328 50.1191V49.5723C261.328 48.4147 261.497 47.3665 261.834 46.4277C262.171 45.4889 262.641 44.6868 263.242 44.0215C263.844 43.347 264.555 42.832 265.375 42.4766C266.195 42.1211 267.084 41.9434 268.041 41.9434C269.098 41.9434 270.023 42.1211 270.816 42.4766C271.609 42.832 272.266 43.3333 272.785 43.9805C273.314 44.6185 273.706 45.3796 273.961 46.2637C274.225 47.1478 274.357 48.123 274.357 49.1895V50.5977H262.928V48.2324H271.104V47.9727C271.085 47.3802 270.967 46.8242 270.748 46.3047C270.538 45.7852 270.215 45.3659 269.777 45.0469C269.34 44.7279 268.757 44.5684 268.027 44.5684C267.48 44.5684 266.993 44.6868 266.564 44.9238C266.145 45.1517 265.794 45.4844 265.512 45.9219C265.229 46.3594 265.01 46.888 264.855 47.5078C264.71 48.1185 264.637 48.8066 264.637 49.5723V50.1191C264.637 50.7663 264.723 51.3678 264.896 51.9238C265.079 52.4707 265.343 52.9492 265.689 53.3594C266.036 53.7695 266.455 54.0931 266.947 54.3301C267.439 54.5579 268 54.6719 268.629 54.6719C269.422 54.6719 270.128 54.5124 270.748 54.1934C271.368 53.8743 271.906 53.4232 272.361 52.8398L274.098 54.5215C273.779 54.9863 273.364 55.4329 272.854 55.8613C272.343 56.2806 271.719 56.6224 270.98 56.8867C270.251 57.151 269.404 57.2832 268.438 57.2832ZM276.941 36.0098H280.236V53.8516L279.922 57.0098H276.941V36.0098ZM289.889 49.4766V49.7637C289.889 50.8574 289.766 51.8646 289.52 52.7852C289.283 53.6966 288.918 54.4896 288.426 55.1641C287.943 55.8385 287.341 56.3626 286.621 56.7363C285.91 57.1009 285.085 57.2832 284.146 57.2832C283.226 57.2832 282.424 57.11 281.74 56.7637C281.057 56.4173 280.482 55.9251 280.018 55.2871C279.562 54.6491 279.193 53.888 278.91 53.0039C278.628 52.1198 278.427 51.1445 278.309 50.0781V49.1621C278.427 48.0866 278.628 47.1113 278.91 46.2363C279.193 45.3522 279.562 44.5911 280.018 43.9531C280.482 43.306 281.052 42.8092 281.727 42.4629C282.41 42.1165 283.208 41.9434 284.119 41.9434C285.067 41.9434 285.901 42.1257 286.621 42.4902C287.35 42.8548 287.956 43.3743 288.439 44.0488C288.923 44.7142 289.283 45.5072 289.52 46.4277C289.766 47.3483 289.889 48.3646 289.889 49.4766ZM286.594 49.7637V49.4766C286.594 48.8112 286.539 48.1868 286.43 47.6035C286.32 47.0111 286.138 46.4915 285.883 46.0449C285.637 45.5983 285.299 45.2474 284.871 44.9922C284.452 44.7279 283.928 44.5957 283.299 44.5957C282.715 44.5957 282.214 44.696 281.795 44.8965C281.376 45.097 281.025 45.3704 280.742 45.7168C280.46 46.0632 280.236 46.4642 280.072 46.9199C279.917 47.3757 279.812 47.8678 279.758 48.3965V50.8711C279.84 51.5547 280.013 52.1836 280.277 52.7578C280.551 53.3229 280.934 53.7786 281.426 54.125C281.918 54.4622 282.551 54.6309 283.326 54.6309C283.937 54.6309 284.452 54.5078 284.871 54.2617C285.29 54.0156 285.623 53.6738 285.869 53.2363C286.124 52.7897 286.307 52.2702 286.416 51.6777C286.535 51.0853 286.594 50.4473 286.594 49.7637ZM307.99 54.043V46.9883C307.99 46.4596 307.895 46.0039 307.703 45.6211C307.512 45.2383 307.22 44.9421 306.828 44.7324C306.445 44.5228 305.962 44.418 305.379 44.418C304.841 44.418 304.376 44.5091 303.984 44.6914C303.592 44.8737 303.287 45.1198 303.068 45.4297C302.85 45.7396 302.74 46.0905 302.74 46.4824H299.459C299.459 45.8991 299.6 45.334 299.883 44.7871C300.165 44.2402 300.576 43.7526 301.113 43.3242C301.651 42.8958 302.294 42.5586 303.041 42.3125C303.788 42.0664 304.627 41.9434 305.557 41.9434C306.669 41.9434 307.653 42.1302 308.51 42.5039C309.376 42.8776 310.055 43.4427 310.547 44.1992C311.048 44.9466 311.299 45.8854 311.299 47.0156V53.5918C311.299 54.2663 311.344 54.8724 311.436 55.4102C311.536 55.9388 311.677 56.3991 311.859 56.791V57.0098H308.482C308.327 56.6543 308.204 56.2031 308.113 55.6562C308.031 55.1003 307.99 54.5625 307.99 54.043ZM308.469 48.0137L308.496 50.0508H306.131C305.52 50.0508 304.982 50.11 304.518 50.2285C304.053 50.3379 303.665 50.502 303.355 50.7207C303.046 50.9395 302.813 51.2038 302.658 51.5137C302.503 51.8236 302.426 52.1745 302.426 52.5664C302.426 52.9583 302.517 53.3184 302.699 53.6465C302.882 53.9655 303.146 54.2161 303.492 54.3984C303.848 54.5807 304.276 54.6719 304.777 54.6719C305.452 54.6719 306.04 54.5352 306.541 54.2617C307.051 53.9792 307.452 53.6374 307.744 53.2363C308.036 52.8262 308.191 52.4388 308.209 52.0742L309.275 53.5371C309.166 53.9108 308.979 54.3118 308.715 54.7402C308.451 55.1686 308.104 55.5788 307.676 55.9707C307.257 56.3535 306.751 56.668 306.158 56.9141C305.575 57.1602 304.9 57.2832 304.135 57.2832C303.169 57.2832 302.307 57.0918 301.551 56.709C300.794 56.3171 300.202 55.793 299.773 55.1367C299.345 54.4714 299.131 53.7194 299.131 52.8809C299.131 52.097 299.277 51.4043 299.568 50.8027C299.869 50.1921 300.307 49.6816 300.881 49.2715C301.464 48.8613 302.175 48.5514 303.014 48.3418C303.852 48.123 304.809 48.0137 305.885 48.0137H308.469ZM318.053 45.0605V62.6973H314.758V42.2168H317.793L318.053 45.0605ZM327.691 49.4766V49.7637C327.691 50.8392 327.564 51.8372 327.309 52.7578C327.062 53.6693 326.693 54.4668 326.201 55.1504C325.718 55.8249 325.121 56.349 324.41 56.7227C323.699 57.0964 322.879 57.2832 321.949 57.2832C321.029 57.2832 320.222 57.1146 319.529 56.7773C318.846 56.431 318.267 55.9434 317.793 55.3145C317.319 54.6855 316.936 53.9473 316.645 53.0996C316.362 52.2428 316.161 51.304 316.043 50.2832V49.1758C316.161 48.0911 316.362 47.1068 316.645 46.2227C316.936 45.3385 317.319 44.5775 317.793 43.9395C318.267 43.3014 318.846 42.8092 319.529 42.4629C320.213 42.1165 321.01 41.9434 321.922 41.9434C322.852 41.9434 323.676 42.1257 324.396 42.4902C325.117 42.8457 325.723 43.3561 326.215 44.0215C326.707 44.6777 327.076 45.4707 327.322 46.4004C327.568 47.321 327.691 48.3464 327.691 49.4766ZM324.396 49.7637V49.4766C324.396 48.793 324.333 48.1595 324.205 47.5762C324.077 46.9837 323.877 46.4642 323.604 46.0176C323.33 45.571 322.979 45.2246 322.551 44.9785C322.132 44.7233 321.626 44.5957 321.033 44.5957C320.45 44.5957 319.949 44.696 319.529 44.8965C319.11 45.0879 318.759 45.3568 318.477 45.7031C318.194 46.0495 317.975 46.4551 317.82 46.9199C317.665 47.3757 317.556 47.8724 317.492 48.4102V51.0625C317.602 51.7188 317.788 52.3203 318.053 52.8672C318.317 53.4141 318.691 53.8516 319.174 54.1797C319.666 54.4987 320.295 54.6582 321.061 54.6582C321.653 54.6582 322.159 54.5306 322.578 54.2754C322.997 54.0202 323.339 53.6693 323.604 53.2227C323.877 52.7669 324.077 52.2428 324.205 51.6504C324.333 51.0579 324.396 50.429 324.396 49.7637ZM333.803 45.0605V62.6973H330.508V42.2168H333.543L333.803 45.0605ZM343.441 49.4766V49.7637C343.441 50.8392 343.314 51.8372 343.059 52.7578C342.812 53.6693 342.443 54.4668 341.951 55.1504C341.468 55.8249 340.871 56.349 340.16 56.7227C339.449 57.0964 338.629 57.2832 337.699 57.2832C336.779 57.2832 335.972 57.1146 335.279 56.7773C334.596 56.431 334.017 55.9434 333.543 55.3145C333.069 54.6855 332.686 53.9473 332.395 53.0996C332.112 52.2428 331.911 51.304 331.793 50.2832V49.1758C331.911 48.0911 332.112 47.1068 332.395 46.2227C332.686 45.3385 333.069 44.5775 333.543 43.9395C334.017 43.3014 334.596 42.8092 335.279 42.4629C335.963 42.1165 336.76 41.9434 337.672 41.9434C338.602 41.9434 339.426 42.1257 340.146 42.4902C340.867 42.8457 341.473 43.3561 341.965 44.0215C342.457 44.6777 342.826 45.4707 343.072 46.4004C343.318 47.321 343.441 48.3464 343.441 49.4766ZM340.146 49.7637V49.4766C340.146 48.793 340.083 48.1595 339.955 47.5762C339.827 46.9837 339.627 46.4642 339.354 46.0176C339.08 45.571 338.729 45.2246 338.301 44.9785C337.882 44.7233 337.376 44.5957 336.783 44.5957C336.2 44.5957 335.699 44.696 335.279 44.8965C334.86 45.0879 334.509 45.3568 334.227 45.7031C333.944 46.0495 333.725 46.4551 333.57 46.9199C333.415 47.3757 333.306 47.8724 333.242 48.4102V51.0625C333.352 51.7188 333.538 52.3203 333.803 52.8672C334.067 53.4141 334.441 53.8516 334.924 54.1797C335.416 54.4987 336.045 54.6582 336.811 54.6582C337.403 54.6582 337.909 54.5306 338.328 54.2754C338.747 54.0202 339.089 53.6693 339.354 53.2227C339.627 52.7669 339.827 52.2428 339.955 51.6504C340.083 51.0579 340.146 50.429 340.146 49.7637ZM352.588 49.7773V49.4629C352.588 48.3965 352.743 47.4076 353.053 46.4961C353.363 45.5755 353.809 44.778 354.393 44.1035C354.985 43.4199 355.705 42.8913 356.553 42.5176C357.41 42.1348 358.376 41.9434 359.451 41.9434C360.536 41.9434 361.502 42.1348 362.35 42.5176C363.206 42.8913 363.931 43.4199 364.523 44.1035C365.116 44.778 365.567 45.5755 365.877 46.4961C366.187 47.4076 366.342 48.3965 366.342 49.4629V49.7773C366.342 50.8438 366.187 51.8327 365.877 52.7441C365.567 53.6556 365.116 54.4531 364.523 55.1367C363.931 55.8112 363.211 56.3398 362.363 56.7227C361.516 57.0964 360.554 57.2832 359.479 57.2832C358.394 57.2832 357.423 57.0964 356.566 56.7227C355.719 56.3398 354.999 55.8112 354.406 55.1367C353.814 54.4531 353.363 53.6556 353.053 52.7441C352.743 51.8327 352.588 50.8438 352.588 49.7773ZM355.883 49.4629V49.7773C355.883 50.4427 355.951 51.0716 356.088 51.6641C356.225 52.2565 356.439 52.776 356.73 53.2227C357.022 53.6693 357.396 54.0202 357.852 54.2754C358.307 54.5306 358.85 54.6582 359.479 54.6582C360.089 54.6582 360.618 54.5306 361.064 54.2754C361.52 54.0202 361.894 53.6693 362.186 53.2227C362.477 52.776 362.691 52.2565 362.828 51.6641C362.974 51.0716 363.047 50.4427 363.047 49.7773V49.4629C363.047 48.8066 362.974 48.1868 362.828 47.6035C362.691 47.0111 362.473 46.487 362.172 46.0312C361.88 45.5755 361.507 45.2201 361.051 44.9648C360.604 44.7005 360.071 44.5684 359.451 44.5684C358.831 44.5684 358.294 44.7005 357.838 44.9648C357.391 45.2201 357.022 45.5755 356.73 46.0312C356.439 46.487 356.225 47.0111 356.088 47.6035C355.951 48.1868 355.883 48.8066 355.883 49.4629ZM372.371 45.375V57.0098H369.076V42.2168H372.18L372.371 45.375ZM371.783 49.0664L370.717 49.0527C370.726 48.0046 370.872 47.043 371.154 46.168C371.446 45.293 371.847 44.541 372.357 43.9121C372.877 43.2832 373.497 42.8001 374.217 42.4629C374.937 42.1165 375.739 41.9434 376.623 41.9434C377.334 41.9434 377.977 42.0436 378.551 42.2441C379.134 42.4355 379.631 42.75 380.041 43.1875C380.46 43.625 380.779 44.1947 380.998 44.8965C381.217 45.5892 381.326 46.4414 381.326 47.4531V57.0098H378.018V47.4395C378.018 46.7285 377.913 46.168 377.703 45.7578C377.503 45.3385 377.206 45.0423 376.814 44.8691C376.432 44.6868 375.953 44.5957 375.379 44.5957C374.814 44.5957 374.308 44.7142 373.861 44.9512C373.415 45.1882 373.036 45.5117 372.727 45.9219C372.426 46.332 372.193 46.806 372.029 47.3438C371.865 47.8815 371.783 48.4557 371.783 49.0664ZM395.955 55.3965L399.975 42.2168H403.502L397.568 59.2656C397.432 59.6302 397.254 60.0267 397.035 60.4551C396.816 60.8835 396.529 61.2891 396.174 61.6719C395.827 62.0638 395.395 62.3783 394.875 62.6152C394.355 62.8613 393.727 62.9844 392.988 62.9844C392.697 62.9844 392.414 62.957 392.141 62.9023C391.876 62.8568 391.626 62.8066 391.389 62.752L391.375 60.2363C391.466 60.2454 391.576 60.2546 391.703 60.2637C391.84 60.2728 391.949 60.2773 392.031 60.2773C392.578 60.2773 393.034 60.209 393.398 60.0723C393.763 59.9447 394.059 59.735 394.287 59.4434C394.524 59.1517 394.725 58.7598 394.889 58.2676L395.955 55.3965ZM393.686 42.2168L397.199 53.291L397.787 56.7637L395.504 57.3516L390.131 42.2168H393.686ZM404.541 49.7773V49.4629C404.541 48.3965 404.696 47.4076 405.006 46.4961C405.316 45.5755 405.762 44.778 406.346 44.1035C406.938 43.4199 407.658 42.8913 408.506 42.5176C409.363 42.1348 410.329 41.9434 411.404 41.9434C412.489 41.9434 413.455 42.1348 414.303 42.5176C415.16 42.8913 415.884 43.4199 416.477 44.1035C417.069 44.778 417.52 45.5755 417.83 46.4961C418.14 47.4076 418.295 48.3965 418.295 49.4629V49.7773C418.295 50.8438 418.14 51.8327 417.83 52.7441C417.52 53.6556 417.069 54.4531 416.477 55.1367C415.884 55.8112 415.164 56.3398 414.316 56.7227C413.469 57.0964 412.507 57.2832 411.432 57.2832C410.347 57.2832 409.376 57.0964 408.52 56.7227C407.672 56.3398 406.952 55.8112 406.359 55.1367C405.767 54.4531 405.316 53.6556 405.006 52.7441C404.696 51.8327 404.541 50.8438 404.541 49.7773ZM407.836 49.4629V49.7773C407.836 50.4427 407.904 51.0716 408.041 51.6641C408.178 52.2565 408.392 52.776 408.684 53.2227C408.975 53.6693 409.349 54.0202 409.805 54.2754C410.26 54.5306 410.803 54.6582 411.432 54.6582C412.042 54.6582 412.571 54.5306 413.018 54.2754C413.473 54.0202 413.847 53.6693 414.139 53.2227C414.43 52.776 414.645 52.2565 414.781 51.6641C414.927 51.0716 415 50.4427 415 49.7773V49.4629C415 48.8066 414.927 48.1868 414.781 47.6035C414.645 47.0111 414.426 46.487 414.125 46.0312C413.833 45.5755 413.46 45.2201 413.004 44.9648C412.557 44.7005 412.024 44.5684 411.404 44.5684C410.785 44.5684 410.247 44.7005 409.791 44.9648C409.344 45.2201 408.975 45.5755 408.684 46.0312C408.392 46.487 408.178 47.0111 408.041 47.6035C407.904 48.1868 407.836 48.8066 407.836 49.4629ZM429.957 53.5234V42.2168H433.266V57.0098H430.148L429.957 53.5234ZM430.422 50.4473L431.529 50.4199C431.529 51.4134 431.42 52.3294 431.201 53.168C430.982 53.9974 430.645 54.722 430.189 55.3418C429.734 55.9525 429.15 56.431 428.439 56.7773C427.729 57.1146 426.876 57.2832 425.883 57.2832C425.163 57.2832 424.502 57.1784 423.9 56.9688C423.299 56.7591 422.779 56.4355 422.342 55.998C421.913 55.5605 421.581 54.9909 421.344 54.2891C421.107 53.5872 420.988 52.7487 420.988 51.7734V42.2168H424.283V51.8008C424.283 52.3385 424.347 52.7897 424.475 53.1543C424.602 53.5098 424.775 53.7969 424.994 54.0156C425.213 54.2344 425.468 54.3893 425.76 54.4805C426.051 54.5716 426.361 54.6172 426.689 54.6172C427.628 54.6172 428.367 54.4349 428.904 54.0703C429.451 53.6966 429.839 53.1953 430.066 52.5664C430.303 51.9375 430.422 51.2311 430.422 50.4473ZM439.951 45.0332V57.0098H436.656V42.2168H439.801L439.951 45.0332ZM444.477 42.1211L444.449 45.1836C444.249 45.1471 444.03 45.1198 443.793 45.1016C443.565 45.0833 443.337 45.0742 443.109 45.0742C442.544 45.0742 442.048 45.1562 441.619 45.3203C441.191 45.4753 440.831 45.7031 440.539 46.0039C440.257 46.2956 440.038 46.651 439.883 47.0703C439.728 47.4896 439.637 47.959 439.609 48.4785L438.857 48.5332C438.857 47.6035 438.949 46.7422 439.131 45.9492C439.313 45.1562 439.587 44.459 439.951 43.8574C440.325 43.2559 440.79 42.7865 441.346 42.4492C441.911 42.112 442.562 41.9434 443.301 41.9434C443.501 41.9434 443.715 41.9616 443.943 41.998C444.18 42.0345 444.358 42.0755 444.477 42.1211ZM453.527 36.0098H456.822V53.8516L456.508 57.0098H453.527V36.0098ZM466.475 49.4766V49.7637C466.475 50.8574 466.352 51.8646 466.105 52.7852C465.868 53.6966 465.504 54.4896 465.012 55.1641C464.529 55.8385 463.927 56.3626 463.207 56.7363C462.496 57.1009 461.671 57.2832 460.732 57.2832C459.812 57.2832 459.01 57.11 458.326 56.7637C457.643 56.4173 457.068 55.9251 456.604 55.2871C456.148 54.6491 455.779 53.888 455.496 53.0039C455.214 52.1198 455.013 51.1445 454.895 50.0781V49.1621C455.013 48.0866 455.214 47.1113 455.496 46.2363C455.779 45.3522 456.148 44.5911 456.604 43.9531C457.068 43.306 457.638 42.8092 458.312 42.4629C458.996 42.1165 459.794 41.9434 460.705 41.9434C461.653 41.9434 462.487 42.1257 463.207 42.4902C463.936 42.8548 464.542 43.3743 465.025 44.0488C465.508 44.7142 465.868 45.5072 466.105 46.4277C466.352 47.3483 466.475 48.3646 466.475 49.4766ZM463.18 49.7637V49.4766C463.18 48.8112 463.125 48.1868 463.016 47.6035C462.906 47.0111 462.724 46.4915 462.469 46.0449C462.223 45.5983 461.885 45.2474 461.457 44.9922C461.038 44.7279 460.514 44.5957 459.885 44.5957C459.301 44.5957 458.8 44.696 458.381 44.8965C457.962 45.097 457.611 45.3704 457.328 45.7168C457.046 46.0632 456.822 46.4642 456.658 46.9199C456.503 47.3757 456.398 47.8678 456.344 48.3965V50.8711C456.426 51.5547 456.599 52.1836 456.863 52.7578C457.137 53.3229 457.52 53.7786 458.012 54.125C458.504 54.4622 459.137 54.6309 459.912 54.6309C460.523 54.6309 461.038 54.5078 461.457 54.2617C461.876 54.0156 462.209 53.6738 462.455 53.2363C462.71 52.7897 462.893 52.2702 463.002 51.6777C463.12 51.0853 463.18 50.4473 463.18 49.7637ZM472.572 45.0332V57.0098H469.277V42.2168H472.422L472.572 45.0332ZM477.098 42.1211L477.07 45.1836C476.87 45.1471 476.651 45.1198 476.414 45.1016C476.186 45.0833 475.958 45.0742 475.73 45.0742C475.165 45.0742 474.669 45.1562 474.24 45.3203C473.812 45.4753 473.452 45.7031 473.16 46.0039C472.878 46.2956 472.659 46.651 472.504 47.0703C472.349 47.4896 472.258 47.959 472.23 48.4785L471.479 48.5332C471.479 47.6035 471.57 46.7422 471.752 45.9492C471.934 45.1562 472.208 44.459 472.572 43.8574C472.946 43.2559 473.411 42.7865 473.967 42.4492C474.532 42.112 475.184 41.9434 475.922 41.9434C476.122 41.9434 476.337 41.9616 476.564 41.998C476.801 42.0345 476.979 42.0755 477.098 42.1211ZM478.178 49.7773V49.4629C478.178 48.3965 478.333 47.4076 478.643 46.4961C478.952 45.5755 479.399 44.778 479.982 44.1035C480.575 43.4199 481.295 42.8913 482.143 42.5176C482.999 42.1348 483.965 41.9434 485.041 41.9434C486.126 41.9434 487.092 42.1348 487.939 42.5176C488.796 42.8913 489.521 43.4199 490.113 44.1035C490.706 44.778 491.157 45.5755 491.467 46.4961C491.777 47.4076 491.932 48.3965 491.932 49.4629V49.7773C491.932 50.8438 491.777 51.8327 491.467 52.7441C491.157 53.6556 490.706 54.4531 490.113 55.1367C489.521 55.8112 488.801 56.3398 487.953 56.7227C487.105 57.0964 486.144 57.2832 485.068 57.2832C483.984 57.2832 483.013 57.0964 482.156 56.7227C481.309 56.3398 480.589 55.8112 479.996 55.1367C479.404 54.4531 478.952 53.6556 478.643 52.7441C478.333 51.8327 478.178 50.8438 478.178 49.7773ZM481.473 49.4629V49.7773C481.473 50.4427 481.541 51.0716 481.678 51.6641C481.814 52.2565 482.029 52.776 482.32 53.2227C482.612 53.6693 482.986 54.0202 483.441 54.2754C483.897 54.5306 484.439 54.6582 485.068 54.6582C485.679 54.6582 486.208 54.5306 486.654 54.2754C487.11 54.0202 487.484 53.6693 487.775 53.2227C488.067 52.776 488.281 52.2565 488.418 51.6641C488.564 51.0716 488.637 50.4427 488.637 49.7773V49.4629C488.637 48.8066 488.564 48.1868 488.418 47.6035C488.281 47.0111 488.062 46.487 487.762 46.0312C487.47 45.5755 487.096 45.2201 486.641 44.9648C486.194 44.7005 485.661 44.5684 485.041 44.5684C484.421 44.5684 483.883 44.7005 483.428 44.9648C482.981 45.2201 482.612 45.5755 482.32 46.0312C482.029 46.487 481.814 47.0111 481.678 47.6035C481.541 48.1868 481.473 48.8066 481.473 49.4629ZM498.713 53.7285L502.131 42.2168H504.236L503.662 45.6621L500.217 57.0098H498.33L498.713 53.7285ZM496.703 42.2168L499.369 53.7832L499.588 57.0098H497.482L493.477 42.2168H496.703ZM507.436 53.6465L510.02 42.2168H513.232L509.24 57.0098H507.135L507.436 53.6465ZM504.592 42.2168L507.969 53.5918L508.393 57.0098H506.506L503.02 45.6484L502.445 42.2168H504.592ZM523.773 53.0039C523.773 52.6758 523.691 52.3796 523.527 52.1152C523.363 51.8418 523.049 51.5957 522.584 51.377C522.128 51.1582 521.454 50.9577 520.561 50.7754C519.777 50.6022 519.057 50.3971 518.4 50.1602C517.753 49.9141 517.197 49.6178 516.732 49.2715C516.268 48.9251 515.908 48.515 515.652 48.041C515.397 47.5671 515.27 47.0202 515.27 46.4004C515.27 45.7988 515.402 45.2292 515.666 44.6914C515.93 44.1536 516.309 43.6797 516.801 43.2695C517.293 42.8594 517.89 42.5358 518.592 42.2988C519.303 42.0618 520.096 41.9434 520.971 41.9434C522.21 41.9434 523.272 42.153 524.156 42.5723C525.049 42.9824 525.733 43.543 526.207 44.2539C526.681 44.9557 526.918 45.7487 526.918 46.6328H523.623C523.623 46.2409 523.523 45.8763 523.322 45.5391C523.131 45.1927 522.839 44.9147 522.447 44.7051C522.055 44.4863 521.563 44.377 520.971 44.377C520.406 44.377 519.936 44.4681 519.562 44.6504C519.198 44.8236 518.924 45.0514 518.742 45.334C518.569 45.6165 518.482 45.9264 518.482 46.2637C518.482 46.5098 518.528 46.7331 518.619 46.9336C518.719 47.125 518.883 47.3027 519.111 47.4668C519.339 47.6217 519.649 47.7676 520.041 47.9043C520.442 48.041 520.943 48.1732 521.545 48.3008C522.675 48.5378 523.646 48.8431 524.457 49.2168C525.277 49.5814 525.906 50.0553 526.344 50.6387C526.781 51.2129 527 51.9421 527 52.8262C527 53.4824 526.859 54.084 526.576 54.6309C526.303 55.1686 525.902 55.638 525.373 56.0391C524.844 56.431 524.211 56.7363 523.473 56.9551C522.743 57.1738 521.923 57.2832 521.012 57.2832C519.672 57.2832 518.537 57.0462 517.607 56.5723C516.678 56.0892 515.971 55.474 515.488 54.7266C515.014 53.9701 514.777 53.1862 514.777 52.375H517.963C517.999 52.9857 518.168 53.4733 518.469 53.8379C518.779 54.1934 519.161 54.4531 519.617 54.6172C520.082 54.7721 520.561 54.8496 521.053 54.8496C521.645 54.8496 522.142 54.7721 522.543 54.6172C522.944 54.4531 523.249 54.2344 523.459 53.9609C523.669 53.6784 523.773 53.3594 523.773 53.0039ZM536.406 57.2832C535.312 57.2832 534.324 57.1055 533.439 56.75C532.564 56.3854 531.817 55.8796 531.197 55.2324C530.587 54.5853 530.117 53.8242 529.789 52.9492C529.461 52.0742 529.297 51.1309 529.297 50.1191V49.5723C529.297 48.4147 529.465 47.3665 529.803 46.4277C530.14 45.4889 530.609 44.6868 531.211 44.0215C531.812 43.347 532.523 42.832 533.344 42.4766C534.164 42.1211 535.053 41.9434 536.01 41.9434C537.067 41.9434 537.992 42.1211 538.785 42.4766C539.578 42.832 540.234 43.3333 540.754 43.9805C541.283 44.6185 541.674 45.3796 541.93 46.2637C542.194 47.1478 542.326 48.123 542.326 49.1895V50.5977H530.896V48.2324H539.072V47.9727C539.054 47.3802 538.936 46.8242 538.717 46.3047C538.507 45.7852 538.184 45.3659 537.746 45.0469C537.309 44.7279 536.725 44.5684 535.996 44.5684C535.449 44.5684 534.962 44.6868 534.533 44.9238C534.114 45.1517 533.763 45.4844 533.48 45.9219C533.198 46.3594 532.979 46.888 532.824 47.5078C532.678 48.1185 532.605 48.8066 532.605 49.5723V50.1191C532.605 50.7663 532.692 51.3678 532.865 51.9238C533.048 52.4707 533.312 52.9492 533.658 53.3594C534.005 53.7695 534.424 54.0931 534.916 54.3301C535.408 54.5579 535.969 54.6719 536.598 54.6719C537.391 54.6719 538.097 54.5124 538.717 54.1934C539.337 53.8743 539.874 53.4232 540.33 52.8398L542.066 54.5215C541.747 54.9863 541.333 55.4329 540.822 55.8613C540.312 56.2806 539.688 56.6224 538.949 56.8867C538.22 57.151 537.372 57.2832 536.406 57.2832Z" fill="#232F4A"/>
<path d="M157.777 37.1035V57.0098H154.346V37.1035H157.777ZM165.898 45.8125V48.5332H156.902V45.8125H165.898ZM167.033 37.1035V39.8379H156.902V37.1035H167.033ZM172.393 45.0332V57.0098H169.098V42.2168H172.242L172.393 45.0332ZM176.918 42.1211L176.891 45.1836C176.69 45.1471 176.471 45.1198 176.234 45.1016C176.007 45.0833 175.779 45.0742 175.551 45.0742C174.986 45.0742 174.489 45.1562 174.061 45.3203C173.632 45.4753 173.272 45.7031 172.98 46.0039C172.698 46.2956 172.479 46.651 172.324 47.0703C172.169 47.4896 172.078 47.959 172.051 48.4785L171.299 48.5332C171.299 47.6035 171.39 46.7422 171.572 45.9492C171.755 45.1562 172.028 44.459 172.393 43.8574C172.766 43.2559 173.231 42.7865 173.787 42.4492C174.352 42.112 175.004 41.9434 175.742 41.9434C175.943 41.9434 176.157 41.9616 176.385 41.998C176.622 42.0345 176.799 42.0755 176.918 42.1211ZM185.23 57.2832C184.137 57.2832 183.148 57.1055 182.264 56.75C181.389 56.3854 180.641 55.8796 180.021 55.2324C179.411 54.5853 178.941 53.8242 178.613 52.9492C178.285 52.0742 178.121 51.1309 178.121 50.1191V49.5723C178.121 48.4147 178.29 47.3665 178.627 46.4277C178.964 45.4889 179.434 44.6868 180.035 44.0215C180.637 43.347 181.348 42.832 182.168 42.4766C182.988 42.1211 183.877 41.9434 184.834 41.9434C185.891 41.9434 186.816 42.1211 187.609 42.4766C188.402 42.832 189.059 43.3333 189.578 43.9805C190.107 44.6185 190.499 45.3796 190.754 46.2637C191.018 47.1478 191.15 48.123 191.15 49.1895V50.5977H179.721V48.2324H187.896V47.9727C187.878 47.3802 187.76 46.8242 187.541 46.3047C187.331 45.7852 187.008 45.3659 186.57 45.0469C186.133 44.7279 185.549 44.5684 184.82 44.5684C184.273 44.5684 183.786 44.6868 183.357 44.9238C182.938 45.1517 182.587 45.4844 182.305 45.9219C182.022 46.3594 181.803 46.888 181.648 47.5078C181.503 48.1185 181.43 48.8066 181.43 49.5723V50.1191C181.43 50.7663 181.516 51.3678 181.689 51.9238C181.872 52.4707 182.136 52.9492 182.482 53.3594C182.829 53.7695 183.248 54.0931 183.74 54.3301C184.232 54.5579 184.793 54.6719 185.422 54.6719C186.215 54.6719 186.921 54.5124 187.541 54.1934C188.161 53.8743 188.699 53.4232 189.154 52.8398L190.891 54.5215C190.572 54.9863 190.157 55.4329 189.646 55.8613C189.136 56.2806 188.512 56.6224 187.773 56.8867C187.044 57.151 186.197 57.2832 185.23 57.2832ZM200.242 57.2832C199.148 57.2832 198.16 57.1055 197.275 56.75C196.4 56.3854 195.653 55.8796 195.033 55.2324C194.423 54.5853 193.953 53.8242 193.625 52.9492C193.297 52.0742 193.133 51.1309 193.133 50.1191V49.5723C193.133 48.4147 193.301 47.3665 193.639 46.4277C193.976 45.4889 194.445 44.6868 195.047 44.0215C195.648 43.347 196.359 42.832 197.18 42.4766C198 42.1211 198.889 41.9434 199.846 41.9434C200.903 41.9434 201.828 42.1211 202.621 42.4766C203.414 42.832 204.07 43.3333 204.59 43.9805C205.118 44.6185 205.51 45.3796 205.766 46.2637C206.03 47.1478 206.162 48.123 206.162 49.1895V50.5977H194.732V48.2324H202.908V47.9727C202.89 47.3802 202.771 46.8242 202.553 46.3047C202.343 45.7852 202.02 45.3659 201.582 45.0469C201.145 44.7279 200.561 44.5684 199.832 44.5684C199.285 44.5684 198.798 44.6868 198.369 44.9238C197.95 45.1517 197.599 45.4844 197.316 45.9219C197.034 46.3594 196.815 46.888 196.66 47.5078C196.514 48.1185 196.441 48.8066 196.441 49.5723V50.1191C196.441 50.7663 196.528 51.3678 196.701 51.9238C196.883 52.4707 197.148 52.9492 197.494 53.3594C197.84 53.7695 198.26 54.0931 198.752 54.3301C199.244 54.5579 199.805 54.6719 200.434 54.6719C201.227 54.6719 201.933 54.5124 202.553 54.1934C203.173 53.8743 203.71 53.4232 204.166 52.8398L205.902 54.5215C205.583 54.9863 205.169 55.4329 204.658 55.8613C204.148 56.2806 203.523 56.6224 202.785 56.8867C202.056 57.151 201.208 57.2832 200.242 57.2832ZM214.844 57.0098H210.592L210.619 54.2891H214.844C216.074 54.2891 217.104 54.0202 217.934 53.4824C218.772 52.9447 219.401 52.1745 219.82 51.1719C220.249 50.1693 220.463 48.9753 220.463 47.5898V46.5098C220.463 45.4342 220.34 44.4818 220.094 43.6523C219.857 42.8229 219.501 42.1257 219.027 41.5605C218.562 40.9954 217.988 40.5671 217.305 40.2754C216.63 39.9837 215.851 39.8379 214.967 39.8379H210.51V37.1035H214.967C216.288 37.1035 217.496 37.3268 218.59 37.7734C219.684 38.2109 220.627 38.8444 221.42 39.6738C222.222 40.5033 222.837 41.4967 223.266 42.6543C223.694 43.8118 223.908 45.1061 223.908 46.5371V47.5898C223.908 49.0208 223.694 50.3151 223.266 51.4727C222.837 52.6302 222.222 53.6237 221.42 54.4531C220.618 55.2734 219.661 55.9069 218.549 56.3535C217.446 56.791 216.211 57.0098 214.844 57.0098ZM212.492 37.1035V57.0098H209.061V37.1035H212.492ZM230.553 42.2168V57.0098H227.244V42.2168H230.553ZM227.025 38.334C227.025 37.8327 227.189 37.418 227.518 37.0898C227.855 36.7526 228.32 36.584 228.912 36.584C229.495 36.584 229.956 36.7526 230.293 37.0898C230.63 37.418 230.799 37.8327 230.799 38.334C230.799 38.8262 230.63 39.2363 230.293 39.5645C229.956 39.8926 229.495 40.0566 228.912 40.0566C228.32 40.0566 227.855 39.8926 227.518 39.5645C227.189 39.2363 227.025 38.8262 227.025 38.334Z" fill="#5F88E5"/>
</svg>
