<svg width="340" height="122" viewBox="0 0 340 122" fill="none" xmlns="http://www.w3.org/2000/svg">
<path d="M0 4C0 1.79086 1.79086 0 4 0H336C338.209 0 340 1.79086 340 4V118C340 120.209 338.209 122 336 122H4C1.79086 122 0 120.209 0 118V4Z" fill="#739EE4"/>
<path d="M22.9043 23.7812V38H21.0488V23.7812H22.9043ZM27.4746 23.7812V25.3242H16.4883V23.7812H27.4746ZM27.8555 32.834V32.6094C27.8555 31.8477 27.9661 31.1413 28.1875 30.4902C28.4089 29.8327 28.7279 29.263 29.1445 28.7812C29.5612 28.293 30.0658 27.9154 30.6582 27.6484C31.2507 27.375 31.9147 27.2383 32.6504 27.2383C33.3926 27.2383 34.0599 27.375 34.6523 27.6484C35.2513 27.9154 35.7591 28.293 36.1758 28.7812C36.599 29.263 36.9212 29.8327 37.1426 30.4902C37.3639 31.1413 37.4746 31.8477 37.4746 32.6094V32.834C37.4746 33.5957 37.3639 34.3021 37.1426 34.9531C36.9212 35.6042 36.599 36.1738 36.1758 36.6621C35.7591 37.1439 35.2546 37.5215 34.6621 37.7949C34.0762 38.0618 33.4121 38.1953 32.6699 38.1953C31.9277 38.1953 31.2604 38.0618 30.668 37.7949C30.0755 37.5215 29.5677 37.1439 29.1445 36.6621C28.7279 36.1738 28.4089 35.6042 28.1875 34.9531C27.9661 34.3021 27.8555 33.5957 27.8555 32.834ZM29.6621 32.6094V32.834C29.6621 33.3613 29.724 33.8594 29.8477 34.3281C29.9714 34.7904 30.1569 35.2005 30.4043 35.5586C30.6582 35.9167 30.974 36.1999 31.3516 36.4082C31.7292 36.61 32.1686 36.7109 32.6699 36.7109C33.1647 36.7109 33.5977 36.61 33.9688 36.4082C34.3464 36.1999 34.6589 35.9167 34.9062 35.5586C35.1536 35.2005 35.3392 34.7904 35.4629 34.3281C35.5931 33.8594 35.6582 33.3613 35.6582 32.834V32.6094C35.6582 32.0885 35.5931 31.597 35.4629 31.1348C35.3392 30.666 35.1504 30.2526 34.8965 29.8945C34.6491 29.5299 34.3366 29.2435 33.959 29.0352C33.5879 28.8268 33.1517 28.7227 32.6504 28.7227C32.1556 28.7227 31.7194 28.8268 31.3418 29.0352C30.9707 29.2435 30.6582 29.5299 30.4043 29.8945C30.1569 30.2526 29.9714 30.666 29.8477 31.1348C29.724 31.597 29.6621 32.0885 29.6621 32.6094ZM46.5078 29.0938V38H44.7012V27.4336H46.459L46.5078 29.0938ZM49.8086 27.375L49.7988 29.0547C49.6491 29.0221 49.5059 29.0026 49.3691 28.9961C49.2389 28.9831 49.0892 28.9766 48.9199 28.9766C48.5033 28.9766 48.1354 29.0417 47.8164 29.1719C47.4974 29.3021 47.2272 29.4844 47.0059 29.7188C46.7845 29.9531 46.6087 30.2331 46.4785 30.5586C46.3548 30.8776 46.2734 31.2292 46.2344 31.6133L45.7266 31.9062C45.7266 31.2682 45.7884 30.6693 45.9121 30.1094C46.0423 29.5495 46.2409 29.0547 46.5078 28.625C46.7747 28.1888 47.1133 27.8503 47.5234 27.6094C47.9401 27.362 48.4349 27.2383 49.0078 27.2383C49.138 27.2383 49.2878 27.2546 49.457 27.2871C49.6263 27.3132 49.7435 27.3424 49.8086 27.375ZM55.668 38.1953C54.9323 38.1953 54.265 38.0716 53.666 37.8242C53.0736 37.5703 52.5625 37.2155 52.1328 36.7598C51.7096 36.304 51.3841 35.7637 51.1562 35.1387C50.9284 34.5137 50.8145 33.8301 50.8145 33.0879V32.6777C50.8145 31.8184 50.9414 31.0534 51.1953 30.3828C51.4492 29.7057 51.7943 29.1328 52.2305 28.6641C52.6667 28.1953 53.1615 27.8405 53.7148 27.5996C54.2682 27.3587 54.8411 27.2383 55.4336 27.2383C56.1888 27.2383 56.8398 27.3685 57.3867 27.6289C57.9401 27.8893 58.3926 28.2539 58.7441 28.7227C59.0957 29.1849 59.3561 29.7318 59.5254 30.3633C59.6947 30.9883 59.7793 31.6719 59.7793 32.4141V33.2246H51.8887V31.75H57.9727V31.6133C57.9466 31.1445 57.849 30.6888 57.6797 30.2461C57.5169 29.8034 57.2565 29.4388 56.8984 29.1523C56.5404 28.8659 56.0521 28.7227 55.4336 28.7227C55.0234 28.7227 54.6458 28.8105 54.3008 28.9863C53.9557 29.1556 53.6595 29.4095 53.4121 29.748C53.1647 30.0866 52.9727 30.5 52.8359 30.9883C52.6992 31.4766 52.6309 32.0397 52.6309 32.6777V33.0879C52.6309 33.5892 52.6992 34.0612 52.8359 34.5039C52.9792 34.9401 53.1842 35.3242 53.4512 35.6562C53.7246 35.9883 54.0534 36.2487 54.4375 36.4375C54.8281 36.6263 55.2708 36.7207 55.7656 36.7207C56.4036 36.7207 56.944 36.5905 57.3867 36.3301C57.8294 36.0697 58.2168 35.7214 58.5488 35.2852L59.6426 36.1543C59.4147 36.4993 59.125 36.8281 58.7734 37.1406C58.4219 37.4531 57.9889 37.707 57.4746 37.9023C56.9668 38.0977 56.3646 38.1953 55.668 38.1953ZM66.1172 36.7109C66.5469 36.7109 66.944 36.623 67.3086 36.4473C67.6732 36.2715 67.9727 36.0306 68.207 35.7246C68.4414 35.4121 68.5749 35.0573 68.6074 34.6602H70.3262C70.2936 35.2852 70.082 35.8678 69.6914 36.4082C69.3073 36.9421 68.8027 37.375 68.1777 37.707C67.5527 38.0326 66.8659 38.1953 66.1172 38.1953C65.3229 38.1953 64.6296 38.0553 64.0371 37.7754C63.4512 37.4954 62.9629 37.1113 62.5723 36.623C62.1882 36.1348 61.8984 35.5749 61.7031 34.9434C61.5143 34.3053 61.4199 33.6315 61.4199 32.9219V32.5117C61.4199 31.8021 61.5143 31.1315 61.7031 30.5C61.8984 29.862 62.1882 29.2988 62.5723 28.8105C62.9629 28.3223 63.4512 27.9382 64.0371 27.6582C64.6296 27.3783 65.3229 27.2383 66.1172 27.2383C66.944 27.2383 67.6667 27.4076 68.2852 27.7461C68.9036 28.0781 69.3887 28.5339 69.7402 29.1133C70.0983 29.6862 70.2936 30.3372 70.3262 31.0664H68.6074C68.5749 30.6302 68.4512 30.2363 68.2363 29.8848C68.028 29.5332 67.7415 29.2533 67.377 29.0449C67.0189 28.8301 66.599 28.7227 66.1172 28.7227C65.5638 28.7227 65.0983 28.8333 64.7207 29.0547C64.3496 29.2695 64.0534 29.5625 63.832 29.9336C63.6172 30.2982 63.4609 30.7051 63.3633 31.1543C63.2721 31.597 63.2266 32.0495 63.2266 32.5117V32.9219C63.2266 33.3841 63.2721 33.8398 63.3633 34.2891C63.4544 34.7383 63.6074 35.1452 63.8223 35.5098C64.0436 35.8743 64.3398 36.1673 64.7109 36.3887C65.0885 36.6035 65.5573 36.7109 66.1172 36.7109ZM76.7422 38.1953C76.0065 38.1953 75.3392 38.0716 74.7402 37.8242C74.1478 37.5703 73.6367 37.2155 73.207 36.7598C72.7839 36.304 72.4583 35.7637 72.2305 35.1387C72.0026 34.5137 71.8887 33.8301 71.8887 33.0879V32.6777C71.8887 31.8184 72.0156 31.0534 72.2695 30.3828C72.5234 29.7057 72.8685 29.1328 73.3047 28.6641C73.7409 28.1953 74.2357 27.8405 74.7891 27.5996C75.3424 27.3587 75.9154 27.2383 76.5078 27.2383C77.263 27.2383 77.9141 27.3685 78.4609 27.6289C79.0143 27.8893 79.4668 28.2539 79.8184 28.7227C80.1699 29.1849 80.4303 29.7318 80.5996 30.3633C80.7689 30.9883 80.8535 31.6719 80.8535 32.4141V33.2246H72.9629V31.75H79.0469V31.6133C79.0208 31.1445 78.9232 30.6888 78.7539 30.2461C78.5911 29.8034 78.3307 29.4388 77.9727 29.1523C77.6146 28.8659 77.1263 28.7227 76.5078 28.7227C76.0977 28.7227 75.7201 28.8105 75.375 28.9863C75.0299 29.1556 74.7337 29.4095 74.4863 29.748C74.2389 30.0866 74.0469 30.5 73.9102 30.9883C73.7734 31.4766 73.7051 32.0397 73.7051 32.6777V33.0879C73.7051 33.5892 73.7734 34.0612 73.9102 34.5039C74.0534 34.9401 74.2585 35.3242 74.5254 35.6562C74.7988 35.9883 75.1276 36.2487 75.5117 36.4375C75.9023 36.6263 76.3451 36.7207 76.8398 36.7207C77.4779 36.7207 78.0182 36.5905 78.4609 36.3301C78.9036 36.0697 79.291 35.7214 79.623 35.2852L80.7168 36.1543C80.4889 36.4993 80.1992 36.8281 79.8477 37.1406C79.4961 37.4531 79.0632 37.707 78.5488 37.9023C78.041 38.0977 77.4388 38.1953 76.7422 38.1953ZM84.9258 27.4336V38H83.1094V27.4336H84.9258ZM82.9727 24.6309C82.9727 24.3379 83.0605 24.0905 83.2363 23.8887C83.4186 23.6868 83.6855 23.5859 84.0371 23.5859C84.3822 23.5859 84.6458 23.6868 84.8281 23.8887C85.0169 24.0905 85.1113 24.3379 85.1113 24.6309C85.1113 24.9108 85.0169 25.1517 84.8281 25.3535C84.6458 25.5488 84.3822 25.6465 84.0371 25.6465C83.6855 25.6465 83.4186 25.5488 83.2363 25.3535C83.0605 25.1517 82.9727 24.9108 82.9727 24.6309ZM91.0391 36.3691L93.9297 27.4336H95.7754L91.9766 38H90.7656L91.0391 36.3691ZM88.627 27.4336L91.6055 36.418L91.8105 38H90.5996L86.7715 27.4336H88.627ZM101.762 38.1953C101.026 38.1953 100.359 38.0716 99.7598 37.8242C99.1673 37.5703 98.6562 37.2155 98.2266 36.7598C97.8034 36.304 97.4779 35.7637 97.25 35.1387C97.0221 34.5137 96.9082 33.8301 96.9082 33.0879V32.6777C96.9082 31.8184 97.0352 31.0534 97.2891 30.3828C97.543 29.7057 97.888 29.1328 98.3242 28.6641C98.7604 28.1953 99.2552 27.8405 99.8086 27.5996C100.362 27.3587 100.935 27.2383 101.527 27.2383C102.283 27.2383 102.934 27.3685 103.48 27.6289C104.034 27.8893 104.486 28.2539 104.838 28.7227C105.189 29.1849 105.45 29.7318 105.619 30.3633C105.788 30.9883 105.873 31.6719 105.873 32.4141V33.2246H97.9824V31.75H104.066V31.6133C104.04 31.1445 103.943 30.6888 103.773 30.2461C103.611 29.8034 103.35 29.4388 102.992 29.1523C102.634 28.8659 102.146 28.7227 101.527 28.7227C101.117 28.7227 100.74 28.8105 100.395 28.9863C100.049 29.1556 99.7533 29.4095 99.5059 29.748C99.2585 30.0866 99.0664 30.5 98.9297 30.9883C98.793 31.4766 98.7246 32.0397 98.7246 32.6777V33.0879C98.7246 33.5892 98.793 34.0612 98.9297 34.5039C99.0729 34.9401 99.278 35.3242 99.5449 35.6562C99.8184 35.9883 100.147 36.2487 100.531 36.4375C100.922 36.6263 101.365 36.7207 101.859 36.7207C102.497 36.7207 103.038 36.5905 103.48 36.3301C103.923 36.0697 104.311 35.7214 104.643 35.2852L105.736 36.1543C105.508 36.4993 105.219 36.8281 104.867 37.1406C104.516 37.4531 104.083 37.707 103.568 37.9023C103.061 38.0977 102.458 38.1953 101.762 38.1953ZM114.75 29.6895V38H112.943V27.4336H114.652L114.75 29.6895ZM114.32 32.3164L113.568 32.2871C113.575 31.5645 113.682 30.8971 113.891 30.2852C114.099 29.6667 114.392 29.1296 114.77 28.6738C115.147 28.2181 115.596 27.8665 116.117 27.6191C116.645 27.3652 117.227 27.2383 117.865 27.2383C118.386 27.2383 118.855 27.3099 119.271 27.4531C119.688 27.5898 120.043 27.8112 120.336 28.1172C120.635 28.4232 120.863 28.8203 121.02 29.3086C121.176 29.7904 121.254 30.3796 121.254 31.0762V38H119.438V31.0566C119.438 30.5033 119.356 30.0605 119.193 29.7285C119.031 29.39 118.793 29.1458 118.48 28.9961C118.168 28.8398 117.784 28.7617 117.328 28.7617C116.879 28.7617 116.469 28.8561 116.098 29.0449C115.733 29.2337 115.417 29.4941 115.15 29.8262C114.89 30.1582 114.685 30.5391 114.535 30.9688C114.392 31.3919 114.32 31.8411 114.32 32.3164ZM123.52 32.834V32.6094C123.52 31.8477 123.63 31.1413 123.852 30.4902C124.073 29.8327 124.392 29.263 124.809 28.7812C125.225 28.293 125.73 27.9154 126.322 27.6484C126.915 27.375 127.579 27.2383 128.314 27.2383C129.057 27.2383 129.724 27.375 130.316 27.6484C130.915 27.9154 131.423 28.293 131.84 28.7812C132.263 29.263 132.585 29.8327 132.807 30.4902C133.028 31.1413 133.139 31.8477 133.139 32.6094V32.834C133.139 33.5957 133.028 34.3021 132.807 34.9531C132.585 35.6042 132.263 36.1738 131.84 36.6621C131.423 37.1439 130.919 37.5215 130.326 37.7949C129.74 38.0618 129.076 38.1953 128.334 38.1953C127.592 38.1953 126.924 38.0618 126.332 37.7949C125.74 37.5215 125.232 37.1439 124.809 36.6621C124.392 36.1738 124.073 35.6042 123.852 34.9531C123.63 34.3021 123.52 33.5957 123.52 32.834ZM125.326 32.6094V32.834C125.326 33.3613 125.388 33.8594 125.512 34.3281C125.635 34.7904 125.821 35.2005 126.068 35.5586C126.322 35.9167 126.638 36.1999 127.016 36.4082C127.393 36.61 127.833 36.7109 128.334 36.7109C128.829 36.7109 129.262 36.61 129.633 36.4082C130.01 36.1999 130.323 35.9167 130.57 35.5586C130.818 35.2005 131.003 34.7904 131.127 34.3281C131.257 33.8594 131.322 33.3613 131.322 32.834V32.6094C131.322 32.0885 131.257 31.597 131.127 31.1348C131.003 30.666 130.814 30.2526 130.561 29.8945C130.313 29.5299 130.001 29.2435 129.623 29.0352C129.252 28.8268 128.816 28.7227 128.314 28.7227C127.82 28.7227 127.383 28.8268 127.006 29.0352C126.635 29.2435 126.322 29.5299 126.068 29.8945C125.821 30.2526 125.635 30.666 125.512 31.1348C125.388 31.597 125.326 32.0885 125.326 32.6094ZM139.828 27.4336V28.8203H134.115V27.4336H139.828ZM136.049 24.8652H137.855V35.3828C137.855 35.7409 137.911 36.0111 138.021 36.1934C138.132 36.3757 138.275 36.4961 138.451 36.5547C138.627 36.6133 138.816 36.6426 139.018 36.6426C139.167 36.6426 139.324 36.6296 139.486 36.6035C139.656 36.571 139.783 36.5449 139.867 36.5254L139.877 38C139.734 38.0456 139.545 38.0879 139.311 38.127C139.083 38.1725 138.806 38.1953 138.48 38.1953C138.038 38.1953 137.631 38.1074 137.26 37.9316C136.889 37.7559 136.592 37.4629 136.371 37.0527C136.156 36.6361 136.049 36.0762 136.049 35.373V24.8652ZM143.91 27.4336V38H142.094V27.4336H143.91ZM141.957 24.6309C141.957 24.3379 142.045 24.0905 142.221 23.8887C142.403 23.6868 142.67 23.5859 143.021 23.5859C143.367 23.5859 143.63 23.6868 143.812 23.8887C144.001 24.0905 144.096 24.3379 144.096 24.6309C144.096 24.9108 144.001 25.1517 143.812 25.3535C143.63 25.5488 143.367 25.6465 143.021 25.6465C142.67 25.6465 142.403 25.5488 142.221 25.3535C142.045 25.1517 141.957 24.9108 141.957 24.6309ZM149.223 38H147.416V26.5156C147.416 25.7148 147.572 25.0378 147.885 24.4844C148.197 23.931 148.643 23.5111 149.223 23.2246C149.802 22.9382 150.489 22.7949 151.283 22.7949C151.752 22.7949 152.211 22.8535 152.66 22.9707C153.109 23.0814 153.572 23.2214 154.047 23.3906L153.744 24.9141C153.445 24.7969 153.096 24.6862 152.699 24.582C152.309 24.4714 151.879 24.416 151.41 24.416C150.635 24.416 150.076 24.5918 149.73 24.9434C149.392 25.2884 149.223 25.8125 149.223 26.5156V38ZM151.381 27.4336V28.8203H145.746V27.4336H151.381ZM154.936 27.4336V38H153.129V27.4336H154.936ZM162.133 36.7109C162.562 36.7109 162.96 36.623 163.324 36.4473C163.689 36.2715 163.988 36.0306 164.223 35.7246C164.457 35.4121 164.59 35.0573 164.623 34.6602H166.342C166.309 35.2852 166.098 35.8678 165.707 36.4082C165.323 36.9421 164.818 37.375 164.193 37.707C163.568 38.0326 162.882 38.1953 162.133 38.1953C161.339 38.1953 160.645 38.0553 160.053 37.7754C159.467 37.4954 158.979 37.1113 158.588 36.623C158.204 36.1348 157.914 35.5749 157.719 34.9434C157.53 34.3053 157.436 33.6315 157.436 32.9219V32.5117C157.436 31.8021 157.53 31.1315 157.719 30.5C157.914 29.862 158.204 29.2988 158.588 28.8105C158.979 28.3223 159.467 27.9382 160.053 27.6582C160.645 27.3783 161.339 27.2383 162.133 27.2383C162.96 27.2383 163.682 27.4076 164.301 27.7461C164.919 28.0781 165.404 28.5339 165.756 29.1133C166.114 29.6862 166.309 30.3372 166.342 31.0664H164.623C164.59 30.6302 164.467 30.2363 164.252 29.8848C164.044 29.5332 163.757 29.2533 163.393 29.0449C163.035 28.8301 162.615 28.7227 162.133 28.7227C161.579 28.7227 161.114 28.8333 160.736 29.0547C160.365 29.2695 160.069 29.5625 159.848 29.9336C159.633 30.2982 159.477 30.7051 159.379 31.1543C159.288 31.597 159.242 32.0495 159.242 32.5117V32.9219C159.242 33.3841 159.288 33.8398 159.379 34.2891C159.47 34.7383 159.623 35.1452 159.838 35.5098C160.059 35.8743 160.355 36.1673 160.727 36.3887C161.104 36.6035 161.573 36.7109 162.133 36.7109ZM174.604 36.1934V30.7539C174.604 30.3372 174.519 29.9759 174.35 29.6699C174.187 29.3574 173.939 29.1165 173.607 28.9473C173.275 28.778 172.865 28.6934 172.377 28.6934C171.921 28.6934 171.521 28.7715 171.176 28.9277C170.837 29.084 170.57 29.2891 170.375 29.543C170.186 29.7969 170.092 30.0703 170.092 30.3633H168.285C168.285 29.9857 168.383 29.6113 168.578 29.2402C168.773 28.8691 169.053 28.5339 169.418 28.2344C169.789 27.9284 170.232 27.6875 170.746 27.5117C171.267 27.3294 171.846 27.2383 172.484 27.2383C173.253 27.2383 173.93 27.3685 174.516 27.6289C175.108 27.8893 175.57 28.2832 175.902 28.8105C176.241 29.3314 176.41 29.9857 176.41 30.7734V35.6953C176.41 36.0469 176.439 36.4212 176.498 36.8184C176.563 37.2155 176.658 37.5573 176.781 37.8438V38H174.896C174.805 37.7917 174.734 37.515 174.682 37.1699C174.63 36.8184 174.604 36.4928 174.604 36.1934ZM174.916 31.5938L174.936 32.8633H173.109C172.595 32.8633 172.136 32.9056 171.732 32.9902C171.329 33.0684 170.99 33.1888 170.717 33.3516C170.443 33.5143 170.235 33.7194 170.092 33.9668C169.949 34.2077 169.877 34.4909 169.877 34.8164C169.877 35.1484 169.952 35.4512 170.102 35.7246C170.251 35.998 170.476 36.2161 170.775 36.3789C171.081 36.5352 171.456 36.6133 171.898 36.6133C172.452 36.6133 172.94 36.4961 173.363 36.2617C173.786 36.0273 174.122 35.7409 174.369 35.4023C174.623 35.0638 174.76 34.735 174.779 34.416L175.551 35.2852C175.505 35.5586 175.382 35.8613 175.18 36.1934C174.978 36.5254 174.708 36.8444 174.369 37.1504C174.037 37.4499 173.64 37.7005 173.178 37.9023C172.722 38.0977 172.208 38.1953 171.635 38.1953C170.919 38.1953 170.29 38.0553 169.75 37.7754C169.216 37.4954 168.799 37.1211 168.5 36.6523C168.207 36.1771 168.061 35.6465 168.061 35.0605C168.061 34.4941 168.171 33.9961 168.393 33.5664C168.614 33.1302 168.933 32.7689 169.35 32.4824C169.766 32.1895 170.268 31.9681 170.854 31.8184C171.439 31.6686 172.094 31.5938 172.816 31.5938H174.916ZM183.676 27.4336V28.8203H177.963V27.4336H183.676ZM179.896 24.8652H181.703V35.3828C181.703 35.7409 181.758 36.0111 181.869 36.1934C181.98 36.3757 182.123 36.4961 182.299 36.5547C182.475 36.6133 182.663 36.6426 182.865 36.6426C183.015 36.6426 183.171 36.6296 183.334 36.6035C183.503 36.571 183.63 36.5449 183.715 36.5254L183.725 38C183.581 38.0456 183.393 38.0879 183.158 38.127C182.93 38.1725 182.654 38.1953 182.328 38.1953C181.885 38.1953 181.479 38.1074 181.107 37.9316C180.736 37.7559 180.44 37.4629 180.219 37.0527C180.004 36.6361 179.896 36.0762 179.896 35.373V24.8652ZM187.758 27.4336V38H185.941V27.4336H187.758ZM185.805 24.6309C185.805 24.3379 185.893 24.0905 186.068 23.8887C186.251 23.6868 186.518 23.5859 186.869 23.5859C187.214 23.5859 187.478 23.6868 187.66 23.8887C187.849 24.0905 187.943 24.3379 187.943 24.6309C187.943 24.9108 187.849 25.1517 187.66 25.3535C187.478 25.5488 187.214 25.6465 186.869 25.6465C186.518 25.6465 186.251 25.5488 186.068 25.3535C185.893 25.1517 185.805 24.9108 185.805 24.6309ZM190.18 32.834V32.6094C190.18 31.8477 190.29 31.1413 190.512 30.4902C190.733 29.8327 191.052 29.263 191.469 28.7812C191.885 28.293 192.39 27.9154 192.982 27.6484C193.575 27.375 194.239 27.2383 194.975 27.2383C195.717 27.2383 196.384 27.375 196.977 27.6484C197.576 27.9154 198.083 28.293 198.5 28.7812C198.923 29.263 199.245 29.8327 199.467 30.4902C199.688 31.1413 199.799 31.8477 199.799 32.6094V32.834C199.799 33.5957 199.688 34.3021 199.467 34.9531C199.245 35.6042 198.923 36.1738 198.5 36.6621C198.083 37.1439 197.579 37.5215 196.986 37.7949C196.4 38.0618 195.736 38.1953 194.994 38.1953C194.252 38.1953 193.585 38.0618 192.992 37.7949C192.4 37.5215 191.892 37.1439 191.469 36.6621C191.052 36.1738 190.733 35.6042 190.512 34.9531C190.29 34.3021 190.18 33.5957 190.18 32.834ZM191.986 32.6094V32.834C191.986 33.3613 192.048 33.8594 192.172 34.3281C192.296 34.7904 192.481 35.2005 192.729 35.5586C192.982 35.9167 193.298 36.1999 193.676 36.4082C194.053 36.61 194.493 36.7109 194.994 36.7109C195.489 36.7109 195.922 36.61 196.293 36.4082C196.671 36.1999 196.983 35.9167 197.23 35.5586C197.478 35.2005 197.663 34.7904 197.787 34.3281C197.917 33.8594 197.982 33.3613 197.982 32.834V32.6094C197.982 32.0885 197.917 31.597 197.787 31.1348C197.663 30.666 197.475 30.2526 197.221 29.8945C196.973 29.5299 196.661 29.2435 196.283 29.0352C195.912 28.8268 195.476 28.7227 194.975 28.7227C194.48 28.7227 194.044 28.8268 193.666 29.0352C193.295 29.2435 192.982 29.5299 192.729 29.8945C192.481 30.2526 192.296 30.666 192.172 31.1348C192.048 31.597 191.986 32.0885 191.986 32.6094ZM203.871 29.6895V38H202.064V27.4336H203.773L203.871 29.6895ZM203.441 32.3164L202.689 32.2871C202.696 31.5645 202.803 30.8971 203.012 30.2852C203.22 29.6667 203.513 29.1296 203.891 28.6738C204.268 28.2181 204.717 27.8665 205.238 27.6191C205.766 27.3652 206.348 27.2383 206.986 27.2383C207.507 27.2383 207.976 27.3099 208.393 27.4531C208.809 27.5898 209.164 27.8112 209.457 28.1172C209.757 28.4232 209.984 28.8203 210.141 29.3086C210.297 29.7904 210.375 30.3796 210.375 31.0762V38H208.559V31.0566C208.559 30.5033 208.477 30.0605 208.314 29.7285C208.152 29.39 207.914 29.1458 207.602 28.9961C207.289 28.8398 206.905 28.7617 206.449 28.7617C206 28.7617 205.59 28.8561 205.219 29.0449C204.854 29.2337 204.538 29.4941 204.271 29.8262C204.011 30.1582 203.806 30.5391 203.656 30.9688C203.513 31.3919 203.441 31.8411 203.441 32.3164ZM219.271 35.1973C219.271 34.9368 219.213 34.696 219.096 34.4746C218.985 34.2467 218.754 34.0417 218.402 33.8594C218.057 33.6706 217.536 33.5078 216.84 33.3711C216.254 33.2474 215.723 33.1009 215.248 32.9316C214.779 32.7624 214.379 32.5573 214.047 32.3164C213.721 32.0755 213.471 31.7923 213.295 31.4668C213.119 31.1413 213.031 30.7604 213.031 30.3242C213.031 29.9076 213.122 29.5137 213.305 29.1426C213.493 28.7715 213.757 28.4427 214.096 28.1562C214.441 27.8698 214.854 27.6452 215.336 27.4824C215.818 27.3197 216.355 27.2383 216.947 27.2383C217.794 27.2383 218.516 27.388 219.115 27.6875C219.714 27.987 220.173 28.3874 220.492 28.8887C220.811 29.3835 220.971 29.9336 220.971 30.5391H219.164C219.164 30.2461 219.076 29.9629 218.9 29.6895C218.731 29.4095 218.48 29.1784 218.148 28.9961C217.823 28.8138 217.423 28.7227 216.947 28.7227C216.446 28.7227 216.039 28.8008 215.727 28.957C215.421 29.1068 215.196 29.2988 215.053 29.5332C214.916 29.7676 214.848 30.015 214.848 30.2754C214.848 30.4707 214.88 30.6465 214.945 30.8027C215.017 30.9525 215.141 31.0924 215.316 31.2227C215.492 31.3464 215.74 31.4635 216.059 31.5742C216.378 31.6849 216.785 31.7956 217.279 31.9062C218.145 32.1016 218.858 32.3359 219.418 32.6094C219.978 32.8828 220.395 33.2181 220.668 33.6152C220.941 34.0124 221.078 34.4941 221.078 35.0605C221.078 35.5228 220.98 35.946 220.785 36.3301C220.596 36.7142 220.32 37.0462 219.955 37.3262C219.597 37.5996 219.167 37.8145 218.666 37.9707C218.171 38.1204 217.615 38.1953 216.996 38.1953C216.065 38.1953 215.277 38.0293 214.633 37.6973C213.988 37.3652 213.5 36.9355 213.168 36.4082C212.836 35.8809 212.67 35.3242 212.67 34.7383H214.486C214.512 35.2331 214.656 35.627 214.916 35.9199C215.176 36.2064 215.495 36.4115 215.873 36.5352C216.251 36.6523 216.625 36.7109 216.996 36.7109C217.491 36.7109 217.904 36.6458 218.236 36.5156C218.575 36.3854 218.832 36.2064 219.008 35.9785C219.184 35.7507 219.271 35.4902 219.271 35.1973ZM225.092 35.8516V37.3066C225.092 37.8991 224.942 38.5241 224.643 39.1816C224.343 39.8457 223.923 40.3991 223.383 40.8418L222.357 40.1289C222.566 39.8424 222.742 39.5495 222.885 39.25C223.028 38.957 223.135 38.651 223.207 38.332C223.285 38.0195 223.324 37.6875 223.324 37.3359V35.8516H225.092ZM234.164 29.4648V42.0625H232.348V27.4336H234.008L234.164 29.4648ZM241.283 32.6289V32.834C241.283 33.6022 241.192 34.3151 241.01 34.9727C240.827 35.6237 240.561 36.1901 240.209 36.6719C239.864 37.1536 239.438 37.528 238.93 37.7949C238.422 38.0618 237.839 38.1953 237.182 38.1953C236.511 38.1953 235.919 38.0846 235.404 37.8633C234.89 37.6419 234.454 37.3197 234.096 36.8965C233.738 36.4733 233.451 35.9655 233.236 35.373C233.028 34.7806 232.885 34.1133 232.807 33.3711V32.2773C232.885 31.4961 233.031 30.7962 233.246 30.1777C233.461 29.5592 233.744 29.0319 234.096 28.5957C234.454 28.153 234.887 27.8177 235.395 27.5898C235.902 27.3555 236.488 27.2383 237.152 27.2383C237.816 27.2383 238.406 27.3685 238.92 27.6289C239.434 27.8828 239.867 28.2474 240.219 28.7227C240.57 29.1979 240.834 29.7676 241.01 30.4316C241.192 31.0892 241.283 31.8216 241.283 32.6289ZM239.467 32.834V32.6289C239.467 32.1016 239.411 31.6068 239.301 31.1445C239.19 30.6758 239.018 30.2656 238.783 29.9141C238.555 29.556 238.262 29.276 237.904 29.0742C237.546 28.8659 237.12 28.7617 236.625 28.7617C236.169 28.7617 235.772 28.8398 235.434 28.9961C235.102 29.1523 234.818 29.3639 234.584 29.6309C234.35 29.8913 234.158 30.1908 234.008 30.5293C233.865 30.8613 233.757 31.2064 233.686 31.5645V34.0938C233.816 34.5495 233.998 34.9792 234.232 35.3828C234.467 35.7799 234.779 36.1022 235.17 36.3496C235.561 36.5905 236.052 36.7109 236.645 36.7109C237.133 36.7109 237.553 36.61 237.904 36.4082C238.262 36.1999 238.555 35.9167 238.783 35.5586C239.018 35.2005 239.19 34.7904 239.301 34.3281C239.411 33.8594 239.467 33.3613 239.467 32.834ZM245.551 23V38H243.734V23H245.551ZM252.836 38.1953C252.1 38.1953 251.433 38.0716 250.834 37.8242C250.242 37.5703 249.73 37.2155 249.301 36.7598C248.878 36.304 248.552 35.7637 248.324 35.1387C248.096 34.5137 247.982 33.8301 247.982 33.0879V32.6777C247.982 31.8184 248.109 31.0534 248.363 30.3828C248.617 29.7057 248.962 29.1328 249.398 28.6641C249.835 28.1953 250.329 27.8405 250.883 27.5996C251.436 27.3587 252.009 27.2383 252.602 27.2383C253.357 27.2383 254.008 27.3685 254.555 27.6289C255.108 27.8893 255.561 28.2539 255.912 28.7227C256.264 29.1849 256.524 29.7318 256.693 30.3633C256.863 30.9883 256.947 31.6719 256.947 32.4141V33.2246H249.057V31.75H255.141V31.6133C255.115 31.1445 255.017 30.6888 254.848 30.2461C254.685 29.8034 254.424 29.4388 254.066 29.1523C253.708 28.8659 253.22 28.7227 252.602 28.7227C252.191 28.7227 251.814 28.8105 251.469 28.9863C251.124 29.1556 250.827 29.4095 250.58 29.748C250.333 30.0866 250.141 30.5 250.004 30.9883C249.867 31.4766 249.799 32.0397 249.799 32.6777V33.0879C249.799 33.5892 249.867 34.0612 250.004 34.5039C250.147 34.9401 250.352 35.3242 250.619 35.6562C250.893 35.9883 251.221 36.2487 251.605 36.4375C251.996 36.6263 252.439 36.7207 252.934 36.7207C253.572 36.7207 254.112 36.5905 254.555 36.3301C254.997 36.0697 255.385 35.7214 255.717 35.2852L256.811 36.1543C256.583 36.4993 256.293 36.8281 255.941 37.1406C255.59 37.4531 255.157 37.707 254.643 37.9023C254.135 38.0977 253.533 38.1953 252.836 38.1953ZM265.287 36.1934V30.7539C265.287 30.3372 265.202 29.9759 265.033 29.6699C264.87 29.3574 264.623 29.1165 264.291 28.9473C263.959 28.778 263.549 28.6934 263.061 28.6934C262.605 28.6934 262.204 28.7715 261.859 28.9277C261.521 29.084 261.254 29.2891 261.059 29.543C260.87 29.7969 260.775 30.0703 260.775 30.3633H258.969C258.969 29.9857 259.066 29.6113 259.262 29.2402C259.457 28.8691 259.737 28.5339 260.102 28.2344C260.473 27.9284 260.915 27.6875 261.43 27.5117C261.951 27.3294 262.53 27.2383 263.168 27.2383C263.936 27.2383 264.613 27.3685 265.199 27.6289C265.792 27.8893 266.254 28.2832 266.586 28.8105C266.924 29.3314 267.094 29.9857 267.094 30.7734V35.6953C267.094 36.0469 267.123 36.4212 267.182 36.8184C267.247 37.2155 267.341 37.5573 267.465 37.8438V38H265.58C265.489 37.7917 265.417 37.515 265.365 37.1699C265.313 36.8184 265.287 36.4928 265.287 36.1934ZM265.6 31.5938L265.619 32.8633H263.793C263.279 32.8633 262.82 32.9056 262.416 32.9902C262.012 33.0684 261.674 33.1888 261.4 33.3516C261.127 33.5143 260.919 33.7194 260.775 33.9668C260.632 34.2077 260.561 34.4909 260.561 34.8164C260.561 35.1484 260.635 35.4512 260.785 35.7246C260.935 35.998 261.16 36.2161 261.459 36.3789C261.765 36.5352 262.139 36.6133 262.582 36.6133C263.135 36.6133 263.624 36.4961 264.047 36.2617C264.47 36.0273 264.805 35.7409 265.053 35.4023C265.307 35.0638 265.443 34.735 265.463 34.416L266.234 35.2852C266.189 35.5586 266.065 35.8613 265.863 36.1934C265.661 36.5254 265.391 36.8444 265.053 37.1504C264.721 37.4499 264.324 37.7005 263.861 37.9023C263.406 38.0977 262.891 38.1953 262.318 38.1953C261.602 38.1953 260.974 38.0553 260.434 37.7754C259.9 37.4954 259.483 37.1211 259.184 36.6523C258.891 36.1771 258.744 35.6465 258.744 35.0605C258.744 34.4941 258.855 33.9961 259.076 33.5664C259.298 33.1302 259.617 32.7689 260.033 32.4824C260.45 32.1895 260.951 31.9681 261.537 31.8184C262.123 31.6686 262.777 31.5938 263.5 31.5938H265.6ZM276.088 35.1973C276.088 34.9368 276.029 34.696 275.912 34.4746C275.801 34.2467 275.57 34.0417 275.219 33.8594C274.874 33.6706 274.353 33.5078 273.656 33.3711C273.07 33.2474 272.54 33.1009 272.064 32.9316C271.596 32.7624 271.195 32.5573 270.863 32.3164C270.538 32.0755 270.287 31.7923 270.111 31.4668C269.936 31.1413 269.848 30.7604 269.848 30.3242C269.848 29.9076 269.939 29.5137 270.121 29.1426C270.31 28.7715 270.574 28.4427 270.912 28.1562C271.257 27.8698 271.671 27.6452 272.152 27.4824C272.634 27.3197 273.171 27.2383 273.764 27.2383C274.61 27.2383 275.333 27.388 275.932 27.6875C276.531 27.987 276.99 28.3874 277.309 28.8887C277.628 29.3835 277.787 29.9336 277.787 30.5391H275.98C275.98 30.2461 275.893 29.9629 275.717 29.6895C275.548 29.4095 275.297 29.1784 274.965 28.9961C274.639 28.8138 274.239 28.7227 273.764 28.7227C273.262 28.7227 272.855 28.8008 272.543 28.957C272.237 29.1068 272.012 29.2988 271.869 29.5332C271.732 29.7676 271.664 30.015 271.664 30.2754C271.664 30.4707 271.697 30.6465 271.762 30.8027C271.833 30.9525 271.957 31.0924 272.133 31.2227C272.309 31.3464 272.556 31.4635 272.875 31.5742C273.194 31.6849 273.601 31.7956 274.096 31.9062C274.962 32.1016 275.674 32.3359 276.234 32.6094C276.794 32.8828 277.211 33.2181 277.484 33.6152C277.758 34.0124 277.895 34.4941 277.895 35.0605C277.895 35.5228 277.797 35.946 277.602 36.3301C277.413 36.7142 277.136 37.0462 276.771 37.3262C276.413 37.5996 275.984 37.8145 275.482 37.9707C274.988 38.1204 274.431 38.1953 273.812 38.1953C272.882 38.1953 272.094 38.0293 271.449 37.6973C270.805 37.3652 270.316 36.9355 269.984 36.4082C269.652 35.8809 269.486 35.3242 269.486 34.7383H271.303C271.329 35.2331 271.472 35.627 271.732 35.9199C271.993 36.2064 272.312 36.4115 272.689 36.5352C273.067 36.6523 273.441 36.7109 273.812 36.7109C274.307 36.7109 274.721 36.6458 275.053 36.5156C275.391 36.3854 275.648 36.2064 275.824 35.9785C276 35.7507 276.088 35.4902 276.088 35.1973ZM284.652 38.1953C283.917 38.1953 283.249 38.0716 282.65 37.8242C282.058 37.5703 281.547 37.2155 281.117 36.7598C280.694 36.304 280.368 35.7637 280.141 35.1387C279.913 34.5137 279.799 33.8301 279.799 33.0879V32.6777C279.799 31.8184 279.926 31.0534 280.18 30.3828C280.434 29.7057 280.779 29.1328 281.215 28.6641C281.651 28.1953 282.146 27.8405 282.699 27.5996C283.253 27.3587 283.826 27.2383 284.418 27.2383C285.173 27.2383 285.824 27.3685 286.371 27.6289C286.924 27.8893 287.377 28.2539 287.729 28.7227C288.08 29.1849 288.34 29.7318 288.51 30.3633C288.679 30.9883 288.764 31.6719 288.764 32.4141V33.2246H280.873V31.75H286.957V31.6133C286.931 31.1445 286.833 30.6888 286.664 30.2461C286.501 29.8034 286.241 29.4388 285.883 29.1523C285.525 28.8659 285.036 28.7227 284.418 28.7227C284.008 28.7227 283.63 28.8105 283.285 28.9863C282.94 29.1556 282.644 29.4095 282.396 29.748C282.149 30.0866 281.957 30.5 281.82 30.9883C281.684 31.4766 281.615 32.0397 281.615 32.6777V33.0879C281.615 33.5892 281.684 34.0612 281.82 34.5039C281.964 34.9401 282.169 35.3242 282.436 35.6562C282.709 35.9883 283.038 36.2487 283.422 36.4375C283.812 36.6263 284.255 36.7207 284.75 36.7207C285.388 36.7207 285.928 36.5905 286.371 36.3301C286.814 36.0697 287.201 35.7214 287.533 35.2852L288.627 36.1543C288.399 36.4993 288.109 36.8281 287.758 37.1406C287.406 37.4531 286.973 37.707 286.459 37.9023C285.951 38.0977 285.349 38.1953 284.652 38.1953ZM24.2227 57.4336H25.8633V67.7754C25.8633 68.7064 25.6745 69.5007 25.2969 70.1582C24.9193 70.8158 24.3919 71.3138 23.7148 71.6523C23.0443 71.9974 22.2695 72.1699 21.3906 72.1699C21.026 72.1699 20.5964 72.1113 20.1016 71.9941C19.6133 71.8835 19.1315 71.6914 18.6562 71.418C18.1875 71.151 17.7936 70.7897 17.4746 70.334L18.4219 69.2598C18.8646 69.7936 19.3268 70.1647 19.8086 70.373C20.2969 70.5814 20.7786 70.6855 21.2539 70.6855C21.8268 70.6855 22.3216 70.5781 22.7383 70.3633C23.1549 70.1484 23.4772 69.8294 23.7051 69.4062C23.9395 68.9896 24.0566 68.4753 24.0566 67.8633V59.7578L24.2227 57.4336ZM16.9473 62.834V62.6289C16.9473 61.8216 17.0417 61.0892 17.2305 60.4316C17.4258 59.7676 17.7025 59.1979 18.0605 58.7227C18.4251 58.2474 18.8646 57.8828 19.3789 57.6289C19.8932 57.3685 20.4727 57.2383 21.1172 57.2383C21.7812 57.2383 22.3607 57.3555 22.8555 57.5898C23.3568 57.8177 23.7799 58.153 24.125 58.5957C24.4766 59.0319 24.7533 59.5592 24.9551 60.1777C25.1569 60.7962 25.2969 61.4961 25.375 62.2773V63.1758C25.3034 63.9505 25.1634 64.6471 24.9551 65.2656C24.7533 65.8841 24.4766 66.4115 24.125 66.8477C23.7799 67.2839 23.3568 67.6191 22.8555 67.8535C22.3542 68.0814 21.7682 68.1953 21.0977 68.1953C20.4661 68.1953 19.8932 68.0618 19.3789 67.7949C18.8711 67.528 18.4349 67.1536 18.0703 66.6719C17.7057 66.1901 17.4258 65.6237 17.2305 64.9727C17.0417 64.3151 16.9473 63.6022 16.9473 62.834ZM18.7539 62.6289V62.834C18.7539 63.3613 18.806 63.8561 18.9102 64.3184C19.0208 64.7806 19.1868 65.1875 19.4082 65.5391C19.6361 65.8906 19.9258 66.1673 20.2773 66.3691C20.6289 66.5645 21.0488 66.6621 21.5371 66.6621C22.1361 66.6621 22.6309 66.5352 23.0215 66.2812C23.4121 66.0273 23.7214 65.6921 23.9492 65.2754C24.1836 64.8587 24.3659 64.4062 24.4961 63.918V61.5645C24.4245 61.2064 24.3138 60.8613 24.1641 60.5293C24.0208 60.1908 23.832 59.8913 23.5977 59.6309C23.3698 59.3639 23.0866 59.1523 22.748 58.9961C22.4095 58.8398 22.0124 58.7617 21.5566 58.7617C21.0618 58.7617 20.6354 58.8659 20.2773 59.0742C19.9258 59.276 19.6361 59.556 19.4082 59.9141C19.1868 60.2656 19.0208 60.6758 18.9102 61.1445C18.806 61.6068 18.7539 62.1016 18.7539 62.6289ZM30.4141 59.0938V68H28.6074V57.4336H30.3652L30.4141 59.0938ZM33.7148 57.375L33.7051 59.0547C33.5553 59.0221 33.4121 59.0026 33.2754 58.9961C33.1452 58.9831 32.9954 58.9766 32.8262 58.9766C32.4095 58.9766 32.0417 59.0417 31.7227 59.1719C31.4036 59.3021 31.1335 59.4844 30.9121 59.7188C30.6908 59.9531 30.515 60.2331 30.3848 60.5586C30.2611 60.8776 30.1797 61.2292 30.1406 61.6133L29.6328 61.9062C29.6328 61.2682 29.6947 60.6693 29.8184 60.1094C29.9486 59.5495 30.1471 59.0547 30.4141 58.625C30.681 58.1888 31.0195 57.8503 31.4297 57.6094C31.8464 57.362 32.3411 57.2383 32.9141 57.2383C33.0443 57.2383 33.194 57.2546 33.3633 57.2871C33.5326 57.3132 33.6497 57.3424 33.7148 57.375ZM41.2246 66.1934V60.7539C41.2246 60.3372 41.14 59.9759 40.9707 59.6699C40.8079 59.3574 40.5605 59.1165 40.2285 58.9473C39.8965 58.778 39.4863 58.6934 38.998 58.6934C38.5423 58.6934 38.1419 58.7715 37.7969 58.9277C37.4583 59.084 37.1914 59.2891 36.9961 59.543C36.8073 59.7969 36.7129 60.0703 36.7129 60.3633H34.9062C34.9062 59.9857 35.0039 59.6113 35.1992 59.2402C35.3945 58.8691 35.6745 58.5339 36.0391 58.2344C36.4102 57.9284 36.8529 57.6875 37.3672 57.5117C37.888 57.3294 38.4674 57.2383 39.1055 57.2383C39.8737 57.2383 40.5508 57.3685 41.1367 57.6289C41.7292 57.8893 42.1914 58.2832 42.5234 58.8105C42.862 59.3314 43.0312 59.9857 43.0312 60.7734V65.6953C43.0312 66.0469 43.0605 66.4212 43.1191 66.8184C43.1842 67.2155 43.2786 67.5573 43.4023 67.8438V68H41.5176C41.4264 67.7917 41.3548 67.515 41.3027 67.1699C41.2507 66.8184 41.2246 66.4928 41.2246 66.1934ZM41.5371 61.5938L41.5566 62.8633H39.7305C39.2161 62.8633 38.7572 62.9056 38.3535 62.9902C37.9499 63.0684 37.6113 63.1888 37.3379 63.3516C37.0645 63.5143 36.8561 63.7194 36.7129 63.9668C36.5697 64.2077 36.498 64.4909 36.498 64.8164C36.498 65.1484 36.5729 65.4512 36.7227 65.7246C36.8724 65.998 37.097 66.2161 37.3965 66.3789C37.7025 66.5352 38.0768 66.6133 38.5195 66.6133C39.0729 66.6133 39.5612 66.4961 39.9844 66.2617C40.4076 66.0273 40.7428 65.7409 40.9902 65.4023C41.2441 65.0638 41.3809 64.735 41.4004 64.416L42.1719 65.2852C42.1263 65.5586 42.0026 65.8613 41.8008 66.1934C41.599 66.5254 41.3288 66.8444 40.9902 67.1504C40.6582 67.4499 40.2611 67.7005 39.7988 67.9023C39.3431 68.0977 38.8288 68.1953 38.2559 68.1953C37.5397 68.1953 36.9115 68.0553 36.3711 67.7754C35.8372 67.4954 35.4206 67.1211 35.1211 66.6523C34.8281 66.1771 34.6816 65.6465 34.6816 65.0605C34.6816 64.4941 34.7923 63.9961 35.0137 63.5664C35.235 63.1302 35.554 62.7689 35.9707 62.4824C36.3874 62.1895 36.8887 61.9681 37.4746 61.8184C38.0605 61.6686 38.7148 61.5938 39.4375 61.5938H41.5371ZM47.6797 59.6895V68H45.873V57.4336H47.582L47.6797 59.6895ZM47.25 62.3164L46.498 62.2871C46.5046 61.5645 46.612 60.8971 46.8203 60.2852C47.0286 59.6667 47.3216 59.1296 47.6992 58.6738C48.0768 58.2181 48.526 57.8665 49.0469 57.6191C49.5742 57.3652 50.1569 57.2383 50.7949 57.2383C51.3158 57.2383 51.7845 57.3099 52.2012 57.4531C52.6178 57.5898 52.9727 57.8112 53.2656 58.1172C53.5651 58.4232 53.793 58.8203 53.9492 59.3086C54.1055 59.7904 54.1836 60.3796 54.1836 61.0762V68H52.3672V61.0566C52.3672 60.5033 52.2858 60.0605 52.123 59.7285C51.9603 59.39 51.7227 59.1458 51.4102 58.9961C51.0977 58.8398 50.7135 58.7617 50.2578 58.7617C49.8086 58.7617 49.3984 58.8561 49.0273 59.0449C48.6628 59.2337 48.347 59.4941 48.0801 59.8262C47.8197 60.1582 47.6146 60.5391 47.4648 60.9688C47.3216 61.3919 47.25 61.8411 47.25 62.3164ZM61.3516 57.4336V58.8203H55.6387V57.4336H61.3516ZM57.5723 54.8652H59.3789V65.3828C59.3789 65.7409 59.4342 66.0111 59.5449 66.1934C59.6556 66.3757 59.7988 66.4961 59.9746 66.5547C60.1504 66.6133 60.3392 66.6426 60.541 66.6426C60.6908 66.6426 60.847 66.6296 61.0098 66.6035C61.179 66.571 61.306 66.5449 61.3906 66.5254L61.4004 68C61.2572 68.0456 61.0684 68.0879 60.834 68.127C60.6061 68.1725 60.3294 68.1953 60.0039 68.1953C59.5612 68.1953 59.1543 68.1074 58.7832 67.9316C58.4121 67.7559 58.1159 67.4629 57.8945 67.0527C57.6797 66.6361 57.5723 66.0762 57.5723 65.373V54.8652ZM70.2383 59.4648V72.0625H68.4219V57.4336H70.082L70.2383 59.4648ZM77.3574 62.6289V62.834C77.3574 63.6022 77.2663 64.3151 77.084 64.9727C76.9017 65.6237 76.6348 66.1901 76.2832 66.6719C75.9382 67.1536 75.5117 67.528 75.0039 67.7949C74.4961 68.0618 73.9134 68.1953 73.2559 68.1953C72.5853 68.1953 71.9928 68.0846 71.4785 67.8633C70.9642 67.6419 70.528 67.3197 70.1699 66.8965C69.8118 66.4733 69.5254 65.9655 69.3105 65.373C69.1022 64.7806 68.959 64.1133 68.8809 63.3711V62.2773C68.959 61.4961 69.1055 60.7962 69.3203 60.1777C69.5352 59.5592 69.8184 59.0319 70.1699 58.5957C70.528 58.153 70.9609 57.8177 71.4688 57.5898C71.9766 57.3555 72.5625 57.2383 73.2266 57.2383C73.8906 57.2383 74.4798 57.3685 74.9941 57.6289C75.5085 57.8828 75.9414 58.2474 76.293 58.7227C76.6445 59.1979 76.9082 59.7676 77.084 60.4316C77.2663 61.0892 77.3574 61.8216 77.3574 62.6289ZM75.541 62.834V62.6289C75.541 62.1016 75.4857 61.6068 75.375 61.1445C75.2643 60.6758 75.0918 60.2656 74.8574 59.9141C74.6296 59.556 74.3366 59.276 73.9785 59.0742C73.6204 58.8659 73.194 58.7617 72.6992 58.7617C72.2435 58.7617 71.8464 58.8398 71.5078 58.9961C71.1758 59.1523 70.8926 59.3639 70.6582 59.6309C70.4238 59.8913 70.2318 60.1908 70.082 60.5293C69.9388 60.8613 69.8314 61.2064 69.7598 61.5645V64.0938C69.89 64.5495 70.0723 64.9792 70.3066 65.3828C70.541 65.7799 70.8535 66.1022 71.2441 66.3496C71.6348 66.5905 72.1263 66.7109 72.7188 66.7109C73.207 66.7109 73.627 66.61 73.9785 66.4082C74.3366 66.1999 74.6296 65.9167 74.8574 65.5586C75.0918 65.2005 75.2643 64.7904 75.375 64.3281C75.4857 63.8594 75.541 63.3613 75.541 62.834ZM84.0469 68.1953C83.3112 68.1953 82.6439 68.0716 82.0449 67.8242C81.4525 67.5703 80.9414 67.2155 80.5117 66.7598C80.0885 66.304 79.763 65.7637 79.5352 65.1387C79.3073 64.5137 79.1934 63.8301 79.1934 63.0879V62.6777C79.1934 61.8184 79.3203 61.0534 79.5742 60.3828C79.8281 59.7057 80.1732 59.1328 80.6094 58.6641C81.0456 58.1953 81.5404 57.8405 82.0938 57.5996C82.6471 57.3587 83.2201 57.2383 83.8125 57.2383C84.5677 57.2383 85.2188 57.3685 85.7656 57.6289C86.319 57.8893 86.7715 58.2539 87.123 58.7227C87.4746 59.1849 87.735 59.7318 87.9043 60.3633C88.0736 60.9883 88.1582 61.6719 88.1582 62.4141V63.2246H80.2676V61.75H86.3516V61.6133C86.3255 61.1445 86.2279 60.6888 86.0586 60.2461C85.8958 59.8034 85.6354 59.4388 85.2773 59.1523C84.9193 58.8659 84.431 58.7227 83.8125 58.7227C83.4023 58.7227 83.0247 58.8105 82.6797 58.9863C82.3346 59.1556 82.0384 59.4095 81.791 59.748C81.5436 60.0866 81.3516 60.5 81.2148 60.9883C81.0781 61.4766 81.0098 62.0397 81.0098 62.6777V63.0879C81.0098 63.5892 81.0781 64.0612 81.2148 64.5039C81.3581 64.9401 81.5632 65.3242 81.8301 65.6562C82.1035 65.9883 82.4323 66.2487 82.8164 66.4375C83.207 66.6263 83.6497 66.7207 84.1445 66.7207C84.7826 66.7207 85.3229 66.5905 85.7656 66.3301C86.2083 66.0697 86.5957 65.7214 86.9277 65.2852L88.0215 66.1543C87.7936 66.4993 87.5039 66.8281 87.1523 67.1406C86.8008 67.4531 86.3678 67.707 85.8535 67.9023C85.3457 68.0977 84.7435 68.1953 84.0469 68.1953ZM92.0742 59.0938V68H90.2676V57.4336H92.0254L92.0742 59.0938ZM95.375 57.375L95.3652 59.0547C95.2155 59.0221 95.0723 59.0026 94.9355 58.9961C94.8053 58.9831 94.6556 58.9766 94.4863 58.9766C94.0697 58.9766 93.7018 59.0417 93.3828 59.1719C93.0638 59.3021 92.7936 59.4844 92.5723 59.7188C92.3509 59.9531 92.1751 60.2331 92.0449 60.5586C91.9212 60.8776 91.8398 61.2292 91.8008 61.6133L91.293 61.9062C91.293 61.2682 91.3548 60.6693 91.4785 60.1094C91.6087 59.5495 91.8073 59.0547 92.0742 58.625C92.3411 58.1888 92.6797 57.8503 93.0898 57.6094C93.5065 57.362 94.0013 57.2383 94.5742 57.2383C94.7044 57.2383 94.8542 57.2546 95.0234 57.2871C95.1927 57.3132 95.3099 57.3424 95.375 57.375ZM98.8418 59.5332V68H97.0254V57.4336H98.7441L98.8418 59.5332ZM98.4707 62.3164L97.6309 62.2871C97.6374 61.5645 97.7318 60.8971 97.9141 60.2852C98.0964 59.6667 98.3665 59.1296 98.7246 58.6738C99.0827 58.2181 99.5286 57.8665 100.062 57.6191C100.596 57.3652 101.215 57.2383 101.918 57.2383C102.413 57.2383 102.868 57.3099 103.285 57.4531C103.702 57.5898 104.063 57.8079 104.369 58.1074C104.675 58.4069 104.913 58.791 105.082 59.2598C105.251 59.7285 105.336 60.2949 105.336 60.959V68H103.529V61.0469C103.529 60.4935 103.435 60.0508 103.246 59.7188C103.064 59.3867 102.803 59.1458 102.465 58.9961C102.126 58.8398 101.729 58.7617 101.273 58.7617C100.74 58.7617 100.294 58.8561 99.9355 59.0449C99.5775 59.2337 99.291 59.4941 99.0762 59.8262C98.8613 60.1582 98.7051 60.5391 98.6074 60.9688C98.5163 61.3919 98.4707 61.8411 98.4707 62.3164ZM105.316 61.3203L104.105 61.6914C104.112 61.112 104.206 60.5553 104.389 60.0215C104.577 59.4876 104.848 59.0124 105.199 58.5957C105.557 58.179 105.997 57.8503 106.518 57.6094C107.038 57.362 107.634 57.2383 108.305 57.2383C108.871 57.2383 109.372 57.3132 109.809 57.4629C110.251 57.6126 110.622 57.8438 110.922 58.1562C111.228 58.4622 111.459 58.8561 111.615 59.3379C111.771 59.8197 111.85 60.3926 111.85 61.0566V68H110.033V61.0371C110.033 60.4447 109.939 59.9857 109.75 59.6602C109.568 59.3281 109.307 59.097 108.969 58.9668C108.637 58.8301 108.24 58.7617 107.777 58.7617C107.38 58.7617 107.029 58.8301 106.723 58.9668C106.417 59.1035 106.16 59.2923 105.951 59.5332C105.743 59.7676 105.583 60.0378 105.473 60.3438C105.368 60.6497 105.316 60.9753 105.316 61.3203ZM116.547 57.4336V68H114.73V57.4336H116.547ZM114.594 54.6309C114.594 54.3379 114.682 54.0905 114.857 53.8887C115.04 53.6868 115.307 53.5859 115.658 53.5859C116.003 53.5859 116.267 53.6868 116.449 53.8887C116.638 54.0905 116.732 54.3379 116.732 54.6309C116.732 54.9108 116.638 55.1517 116.449 55.3535C116.267 55.5488 116.003 55.6465 115.658 55.6465C115.307 55.6465 115.04 55.5488 114.857 55.3535C114.682 55.1517 114.594 54.9108 114.594 54.6309ZM125.6 65.1973C125.6 64.9368 125.541 64.696 125.424 64.4746C125.313 64.2467 125.082 64.0417 124.73 63.8594C124.385 63.6706 123.865 63.5078 123.168 63.3711C122.582 63.2474 122.051 63.1009 121.576 62.9316C121.107 62.7624 120.707 62.5573 120.375 62.3164C120.049 62.0755 119.799 61.7923 119.623 61.4668C119.447 61.1413 119.359 60.7604 119.359 60.3242C119.359 59.9076 119.451 59.5137 119.633 59.1426C119.822 58.7715 120.085 58.4427 120.424 58.1562C120.769 57.8698 121.182 57.6452 121.664 57.4824C122.146 57.3197 122.683 57.2383 123.275 57.2383C124.122 57.2383 124.844 57.388 125.443 57.6875C126.042 57.987 126.501 58.3874 126.82 58.8887C127.139 59.3835 127.299 59.9336 127.299 60.5391H125.492C125.492 60.2461 125.404 59.9629 125.229 59.6895C125.059 59.4095 124.809 59.1784 124.477 58.9961C124.151 58.8138 123.751 58.7227 123.275 58.7227C122.774 58.7227 122.367 58.8008 122.055 58.957C121.749 59.1068 121.524 59.2988 121.381 59.5332C121.244 59.7676 121.176 60.015 121.176 60.2754C121.176 60.4707 121.208 60.6465 121.273 60.8027C121.345 60.9525 121.469 61.0924 121.645 61.2227C121.82 61.3464 122.068 61.4635 122.387 61.5742C122.706 61.6849 123.113 61.7956 123.607 61.9062C124.473 62.1016 125.186 62.3359 125.746 62.6094C126.306 62.8828 126.723 63.2181 126.996 63.6152C127.27 64.0124 127.406 64.4941 127.406 65.0605C127.406 65.5228 127.309 65.946 127.113 66.3301C126.924 66.7142 126.648 67.0462 126.283 67.3262C125.925 67.5996 125.495 67.8145 124.994 67.9707C124.499 68.1204 123.943 68.1953 123.324 68.1953C122.393 68.1953 121.605 68.0293 120.961 67.6973C120.316 67.3652 119.828 66.9355 119.496 66.4082C119.164 65.8809 118.998 65.3242 118.998 64.7383H120.814C120.84 65.2331 120.984 65.627 121.244 65.9199C121.505 66.2064 121.824 66.4115 122.201 66.5352C122.579 66.6523 122.953 66.7109 123.324 66.7109C123.819 66.7109 124.232 66.6458 124.564 66.5156C124.903 66.3854 125.16 66.2064 125.336 65.9785C125.512 65.7507 125.6 65.4902 125.6 65.1973ZM135.932 65.1973C135.932 64.9368 135.873 64.696 135.756 64.4746C135.645 64.2467 135.414 64.0417 135.062 63.8594C134.717 63.6706 134.197 63.5078 133.5 63.3711C132.914 63.2474 132.383 63.1009 131.908 62.9316C131.439 62.7624 131.039 62.5573 130.707 62.3164C130.382 62.0755 130.131 61.7923 129.955 61.4668C129.779 61.1413 129.691 60.7604 129.691 60.3242C129.691 59.9076 129.783 59.5137 129.965 59.1426C130.154 58.7715 130.417 58.4427 130.756 58.1562C131.101 57.8698 131.514 57.6452 131.996 57.4824C132.478 57.3197 133.015 57.2383 133.607 57.2383C134.454 57.2383 135.176 57.388 135.775 57.6875C136.374 57.987 136.833 58.3874 137.152 58.8887C137.471 59.3835 137.631 59.9336 137.631 60.5391H135.824C135.824 60.2461 135.736 59.9629 135.561 59.6895C135.391 59.4095 135.141 59.1784 134.809 58.9961C134.483 58.8138 134.083 58.7227 133.607 58.7227C133.106 58.7227 132.699 58.8008 132.387 58.957C132.081 59.1068 131.856 59.2988 131.713 59.5332C131.576 59.7676 131.508 60.015 131.508 60.2754C131.508 60.4707 131.54 60.6465 131.605 60.8027C131.677 60.9525 131.801 61.0924 131.977 61.2227C132.152 61.3464 132.4 61.4635 132.719 61.5742C133.038 61.6849 133.445 61.7956 133.939 61.9062C134.805 62.1016 135.518 62.3359 136.078 62.6094C136.638 62.8828 137.055 63.2181 137.328 63.6152C137.602 64.0124 137.738 64.4941 137.738 65.0605C137.738 65.5228 137.641 65.946 137.445 66.3301C137.257 66.7142 136.98 67.0462 136.615 67.3262C136.257 67.5996 135.827 67.8145 135.326 67.9707C134.831 68.1204 134.275 68.1953 133.656 68.1953C132.725 68.1953 131.938 68.0293 131.293 67.6973C130.648 67.3652 130.16 66.9355 129.828 66.4082C129.496 65.8809 129.33 65.3242 129.33 64.7383H131.146C131.173 65.2331 131.316 65.627 131.576 65.9199C131.837 66.2064 132.156 66.4115 132.533 66.5352C132.911 66.6523 133.285 66.7109 133.656 66.7109C134.151 66.7109 134.564 66.6458 134.896 66.5156C135.235 66.3854 135.492 66.2064 135.668 65.9785C135.844 65.7507 135.932 65.4902 135.932 65.1973ZM142.074 57.4336V68H140.258V57.4336H142.074ZM140.121 54.6309C140.121 54.3379 140.209 54.0905 140.385 53.8887C140.567 53.6868 140.834 53.5859 141.186 53.5859C141.531 53.5859 141.794 53.6868 141.977 53.8887C142.165 54.0905 142.26 54.3379 142.26 54.6309C142.26 54.9108 142.165 55.1517 141.977 55.3535C141.794 55.5488 141.531 55.6465 141.186 55.6465C140.834 55.6465 140.567 55.5488 140.385 55.3535C140.209 55.1517 140.121 54.9108 140.121 54.6309ZM144.496 62.834V62.6094C144.496 61.8477 144.607 61.1413 144.828 60.4902C145.049 59.8327 145.368 59.263 145.785 58.7812C146.202 58.293 146.706 57.9154 147.299 57.6484C147.891 57.375 148.555 57.2383 149.291 57.2383C150.033 57.2383 150.701 57.375 151.293 57.6484C151.892 57.9154 152.4 58.293 152.816 58.7812C153.24 59.263 153.562 59.8327 153.783 60.4902C154.005 61.1413 154.115 61.8477 154.115 62.6094V62.834C154.115 63.5957 154.005 64.3021 153.783 64.9531C153.562 65.6042 153.24 66.1738 152.816 66.6621C152.4 67.1439 151.895 67.5215 151.303 67.7949C150.717 68.0618 150.053 68.1953 149.311 68.1953C148.568 68.1953 147.901 68.0618 147.309 67.7949C146.716 67.5215 146.208 67.1439 145.785 66.6621C145.368 66.1738 145.049 65.6042 144.828 64.9531C144.607 64.3021 144.496 63.5957 144.496 62.834ZM146.303 62.6094V62.834C146.303 63.3613 146.365 63.8594 146.488 64.3281C146.612 64.7904 146.798 65.2005 147.045 65.5586C147.299 65.9167 147.615 66.1999 147.992 66.4082C148.37 66.61 148.809 66.7109 149.311 66.7109C149.805 66.7109 150.238 66.61 150.609 66.4082C150.987 66.1999 151.299 65.9167 151.547 65.5586C151.794 65.2005 151.98 64.7904 152.104 64.3281C152.234 63.8594 152.299 63.3613 152.299 62.834V62.6094C152.299 62.0885 152.234 61.597 152.104 61.1348C151.98 60.666 151.791 60.2526 151.537 59.8945C151.29 59.5299 150.977 59.2435 150.6 59.0352C150.229 58.8268 149.792 58.7227 149.291 58.7227C148.796 58.7227 148.36 58.8268 147.982 59.0352C147.611 59.2435 147.299 59.5299 147.045 59.8945C146.798 60.2526 146.612 60.666 146.488 61.1348C146.365 61.597 146.303 62.0885 146.303 62.6094ZM158.188 59.6895V68H156.381V57.4336H158.09L158.188 59.6895ZM157.758 62.3164L157.006 62.2871C157.012 61.5645 157.12 60.8971 157.328 60.2852C157.536 59.6667 157.829 59.1296 158.207 58.6738C158.585 58.2181 159.034 57.8665 159.555 57.6191C160.082 57.3652 160.665 57.2383 161.303 57.2383C161.824 57.2383 162.292 57.3099 162.709 57.4531C163.126 57.5898 163.48 57.8112 163.773 58.1172C164.073 58.4232 164.301 58.8203 164.457 59.3086C164.613 59.7904 164.691 60.3796 164.691 61.0762V68H162.875V61.0566C162.875 60.5033 162.794 60.0605 162.631 59.7285C162.468 59.39 162.23 59.1458 161.918 58.9961C161.605 58.8398 161.221 58.7617 160.766 58.7617C160.316 58.7617 159.906 58.8561 159.535 59.0449C159.171 59.2337 158.855 59.4941 158.588 59.8262C158.327 60.1582 158.122 60.5391 157.973 60.9688C157.829 61.3919 157.758 61.8411 157.758 62.3164ZM175.092 68H173.285V56.3203C173.285 55.5586 173.422 54.9173 173.695 54.3965C173.975 53.8691 174.376 53.472 174.896 53.2051C175.417 52.9316 176.036 52.7949 176.752 52.7949C176.96 52.7949 177.169 52.8079 177.377 52.834C177.592 52.86 177.8 52.8991 178.002 52.9512L177.904 54.4258C177.768 54.3932 177.611 54.3704 177.436 54.3574C177.266 54.3444 177.097 54.3379 176.928 54.3379C176.544 54.3379 176.212 54.416 175.932 54.5723C175.658 54.722 175.45 54.9434 175.307 55.2363C175.163 55.5293 175.092 55.8906 175.092 56.3203V68ZM177.338 57.4336V58.8203H171.615V57.4336H177.338ZM178.871 62.834V62.6094C178.871 61.8477 178.982 61.1413 179.203 60.4902C179.424 59.8327 179.743 59.263 180.16 58.7812C180.577 58.293 181.081 57.9154 181.674 57.6484C182.266 57.375 182.93 57.2383 183.666 57.2383C184.408 57.2383 185.076 57.375 185.668 57.6484C186.267 57.9154 186.775 58.293 187.191 58.7812C187.615 59.263 187.937 59.8327 188.158 60.4902C188.38 61.1413 188.49 61.8477 188.49 62.6094V62.834C188.49 63.5957 188.38 64.3021 188.158 64.9531C187.937 65.6042 187.615 66.1738 187.191 66.6621C186.775 67.1439 186.27 67.5215 185.678 67.7949C185.092 68.0618 184.428 68.1953 183.686 68.1953C182.943 68.1953 182.276 68.0618 181.684 67.7949C181.091 67.5215 180.583 67.1439 180.16 66.6621C179.743 66.1738 179.424 65.6042 179.203 64.9531C178.982 64.3021 178.871 63.5957 178.871 62.834ZM180.678 62.6094V62.834C180.678 63.3613 180.74 63.8594 180.863 64.3281C180.987 64.7904 181.173 65.2005 181.42 65.5586C181.674 65.9167 181.99 66.1999 182.367 66.4082C182.745 66.61 183.184 66.7109 183.686 66.7109C184.18 66.7109 184.613 66.61 184.984 66.4082C185.362 66.1999 185.674 65.9167 185.922 65.5586C186.169 65.2005 186.355 64.7904 186.479 64.3281C186.609 63.8594 186.674 63.3613 186.674 62.834V62.6094C186.674 62.0885 186.609 61.597 186.479 61.1348C186.355 60.666 186.166 60.2526 185.912 59.8945C185.665 59.5299 185.352 59.2435 184.975 59.0352C184.604 58.8268 184.167 58.7227 183.666 58.7227C183.171 58.7227 182.735 58.8268 182.357 59.0352C181.986 59.2435 181.674 59.5299 181.42 59.8945C181.173 60.2526 180.987 60.666 180.863 61.1348C180.74 61.597 180.678 62.0885 180.678 62.6094ZM192.562 59.0938V68H190.756V57.4336H192.514L192.562 59.0938ZM195.863 57.375L195.854 59.0547C195.704 59.0221 195.561 59.0026 195.424 58.9961C195.294 58.9831 195.144 58.9766 194.975 58.9766C194.558 58.9766 194.19 59.0417 193.871 59.1719C193.552 59.3021 193.282 59.4844 193.061 59.7188C192.839 59.9531 192.663 60.2331 192.533 60.5586C192.41 60.8776 192.328 61.2292 192.289 61.6133L191.781 61.9062C191.781 61.2682 191.843 60.6693 191.967 60.1094C192.097 59.5495 192.296 59.0547 192.562 58.625C192.829 58.1888 193.168 57.8503 193.578 57.6094C193.995 57.362 194.49 57.2383 195.062 57.2383C195.193 57.2383 195.342 57.2546 195.512 57.2871C195.681 57.3132 195.798 57.3424 195.863 57.375ZM206.918 57.4336V58.8203H201.205V57.4336H206.918ZM203.139 54.8652H204.945V65.3828C204.945 65.7409 205.001 66.0111 205.111 66.1934C205.222 66.3757 205.365 66.4961 205.541 66.5547C205.717 66.6133 205.906 66.6426 206.107 66.6426C206.257 66.6426 206.413 66.6296 206.576 66.6035C206.745 66.571 206.872 66.5449 206.957 66.5254L206.967 68C206.824 68.0456 206.635 68.0879 206.4 68.127C206.173 68.1725 205.896 68.1953 205.57 68.1953C205.128 68.1953 204.721 68.1074 204.35 67.9316C203.979 67.7559 203.682 67.4629 203.461 67.0527C203.246 66.6361 203.139 66.0762 203.139 65.373V54.8652ZM210.844 53V68H209.037V53H210.844ZM210.414 62.3164L209.662 62.2871C209.669 61.5645 209.776 60.8971 209.984 60.2852C210.193 59.6667 210.486 59.1296 210.863 58.6738C211.241 58.2181 211.69 57.8665 212.211 57.6191C212.738 57.3652 213.321 57.2383 213.959 57.2383C214.48 57.2383 214.949 57.3099 215.365 57.4531C215.782 57.5898 216.137 57.8112 216.43 58.1172C216.729 58.4232 216.957 58.8203 217.113 59.3086C217.27 59.7904 217.348 60.3796 217.348 61.0762V68H215.531V61.0566C215.531 60.5033 215.45 60.0605 215.287 59.7285C215.124 59.39 214.887 59.1458 214.574 58.9961C214.262 58.8398 213.878 58.7617 213.422 58.7617C212.973 58.7617 212.562 58.8561 212.191 59.0449C211.827 59.2337 211.511 59.4941 211.244 59.8262C210.984 60.1582 210.779 60.5391 210.629 60.9688C210.486 61.3919 210.414 61.8411 210.414 62.3164ZM224.438 68.1953C223.702 68.1953 223.035 68.0716 222.436 67.8242C221.843 67.5703 221.332 67.2155 220.902 66.7598C220.479 66.304 220.154 65.7637 219.926 65.1387C219.698 64.5137 219.584 63.8301 219.584 63.0879V62.6777C219.584 61.8184 219.711 61.0534 219.965 60.3828C220.219 59.7057 220.564 59.1328 221 58.6641C221.436 58.1953 221.931 57.8405 222.484 57.5996C223.038 57.3587 223.611 57.2383 224.203 57.2383C224.958 57.2383 225.609 57.3685 226.156 57.6289C226.71 57.8893 227.162 58.2539 227.514 58.7227C227.865 59.1849 228.126 59.7318 228.295 60.3633C228.464 60.9883 228.549 61.6719 228.549 62.4141V63.2246H220.658V61.75H226.742V61.6133C226.716 61.1445 226.618 60.6888 226.449 60.2461C226.286 59.8034 226.026 59.4388 225.668 59.1523C225.31 58.8659 224.822 58.7227 224.203 58.7227C223.793 58.7227 223.415 58.8105 223.07 58.9863C222.725 59.1556 222.429 59.4095 222.182 59.748C221.934 60.0866 221.742 60.5 221.605 60.9883C221.469 61.4766 221.4 62.0397 221.4 62.6777V63.0879C221.4 63.5892 221.469 64.0612 221.605 64.5039C221.749 64.9401 221.954 65.3242 222.221 65.6562C222.494 65.9883 222.823 66.2487 223.207 66.4375C223.598 66.6263 224.04 66.7207 224.535 66.7207C225.173 66.7207 225.714 66.5905 226.156 66.3301C226.599 66.0697 226.986 65.7214 227.318 65.2852L228.412 66.1543C228.184 66.4993 227.895 66.8281 227.543 67.1406C227.191 67.4531 226.758 67.707 226.244 67.9023C225.736 68.0977 225.134 68.1953 224.438 68.1953ZM237.777 53.7812V68H235.893V53.7812H237.777ZM243.734 60.1777V61.7207H237.367V60.1777H243.734ZM244.701 53.7812V55.3242H237.367V53.7812H244.701ZM248.227 59.0938V68H246.42V57.4336H248.178L248.227 59.0938ZM251.527 57.375L251.518 59.0547C251.368 59.0221 251.225 59.0026 251.088 58.9961C250.958 58.9831 250.808 58.9766 250.639 58.9766C250.222 58.9766 249.854 59.0417 249.535 59.1719C249.216 59.3021 248.946 59.4844 248.725 59.7188C248.503 59.9531 248.327 60.2331 248.197 60.5586C248.074 60.8776 247.992 61.2292 247.953 61.6133L247.445 61.9062C247.445 61.2682 247.507 60.6693 247.631 60.1094C247.761 59.5495 247.96 59.0547 248.227 58.625C248.493 58.1888 248.832 57.8503 249.242 57.6094C249.659 57.362 250.154 57.2383 250.727 57.2383C250.857 57.2383 251.007 57.2546 251.176 57.2871C251.345 57.3132 251.462 57.3424 251.527 57.375ZM257.387 68.1953C256.651 68.1953 255.984 68.0716 255.385 67.8242C254.792 67.5703 254.281 67.2155 253.852 66.7598C253.428 66.304 253.103 65.7637 252.875 65.1387C252.647 64.5137 252.533 63.8301 252.533 63.0879V62.6777C252.533 61.8184 252.66 61.0534 252.914 60.3828C253.168 59.7057 253.513 59.1328 253.949 58.6641C254.385 58.1953 254.88 57.8405 255.434 57.5996C255.987 57.3587 256.56 57.2383 257.152 57.2383C257.908 57.2383 258.559 57.3685 259.105 57.6289C259.659 57.8893 260.111 58.2539 260.463 58.7227C260.814 59.1849 261.075 59.7318 261.244 60.3633C261.413 60.9883 261.498 61.6719 261.498 62.4141V63.2246H253.607V61.75H259.691V61.6133C259.665 61.1445 259.568 60.6888 259.398 60.2461C259.236 59.8034 258.975 59.4388 258.617 59.1523C258.259 58.8659 257.771 58.7227 257.152 58.7227C256.742 58.7227 256.365 58.8105 256.02 58.9863C255.674 59.1556 255.378 59.4095 255.131 59.748C254.883 60.0866 254.691 60.5 254.555 60.9883C254.418 61.4766 254.35 62.0397 254.35 62.6777V63.0879C254.35 63.5892 254.418 64.0612 254.555 64.5039C254.698 64.9401 254.903 65.3242 255.17 65.6562C255.443 65.9883 255.772 66.2487 256.156 66.4375C256.547 66.6263 256.99 66.7207 257.484 66.7207C258.122 66.7207 258.663 66.5905 259.105 66.3301C259.548 66.0697 259.936 65.7214 260.268 65.2852L261.361 66.1543C261.133 66.4993 260.844 66.8281 260.492 67.1406C260.141 67.4531 259.708 67.707 259.193 67.9023C258.686 68.0977 258.083 68.1953 257.387 68.1953ZM267.992 68.1953C267.257 68.1953 266.589 68.0716 265.99 67.8242C265.398 67.5703 264.887 67.2155 264.457 66.7598C264.034 66.304 263.708 65.7637 263.48 65.1387C263.253 64.5137 263.139 63.8301 263.139 63.0879V62.6777C263.139 61.8184 263.266 61.0534 263.52 60.3828C263.773 59.7057 264.118 59.1328 264.555 58.6641C264.991 58.1953 265.486 57.8405 266.039 57.5996C266.592 57.3587 267.165 57.2383 267.758 57.2383C268.513 57.2383 269.164 57.3685 269.711 57.6289C270.264 57.8893 270.717 58.2539 271.068 58.7227C271.42 59.1849 271.68 59.7318 271.85 60.3633C272.019 60.9883 272.104 61.6719 272.104 62.4141V63.2246H264.213V61.75H270.297V61.6133C270.271 61.1445 270.173 60.6888 270.004 60.2461C269.841 59.8034 269.581 59.4388 269.223 59.1523C268.865 58.8659 268.376 58.7227 267.758 58.7227C267.348 58.7227 266.97 58.8105 266.625 58.9863C266.28 59.1556 265.984 59.4095 265.736 59.748C265.489 60.0866 265.297 60.5 265.16 60.9883C265.023 61.4766 264.955 62.0397 264.955 62.6777V63.0879C264.955 63.5892 265.023 64.0612 265.16 64.5039C265.303 64.9401 265.508 65.3242 265.775 65.6562C266.049 65.9883 266.378 66.2487 266.762 66.4375C267.152 66.6263 267.595 66.7207 268.09 66.7207C268.728 66.7207 269.268 66.5905 269.711 66.3301C270.154 66.0697 270.541 65.7214 270.873 65.2852L271.967 66.1543C271.739 66.4993 271.449 66.8281 271.098 67.1406C270.746 67.4531 270.313 67.707 269.799 67.9023C269.291 68.0977 268.689 68.1953 267.992 68.1953ZM278.334 68H275.365L275.385 66.4668H278.334C279.35 66.4668 280.196 66.2552 280.873 65.832C281.55 65.4023 282.058 64.8034 282.396 64.0352C282.742 63.2604 282.914 62.3555 282.914 61.3203V60.4512C282.914 59.6374 282.816 58.9147 282.621 58.2832C282.426 57.6452 282.139 57.1081 281.762 56.6719C281.384 56.2292 280.922 55.8939 280.375 55.666C279.835 55.4382 279.213 55.3242 278.51 55.3242H275.307V53.7812H278.51C279.441 53.7812 280.29 53.9375 281.059 54.25C281.827 54.556 282.488 55.002 283.041 55.5879C283.601 56.1673 284.031 56.8704 284.33 57.6973C284.63 58.5176 284.779 59.4421 284.779 60.4707V61.3203C284.779 62.349 284.63 63.2767 284.33 64.1035C284.031 64.9238 283.598 65.6237 283.031 66.2031C282.471 66.7826 281.794 67.2285 281 67.541C280.212 67.847 279.324 68 278.334 68ZM276.371 53.7812V68H274.486V53.7812H276.371ZM289.301 57.4336V68H287.484V57.4336H289.301ZM287.348 54.6309C287.348 54.3379 287.436 54.0905 287.611 53.8887C287.794 53.6868 288.061 53.5859 288.412 53.5859C288.757 53.5859 289.021 53.6868 289.203 53.8887C289.392 54.0905 289.486 54.3379 289.486 54.6309C289.486 54.9108 289.392 55.1517 289.203 55.3535C289.021 55.5488 288.757 55.6465 288.412 55.6465C288.061 55.6465 287.794 55.5488 287.611 55.3535C287.436 55.1517 287.348 54.9108 287.348 54.6309ZM20.0527 96.125L22.7676 87.4336H23.959L23.7246 89.1621L20.9609 98H19.7988L20.0527 96.125ZM18.2266 87.4336L20.541 96.2227L20.707 98H19.4863L16.4199 87.4336H18.2266ZM26.5566 96.1543L28.7637 87.4336H30.5605L27.4941 98H26.2832L26.5566 96.1543ZM24.2227 87.4336L26.8789 95.9785L27.1816 98H26.0293L23.1875 89.1426L22.9531 87.4336H24.2227ZM36.8008 98.1953C36.0651 98.1953 35.3978 98.0716 34.7988 97.8242C34.2064 97.5703 33.6953 97.2155 33.2656 96.7598C32.8424 96.304 32.5169 95.7637 32.2891 95.1387C32.0612 94.5137 31.9473 93.8301 31.9473 93.0879V92.6777C31.9473 91.8184 32.0742 91.0534 32.3281 90.3828C32.582 89.7057 32.9271 89.1328 33.3633 88.6641C33.7995 88.1953 34.2943 87.8405 34.8477 87.5996C35.401 87.3587 35.974 87.2383 36.5664 87.2383C37.3216 87.2383 37.9727 87.3685 38.5195 87.6289C39.0729 87.8893 39.5254 88.2539 39.877 88.7227C40.2285 89.1849 40.4889 89.7318 40.6582 90.3633C40.8275 90.9883 40.9121 91.6719 40.9121 92.4141V93.2246H33.0215V91.75H39.1055V91.6133C39.0794 91.1445 38.9818 90.6888 38.8125 90.2461C38.6497 89.8034 38.3893 89.4388 38.0312 89.1523C37.6732 88.8659 37.1849 88.7227 36.5664 88.7227C36.1562 88.7227 35.7786 88.8105 35.4336 88.9863C35.0885 89.1556 34.7923 89.4095 34.5449 89.748C34.2975 90.0866 34.1055 90.5 33.9688 90.9883C33.832 91.4766 33.7637 92.0397 33.7637 92.6777V93.0879C33.7637 93.5892 33.832 94.0612 33.9688 94.5039C34.112 94.9401 34.3171 95.3242 34.584 95.6562C34.8574 95.9883 35.1862 96.2487 35.5703 96.4375C35.9609 96.6263 36.4036 96.7207 36.8984 96.7207C37.5365 96.7207 38.0768 96.5905 38.5195 96.3301C38.9622 96.0697 39.3496 95.7214 39.6816 95.2852L40.7754 96.1543C40.5475 96.4993 40.2578 96.8281 39.9062 97.1406C39.5547 97.4531 39.1217 97.707 38.6074 97.9023C38.0996 98.0977 37.4974 98.1953 36.8008 98.1953ZM43.0117 83H44.8281V95.9492L44.6719 98H43.0117V83ZM51.9668 92.6289V92.834C51.9668 93.6022 51.8757 94.3151 51.6934 94.9727C51.5111 95.6237 51.2441 96.1901 50.8926 96.6719C50.541 97.1536 50.1113 97.528 49.6035 97.7949C49.0957 98.0618 48.513 98.1953 47.8555 98.1953C47.1849 98.1953 46.5957 98.0814 46.0879 97.8535C45.5866 97.6191 45.1634 97.2839 44.8184 96.8477C44.4733 96.4115 44.1966 95.8841 43.9883 95.2656C43.7865 94.6471 43.6465 93.9505 43.5684 93.1758V92.2773C43.6465 91.4961 43.7865 90.7962 43.9883 90.1777C44.1966 89.5592 44.4733 89.0319 44.8184 88.5957C45.1634 88.153 45.5866 87.8177 46.0879 87.5898C46.5892 87.3555 47.1719 87.2383 47.8359 87.2383C48.5 87.2383 49.0892 87.3685 49.6035 87.6289C50.1178 87.8828 50.5475 88.2474 50.8926 88.7227C51.2441 89.1979 51.5111 89.7676 51.6934 90.4316C51.8757 91.0892 51.9668 91.8216 51.9668 92.6289ZM50.1504 92.834V92.6289C50.1504 92.1016 50.1016 91.6068 50.0039 91.1445C49.9062 90.6758 49.75 90.2656 49.5352 89.9141C49.3203 89.556 49.0371 89.276 48.6855 89.0742C48.334 88.8659 47.901 88.7617 47.3867 88.7617C46.931 88.7617 46.5339 88.8398 46.1953 88.9961C45.8633 89.1523 45.5801 89.3639 45.3457 89.6309C45.1113 89.8913 44.9193 90.1908 44.7695 90.5293C44.6263 90.8613 44.5189 91.2064 44.4473 91.5645V93.918C44.5514 94.3737 44.7207 94.8132 44.9551 95.2363C45.196 95.653 45.515 95.9948 45.9121 96.2617C46.3158 96.5286 46.8138 96.6621 47.4062 96.6621C47.8945 96.6621 48.3112 96.5645 48.6562 96.3691C49.0078 96.1673 49.291 95.8906 49.5059 95.5391C49.7272 95.1875 49.89 94.7806 49.9941 94.3184C50.0983 93.8561 50.1504 93.3613 50.1504 92.834ZM65.4434 96.1934V90.7539C65.4434 90.3372 65.3587 89.9759 65.1895 89.6699C65.0267 89.3574 64.7793 89.1165 64.4473 88.9473C64.1152 88.778 63.7051 88.6934 63.2168 88.6934C62.7611 88.6934 62.3607 88.7715 62.0156 88.9277C61.6771 89.084 61.4102 89.2891 61.2148 89.543C61.026 89.7969 60.9316 90.0703 60.9316 90.3633H59.125C59.125 89.9857 59.2227 89.6113 59.418 89.2402C59.6133 88.8691 59.8932 88.5339 60.2578 88.2344C60.6289 87.9284 61.0716 87.6875 61.5859 87.5117C62.1068 87.3294 62.6862 87.2383 63.3242 87.2383C64.0924 87.2383 64.7695 87.3685 65.3555 87.6289C65.9479 87.8893 66.4102 88.2832 66.7422 88.8105C67.0807 89.3314 67.25 89.9857 67.25 90.7734V95.6953C67.25 96.0469 67.2793 96.4212 67.3379 96.8184C67.403 97.2155 67.4974 97.5573 67.6211 97.8438V98H65.7363C65.6452 97.7917 65.5736 97.515 65.5215 97.1699C65.4694 96.8184 65.4434 96.4928 65.4434 96.1934ZM65.7559 91.5938L65.7754 92.8633H63.9492C63.4349 92.8633 62.9759 92.9056 62.5723 92.9902C62.1686 93.0684 61.8301 93.1888 61.5566 93.3516C61.2832 93.5143 61.0749 93.7194 60.9316 93.9668C60.7884 94.2077 60.7168 94.4909 60.7168 94.8164C60.7168 95.1484 60.7917 95.4512 60.9414 95.7246C61.0911 95.998 61.3158 96.2161 61.6152 96.3789C61.9212 96.5352 62.2956 96.6133 62.7383 96.6133C63.2917 96.6133 63.7799 96.4961 64.2031 96.2617C64.6263 96.0273 64.9616 95.7409 65.209 95.4023C65.4629 95.0638 65.5996 94.735 65.6191 94.416L66.3906 95.2852C66.3451 95.5586 66.2214 95.8613 66.0195 96.1934C65.8177 96.5254 65.5475 96.8444 65.209 97.1504C64.877 97.4499 64.4798 97.7005 64.0176 97.9023C63.5618 98.0977 63.0475 98.1953 62.4746 98.1953C61.7585 98.1953 61.1302 98.0553 60.5898 97.7754C60.056 97.4954 59.6393 97.1211 59.3398 96.6523C59.0469 96.1771 58.9004 95.6465 58.9004 95.0605C58.9004 94.4941 59.0111 93.9961 59.2324 93.5664C59.4538 93.1302 59.7728 92.7689 60.1895 92.4824C60.6061 92.1895 61.1074 91.9681 61.6934 91.8184C62.2793 91.6686 62.9336 91.5938 63.6562 91.5938H65.7559ZM71.8984 89.4648V102.062H70.082V87.4336H71.7422L71.8984 89.4648ZM79.0176 92.6289V92.834C79.0176 93.6022 78.9264 94.3151 78.7441 94.9727C78.5618 95.6237 78.2949 96.1901 77.9434 96.6719C77.5983 97.1536 77.1719 97.528 76.6641 97.7949C76.1562 98.0618 75.5736 98.1953 74.916 98.1953C74.2454 98.1953 73.653 98.0846 73.1387 97.8633C72.6243 97.6419 72.1882 97.3197 71.8301 96.8965C71.472 96.4733 71.1855 95.9655 70.9707 95.373C70.7624 94.7806 70.6191 94.1133 70.541 93.3711V92.2773C70.6191 91.4961 70.7656 90.7962 70.9805 90.1777C71.1953 89.5592 71.4785 89.0319 71.8301 88.5957C72.1882 88.153 72.6211 87.8177 73.1289 87.5898C73.6367 87.3555 74.2227 87.2383 74.8867 87.2383C75.5508 87.2383 76.14 87.3685 76.6543 87.6289C77.1686 87.8828 77.6016 88.2474 77.9531 88.7227C78.3047 89.1979 78.5684 89.7676 78.7441 90.4316C78.9264 91.0892 79.0176 91.8216 79.0176 92.6289ZM77.2012 92.834V92.6289C77.2012 92.1016 77.1458 91.6068 77.0352 91.1445C76.9245 90.6758 76.752 90.2656 76.5176 89.9141C76.2897 89.556 75.9967 89.276 75.6387 89.0742C75.2806 88.8659 74.8542 88.7617 74.3594 88.7617C73.9036 88.7617 73.5065 88.8398 73.168 88.9961C72.8359 89.1523 72.5527 89.3639 72.3184 89.6309C72.084 89.8913 71.8919 90.1908 71.7422 90.5293C71.599 90.8613 71.4915 91.2064 71.4199 91.5645V94.0938C71.5501 94.5495 71.7324 94.9792 71.9668 95.3828C72.2012 95.7799 72.5137 96.1022 72.9043 96.3496C73.2949 96.5905 73.7865 96.7109 74.3789 96.7109C74.8672 96.7109 75.2871 96.61 75.6387 96.4082C75.9967 96.1999 76.2897 95.9167 76.5176 95.5586C76.752 95.2005 76.9245 94.7904 77.0352 94.3281C77.1458 93.8594 77.2012 93.3613 77.2012 92.834ZM83.1289 89.4648V102.062H81.3125V87.4336H82.9727L83.1289 89.4648ZM90.248 92.6289V92.834C90.248 93.6022 90.1569 94.3151 89.9746 94.9727C89.7923 95.6237 89.5254 96.1901 89.1738 96.6719C88.8288 97.1536 88.4023 97.528 87.8945 97.7949C87.3867 98.0618 86.804 98.1953 86.1465 98.1953C85.4759 98.1953 84.8835 98.0846 84.3691 97.8633C83.8548 97.6419 83.4186 97.3197 83.0605 96.8965C82.7025 96.4733 82.416 95.9655 82.2012 95.373C81.9928 94.7806 81.8496 94.1133 81.7715 93.3711V92.2773C81.8496 91.4961 81.9961 90.7962 82.2109 90.1777C82.4258 89.5592 82.709 89.0319 83.0605 88.5957C83.4186 88.153 83.8516 87.8177 84.3594 87.5898C84.8672 87.3555 85.4531 87.2383 86.1172 87.2383C86.7812 87.2383 87.3704 87.3685 87.8848 87.6289C88.3991 87.8828 88.832 88.2474 89.1836 88.7227C89.5352 89.1979 89.7988 89.7676 89.9746 90.4316C90.1569 91.0892 90.248 91.8216 90.248 92.6289ZM88.4316 92.834V92.6289C88.4316 92.1016 88.3763 91.6068 88.2656 91.1445C88.1549 90.6758 87.9824 90.2656 87.748 89.9141C87.5202 89.556 87.2272 89.276 86.8691 89.0742C86.5111 88.8659 86.0846 88.7617 85.5898 88.7617C85.1341 88.7617 84.737 88.8398 84.3984 88.9961C84.0664 89.1523 83.7832 89.3639 83.5488 89.6309C83.3145 89.8913 83.1224 90.1908 82.9727 90.5293C82.8294 90.8613 82.722 91.2064 82.6504 91.5645V94.0938C82.7806 94.5495 82.9629 94.9792 83.1973 95.3828C83.4316 95.7799 83.7441 96.1022 84.1348 96.3496C84.5254 96.5905 85.0169 96.7109 85.6094 96.7109C86.0977 96.7109 86.5176 96.61 86.8691 96.4082C87.2272 96.1999 87.5202 95.9167 87.748 95.5586C87.9824 95.2005 88.1549 94.7904 88.2656 94.3281C88.3763 93.8594 88.4316 93.3613 88.4316 92.834ZM97.0352 92.834V92.6094C97.0352 91.8477 97.1458 91.1413 97.3672 90.4902C97.5885 89.8327 97.9076 89.263 98.3242 88.7812C98.7409 88.293 99.2454 87.9154 99.8379 87.6484C100.43 87.375 101.094 87.2383 101.83 87.2383C102.572 87.2383 103.24 87.375 103.832 87.6484C104.431 87.9154 104.939 88.293 105.355 88.7812C105.779 89.263 106.101 89.8327 106.322 90.4902C106.544 91.1413 106.654 91.8477 106.654 92.6094V92.834C106.654 93.5957 106.544 94.3021 106.322 94.9531C106.101 95.6042 105.779 96.1738 105.355 96.6621C104.939 97.1439 104.434 97.5215 103.842 97.7949C103.256 98.0618 102.592 98.1953 101.85 98.1953C101.107 98.1953 100.44 98.0618 99.8477 97.7949C99.2552 97.5215 98.7474 97.1439 98.3242 96.6621C97.9076 96.1738 97.5885 95.6042 97.3672 94.9531C97.1458 94.3021 97.0352 93.5957 97.0352 92.834ZM98.8418 92.6094V92.834C98.8418 93.3613 98.9036 93.8594 99.0273 94.3281C99.151 94.7904 99.3366 95.2005 99.584 95.5586C99.8379 95.9167 100.154 96.1999 100.531 96.4082C100.909 96.61 101.348 96.7109 101.85 96.7109C102.344 96.7109 102.777 96.61 103.148 96.4082C103.526 96.1999 103.839 95.9167 104.086 95.5586C104.333 95.2005 104.519 94.7904 104.643 94.3281C104.773 93.8594 104.838 93.3613 104.838 92.834V92.6094C104.838 92.0885 104.773 91.597 104.643 91.1348C104.519 90.666 104.33 90.2526 104.076 89.8945C103.829 89.5299 103.516 89.2435 103.139 89.0352C102.768 88.8268 102.331 88.7227 101.83 88.7227C101.335 88.7227 100.899 88.8268 100.521 89.0352C100.15 89.2435 99.8379 89.5299 99.584 89.8945C99.3366 90.2526 99.151 90.666 99.0273 91.1348C98.9036 91.597 98.8418 92.0885 98.8418 92.6094ZM110.727 89.6895V98H108.92V87.4336H110.629L110.727 89.6895ZM110.297 92.3164L109.545 92.2871C109.551 91.5645 109.659 90.8971 109.867 90.2852C110.076 89.6667 110.368 89.1296 110.746 88.6738C111.124 88.2181 111.573 87.8665 112.094 87.6191C112.621 87.3652 113.204 87.2383 113.842 87.2383C114.363 87.2383 114.831 87.3099 115.248 87.4531C115.665 87.5898 116.02 87.8112 116.312 88.1172C116.612 88.4232 116.84 88.8203 116.996 89.3086C117.152 89.7904 117.23 90.3796 117.23 91.0762V98H115.414V91.0566C115.414 90.5033 115.333 90.0605 115.17 89.7285C115.007 89.39 114.77 89.1458 114.457 88.9961C114.145 88.8398 113.76 88.7617 113.305 88.7617C112.855 88.7617 112.445 88.8561 112.074 89.0449C111.71 89.2337 111.394 89.4941 111.127 89.8262C110.867 90.1582 110.661 90.5391 110.512 90.9688C110.368 91.3919 110.297 91.8411 110.297 92.3164ZM127.904 96.9062L130.844 87.4336H132.777L128.539 99.6309C128.441 99.8913 128.311 100.171 128.148 100.471C127.992 100.777 127.79 101.066 127.543 101.34C127.296 101.613 126.996 101.835 126.645 102.004C126.299 102.18 125.886 102.268 125.404 102.268C125.261 102.268 125.079 102.248 124.857 102.209C124.636 102.17 124.48 102.137 124.389 102.111L124.379 100.646C124.431 100.653 124.512 100.66 124.623 100.666C124.74 100.679 124.822 100.686 124.867 100.686C125.277 100.686 125.626 100.63 125.912 100.52C126.199 100.415 126.439 100.236 126.635 99.9824C126.837 99.735 127.009 99.3932 127.152 98.957L127.904 96.9062ZM125.746 87.4336L128.49 95.6367L128.959 97.541L127.66 98.2051L123.773 87.4336H125.746ZM133.773 92.834V92.6094C133.773 91.8477 133.884 91.1413 134.105 90.4902C134.327 89.8327 134.646 89.263 135.062 88.7812C135.479 88.293 135.984 87.9154 136.576 87.6484C137.169 87.375 137.833 87.2383 138.568 87.2383C139.311 87.2383 139.978 87.375 140.57 87.6484C141.169 87.9154 141.677 88.293 142.094 88.7812C142.517 89.263 142.839 89.8327 143.061 90.4902C143.282 91.1413 143.393 91.8477 143.393 92.6094V92.834C143.393 93.5957 143.282 94.3021 143.061 94.9531C142.839 95.6042 142.517 96.1738 142.094 96.6621C141.677 97.1439 141.173 97.5215 140.58 97.7949C139.994 98.0618 139.33 98.1953 138.588 98.1953C137.846 98.1953 137.178 98.0618 136.586 97.7949C135.993 97.5215 135.486 97.1439 135.062 96.6621C134.646 96.1738 134.327 95.6042 134.105 94.9531C133.884 94.3021 133.773 93.5957 133.773 92.834ZM135.58 92.6094V92.834C135.58 93.3613 135.642 93.8594 135.766 94.3281C135.889 94.7904 136.075 95.2005 136.322 95.5586C136.576 95.9167 136.892 96.1999 137.27 96.4082C137.647 96.61 138.087 96.7109 138.588 96.7109C139.083 96.7109 139.516 96.61 139.887 96.4082C140.264 96.1999 140.577 95.9167 140.824 95.5586C141.072 95.2005 141.257 94.7904 141.381 94.3281C141.511 93.8594 141.576 93.3613 141.576 92.834V92.6094C141.576 92.0885 141.511 91.597 141.381 91.1348C141.257 90.666 141.068 90.2526 140.814 89.8945C140.567 89.5299 140.255 89.2435 139.877 89.0352C139.506 88.8268 139.07 88.7227 138.568 88.7227C138.074 88.7227 137.637 88.8268 137.26 89.0352C136.889 89.2435 136.576 89.5299 136.322 89.8945C136.075 90.2526 135.889 90.666 135.766 91.1348C135.642 91.597 135.58 92.0885 135.58 92.6094ZM152.123 95.5586V87.4336H153.939V98H152.211L152.123 95.5586ZM152.465 93.332L153.217 93.3125C153.217 94.0156 153.142 94.6667 152.992 95.2656C152.849 95.8581 152.615 96.3724 152.289 96.8086C151.964 97.2448 151.537 97.5866 151.01 97.834C150.482 98.0749 149.841 98.1953 149.086 98.1953C148.572 98.1953 148.1 98.1204 147.67 97.9707C147.247 97.821 146.882 97.5898 146.576 97.2773C146.27 96.9648 146.033 96.5579 145.863 96.0566C145.701 95.5553 145.619 94.9531 145.619 94.25V87.4336H147.426V94.2695C147.426 94.7448 147.478 95.1387 147.582 95.4512C147.693 95.7572 147.839 96.0013 148.021 96.1836C148.21 96.3594 148.419 96.4831 148.646 96.5547C148.881 96.6263 149.122 96.6621 149.369 96.6621C150.137 96.6621 150.746 96.5156 151.195 96.2227C151.645 95.9232 151.967 95.5228 152.162 95.0215C152.364 94.5137 152.465 93.9505 152.465 93.332ZM158.5 89.0938V98H156.693V87.4336H158.451L158.5 89.0938ZM161.801 87.375L161.791 89.0547C161.641 89.0221 161.498 89.0026 161.361 88.9961C161.231 88.9831 161.081 88.9766 160.912 88.9766C160.495 88.9766 160.128 89.0417 159.809 89.1719C159.49 89.3021 159.219 89.4844 158.998 89.7188C158.777 89.9531 158.601 90.2331 158.471 90.5586C158.347 90.8776 158.266 91.2292 158.227 91.6133L157.719 91.9062C157.719 91.2682 157.781 90.6693 157.904 90.1094C158.035 89.5495 158.233 89.0547 158.5 88.625C158.767 88.1888 159.105 87.8503 159.516 87.6094C159.932 87.362 160.427 87.2383 161 87.2383C161.13 87.2383 161.28 87.2546 161.449 87.2871C161.618 87.3132 161.736 87.3424 161.801 87.375ZM168.422 83H170.238V95.9492L170.082 98H168.422V83ZM177.377 92.6289V92.834C177.377 93.6022 177.286 94.3151 177.104 94.9727C176.921 95.6237 176.654 96.1901 176.303 96.6719C175.951 97.1536 175.521 97.528 175.014 97.7949C174.506 98.0618 173.923 98.1953 173.266 98.1953C172.595 98.1953 172.006 98.0814 171.498 97.8535C170.997 97.6191 170.574 97.2839 170.229 96.8477C169.883 96.4115 169.607 95.8841 169.398 95.2656C169.197 94.6471 169.057 93.9505 168.979 93.1758V92.2773C169.057 91.4961 169.197 90.7962 169.398 90.1777C169.607 89.5592 169.883 89.0319 170.229 88.5957C170.574 88.153 170.997 87.8177 171.498 87.5898C171.999 87.3555 172.582 87.2383 173.246 87.2383C173.91 87.2383 174.499 87.3685 175.014 87.6289C175.528 87.8828 175.958 88.2474 176.303 88.7227C176.654 89.1979 176.921 89.7676 177.104 90.4316C177.286 91.0892 177.377 91.8216 177.377 92.6289ZM175.561 92.834V92.6289C175.561 92.1016 175.512 91.6068 175.414 91.1445C175.316 90.6758 175.16 90.2656 174.945 89.9141C174.73 89.556 174.447 89.276 174.096 89.0742C173.744 88.8659 173.311 88.7617 172.797 88.7617C172.341 88.7617 171.944 88.8398 171.605 88.9961C171.273 89.1523 170.99 89.3639 170.756 89.6309C170.521 89.8913 170.329 90.1908 170.18 90.5293C170.036 90.8613 169.929 91.2064 169.857 91.5645V93.918C169.962 94.3737 170.131 94.8132 170.365 95.2363C170.606 95.653 170.925 95.9948 171.322 96.2617C171.726 96.5286 172.224 96.6621 172.816 96.6621C173.305 96.6621 173.721 96.5645 174.066 96.3691C174.418 96.1673 174.701 95.8906 174.916 95.5391C175.137 95.1875 175.3 94.7806 175.404 94.3184C175.508 93.8561 175.561 93.3613 175.561 92.834ZM181.469 89.0938V98H179.662V87.4336H181.42L181.469 89.0938ZM184.77 87.375L184.76 89.0547C184.61 89.0221 184.467 89.0026 184.33 88.9961C184.2 88.9831 184.05 88.9766 183.881 88.9766C183.464 88.9766 183.096 89.0417 182.777 89.1719C182.458 89.3021 182.188 89.4844 181.967 89.7188C181.745 89.9531 181.57 90.2331 181.439 90.5586C181.316 90.8776 181.234 91.2292 181.195 91.6133L180.688 91.9062C180.688 91.2682 180.749 90.6693 180.873 90.1094C181.003 89.5495 181.202 89.0547 181.469 88.625C181.736 88.1888 182.074 87.8503 182.484 87.6094C182.901 87.362 183.396 87.2383 183.969 87.2383C184.099 87.2383 184.249 87.2546 184.418 87.2871C184.587 87.3132 184.704 87.3424 184.77 87.375ZM185.766 92.834V92.6094C185.766 91.8477 185.876 91.1413 186.098 90.4902C186.319 89.8327 186.638 89.263 187.055 88.7812C187.471 88.293 187.976 87.9154 188.568 87.6484C189.161 87.375 189.825 87.2383 190.561 87.2383C191.303 87.2383 191.97 87.375 192.562 87.6484C193.161 87.9154 193.669 88.293 194.086 88.7812C194.509 89.263 194.831 89.8327 195.053 90.4902C195.274 91.1413 195.385 91.8477 195.385 92.6094V92.834C195.385 93.5957 195.274 94.3021 195.053 94.9531C194.831 95.6042 194.509 96.1738 194.086 96.6621C193.669 97.1439 193.165 97.5215 192.572 97.7949C191.986 98.0618 191.322 98.1953 190.58 98.1953C189.838 98.1953 189.171 98.0618 188.578 97.7949C187.986 97.5215 187.478 97.1439 187.055 96.6621C186.638 96.1738 186.319 95.6042 186.098 94.9531C185.876 94.3021 185.766 93.5957 185.766 92.834ZM187.572 92.6094V92.834C187.572 93.3613 187.634 93.8594 187.758 94.3281C187.882 94.7904 188.067 95.2005 188.314 95.5586C188.568 95.9167 188.884 96.1999 189.262 96.4082C189.639 96.61 190.079 96.7109 190.58 96.7109C191.075 96.7109 191.508 96.61 191.879 96.4082C192.257 96.1999 192.569 95.9167 192.816 95.5586C193.064 95.2005 193.249 94.7904 193.373 94.3281C193.503 93.8594 193.568 93.3613 193.568 92.834V92.6094C193.568 92.0885 193.503 91.597 193.373 91.1348C193.249 90.666 193.061 90.2526 192.807 89.8945C192.559 89.5299 192.247 89.2435 191.869 89.0352C191.498 88.8268 191.062 88.7227 190.561 88.7227C190.066 88.7227 189.63 88.8268 189.252 89.0352C188.881 89.2435 188.568 89.5299 188.314 89.8945C188.067 90.2526 187.882 90.666 187.758 91.1348C187.634 91.597 187.572 92.0885 187.572 92.6094ZM200.326 96.125L203.041 87.4336H204.232L203.998 89.1621L201.234 98H200.072L200.326 96.125ZM198.5 87.4336L200.814 96.2227L200.98 98H199.76L196.693 87.4336H198.5ZM206.83 96.1543L209.037 87.4336H210.834L207.768 98H206.557L206.83 96.1543ZM204.496 87.4336L207.152 95.9785L207.455 98H206.303L203.461 89.1426L203.227 87.4336H204.496ZM218.842 95.1973C218.842 94.9368 218.783 94.696 218.666 94.4746C218.555 94.2467 218.324 94.0417 217.973 93.8594C217.628 93.6706 217.107 93.5078 216.41 93.3711C215.824 93.2474 215.294 93.1009 214.818 92.9316C214.35 92.7624 213.949 92.5573 213.617 92.3164C213.292 92.0755 213.041 91.7923 212.865 91.4668C212.689 91.1413 212.602 90.7604 212.602 90.3242C212.602 89.9076 212.693 89.5137 212.875 89.1426C213.064 88.7715 213.327 88.4427 213.666 88.1562C214.011 87.8698 214.424 87.6452 214.906 87.4824C215.388 87.3197 215.925 87.2383 216.518 87.2383C217.364 87.2383 218.087 87.388 218.686 87.6875C219.285 87.987 219.743 88.3874 220.062 88.8887C220.382 89.3835 220.541 89.9336 220.541 90.5391H218.734C218.734 90.2461 218.646 89.9629 218.471 89.6895C218.301 89.4095 218.051 89.1784 217.719 88.9961C217.393 88.8138 216.993 88.7227 216.518 88.7227C216.016 88.7227 215.609 88.8008 215.297 88.957C214.991 89.1068 214.766 89.2988 214.623 89.5332C214.486 89.7676 214.418 90.015 214.418 90.2754C214.418 90.4707 214.451 90.6465 214.516 90.8027C214.587 90.9525 214.711 91.0924 214.887 91.2227C215.062 91.3464 215.31 91.4635 215.629 91.5742C215.948 91.6849 216.355 91.7956 216.85 91.9062C217.715 92.1016 218.428 92.3359 218.988 92.6094C219.548 92.8828 219.965 93.2181 220.238 93.6152C220.512 94.0124 220.648 94.4941 220.648 95.0605C220.648 95.5228 220.551 95.946 220.355 96.3301C220.167 96.7142 219.89 97.0462 219.525 97.3262C219.167 97.5996 218.738 97.8145 218.236 97.9707C217.742 98.1204 217.185 98.1953 216.566 98.1953C215.635 98.1953 214.848 98.0293 214.203 97.6973C213.559 97.3652 213.07 96.9355 212.738 96.4082C212.406 95.8809 212.24 95.3242 212.24 94.7383H214.057C214.083 95.2331 214.226 95.627 214.486 95.9199C214.747 96.2064 215.066 96.4115 215.443 96.5352C215.821 96.6523 216.195 96.7109 216.566 96.7109C217.061 96.7109 217.475 96.6458 217.807 96.5156C218.145 96.3854 218.402 96.2064 218.578 95.9785C218.754 95.7507 218.842 95.4902 218.842 95.1973ZM227.406 98.1953C226.671 98.1953 226.003 98.0716 225.404 97.8242C224.812 97.5703 224.301 97.2155 223.871 96.7598C223.448 96.304 223.122 95.7637 222.895 95.1387C222.667 94.5137 222.553 93.8301 222.553 93.0879V92.6777C222.553 91.8184 222.68 91.0534 222.934 90.3828C223.188 89.7057 223.533 89.1328 223.969 88.6641C224.405 88.1953 224.9 87.8405 225.453 87.5996C226.007 87.3587 226.579 87.2383 227.172 87.2383C227.927 87.2383 228.578 87.3685 229.125 87.6289C229.678 87.8893 230.131 88.2539 230.482 88.7227C230.834 89.1849 231.094 89.7318 231.264 90.3633C231.433 90.9883 231.518 91.6719 231.518 92.4141V93.2246H223.627V91.75H229.711V91.6133C229.685 91.1445 229.587 90.6888 229.418 90.2461C229.255 89.8034 228.995 89.4388 228.637 89.1523C228.279 88.8659 227.79 88.7227 227.172 88.7227C226.762 88.7227 226.384 88.8105 226.039 88.9863C225.694 89.1556 225.398 89.4095 225.15 89.748C224.903 90.0866 224.711 90.5 224.574 90.9883C224.438 91.4766 224.369 92.0397 224.369 92.6777V93.0879C224.369 93.5892 224.438 94.0612 224.574 94.5039C224.717 94.9401 224.923 95.3242 225.189 95.6562C225.463 95.9883 225.792 96.2487 226.176 96.4375C226.566 96.6263 227.009 96.7207 227.504 96.7207C228.142 96.7207 228.682 96.5905 229.125 96.3301C229.568 96.0697 229.955 95.7214 230.287 95.2852L231.381 96.1543C231.153 96.4993 230.863 96.8281 230.512 97.1406C230.16 97.4531 229.727 97.707 229.213 97.9023C228.705 98.0977 228.103 98.1953 227.406 98.1953Z" fill="white"/>
</svg>
