<svg width="340" height="92" viewBox="0 0 340 92" fill="none" xmlns="http://www.w3.org/2000/svg">
<path d="M0 4C0 1.79086 1.79086 0 4 0H336C338.209 0 340 1.79086 340 4V88C340 90.2091 338.209 92 336 92H4C1.79086 92 0 90.2091 0 88V4Z" fill="#729FE8"/>
<path d="M26.6836 36.4668V38H19.1543V36.4668H26.6836ZM19.5352 23.7812V38H17.6504V23.7812H19.5352ZM25.6875 29.8945V31.4277H19.1543V29.8945H25.6875ZM26.5859 23.7812V25.3242H19.1543V23.7812H26.5859ZM30.5508 29.6895V38H28.7441V27.4336H30.4531L30.5508 29.6895ZM30.1211 32.3164L29.3691 32.2871C29.3757 31.5645 29.4831 30.8971 29.6914 30.2852C29.8997 29.6667 30.1927 29.1296 30.5703 28.6738C30.9479 28.2181 31.3971 27.8665 31.918 27.6191C32.4453 27.3652 33.028 27.2383 33.666 27.2383C34.1868 27.2383 34.6556 27.3099 35.0723 27.4531C35.4889 27.5898 35.8438 27.8112 36.1367 28.1172C36.4362 28.4232 36.6641 28.8203 36.8203 29.3086C36.9766 29.7904 37.0547 30.3796 37.0547 31.0762V38H35.2383V31.0566C35.2383 30.5033 35.1569 30.0605 34.9941 29.7285C34.8314 29.39 34.5938 29.1458 34.2812 28.9961C33.9688 28.8398 33.5846 28.7617 33.1289 28.7617C32.6797 28.7617 32.2695 28.8561 31.8984 29.0449C31.5339 29.2337 31.2181 29.4941 30.9512 29.8262C30.6908 30.1582 30.4857 30.5391 30.3359 30.9688C30.1927 31.3919 30.1211 31.8411 30.1211 32.3164ZM46.0293 36.1934V30.7539C46.0293 30.3372 45.9447 29.9759 45.7754 29.6699C45.6126 29.3574 45.3652 29.1165 45.0332 28.9473C44.7012 28.778 44.291 28.6934 43.8027 28.6934C43.347 28.6934 42.9466 28.7715 42.6016 28.9277C42.263 29.084 41.9961 29.2891 41.8008 29.543C41.612 29.7969 41.5176 30.0703 41.5176 30.3633H39.7109C39.7109 29.9857 39.8086 29.6113 40.0039 29.2402C40.1992 28.8691 40.4792 28.5339 40.8438 28.2344C41.2148 27.9284 41.6576 27.6875 42.1719 27.5117C42.6927 27.3294 43.2721 27.2383 43.9102 27.2383C44.6784 27.2383 45.3555 27.3685 45.9414 27.6289C46.5339 27.8893 46.9961 28.2832 47.3281 28.8105C47.6667 29.3314 47.8359 29.9857 47.8359 30.7734V35.6953C47.8359 36.0469 47.8652 36.4212 47.9238 36.8184C47.9889 37.2155 48.0833 37.5573 48.207 37.8438V38H46.3223C46.2311 37.7917 46.1595 37.515 46.1074 37.1699C46.0553 36.8184 46.0293 36.4928 46.0293 36.1934ZM46.3418 31.5938L46.3613 32.8633H44.5352C44.0208 32.8633 43.5618 32.9056 43.1582 32.9902C42.7546 33.0684 42.416 33.1888 42.1426 33.3516C41.8691 33.5143 41.6608 33.7194 41.5176 33.9668C41.3743 34.2077 41.3027 34.4909 41.3027 34.8164C41.3027 35.1484 41.3776 35.4512 41.5273 35.7246C41.6771 35.998 41.9017 36.2161 42.2012 36.3789C42.5072 36.5352 42.8815 36.6133 43.3242 36.6133C43.8776 36.6133 44.3659 36.4961 44.7891 36.2617C45.2122 36.0273 45.5475 35.7409 45.7949 35.4023C46.0488 35.0638 46.1855 34.735 46.2051 34.416L46.9766 35.2852C46.931 35.5586 46.8073 35.8613 46.6055 36.1934C46.4036 36.5254 46.1335 36.8444 45.7949 37.1504C45.4629 37.4499 45.0658 37.7005 44.6035 37.9023C44.1478 38.0977 43.6335 38.1953 43.0605 38.1953C42.3444 38.1953 41.7161 38.0553 41.1758 37.7754C40.6419 37.4954 40.2253 37.1211 39.9258 36.6523C39.6328 36.1771 39.4863 35.6465 39.4863 35.0605C39.4863 34.4941 39.597 33.9961 39.8184 33.5664C40.0397 33.1302 40.3587 32.7689 40.7754 32.4824C41.1921 32.1895 41.6934 31.9681 42.2793 31.8184C42.8652 31.6686 43.5195 31.5938 44.2422 31.5938H46.3418ZM50.668 23H52.4844V35.9492L52.3281 38H50.668V23ZM59.623 32.6289V32.834C59.623 33.6022 59.5319 34.3151 59.3496 34.9727C59.1673 35.6237 58.9004 36.1901 58.5488 36.6719C58.1973 37.1536 57.7676 37.528 57.2598 37.7949C56.752 38.0618 56.1693 38.1953 55.5117 38.1953C54.8411 38.1953 54.252 38.0814 53.7441 37.8535C53.2428 37.6191 52.8197 37.2839 52.4746 36.8477C52.1296 36.4115 51.8529 35.8841 51.6445 35.2656C51.4427 34.6471 51.3027 33.9505 51.2246 33.1758V32.2773C51.3027 31.4961 51.4427 30.7962 51.6445 30.1777C51.8529 29.5592 52.1296 29.0319 52.4746 28.5957C52.8197 28.153 53.2428 27.8177 53.7441 27.5898C54.2454 27.3555 54.8281 27.2383 55.4922 27.2383C56.1562 27.2383 56.7454 27.3685 57.2598 27.6289C57.7741 27.8828 58.2038 28.2474 58.5488 28.7227C58.9004 29.1979 59.1673 29.7676 59.3496 30.4316C59.5319 31.0892 59.623 31.8216 59.623 32.6289ZM57.8066 32.834V32.6289C57.8066 32.1016 57.7578 31.6068 57.6602 31.1445C57.5625 30.6758 57.4062 30.2656 57.1914 29.9141C56.9766 29.556 56.6934 29.276 56.3418 29.0742C55.9902 28.8659 55.5573 28.7617 55.043 28.7617C54.5872 28.7617 54.1901 28.8398 53.8516 28.9961C53.5195 29.1523 53.2363 29.3639 53.002 29.6309C52.7676 29.8913 52.5755 30.1908 52.4258 30.5293C52.2826 30.8613 52.1751 31.2064 52.1035 31.5645V33.918C52.2077 34.3737 52.377 34.8132 52.6113 35.2363C52.8522 35.653 53.1712 35.9948 53.5684 36.2617C53.972 36.5286 54.4701 36.6621 55.0625 36.6621C55.5508 36.6621 55.9674 36.5645 56.3125 36.3691C56.6641 36.1673 56.9473 35.8906 57.1621 35.5391C57.3835 35.1875 57.5462 34.7806 57.6504 34.3184C57.7546 33.8561 57.8066 33.3613 57.8066 32.834ZM63.8711 23V38H62.0547V23H63.8711ZM71.1562 38.1953C70.4206 38.1953 69.7533 38.0716 69.1543 37.8242C68.5618 37.5703 68.0508 37.2155 67.6211 36.7598C67.1979 36.304 66.8724 35.7637 66.6445 35.1387C66.4167 34.5137 66.3027 33.8301 66.3027 33.0879V32.6777C66.3027 31.8184 66.4297 31.0534 66.6836 30.3828C66.9375 29.7057 67.2826 29.1328 67.7188 28.6641C68.1549 28.1953 68.6497 27.8405 69.2031 27.5996C69.7565 27.3587 70.3294 27.2383 70.9219 27.2383C71.6771 27.2383 72.3281 27.3685 72.875 27.6289C73.4284 27.8893 73.8809 28.2539 74.2324 28.7227C74.584 29.1849 74.8444 29.7318 75.0137 30.3633C75.1829 30.9883 75.2676 31.6719 75.2676 32.4141V33.2246H67.377V31.75H73.4609V31.6133C73.4349 31.1445 73.3372 30.6888 73.168 30.2461C73.0052 29.8034 72.7448 29.4388 72.3867 29.1523C72.0286 28.8659 71.5404 28.7227 70.9219 28.7227C70.5117 28.7227 70.1341 28.8105 69.7891 28.9863C69.444 29.1556 69.1478 29.4095 68.9004 29.748C68.653 30.0866 68.4609 30.5 68.3242 30.9883C68.1875 31.4766 68.1191 32.0397 68.1191 32.6777V33.0879C68.1191 33.5892 68.1875 34.0612 68.3242 34.5039C68.4674 34.9401 68.6725 35.3242 68.9395 35.6562C69.2129 35.9883 69.5417 36.2487 69.9258 36.4375C70.3164 36.6263 70.7591 36.7207 71.2539 36.7207C71.8919 36.7207 72.4323 36.5905 72.875 36.3301C73.3177 36.0697 73.7051 35.7214 74.0371 35.2852L75.1309 36.1543C74.903 36.4993 74.6133 36.8281 74.2617 37.1406C73.9102 37.4531 73.4772 37.707 72.9629 37.9023C72.4551 38.0977 71.8529 38.1953 71.1562 38.1953ZM86.7617 27.4336V28.8203H81.0488V27.4336H86.7617ZM82.9824 24.8652H84.7891V35.3828C84.7891 35.7409 84.8444 36.0111 84.9551 36.1934C85.0658 36.3757 85.209 36.4961 85.3848 36.5547C85.5605 36.6133 85.7493 36.6426 85.9512 36.6426C86.1009 36.6426 86.2572 36.6296 86.4199 36.6035C86.5892 36.571 86.7161 36.5449 86.8008 36.5254L86.8105 38C86.6673 38.0456 86.4785 38.0879 86.2441 38.127C86.0163 38.1725 85.7396 38.1953 85.4141 38.1953C84.9714 38.1953 84.5645 38.1074 84.1934 37.9316C83.8223 37.7559 83.526 37.4629 83.3047 37.0527C83.0898 36.6361 82.9824 36.0762 82.9824 35.373V24.8652ZM90.6875 23V38H88.8809V23H90.6875ZM90.2578 32.3164L89.5059 32.2871C89.5124 31.5645 89.6198 30.8971 89.8281 30.2852C90.0365 29.6667 90.3294 29.1296 90.707 28.6738C91.0846 28.2181 91.5339 27.8665 92.0547 27.6191C92.582 27.3652 93.1647 27.2383 93.8027 27.2383C94.3236 27.2383 94.7923 27.3099 95.209 27.4531C95.6257 27.5898 95.9805 27.8112 96.2734 28.1172C96.5729 28.4232 96.8008 28.8203 96.957 29.3086C97.1133 29.7904 97.1914 30.3796 97.1914 31.0762V38H95.375V31.0566C95.375 30.5033 95.2936 30.0605 95.1309 29.7285C94.9681 29.39 94.7305 29.1458 94.418 28.9961C94.1055 28.8398 93.7214 28.7617 93.2656 28.7617C92.8164 28.7617 92.4062 28.8561 92.0352 29.0449C91.6706 29.2337 91.3548 29.4941 91.0879 29.8262C90.8275 30.1582 90.6224 30.5391 90.4727 30.9688C90.3294 31.3919 90.2578 31.8411 90.2578 32.3164ZM104.281 38.1953C103.546 38.1953 102.878 38.0716 102.279 37.8242C101.687 37.5703 101.176 37.2155 100.746 36.7598C100.323 36.304 99.9974 35.7637 99.7695 35.1387C99.5417 34.5137 99.4277 33.8301 99.4277 33.0879V32.6777C99.4277 31.8184 99.5547 31.0534 99.8086 30.3828C100.062 29.7057 100.408 29.1328 100.844 28.6641C101.28 28.1953 101.775 27.8405 102.328 27.5996C102.882 27.3587 103.454 27.2383 104.047 27.2383C104.802 27.2383 105.453 27.3685 106 27.6289C106.553 27.8893 107.006 28.2539 107.357 28.7227C107.709 29.1849 107.969 29.7318 108.139 30.3633C108.308 30.9883 108.393 31.6719 108.393 32.4141V33.2246H100.502V31.75H106.586V31.6133C106.56 31.1445 106.462 30.6888 106.293 30.2461C106.13 29.8034 105.87 29.4388 105.512 29.1523C105.154 28.8659 104.665 28.7227 104.047 28.7227C103.637 28.7227 103.259 28.8105 102.914 28.9863C102.569 29.1556 102.273 29.4095 102.025 29.748C101.778 30.0866 101.586 30.5 101.449 30.9883C101.312 31.4766 101.244 32.0397 101.244 32.6777V33.0879C101.244 33.5892 101.312 34.0612 101.449 34.5039C101.592 34.9401 101.798 35.3242 102.064 35.6562C102.338 35.9883 102.667 36.2487 103.051 36.4375C103.441 36.6263 103.884 36.7207 104.379 36.7207C105.017 36.7207 105.557 36.5905 106 36.3301C106.443 36.0697 106.83 35.7214 107.162 35.2852L108.256 36.1543C108.028 36.4993 107.738 36.8281 107.387 37.1406C107.035 37.4531 106.602 37.707 106.088 37.9023C105.58 38.0977 104.978 38.1953 104.281 38.1953ZM126.674 23.7812V38H124.779L117.621 27.0332V38H115.736V23.7812H117.621L124.809 34.7773V23.7812H126.674ZM129.262 32.834V32.6094C129.262 31.8477 129.372 31.1413 129.594 30.4902C129.815 29.8327 130.134 29.263 130.551 28.7812C130.967 28.293 131.472 27.9154 132.064 27.6484C132.657 27.375 133.321 27.2383 134.057 27.2383C134.799 27.2383 135.466 27.375 136.059 27.6484C136.658 27.9154 137.165 28.293 137.582 28.7812C138.005 29.263 138.327 29.8327 138.549 30.4902C138.77 31.1413 138.881 31.8477 138.881 32.6094V32.834C138.881 33.5957 138.77 34.3021 138.549 34.9531C138.327 35.6042 138.005 36.1738 137.582 36.6621C137.165 37.1439 136.661 37.5215 136.068 37.7949C135.482 38.0618 134.818 38.1953 134.076 38.1953C133.334 38.1953 132.667 38.0618 132.074 37.7949C131.482 37.5215 130.974 37.1439 130.551 36.6621C130.134 36.1738 129.815 35.6042 129.594 34.9531C129.372 34.3021 129.262 33.5957 129.262 32.834ZM131.068 32.6094V32.834C131.068 33.3613 131.13 33.8594 131.254 34.3281C131.378 34.7904 131.563 35.2005 131.811 35.5586C132.064 35.9167 132.38 36.1999 132.758 36.4082C133.135 36.61 133.575 36.7109 134.076 36.7109C134.571 36.7109 135.004 36.61 135.375 36.4082C135.753 36.1999 136.065 35.9167 136.312 35.5586C136.56 35.2005 136.745 34.7904 136.869 34.3281C136.999 33.8594 137.064 33.3613 137.064 32.834V32.6094C137.064 32.0885 136.999 31.597 136.869 31.1348C136.745 30.666 136.557 30.2526 136.303 29.8945C136.055 29.5299 135.743 29.2435 135.365 29.0352C134.994 28.8268 134.558 28.7227 134.057 28.7227C133.562 28.7227 133.126 28.8268 132.748 29.0352C132.377 29.2435 132.064 29.5299 131.811 29.8945C131.563 30.2526 131.378 30.666 131.254 31.1348C131.13 31.597 131.068 32.0885 131.068 32.6094ZM145.57 27.4336V28.8203H139.857V27.4336H145.57ZM141.791 24.8652H143.598V35.3828C143.598 35.7409 143.653 36.0111 143.764 36.1934C143.874 36.3757 144.018 36.4961 144.193 36.5547C144.369 36.6133 144.558 36.6426 144.76 36.6426C144.91 36.6426 145.066 36.6296 145.229 36.6035C145.398 36.571 145.525 36.5449 145.609 36.5254L145.619 38C145.476 38.0456 145.287 38.0879 145.053 38.127C144.825 38.1725 144.548 38.1953 144.223 38.1953C143.78 38.1953 143.373 38.1074 143.002 37.9316C142.631 37.7559 142.335 37.4629 142.113 37.0527C141.898 36.6361 141.791 36.0762 141.791 35.373V24.8652ZM149.652 27.4336V38H147.836V27.4336H149.652ZM147.699 24.6309C147.699 24.3379 147.787 24.0905 147.963 23.8887C148.145 23.6868 148.412 23.5859 148.764 23.5859C149.109 23.5859 149.372 23.6868 149.555 23.8887C149.743 24.0905 149.838 24.3379 149.838 24.6309C149.838 24.9108 149.743 25.1517 149.555 25.3535C149.372 25.5488 149.109 25.6465 148.764 25.6465C148.412 25.6465 148.145 25.5488 147.963 25.3535C147.787 25.1517 147.699 24.9108 147.699 24.6309ZM154.965 38H153.158V26.5156C153.158 25.7148 153.314 25.0378 153.627 24.4844C153.939 23.931 154.385 23.5111 154.965 23.2246C155.544 22.9382 156.231 22.7949 157.025 22.7949C157.494 22.7949 157.953 22.8535 158.402 22.9707C158.852 23.0814 159.314 23.2214 159.789 23.3906L159.486 24.9141C159.187 24.7969 158.839 24.6862 158.441 24.582C158.051 24.4714 157.621 24.416 157.152 24.416C156.378 24.416 155.818 24.5918 155.473 24.9434C155.134 25.2884 154.965 25.8125 154.965 26.5156V38ZM157.123 27.4336V28.8203H151.488V27.4336H157.123ZM160.678 27.4336V38H158.871V27.4336H160.678ZM167.875 36.7109C168.305 36.7109 168.702 36.623 169.066 36.4473C169.431 36.2715 169.73 36.0306 169.965 35.7246C170.199 35.4121 170.333 35.0573 170.365 34.6602H172.084C172.051 35.2852 171.84 35.8678 171.449 36.4082C171.065 36.9421 170.561 37.375 169.936 37.707C169.311 38.0326 168.624 38.1953 167.875 38.1953C167.081 38.1953 166.387 38.0553 165.795 37.7754C165.209 37.4954 164.721 37.1113 164.33 36.623C163.946 36.1348 163.656 35.5749 163.461 34.9434C163.272 34.3053 163.178 33.6315 163.178 32.9219V32.5117C163.178 31.8021 163.272 31.1315 163.461 30.5C163.656 29.862 163.946 29.2988 164.33 28.8105C164.721 28.3223 165.209 27.9382 165.795 27.6582C166.387 27.3783 167.081 27.2383 167.875 27.2383C168.702 27.2383 169.424 27.4076 170.043 27.7461C170.661 28.0781 171.146 28.5339 171.498 29.1133C171.856 29.6862 172.051 30.3372 172.084 31.0664H170.365C170.333 30.6302 170.209 30.2363 169.994 29.8848C169.786 29.5332 169.499 29.2533 169.135 29.0449C168.777 28.8301 168.357 28.7227 167.875 28.7227C167.322 28.7227 166.856 28.8333 166.479 29.0547C166.107 29.2695 165.811 29.5625 165.59 29.9336C165.375 30.2982 165.219 30.7051 165.121 31.1543C165.03 31.597 164.984 32.0495 164.984 32.5117V32.9219C164.984 33.3841 165.03 33.8398 165.121 34.2891C165.212 34.7383 165.365 35.1452 165.58 35.5098C165.801 35.8743 166.098 36.1673 166.469 36.3887C166.846 36.6035 167.315 36.7109 167.875 36.7109ZM180.346 36.1934V30.7539C180.346 30.3372 180.261 29.9759 180.092 29.6699C179.929 29.3574 179.682 29.1165 179.35 28.9473C179.018 28.778 178.607 28.6934 178.119 28.6934C177.663 28.6934 177.263 28.7715 176.918 28.9277C176.579 29.084 176.312 29.2891 176.117 29.543C175.928 29.7969 175.834 30.0703 175.834 30.3633H174.027C174.027 29.9857 174.125 29.6113 174.32 29.2402C174.516 28.8691 174.796 28.5339 175.16 28.2344C175.531 27.9284 175.974 27.6875 176.488 27.5117C177.009 27.3294 177.589 27.2383 178.227 27.2383C178.995 27.2383 179.672 27.3685 180.258 27.6289C180.85 27.8893 181.312 28.2832 181.645 28.8105C181.983 29.3314 182.152 29.9857 182.152 30.7734V35.6953C182.152 36.0469 182.182 36.4212 182.24 36.8184C182.305 37.2155 182.4 37.5573 182.523 37.8438V38H180.639C180.548 37.7917 180.476 37.515 180.424 37.1699C180.372 36.8184 180.346 36.4928 180.346 36.1934ZM180.658 31.5938L180.678 32.8633H178.852C178.337 32.8633 177.878 32.9056 177.475 32.9902C177.071 33.0684 176.732 33.1888 176.459 33.3516C176.186 33.5143 175.977 33.7194 175.834 33.9668C175.691 34.2077 175.619 34.4909 175.619 34.8164C175.619 35.1484 175.694 35.4512 175.844 35.7246C175.993 35.998 176.218 36.2161 176.518 36.3789C176.824 36.5352 177.198 36.6133 177.641 36.6133C178.194 36.6133 178.682 36.4961 179.105 36.2617C179.529 36.0273 179.864 35.7409 180.111 35.4023C180.365 35.0638 180.502 34.735 180.521 34.416L181.293 35.2852C181.247 35.5586 181.124 35.8613 180.922 36.1934C180.72 36.5254 180.45 36.8444 180.111 37.1504C179.779 37.4499 179.382 37.7005 178.92 37.9023C178.464 38.0977 177.95 38.1953 177.377 38.1953C176.661 38.1953 176.033 38.0553 175.492 37.7754C174.958 37.4954 174.542 37.1211 174.242 36.6523C173.949 36.1771 173.803 35.6465 173.803 35.0605C173.803 34.4941 173.913 33.9961 174.135 33.5664C174.356 33.1302 174.675 32.7689 175.092 32.4824C175.508 32.1895 176.01 31.9681 176.596 31.8184C177.182 31.6686 177.836 31.5938 178.559 31.5938H180.658ZM189.418 27.4336V28.8203H183.705V27.4336H189.418ZM185.639 24.8652H187.445V35.3828C187.445 35.7409 187.501 36.0111 187.611 36.1934C187.722 36.3757 187.865 36.4961 188.041 36.5547C188.217 36.6133 188.406 36.6426 188.607 36.6426C188.757 36.6426 188.913 36.6296 189.076 36.6035C189.245 36.571 189.372 36.5449 189.457 36.5254L189.467 38C189.324 38.0456 189.135 38.0879 188.9 38.127C188.673 38.1725 188.396 38.1953 188.07 38.1953C187.628 38.1953 187.221 38.1074 186.85 37.9316C186.479 37.7559 186.182 37.4629 185.961 37.0527C185.746 36.6361 185.639 36.0762 185.639 35.373V24.8652ZM193.5 27.4336V38H191.684V27.4336H193.5ZM191.547 24.6309C191.547 24.3379 191.635 24.0905 191.811 23.8887C191.993 23.6868 192.26 23.5859 192.611 23.5859C192.956 23.5859 193.22 23.6868 193.402 23.8887C193.591 24.0905 193.686 24.3379 193.686 24.6309C193.686 24.9108 193.591 25.1517 193.402 25.3535C193.22 25.5488 192.956 25.6465 192.611 25.6465C192.26 25.6465 191.993 25.5488 191.811 25.3535C191.635 25.1517 191.547 24.9108 191.547 24.6309ZM195.922 32.834V32.6094C195.922 31.8477 196.033 31.1413 196.254 30.4902C196.475 29.8327 196.794 29.263 197.211 28.7812C197.628 28.293 198.132 27.9154 198.725 27.6484C199.317 27.375 199.981 27.2383 200.717 27.2383C201.459 27.2383 202.126 27.375 202.719 27.6484C203.318 27.9154 203.826 28.293 204.242 28.7812C204.665 29.263 204.988 29.8327 205.209 30.4902C205.43 31.1413 205.541 31.8477 205.541 32.6094V32.834C205.541 33.5957 205.43 34.3021 205.209 34.9531C204.988 35.6042 204.665 36.1738 204.242 36.6621C203.826 37.1439 203.321 37.5215 202.729 37.7949C202.143 38.0618 201.479 38.1953 200.736 38.1953C199.994 38.1953 199.327 38.0618 198.734 37.7949C198.142 37.5215 197.634 37.1439 197.211 36.6621C196.794 36.1738 196.475 35.6042 196.254 34.9531C196.033 34.3021 195.922 33.5957 195.922 32.834ZM197.729 32.6094V32.834C197.729 33.3613 197.79 33.8594 197.914 34.3281C198.038 34.7904 198.223 35.2005 198.471 35.5586C198.725 35.9167 199.04 36.1999 199.418 36.4082C199.796 36.61 200.235 36.7109 200.736 36.7109C201.231 36.7109 201.664 36.61 202.035 36.4082C202.413 36.1999 202.725 35.9167 202.973 35.5586C203.22 35.2005 203.406 34.7904 203.529 34.3281C203.66 33.8594 203.725 33.3613 203.725 32.834V32.6094C203.725 32.0885 203.66 31.597 203.529 31.1348C203.406 30.666 203.217 30.2526 202.963 29.8945C202.715 29.5299 202.403 29.2435 202.025 29.0352C201.654 28.8268 201.218 28.7227 200.717 28.7227C200.222 28.7227 199.786 28.8268 199.408 29.0352C199.037 29.2435 198.725 29.5299 198.471 29.8945C198.223 30.2526 198.038 30.666 197.914 31.1348C197.79 31.597 197.729 32.0885 197.729 32.6094ZM209.613 29.6895V38H207.807V27.4336H209.516L209.613 29.6895ZM209.184 32.3164L208.432 32.2871C208.438 31.5645 208.546 30.8971 208.754 30.2852C208.962 29.6667 209.255 29.1296 209.633 28.6738C210.01 28.2181 210.46 27.8665 210.98 27.6191C211.508 27.3652 212.09 27.2383 212.729 27.2383C213.249 27.2383 213.718 27.3099 214.135 27.4531C214.551 27.5898 214.906 27.8112 215.199 28.1172C215.499 28.4232 215.727 28.8203 215.883 29.3086C216.039 29.7904 216.117 30.3796 216.117 31.0762V38H214.301V31.0566C214.301 30.5033 214.219 30.0605 214.057 29.7285C213.894 29.39 213.656 29.1458 213.344 28.9961C213.031 28.8398 212.647 28.7617 212.191 28.7617C211.742 28.7617 211.332 28.8561 210.961 29.0449C210.596 29.2337 210.281 29.4941 210.014 29.8262C209.753 30.1582 209.548 30.5391 209.398 30.9688C209.255 31.3919 209.184 31.8411 209.184 32.3164ZM225.014 35.1973C225.014 34.9368 224.955 34.696 224.838 34.4746C224.727 34.2467 224.496 34.0417 224.145 33.8594C223.799 33.6706 223.279 33.5078 222.582 33.3711C221.996 33.2474 221.465 33.1009 220.99 32.9316C220.521 32.7624 220.121 32.5573 219.789 32.3164C219.464 32.0755 219.213 31.7923 219.037 31.4668C218.861 31.1413 218.773 30.7604 218.773 30.3242C218.773 29.9076 218.865 29.5137 219.047 29.1426C219.236 28.7715 219.499 28.4427 219.838 28.1562C220.183 27.8698 220.596 27.6452 221.078 27.4824C221.56 27.3197 222.097 27.2383 222.689 27.2383C223.536 27.2383 224.258 27.388 224.857 27.6875C225.456 27.987 225.915 28.3874 226.234 28.8887C226.553 29.3835 226.713 29.9336 226.713 30.5391H224.906C224.906 30.2461 224.818 29.9629 224.643 29.6895C224.473 29.4095 224.223 29.1784 223.891 28.9961C223.565 28.8138 223.165 28.7227 222.689 28.7227C222.188 28.7227 221.781 28.8008 221.469 28.957C221.163 29.1068 220.938 29.2988 220.795 29.5332C220.658 29.7676 220.59 30.015 220.59 30.2754C220.59 30.4707 220.622 30.6465 220.688 30.8027C220.759 30.9525 220.883 31.0924 221.059 31.2227C221.234 31.3464 221.482 31.4635 221.801 31.5742C222.12 31.6849 222.527 31.7956 223.021 31.9062C223.887 32.1016 224.6 32.3359 225.16 32.6094C225.72 32.8828 226.137 33.2181 226.41 33.6152C226.684 34.0124 226.82 34.4941 226.82 35.0605C226.82 35.5228 226.723 35.946 226.527 36.3301C226.339 36.7142 226.062 37.0462 225.697 37.3262C225.339 37.5996 224.91 37.8145 224.408 37.9707C223.913 38.1204 223.357 38.1953 222.738 38.1953C221.807 38.1953 221.02 38.0293 220.375 37.6973C219.73 37.3652 219.242 36.9355 218.91 36.4082C218.578 35.8809 218.412 35.3242 218.412 34.7383H220.229C220.255 35.2331 220.398 35.627 220.658 35.9199C220.919 36.2064 221.238 36.4115 221.615 36.5352C221.993 36.6523 222.367 36.7109 222.738 36.7109C223.233 36.7109 223.646 36.6458 223.979 36.5156C224.317 36.3854 224.574 36.2064 224.75 35.9785C224.926 35.7507 225.014 35.4902 225.014 35.1973ZM234.145 23H235.961V35.9492L235.805 38H234.145V23ZM243.1 32.6289V32.834C243.1 33.6022 243.008 34.3151 242.826 34.9727C242.644 35.6237 242.377 36.1901 242.025 36.6719C241.674 37.1536 241.244 37.528 240.736 37.7949C240.229 38.0618 239.646 38.1953 238.988 38.1953C238.318 38.1953 237.729 38.0814 237.221 37.8535C236.719 37.6191 236.296 37.2839 235.951 36.8477C235.606 36.4115 235.329 35.8841 235.121 35.2656C234.919 34.6471 234.779 33.9505 234.701 33.1758V32.2773C234.779 31.4961 234.919 30.7962 235.121 30.1777C235.329 29.5592 235.606 29.0319 235.951 28.5957C236.296 28.153 236.719 27.8177 237.221 27.5898C237.722 27.3555 238.305 27.2383 238.969 27.2383C239.633 27.2383 240.222 27.3685 240.736 27.6289C241.251 27.8828 241.68 28.2474 242.025 28.7227C242.377 29.1979 242.644 29.7676 242.826 30.4316C243.008 31.0892 243.1 31.8216 243.1 32.6289ZM241.283 32.834V32.6289C241.283 32.1016 241.234 31.6068 241.137 31.1445C241.039 30.6758 240.883 30.2656 240.668 29.9141C240.453 29.556 240.17 29.276 239.818 29.0742C239.467 28.8659 239.034 28.7617 238.52 28.7617C238.064 28.7617 237.667 28.8398 237.328 28.9961C236.996 29.1523 236.713 29.3639 236.479 29.6309C236.244 29.8913 236.052 30.1908 235.902 30.5293C235.759 30.8613 235.652 31.2064 235.58 31.5645V33.918C235.684 34.3737 235.854 34.8132 236.088 35.2363C236.329 35.653 236.648 35.9948 237.045 36.2617C237.449 36.5286 237.947 36.6621 238.539 36.6621C239.027 36.6621 239.444 36.5645 239.789 36.3691C240.141 36.1673 240.424 35.8906 240.639 35.5391C240.86 35.1875 241.023 34.7806 241.127 34.3184C241.231 33.8561 241.283 33.3613 241.283 32.834ZM251.85 35.5586V27.4336H253.666V38H251.938L251.85 35.5586ZM252.191 33.332L252.943 33.3125C252.943 34.0156 252.868 34.6667 252.719 35.2656C252.576 35.8581 252.341 36.3724 252.016 36.8086C251.69 37.2448 251.264 37.5866 250.736 37.834C250.209 38.0749 249.568 38.1953 248.812 38.1953C248.298 38.1953 247.826 38.1204 247.396 37.9707C246.973 37.821 246.609 37.5898 246.303 37.2773C245.997 36.9648 245.759 36.5579 245.59 36.0566C245.427 35.5553 245.346 34.9531 245.346 34.25V27.4336H247.152V34.2695C247.152 34.7448 247.204 35.1387 247.309 35.4512C247.419 35.7572 247.566 36.0013 247.748 36.1836C247.937 36.3594 248.145 36.4831 248.373 36.5547C248.607 36.6263 248.848 36.6621 249.096 36.6621C249.864 36.6621 250.473 36.5156 250.922 36.2227C251.371 35.9232 251.693 35.5228 251.889 35.0215C252.09 34.5137 252.191 33.9505 252.191 33.332ZM260.844 27.4336V28.8203H255.131V27.4336H260.844ZM257.064 24.8652H258.871V35.3828C258.871 35.7409 258.926 36.0111 259.037 36.1934C259.148 36.3757 259.291 36.4961 259.467 36.5547C259.643 36.6133 259.831 36.6426 260.033 36.6426C260.183 36.6426 260.339 36.6296 260.502 36.6035C260.671 36.571 260.798 36.5449 260.883 36.5254L260.893 38C260.749 38.0456 260.561 38.0879 260.326 38.127C260.098 38.1725 259.822 38.1953 259.496 38.1953C259.053 38.1953 258.646 38.1074 258.275 37.9316C257.904 37.7559 257.608 37.4629 257.387 37.0527C257.172 36.6361 257.064 36.0762 257.064 35.373V24.8652ZM267.387 27.4336V28.8203H261.674V27.4336H267.387ZM263.607 24.8652H265.414V35.3828C265.414 35.7409 265.469 36.0111 265.58 36.1934C265.691 36.3757 265.834 36.4961 266.01 36.5547C266.186 36.6133 266.374 36.6426 266.576 36.6426C266.726 36.6426 266.882 36.6296 267.045 36.6035C267.214 36.571 267.341 36.5449 267.426 36.5254L267.436 38C267.292 38.0456 267.104 38.0879 266.869 38.127C266.641 38.1725 266.365 38.1953 266.039 38.1953C265.596 38.1953 265.189 38.1074 264.818 37.9316C264.447 37.7559 264.151 37.4629 263.93 37.0527C263.715 36.6361 263.607 36.0762 263.607 35.373V24.8652ZM268.832 32.834V32.6094C268.832 31.8477 268.943 31.1413 269.164 30.4902C269.385 29.8327 269.704 29.263 270.121 28.7812C270.538 28.293 271.042 27.9154 271.635 27.6484C272.227 27.375 272.891 27.2383 273.627 27.2383C274.369 27.2383 275.036 27.375 275.629 27.6484C276.228 27.9154 276.736 28.293 277.152 28.7812C277.576 29.263 277.898 29.8327 278.119 30.4902C278.34 31.1413 278.451 31.8477 278.451 32.6094V32.834C278.451 33.5957 278.34 34.3021 278.119 34.9531C277.898 35.6042 277.576 36.1738 277.152 36.6621C276.736 37.1439 276.231 37.5215 275.639 37.7949C275.053 38.0618 274.389 38.1953 273.646 38.1953C272.904 38.1953 272.237 38.0618 271.645 37.7949C271.052 37.5215 270.544 37.1439 270.121 36.6621C269.704 36.1738 269.385 35.6042 269.164 34.9531C268.943 34.3021 268.832 33.5957 268.832 32.834ZM270.639 32.6094V32.834C270.639 33.3613 270.701 33.8594 270.824 34.3281C270.948 34.7904 271.133 35.2005 271.381 35.5586C271.635 35.9167 271.951 36.1999 272.328 36.4082C272.706 36.61 273.145 36.7109 273.646 36.7109C274.141 36.7109 274.574 36.61 274.945 36.4082C275.323 36.1999 275.635 35.9167 275.883 35.5586C276.13 35.2005 276.316 34.7904 276.439 34.3281C276.57 33.8594 276.635 33.3613 276.635 32.834V32.6094C276.635 32.0885 276.57 31.597 276.439 31.1348C276.316 30.666 276.127 30.2526 275.873 29.8945C275.626 29.5299 275.313 29.2435 274.936 29.0352C274.564 28.8268 274.128 28.7227 273.627 28.7227C273.132 28.7227 272.696 28.8268 272.318 29.0352C271.947 29.2435 271.635 29.5299 271.381 29.8945C271.133 30.2526 270.948 30.666 270.824 31.1348C270.701 31.597 270.639 32.0885 270.639 32.6094ZM282.523 29.6895V38H280.717V27.4336H282.426L282.523 29.6895ZM282.094 32.3164L281.342 32.2871C281.348 31.5645 281.456 30.8971 281.664 30.2852C281.872 29.6667 282.165 29.1296 282.543 28.6738C282.921 28.2181 283.37 27.8665 283.891 27.6191C284.418 27.3652 285.001 27.2383 285.639 27.2383C286.16 27.2383 286.628 27.3099 287.045 27.4531C287.462 27.5898 287.816 27.8112 288.109 28.1172C288.409 28.4232 288.637 28.8203 288.793 29.3086C288.949 29.7904 289.027 30.3796 289.027 31.0762V38H287.211V31.0566C287.211 30.5033 287.13 30.0605 286.967 29.7285C286.804 29.39 286.566 29.1458 286.254 28.9961C285.941 28.8398 285.557 28.7617 285.102 28.7617C284.652 28.7617 284.242 28.8561 283.871 29.0449C283.507 29.2337 283.191 29.4941 282.924 29.8262C282.663 30.1582 282.458 30.5391 282.309 30.9688C282.165 31.3919 282.094 31.8411 282.094 32.3164ZM301.156 27.4336V28.8203H295.443V27.4336H301.156ZM297.377 24.8652H299.184V35.3828C299.184 35.7409 299.239 36.0111 299.35 36.1934C299.46 36.3757 299.604 36.4961 299.779 36.5547C299.955 36.6133 300.144 36.6426 300.346 36.6426C300.495 36.6426 300.652 36.6296 300.814 36.6035C300.984 36.571 301.111 36.5449 301.195 36.5254L301.205 38C301.062 38.0456 300.873 38.0879 300.639 38.127C300.411 38.1725 300.134 38.1953 299.809 38.1953C299.366 38.1953 298.959 38.1074 298.588 37.9316C298.217 37.7559 297.921 37.4629 297.699 37.0527C297.484 36.6361 297.377 36.0762 297.377 35.373V24.8652ZM302.602 32.834V32.6094C302.602 31.8477 302.712 31.1413 302.934 30.4902C303.155 29.8327 303.474 29.263 303.891 28.7812C304.307 28.293 304.812 27.9154 305.404 27.6484C305.997 27.375 306.661 27.2383 307.396 27.2383C308.139 27.2383 308.806 27.375 309.398 27.6484C309.997 27.9154 310.505 28.293 310.922 28.7812C311.345 29.263 311.667 29.8327 311.889 30.4902C312.11 31.1413 312.221 31.8477 312.221 32.6094V32.834C312.221 33.5957 312.11 34.3021 311.889 34.9531C311.667 35.6042 311.345 36.1738 310.922 36.6621C310.505 37.1439 310.001 37.5215 309.408 37.7949C308.822 38.0618 308.158 38.1953 307.416 38.1953C306.674 38.1953 306.007 38.0618 305.414 37.7949C304.822 37.5215 304.314 37.1439 303.891 36.6621C303.474 36.1738 303.155 35.6042 302.934 34.9531C302.712 34.3021 302.602 33.5957 302.602 32.834ZM304.408 32.6094V32.834C304.408 33.3613 304.47 33.8594 304.594 34.3281C304.717 34.7904 304.903 35.2005 305.15 35.5586C305.404 35.9167 305.72 36.1999 306.098 36.4082C306.475 36.61 306.915 36.7109 307.416 36.7109C307.911 36.7109 308.344 36.61 308.715 36.4082C309.092 36.1999 309.405 35.9167 309.652 35.5586C309.9 35.2005 310.085 34.7904 310.209 34.3281C310.339 33.8594 310.404 33.3613 310.404 32.834V32.6094C310.404 32.0885 310.339 31.597 310.209 31.1348C310.085 30.666 309.896 30.2526 309.643 29.8945C309.395 29.5299 309.083 29.2435 308.705 29.0352C308.334 28.8268 307.898 28.7227 307.396 28.7227C306.902 28.7227 306.465 28.8268 306.088 29.0352C305.717 29.2435 305.404 29.5299 305.15 29.8945C304.903 30.2526 304.717 30.666 304.594 31.1348C304.47 31.597 304.408 32.0885 304.408 32.6094ZM24.2227 57.4336H25.8633V67.7754C25.8633 68.7064 25.6745 69.5007 25.2969 70.1582C24.9193 70.8158 24.3919 71.3138 23.7148 71.6523C23.0443 71.9974 22.2695 72.1699 21.3906 72.1699C21.026 72.1699 20.5964 72.1113 20.1016 71.9941C19.6133 71.8835 19.1315 71.6914 18.6562 71.418C18.1875 71.151 17.7936 70.7897 17.4746 70.334L18.4219 69.2598C18.8646 69.7936 19.3268 70.1647 19.8086 70.373C20.2969 70.5814 20.7786 70.6855 21.2539 70.6855C21.8268 70.6855 22.3216 70.5781 22.7383 70.3633C23.1549 70.1484 23.4772 69.8294 23.7051 69.4062C23.9395 68.9896 24.0566 68.4753 24.0566 67.8633V59.7578L24.2227 57.4336ZM16.9473 62.834V62.6289C16.9473 61.8216 17.0417 61.0892 17.2305 60.4316C17.4258 59.7676 17.7025 59.1979 18.0605 58.7227C18.4251 58.2474 18.8646 57.8828 19.3789 57.6289C19.8932 57.3685 20.4727 57.2383 21.1172 57.2383C21.7812 57.2383 22.3607 57.3555 22.8555 57.5898C23.3568 57.8177 23.7799 58.153 24.125 58.5957C24.4766 59.0319 24.7533 59.5592 24.9551 60.1777C25.1569 60.7962 25.2969 61.4961 25.375 62.2773V63.1758C25.3034 63.9505 25.1634 64.6471 24.9551 65.2656C24.7533 65.8841 24.4766 66.4115 24.125 66.8477C23.7799 67.2839 23.3568 67.6191 22.8555 67.8535C22.3542 68.0814 21.7682 68.1953 21.0977 68.1953C20.4661 68.1953 19.8932 68.0618 19.3789 67.7949C18.8711 67.528 18.4349 67.1536 18.0703 66.6719C17.7057 66.1901 17.4258 65.6237 17.2305 64.9727C17.0417 64.3151 16.9473 63.6022 16.9473 62.834ZM18.7539 62.6289V62.834C18.7539 63.3613 18.806 63.8561 18.9102 64.3184C19.0208 64.7806 19.1868 65.1875 19.4082 65.5391C19.6361 65.8906 19.9258 66.1673 20.2773 66.3691C20.6289 66.5645 21.0488 66.6621 21.5371 66.6621C22.1361 66.6621 22.6309 66.5352 23.0215 66.2812C23.4121 66.0273 23.7214 65.6921 23.9492 65.2754C24.1836 64.8587 24.3659 64.4062 24.4961 63.918V61.5645C24.4245 61.2064 24.3138 60.8613 24.1641 60.5293C24.0208 60.1908 23.832 59.8913 23.5977 59.6309C23.3698 59.3639 23.0866 59.1523 22.748 58.9961C22.4095 58.8398 22.0124 58.7617 21.5566 58.7617C21.0618 58.7617 20.6354 58.8659 20.2773 59.0742C19.9258 59.276 19.6361 59.556 19.4082 59.9141C19.1868 60.2656 19.0208 60.6758 18.9102 61.1445C18.806 61.6068 18.7539 62.1016 18.7539 62.6289ZM30.4141 59.0938V68H28.6074V57.4336H30.3652L30.4141 59.0938ZM33.7148 57.375L33.7051 59.0547C33.5553 59.0221 33.4121 59.0026 33.2754 58.9961C33.1452 58.9831 32.9954 58.9766 32.8262 58.9766C32.4095 58.9766 32.0417 59.0417 31.7227 59.1719C31.4036 59.3021 31.1335 59.4844 30.9121 59.7188C30.6908 59.9531 30.515 60.2331 30.3848 60.5586C30.2611 60.8776 30.1797 61.2292 30.1406 61.6133L29.6328 61.9062C29.6328 61.2682 29.6947 60.6693 29.8184 60.1094C29.9486 59.5495 30.1471 59.0547 30.4141 58.625C30.681 58.1888 31.0195 57.8503 31.4297 57.6094C31.8464 57.362 32.3411 57.2383 32.9141 57.2383C33.0443 57.2383 33.194 57.2546 33.3633 57.2871C33.5326 57.3132 33.6497 57.3424 33.7148 57.375ZM41.2246 66.1934V60.7539C41.2246 60.3372 41.14 59.9759 40.9707 59.6699C40.8079 59.3574 40.5605 59.1165 40.2285 58.9473C39.8965 58.778 39.4863 58.6934 38.998 58.6934C38.5423 58.6934 38.1419 58.7715 37.7969 58.9277C37.4583 59.084 37.1914 59.2891 36.9961 59.543C36.8073 59.7969 36.7129 60.0703 36.7129 60.3633H34.9062C34.9062 59.9857 35.0039 59.6113 35.1992 59.2402C35.3945 58.8691 35.6745 58.5339 36.0391 58.2344C36.4102 57.9284 36.8529 57.6875 37.3672 57.5117C37.888 57.3294 38.4674 57.2383 39.1055 57.2383C39.8737 57.2383 40.5508 57.3685 41.1367 57.6289C41.7292 57.8893 42.1914 58.2832 42.5234 58.8105C42.862 59.3314 43.0312 59.9857 43.0312 60.7734V65.6953C43.0312 66.0469 43.0605 66.4212 43.1191 66.8184C43.1842 67.2155 43.2786 67.5573 43.4023 67.8438V68H41.5176C41.4264 67.7917 41.3548 67.515 41.3027 67.1699C41.2507 66.8184 41.2246 66.4928 41.2246 66.1934ZM41.5371 61.5938L41.5566 62.8633H39.7305C39.2161 62.8633 38.7572 62.9056 38.3535 62.9902C37.9499 63.0684 37.6113 63.1888 37.3379 63.3516C37.0645 63.5143 36.8561 63.7194 36.7129 63.9668C36.5697 64.2077 36.498 64.4909 36.498 64.8164C36.498 65.1484 36.5729 65.4512 36.7227 65.7246C36.8724 65.998 37.097 66.2161 37.3965 66.3789C37.7025 66.5352 38.0768 66.6133 38.5195 66.6133C39.0729 66.6133 39.5612 66.4961 39.9844 66.2617C40.4076 66.0273 40.7428 65.7409 40.9902 65.4023C41.2441 65.0638 41.3809 64.735 41.4004 64.416L42.1719 65.2852C42.1263 65.5586 42.0026 65.8613 41.8008 66.1934C41.599 66.5254 41.3288 66.8444 40.9902 67.1504C40.6582 67.4499 40.2611 67.7005 39.7988 67.9023C39.3431 68.0977 38.8288 68.1953 38.2559 68.1953C37.5397 68.1953 36.9115 68.0553 36.3711 67.7754C35.8372 67.4954 35.4206 67.1211 35.1211 66.6523C34.8281 66.1771 34.6816 65.6465 34.6816 65.0605C34.6816 64.4941 34.7923 63.9961 35.0137 63.5664C35.235 63.1302 35.554 62.7689 35.9707 62.4824C36.3874 62.1895 36.8887 61.9681 37.4746 61.8184C38.0605 61.6686 38.7148 61.5938 39.4375 61.5938H41.5371ZM47.6797 59.6895V68H45.873V57.4336H47.582L47.6797 59.6895ZM47.25 62.3164L46.498 62.2871C46.5046 61.5645 46.612 60.8971 46.8203 60.2852C47.0286 59.6667 47.3216 59.1296 47.6992 58.6738C48.0768 58.2181 48.526 57.8665 49.0469 57.6191C49.5742 57.3652 50.1569 57.2383 50.7949 57.2383C51.3158 57.2383 51.7845 57.3099 52.2012 57.4531C52.6178 57.5898 52.9727 57.8112 53.2656 58.1172C53.5651 58.4232 53.793 58.8203 53.9492 59.3086C54.1055 59.7904 54.1836 60.3796 54.1836 61.0762V68H52.3672V61.0566C52.3672 60.5033 52.2858 60.0605 52.123 59.7285C51.9603 59.39 51.7227 59.1458 51.4102 58.9961C51.0977 58.8398 50.7135 58.7617 50.2578 58.7617C49.8086 58.7617 49.3984 58.8561 49.0273 59.0449C48.6628 59.2337 48.347 59.4941 48.0801 59.8262C47.8197 60.1582 47.6146 60.5391 47.4648 60.9688C47.3216 61.3919 47.25 61.8411 47.25 62.3164ZM61.3516 57.4336V58.8203H55.6387V57.4336H61.3516ZM57.5723 54.8652H59.3789V65.3828C59.3789 65.7409 59.4342 66.0111 59.5449 66.1934C59.6556 66.3757 59.7988 66.4961 59.9746 66.5547C60.1504 66.6133 60.3392 66.6426 60.541 66.6426C60.6908 66.6426 60.847 66.6296 61.0098 66.6035C61.179 66.571 61.306 66.5449 61.3906 66.5254L61.4004 68C61.2572 68.0456 61.0684 68.0879 60.834 68.127C60.6061 68.1725 60.3294 68.1953 60.0039 68.1953C59.5612 68.1953 59.1543 68.1074 58.7832 67.9316C58.4121 67.7559 58.1159 67.4629 57.8945 67.0527C57.6797 66.6361 57.5723 66.0762 57.5723 65.373V54.8652ZM70.2383 59.4648V72.0625H68.4219V57.4336H70.082L70.2383 59.4648ZM77.3574 62.6289V62.834C77.3574 63.6022 77.2663 64.3151 77.084 64.9727C76.9017 65.6237 76.6348 66.1901 76.2832 66.6719C75.9382 67.1536 75.5117 67.528 75.0039 67.7949C74.4961 68.0618 73.9134 68.1953 73.2559 68.1953C72.5853 68.1953 71.9928 68.0846 71.4785 67.8633C70.9642 67.6419 70.528 67.3197 70.1699 66.8965C69.8118 66.4733 69.5254 65.9655 69.3105 65.373C69.1022 64.7806 68.959 64.1133 68.8809 63.3711V62.2773C68.959 61.4961 69.1055 60.7962 69.3203 60.1777C69.5352 59.5592 69.8184 59.0319 70.1699 58.5957C70.528 58.153 70.9609 57.8177 71.4688 57.5898C71.9766 57.3555 72.5625 57.2383 73.2266 57.2383C73.8906 57.2383 74.4798 57.3685 74.9941 57.6289C75.5085 57.8828 75.9414 58.2474 76.293 58.7227C76.6445 59.1979 76.9082 59.7676 77.084 60.4316C77.2663 61.0892 77.3574 61.8216 77.3574 62.6289ZM75.541 62.834V62.6289C75.541 62.1016 75.4857 61.6068 75.375 61.1445C75.2643 60.6758 75.0918 60.2656 74.8574 59.9141C74.6296 59.556 74.3366 59.276 73.9785 59.0742C73.6204 58.8659 73.194 58.7617 72.6992 58.7617C72.2435 58.7617 71.8464 58.8398 71.5078 58.9961C71.1758 59.1523 70.8926 59.3639 70.6582 59.6309C70.4238 59.8913 70.2318 60.1908 70.082 60.5293C69.9388 60.8613 69.8314 61.2064 69.7598 61.5645V64.0938C69.89 64.5495 70.0723 64.9792 70.3066 65.3828C70.541 65.7799 70.8535 66.1022 71.2441 66.3496C71.6348 66.5905 72.1263 66.7109 72.7188 66.7109C73.207 66.7109 73.627 66.61 73.9785 66.4082C74.3366 66.1999 74.6296 65.9167 74.8574 65.5586C75.0918 65.2005 75.2643 64.7904 75.375 64.3281C75.4857 63.8594 75.541 63.3613 75.541 62.834ZM84.0469 68.1953C83.3112 68.1953 82.6439 68.0716 82.0449 67.8242C81.4525 67.5703 80.9414 67.2155 80.5117 66.7598C80.0885 66.304 79.763 65.7637 79.5352 65.1387C79.3073 64.5137 79.1934 63.8301 79.1934 63.0879V62.6777C79.1934 61.8184 79.3203 61.0534 79.5742 60.3828C79.8281 59.7057 80.1732 59.1328 80.6094 58.6641C81.0456 58.1953 81.5404 57.8405 82.0938 57.5996C82.6471 57.3587 83.2201 57.2383 83.8125 57.2383C84.5677 57.2383 85.2188 57.3685 85.7656 57.6289C86.319 57.8893 86.7715 58.2539 87.123 58.7227C87.4746 59.1849 87.735 59.7318 87.9043 60.3633C88.0736 60.9883 88.1582 61.6719 88.1582 62.4141V63.2246H80.2676V61.75H86.3516V61.6133C86.3255 61.1445 86.2279 60.6888 86.0586 60.2461C85.8958 59.8034 85.6354 59.4388 85.2773 59.1523C84.9193 58.8659 84.431 58.7227 83.8125 58.7227C83.4023 58.7227 83.0247 58.8105 82.6797 58.9863C82.3346 59.1556 82.0384 59.4095 81.791 59.748C81.5436 60.0866 81.3516 60.5 81.2148 60.9883C81.0781 61.4766 81.0098 62.0397 81.0098 62.6777V63.0879C81.0098 63.5892 81.0781 64.0612 81.2148 64.5039C81.3581 64.9401 81.5632 65.3242 81.8301 65.6562C82.1035 65.9883 82.4323 66.2487 82.8164 66.4375C83.207 66.6263 83.6497 66.7207 84.1445 66.7207C84.7826 66.7207 85.3229 66.5905 85.7656 66.3301C86.2083 66.0697 86.5957 65.7214 86.9277 65.2852L88.0215 66.1543C87.7936 66.4993 87.5039 66.8281 87.1523 67.1406C86.8008 67.4531 86.3678 67.707 85.8535 67.9023C85.3457 68.0977 84.7435 68.1953 84.0469 68.1953ZM92.0742 59.0938V68H90.2676V57.4336H92.0254L92.0742 59.0938ZM95.375 57.375L95.3652 59.0547C95.2155 59.0221 95.0723 59.0026 94.9355 58.9961C94.8053 58.9831 94.6556 58.9766 94.4863 58.9766C94.0697 58.9766 93.7018 59.0417 93.3828 59.1719C93.0638 59.3021 92.7936 59.4844 92.5723 59.7188C92.3509 59.9531 92.1751 60.2331 92.0449 60.5586C91.9212 60.8776 91.8398 61.2292 91.8008 61.6133L91.293 61.9062C91.293 61.2682 91.3548 60.6693 91.4785 60.1094C91.6087 59.5495 91.8073 59.0547 92.0742 58.625C92.3411 58.1888 92.6797 57.8503 93.0898 57.6094C93.5065 57.362 94.0013 57.2383 94.5742 57.2383C94.7044 57.2383 94.8542 57.2546 95.0234 57.2871C95.1927 57.3132 95.3099 57.3424 95.375 57.375ZM98.8418 59.5332V68H97.0254V57.4336H98.7441L98.8418 59.5332ZM98.4707 62.3164L97.6309 62.2871C97.6374 61.5645 97.7318 60.8971 97.9141 60.2852C98.0964 59.6667 98.3665 59.1296 98.7246 58.6738C99.0827 58.2181 99.5286 57.8665 100.062 57.6191C100.596 57.3652 101.215 57.2383 101.918 57.2383C102.413 57.2383 102.868 57.3099 103.285 57.4531C103.702 57.5898 104.063 57.8079 104.369 58.1074C104.675 58.4069 104.913 58.791 105.082 59.2598C105.251 59.7285 105.336 60.2949 105.336 60.959V68H103.529V61.0469C103.529 60.4935 103.435 60.0508 103.246 59.7188C103.064 59.3867 102.803 59.1458 102.465 58.9961C102.126 58.8398 101.729 58.7617 101.273 58.7617C100.74 58.7617 100.294 58.8561 99.9355 59.0449C99.5775 59.2337 99.291 59.4941 99.0762 59.8262C98.8613 60.1582 98.7051 60.5391 98.6074 60.9688C98.5163 61.3919 98.4707 61.8411 98.4707 62.3164ZM105.316 61.3203L104.105 61.6914C104.112 61.112 104.206 60.5553 104.389 60.0215C104.577 59.4876 104.848 59.0124 105.199 58.5957C105.557 58.179 105.997 57.8503 106.518 57.6094C107.038 57.362 107.634 57.2383 108.305 57.2383C108.871 57.2383 109.372 57.3132 109.809 57.4629C110.251 57.6126 110.622 57.8438 110.922 58.1562C111.228 58.4622 111.459 58.8561 111.615 59.3379C111.771 59.8197 111.85 60.3926 111.85 61.0566V68H110.033V61.0371C110.033 60.4447 109.939 59.9857 109.75 59.6602C109.568 59.3281 109.307 59.097 108.969 58.9668C108.637 58.8301 108.24 58.7617 107.777 58.7617C107.38 58.7617 107.029 58.8301 106.723 58.9668C106.417 59.1035 106.16 59.2923 105.951 59.5332C105.743 59.7676 105.583 60.0378 105.473 60.3438C105.368 60.6497 105.316 60.9753 105.316 61.3203ZM116.547 57.4336V68H114.73V57.4336H116.547ZM114.594 54.6309C114.594 54.3379 114.682 54.0905 114.857 53.8887C115.04 53.6868 115.307 53.5859 115.658 53.5859C116.003 53.5859 116.267 53.6868 116.449 53.8887C116.638 54.0905 116.732 54.3379 116.732 54.6309C116.732 54.9108 116.638 55.1517 116.449 55.3535C116.267 55.5488 116.003 55.6465 115.658 55.6465C115.307 55.6465 115.04 55.5488 114.857 55.3535C114.682 55.1517 114.594 54.9108 114.594 54.6309ZM125.6 65.1973C125.6 64.9368 125.541 64.696 125.424 64.4746C125.313 64.2467 125.082 64.0417 124.73 63.8594C124.385 63.6706 123.865 63.5078 123.168 63.3711C122.582 63.2474 122.051 63.1009 121.576 62.9316C121.107 62.7624 120.707 62.5573 120.375 62.3164C120.049 62.0755 119.799 61.7923 119.623 61.4668C119.447 61.1413 119.359 60.7604 119.359 60.3242C119.359 59.9076 119.451 59.5137 119.633 59.1426C119.822 58.7715 120.085 58.4427 120.424 58.1562C120.769 57.8698 121.182 57.6452 121.664 57.4824C122.146 57.3197 122.683 57.2383 123.275 57.2383C124.122 57.2383 124.844 57.388 125.443 57.6875C126.042 57.987 126.501 58.3874 126.82 58.8887C127.139 59.3835 127.299 59.9336 127.299 60.5391H125.492C125.492 60.2461 125.404 59.9629 125.229 59.6895C125.059 59.4095 124.809 59.1784 124.477 58.9961C124.151 58.8138 123.751 58.7227 123.275 58.7227C122.774 58.7227 122.367 58.8008 122.055 58.957C121.749 59.1068 121.524 59.2988 121.381 59.5332C121.244 59.7676 121.176 60.015 121.176 60.2754C121.176 60.4707 121.208 60.6465 121.273 60.8027C121.345 60.9525 121.469 61.0924 121.645 61.2227C121.82 61.3464 122.068 61.4635 122.387 61.5742C122.706 61.6849 123.113 61.7956 123.607 61.9062C124.473 62.1016 125.186 62.3359 125.746 62.6094C126.306 62.8828 126.723 63.2181 126.996 63.6152C127.27 64.0124 127.406 64.4941 127.406 65.0605C127.406 65.5228 127.309 65.946 127.113 66.3301C126.924 66.7142 126.648 67.0462 126.283 67.3262C125.925 67.5996 125.495 67.8145 124.994 67.9707C124.499 68.1204 123.943 68.1953 123.324 68.1953C122.393 68.1953 121.605 68.0293 120.961 67.6973C120.316 67.3652 119.828 66.9355 119.496 66.4082C119.164 65.8809 118.998 65.3242 118.998 64.7383H120.814C120.84 65.2331 120.984 65.627 121.244 65.9199C121.505 66.2064 121.824 66.4115 122.201 66.5352C122.579 66.6523 122.953 66.7109 123.324 66.7109C123.819 66.7109 124.232 66.6458 124.564 66.5156C124.903 66.3854 125.16 66.2064 125.336 65.9785C125.512 65.7507 125.6 65.4902 125.6 65.1973ZM135.932 65.1973C135.932 64.9368 135.873 64.696 135.756 64.4746C135.645 64.2467 135.414 64.0417 135.062 63.8594C134.717 63.6706 134.197 63.5078 133.5 63.3711C132.914 63.2474 132.383 63.1009 131.908 62.9316C131.439 62.7624 131.039 62.5573 130.707 62.3164C130.382 62.0755 130.131 61.7923 129.955 61.4668C129.779 61.1413 129.691 60.7604 129.691 60.3242C129.691 59.9076 129.783 59.5137 129.965 59.1426C130.154 58.7715 130.417 58.4427 130.756 58.1562C131.101 57.8698 131.514 57.6452 131.996 57.4824C132.478 57.3197 133.015 57.2383 133.607 57.2383C134.454 57.2383 135.176 57.388 135.775 57.6875C136.374 57.987 136.833 58.3874 137.152 58.8887C137.471 59.3835 137.631 59.9336 137.631 60.5391H135.824C135.824 60.2461 135.736 59.9629 135.561 59.6895C135.391 59.4095 135.141 59.1784 134.809 58.9961C134.483 58.8138 134.083 58.7227 133.607 58.7227C133.106 58.7227 132.699 58.8008 132.387 58.957C132.081 59.1068 131.856 59.2988 131.713 59.5332C131.576 59.7676 131.508 60.015 131.508 60.2754C131.508 60.4707 131.54 60.6465 131.605 60.8027C131.677 60.9525 131.801 61.0924 131.977 61.2227C132.152 61.3464 132.4 61.4635 132.719 61.5742C133.038 61.6849 133.445 61.7956 133.939 61.9062C134.805 62.1016 135.518 62.3359 136.078 62.6094C136.638 62.8828 137.055 63.2181 137.328 63.6152C137.602 64.0124 137.738 64.4941 137.738 65.0605C137.738 65.5228 137.641 65.946 137.445 66.3301C137.257 66.7142 136.98 67.0462 136.615 67.3262C136.257 67.5996 135.827 67.8145 135.326 67.9707C134.831 68.1204 134.275 68.1953 133.656 68.1953C132.725 68.1953 131.938 68.0293 131.293 67.6973C130.648 67.3652 130.16 66.9355 129.828 66.4082C129.496 65.8809 129.33 65.3242 129.33 64.7383H131.146C131.173 65.2331 131.316 65.627 131.576 65.9199C131.837 66.2064 132.156 66.4115 132.533 66.5352C132.911 66.6523 133.285 66.7109 133.656 66.7109C134.151 66.7109 134.564 66.6458 134.896 66.5156C135.235 66.3854 135.492 66.2064 135.668 65.9785C135.844 65.7507 135.932 65.4902 135.932 65.1973ZM142.074 57.4336V68H140.258V57.4336H142.074ZM140.121 54.6309C140.121 54.3379 140.209 54.0905 140.385 53.8887C140.567 53.6868 140.834 53.5859 141.186 53.5859C141.531 53.5859 141.794 53.6868 141.977 53.8887C142.165 54.0905 142.26 54.3379 142.26 54.6309C142.26 54.9108 142.165 55.1517 141.977 55.3535C141.794 55.5488 141.531 55.6465 141.186 55.6465C140.834 55.6465 140.567 55.5488 140.385 55.3535C140.209 55.1517 140.121 54.9108 140.121 54.6309ZM144.496 62.834V62.6094C144.496 61.8477 144.607 61.1413 144.828 60.4902C145.049 59.8327 145.368 59.263 145.785 58.7812C146.202 58.293 146.706 57.9154 147.299 57.6484C147.891 57.375 148.555 57.2383 149.291 57.2383C150.033 57.2383 150.701 57.375 151.293 57.6484C151.892 57.9154 152.4 58.293 152.816 58.7812C153.24 59.263 153.562 59.8327 153.783 60.4902C154.005 61.1413 154.115 61.8477 154.115 62.6094V62.834C154.115 63.5957 154.005 64.3021 153.783 64.9531C153.562 65.6042 153.24 66.1738 152.816 66.6621C152.4 67.1439 151.895 67.5215 151.303 67.7949C150.717 68.0618 150.053 68.1953 149.311 68.1953C148.568 68.1953 147.901 68.0618 147.309 67.7949C146.716 67.5215 146.208 67.1439 145.785 66.6621C145.368 66.1738 145.049 65.6042 144.828 64.9531C144.607 64.3021 144.496 63.5957 144.496 62.834ZM146.303 62.6094V62.834C146.303 63.3613 146.365 63.8594 146.488 64.3281C146.612 64.7904 146.798 65.2005 147.045 65.5586C147.299 65.9167 147.615 66.1999 147.992 66.4082C148.37 66.61 148.809 66.7109 149.311 66.7109C149.805 66.7109 150.238 66.61 150.609 66.4082C150.987 66.1999 151.299 65.9167 151.547 65.5586C151.794 65.2005 151.98 64.7904 152.104 64.3281C152.234 63.8594 152.299 63.3613 152.299 62.834V62.6094C152.299 62.0885 152.234 61.597 152.104 61.1348C151.98 60.666 151.791 60.2526 151.537 59.8945C151.29 59.5299 150.977 59.2435 150.6 59.0352C150.229 58.8268 149.792 58.7227 149.291 58.7227C148.796 58.7227 148.36 58.8268 147.982 59.0352C147.611 59.2435 147.299 59.5299 147.045 59.8945C146.798 60.2526 146.612 60.666 146.488 61.1348C146.365 61.597 146.303 62.0885 146.303 62.6094ZM158.188 59.6895V68H156.381V57.4336H158.09L158.188 59.6895ZM157.758 62.3164L157.006 62.2871C157.012 61.5645 157.12 60.8971 157.328 60.2852C157.536 59.6667 157.829 59.1296 158.207 58.6738C158.585 58.2181 159.034 57.8665 159.555 57.6191C160.082 57.3652 160.665 57.2383 161.303 57.2383C161.824 57.2383 162.292 57.3099 162.709 57.4531C163.126 57.5898 163.48 57.8112 163.773 58.1172C164.073 58.4232 164.301 58.8203 164.457 59.3086C164.613 59.7904 164.691 60.3796 164.691 61.0762V68H162.875V61.0566C162.875 60.5033 162.794 60.0605 162.631 59.7285C162.468 59.39 162.23 59.1458 161.918 58.9961C161.605 58.8398 161.221 58.7617 160.766 58.7617C160.316 58.7617 159.906 58.8561 159.535 59.0449C159.171 59.2337 158.855 59.4941 158.588 59.8262C158.327 60.1582 158.122 60.5391 157.973 60.9688C157.829 61.3919 157.758 61.8411 157.758 62.3164Z" fill="white"/>
</svg>
