<svg width="376" height="324" viewBox="0 0 376 324" fill="none" xmlns="http://www.w3.org/2000/svg">
<path d="M56.0714 262.001L61.0132 266.377L53.2887 276.833L50.0714 274.457L56.0714 262.001Z" fill="#FF7373"/>
<path d="M0 190.933L7.13964 186.516L15.5014 197.983L11.3866 200.983L0 190.933Z" fill="#FF7373"/>
<path d="M46.9014 150.001L54.1635 156.259L43.7306 170.629L39.0278 167.214L46.9014 150.001Z" fill="#6385FF"/>
<path d="M21.3211 21.001L11.6686 29.9016L26.5535 49.0033L32.8322 44.1107L21.3211 21.001Z" fill="#6385FF"/>
<path d="M25.3434 133.001L29.6294 138.077L20.6876 147.045L17.836 144.202L25.3434 133.001Z" fill="#FF7373"/>
<path d="M147.2 0L142.335 4.48242L149.8 14.0617L152.963 11.5966L147.2 0Z" fill="#8FE4FF"/>
<path d="M155.383 80.0011L152.261 82.9726L158.079 90.4383L160.137 88.8346L155.383 80.0011Z" fill="#6385FF"/>
<path d="M62.2002 36.9913L57.3353 41.4737L64.8 51.053L67.9634 48.5879L62.2002 36.9913Z" fill="#8FE4FF"/>
<path d="M97.3141 142.001L95.2056 144.796L99.7804 148.848L101.188 147.258L97.3141 142.001Z" fill="#8FE4FF"/>
<g clip-path="url(#clip0_948_22868)">
<path d="M198.47 133.945C198.47 133.945 134.628 225.927 134.89 235.237C134.89 235.237 138.408 236.311 142.655 240.176C147.571 244.649 152.968 245.93 155.384 244.209C158.865 241.731 158.206 238.98 158.206 238.98L217.753 252.726C217.753 252.726 237.132 243.967 272.821 196.428L281.805 179.584L198.47 133.945Z" fill="#3F63E3"/>
<path d="M347.949 169.74C350.141 160.371 349.806 151.47 346.955 143.28C341.226 126.836 328.59 115.072 309.396 108.315C307.376 109.991 303.254 113.237 307.479 113.955C307.491 113.958 307.468 113.954 307.479 113.955C307.468 113.953 307.468 113.953 307.479 113.955C323.933 119.745 336.504 130.721 341.63 145.439C344.093 152.514 344.369 160.257 342.451 168.457C344.01 170.288 347.293 173.108 347.949 169.74Z" fill="#B3CAF8"/>
<path d="M115.228 156.208C115.228 156.208 125.116 161.631 135.241 154.161L167.053 130.389C167.053 130.389 177.653 120.386 190.628 127.199C190.628 127.199 182.954 154.939 205.912 156.743C205.912 156.743 228.999 164.114 241.818 173.001C248.265 177.472 261.774 184.743 268.293 188.983C270.042 190.119 273.531 191.712 275.421 193.503C278.045 195.991 283.15 201.492 276.842 208.193C276.842 208.193 272.83 214.255 262.757 209.609C253.396 205.29 236.699 194.664 226.792 189.981C226.254 189.727 223.917 189.539 227.475 192.257C231.864 195.607 251.836 206.933 251.836 206.933C251.836 206.933 259.269 210.862 261.191 213.081C262.878 215.027 265.646 219.414 262.158 224.966C262.158 224.966 257.266 233.347 246.544 228.459L221.685 215.239C221.685 215.239 216.429 212.684 220.905 216.801C220.905 216.801 246.147 230.323 247.363 232.699C250.831 239.471 246.89 249.2 235.022 246.173L207.021 235C207.021 235 204.578 234.94 206.775 236.616C206.775 236.616 232.664 246.236 234.52 247.412C236.946 248.951 232.619 258.117 221.098 256.053C204.666 253.111 171.583 248.239 155.383 244.208C149.683 242.79 137.819 238.594 133.189 236.508C133.189 236.508 91.9281 213.634 67.4994 213.589C65.8351 213.586 64.546 212.004 65.0176 210.408L81.0884 156.014C81.3968 154.971 82.384 154.277 83.4706 154.341L115.228 156.208Z" fill="#6385FF"/>
<path d="M164.59 308.238C153.173 308.964 142.793 306.665 133.732 301.404C115.539 290.836 104.17 272.715 99.9391 247.543C97.4651 232.81 97.4675 216.944 97.4707 200.147L97.4698 199.796C97.4691 198.731 97.4704 196.744 97.4946 194.219C97.4964 194.027 97.6989 174.333 99.529 155.185C101.118 138.539 103.097 117.82 106.829 100.066C109.757 86.1288 113.571 75.1155 118.488 66.3958C126.783 51.6909 139.488 41.7695 154.264 38.4591C156.804 37.8894 159.4 37.5185 161.976 37.3546C178.012 36.3346 193.108 43.029 204.486 56.2021C210.102 62.7044 214.136 69.7764 218.409 77.2584C225.73 90.0864 234.033 104.63 249.794 115.352C265.272 125.883 285.52 130.887 300.307 134.542C309.8 136.888 318.002 138.914 325.717 142.089C329.995 143.85 336.415 146.824 342.776 152.313C352.933 161.079 358.986 173.097 359.816 186.153C360.467 196.392 358.389 211.759 344.783 226.826C338.77 233.487 330.924 239.575 320.797 245.447C306.182 253.914 288.395 261.05 271.19 267.946C262.891 271.274 255.067 274.412 249.359 277.057C202.55 298.751 183.117 307.059 164.59 308.238ZM162.43 44.4268C160.221 44.5673 157.995 44.8864 155.815 45.3728C143.023 48.2377 131.957 56.9404 124.661 69.8783C120.104 77.9543 116.539 88.3088 113.764 101.524C110.113 118.889 108.156 139.391 106.585 155.861C104.785 174.709 104.584 194.095 104.582 194.29C104.556 196.783 104.557 198.745 104.556 199.795L104.557 200.147C104.553 216.642 104.55 232.221 106.926 246.368C110.791 269.363 121.008 285.818 137.292 295.276C145.118 299.82 154.152 301.801 164.143 301.165C181.459 300.064 200.448 291.915 246.381 270.628C252.258 267.905 260.166 264.733 268.536 261.376C285.524 254.564 303.071 247.525 317.244 239.313C326.725 233.82 334.014 228.179 339.527 222.076C351.479 208.841 353.312 195.481 352.747 186.599C352.038 175.458 346.853 165.185 338.149 157.672C332.569 152.856 326.843 150.208 323.021 148.634C315.794 145.658 307.83 143.692 298.611 141.414C283.306 137.632 262.34 132.45 245.812 121.206C228.697 109.558 219.963 94.2611 212.262 80.7651C208.165 73.5874 204.295 66.8072 199.131 60.8261C189.232 49.3758 176.2 43.5509 162.43 44.4268Z" fill="#8FE4FF"/>
<path d="M208.098 122.908C208.098 122.908 192.554 120.11 182.455 132.736L164.636 146.552C164.636 146.552 156.763 150.198 155.526 161.21L148.948 179.985C148.948 179.985 143.371 192.997 163.731 188.838C163.731 188.838 174.91 182.555 182.016 162.971L181.665 160.624C181.665 160.624 183.349 163.368 189.999 161.378C189.999 161.378 196.725 158.157 206.045 153.844C206.045 153.844 207.846 155.524 217.771 159.39C217.771 159.39 241.965 168.267 248.014 173.83L277.767 190.802C277.767 190.802 281.804 188.636 290.406 171.349L326.082 140.627C327.076 139.771 327.173 138.266 326.297 137.29L293.389 100.607C292.755 99.8994 291.781 99.6369 290.885 99.9545C282.791 102.826 243.324 116.759 233.553 118.921L208.098 122.908Z" fill="#4CCB86"/>
<path d="M349 155.999C349 155.999 349.82 151.337 346.687 143.032C340.394 126.357 326.827 114.318 306.363 107.249C294.384 103.114 281.111 100.887 267.059 98.5298L266.765 98.4797C264.643 100.145 261.536 103.662 266.031 104.441C266.042 104.444 266.055 104.446 266.067 104.448C279.866 106.761 292.899 108.947 304.401 112.918C323.095 119.376 335.43 130.219 341.063 145.144C343.769 152.318 343.105 151.907 343.105 151.907L349 155.999Z" fill="#B3CAF8"/>
<path d="M107.483 236.756C97.6481 235.703 89.1383 232.224 82.1871 226.414C68.2309 214.744 61.1954 197.636 61.2757 175.566C61.3252 162.648 63.6501 149.127 66.1124 134.814L66.163 134.514C68.4836 133.033 72.9212 131.227 72.158 135.814C72.1563 135.827 72.1541 135.839 72.1519 135.851C69.7327 149.908 67.4491 163.183 67.4025 175.587C67.3291 195.749 73.6265 211.268 86.1179 221.713C92.1224 226.732 99.5307 229.742 108.138 230.664C109.374 232.908 110.973 237.27 107.483 236.756Z" fill="#B3CAF8"/>
<path d="M146.357 274.928C137.284 275.505 130.242 275.204 124.06 273.983C115.593 272.307 108.584 268.743 103.23 263.395C90.9968 251.167 86.0524 234.416 88.1126 212.183C89.4853 197.386 93.775 181.201 98.3203 164.065L98.4094 163.733C98.7011 162.632 99.2443 160.571 99.9776 157.924C100.032 157.725 105.583 137.588 112.689 118.37C118.933 101.485 126.702 80.4685 135.22 63.5314C141.37 51.3087 147.411 42.2336 153.694 35.7869C165.284 23.896 177.007 21.7591 184.802 22.0582C186.641 22.1293 188.475 22.3427 190.258 22.6977C198.157 24.2606 209.088 29.2362 216.309 44.0578C219.623 50.8558 221.597 58.2926 223.888 66.9054C228.404 83.911 234.03 105.069 250.873 124.495C266.793 142.852 288.847 154.937 304.952 163.761C313.747 168.582 321.343 172.74 327.511 177.422C330.478 179.675 334.842 183.283 338.45 188.562C343.854 196.465 345.768 205.41 343.982 214.431C342.524 221.799 338.056 232.357 325.07 240.82C318.518 245.091 310.246 248.552 299.785 251.407C283.146 255.946 262.822 258.446 243.17 260.863C233.089 262.104 223.578 263.274 216.201 264.577C183.169 270.415 161.813 273.945 146.357 274.928ZM125.435 267.036C140.965 270.111 163.482 266.706 214.966 257.6C222.525 256.264 232.128 255.082 242.293 253.832C261.709 251.444 281.773 248.975 297.923 244.569C307.662 241.913 315.279 238.746 321.208 234.884C332.129 227.769 335.842 219.087 337.038 213.056C338.445 205.944 336.912 198.859 332.608 192.564C329.58 188.136 325.804 185.022 323.232 183.068C317.482 178.703 310.102 174.658 301.557 169.978C284.978 160.894 262.277 148.458 245.526 129.14C227.607 108.476 221.752 86.4383 217.044 68.7314C214.851 60.4748 212.957 53.3487 209.945 47.1668C203.998 34.9612 195.209 30.9068 188.883 29.652C187.464 29.3696 185.998 29.2003 184.529 29.1412C178.171 28.8926 168.538 30.7084 158.768 40.734C153.001 46.6511 147.367 55.1503 141.548 66.7167C133.205 83.2983 125.516 104.108 119.333 120.829C112.359 139.687 106.859 159.608 106.804 159.807C106.083 162.422 105.546 164.457 105.253 165.551L105.165 165.887C100.7 182.726 96.4807 198.633 95.1629 212.838C93.3087 232.843 97.5853 247.742 108.235 258.385C112.581 262.725 118.37 265.636 125.435 267.036Z" fill="#4382FF"/>
<path d="M153.386 249.426C153.386 249.426 157.588 242.211 160.391 239.445C166.077 233.836 177.967 237.162 179.238 243.036C179.238 243.036 182.386 248.578 173.31 258.416C171.631 260.233 166.144 264.735 156.584 258.645C156.584 258.646 150.819 254.505 153.386 249.426Z" fill="#28B86A"/>
<path d="M156.289 189.462C156.289 189.462 172.178 199.186 183.043 163.211C183.043 163.211 191.365 165.025 202.897 156.326L204.995 151.994C204.995 151.994 180.125 157.73 180.297 158.212C180.468 158.694 156.289 189.462 156.289 189.462Z" fill="#117CD3"/>
<path d="M176.511 259.738C175.801 255.376 180.971 246.59 183.316 243.425C186.079 239.696 198.17 234.986 201.23 248.094C201.23 248.094 201.586 257.497 195.298 263.645C192.309 266.569 178.015 268.985 176.511 259.738Z" fill="#28B86A"/>
<path d="M203.677 249.718C205.39 246.083 215.722 243.195 217.133 252.865C217.667 256.528 216.488 262.814 211.325 265.875C207.571 268.1 196.761 266.53 198.235 262.036C199.247 258.947 199.801 257.931 203.677 249.718Z" fill="#28B86A"/>
<path d="M133.737 243.022C134.407 240.901 135.685 238.79 138.408 235.992C140.056 234.3 145.118 233.107 148.437 234.66C150.82 235.775 155.579 238.489 154.951 241.493C153.754 247.2 151.499 255.009 144.406 253.691C144.406 253.691 130.746 252.48 133.737 243.022Z" fill="#28B86A"/>
<path d="M138.296 239.369C138.296 239.369 136.861 245.846 141.064 247.985C141.064 247.985 146.794 253.381 151.783 242.714C152.615 240.937 149.954 238.3 145.735 237.705C145.735 237.705 141.683 236.684 138.296 239.369Z" fill="#D4E5FF"/>
<path d="M159.466 248.137C159.466 248.137 161.323 242.124 163.381 240.985C165.501 239.812 172.18 238.854 175.792 245.092C176.413 246.164 174.952 248.739 174.317 250.086C173.147 252.575 169.822 256.49 165.181 254.641C165.18 254.64 159.368 253.305 159.466 248.137Z" fill="#D4E5FF"/>
<path d="M182.846 250.254C183.25 248.523 185.23 245.219 187.341 244.746C190.812 243.971 199.242 245.592 197.727 251.048C197.727 251.048 196.42 255.676 192.595 257.182C192.595 257.182 186.042 260.469 182.734 254.401C182.237 253.49 182.613 251.263 182.846 250.254Z" fill="#D4E5FF"/>
<path d="M202.657 257.96C203.975 260.361 208.63 262.442 210.986 259.717C211.942 258.613 213.758 255.088 213.704 253.63C213.611 251.164 208.182 246.592 204.556 251.903C203.7 253.156 201.927 256.63 202.657 257.96Z" fill="#D4E5FF"/>
<path d="M152.644 170.449C152.644 170.449 160.348 166.414 163.407 171.715C163.407 171.715 162.162 181.978 159.67 184.522C157.744 186.491 150.745 188.05 148.91 184.572C148.91 184.572 147.578 180.922 152.644 170.449Z" fill="#D4E5FF"/>
<path d="M225.608 162.93C225.608 162.93 241.377 167.279 255.076 153.284C255.076 153.284 246.356 168.594 231.76 165.625L225.608 162.93Z" fill="#117CD3"/>
</g>
<defs>
<clipPath id="clip0_948_22868">
<rect width="300" height="288" fill="white" transform="translate(42.646 37.4199) rotate(-6.91425)"/>
</clipPath>
</defs>
</svg>
