<svg width="449" height="154" viewBox="0 0 449 154" fill="none" xmlns="http://www.w3.org/2000/svg">
<path d="M28.8535 69.0645C28.8535 53.6005 41.3895 41.0645 56.8535 41.0645H420.854C436.318 41.0645 448.854 53.6005 448.854 69.0645V77.0645C448.854 92.5284 436.317 105.064 420.854 105.064H56.8535C41.3895 105.064 28.8535 92.5284 28.8535 77.0645V69.0645Z" fill="white"/>
<path fill-rule="evenodd" clip-rule="evenodd" d="M3.144 90.1258C-0.544293 72.2598 8.67474 54.3648 20.2301 39.7144C34.1607 22.0524 51.0158 -2.96664 73.1966 1.30979C95.7679 5.66151 94.1605 38.0824 107.062 56.4555C116.02 69.2117 138.689 75.4905 136.116 90.9124C133.511 106.527 108.888 105.731 97.0115 116.702C85.4048 127.425 85.134 151.165 69.3117 152.629C53.6875 154.074 48.3923 132.74 37.2644 122.228C25.4637 111.081 6.3991 105.894 3.144 90.1258Z" fill="#A9D2FF" fill-opacity="0.2"/>
<path d="M86.9168 81.6973H65.5957" stroke="#5F88E6" stroke-width="2.22672" stroke-miterlimit="10" stroke-linecap="round" stroke-linejoin="round"/>
<path d="M91.5279 86.151C94.074 86.151 96.1379 84.1572 96.1379 81.6976C96.1379 79.2379 94.074 77.2441 91.5279 77.2441C88.9818 77.2441 86.918 79.2379 86.918 81.6976C86.918 84.1572 88.9818 86.151 91.5279 86.151Z" stroke="#5F88E6" stroke-width="2.22672" stroke-miterlimit="10" stroke-linecap="round" stroke-linejoin="round"/>
<path d="M96.7136 66.1113H75.3926" stroke="#5F88E6" stroke-width="2.22672" stroke-miterlimit="10" stroke-linecap="round" stroke-linejoin="round"/>
<path d="M70.7818 70.5631C73.3278 70.5631 75.3918 68.5693 75.3918 66.1097C75.3918 63.6501 73.3278 61.6562 70.7818 61.6562C68.2358 61.6562 66.1719 63.6501 66.1719 66.1097C66.1719 68.5693 68.2358 70.5631 70.7818 70.5631Z" stroke="#5F88E6" stroke-width="2.22672" stroke-miterlimit="10" stroke-linecap="round" stroke-linejoin="round"/>
<path d="M136.076 64.0645V82.0645H133.908V64.0645H136.076ZM135.561 75.2441L134.658 75.209C134.666 74.3418 134.795 73.541 135.045 72.8066C135.295 72.0645 135.646 71.4199 136.1 70.873C136.553 70.3262 137.092 69.9043 137.717 69.6074C138.35 69.3027 139.049 69.1504 139.814 69.1504C140.439 69.1504 141.002 69.2363 141.502 69.4082C142.002 69.5723 142.428 69.8379 142.779 70.2051C143.139 70.5723 143.412 71.0488 143.6 71.6348C143.787 72.2129 143.881 72.9199 143.881 73.7559V82.0645H141.701V73.7324C141.701 73.0684 141.604 72.5371 141.408 72.1387C141.213 71.7324 140.928 71.4395 140.553 71.2598C140.178 71.0723 139.717 70.9785 139.17 70.9785C138.631 70.9785 138.139 71.0918 137.693 71.3184C137.256 71.5449 136.877 71.8574 136.557 72.2559C136.244 72.6543 135.998 73.1113 135.818 73.627C135.646 74.1348 135.561 74.6738 135.561 75.2441ZM152.436 69.3848V71.0488H145.58V69.3848H152.436ZM147.9 66.3027H150.068V78.9238C150.068 79.3535 150.135 79.6777 150.268 79.8965C150.4 80.1152 150.572 80.2598 150.783 80.3301C150.994 80.4004 151.221 80.4355 151.463 80.4355C151.643 80.4355 151.83 80.4199 152.025 80.3887C152.229 80.3496 152.381 80.3184 152.482 80.2949L152.494 82.0645C152.322 82.1191 152.096 82.1699 151.814 82.2168C151.541 82.2715 151.209 82.2988 150.818 82.2988C150.287 82.2988 149.799 82.1934 149.354 81.9824C148.908 81.7715 148.553 81.4199 148.287 80.9277C148.029 80.4277 147.9 79.7559 147.9 78.9121V66.3027ZM160.287 69.3848V71.0488H153.432V69.3848H160.287ZM155.752 66.3027H157.92V78.9238C157.92 79.3535 157.986 79.6777 158.119 79.8965C158.252 80.1152 158.424 80.2598 158.635 80.3301C158.846 80.4004 159.072 80.4355 159.314 80.4355C159.494 80.4355 159.682 80.4199 159.877 80.3887C160.08 80.3496 160.232 80.3184 160.334 80.2949L160.346 82.0645C160.174 82.1191 159.947 82.1699 159.666 82.2168C159.393 82.2715 159.061 82.2988 158.67 82.2988C158.139 82.2988 157.65 82.1934 157.205 81.9824C156.76 81.7715 156.404 81.4199 156.139 80.9277C155.881 80.4277 155.752 79.7559 155.752 78.9121V66.3027ZM164.998 71.8223V86.9395H162.818V69.3848H164.811L164.998 71.8223ZM173.541 75.6191V75.8652C173.541 76.7871 173.432 77.6426 173.213 78.4316C172.994 79.2129 172.674 79.8926 172.252 80.4707C171.838 81.0488 171.326 81.498 170.717 81.8184C170.107 82.1387 169.408 82.2988 168.619 82.2988C167.814 82.2988 167.104 82.166 166.486 81.9004C165.869 81.6348 165.346 81.248 164.916 80.7402C164.486 80.2324 164.143 79.623 163.885 78.9121C163.635 78.2012 163.463 77.4004 163.369 76.5098V75.1973C163.463 74.2598 163.639 73.4199 163.896 72.6777C164.154 71.9355 164.494 71.3027 164.916 70.7793C165.346 70.248 165.865 69.8457 166.475 69.5723C167.084 69.291 167.787 69.1504 168.584 69.1504C169.381 69.1504 170.088 69.3066 170.705 69.6191C171.322 69.9238 171.842 70.3613 172.264 70.9316C172.686 71.502 173.002 72.1855 173.213 72.9824C173.432 73.7715 173.541 74.6504 173.541 75.6191ZM171.361 75.8652V75.6191C171.361 74.9863 171.295 74.3926 171.162 73.8379C171.029 73.2754 170.822 72.7832 170.541 72.3613C170.268 71.9316 169.916 71.5957 169.486 71.3535C169.057 71.1035 168.545 70.9785 167.951 70.9785C167.404 70.9785 166.928 71.0723 166.521 71.2598C166.123 71.4473 165.783 71.7012 165.502 72.0215C165.221 72.334 164.99 72.6934 164.811 73.0996C164.639 73.498 164.51 73.9121 164.424 74.3418V77.377C164.58 77.9238 164.799 78.4395 165.08 78.9238C165.361 79.4004 165.736 79.7871 166.205 80.084C166.674 80.373 167.264 80.5176 167.975 80.5176C168.561 80.5176 169.064 80.3965 169.486 80.1543C169.916 79.9043 170.268 79.5645 170.541 79.1348C170.822 78.7051 171.029 78.2129 171.162 77.6582C171.295 77.0957 171.361 76.498 171.361 75.8652ZM183.689 78.7012C183.689 78.3887 183.619 78.0996 183.479 77.834C183.346 77.5605 183.068 77.3145 182.646 77.0957C182.232 76.8691 181.607 76.6738 180.771 76.5098C180.068 76.3613 179.432 76.1855 178.861 75.9824C178.299 75.7793 177.818 75.5332 177.42 75.2441C177.029 74.9551 176.729 74.6152 176.518 74.2246C176.307 73.834 176.201 73.377 176.201 72.8535C176.201 72.3535 176.311 71.8809 176.529 71.4355C176.756 70.9902 177.072 70.5957 177.479 70.252C177.893 69.9082 178.389 69.6387 178.967 69.4434C179.545 69.248 180.189 69.1504 180.9 69.1504C181.916 69.1504 182.783 69.3301 183.502 69.6895C184.221 70.0488 184.771 70.5293 185.154 71.1309C185.537 71.7246 185.729 72.3848 185.729 73.1113H183.561C183.561 72.7598 183.455 72.4199 183.244 72.0918C183.041 71.7559 182.74 71.4785 182.342 71.2598C181.951 71.041 181.471 70.9316 180.9 70.9316C180.299 70.9316 179.811 71.0254 179.436 71.2129C179.068 71.3926 178.799 71.623 178.627 71.9043C178.463 72.1855 178.381 72.4824 178.381 72.7949C178.381 73.0293 178.42 73.2402 178.498 73.4277C178.584 73.6074 178.732 73.7754 178.943 73.9316C179.154 74.0801 179.451 74.2207 179.834 74.3535C180.217 74.4863 180.705 74.6191 181.299 74.752C182.338 74.9863 183.193 75.2676 183.865 75.5957C184.537 75.9238 185.037 76.3262 185.365 76.8027C185.693 77.2793 185.857 77.8574 185.857 78.5371C185.857 79.0918 185.74 79.5996 185.506 80.0605C185.279 80.5215 184.947 80.9199 184.51 81.2559C184.08 81.584 183.564 81.8418 182.963 82.0293C182.369 82.209 181.701 82.2988 180.959 82.2988C179.842 82.2988 178.896 82.0996 178.123 81.7012C177.35 81.3027 176.764 80.7871 176.365 80.1543C175.967 79.5215 175.768 78.8535 175.768 78.1504H177.947C177.979 78.7441 178.15 79.2168 178.463 79.5684C178.775 79.9121 179.158 80.1582 179.611 80.3066C180.064 80.4473 180.514 80.5176 180.959 80.5176C181.553 80.5176 182.049 80.4395 182.447 80.2832C182.854 80.127 183.162 79.9121 183.373 79.6387C183.584 79.3652 183.689 79.0527 183.689 78.7012ZM188.611 80.916C188.611 80.5488 188.725 80.2402 188.951 79.9902C189.186 79.7324 189.521 79.6035 189.959 79.6035C190.396 79.6035 190.729 79.7324 190.955 79.9902C191.189 80.2402 191.307 80.5488 191.307 80.916C191.307 81.2754 191.189 81.5801 190.955 81.8301C190.729 82.0801 190.396 82.2051 189.959 82.2051C189.521 82.2051 189.186 82.0801 188.951 81.8301C188.725 81.5801 188.611 81.2754 188.611 80.916ZM188.623 70.5684C188.623 70.2012 188.736 69.8926 188.963 69.6426C189.197 69.3848 189.533 69.2559 189.971 69.2559C190.408 69.2559 190.74 69.3848 190.967 69.6426C191.201 69.8926 191.318 70.2012 191.318 70.5684C191.318 70.9277 191.201 71.2324 190.967 71.4824C190.74 71.7324 190.408 71.8574 189.971 71.8574C189.533 71.8574 189.197 71.7324 188.963 71.4824C188.736 71.2324 188.623 70.9277 188.623 70.5684ZM202.064 65.002L194.951 83.5293H193.088L200.213 65.002H202.064ZM209.354 65.002L202.24 83.5293H200.377L207.502 65.002H209.354ZM219.713 79.6035V64.0645H221.893V82.0645H219.9L219.713 79.6035ZM211.182 75.8652V75.6191C211.182 74.6504 211.299 73.7715 211.533 72.9824C211.775 72.1855 212.115 71.502 212.553 70.9316C212.998 70.3613 213.525 69.9238 214.135 69.6191C214.752 69.3066 215.439 69.1504 216.197 69.1504C216.994 69.1504 217.689 69.291 218.283 69.5723C218.885 69.8457 219.393 70.248 219.807 70.7793C220.229 71.3027 220.561 71.9355 220.803 72.6777C221.045 73.4199 221.213 74.2598 221.307 75.1973V76.2754C221.221 77.2051 221.053 78.041 220.803 78.7832C220.561 79.5254 220.229 80.1582 219.807 80.6816C219.393 81.2051 218.885 81.6074 218.283 81.8887C217.682 82.1621 216.979 82.2988 216.174 82.2988C215.432 82.2988 214.752 82.1387 214.135 81.8184C213.525 81.498 212.998 81.0488 212.553 80.4707C212.115 79.8926 211.775 79.2129 211.533 78.4316C211.299 77.6426 211.182 76.7871 211.182 75.8652ZM213.361 75.6191V75.8652C213.361 76.498 213.424 77.0918 213.549 77.6465C213.682 78.2012 213.885 78.6895 214.158 79.1113C214.432 79.5332 214.779 79.8652 215.201 80.1074C215.623 80.3418 216.127 80.459 216.713 80.459C217.432 80.459 218.021 80.3066 218.482 80.002C218.951 79.6973 219.326 79.2949 219.607 78.7949C219.889 78.2949 220.107 77.752 220.264 77.166V74.3418C220.17 73.9121 220.033 73.498 219.854 73.0996C219.682 72.6934 219.455 72.334 219.174 72.0215C218.9 71.7012 218.561 71.4473 218.154 71.2598C217.756 71.0723 217.283 70.9785 216.736 70.9785C216.143 70.9785 215.631 71.1035 215.201 71.3535C214.779 71.5957 214.432 71.9316 214.158 72.3613C213.885 72.7832 213.682 73.2754 213.549 73.8379C213.424 74.3926 213.361 74.9863 213.361 75.6191ZM230.529 82.2988C229.646 82.2988 228.846 82.1504 228.127 81.8535C227.416 81.5488 226.803 81.123 226.287 80.5762C225.779 80.0293 225.389 79.3809 225.115 78.6309C224.842 77.8809 224.705 77.0605 224.705 76.1699V75.6777C224.705 74.6465 224.857 73.7285 225.162 72.9238C225.467 72.1113 225.881 71.4238 226.404 70.8613C226.928 70.2988 227.521 69.873 228.186 69.584C228.85 69.2949 229.537 69.1504 230.248 69.1504C231.154 69.1504 231.936 69.3066 232.592 69.6191C233.256 69.9316 233.799 70.3691 234.221 70.9316C234.643 71.4863 234.955 72.1426 235.158 72.9004C235.361 73.6504 235.463 74.4707 235.463 75.3613V76.334H225.994V74.5645H233.295V74.4004C233.264 73.8379 233.146 73.291 232.943 72.7598C232.748 72.2285 232.436 71.791 232.006 71.4473C231.576 71.1035 230.99 70.9316 230.248 70.9316C229.756 70.9316 229.303 71.0371 228.889 71.248C228.475 71.4512 228.119 71.7559 227.822 72.1621C227.525 72.5684 227.295 73.0645 227.131 73.6504C226.967 74.2363 226.885 74.9121 226.885 75.6777V76.1699C226.885 76.7715 226.967 77.3379 227.131 77.8691C227.303 78.3926 227.549 78.8535 227.869 79.252C228.197 79.6504 228.592 79.9629 229.053 80.1895C229.521 80.416 230.053 80.5293 230.646 80.5293C231.412 80.5293 232.061 80.373 232.592 80.0605C233.123 79.748 233.588 79.3301 233.986 78.8066L235.299 79.8496C235.025 80.2637 234.678 80.6582 234.256 81.0332C233.834 81.4082 233.314 81.7129 232.697 81.9473C232.088 82.1816 231.365 82.2988 230.529 82.2988ZM240.35 64.0645V82.0645H238.17V64.0645H240.35ZM246.186 69.3848V82.0645H244.006V69.3848H246.186ZM243.842 66.0215C243.842 65.6699 243.947 65.373 244.158 65.1309C244.377 64.8887 244.697 64.7676 245.119 64.7676C245.533 64.7676 245.85 64.8887 246.068 65.1309C246.295 65.373 246.408 65.6699 246.408 66.0215C246.408 66.3574 246.295 66.6465 246.068 66.8887C245.85 67.123 245.533 67.2402 245.119 67.2402C244.697 67.2402 244.377 67.123 244.158 66.8887C243.947 66.6465 243.842 66.3574 243.842 66.0215ZM249.654 64.0645H251.834V79.6035L251.646 82.0645H249.654V64.0645ZM260.4 75.6191V75.8652C260.4 76.7871 260.291 77.6426 260.072 78.4316C259.854 79.2129 259.533 79.8926 259.111 80.4707C258.689 81.0488 258.174 81.498 257.564 81.8184C256.955 82.1387 256.256 82.2988 255.467 82.2988C254.662 82.2988 253.955 82.1621 253.346 81.8887C252.744 81.6074 252.236 81.2051 251.822 80.6816C251.408 80.1582 251.076 79.5254 250.826 78.7832C250.584 78.041 250.416 77.2051 250.322 76.2754V75.1973C250.416 74.2598 250.584 73.4199 250.826 72.6777C251.076 71.9355 251.408 71.3027 251.822 70.7793C252.236 70.248 252.744 69.8457 253.346 69.5723C253.947 69.291 254.646 69.1504 255.443 69.1504C256.24 69.1504 256.947 69.3066 257.564 69.6191C258.182 69.9238 258.697 70.3613 259.111 70.9316C259.533 71.502 259.854 72.1855 260.072 72.9824C260.291 73.7715 260.4 74.6504 260.4 75.6191ZM258.221 75.8652V75.6191C258.221 74.9863 258.162 74.3926 258.045 73.8379C257.928 73.2754 257.74 72.7832 257.482 72.3613C257.225 71.9316 256.885 71.5957 256.463 71.3535C256.041 71.1035 255.521 70.9785 254.904 70.9785C254.357 70.9785 253.881 71.0723 253.475 71.2598C253.076 71.4473 252.736 71.7012 252.455 72.0215C252.174 72.334 251.943 72.6934 251.764 73.0996C251.592 73.498 251.463 73.9121 251.377 74.3418V77.166C251.502 77.7129 251.705 78.2402 251.986 78.748C252.275 79.248 252.658 79.6582 253.135 79.9785C253.619 80.2988 254.217 80.459 254.928 80.459C255.514 80.459 256.014 80.3418 256.428 80.1074C256.85 79.8652 257.189 79.5332 257.447 79.1113C257.713 78.6895 257.908 78.2012 258.033 77.6465C258.158 77.0918 258.221 76.498 258.221 75.8652ZM267.654 73.9199V75.7012H261.936V73.9199H267.654ZM272.283 73.9434L270.549 73.498L271.404 65.002H280.158V67.0059H273.244L272.729 71.6465C273.041 71.4668 273.436 71.2988 273.912 71.1426C274.396 70.9863 274.951 70.9082 275.576 70.9082C276.365 70.9082 277.072 71.0449 277.697 71.3184C278.322 71.584 278.854 71.9668 279.291 72.4668C279.736 72.9668 280.076 73.5684 280.311 74.2715C280.545 74.9746 280.662 75.7598 280.662 76.627C280.662 77.4473 280.549 78.2012 280.322 78.8887C280.104 79.5762 279.771 80.1777 279.326 80.6934C278.881 81.2012 278.318 81.5957 277.639 81.877C276.967 82.1582 276.174 82.2988 275.26 82.2988C274.572 82.2988 273.92 82.2051 273.303 82.0176C272.693 81.8223 272.146 81.5293 271.662 81.1387C271.186 80.7402 270.795 80.248 270.49 79.6621C270.193 79.0684 270.006 78.373 269.928 77.5762H271.99C272.084 78.2168 272.271 78.7559 272.553 79.1934C272.834 79.6309 273.201 79.9629 273.654 80.1895C274.115 80.4082 274.65 80.5176 275.26 80.5176C275.775 80.5176 276.232 80.4277 276.631 80.248C277.029 80.0684 277.365 79.8105 277.639 79.4746C277.912 79.1387 278.119 78.7324 278.26 78.2559C278.408 77.7793 278.482 77.2441 278.482 76.6504C278.482 76.1113 278.408 75.6113 278.26 75.1504C278.111 74.6895 277.889 74.2871 277.592 73.9434C277.303 73.5996 276.947 73.334 276.525 73.1465C276.104 72.9512 275.619 72.8535 275.072 72.8535C274.346 72.8535 273.795 72.9512 273.42 73.1465C273.053 73.3418 272.674 73.6074 272.283 73.9434ZM283.311 80.916C283.311 80.5488 283.424 80.2402 283.65 79.9902C283.885 79.7324 284.221 79.6035 284.658 79.6035C285.096 79.6035 285.428 79.7324 285.654 79.9902C285.889 80.2402 286.006 80.5488 286.006 80.916C286.006 81.2754 285.889 81.5801 285.654 81.8301C285.428 82.0801 285.096 82.2051 284.658 82.2051C284.221 82.2051 283.885 82.0801 283.65 81.8301C283.424 81.5801 283.311 81.2754 283.311 80.916ZM292.814 79.8145L296.072 69.3848H297.502L297.221 71.459L293.904 82.0645H292.51L292.814 79.8145ZM290.623 69.3848L293.4 79.9316L293.6 82.0645H292.135L288.455 69.3848H290.623ZM300.619 79.8496L303.268 69.3848H305.424L301.744 82.0645H300.291L300.619 79.8496ZM297.818 69.3848L301.006 79.6387L301.369 82.0645H299.986L296.576 71.4355L296.295 69.3848H297.818ZM312.912 82.2988C312.029 82.2988 311.229 82.1504 310.51 81.8535C309.799 81.5488 309.186 81.123 308.67 80.5762C308.162 80.0293 307.771 79.3809 307.498 78.6309C307.225 77.8809 307.088 77.0605 307.088 76.1699V75.6777C307.088 74.6465 307.24 73.7285 307.545 72.9238C307.85 72.1113 308.264 71.4238 308.787 70.8613C309.311 70.2988 309.904 69.873 310.568 69.584C311.232 69.2949 311.92 69.1504 312.631 69.1504C313.537 69.1504 314.318 69.3066 314.975 69.6191C315.639 69.9316 316.182 70.3691 316.604 70.9316C317.025 71.4863 317.338 72.1426 317.541 72.9004C317.744 73.6504 317.846 74.4707 317.846 75.3613V76.334H308.377V74.5645H315.678V74.4004C315.646 73.8379 315.529 73.291 315.326 72.7598C315.131 72.2285 314.818 71.791 314.389 71.4473C313.959 71.1035 313.373 70.9316 312.631 70.9316C312.139 70.9316 311.686 71.0371 311.271 71.248C310.857 71.4512 310.502 71.7559 310.205 72.1621C309.908 72.5684 309.678 73.0645 309.514 73.6504C309.35 74.2363 309.268 74.9121 309.268 75.6777V76.1699C309.268 76.7715 309.35 77.3379 309.514 77.8691C309.686 78.3926 309.932 78.8535 310.252 79.252C310.58 79.6504 310.975 79.9629 311.436 80.1895C311.904 80.416 312.436 80.5293 313.029 80.5293C313.795 80.5293 314.443 80.373 314.975 80.0605C315.506 79.748 315.971 79.3301 316.369 78.8066L317.682 79.8496C317.408 80.2637 317.061 80.6582 316.639 81.0332C316.217 81.4082 315.697 81.7129 315.08 81.9473C314.471 82.1816 313.748 82.2988 312.912 82.2988ZM320.365 64.0645H322.545V79.6035L322.357 82.0645H320.365V64.0645ZM331.111 75.6191V75.8652C331.111 76.7871 331.002 77.6426 330.783 78.4316C330.564 79.2129 330.244 79.8926 329.822 80.4707C329.4 81.0488 328.885 81.498 328.275 81.8184C327.666 82.1387 326.967 82.2988 326.178 82.2988C325.373 82.2988 324.666 82.1621 324.057 81.8887C323.455 81.6074 322.947 81.2051 322.533 80.6816C322.119 80.1582 321.787 79.5254 321.537 78.7832C321.295 78.041 321.127 77.2051 321.033 76.2754V75.1973C321.127 74.2598 321.295 73.4199 321.537 72.6777C321.787 71.9355 322.119 71.3027 322.533 70.7793C322.947 70.248 323.455 69.8457 324.057 69.5723C324.658 69.291 325.357 69.1504 326.154 69.1504C326.951 69.1504 327.658 69.3066 328.275 69.6191C328.893 69.9238 329.408 70.3613 329.822 70.9316C330.244 71.502 330.564 72.1855 330.783 72.9824C331.002 73.7715 331.111 74.6504 331.111 75.6191ZM328.932 75.8652V75.6191C328.932 74.9863 328.873 74.3926 328.756 73.8379C328.639 73.2754 328.451 72.7832 328.193 72.3613C327.936 71.9316 327.596 71.5957 327.174 71.3535C326.752 71.1035 326.232 70.9785 325.615 70.9785C325.068 70.9785 324.592 71.0723 324.186 71.2598C323.787 71.4473 323.447 71.7012 323.166 72.0215C322.885 72.334 322.654 72.6934 322.475 73.0996C322.303 73.498 322.174 73.9121 322.088 74.3418V77.166C322.213 77.7129 322.416 78.2402 322.697 78.748C322.986 79.248 323.369 79.6582 323.846 79.9785C324.33 80.2988 324.928 80.459 325.639 80.459C326.225 80.459 326.725 80.3418 327.139 80.1074C327.561 79.8652 327.9 79.5332 328.158 79.1113C328.424 78.6895 328.619 78.2012 328.744 77.6465C328.869 77.0918 328.932 76.498 328.932 75.8652ZM333.889 80.916C333.889 80.5488 334.002 80.2402 334.229 79.9902C334.463 79.7324 334.799 79.6035 335.236 79.6035C335.674 79.6035 336.006 79.7324 336.232 79.9902C336.467 80.2402 336.584 80.5488 336.584 80.916C336.584 81.2754 336.467 81.5801 336.232 81.8301C336.006 82.0801 335.674 82.2051 335.236 82.2051C334.799 82.2051 334.463 82.0801 334.229 81.8301C334.002 81.5801 333.889 81.2754 333.889 80.916ZM347.658 79.8965V73.3691C347.658 72.8691 347.557 72.4355 347.354 72.0684C347.158 71.6934 346.861 71.4043 346.463 71.2012C346.064 70.998 345.572 70.8965 344.986 70.8965C344.439 70.8965 343.959 70.9902 343.545 71.1777C343.139 71.3652 342.818 71.6113 342.584 71.916C342.357 72.2207 342.244 72.5488 342.244 72.9004H340.076C340.076 72.4473 340.193 71.998 340.428 71.5527C340.662 71.1074 340.998 70.7051 341.436 70.3457C341.881 69.9785 342.412 69.6895 343.029 69.4785C343.654 69.2598 344.35 69.1504 345.115 69.1504C346.037 69.1504 346.85 69.3066 347.553 69.6191C348.264 69.9316 348.818 70.4043 349.217 71.0371C349.623 71.6621 349.826 72.4473 349.826 73.3926V79.2988C349.826 79.7207 349.861 80.1699 349.932 80.6465C350.01 81.123 350.123 81.5332 350.271 81.877V82.0645H348.01C347.9 81.8145 347.814 81.4824 347.752 81.0684C347.689 80.6465 347.658 80.2559 347.658 79.8965ZM348.033 74.377L348.057 75.9004H345.865C345.248 75.9004 344.697 75.9512 344.213 76.0527C343.729 76.1465 343.322 76.291 342.994 76.4863C342.666 76.6816 342.416 76.9277 342.244 77.2246C342.072 77.5137 341.986 77.8535 341.986 78.2441C341.986 78.6426 342.076 79.0059 342.256 79.334C342.436 79.6621 342.705 79.9238 343.064 80.1191C343.432 80.3066 343.881 80.4004 344.412 80.4004C345.076 80.4004 345.662 80.2598 346.17 79.9785C346.678 79.6973 347.08 79.3535 347.377 78.9473C347.682 78.541 347.846 78.1465 347.869 77.7637L348.795 78.8066C348.74 79.1348 348.592 79.498 348.35 79.8965C348.107 80.2949 347.783 80.6777 347.377 81.0449C346.979 81.4043 346.502 81.7051 345.947 81.9473C345.4 82.1816 344.783 82.2988 344.096 82.2988C343.236 82.2988 342.482 82.1309 341.834 81.7949C341.193 81.459 340.693 81.0098 340.334 80.4473C339.982 79.877 339.807 79.2402 339.807 78.5371C339.807 77.8574 339.939 77.2598 340.205 76.7441C340.471 76.2207 340.854 75.7871 341.354 75.4434C341.854 75.0918 342.455 74.8262 343.158 74.6465C343.861 74.4668 344.646 74.377 345.514 74.377H348.033ZM355.404 71.8223V86.9395H353.225V69.3848H355.217L355.404 71.8223ZM363.947 75.6191V75.8652C363.947 76.7871 363.838 77.6426 363.619 78.4316C363.4 79.2129 363.08 79.8926 362.658 80.4707C362.244 81.0488 361.732 81.498 361.123 81.8184C360.514 82.1387 359.814 82.2988 359.025 82.2988C358.221 82.2988 357.51 82.166 356.893 81.9004C356.275 81.6348 355.752 81.248 355.322 80.7402C354.893 80.2324 354.549 79.623 354.291 78.9121C354.041 78.2012 353.869 77.4004 353.775 76.5098V75.1973C353.869 74.2598 354.045 73.4199 354.303 72.6777C354.561 71.9355 354.9 71.3027 355.322 70.7793C355.752 70.248 356.271 69.8457 356.881 69.5723C357.49 69.291 358.193 69.1504 358.99 69.1504C359.787 69.1504 360.494 69.3066 361.111 69.6191C361.729 69.9238 362.248 70.3613 362.67 70.9316C363.092 71.502 363.408 72.1855 363.619 72.9824C363.838 73.7715 363.947 74.6504 363.947 75.6191ZM361.768 75.8652V75.6191C361.768 74.9863 361.701 74.3926 361.568 73.8379C361.436 73.2754 361.229 72.7832 360.947 72.3613C360.674 71.9316 360.322 71.5957 359.893 71.3535C359.463 71.1035 358.951 70.9785 358.357 70.9785C357.811 70.9785 357.334 71.0723 356.928 71.2598C356.529 71.4473 356.189 71.7012 355.908 72.0215C355.627 72.334 355.396 72.6934 355.217 73.0996C355.045 73.498 354.916 73.9121 354.83 74.3418V77.377C354.986 77.9238 355.205 78.4395 355.486 78.9238C355.768 79.4004 356.143 79.7871 356.611 80.084C357.08 80.373 357.67 80.5176 358.381 80.5176C358.967 80.5176 359.471 80.3965 359.893 80.1543C360.322 79.9043 360.674 79.5645 360.947 79.1348C361.229 78.7051 361.436 78.2129 361.568 77.6582C361.701 77.0957 361.768 76.498 361.768 75.8652ZM368.881 71.8223V86.9395H366.701V69.3848H368.693L368.881 71.8223ZM377.424 75.6191V75.8652C377.424 76.7871 377.314 77.6426 377.096 78.4316C376.877 79.2129 376.557 79.8926 376.135 80.4707C375.721 81.0488 375.209 81.498 374.6 81.8184C373.99 82.1387 373.291 82.2988 372.502 82.2988C371.697 82.2988 370.986 82.166 370.369 81.9004C369.752 81.6348 369.229 81.248 368.799 80.7402C368.369 80.2324 368.025 79.623 367.768 78.9121C367.518 78.2012 367.346 77.4004 367.252 76.5098V75.1973C367.346 74.2598 367.521 73.4199 367.779 72.6777C368.037 71.9355 368.377 71.3027 368.799 70.7793C369.229 70.248 369.748 69.8457 370.357 69.5723C370.967 69.291 371.67 69.1504 372.467 69.1504C373.264 69.1504 373.971 69.3066 374.588 69.6191C375.205 69.9238 375.725 70.3613 376.146 70.9316C376.568 71.502 376.885 72.1855 377.096 72.9824C377.314 73.7715 377.424 74.6504 377.424 75.6191ZM375.244 75.8652V75.6191C375.244 74.9863 375.178 74.3926 375.045 73.8379C374.912 73.2754 374.705 72.7832 374.424 72.3613C374.15 71.9316 373.799 71.5957 373.369 71.3535C372.939 71.1035 372.428 70.9785 371.834 70.9785C371.287 70.9785 370.811 71.0723 370.404 71.2598C370.006 71.4473 369.666 71.7012 369.385 72.0215C369.104 72.334 368.873 72.6934 368.693 73.0996C368.521 73.498 368.393 73.9121 368.307 74.3418V77.377C368.463 77.9238 368.682 78.4395 368.963 78.9238C369.244 79.4004 369.619 79.7871 370.088 80.084C370.557 80.373 371.146 80.5176 371.857 80.5176C372.443 80.5176 372.947 80.3965 373.369 80.1543C373.799 79.9043 374.15 79.5645 374.424 79.1348C374.705 78.7051 374.912 78.2129 375.045 77.6582C375.178 77.0957 375.244 76.498 375.244 75.8652ZM387.736 65.002L380.623 83.5293H378.76L385.885 65.002H387.736Z" fill="#57688F"/>
</svg>
