<svg width="90" height="90" viewBox="0 0 90 90" fill="none" xmlns="http://www.w3.org/2000/svg">
<path d="M10.4467 44.9472C10.4315 44.949 10.4162 44.949 10.401 44.9472C10.1517 44.899 9.8989 44.8714 9.64512 44.8646C9.58887 44.8646 9.53262 44.8646 9.46934 44.8646C8.13833 44.8646 6.86184 45.3933 5.92068 46.3345C4.97952 47.2756 4.45078 48.5521 4.45078 49.8831V49.8954C4.45615 50.8782 4.75004 51.8377 5.29598 52.6549C5.84191 53.4721 6.61584 54.1109 7.52168 54.4921C5.55188 53.8756 3.82471 52.6574 2.58281 51.0088C1.34091 49.3602 0.646684 47.3639 0.597656 45.3005C0.597656 45.2267 0.597656 45.1511 0.597656 45.0737C0.597656 43.7684 1.11621 42.5165 2.03924 41.5934C2.96227 40.6704 4.21417 40.1519 5.51953 40.1519C5.5582 40.1519 5.60039 40.1519 5.63906 40.1519C6.90291 40.1808 8.10717 40.6949 9.00223 41.5877C9.89728 42.4805 10.4145 43.6834 10.4467 44.9472Z" fill="#ED7370"/>
<path d="M20.2483 46.3834C19.9308 48.7529 18.7642 50.9266 16.9651 52.501C15.166 54.0754 12.8568 54.9434 10.4661 54.9439C10.1251 54.9439 9.78935 54.9264 9.45713 54.8947C8.80486 54.8261 8.16082 54.6943 7.53408 54.501C6.62736 54.1178 5.85341 53.4763 5.30861 52.6565C4.76381 51.8366 4.47224 50.8746 4.47021 49.8902V49.8779C4.47021 48.5469 4.99895 47.2704 5.94012 46.3293C6.88128 45.3881 8.15777 44.8594 9.48877 44.8594C9.54502 44.8594 9.60127 44.8594 9.66455 44.8594C9.91838 44.8656 10.1712 44.8933 10.4204 44.942C10.4345 44.942 10.4503 44.942 10.4661 44.942C10.5065 44.9393 10.547 44.9393 10.5874 44.942C10.5874 44.9736 10.5874 45.0352 10.5874 45.0668C10.5728 46.2681 10.9981 47.4332 11.7832 48.3426C12.5682 49.252 13.6587 49.8429 14.8492 50.0039C16.0397 50.1649 17.248 49.885 18.2464 49.2168C19.2448 48.5486 19.9643 47.5383 20.2694 46.3764L20.2483 46.3834Z" fill="#ED7370"/>
<path d="M20.3344 45.0737C20.3343 45.5117 20.3055 45.9491 20.2483 46.3833C19.9432 47.5453 19.2237 48.5555 18.2253 49.2237C17.2269 49.8919 16.0186 50.1719 14.8281 50.0108C13.6376 49.8498 12.547 49.2589 11.762 48.3495C10.977 47.4401 10.5517 46.275 10.5663 45.0737C10.5663 45.0421 10.5663 45.0122 10.5663 44.9788V44.9489C11.8512 44.9493 13.0853 44.4472 14.005 43.5499C14.9247 42.6525 15.4569 41.4311 15.4882 40.1466C15.4908 40.1044 15.4908 40.0622 15.4882 40.02C15.4886 38.9843 15.1623 37.9748 14.5557 37.1353C13.9491 36.2958 13.0931 35.669 12.1096 35.3442C14.1879 35.696 16.099 36.7035 17.5634 38.2195C19.0278 39.7355 19.9687 41.6803 20.2483 43.7694C20.3054 44.2019 20.3342 44.6376 20.3344 45.0737Z" fill="#ED7370"/>
<path d="M15.495 40.0201C15.4977 40.0623 15.4977 40.1045 15.495 40.1467C15.4638 41.4312 14.9315 42.6526 14.0118 43.55C13.0922 44.4473 11.8581 44.9494 10.5731 44.949H10.4519C10.4206 43.6843 9.90348 42.4803 9.00796 41.5867C8.11243 40.6932 6.90723 40.1787 5.64248 40.1502C5.60381 40.1502 5.56162 40.1502 5.52295 40.1502C4.21759 40.1502 2.96569 40.6688 2.04266 41.5918C1.11963 42.5148 0.601074 43.7667 0.601074 45.0721C0.601571 43.6363 0.915257 42.2179 1.52026 40.9158C2.12526 39.6137 3.00701 38.4592 4.10403 37.5329C5.20104 36.6066 6.48692 35.9307 7.87198 35.5524C9.25704 35.1741 10.708 35.1025 12.1235 35.3426C13.106 35.6687 13.9607 36.2962 14.5659 37.136C15.1712 37.9757 15.4963 38.985 15.495 40.0201Z" fill="#ED7370"/>
<path d="M41.7919 33.9697C39.4435 35.1352 37.3007 36.3533 35.9191 37.4854C31.1604 37.812 26.4264 38.432 21.7441 39.3416C21.3261 39.4097 20.898 39.3124 20.5505 39.0703C20.203 38.8282 19.9635 38.4603 19.8826 38.0446C19.8017 37.6289 19.8858 37.198 20.1171 36.8433C20.3484 36.4885 20.7088 36.2378 21.1218 36.1441C27.9355 34.8198 34.8518 34.0922 41.7919 33.9697Z" fill="#92CDC0"/>
<path d="M69.9611 38.4963C69.8843 38.8593 69.6854 39.1851 69.3975 39.4193C69.1096 39.6534 68.7502 39.7818 68.3791 39.783C68.2645 39.7836 68.1502 39.7718 68.0381 39.7479C60.1128 38.0608 52.0325 37.2089 43.9297 37.2061H43.884C41.2297 37.2061 38.576 37.2975 35.9229 37.4803C37.3045 36.3535 39.4385 35.1354 41.7957 33.9646C42.4918 33.9529 43.1879 33.9465 43.884 33.9453H43.9314C52.2618 33.9474 60.569 34.8235 68.7166 36.5592C68.9256 36.6044 69.1237 36.6904 69.2995 36.8123C69.4752 36.9342 69.6252 37.0896 69.7408 37.2695C69.8564 37.4495 69.9354 37.6504 69.9732 37.8609C70.011 38.0715 70.0069 38.2874 69.9611 38.4963Z" fill="#92CDC0"/>
<path d="M66.0939 46.2535H23.8133C23.3816 46.2535 22.9676 46.082 22.6623 45.7768C22.357 45.4715 22.1855 45.0575 22.1855 44.6258C22.1855 44.1941 22.357 43.7801 22.6623 43.4748C22.9676 43.1695 23.3816 42.998 23.8133 42.998H66.0939C66.5257 42.998 66.9397 43.1695 67.2449 43.4748C67.5502 43.7801 67.7217 44.1941 67.7217 44.6258C67.7217 45.0575 67.5502 45.4715 67.2449 45.7768C66.9397 46.082 66.5257 46.2535 66.0939 46.2535Z" fill="#FAC372"/>
<path d="M34.0629 25.7871C30.5894 26.8945 28.0142 28.8545 27.4851 30.6756C24.1064 31.7016 20.8313 33.0422 17.7029 34.6799C17.3206 34.8808 16.8742 34.9217 16.4618 34.7934C16.0494 34.6652 15.7048 34.3784 15.5039 33.9961C15.3029 33.6138 15.2621 33.1674 15.3903 32.755C15.5186 32.3426 15.8054 31.998 16.1877 31.7971C21.7937 28.868 27.826 26.8399 34.0629 25.7871Z" fill="#81A0D3"/>
<path d="M73.7752 34.5218C73.673 34.7097 73.5346 34.8756 73.368 35.0098C73.2015 35.1441 73.01 35.2441 72.8046 35.304C72.5993 35.364 72.3841 35.3827 72.1714 35.3592C71.9588 35.3357 71.7529 35.2703 71.5656 35.1669C67.497 32.9423 63.1702 31.2267 58.6826 30.0587C59.5781 29.9492 60.4642 29.773 61.3334 29.5313C62.3794 29.2469 63.3969 28.8662 64.3727 28.394C67.391 29.4618 70.3179 30.7722 73.1248 32.3122C73.5039 32.5191 73.7853 32.8681 73.9073 33.2824C74.0293 33.6967 73.9817 34.1425 73.7752 34.5218Z" fill="#81A0D3"/>
<path d="M64.3729 28.3993C63.397 28.8696 62.3796 29.2486 61.3337 29.5313C60.4645 29.7729 59.5784 29.9492 58.6829 30.0587C56.5996 29.5125 54.4868 29.0858 52.3548 28.7807C49.7039 28.4006 47.0295 28.2074 44.3515 28.2024C43.8909 28.2024 43.4263 28.2065 42.9575 28.2147C37.7128 28.3212 32.5076 29.1493 27.4888 30.6756C28.0161 28.8546 30.5931 26.8946 34.0665 25.7872C36.2356 25.4196 38.4233 25.1719 40.6196 25.0454C41.3673 24.9997 42.1255 24.9692 42.8942 24.954C50.2036 24.7966 57.4812 25.9639 64.3747 28.3993H64.3729Z" fill="#81A0D3"/>
<path d="M41.7919 55.7227C39.4435 54.5572 37.3007 53.3408 35.9191 52.2071C31.1605 51.8795 26.4265 51.2596 21.7441 50.3508C21.3261 50.2827 20.898 50.38 20.5505 50.6221C20.203 50.8642 19.9635 51.2321 19.8826 51.6478C19.8017 52.0635 19.8858 52.4944 20.1171 52.8491C20.3484 53.2039 20.7088 53.4546 21.1218 53.5483C27.9355 54.8726 34.8518 55.6002 41.7919 55.7227Z" fill="#544D80"/>
<path d="M69.9611 51.1891C69.8843 50.826 69.6854 50.5002 69.3975 50.2661C69.1096 50.032 68.7502 49.9036 68.3791 49.9023C68.2646 49.9021 68.1504 49.9132 68.0381 49.9357C60.1131 51.6245 52.0326 52.4764 43.9297 52.4775H43.884C41.2297 52.4775 38.576 52.3867 35.9229 52.2051C37.3045 53.3318 39.4385 54.5482 41.7957 55.7207C42.4918 55.7348 43.1879 55.7412 43.884 55.74H43.9314C52.2618 55.7386 60.569 54.8631 68.7166 53.1279C68.9258 53.0827 69.1241 52.9966 69.3 52.8746C69.4758 52.7526 69.6259 52.5971 69.7415 52.417C69.8571 52.2368 69.9361 52.0356 69.9738 51.8249C70.0114 51.6142 70.0072 51.3981 69.9611 51.1891Z" fill="#544D80"/>
<path d="M34.0627 63.8981C30.5893 62.7907 28.0141 60.8307 27.485 59.0096C24.1062 57.9836 20.8311 56.643 17.7027 55.0054C17.3213 54.8108 16.8786 54.7744 16.4705 54.904C16.0624 55.0336 15.7218 55.3187 15.5225 55.6977C15.3232 56.0767 15.2813 56.5189 15.4057 56.9285C15.5302 57.3382 15.8111 57.6824 16.1875 57.8864C21.7934 60.8161 27.8257 62.8449 34.0627 63.8981Z" fill="#ED7370"/>
<path d="M73.7752 55.1637C73.6352 54.907 73.4285 54.6928 73.177 54.5437C72.9255 54.3946 72.6385 54.3161 72.3461 54.3164C72.073 54.3163 71.8043 54.3859 71.5656 54.5186C67.4973 56.7449 63.1704 58.4623 58.6826 59.632C59.578 59.7372 60.4641 59.9099 61.3334 60.1488C62.3794 60.4332 63.3969 60.814 64.3727 61.2861C67.3905 60.2193 70.3174 58.9108 73.1248 57.3732C73.5039 57.1663 73.7853 56.8174 73.9073 56.4031C74.0293 55.9888 73.9817 55.543 73.7752 55.1637Z" fill="#ED7370"/>
<path d="M64.3729 61.2862C63.3972 60.8141 62.3797 60.4333 61.3337 60.1489C60.4644 59.91 59.5783 59.7373 58.6829 59.6321C56.5994 60.1768 54.4866 60.6029 52.3548 60.9083C49.7038 61.2882 47.0295 61.482 44.3515 61.4884C43.8909 61.4884 43.4263 61.4843 42.9575 61.4761C37.7129 61.3679 32.508 60.5398 27.4888 59.0151C28.0161 60.8362 30.5931 62.7962 34.0665 63.9036C36.2356 64.2712 38.4233 64.5188 40.6196 64.6454C41.3673 64.6911 42.1255 64.7216 42.8942 64.7368C46.0747 64.8041 49.2555 64.6219 52.4075 64.1919C56.4848 63.6348 60.4943 62.6612 64.3729 61.2862Z" fill="#ED7370"/>
<path d="M84.5648 49.8463C83.7486 49.8465 82.9452 49.6436 82.2269 49.2561C81.5085 48.8685 80.8978 48.3084 80.4498 47.6262L76.7936 50.5652V46.4607H69.7852C70.0728 48.2777 70.8623 49.9781 72.0646 51.3704C73.2668 52.7628 74.834 53.7916 76.5896 54.341C77.2163 54.5345 77.8604 54.6664 78.5127 54.7348C78.8449 54.7664 79.1824 54.784 79.5217 54.784C81.9139 54.7871 84.2259 53.9217 86.0281 52.3485C87.8302 50.7752 88.9999 48.6012 89.3197 46.2305C89.0315 47.2701 88.4104 48.1866 87.5516 48.8397C86.6929 49.4927 85.6437 49.8463 84.5648 49.8463Z" fill="#81A0D3"/>
<path d="M89.4058 44.9176C89.4055 45.3549 89.3768 45.7918 89.3196 46.2254C89.0714 47.1414 88.5637 47.966 87.8576 48.6001C87.1515 49.2342 86.2771 49.6506 85.3398 49.7992C84.4025 49.9478 83.4422 49.8223 82.5746 49.4377C81.707 49.0531 80.9691 48.4259 80.4497 47.6316L84.106 44.6891L82.8034 43.6344C83.3389 43.1867 83.7727 42.6299 84.0758 42.0012C84.3789 41.3725 84.5444 40.6864 84.5612 39.9887C84.5612 39.9447 84.5612 39.9025 84.5612 39.8604C84.5618 38.8248 84.2358 37.8155 83.6295 36.976C83.0232 36.1365 82.1676 35.5096 81.1845 35.1846C83.2609 35.5375 85.1701 36.5451 86.633 38.0603C88.096 39.5755 89.0362 41.5187 89.3161 43.6063C89.3746 44.0409 89.4045 44.479 89.4058 44.9176Z" fill="#81A0D3"/>
<path d="M81.1882 35.1861C78.669 34.7586 76.0822 35.3243 73.9714 36.7643C71.8607 38.2044 70.3904 40.4066 69.8696 42.9082H76.7936V38.8019L80.4499 41.7428L82.8036 43.6359C83.3391 43.1883 83.7729 42.6315 84.076 42.0028C84.3791 41.3741 84.5446 40.688 84.5614 39.9902C84.5614 39.9463 84.5614 39.9041 84.5614 39.8619C84.5622 38.8268 84.2367 37.8178 83.6311 36.9784C83.0255 36.139 82.1707 35.5118 81.1882 35.1861Z" fill="#81A0D3"/>
</svg>
