<svg width="90" height="90" viewBox="0 0 90 90" fill="none" xmlns="http://www.w3.org/2000/svg">
<path d="M10.4467 44.9481C10.4315 44.95 10.4162 44.95 10.401 44.9481C10.1517 44.9 9.8989 44.8724 9.64512 44.8655C9.58887 44.8655 9.53262 44.8655 9.46934 44.8655C8.13833 44.8655 6.86184 45.3943 5.92068 46.3354C4.97952 47.2766 4.45078 48.5531 4.45078 49.8841V49.8964C4.45615 50.8791 4.75004 51.8387 5.29598 52.6559C5.84191 53.473 6.61584 54.1119 7.52168 54.4931C5.55188 53.8765 3.82471 52.6584 2.58281 51.0098C1.34091 49.3612 0.646684 47.3649 0.597656 45.3015C0.597656 45.2276 0.597656 45.1521 0.597656 45.0747C0.597656 43.7693 1.11621 42.5174 2.03924 41.5944C2.96227 40.6714 4.21417 40.1528 5.51953 40.1528C5.5582 40.1528 5.60039 40.1528 5.63906 40.1528C6.90291 40.1818 8.10717 40.6959 9.00223 41.5887C9.89728 42.4814 10.4145 43.6844 10.4467 44.9481Z" fill="#6FC5BE"/>
<path d="M20.2483 46.3829C19.9308 48.7524 18.7642 50.9261 16.9651 52.5005C15.166 54.0749 12.8568 54.9429 10.4661 54.9435C10.1251 54.9435 9.78935 54.9259 9.45713 54.8942C8.80486 54.8257 8.16082 54.6938 7.53408 54.5005C6.62736 54.1173 5.85341 53.4758 5.30861 52.656C4.76381 51.8361 4.47224 50.8741 4.47021 49.8897V49.8774C4.47021 48.5464 4.99895 47.2699 5.94012 46.3288C6.88128 45.3876 8.15777 44.8589 9.48877 44.8589C9.54502 44.8589 9.60127 44.8589 9.66455 44.8589C9.91838 44.8652 10.1712 44.8928 10.4204 44.9415C10.4345 44.9415 10.4503 44.9415 10.4661 44.9415C10.5065 44.9389 10.547 44.9389 10.5874 44.9415C10.5874 44.9731 10.5874 45.0347 10.5874 45.0663C10.5728 46.2676 10.9981 47.4327 11.7832 48.3421C12.5682 49.2515 13.6587 49.8424 14.8492 50.0034C16.0397 50.1644 17.248 49.8845 18.2464 49.2163C19.2448 48.5481 19.9643 47.5378 20.2694 46.3759L20.2483 46.3829Z" fill="#6FC5BE"/>
<path d="M20.3344 45.0732C20.3343 45.5112 20.3055 45.9486 20.2483 46.3828C19.9432 47.5448 19.2237 48.5551 18.2253 49.2232C17.2269 49.8914 16.0186 50.1714 14.8281 50.0103C13.6376 49.8493 12.547 49.2584 11.762 48.349C10.977 47.4396 10.5517 46.2745 10.5663 45.0732C10.5663 45.0416 10.5663 45.0117 10.5663 44.9783V44.9484C11.8512 44.9488 13.0853 44.4467 14.005 43.5494C14.9247 42.652 15.4569 41.4306 15.4882 40.1461C15.4908 40.1039 15.4908 40.0617 15.4882 40.0195C15.4886 38.9838 15.1623 37.9743 14.5557 37.1348C13.9491 36.2953 13.0931 35.6685 12.1096 35.3438C14.1879 35.6955 16.099 36.703 17.5634 38.219C19.0278 39.735 19.9687 41.6798 20.2483 43.7689C20.3054 44.2014 20.3342 44.6371 20.3344 45.0732Z" fill="#6FC5BE"/>
<path d="M15.495 40.0206C15.4977 40.0628 15.4977 40.105 15.495 40.1472C15.4638 41.4317 14.9315 42.6531 14.0118 43.5504C13.0922 44.4478 11.8581 44.9499 10.5731 44.9495H10.4519C10.4206 43.6848 9.90348 42.4808 9.00796 41.5872C8.11243 40.6936 6.90723 40.1792 5.64248 40.1507C5.60381 40.1507 5.56162 40.1507 5.52295 40.1507C4.21759 40.1507 2.96569 40.6692 2.04266 41.5923C1.11963 42.5153 0.601074 43.7672 0.601074 45.0726C0.601571 43.6368 0.915257 42.2184 1.52026 40.9163C2.12526 39.6142 3.00701 38.4597 4.10403 37.5334C5.20104 36.6071 6.48692 35.9312 7.87198 35.5529C9.25704 35.1746 10.708 35.103 12.1235 35.3431C13.106 35.6691 13.9607 36.2967 14.5659 37.1365C15.1712 37.9762 15.4963 38.9854 15.495 40.0206Z" fill="#6FC5BE"/>
<path d="M41.7919 33.9688C39.4435 35.1342 37.3007 36.3523 35.9191 37.4844C31.1604 37.8111 26.4264 38.431 21.7441 39.3406C21.3261 39.4087 20.898 39.3114 20.5505 39.0693C20.203 38.8272 19.9635 38.4593 19.8826 38.0436C19.8017 37.6279 19.8858 37.197 20.1171 36.8423C20.3484 36.4875 20.7088 36.2368 21.1218 36.1432C27.9355 34.8188 34.8518 34.0912 41.7919 33.9688Z" fill="#6FC5BE"/>
<path d="M69.9611 38.4968C69.8843 38.8598 69.6854 39.1856 69.3975 39.4197C69.1096 39.6539 68.7502 39.7823 68.3791 39.7835C68.2645 39.7841 68.1502 39.7723 68.0381 39.7483C60.1128 38.0613 52.0325 37.2094 43.9297 37.2065H43.884C41.2297 37.2065 38.576 37.2979 35.9229 37.4808C37.3045 36.354 39.4385 35.1358 41.7957 33.9651C42.4918 33.9534 43.1879 33.947 43.884 33.9458H43.9314C52.2618 33.9479 60.569 34.824 68.7166 36.5597C68.9256 36.6049 69.1237 36.6909 69.2995 36.8128C69.4752 36.9347 69.6252 37.0901 69.7408 37.27C69.8564 37.4499 69.9354 37.6509 69.9732 37.8614C70.011 38.0719 70.0069 38.2879 69.9611 38.4968Z" fill="#6FC5BE"/>
<path d="M66.0939 46.254H23.8133C23.3816 46.254 22.9676 46.0825 22.6623 45.7773C22.357 45.472 22.1855 45.058 22.1855 44.6263C22.1855 44.1946 22.357 43.7805 22.6623 43.4753C22.9676 43.17 23.3816 42.9985 23.8133 42.9985H66.0939C66.5257 42.9985 66.9397 43.17 67.2449 43.4753C67.5502 43.7805 67.7217 44.1946 67.7217 44.6263C67.7217 45.058 67.5502 45.472 67.2449 45.7773C66.9397 46.0825 66.5257 46.254 66.0939 46.254Z" fill="#6FC5BE"/>
<path d="M34.0629 25.7866C30.5894 26.894 28.0142 28.854 27.4851 30.6751C24.1064 31.7011 20.8313 33.0417 17.7029 34.6794C17.3206 34.8803 16.8742 34.9212 16.4618 34.7929C16.0494 34.6647 15.7048 34.3779 15.5039 33.9956C15.3029 33.6133 15.2621 33.1669 15.3903 32.7545C15.5186 32.3421 15.8054 31.9975 16.1877 31.7966C21.7937 28.8675 27.826 26.8394 34.0629 25.7866Z" fill="#6FC5BE"/>
<path d="M73.7752 34.5213C73.673 34.7092 73.5346 34.8751 73.368 35.0093C73.2015 35.1436 73.01 35.2436 72.8046 35.3035C72.5993 35.3635 72.3841 35.3822 72.1714 35.3587C71.9588 35.3352 71.7529 35.2698 71.5656 35.1664C67.497 32.9418 63.1702 31.2262 58.6826 30.0582C59.5781 29.9488 60.4642 29.7725 61.3334 29.5309C62.3794 29.2464 63.3969 28.8657 64.3727 28.3936C67.391 29.4613 70.3179 30.7717 73.1248 32.3117C73.5039 32.5186 73.7853 32.8676 73.9073 33.2819C74.0293 33.6962 73.9817 34.142 73.7752 34.5213Z" fill="#6FC5BE"/>
<path d="M64.3729 28.3988C63.397 28.8691 62.3796 29.2481 61.3337 29.5308C60.4645 29.7725 59.5784 29.9487 58.6829 30.0582C56.5996 29.512 54.4868 29.0853 52.3548 28.7802C49.7039 28.4001 47.0295 28.2069 44.3515 28.2019C43.8909 28.2019 43.4263 28.206 42.9575 28.2142C37.7128 28.3207 32.5076 29.1488 27.4888 30.6752C28.0161 28.8541 30.5931 26.8941 34.0665 25.7867C36.2356 25.4191 38.4233 25.1714 40.6196 25.0449C41.3673 24.9992 42.1255 24.9687 42.8942 24.9535C50.2036 24.7962 57.4812 25.9634 64.3747 28.3988H64.3729Z" fill="#6FC5BE"/>
<path d="M41.7919 55.7227C39.4435 54.5572 37.3007 53.3408 35.9191 52.2071C31.1605 51.8795 26.4265 51.2596 21.7441 50.3508C21.3261 50.2827 20.898 50.38 20.5505 50.6221C20.203 50.8642 19.9635 51.2321 19.8826 51.6478C19.8017 52.0635 19.8858 52.4944 20.1171 52.8491C20.3484 53.2039 20.7088 53.4546 21.1218 53.5483C27.9355 54.8726 34.8518 55.6002 41.7919 55.7227Z" fill="#6FC5BE"/>
<path d="M69.9611 51.1886C69.8843 50.8255 69.6854 50.4998 69.3975 50.2656C69.1096 50.0315 68.7502 49.9031 68.3791 49.9019C68.2646 49.9016 68.1504 49.9127 68.0381 49.9353C60.1131 51.624 52.0326 52.476 43.9297 52.4771H43.884C41.2297 52.4771 38.576 52.3862 35.9229 52.2046C37.3045 53.3313 39.4385 54.5478 41.7957 55.7202C42.4918 55.7343 43.1879 55.7407 43.884 55.7396H43.9314C52.2618 55.7381 60.569 54.8626 68.7166 53.1274C68.9258 53.0822 69.1241 52.9962 69.3 52.8741C69.4758 52.7521 69.6259 52.5966 69.7415 52.4165C69.8571 52.2363 69.9361 52.0351 69.9738 51.8244C70.0114 51.6137 70.0072 51.3976 69.9611 51.1886Z" fill="#6FC5BE"/>
<path d="M34.0627 63.8976C30.5893 62.7902 28.0141 60.8303 27.485 59.0092C24.1062 57.9831 20.8311 56.6425 17.7027 55.0049C17.3213 54.8103 16.8786 54.7739 16.4705 54.9035C16.0624 55.0331 15.7218 55.3183 15.5225 55.6972C15.3232 56.0762 15.2813 56.5184 15.4057 56.9281C15.5302 57.3377 15.8111 57.6819 16.1875 57.8859C21.7934 60.8156 27.8257 62.8444 34.0627 63.8976Z" fill="#6FC5BE"/>
<path d="M73.7752 55.1637C73.6352 54.907 73.4285 54.6928 73.177 54.5437C72.9255 54.3946 72.6385 54.3161 72.3461 54.3164C72.073 54.3163 71.8043 54.3859 71.5656 54.5186C67.4973 56.7449 63.1704 58.4623 58.6826 59.632C59.578 59.7372 60.4641 59.9099 61.3334 60.1488C62.3794 60.4332 63.3969 60.814 64.3727 61.2861C67.3905 60.2193 70.3174 58.9108 73.1248 57.3732C73.5039 57.1663 73.7853 56.8174 73.9073 56.4031C74.0293 55.9888 73.9817 55.543 73.7752 55.1637Z" fill="#6FC5BE"/>
<path d="M64.3729 61.2857C63.3972 60.8136 62.3797 60.4328 61.3337 60.1484C60.4644 59.9095 59.5783 59.7368 58.6829 59.6316C56.5994 60.1764 54.4866 60.6024 52.3548 60.9078C49.7038 61.2877 47.0295 61.4815 44.3515 61.4879C43.8909 61.4879 43.4263 61.4838 42.9575 61.4756C37.7129 61.3674 32.508 60.5393 27.4888 59.0146C28.0161 60.8357 30.5931 62.7957 34.0665 63.9031C36.2356 64.2707 38.4233 64.5184 40.6196 64.6449C41.3673 64.6906 42.1255 64.7211 42.8942 64.7363C46.0747 64.8037 49.2555 64.6215 52.4075 64.1914C56.4848 63.6343 60.4943 62.6607 64.3729 61.2857Z" fill="#6FC5BE"/>
<path d="M84.5648 49.8463C83.7486 49.8465 82.9452 49.6436 82.2269 49.2561C81.5085 48.8685 80.8978 48.3084 80.4498 47.6262L76.7936 50.5652V46.4607H69.7852C70.0728 48.2777 70.8623 49.9781 72.0646 51.3704C73.2668 52.7628 74.834 53.7916 76.5896 54.341C77.2163 54.5345 77.8604 54.6664 78.5127 54.7348C78.8449 54.7664 79.1824 54.784 79.5217 54.784C81.9139 54.7871 84.2259 53.9217 86.0281 52.3485C87.8302 50.7752 88.9999 48.6012 89.3197 46.2305C89.0315 47.2701 88.4104 48.1866 87.5516 48.8397C86.6929 49.4927 85.6437 49.8463 84.5648 49.8463Z" fill="#6FC5BE"/>
<path d="M89.4058 44.9176C89.4055 45.3549 89.3768 45.7918 89.3196 46.2254C89.0714 47.1414 88.5637 47.966 87.8576 48.6001C87.1515 49.2342 86.2771 49.6506 85.3398 49.7992C84.4025 49.9478 83.4422 49.8223 82.5746 49.4377C81.707 49.0531 80.9691 48.4259 80.4497 47.6316L84.106 44.6891L82.8034 43.6344C83.3389 43.1867 83.7727 42.6299 84.0758 42.0012C84.3789 41.3725 84.5444 40.6864 84.5612 39.9887C84.5612 39.9447 84.5612 39.9025 84.5612 39.8604C84.5618 38.8248 84.2358 37.8155 83.6295 36.976C83.0232 36.1365 82.1676 35.5096 81.1845 35.1846C83.2609 35.5375 85.1701 36.5451 86.633 38.0603C88.096 39.5755 89.0362 41.5187 89.3161 43.6063C89.3746 44.0409 89.4045 44.479 89.4058 44.9176Z" fill="#6FC5BE"/>
<path d="M81.1882 35.1861C78.669 34.7586 76.0822 35.3243 73.9714 36.7643C71.8607 38.2044 70.3904 40.4066 69.8696 42.9082H76.7936V38.8019L80.4499 41.7428L82.8036 43.6359C83.3391 43.1883 83.7729 42.6315 84.076 42.0028C84.3791 41.3741 84.5446 40.688 84.5614 39.9902C84.5614 39.9463 84.5614 39.9041 84.5614 39.8619C84.5622 38.8268 84.2367 37.8178 83.6311 36.9784C83.0255 36.139 82.1707 35.5118 81.1882 35.1861Z" fill="#6FC5BE"/>
</svg>
