<?xml version="1.0" encoding="utf-8"?>
<!-- Uploaded to: SVG Repo, www.svgrepo.com, Generator: SVG Repo Mixer Tools -->
<svg fill="currentColor" width="800px" height="800px" viewBox="-8.5 0 32 32" version="1.1" xmlns="http://www.w3.org/2000/svg">
<title>accessibility-alt</title>
<path d="M13 6.32c-1.32 0-2.4 1.080-2.4 2.4s1.080 2.4 2.4 2.4c1.32 0 2.4-1.080 2.4-2.4s-1.080-2.4-2.4-2.4zM13 9.48c-0.4 0-0.72-0.32-0.72-0.72s0.32-0.72 0.72-0.72c0.4 0 0.72 0.32 0.72 0.72 0 0.36-0.32 0.72-0.72 0.72zM13.24 16.040h-4.8l2.76-3.48c0.16-0.2 0.2-0.44 0.16-0.68s-0.2-0.44-0.4-0.56l-4.28-2.48c-0.32-0.16-0.68-0.16-0.96 0.080l-2.6 2.2c-0.36 0.28-0.4 0.84-0.080 1.16s0.84 0.4 1.16 0.080l2.16-1.84 2.96 1.72-2.72 3.4c-1.24-0.36-2.6-0.28-3.84 0.36-0.4 0.2-0.56 0.72-0.36 1.12s0.72 0.56 1.12 0.36c1.32-0.68 2.96-0.44 4 0.6 1.080 1.080 1.32 2.68 0.6 4-0.2 0.4-0.040 0.92 0.36 1.12 0.12 0.080 0.24 0.080 0.4 0.080 0.32 0 0.6-0.16 0.72-0.44 0.88-1.72 0.76-3.72-0.32-5.24h2.92l-1.040 4.76c-0.080 0.44 0.2 0.88 0.64 1 0.040 0 0.12 0 0.16 0 0.4 0 0.72-0.28 0.8-0.64l1.24-5.76c0.040-0.24 0-0.52-0.16-0.68-0.12-0.12-0.36-0.24-0.6-0.24zM6.68 23.6c-1.32 0.68-2.96 0.44-4-0.6-1.080-1.080-1.32-2.68-0.6-4 0.2-0.4 0.040-0.92-0.36-1.12s-0.92-0.040-1.12 0.36c-1.040 2-0.68 4.4 0.92 5.96 1 1 2.28 1.48 3.6 1.48 0.8 0 1.6-0.2 2.36-0.6 0.4-0.2 0.56-0.72 0.36-1.12-0.24-0.4-0.76-0.56-1.16-0.36z"></path>
</svg>