<svg width="24" height="24" viewBox="0 0 24 24" fill="none" xmlns="http://www.w3.org/2000/svg">
<rect x="15.55" y="13.458" width="1.2" height="7" rx="0.6" fill="#4E88C7"/>
<rect x="12.75" y="17.6572" width="1.2" height="7" rx="0.6" transform="rotate(-90 12.75 17.6572)" fill="#4E88C7"/>
<path d="M13.82 4.68828C13.0158 3.88246 11.9905 3.33349 10.874 3.11094C9.75757 2.88839 8.60015 3.00227 7.54845 3.43816C6.49676 3.87405 5.59812 4.61232 4.96641 5.55942C4.33471 6.50653 3.99837 7.61984 4.00001 8.75829C4.00001 8.9572 4.07902 9.14796 4.21968 9.28861C4.36033 9.42927 4.55109 9.50829 4.75001 9.50829C4.94892 9.50829 5.13968 9.42927 5.28034 9.28861C5.42099 9.14796 5.50001 8.9572 5.50001 8.75829C5.49803 7.91489 5.74644 7.08988 6.21378 6.3878C6.68111 5.68572 7.34633 5.13815 8.12515 4.81448C8.90397 4.49082 9.76134 4.40561 10.5886 4.56966C11.4159 4.73372 12.1759 5.13965 12.7723 5.73602C13.3686 6.3324 13.7746 7.09237 13.9386 7.91966C14.1027 8.74695 14.0175 9.60432 13.6938 10.3831C13.3701 11.162 12.8226 11.8272 12.1205 12.2945C11.4184 12.7618 10.5934 13.0103 9.75001 13.0083C9.5519 13.0109 9.36264 13.0907 9.22254 13.2308C9.08245 13.3709 9.0026 13.5602 9.00001 13.7583V15.7583C9.00001 15.9572 9.07902 16.148 9.21968 16.2886C9.36033 16.4293 9.55109 16.5083 9.75001 16.5083C9.94892 16.5083 10.1397 16.4293 10.2803 16.2886C10.421 16.148 10.5 15.9572 10.5 15.7583V14.4583C11.563 14.3159 12.5652 13.8795 13.3936 13.1983C14.222 12.517 14.8438 11.6181 15.1889 10.6025C15.534 9.58704 15.5887 8.49536 15.3468 7.45044C15.105 6.40553 14.5762 5.4489 13.82 4.68828Z" fill="#4E88C7"/>
<path d="M9.75 20.5078C10.4404 20.5078 11 19.9482 11 19.2578C11 18.5675 10.4404 18.0078 9.75 18.0078C9.05964 18.0078 8.5 18.5675 8.5 19.2578C8.5 19.9482 9.05964 20.5078 9.75 20.5078Z" fill="#4E88C7"/>
</svg>


    