<svg width="24" height="24" viewBox="0 0 24 24" fill="none" xmlns="http://www.w3.org/2000/svg">
    <path fill-rule="evenodd" clip-rule="evenodd"
        d="M20 15.2144H17.9V13.0716C17.9 12.4801 17.4296 12.0001 16.85 12.0001C16.2704 12.0001 15.8 12.4801 15.8 13.0716V15.2144H13.7C13.1204 15.2144 12.65 15.6944 12.65 16.2859C12.65 16.8773 13.1204 17.3573 13.7 17.3573H15.8V19.5001C15.8 20.0916 16.2704 20.5716 16.85 20.5716C17.4296 20.5716 17.9 20.0916 17.9 19.5001V17.3573H20C20.5796 17.3573 21.05 16.8773 21.05 16.2859C21.05 15.6944 20.5796 15.2144 20 15.2144ZM8.45 3.42871C5.55515 3.42871 3.2 5.83193 3.2 8.78585C3.2 9.37728 3.6704 9.85728 4.25 9.85728C4.8296 9.85728 5.3 9.37728 5.3 8.78585C5.3 7.01371 6.7133 5.57157 8.45 5.57157C10.1867 5.57157 11.6 7.01371 11.6 8.78585C11.6 10.558 10.1867 12.0001 8.45 12.0001C7.8704 12.0001 7.4 12.4801 7.4 13.0716V15.7501C7.4 16.3416 7.8704 16.8216 8.45 16.8216C9.0296 16.8216 9.5 16.3416 9.5 15.7501V14.0359C11.8929 13.5376 13.7 11.3734 13.7 8.78585C13.7 5.83193 11.3448 3.42871 8.45 3.42871ZM8.45 18.4287C9.0296 18.4287 9.5 18.9087 9.5 19.5001C9.5 20.0916 9.0296 20.5716 8.45 20.5716C7.8704 20.5716 7.4 20.0916 7.4 19.5001C7.4 18.9087 7.8704 18.4287 8.45 18.4287Z"
        fill="#787FFF" />
</svg>
    