<svg width="84" height="84" viewBox="0 0 84 84" fill="none" xmlns="http://www.w3.org/2000/svg">
<path d="M18.3346 56C17.8513 56 17.4372 55.6544 17.3507 55.1789L11.0282 20.4049C10.8571 19.4642 11.9772 18.8429 12.6847 19.4861L28.836 34.1691C29.3066 34.5969 30.0519 34.4824 30.3724 33.933L41.1362 15.4808C41.5221 14.8193 42.4779 14.8193 42.8638 15.4808L53.6276 33.933C53.9481 34.4824 54.6934 34.5969 55.164 34.1691L71.3153 19.4861C72.0228 18.8429 73.1429 19.4642 72.9718 20.4049L66.6493 55.1789C66.5628 55.6544 66.1487 56 65.6654 56H18.3346ZM66.5 66.5C66.5 68.6 65.1 70 63 70H21C18.9 70 17.5 68.6 17.5 66.5V64C17.5 63.4477 17.9477 63 18.5 63H65.5C66.0523 63 66.5 63.4477 66.5 64V66.5Z" fill="#226CBC"/>
</svg>
