<svg viewBox="0 0 23 20" fill="none" xmlns="http://www.w3.org/2000/svg"><path d="M2.83 12.03h18.2c.42 0 .78.12 1.03.3.25.17.34.37.34.52 0 .17-.1.36-.33.53-.24.17-.6.3-1 .3H2.83c-.41 0-.76-.13-1-.3-.24-.17-.33-.36-.33-.53 0-.16.1-.36.33-.53.24-.17.59-.3 1-.3ZM14.98 6.2h6.2c.16 0 .54.06.86.22.3.15.46.35.46.61 0 .31-.15.5-.37.63-.24.14-.53.2-.68.2h-6.47c-.12 0-.41-.07-.67-.24-.25-.16-.39-.36-.39-.59 0-.23.14-.43.39-.59.26-.17.55-.23.67-.23ZM2.83 17.32h18.2c.42 0 .78.13 1.03.3.25.18.34.37.34.53 0 .16-.1.36-.33.53-.24.17-.6.3-1 .3H2.83c-.41 0-.76-.13-1-.3-.24-.17-.33-.37-.33-.53 0-.17.1-.36.33-.53.24-.17.59-.3 1-.3Z" fill="#C5DBE9" stroke="#C5DBE9"/><path d="m10.84 1.47-5.1 6.09-3.7-2.95" stroke="currentColor"/></svg>