<?xml version="1.0" encoding="utf-8"?><!-- Uploaded to: SVG Repo, www.svgrepo.com, Generator: SVG Repo Mixer Tools -->
<svg width="800px" height="800px" viewBox="0 0 24 24" fill="none" xmlns="http://www.w3.org/2000/svg">
<path d="M12 0C7.90392 0 4.58336 3.32056 4.58336 7.41667V8.33334C4.58336 9.94634 4.42274 11.4324 4.1541 12.6546C4.05874 13.0884 4.26097 13.5331 4.65058 13.7464C5.04019 13.9597 5.52381 13.8904 5.83789 13.5764L16.4808 2.93348C16.6875 2.72676 16.7934 2.43994 16.7706 2.14849C16.7478 1.85703 16.5987 1.59014 16.3624 1.41803C15.1381 0.526355 13.629 0 12 0Z" fill="#000000"/>
<path fill-rule="evenodd" clip-rule="evenodd" d="M23.3535 2.76776C23.744 2.37723 23.744 1.74407 23.3535 1.35354L22.6464 0.646438C22.2559 0.255913 21.6227 0.255913 21.2322 0.646438L0.646409 21.2322C0.255885 21.6227 0.255884 22.2559 0.646408 22.6464L1.35351 23.3535C1.74404 23.7441 2.3772 23.7441 2.76773 23.3535L8.32961 17.7917H21.1667C21.719 17.7917 22.1667 17.3439 22.1667 16.7917V16.5833C22.1667 16.0346 21.7247 15.5891 21.1773 15.5834C21.1539 15.5761 21.0522 15.5324 20.8817 15.316C20.6514 15.0238 20.4003 14.539 20.1708 13.8507C19.7155 12.4847 19.4167 10.5339 19.4167 8.33333V7.41666C19.4167 7.18719 19.4063 6.95997 19.3858 6.73549L23.3535 2.76776Z" fill="#000000"/>
<path d="M9.24998 19.5C8.87243 19.5 8.52707 19.7126 8.35707 20.0497C8.18708 20.3869 8.22144 20.791 8.44591 21.0945C9.27803 22.2199 10.5351 23 12 23C13.4649 23 14.7219 22.2199 15.554 21.0945C15.7785 20.791 15.8129 20.3869 15.6429 20.0497C15.4729 19.7126 15.1275 19.5 14.75 19.5H9.24998Z" fill="#000000"/>
</svg>