<svg width="25" height="24" viewBox="0 0 25 24" fill="none" xmlns="http://www.w3.org/2000/svg">
<path d="M12.3281 2C17.8538 2 22.4713 5.8524 22.4713 10.7923C22.4713 13.4575 21.0133 15.6423 18.9341 17.1997L20.5695 21.2751C20.6255 21.4133 20.6391 21.5664 20.6085 21.7131C20.5779 21.8598 20.5045 21.993 20.3985 22.0941C20.2924 22.1952 20.1591 22.2593 20.0168 22.2775C19.8745 22.2957 19.7303 22.2672 19.6041 22.1958L14.727 19.4034C13.9726 19.5267 13.0303 19.5921 12.3281 19.5921C6.80243 19.5921 2.18494 15.7321 2.18494 10.7923C2.18494 5.8524 6.80243 2 12.3281 2ZM12.3281 3.44903C7.41158 3.44903 3.5681 6.81236 3.5681 10.7923C3.5681 14.7722 7.41158 18.1431 12.3281 18.1431C13.0244 18.1431 14.1352 18.0656 14.7342 17.9468C14.8916 17.9153 15.0546 17.942 15.1953 18.0223L18.5307 19.9317L17.4573 17.2525C17.3938 17.0958 17.385 16.9207 17.4324 16.7578C17.4798 16.595 17.5805 16.4548 17.7167 16.362C19.7948 14.9736 21.0881 13.0885 21.0881 10.7923C21.0881 6.81236 17.2447 3.44903 12.3281 3.44903ZM16.9387 7.07159C17.3206 7.07159 17.6302 7.39597 17.6302 7.7961C17.6302 8.19624 17.3206 8.52061 16.9387 8.52061H7.71758C7.33562 8.52061 7.026 8.19624 7.026 7.7961C7.026 7.39597 7.33562 7.07159 7.71758 7.07159H16.9387ZM16.9387 9.96964C17.3206 9.96964 17.6302 10.294 17.6302 10.6942C17.6302 11.0943 17.3206 11.4187 16.9387 11.4187H7.71758C7.33562 11.4187 7.026 11.0943 7.026 10.6942C7.026 10.294 7.33562 9.96964 7.71758 9.96964H16.9387ZM16.9387 12.8677C17.3206 12.8677 17.6302 13.1921 17.6302 13.5922C17.6302 13.9923 17.3206 14.3167 16.9387 14.3167H9.56179C9.17983 14.3167 8.87021 13.9923 8.87021 13.5922C8.87021 13.1921 9.17983 12.8677 9.56179 12.8677H16.9387Z" fill="#787FFF"/>
</svg>
