<svg width="22" height="22" viewBox="0 0 22 22" fill="none" xmlns="http://www.w3.org/2000/svg">
<path d="M15.8488 2.09921L19.8913 6.14171C20.0655 6.31587 20.1663 6.55421 20.1663 6.79254L20.1663 19.25C20.1663 19.7542 19.7538 20.1667 19.2497 20.1667L2.74967 20.1667C2.24551 20.1667 1.83301 19.7542 1.83301 19.25L1.83301 2.75004C1.83301 2.24587 2.24551 1.83337 2.74967 1.83337L15.2072 1.83337C15.4455 1.83337 15.6838 1.93421 15.8488 2.09921Z" stroke="white" stroke-miterlimit="10" stroke-linecap="round" stroke-linejoin="round"/>
<path d="M6.41699 15.5834L15.5837 15.5834" stroke="white" stroke-miterlimit="10" stroke-linecap="round" stroke-linejoin="round"/>
<path d="M6.41699 11L15.5837 11L6.41699 11Z" fill="white"/>
<path d="M6.41699 11L15.5837 11" stroke="white" stroke-miterlimit="10" stroke-linecap="round" stroke-linejoin="round"/>
<path d="M6.41699 6.41663L11.0003 6.41663" stroke="white" stroke-miterlimit="10" stroke-linecap="round" stroke-linejoin="round"/>
<path d="M14.667 1.83337V7.33337L20.167 7.33337V6.79254C20.167 6.55421 20.0662 6.31587 19.9012 6.15087L15.8495 2.09921C15.6845 1.93421 15.4462 1.83337 15.2078 1.83337H14.667Z" stroke="white" stroke-miterlimit="10" stroke-linecap="round" stroke-linejoin="round"/>
</svg>
