<svg width="84" height="84" viewBox="0 0 84 84" fill="none" xmlns="http://www.w3.org/2000/svg">
<path d="M68.2067 18.8457C68.5014 19.4137 68.9987 19.8617 69.6557 20.1157L72.3894 21.1698C72.5709 21.2404 72.7253 21.3565 72.8338 21.5039C72.9422 21.6513 73 21.8236 73 21.9998C73 22.1759 72.9422 22.3482 72.8338 22.4956C72.7253 22.643 72.5709 22.7592 72.3894 22.8298L69.6782 23.8838C69.0308 24.1269 68.513 24.5814 68.2314 25.1538L66.0849 29.4878C65.5 30.9998 65 30.6538 64.1634 29.4878L62.017 25.1538C61.7287 24.5856 61.213 24.1329 60.5702 23.8838L57.859 22.8298C57.6775 22.7592 57.523 22.643 57.4146 22.4956C57.3061 22.3482 57.2484 22.1759 57.2484 21.9998C57.2484 21.8236 57.3061 21.6513 57.4146 21.5039C57.523 21.3565 57.6775 21.2404 57.859 21.1698L60.5702 20.1157C61.2176 19.8726 61.7354 19.4181 62.017 18.8457L64.1634 14.5117C64.5 12.9991 65.5 12.5 66.0849 14.5117L68.2067 18.8457ZM41.4611 20.3297C41.6721 20.7242 42.0388 21.036 42.4916 21.2058L44.4356 21.9258C45.0206 22.1598 45.0206 22.8398 44.4356 23.0738L42.4916 23.7938C42.0337 23.9564 41.6643 24.2704 41.4611 24.6698L39.9401 27.6498C39.6589 28.1158 38.8376 28.1158 38.5586 27.6498L37.0376 24.6698C36.8276 24.2747 36.4605 23.9627 36.0072 23.7938L34.0632 23.0738C33.934 23.028 33.8233 22.9488 33.7453 22.8465C33.6673 22.7441 33.6256 22.6234 33.6256 22.4998C33.6256 22.3762 33.6673 22.2554 33.7453 22.1531C33.8233 22.0507 33.934 21.9716 34.0632 21.9258L36.0072 21.2058C36.4651 21.0431 36.8344 20.7292 37.0376 20.3297L38.5586 17.3497C38.8399 16.8837 39.6611 16.8837 39.9401 17.3497L41.4611 20.3297ZM14.4996 62.0001L10.7601 65.2541C10.5192 65.4671 10.328 65.7203 10.1976 65.9992C10.0671 66.2781 10 66.5771 10 66.8791C10 67.1812 10.0671 67.4802 10.1976 67.7591C10.328 68.038 10.5192 68.2912 10.7601 68.5042L11.6826 69.3242C12.6726 70.2282 14.3151 70.2282 15.305 69.3042L18.9995 66.0141L18.9928 66.0081L50.4993 37.9999L54.2658 34.6659C55.2445 33.7759 55.2445 32.1858 54.2658 31.3158L53.5233 30.6538C52.5243 29.7798 50.4993 29.9998 49.3743 30.9998L14.4996 62.0001ZM63.8867 42.5959C63.4226 42.3975 63.055 42.0565 62.8517 41.6359L61.3105 38.3919C61.0225 37.8699 60.2035 37.8699 59.938 38.3919L58.3967 41.6379C58.1931 42.0578 57.8255 42.3981 57.3617 42.5959L55.4335 43.3799C54.8553 43.6399 54.8553 44.3799 55.4335 44.6199L57.3595 45.404C57.8236 45.6024 58.1912 45.9434 58.3945 46.364L59.938 49.608C60.226 50.13 61.045 50.13 61.3105 49.608L62.8517 46.364C63.0548 45.9433 63.4225 45.6023 63.8867 45.404L65.8149 44.6199C66.3932 44.3599 66.3932 43.6199 65.8149 43.3799L63.8867 42.5959ZM32.4994 37.9999C33.0962 37.9999 33.6685 37.7892 34.0904 37.4141C34.5124 37.039 34.7494 36.5303 34.7494 35.9999C34.7494 35.4694 34.5124 34.9607 34.0904 34.5856C33.6685 34.2106 33.0962 33.9999 32.4994 33.9999C31.9027 33.9999 31.3304 34.2106 30.9084 34.5856C30.4865 34.9607 30.2494 35.4694 30.2494 35.9999C30.2494 36.5303 30.4865 37.039 30.9084 37.4141C31.3304 37.7892 31.9027 37.9999 32.4994 37.9999ZM72.9991 35.9999C72.9991 36.5303 72.7621 37.039 72.3401 37.4141C71.9182 37.7892 71.3459 37.9999 70.7491 37.9999C70.1524 37.9999 69.5801 37.7892 69.1582 37.4141C68.7362 37.039 68.4992 36.5303 68.4992 35.9999C68.4992 35.4694 68.7362 34.9607 69.1582 34.5856C69.5801 34.2106 70.1524 33.9999 70.7491 33.9999C71.3459 33.9999 71.9182 34.2106 72.3401 34.5856C72.7621 34.9607 72.9991 35.4694 72.9991 35.9999ZM48.2493 17.9997C48.846 17.9997 49.4183 17.789 49.8403 17.4139C50.2622 17.0389 50.4993 16.5301 50.4993 15.9997C50.4993 15.4693 50.2622 14.9606 49.8403 14.5855C49.4183 14.2104 48.846 13.9997 48.2493 13.9997C47.6526 13.9997 47.0803 14.2104 46.6583 14.5855C46.2364 14.9606 45.9993 15.4693 45.9993 15.9997C45.9993 16.5301 46.2364 17.0389 46.6583 17.4139C47.0803 17.789 47.6526 17.9997 48.2493 17.9997ZM50.4993 52C50.4993 52.5305 50.2622 53.0392 49.8403 53.4142C49.4183 53.7893 48.846 54 48.2493 54C47.6526 54 47.0803 53.7893 46.6583 53.4142C46.2364 53.0392 45.9993 52.5305 45.9993 52C45.9993 51.4696 46.2364 50.9609 46.6583 50.5858C47.0803 50.2107 47.6526 50 48.2493 50C48.846 50 49.4183 50.2107 49.8403 50.5858C50.2622 50.9609 50.4993 51.4696 50.4993 52Z" fill="white"/>
</svg>
