<svg width="32" height="33" viewBox="0 0 32 33" fill="none" xmlns="http://www.w3.org/2000/svg">
    <g clip-path="url(#clip0_3628_140885)">
        <path
            d="M0.767023 21.1946C0.767023 18.4185 2.96949 16.168 5.68637 16.168H12.5439V26.2213H5.68637C2.96949 26.2213 0.767023 23.9708 0.767023 21.1946Z"
            stroke="currentColor" />
        <path
            d="M9.0332 23.7825C9.0332 23.7825 8.25085 22.627 6.87696 22.627C5.50307 22.627 4.74383 23.8124 4.74383 23.8124"
            stroke="currentColor" strokeLinecap="round" />
        <path
            d="M4.88774 20.5084C5.16574 20.5084 5.40467 20.2759 5.40467 19.9721C5.40467 19.6683 5.16574 19.4358 4.88774 19.4358C4.60974 19.4358 4.37081 19.6683 4.37081 19.9721C4.37081 20.2759 4.60974 20.5084 4.88774 20.5084ZM8.43692 20.5084C8.71491 20.5084 8.95385 20.2759 8.95385 19.9721C8.95385 19.6684 8.71491 19.4359 8.43692 19.4359C8.15892 19.4359 7.91999 19.6684 7.91999 19.9721C7.91999 20.2759 8.15892 20.5084 8.43692 20.5084Z"
            fill="currentColor" stroke="currentColor" strokeWidth="1" />
        <path
            d="M12.3214 4.66602H23.3263C27.6862 4.66602 31.2207 8.27759 31.2207 12.7327C31.2207 17.1878 27.6862 20.7994 23.3263 20.7994H12.3214V4.66602Z"
            stroke="currentColor" />
        <path
            d="M18.2949 14.6641C18.2949 14.6641 19.3112 16.165 21.0958 16.165C22.8805 16.165 23.8667 14.6252 23.8667 14.6252"
            stroke="currentColor" strokeLinecap="round" />
        <path
            d="M18.4852 12.272C19.0739 12.272 19.5543 11.7838 19.5543 11.1777C19.5543 10.5717 19.0739 10.0835 18.4852 10.0835C17.8964 10.0835 17.4161 10.5717 17.4161 11.1777C17.4161 11.7838 17.8964 12.272 18.4852 12.272ZM23.0955 12.272C23.6842 12.272 24.1645 11.7838 24.1645 11.1778C24.1645 10.5718 23.6842 10.0836 23.0955 10.0836C22.5067 10.0836 22.0264 10.5718 22.0264 11.1778C22.0264 11.7838 22.5067 12.272 23.0955 12.272Z"
            fill="currentColor" stroke="currentColor" strokeWidth="1" />
    </g>
    <defs>
        <clipPath id="clip0_3628_140885">
            <rect width="32" height="32" fill="currentColor" transform="translate(0 0.666016)" />
        </clipPath>
    </defs>
</svg>
    