<svg width="26" height="22" fill="none" xmlns="http://www.w3.org/2000/svg"><path d="M18.546 1.4a6.145 6.145 0 0 1 6.145 6.145h.8A6.945 6.945 0 0 0 18.546.6v.8Zm6.145 6.145a6.145 6.145 0 0 1-6.145 6.146v.8a6.945 6.945 0 0 0 6.945-6.946h-.8Zm-6.145 6.146A6.145 6.145 0 0 1 12.4 7.545h-.8a6.945 6.945 0 0 0 6.946 6.946v-.8ZM12.4 7.545A6.145 6.145 0 0 1 18.546 1.4V.6A6.945 6.945 0 0 0 11.6 7.545h.8Zm3.646-2.582a.9.9 0 0 0-.9.9h.8a.1.1 0 0 1 .1-.1v-.8Zm-.9.9a.9.9 0 0 0 .9.9v-.8a.1.1 0 0 1-.1-.1h-.8Zm.9.9a.9.9 0 0 0 .9-.9h-.8a.1.1 0 0 1-.1.1v.8Zm.9-.9a.9.9 0 0 0-.9-.9v.8a.1.1 0 0 1 .1.1h.8Zm3.463-.9a.9.9 0 0 0-.9.9h.8a.1.1 0 0 1 .1-.1v-.8Zm-.9.9a.9.9 0 0 0 .9.9v-.8a.1.1 0 0 1-.1-.1h-.8Zm.9.9a.9.9 0 0 0 .9-.9h-.8a.1.1 0 0 1-.1.1v.8Zm.9-.9a.9.9 0 0 0-.9-.9v.8a.1.1 0 0 1 .1.1h.8Z" fill="currentColor"/><path d="M21.09 11.227c-1.5-1.5-3.207-1.766-5 0" stroke="currentColor" stroke-width=".8" stroke-linecap="round"/><path d="M7.545 8.31a6.145 6.145 0 0 1 6.146 6.145h.8a6.945 6.945 0 0 0-6.946-6.946v.8Zm6.146 6.145A6.145 6.145 0 0 1 7.545 20.6v.8a6.945 6.945 0 0 0 6.946-6.945h-.8ZM7.545 20.6A6.145 6.145 0 0 1 1.4 14.455H.6A6.945 6.945 0 0 0 7.545 21.4v-.8ZM1.4 14.455a6.145 6.145 0 0 1 6.145-6.146v-.8A6.945 6.945 0 0 0 .6 14.455h.8Zm3.646-2.582a.9.9 0 0 0-.9.9h.8a.1.1 0 0 1 .1-.1v-.8Zm-.9.9a.9.9 0 0 0 .9.9v-.8a.1.1 0 0 1-.1-.1h-.8Zm.9.9a.9.9 0 0 0 .9-.9h-.8a.1.1 0 0 1-.1.1v.8Zm.9-.9a.9.9 0 0 0-.9-.9v.8a.1.1 0 0 1 .1.1h.8Zm3.513-.9c-.488 0-.95.367-.95.9h.8c0-.015.006-.036.03-.058a.178.178 0 0 1 .12-.043v-.8Zm-.95.9c0 .531.462.9.95.9v-.8a.178.178 0 0 1-.12-.043c-.024-.022-.03-.043-.03-.058h-.8Zm.95.9c.488 0 .95-.369.95-.9h-.8c0 .014-.006.035-.03.057a.178.178 0 0 1-.12.042v.8Zm.95-.9c0-.533-.462-.9-.95-.9v.8c.054 0 .095.019.12.042.024.022.03.043.03.057h.8Z" fill="currentColor"/><path d="M5 17c1.5 1.5 3.208 1.766 5 0" stroke="currentColor" stroke-width=".8" stroke-linecap="round"/></svg>