<svg width="24" height="24" viewBox="0 0 24 24" fill="none" xmlns="http://www.w3.org/2000/svg">
<g clip-path="url(#clip0_959_39644)">
<path d="M23.5861 19.8628H0.413812C0.185297 19.8628 0 19.6775 0 19.449V4.55248C0 4.32397 0.185297 4.13867 0.413812 4.13867H23.5862C23.8147 4.13867 24 4.32397 24 4.55248V19.449C24 19.6776 23.8147 19.8628 23.5861 19.8628Z" fill="#F5F5F5"/>
<path d="M24 5.34828H0V4.55248C0 4.32397 0.185297 4.13867 0.413812 4.13867H23.5862C23.8147 4.13867 24 4.32397 24 4.55248L24 5.34828Z" fill="#FF4B55"/>
<path d="M24 8.97656H0V10.1861H24V8.97656Z" fill="#FF4B55"/>
<path d="M24 6.55859H0V7.76815H24V6.55859Z" fill="#FF4B55"/>
<path d="M24 12.6061H0.413812C0.185297 12.6061 0 12.4208 0 12.1923V11.3965H24V12.6061Z" fill="#FF4B55"/>
<path d="M24 16.2344H0V17.4439H24V16.2344Z" fill="#FF4B55"/>
<path d="M23.5861 19.8619H0.413812C0.185297 19.8619 0 19.6766 0 19.4481V18.6523H24V19.4481C24 19.6767 23.8147 19.8619 23.5861 19.8619Z" fill="#FF4B55"/>
<path d="M24 13.8145H0V15.024H24V13.8145Z" fill="#FF4B55"/>
<path d="M10.7586 4.13867H0.413812C0.185297 4.13867 0 4.32392 0 4.55244V12.1916C0 12.4202 0.185297 12.6055 0.413812 12.6055H10.7586C10.9872 12.6055 11.1724 12.4202 11.1724 12.1916V4.55244C11.1724 4.32392 10.9871 4.13867 10.7586 4.13867Z" fill="#226CBC"/>
<path d="M1.16284 5.08722L1.25443 5.36191L1.54398 5.36411C1.58148 5.36444 1.59699 5.41225 1.56685 5.43452L1.33393 5.60655L1.4213 5.8826C1.43265 5.91832 1.39191 5.94794 1.3614 5.9261L1.12585 5.75777L0.890305 5.92614C0.85979 5.94794 0.819149 5.91836 0.830399 5.88264L0.917774 5.6066L0.684853 5.43457C0.654712 5.41225 0.670228 5.36449 0.707728 5.36416L0.997274 5.36196L1.08887 5.08727C1.10068 5.05165 1.15093 5.05165 1.16284 5.08722Z" fill="#F5F5F5"/>
<path d="M1.16235 6.52469L1.25394 6.79938L1.54349 6.80158C1.58099 6.80191 1.5965 6.84972 1.56636 6.87199L1.33344 7.04402L1.42082 7.32006C1.43216 7.35578 1.39143 7.38541 1.36091 7.36356L1.12536 7.19524L0.889817 7.36361C0.859302 7.38541 0.818661 7.35583 0.829911 7.32011L0.917286 7.04406L0.684364 6.87203C0.654224 6.84972 0.669739 6.80196 0.707239 6.80163L0.996786 6.79942L1.08838 6.52474C1.10019 6.48916 1.15044 6.48916 1.16235 6.52469Z" fill="#F5F5F5"/>
<path d="M1.16235 7.96024L1.25394 8.23492L1.54349 8.23713C1.58099 8.23745 1.5965 8.28527 1.56636 8.30753L1.33344 8.47956L1.42082 8.75561C1.43216 8.79133 1.39143 8.82095 1.36091 8.79911L1.12536 8.63078L0.889817 8.79916C0.859302 8.82095 0.818661 8.79137 0.829911 8.75566L0.917286 8.47961L0.684364 8.30758C0.654224 8.28527 0.669739 8.2375 0.707239 8.23717L0.996786 8.23497L1.08838 7.96028C1.10019 7.92471 1.15044 7.9247 1.16235 7.96024Z" fill="#F5F5F5"/>
<path d="M1.16235 9.39777L1.25394 9.67246L1.54349 9.67466C1.58099 9.67499 1.5965 9.7228 1.56636 9.74507L1.33344 9.9171L1.42082 10.1931C1.43216 10.2289 1.39143 10.2585 1.36091 10.2366L1.12536 10.0683L0.889817 10.2367C0.859302 10.2585 0.818661 10.2289 0.829911 10.1932L0.917286 9.91714L0.684364 9.74511C0.654224 9.7228 0.669739 9.67504 0.707239 9.67471L0.996786 9.67251L1.08838 9.39782C1.10019 9.36219 1.15044 9.36219 1.16235 9.39777Z" fill="#F5F5F5"/>
<path d="M1.16235 10.8353L1.25394 11.11L1.54349 11.1122C1.58099 11.1125 1.5965 11.1603 1.56636 11.1826L1.33344 11.3546L1.42082 11.6307C1.43216 11.6664 1.39143 11.696 1.36091 11.6742L1.12536 11.5059L0.889817 11.6742C0.859302 11.696 0.818661 11.6664 0.829911 11.6307L0.917286 11.3547L0.684364 11.1826C0.654224 11.1603 0.669739 11.1126 0.707239 11.1122L0.996786 11.11L1.08838 10.8354C1.10019 10.7997 1.15044 10.7997 1.16235 10.8353Z" fill="#F5F5F5"/>
<path d="M2.27758 5.79227L2.36918 6.06696L2.65872 6.06916C2.69622 6.06949 2.71174 6.1173 2.6816 6.13957L2.44868 6.3116L2.53605 6.58765C2.54739 6.62337 2.50666 6.65299 2.47614 6.63115L2.2406 6.46277L2.00505 6.63115C1.97454 6.65294 1.9339 6.62337 1.94515 6.58765L2.03252 6.3116L1.7996 6.13957C1.76946 6.11726 1.78497 6.06949 1.82247 6.06916L2.11202 6.06696L2.20361 5.79227C2.21538 5.75674 2.26572 5.75674 2.27758 5.79227Z" fill="#F5F5F5"/>
<path d="M2.27758 7.22786L2.36918 7.50254L2.65872 7.50474C2.69622 7.50507 2.71174 7.55289 2.6816 7.57515L2.44868 7.74718L2.53605 8.02323C2.54739 8.05895 2.50666 8.08857 2.47614 8.06673L2.2406 7.89835L2.00505 8.06673C1.97454 8.08852 1.9339 8.05899 1.94515 8.02323L2.03252 7.74718L1.7996 7.57515C1.76946 7.55284 1.78497 7.50507 1.82247 7.50474L2.11202 7.50254L2.20361 7.22786C2.21538 7.19228 2.26572 7.19228 2.27758 7.22786Z" fill="#F5F5F5"/>
<path d="M2.27758 8.66536L2.36918 8.94004L2.65872 8.94225C2.69622 8.94257 2.71174 8.99039 2.6816 9.01265L2.44868 9.18468L2.53605 9.46073C2.54739 9.49645 2.50666 9.52607 2.47614 9.50423L2.2406 9.33585L2.00505 9.50423C1.97454 9.52603 1.9339 9.49645 1.94515 9.46073L2.03252 9.18468L1.7996 9.01265C1.76946 8.99034 1.78497 8.94257 1.82247 8.94225L2.11202 8.94004L2.20361 8.66536C2.21538 8.62978 2.26572 8.62978 2.27758 8.66536Z" fill="#F5F5F5"/>
<path d="M2.27758 10.1028L2.36918 10.3775L2.65872 10.3797C2.69622 10.38 2.71174 10.4279 2.6816 10.4501L2.44868 10.6221L2.53605 10.8982C2.54739 10.9339 2.50666 10.9635 2.47614 10.9417L2.2406 10.7733L2.00505 10.9417C1.97454 10.9635 1.9339 10.9339 1.94515 10.8982L2.03252 10.6221L1.7996 10.4501C1.76946 10.4278 1.78497 10.38 1.82247 10.3797L2.11202 10.3775L2.20361 10.1028C2.21538 10.0673 2.26572 10.0673 2.27758 10.1028Z" fill="#F5F5F5"/>
<path d="M3.39282 5.08723L3.48441 5.36192L3.77396 5.36412C3.81146 5.36445 3.82697 5.41226 3.79683 5.43453L3.56391 5.60656L3.65128 5.8826C3.66263 5.91832 3.62189 5.94795 3.59138 5.9261L3.35583 5.75773L3.12029 5.9261C3.08977 5.9479 3.04913 5.91832 3.06038 5.8826L3.14775 5.60656L2.91483 5.43453C2.88469 5.41221 2.90021 5.36445 2.93771 5.36412L3.22725 5.36192L3.31885 5.08723C3.33066 5.05165 3.38096 5.05165 3.39282 5.08723Z" fill="#F5F5F5"/>
<path d="M3.39282 6.5247L3.48441 6.79938L3.77396 6.80159C3.81146 6.80191 3.82697 6.84973 3.79683 6.87199L3.56391 7.04402L3.65128 7.32007C3.66263 7.35579 3.62189 7.38541 3.59138 7.36357L3.35583 7.19519L3.12029 7.36357C3.08977 7.38537 3.04913 7.35579 3.06038 7.32007L3.14775 7.04402L2.91483 6.87199C2.88469 6.84968 2.90021 6.80191 2.93771 6.80159L3.22725 6.79938L3.31885 6.5247C3.33066 6.48916 3.38096 6.48916 3.39282 6.5247Z" fill="#F5F5F5"/>
<path d="M3.39282 7.96024L3.48441 8.23493L3.77396 8.23713C3.81146 8.23746 3.82697 8.28527 3.79683 8.30754L3.56391 8.47957L3.65128 8.75562C3.66263 8.79134 3.62189 8.82096 3.59138 8.79912L3.35583 8.63074L3.12029 8.79912C3.08977 8.82091 3.04913 8.79134 3.06038 8.75562L3.14775 8.47957L2.91483 8.30754C2.88469 8.28523 2.90021 8.23746 2.93771 8.23713L3.22725 8.23493L3.31885 7.96024C3.33066 7.92471 3.38096 7.92471 3.39282 7.96024Z" fill="#F5F5F5"/>
<path d="M3.39282 9.39778L3.48441 9.67246L3.77396 9.67467C3.81146 9.675 3.82697 9.72281 3.79683 9.74507L3.56391 9.9171L3.65128 10.1932C3.66263 10.2289 3.62189 10.2585 3.59138 10.2367L3.35583 10.0683L3.12029 10.2367C3.08977 10.2584 3.04913 10.2289 3.06038 10.1932L3.14775 9.9171L2.91483 9.74507C2.88469 9.72276 2.90021 9.675 2.93771 9.67467L3.22725 9.67246L3.31885 9.39778C3.33066 9.3622 3.38096 9.3622 3.39282 9.39778Z" fill="#F5F5F5"/>
<path d="M3.39282 10.8353L3.48441 11.11L3.77396 11.1122C3.81146 11.1125 3.82697 11.1603 3.79683 11.1826L3.56391 11.3546L3.65128 11.6307C3.66263 11.6664 3.62189 11.696 3.59138 11.6742L3.35583 11.5058L3.12029 11.6742C3.08977 11.696 3.04913 11.6664 3.06038 11.6307L3.14775 11.3546L2.91483 11.1826C2.88469 11.1603 2.90021 11.1125 2.93771 11.1122L3.22725 11.11L3.31885 10.8353C3.33066 10.7997 3.38096 10.7997 3.39282 10.8353Z" fill="#F5F5F5"/>
<path d="M4.50854 5.79227L4.60013 6.06696L4.88968 6.06916C4.92718 6.06949 4.94269 6.1173 4.91255 6.13957L4.67963 6.3116L4.76701 6.58765C4.77835 6.62337 4.73762 6.65299 4.7071 6.63115L4.47155 6.46277L4.23601 6.63115C4.20549 6.65294 4.16485 6.62337 4.1761 6.58765L4.26348 6.3116L4.03056 6.13957C4.00042 6.11726 4.01593 6.06949 4.05343 6.06916L4.34298 6.06696L4.43457 5.79227C4.44634 5.75674 4.49668 5.75674 4.50854 5.79227Z" fill="#F5F5F5"/>
<path d="M4.50854 7.22786L4.60013 7.50254L4.88968 7.50474C4.92718 7.50507 4.94269 7.55289 4.91255 7.57515L4.67963 7.74718L4.76701 8.02323C4.77835 8.05895 4.73762 8.08857 4.7071 8.06673L4.47155 7.89835L4.23601 8.06673C4.20549 8.08852 4.16485 8.05899 4.1761 8.02323L4.26348 7.74718L4.03056 7.57515C4.00042 7.55284 4.01593 7.50507 4.05343 7.50474L4.34298 7.50254L4.43457 7.22786C4.44634 7.19228 4.49668 7.19228 4.50854 7.22786Z" fill="#F5F5F5"/>
<path d="M4.50854 8.66536L4.60013 8.94004L4.88968 8.94225C4.92718 8.94257 4.94269 8.99039 4.91255 9.01265L4.67963 9.18468L4.76701 9.46073C4.77835 9.49645 4.73762 9.52607 4.7071 9.50423L4.47155 9.33585L4.23601 9.50423C4.20549 9.52603 4.16485 9.49645 4.1761 9.46073L4.26348 9.18468L4.03056 9.01265C4.00042 8.99034 4.01593 8.94257 4.05343 8.94225L4.34298 8.94004L4.43457 8.66536C4.44634 8.62978 4.49668 8.62978 4.50854 8.66536Z" fill="#F5F5F5"/>
<path d="M4.50854 10.1028L4.60013 10.3775L4.88968 10.3797C4.92718 10.38 4.94269 10.4279 4.91255 10.4501L4.67963 10.6221L4.76701 10.8982C4.77835 10.9339 4.73762 10.9635 4.7071 10.9417L4.47155 10.7733L4.23601 10.9417C4.20549 10.9635 4.16485 10.9339 4.1761 10.8982L4.26348 10.6221L4.03056 10.4501C4.00042 10.4278 4.01593 10.38 4.05343 10.3797L4.34298 10.3775L4.43457 10.1028C4.44634 10.0673 4.49668 10.0673 4.50854 10.1028Z" fill="#F5F5F5"/>
<path d="M5.62382 5.08723L5.71541 5.36192L6.00496 5.36412C6.04246 5.36445 6.05798 5.41226 6.02783 5.43453L5.79491 5.60656L5.88229 5.8826C5.89363 5.91832 5.8529 5.94795 5.82238 5.9261L5.58679 5.75773L5.35124 5.9261C5.32073 5.9479 5.28009 5.91832 5.29134 5.8826L5.37871 5.60656L5.14579 5.43453C5.11565 5.41221 5.13117 5.36445 5.16867 5.36412L5.45821 5.36192L5.54981 5.08723C5.56166 5.05165 5.61196 5.05165 5.62382 5.08723Z" fill="#F5F5F5"/>
<path d="M5.62382 6.5247L5.71541 6.79938L6.00496 6.80159C6.04246 6.80191 6.05798 6.84973 6.02783 6.87199L5.79491 7.04402L5.88229 7.32007C5.89363 7.35579 5.8529 7.38541 5.82238 7.36357L5.58679 7.19519L5.35124 7.36357C5.32073 7.38537 5.28009 7.35579 5.29134 7.32007L5.37871 7.04402L5.14579 6.87199C5.11565 6.84968 5.13117 6.80191 5.16867 6.80159L5.45821 6.79938L5.54981 6.5247C5.56166 6.48916 5.61196 6.48916 5.62382 6.5247Z" fill="#F5F5F5"/>
<path d="M5.62382 7.96024L5.71541 8.23493L6.00496 8.23713C6.04246 8.23746 6.05798 8.28527 6.02783 8.30754L5.79491 8.47957L5.88229 8.75562C5.89363 8.79134 5.8529 8.82096 5.82238 8.79912L5.58679 8.63074L5.35124 8.79912C5.32073 8.82091 5.28009 8.79134 5.29134 8.75562L5.37871 8.47957L5.14579 8.30754C5.11565 8.28523 5.13117 8.23746 5.16867 8.23713L5.45821 8.23493L5.54981 7.96024C5.56166 7.92471 5.61196 7.92471 5.62382 7.96024Z" fill="#F5F5F5"/>
<path d="M5.62382 9.39778L5.71541 9.67246L6.00496 9.67467C6.04246 9.675 6.05798 9.72281 6.02783 9.74507L5.79491 9.9171L5.88229 10.1932C5.89363 10.2289 5.8529 10.2585 5.82238 10.2367L5.58679 10.0683L5.35124 10.2367C5.32073 10.2584 5.28009 10.2289 5.29134 10.1932L5.37871 9.9171L5.14579 9.74507C5.11565 9.72276 5.13117 9.675 5.16867 9.67467L5.45821 9.67246L5.54981 9.39778C5.56166 9.3622 5.61196 9.3622 5.62382 9.39778Z" fill="#F5F5F5"/>
<path d="M5.62382 10.8353L5.71541 11.11L6.00496 11.1122C6.04246 11.1125 6.05798 11.1603 6.02783 11.1826L5.79491 11.3546L5.88229 11.6307C5.89363 11.6664 5.8529 11.696 5.82238 11.6742L5.58679 11.5058L5.35124 11.6742C5.32073 11.696 5.28009 11.6664 5.29134 11.6307L5.37871 11.3546L5.14579 11.1826C5.11565 11.1603 5.13117 11.1125 5.16867 11.1122L5.45821 11.11L5.54981 10.8353C5.56166 10.7997 5.61196 10.7997 5.62382 10.8353Z" fill="#F5F5F5"/>
<path d="M6.73901 5.79227L6.8306 6.06696L7.12015 6.06916C7.15765 6.06949 7.17316 6.1173 7.14302 6.13957L6.9101 6.3116L6.99748 6.58765C7.00882 6.62337 6.96809 6.65299 6.93757 6.63115L6.70202 6.46277L6.46648 6.63115C6.43596 6.65294 6.39532 6.62337 6.40657 6.58765L6.49395 6.3116L6.26102 6.13957C6.23088 6.11726 6.2464 6.06949 6.2839 6.06916L6.57345 6.06696L6.66504 5.79227C6.6769 5.75674 6.72715 5.75674 6.73901 5.79227Z" fill="#F5F5F5"/>
<path d="M6.73901 7.22786L6.8306 7.50254L7.12015 7.50474C7.15765 7.50507 7.17316 7.55289 7.14302 7.57515L6.9101 7.74718L6.99748 8.02323C7.00882 8.05895 6.96809 8.08857 6.93757 8.06673L6.70202 7.89835L6.46648 8.06673C6.43596 8.08852 6.39532 8.05899 6.40657 8.02323L6.49395 7.74718L6.26102 7.57515C6.23088 7.55284 6.2464 7.50507 6.2839 7.50474L6.57345 7.50254L6.66504 7.22786C6.6769 7.19228 6.72715 7.19228 6.73901 7.22786Z" fill="#F5F5F5"/>
<path d="M6.73901 8.66536L6.8306 8.94004L7.12015 8.94225C7.15765 8.94257 7.17316 8.99039 7.14302 9.01265L6.9101 9.18468L6.99748 9.46073C7.00882 9.49645 6.96809 9.52607 6.93757 9.50423L6.70202 9.33585L6.46648 9.50423C6.43596 9.52603 6.39532 9.49645 6.40657 9.46073L6.49395 9.18468L6.26102 9.01265C6.23088 8.99034 6.2464 8.94257 6.2839 8.94225L6.57345 8.94004L6.66504 8.66536C6.6769 8.62978 6.72715 8.62978 6.73901 8.66536Z" fill="#F5F5F5"/>
<path d="M6.73901 10.1028L6.8306 10.3775L7.12015 10.3797C7.15765 10.38 7.17316 10.4279 7.14302 10.4501L6.9101 10.6221L6.99748 10.8982C7.00882 10.9339 6.96809 10.9635 6.93757 10.9417L6.70202 10.7733L6.46648 10.9417C6.43596 10.9635 6.39532 10.9339 6.40657 10.8982L6.49395 10.6221L6.26102 10.4501C6.23088 10.4278 6.2464 10.38 6.2839 10.3797L6.57345 10.3775L6.66504 10.1028C6.6769 10.0673 6.72715 10.0673 6.73901 10.1028Z" fill="#F5F5F5"/>
<path d="M7.85424 5.08723L7.94584 5.36192L8.23538 5.36412C8.27288 5.36445 8.2884 5.41226 8.25826 5.43453L8.02534 5.60656L8.11271 5.8826C8.12406 5.91832 8.08332 5.94795 8.05281 5.9261L7.81726 5.75773L7.58171 5.9261C7.5512 5.9479 7.51056 5.91832 7.52181 5.8826L7.60918 5.60656L7.37626 5.43453C7.34612 5.41221 7.36163 5.36445 7.39913 5.36412L7.68868 5.36192L7.78027 5.08723C7.79204 5.05165 7.84238 5.05165 7.85424 5.08723Z" fill="#F5F5F5"/>
<path d="M7.85424 6.5247L7.94584 6.79938L8.23538 6.80159C8.27288 6.80191 8.2884 6.84973 8.25826 6.87199L8.02534 7.04402L8.11271 7.32007C8.12406 7.35579 8.08332 7.38541 8.05281 7.36357L7.81726 7.19519L7.58171 7.36357C7.5512 7.38537 7.51056 7.35579 7.52181 7.32007L7.60918 7.04402L7.37626 6.87199C7.34612 6.84968 7.36163 6.80191 7.39913 6.80159L7.68868 6.79938L7.78027 6.5247C7.79204 6.48916 7.84238 6.48916 7.85424 6.5247Z" fill="#F5F5F5"/>
<path d="M7.85424 7.96024L7.94584 8.23493L8.23538 8.23713C8.27288 8.23746 8.2884 8.28527 8.25826 8.30754L8.02534 8.47957L8.11271 8.75562C8.12406 8.79134 8.08332 8.82096 8.05281 8.79912L7.81726 8.63074L7.58171 8.79912C7.5512 8.82091 7.51056 8.79134 7.52181 8.75562L7.60918 8.47957L7.37626 8.30754C7.34612 8.28523 7.36163 8.23746 7.39913 8.23713L7.68868 8.23493L7.78027 7.96024C7.79204 7.92471 7.84238 7.92471 7.85424 7.96024Z" fill="#F5F5F5"/>
<path d="M7.85424 9.39778L7.94584 9.67246L8.23538 9.67467C8.27288 9.675 8.2884 9.72281 8.25826 9.74507L8.02534 9.9171L8.11271 10.1932C8.12406 10.2289 8.08332 10.2585 8.05281 10.2367L7.81726 10.0683L7.58171 10.2367C7.5512 10.2584 7.51056 10.2289 7.52181 10.1932L7.60918 9.9171L7.37626 9.74507C7.34612 9.72276 7.36163 9.675 7.39913 9.67467L7.68868 9.67246L7.78027 9.39778C7.79204 9.3622 7.84238 9.3622 7.85424 9.39778Z" fill="#F5F5F5"/>
<path d="M7.85424 10.8353L7.94584 11.11L8.23538 11.1122C8.27288 11.1125 8.2884 11.1603 8.25826 11.1826L8.02534 11.3546L8.11271 11.6307C8.12406 11.6664 8.08332 11.696 8.05281 11.6742L7.81726 11.5058L7.58171 11.6742C7.5512 11.696 7.51056 11.6664 7.52181 11.6307L7.60918 11.3546L7.37626 11.1826C7.34612 11.1603 7.36163 11.1125 7.39913 11.1122L7.68868 11.11L7.78027 10.8353C7.79204 10.7997 7.84238 10.7997 7.85424 10.8353Z" fill="#F5F5F5"/>
<path d="M8.96948 5.79227L9.06107 6.06696L9.35062 6.06916C9.38812 6.06949 9.40363 6.1173 9.37349 6.13957L9.14057 6.3116L9.22794 6.58765C9.23929 6.62337 9.19855 6.65299 9.16804 6.63115L8.93249 6.46277L8.69695 6.63115C8.66643 6.65294 8.62579 6.62337 8.63704 6.58765L8.72441 6.3116L8.49149 6.13957C8.46135 6.11726 8.47687 6.06949 8.51437 6.06916L8.80391 6.06696L8.89551 5.79227C8.90732 5.75674 8.95766 5.75674 8.96948 5.79227Z" fill="#F5F5F5"/>
<path d="M8.96948 7.22786L9.06107 7.50254L9.35062 7.50474C9.38812 7.50507 9.40363 7.55289 9.37349 7.57515L9.14057 7.74718L9.22794 8.02323C9.23929 8.05895 9.19855 8.08857 9.16804 8.06673L8.93249 7.89835L8.69695 8.06673C8.66643 8.08852 8.62579 8.05899 8.63704 8.02323L8.72441 7.74718L8.49149 7.57515C8.46135 7.55284 8.47687 7.50507 8.51437 7.50474L8.80391 7.50254L8.89551 7.22786C8.90732 7.19228 8.95766 7.19228 8.96948 7.22786Z" fill="#F5F5F5"/>
<path d="M8.96948 8.66536L9.06107 8.94004L9.35062 8.94225C9.38812 8.94257 9.40363 8.99039 9.37349 9.01265L9.14057 9.18468L9.22794 9.46073C9.23929 9.49645 9.19855 9.52607 9.16804 9.50423L8.93249 9.33585L8.69695 9.50423C8.66643 9.52603 8.62579 9.49645 8.63704 9.46073L8.72441 9.18468L8.49149 9.01265C8.46135 8.99034 8.47687 8.94257 8.51437 8.94225L8.80391 8.94004L8.89551 8.66536C8.90732 8.62978 8.95766 8.62978 8.96948 8.66536Z" fill="#F5F5F5"/>
<path d="M8.96948 10.1028L9.06107 10.3775L9.35062 10.3797C9.38812 10.38 9.40363 10.4279 9.37349 10.4501L9.14057 10.6221L9.22794 10.8982C9.23929 10.9339 9.19855 10.9635 9.16804 10.9417L8.93249 10.7733L8.69695 10.9417C8.66643 10.9635 8.62579 10.9339 8.63704 10.8982L8.72441 10.6221L8.49149 10.4501C8.46135 10.4278 8.47687 10.38 8.51437 10.3797L8.80391 10.3775L8.89551 10.1028C8.90732 10.0673 8.95766 10.0673 8.96948 10.1028Z" fill="#F5F5F5"/>
<path d="M10.0847 5.08723L10.1763 5.36192L10.4659 5.36412C10.5034 5.36445 10.5189 5.41226 10.4887 5.43453L10.2558 5.60656L10.3432 5.8826C10.3545 5.91832 10.3138 5.94795 10.2833 5.9261L10.0477 5.75773L9.81218 5.9261C9.78167 5.9479 9.74102 5.91832 9.75227 5.8826L9.83965 5.60656L9.60673 5.43453C9.57659 5.41221 9.5921 5.36445 9.6296 5.36412L9.91915 5.36192L10.0107 5.08723C10.0226 5.05165 10.0728 5.05165 10.0847 5.08723Z" fill="#F5F5F5"/>
<path d="M10.0847 6.5247L10.1763 6.79938L10.4659 6.80159C10.5034 6.80191 10.5189 6.84973 10.4887 6.87199L10.2558 7.04402L10.3432 7.32007C10.3545 7.35579 10.3138 7.38541 10.2833 7.36357L10.0477 7.19519L9.81218 7.36357C9.78167 7.38537 9.74102 7.35579 9.75227 7.32007L9.83965 7.04402L9.60673 6.87199C9.57659 6.84968 9.5921 6.80191 9.6296 6.80159L9.91915 6.79938L10.0107 6.5247C10.0226 6.48916 10.0728 6.48916 10.0847 6.5247Z" fill="#F5F5F5"/>
<path d="M10.0847 7.96024L10.1763 8.23493L10.4659 8.23713C10.5034 8.23746 10.5189 8.28527 10.4887 8.30754L10.2558 8.47957L10.3432 8.75562C10.3545 8.79134 10.3138 8.82096 10.2833 8.79912L10.0477 8.63074L9.81218 8.79912C9.78167 8.82091 9.74102 8.79134 9.75227 8.75562L9.83965 8.47957L9.60673 8.30754C9.57659 8.28523 9.5921 8.23746 9.6296 8.23713L9.91915 8.23493L10.0107 7.96024C10.0226 7.92471 10.0728 7.92471 10.0847 7.96024Z" fill="#F5F5F5"/>
<path d="M10.0847 9.39778L10.1763 9.67246L10.4659 9.67467C10.5034 9.675 10.5189 9.72281 10.4887 9.74507L10.2558 9.9171L10.3432 10.1932C10.3545 10.2289 10.3138 10.2585 10.2833 10.2367L10.0477 10.0683L9.81218 10.2367C9.78167 10.2584 9.74102 10.2289 9.75227 10.1932L9.83965 9.9171L9.60673 9.74507C9.57659 9.72276 9.5921 9.675 9.6296 9.67467L9.91915 9.67246L10.0107 9.39778C10.0226 9.3622 10.0728 9.3622 10.0847 9.39778Z" fill="#F5F5F5"/>
<path d="M10.0847 10.8353L10.1763 11.11L10.4659 11.1122C10.5034 11.1125 10.5189 11.1603 10.4887 11.1826L10.2558 11.3546L10.3432 11.6307C10.3545 11.6664 10.3138 11.696 10.2833 11.6742L10.0477 11.5058L9.81218 11.6742C9.78167 11.696 9.74102 11.6664 9.75227 11.6307L9.83965 11.3546L9.60673 11.1826C9.57659 11.1603 9.5921 11.1125 9.6296 11.1122L9.91915 11.11L10.0107 10.8353C10.0226 10.7997 10.0728 10.7997 10.0847 10.8353Z" fill="#F5F5F5"/>
</g>
<defs>
<clipPath id="clip0_959_39644">
<rect width="24" height="24" fill="white"/>
</clipPath>
</defs>
</svg>
