<svg width="84" height="84" viewBox="0 0 84 84" fill="none" xmlns="http://www.w3.org/2000/svg">
<path d="M46.2536 70.0838C45.884 70.8459 44.7938 70.8323 44.4434 70.0612L40.6923 61.8071C40.4485 61.2707 40.7193 60.6416 41.2725 60.4391C44.664 59.1981 47.9021 57.6788 50.9763 55.9512C51.8517 55.4592 52.8878 56.4019 52.4497 57.3055L46.2536 70.0838ZM22.3287 42.7523C22.1159 43.2635 21.5337 43.5158 21.0194 43.3108L12.2555 39.8179C11.4261 39.4873 11.4128 38.3181 12.2344 37.9687L25.7632 32.2155C26.6927 31.8202 27.5878 32.9181 27.0451 33.77C25.2309 36.6177 23.6348 39.615 22.3287 42.7523ZM71.9353 14.508C71.8458 14.2676 71.6569 14.0854 71.4132 14.0053C68.9586 13.198 54.7336 9.44353 38.6777 24.4825C31.8437 30.8824 27.7558 37.9253 25.1034 44.0915C24.2296 46.2833 24.8225 48.6796 26.5388 50.3161L33.1856 56.5115C34.9018 58.148 37.4607 58.674 39.8011 57.8558C47.6603 55.0495 54.7963 50.7171 60.7399 45.1435C76.7474 30.1525 72.813 16.8659 71.9353 14.508ZM49.7244 34.7984C47.2904 32.5189 47.2904 28.8076 49.7244 26.5281C52.1584 24.2487 56.1215 24.2487 58.5555 26.5281C60.9583 28.8076 60.9895 32.5189 58.5555 34.7984C56.1215 37.0778 52.1584 37.0778 49.7244 34.7984ZM23.4288 71.4447C23.6827 71.4447 23.9271 71.3482 24.1124 71.1747L33.8396 62.0652C34.4184 61.5232 34.1688 60.5323 33.4473 60.2036C33.239 60.1087 33.0335 60.0063 32.8314 59.8964C32.4256 59.6757 31.9185 59.7151 31.5817 60.0313L21.2658 69.7157C20.6051 70.3359 21.0441 71.4447 21.9503 71.4447H23.4288ZM10.5929 70.4447C10.5929 70.997 11.0406 71.4447 11.5929 71.4447H14.5983C14.8518 71.4447 15.0959 71.3485 15.2811 71.1754L29.094 58.2668C29.5177 57.8708 29.5169 57.1987 29.0922 56.8038L26.13 54.0493C25.7452 53.6914 25.1491 53.6925 24.7655 54.0517L10.9094 67.0279C10.7075 67.2169 10.5929 67.4812 10.5929 67.7578V70.4447ZM10.5929 60.8718C10.5929 61.7464 11.6365 62.1996 12.2756 61.6025L22.7011 51.863C23.0738 51.5148 23.1187 50.9452 22.8546 50.5089C22.7452 50.3283 22.6432 50.145 22.5486 49.9589C22.2075 49.2881 21.2917 49.0346 20.7424 49.549L10.9094 58.7576C10.7075 58.9467 10.5929 59.2109 10.5929 59.4875V60.8718Z" fill="white"/>
</svg>
