<svg fill="none" xmlns="http://www.w3.org/2000/svg" viewBox="0 0 34 34"><g filter="url(#a)"><path fill-rule="evenodd" clip-rule="evenodd" d="M17 1c7.732 0 14 6.268 14 14s-6.268 14-14 14S3 22.732 3 15 9.268 1 17 1Zm-5 21.5-.51-.68a.85.85 0 0 0 1.02 1.36l-.002.001.01-.006c.01-.007.026-.02.05-.036.05-.033.126-.083.229-.145A8.385 8.385 0 0 1 17 21.85c1.358 0 2.494.34 3.29.681.398.17.707.34.913.463a5.041 5.041 0 0 1 .28.18l.009.007h-.001a.85.85 0 0 0 1.019-1.361l-.503.671.502-.671-.001-.002-.003-.002-.009-.006-.025-.018a6.596 6.596 0 0 0-.393-.255 9.313 9.313 0 0 0-1.118-.568A10.084 10.084 0 0 0 17 20.15c-1.642 0-3.007.41-3.96.819-.477.204-.855.41-1.118.568a6.596 6.596 0 0 0-.393.255l-.025.018-.009.006-.003.002v.001h-.002l.51.681Zm9.49.68h.001Zm-9.157-12.847c-.966 0-1.75 1.044-1.75 2.333 0 1.289.784 2.333 1.75 2.333.967 0 1.75-1.044 1.75-2.333 0-1.289-.783-2.333-1.75-2.333Zm9.334 0c-.967 0-1.75 1.044-1.75 2.333 0 1.289.783 2.333 1.75 2.333.966 0 1.75-1.044 1.75-2.333 0-1.289-.784-2.333-1.75-2.333Z" fill="#F57DA8"/></g><defs><filter id="a" x="0" y="0" width="34" height="34" filterUnits="userSpaceOnUse" colorInterpolationFilters="sRGB"><feFlood floodOpacity="0" result="BackgroundImageFix"/><feColorMatrix in="SourceAlpha" values="0 0 0 0 0 0 0 0 0 0 0 0 0 0 0 0 0 0 127 0" result="hardAlpha"/><feOffset dy="2"/><feGaussianBlur stdDeviation="1.5"/><feComposite in2="hardAlpha" operator="out"/><feColorMatrix values="0 0 0 0 0.858458 0 0 0 0 0.754687 0 0 0 0 0.791871 0 0 0 0.8 0"/><feBlend in2="BackgroundImageFix" result="effect1_dropShadow_2435_9990"/><feBlend in="SourceGraphic" in2="effect1_dropShadow_2435_9990" result="shape"/></filter></defs></svg>