<svg xmlns="http://www.w3.org/2000/svg" width="20" height="20" fill="none"><path d="M10.16 1.79c2.2 0 4.06.78 5.5 2.07l.1.1-2.36 2.31a4.64 4.64 0 0 0-3.24-1.24 5.06 5.06 0 0 0-5.04 5.13c0 .58.1 1.14.28 1.66a5.04 5.04 0 0 0 4.76 3.48 5 5 0 0 0 2.82-.77l.09-.07.1-.07c1.01-.76 1.49-1.82 1.6-2.56l.01-.08h-4.62V8.64h7.87c.12.52.18 1.02.18 1.71a8.2 8.2 0 0 1-2.5 6.16 7.99 7.99 0 0 1-5.55 2.03 8.37 8.37 0 0 1-7.42-4.49l-.06-.13-.08-.16a8.38 8.38 0 0 1 0-7.2l.08-.16.06-.12a8.37 8.37 0 0 1 7.42-4.5Z" fill="#E9E34F"/></svg>