<svg width="16" height="16" viewBox="0 0 16 16" fill="none" xmlns="http://www.w3.org/2000/svg">
<path fill-rule="evenodd" clip-rule="evenodd" d="M8.00492 0.107422C9.98717 0.107422 11.6518 0.814565 12.9446 1.97299L13.0485 2.06782L10.9206 4.14553C10.3758 3.63446 9.42081 3.02278 8.00524 3.02278C6.01109 3.02278 4.31845 4.33839 3.70709 6.15639C3.55602 6.62567 3.46409 7.12807 3.46409 7.64782C3.46409 8.16692 3.55634 8.66996 3.71545 9.13892C4.31877 10.9569 6.01109 12.2722 8.00492 12.2722C9.08074 12.2722 9.91034 11.9874 10.5381 11.5728L10.6188 11.5181L10.7175 11.4468C11.6216 10.7692 12.0494 9.81264 12.151 9.14246L12.1607 9.07174H8.00459V6.27371H15.0841C15.193 6.74299 15.2432 7.19524 15.2432 7.81496C15.2432 10.1106 14.4222 12.0459 12.998 13.3612C11.7496 14.5174 10.0405 15.1876 8.00459 15.1876C5.10177 15.1876 2.58852 13.5476 1.32788 11.1472L1.26874 11.0321L1.19738 10.8852C0.715626 9.87384 0.465379 8.76777 0.464844 7.64749C0.464844 6.49035 0.730665 5.39428 1.1977 4.40974L1.26906 4.26285L1.3282 4.1481C2.58884 1.74671 5.10177 0.107422 8.00492 0.107422Z" fill="white"/>
</svg>
