<svg width="32" height="32" viewBox="0 0 32 32" fill="none" xmlns="http://www.w3.org/2000/svg">
	<path
		d="M16.16 20.6267C16.8267 17.9733 19.4933 16 22.6667 16C26.3467 16 29.3333 18.6533 29.3333 21.92C26.7067 22.52 24.4133 22.6667 22.6667 22.6667C20.7333 22.6667 19.0267 22.48 17.6 22.24C17.2133 21.64 16.7333 21.0933 16.16 20.6267Z"
		stroke="currentColor" stroke-miterlimit="10" stroke-linecap="round" stroke-linejoin="round" />
	<path
		d="M22.6667 11.9999C24.5076 11.9999 26 10.5075 26 8.66659C26 6.82564 24.5076 5.33325 22.6667 5.33325C20.8257 5.33325 19.3333 6.82564 19.3333 8.66659C19.3333 10.5075 20.8257 11.9999 22.6667 11.9999Z"
		stroke="currentColor" stroke-miterlimit="10" stroke-linecap="round" stroke-linejoin="round" />
	<path
		d="M18.6667 25.7734C15.52 26.4934 12.76 26.6667 10.6667 26.6667C7.42667 26.6667 4.69334 26.2401 2.66667 25.7734C2.66667 21.8534 6.25334 18.6667 10.6667 18.6667C15.08 18.6667 18.6667 21.8534 18.6667 25.7734Z"
		stroke="currentColor" stroke-miterlimit="10" stroke-linecap="round" stroke-linejoin="round" />
	<path
		d="M10.6667 14.6667C12.8758 14.6667 14.6667 12.8759 14.6667 10.6667C14.6667 8.45761 12.8758 6.66675 10.6667 6.66675C8.45754 6.66675 6.66667 8.45761 6.66667 10.6667C6.66667 12.8759 8.45754 14.6667 10.6667 14.6667Z"
		stroke="currentColor" stroke-miterlimit="10" stroke-linecap="round" stroke-linejoin="round" />
</svg>