<svg width="21" height="17" fill="none" xmlns="http://www.w3.org/2000/svg"><path d="M9.167 3.667c0 1.222-1.223 3.666-3.667 3.666S1.833 5.466 1.833 3.667C1.833 1.222 3.863 0 5.5 0c1.636 0 3.667 1.222 3.667 3.667Z" fill="#FAC372"/><path d="m11 14.666-.615-3.279a4.97 4.97 0 0 0-9.77 0L0 14.667h11Z" fill="#FAC372"/><path d="M18.333 5.5c0 1.222-1.222 3.666-3.666 3.666C12.222 9.166 11 7.3 11 5.5c0-2.445 2.03-3.667 3.667-3.667 1.636 0 3.666 1.222 3.666 3.667Z" fill="#4E88C7"/><path d="m20.167 16.5-.615-3.279a4.97 4.97 0 0 0-9.77 0l-.615 3.28h11Z" fill="#4E88C7"/></svg>