<svg width="23" height="16" viewBox="0 0 23 16" fill="none" xmlns="http://www.w3.org/2000/svg">
<path d="M6.58846 6.75C6.58846 7.66671 5.70994 9.5 3.95304 9.5C2.19614 9.5 1.31763 8.0997 1.31763 6.75C1.31763 4.91671 2.77712 4 3.95304 4C5.12897 4 6.58846 4.91671 6.58846 6.75Z" fill="#B788DC"/>
<path d="M7.90625 15L7.46429 12.5408C7.14751 10.7777 5.67221 9.5 3.95312 9.5C2.23404 9.5 0.758736 10.7777 0.441959 12.5408L0 15H7.90625Z" fill="#B788DC"/>
<path d="M10.5052 3.75C10.5052 4.66667 9.62669 6.5 7.86979 6.5C6.11289 6.5 5.23438 5.09966 5.23438 3.75C5.23438 1.91667 6.69387 1 7.86979 1C9.04571 1 10.5052 1.91667 10.5052 3.75Z" fill="#5BBBA9"/>
<path d="M11.823 12L11.381 9.54076C11.0643 7.77764 9.58896 6.5 7.86987 6.5C6.15079 6.5 4.67546 7.77764 4.35864 9.54076L3.91675 12H11.823Z" fill="#5BBBA9"/>
<path d="M21.5885 6.75C21.5885 7.66671 20.7099 9.5 18.953 9.5C17.1961 9.5 16.3176 8.0997 16.3176 6.75C16.3176 4.91671 17.7771 4 18.953 4C20.129 4 21.5885 4.91671 21.5885 6.75Z" fill="#ED7370"/>
<path d="M22.9062 15L22.4643 12.5408C22.1475 10.7777 20.6722 9.5 18.9531 9.5C17.234 9.5 15.7587 10.7777 15.4419 12.5408L15 15H22.9062Z" fill="#ED7370"/>
<path d="M17.6927 4.125C17.6927 5.04171 16.8142 6.875 15.0573 6.875C13.3004 6.875 12.4219 5.4747 12.4219 4.125C12.4219 2.29171 13.8813 1.375 15.0573 1.375C16.2333 1.375 17.6927 2.29171 17.6927 4.125Z" fill="#4E88C7"/>
<path d="M19.0105 12.375L18.5686 9.91581C18.2518 8.15265 16.7765 6.875 15.0574 6.875C13.3383 6.875 11.863 8.15265 11.5461 9.91581L11.1042 12.375H19.0105Z" fill="#4E88C7"/>
<path d="M14.297 7.75C14.297 8.66671 13.4184 10.5 11.6615 10.5C9.90464 10.5 9.02612 9.0997 9.02612 7.75C9.02612 5.91671 10.4856 5 11.6615 5C12.8375 5 14.297 5.91671 14.297 7.75Z" fill="#FAC372"/>
<path d="M15.6145 16L15.1725 13.5408C14.8558 11.7777 13.3805 10.5 11.6614 10.5C9.94229 10.5 8.46699 11.7777 8.15021 13.5408L7.70825 16H15.6145Z" fill="#FAC372"/>
</svg>
