<svg width="23" height="16" fill="none" xmlns="http://www.w3.org/2000/svg"><path d="M6.588 6.75c0 .917-.878 2.75-2.635 2.75-1.757 0-2.635-1.4-2.635-2.75C1.318 4.917 2.778 4 3.953 4c1.176 0 2.635.917 2.635 2.75ZM7.906 15l-.442-2.46c-.316-1.762-1.792-3.04-3.51-3.04-1.72 0-3.195 1.278-3.512 3.04L0 15h7.906Z" fill="#B788DC"/><path d="M10.505 3.75c0 .917-.878 2.75-2.635 2.75-1.757 0-2.636-1.4-2.636-2.75C5.234 1.917 6.694 1 7.87 1c1.176 0 2.635.917 2.635 2.75ZM11.823 12l-.442-2.46C11.064 7.779 9.589 6.5 7.87 6.5c-1.72 0-3.195 1.278-3.511 3.04L3.917 12h7.906Z" fill="#5BBBA9"/><path d="M21.588 6.75c0 .917-.878 2.75-2.635 2.75-1.757 0-2.635-1.4-2.635-2.75 0-1.833 1.46-2.75 2.635-2.75 1.176 0 2.636.917 2.636 2.75ZM22.906 15l-.442-2.46c-.316-1.762-1.792-3.04-3.51-3.04-1.72 0-3.195 1.278-3.512 3.04L15 15h7.906Z" fill="#ED7370"/><path d="M17.693 4.125c0 .917-.879 2.75-2.636 2.75-1.757 0-2.635-1.4-2.635-2.75 0-1.833 1.46-2.75 2.635-2.75 1.176 0 2.636.917 2.636 2.75Z" fill="#4E88C7"/><path d="m19.01 12.375-.441-2.46c-.317-1.762-1.793-3.04-3.512-3.04s-3.194 1.278-3.51 3.04l-.443 2.46h7.907Z" fill="#4E88C7"/><path d="M14.297 7.75c0 .917-.879 2.75-2.636 2.75-1.756 0-2.635-1.4-2.635-2.75 0-1.833 1.46-2.75 2.636-2.75 1.175 0 2.635.917 2.635 2.75ZM15.614 16l-.442-2.46c-.316-1.762-1.792-3.04-3.51-3.04-1.72 0-3.195 1.278-3.512 3.04L7.708 16h7.906Z" fill="#FAC372"/></svg>