<svg width="24" height="15" fill="none" xmlns="http://www.w3.org/2000/svg"><path d="M8.75 3.3c0 1.1-1.1 3.3-3.3 3.3-2.2 0-3.3-1.68-3.3-3.3 0-2.2 1.827-3.3 3.3-3.3 1.472 0 3.3 1.1 3.3 3.3Z" fill="#FAC372"/><path d="m10.4 13.2-.553-2.951a4.473 4.473 0 0 0-8.794 0L.5 13.198h9.9Z" fill="#FAC372"/><path d="M21.95 3.6c0 1.1-1.1 3.3-3.3 3.3-2.2 0-3.3-1.68-3.3-3.3 0-2.2 1.828-3.3 3.3-3.3 1.473 0 3.3 1.1 3.3 3.3Z" fill="#5BBBA9"/><path d="m23.6 13.5-.553-2.95a4.473 4.473 0 0 0-8.794 0L13.7 13.5h9.9Z" fill="#5BBBA9"/><path d="M15.35 4.95c0 1.1-1.1 3.3-3.3 3.3-2.2 0-3.3-1.68-3.3-3.3 0-2.2 1.828-3.3 3.3-3.3 1.473 0 3.3 1.1 3.3 3.3Z" fill="#4E88C7"/><path d="m17 14.85-.553-2.951a4.473 4.473 0 0 0-8.794 0L7.1 14.85H17Z" fill="#4E88C7"/></svg>