<svg width="22" height="17" fill="none" xmlns="http://www.w3.org/2000/svg"><path d="M6.875 3.75c0 .917-.917 2.75-2.75 2.75s-2.75-1.4-2.75-2.75C1.375 1.917 2.898 1 4.125 1s2.75.917 2.75 2.75Z" fill="#5BBBA9"/><path d="m8.25 12-.461-2.46a3.728 3.728 0 0 0-7.328 0L0 12h8.25Z" fill="#5BBBA9"/><path d="M19.875 6.875c0 .917-.917 2.75-2.75 2.75s-2.75-1.4-2.75-2.75c0-1.833 1.523-2.75 2.75-2.75s2.75.917 2.75 2.75Z" fill="#ED7370"/><path d="m21.25 15.125-.461-2.46a3.728 3.728 0 0 0-7.328 0L13 15.126h8.25Z" fill="#ED7370"/><path d="M14.375 3.125c0 .917-.917 2.75-2.75 2.75s-2.75-1.4-2.75-2.75c0-1.833 1.523-2.75 2.75-2.75s2.75.917 2.75 2.75Z" fill="#4E88C7"/><path d="m15.75 11.375-.461-2.46a3.728 3.728 0 0 0-7.328 0l-.461 2.46h8.25Z" fill="#4E88C7"/><path d="M11.25 8.25c0 .917-.917 2.75-2.75 2.75S5.75 9.6 5.75 8.25c0-1.833 1.523-2.75 2.75-2.75s2.75.917 2.75 2.75Z" fill="#FAC372"/><path d="m12.625 16.5-.461-2.46a3.728 3.728 0 0 0-7.328 0l-.461 2.46h8.25Z" fill="#FAC372"/></svg>