<svg fill="none" xmlns="http://www.w3.org/2000/svg" viewBox="0 0 20 22"><path d="M9.213 10.995V2.629a1.63 1.63 0 0 1 3.263 0v8.366-6.867a1.63 1.63 0 0 1 3.262 0v6.867h.01V7.527c0-.84.73-1.53 1.63-1.53.892 0 1.622.69 1.622 1.53v7.976C19 18.55 16.388 21 13.136 21h-1.381a6.173 6.173 0 0 1-3.583-1.15l-6.684-6.176c-.65-.61-.65-1.66 0-2.27.65-.609 1.631-.479 2.281.13l2.182 1.98V5.028c0-.84.73-1.53 1.631-1.53.9 0 1.631.69 1.631 1.53v6.047" stroke="currentColor" strokeLinecap="round" strokeLinejoin="round"/></svg>