<svg fill="none" xmlns="http://www.w3.org/2000/svg" viewBox="0 0 18 24"><path d="M4.4 1.5h8.95c.88 0 1.68.3 2.26.8.58.5.94 1.17.94 1.92V19.75c0 .75-.36 1.43-.94 1.92-.58.5-1.38.8-2.26.8H4.4a3.5 3.5 0 0 1-2.26-.8 2.53 2.53 0 0 1-.94-1.92V4.22c0-.75.36-1.43.94-1.92a3.5 3.5 0 0 1 2.26-.8Zm.2 5.9c-.22-.2-.2-.51.02-.7.23-.18.6-.18.82.02L8.3 9.3V2.48H4.4c-.56 0-1.07.2-1.44.51-.37.32-.6.76-.6 1.23v13.25H15.4V4.22c0-.47-.23-.91-.6-1.23a2.23 2.23 0 0 0-1.45-.5h-3.9v6.8l2.87-2.57c.22-.2.58-.2.81-.02.24.19.25.5.03.7L9.3 10.86l-.03.02a.65.65 0 0 1-.81-.02L4.6 7.39Zm10.8 11.05H2.36v1.3c0 .48.23.91.6 1.23.37.31.88.5 1.45.5h8.94c.56 0 1.08-.19 1.45-.5.37-.32.6-.75.6-1.23v-1.3Z" fill="currentColor"/></svg>