<svg fill="none" xmlns="http://www.w3.org/2000/svg" viewBox="0 0 36 38"><path d="m22.4655 5.80161-.558-4.41c-.054-.45-.432-.792-.9-.792h-5.598c-.45 0-.846.342-.9.792l-.486 3.87c-.036.324-.27.612-.576.72-1.512.558-2.952 1.422-4.19399 2.538l-4.104-1.728c-.414-.18-.9-.018-1.134.378l-2.808 4.85999c-.216.396-.108.9.252 1.17l3.546 2.682c-.378 1.818-.378 3.672-.018 5.436h.018l-3.546 2.682c-.36.27-.468.774-.234 1.17l2.808 4.86c.234.396.72.558 1.134.378l4.104-1.728-.018.018c.666.594 1.42199 1.134 2.23199 1.602.81.468 1.638.846 2.502 1.134v-.036l.558 4.41c.018.45.414.792.864.792h5.616c.45 0 .828-.342.9-.792l.486-3.87c.036-.324.27-.612.576-.72 1.512-.558 2.952-1.422 4.194-2.538l4.104 1.728c.414.18.9.018 1.134-.378l2.808-4.86c.234-.396.126-.9-.234-1.17l-3.546-2.682c.378-1.818.378-3.672.018-5.436h-.018l3.51-2.682c.36-.27.468-.774.234-1.17l-2.808-4.85999c-.234-.396-.72-.558-1.134-.378l-4.086 1.728.018-.018c-.666-.594-1.422-1.134-2.232-1.602-.81-.468-1.638-.846-2.502-1.134" stroke="#fff" stroke-width=".9" stroke-miterlimit="10" stroke-linecap="round" stroke-linejoin="round"/><path d="M18.2171 25.7997c3.9764 0 7.2-3.2237 7.2-7.2 0-3.9765-3.2236-7.2-7.2-7.2-3.9765 0-7.2 3.2235-7.2 7.2 0 3.9763 3.2235 7.2 7.2 7.2Z" stroke="#fff" stroke-width=".9" stroke-miterlimit="10" stroke-linecap="round" stroke-linejoin="round"/></svg>