<svg width="24" height="24" viewBox="0 0 24 24" fill="none" xmlns="http://www.w3.org/2000/svg">
    <path
        d="M12.0821 2.14258C8.56206 2.14258 5.7159 4.98556 5.7159 8.50535V8.50623C5.72652 10.5734 6.73879 12.4924 8.40702 13.6716C8.82847 13.9695 9.12058 14.4417 9.12058 14.996V15.8936H15.0437V14.996C15.0437 14.4417 15.3358 13.9695 15.7572 13.6716C17.4255 12.4924 18.4369 10.5734 18.4475 8.50623C18.4475 4.98602 15.6025 2.14258 12.0821 2.14258ZM9.09037 16.7782C8.70626 16.7783 8.43984 17.0456 8.43984 17.3571C8.43984 17.6686 8.70626 17.9368 9.09037 17.9368H9.77112H14.3922H15.0739C15.458 17.9368 15.7244 17.6686 15.7244 17.3571C15.7244 17.0456 15.458 16.7782 15.0739 16.7782H9.09037ZM9.77112 18.8214C9.56061 18.8214 9.38041 18.8895 9.26921 18.9761C9.15818 19.0626 9.12058 19.146 9.12058 19.2292C9.12058 19.3124 9.15818 19.3966 9.26921 19.4832C9.38041 19.5697 9.56061 19.6387 9.77112 19.6387H10.7206H13.4437H14.3922C14.6028 19.6387 14.7829 19.5697 14.8942 19.4832C15.0052 19.3966 15.0437 19.3124 15.0437 19.2292C15.0437 19.146 15.0052 19.0626 14.8942 18.9761C14.7829 18.8895 14.6028 18.8214 14.3922 18.8214H9.77112ZM11.2735 20.5233C11.4282 20.8091 11.7302 21.0002 12.0821 21.0002C12.4341 21.0002 12.736 20.8091 12.8908 20.5233H11.2735Z"
        fill="#FFD43A" />
    <path
        d="M2.42671 8.20801C2.31357 8.20801 2.20506 8.25295 2.12506 8.33296C2.04505 8.41296 2.00011 8.52147 2.00011 8.63461C2.00011 8.74776 2.04505 8.85627 2.12506 8.93627C2.20506 9.01627 2.31357 9.06122 2.42671 9.06122H3.63363C3.74677 9.06122 3.85528 9.01627 3.93528 8.93627C4.01529 8.85627 4.06023 8.74776 4.06023 8.63461C4.06023 8.52147 4.01529 8.41296 3.93528 8.33296C3.85528 8.25295 3.74677 8.20801 3.63363 8.20801H2.42671Z"
        fill="#FFD43A" />
    <path
        d="M20.5288 8.20605C20.4157 8.20605 20.3071 8.251 20.2271 8.331C20.1471 8.41101 20.1022 8.51952 20.1022 8.63266C20.1022 8.7458 20.1471 8.85431 20.2271 8.93432C20.3071 9.01432 20.4157 9.05927 20.5288 9.05927H21.7357C21.8489 9.05927 21.9574 9.01432 22.0374 8.93432C22.1174 8.85431 22.1623 8.7458 22.1623 8.63266C22.1623 8.51952 22.1174 8.41101 22.0374 8.331C21.9574 8.251 21.8489 8.20605 21.7357 8.20605H20.5288Z"
        fill="#FFD43A" />
    <path
        d="M20.5288 8.20605C20.4157 8.20605 20.3071 8.251 20.2271 8.331C20.1471 8.41101 20.1022 8.51952 20.1022 8.63266C20.1022 8.7458 20.1471 8.85431 20.2271 8.93432C20.3071 9.01432 20.4157 9.05927 20.5288 9.05927H21.7357C21.8489 9.05927 21.9574 9.01432 22.0374 8.93432C22.1174 8.85431 22.1623 8.7458 22.1623 8.63266C22.1623 8.51952 22.1174 8.41101 22.0374 8.331C21.9574 8.251 21.8489 8.20605 21.7357 8.20605H20.5288Z"
        fill="#FFD43A" />
    <path
        d="M4.64751 2.00362C4.53482 2.01352 4.43067 2.06776 4.35797 2.15443C4.28532 2.24108 4.25003 2.35303 4.25988 2.46567C4.26972 2.57832 4.32388 2.68245 4.41046 2.75518L5.33492 3.53091C5.37783 3.56695 5.42743 3.59418 5.48087 3.61104C5.53431 3.62791 5.59055 3.63409 5.64638 3.62921C5.70221 3.62434 5.75653 3.60851 5.80624 3.58264C5.85595 3.55676 5.90008 3.52135 5.93609 3.47841C5.97213 3.4355 5.99936 3.38591 6.01623 3.33246C6.0331 3.27902 6.03927 3.22278 6.03439 3.16696C6.02952 3.11113 6.01369 3.05681 5.98782 3.0071C5.96195 2.95739 5.92653 2.91327 5.8836 2.87725L4.95914 2.10152C4.91618 2.06553 4.86654 2.03836 4.81307 2.02156C4.7596 2.00477 4.70334 1.99867 4.64751 2.00362Z"
        fill="#FFD43A" />
    <path
        d="M5.64855 13.6403C5.53595 13.6304 5.42402 13.6656 5.33736 13.7382L4.83409 14.1606L4.41291 14.5139C4.36994 14.5499 4.33449 14.594 4.30858 14.6437C4.28267 14.6934 4.2668 14.7477 4.26189 14.8036C4.25697 14.8594 4.26311 14.9156 4.27994 14.9691C4.29677 15.0225 4.32397 15.0722 4.35998 15.1151C4.396 15.158 4.44013 15.1934 4.48984 15.2193C4.53955 15.2452 4.59387 15.261 4.6497 15.2659C4.70552 15.2708 4.76177 15.2646 4.81521 15.2477C4.86865 15.2309 4.91824 15.2036 4.96116 15.1676L5.38235 14.8143L5.88562 14.3919C5.9722 14.3191 6.02636 14.215 6.0362 14.1024C6.04604 13.9897 6.01076 13.8778 5.93811 13.7911C5.8654 13.7044 5.76125 13.6502 5.64855 13.6403Z"
        fill="#FFD43A" />
    <path
        d="M19.2023 2.09992L18.2779 2.87565C18.1913 2.94838 18.1371 3.05251 18.1273 3.16516C18.1175 3.2778 18.1527 3.38975 18.2254 3.47639C18.2981 3.56303 18.4022 3.61728 18.5148 3.6272C18.6275 3.63712 18.7394 3.60191 18.8261 3.5293L19.7506 2.75358C19.7936 2.71759 19.829 2.67349 19.8549 2.6238C19.8808 2.5741 19.8967 2.51979 19.9016 2.46396C19.9065 2.40813 19.9004 2.35188 19.8836 2.29843C19.8667 2.24497 19.8395 2.19535 19.8035 2.15241C19.7675 2.10948 19.7234 2.07407 19.6737 2.04819C19.6239 2.02232 19.5696 2.00649 19.5138 2.00162C19.458 1.99674 19.4017 2.00292 19.3483 2.01978C19.2948 2.03665 19.2453 2.06388 19.2023 2.09992Z"
        fill="#FFD43A" />
    <path
        d="M18.8283 13.7362C18.7854 13.7001 18.7358 13.6729 18.6824 13.656C18.6289 13.6391 18.5727 13.633 18.5169 13.6378C18.461 13.6427 18.4067 13.6585 18.357 13.6844C18.3073 13.7103 18.2632 13.7457 18.2271 13.7886C18.1911 13.8316 18.1639 13.8812 18.147 13.9346C18.1301 13.988 18.124 14.0443 18.1288 14.1001C18.1337 14.1559 18.1495 14.2102 18.1754 14.26C18.2013 14.3097 18.2367 14.3538 18.2796 14.3898L19.2041 15.1655C19.247 15.2016 19.2966 15.2288 19.35 15.2457C19.4035 15.2625 19.4597 15.2687 19.5156 15.2638C19.5714 15.259 19.6257 15.2431 19.6754 15.2173C19.7251 15.1914 19.7692 15.156 19.8053 15.113C19.8413 15.0701 19.8685 15.0205 19.8854 14.9671C19.9023 14.9137 19.9084 14.8574 19.9036 14.8016C19.8987 14.7458 19.8829 14.6914 19.857 14.6417C19.8311 14.592 19.7957 14.5479 19.7528 14.5119L18.8283 13.7362Z"
        fill="#FFD43A" />
</svg>
    