<svg width="20" height="20" viewBox="0 0 20 20" fill="none" xmlns="http://www.w3.org/2000/svg">
<path d="M7.29526 10.9836L7.29524 10.9836C6.03637 10.0938 5.27234 8.64508 5.26392 7.08518C5.26461 4.42893 7.41207 2.28386 10.0694 2.28386C12.7268 2.28386 14.8735 4.42915 14.8742 7.08592C14.8657 8.64587 14.1024 10.0938 12.8435 10.9836L12.8435 10.9836C12.3803 11.311 12.0375 11.8477 12.0375 12.4956V12.7437H8.10131V12.4956C8.10131 11.8477 7.75844 11.311 7.29526 10.9836ZM8.03111 16.208C8.03111 16.208 8.03112 16.208 8.03112 16.208C8.03102 16.2081 8.03097 16.2082 8.03096 16.2082C8.03096 16.2082 8.03101 16.2081 8.03111 16.208Z" stroke="#3DB7B7"/>
<path d="M2.02215 6.8392C1.92786 6.8392 1.83743 6.87666 1.77076 6.94333C1.70408 7.01001 1.66663 7.10044 1.66663 7.19473C1.66663 7.28902 1.70408 7.37945 1.77076 7.44612C1.83743 7.5128 1.92786 7.55025 2.02215 7.55025H3.02797C3.12226 7.55025 3.21269 7.5128 3.27936 7.44612C3.34604 7.37945 3.38349 7.28902 3.38349 7.19473C3.38349 7.10044 3.34604 7.01001 3.27936 6.94333C3.21269 6.87666 3.12226 6.8392 3.02797 6.8392H2.02215Z" fill="#3DB7B7"/>
<path d="M17.1085 6.8392C17.0142 6.8392 16.9237 6.87666 16.8571 6.94333C16.7904 7.01001 16.7529 7.10044 16.7529 7.19473C16.7529 7.28902 16.7904 7.37945 16.8571 7.44612C16.9237 7.5128 17.0142 7.55025 17.1085 7.55025H18.1143C18.2086 7.55025 18.299 7.5128 18.3657 7.44612C18.4323 7.37945 18.4698 7.28902 18.4698 7.19473C18.4698 7.10044 18.4323 7.01001 18.3657 6.94333C18.299 6.87666 18.2086 6.8392 18.1143 6.8392H17.1085Z" fill="#3DB7B7"/>
<path d="M17.1085 6.8392C17.0142 6.8392 16.9237 6.87666 16.8571 6.94333C16.7904 7.01001 16.7529 7.10044 16.7529 7.19473C16.7529 7.28902 16.7904 7.37945 16.8571 7.44612C16.9237 7.5128 17.0142 7.55025 17.1085 7.55025H18.1143C18.2086 7.55025 18.299 7.5128 18.3657 7.44612C18.4323 7.37945 18.4698 7.28902 18.4698 7.19473C18.4698 7.10044 18.4323 7.01001 18.3657 6.94333C18.299 6.87666 18.2086 6.8392 18.1143 6.8392H17.1085Z" fill="#3DB7B7"/>
<path d="M3.87249 1.6697C3.77858 1.67794 3.69178 1.72315 3.63119 1.79538C3.57065 1.86759 3.54124 1.96088 3.54945 2.05476C3.55765 2.14864 3.60279 2.23542 3.67494 2.29603L4.44537 2.9425C4.48113 2.97254 4.52246 2.99523 4.567 3.00929C4.61154 3.02335 4.65841 3.02849 4.70493 3.02443C4.75146 3.02036 4.79673 3.00718 4.83815 2.98561C4.87958 2.96405 4.91635 2.93454 4.94637 2.89876C4.97641 2.86299 4.9991 2.82166 5.01315 2.77713C5.02721 2.73259 5.03235 2.68572 5.02829 2.63919C5.02423 2.59267 5.01104 2.5474 4.98948 2.50597C4.96792 2.46455 4.9384 2.42777 4.90262 2.39776L4.1322 1.75128C4.09639 1.72129 4.05503 1.69865 4.01046 1.68465C3.9659 1.67065 3.91902 1.66557 3.87249 1.6697Z" fill="#3DB7B7"/>
<path d="M4.70679 11.3669C4.61295 11.3587 4.51968 11.388 4.44745 11.4485L4.02804 11.8006L3.67703 12.095C3.64123 12.125 3.61168 12.1617 3.59009 12.2032C3.56849 12.2446 3.55527 12.2898 3.55117 12.3364C3.54708 12.3829 3.55219 12.4298 3.56622 12.4743C3.58025 12.5189 3.60291 12.5602 3.63293 12.596C3.66294 12.6318 3.69972 12.6613 3.74114 12.6829C3.78257 12.7044 3.82784 12.7176 3.87437 12.7217C3.92089 12.7257 3.96776 12.7206 4.0123 12.7065C4.05684 12.6925 4.09817 12.6698 4.13393 12.6397L4.48494 12.3453L4.90436 11.9933C4.97651 11.9327 5.02165 11.8459 5.02985 11.752C5.03805 11.6581 5.00865 11.5648 4.9481 11.4926C4.88751 11.4204 4.80071 11.3752 4.70679 11.3669Z" fill="#3DB7B7"/>
<path d="M16.003 1.74994L15.2326 2.39642C15.1604 2.45703 15.1153 2.54381 15.1071 2.63769C15.0989 2.73156 15.1283 2.82486 15.1888 2.89707C15.2494 2.96927 15.3361 3.01448 15.43 3.02274C15.5239 3.03101 15.6172 3.00167 15.6895 2.94116L16.4599 2.29469C16.4957 2.2647 16.5252 2.22794 16.5468 2.18653C16.5684 2.14512 16.5816 2.09985 16.5857 2.05333C16.5898 2.0068 16.5847 1.95992 16.5707 1.91537C16.5567 1.87083 16.534 1.82948 16.504 1.79369C16.474 1.75791 16.4372 1.7284 16.3958 1.70683C16.3543 1.68527 16.3091 1.67208 16.2625 1.66802C16.216 1.66396 16.1692 1.6691 16.1246 1.68316C16.0801 1.69722 16.0387 1.71991 16.003 1.74994Z" fill="#3DB7B7"/>
<rect x="14.7916" y="11.2083" width="1" height="6.25" rx="0.5" fill="#3DB7B7"/>
<rect x="12.2916" y="14.9574" width="1" height="6.25" rx="0.5" transform="rotate(-90 12.2916 14.9574)" fill="#3DB7B7"/>
</svg>
