<svg width="24" height="24" viewBox="0 0 24 24" fill="none" xmlns="http://www.w3.org/2000/svg">
<path d="M14.5885 19.0902L14.5875 19.0889C14.5985 19.0803 14.5964 19.0801 14.5889 19.0897L14.6974 19.2292L14.6975 19.2293L14.6976 19.2292L14.895 18.976M14.5885 19.0902C14.5847 19.0951 14.5797 19.1023 14.5743 19.112C14.5552 19.1464 14.5445 19.1885 14.5445 19.2292C14.5445 19.2701 14.5553 19.3128 14.5748 19.3477C14.58 19.357 14.5849 19.364 14.5886 19.3689M14.5885 19.0902L14.6969 19.2292L14.6972 19.2296L14.5886 19.3689M14.5885 19.0902L14.5886 19.3689M14.895 18.976L14.698 19.2292L14.6977 19.2296L14.895 19.4832M14.895 18.976C15.006 19.0626 15.0445 19.146 15.0445 19.2292C15.0445 19.3124 15.006 19.3966 14.895 19.4832M14.895 18.976C14.7837 18.8894 14.6036 18.8214 14.393 18.8214H9.77162C9.56111 18.8214 9.38089 18.8895 9.26969 18.976V19.4832C9.38089 19.5697 9.56111 19.6387 9.77162 19.6387H10.7211H13.4444H14.393C14.6036 19.6387 14.7837 19.5697 14.895 19.4832M14.895 19.4832L14.6974 19.2299L14.5889 19.3693C14.5931 19.3747 14.5957 19.3772 14.5957 19.3772C14.5956 19.3771 14.5932 19.3747 14.5875 19.3703L14.5886 19.3689M8.69607 13.263L8.69606 13.263C7.15906 12.1765 6.22637 10.4087 6.21619 8.50429C6.21642 5.26098 8.83844 2.6416 12.0828 2.6416C15.3269 2.6416 17.9478 5.26083 17.9485 8.50433C17.9383 10.4088 17.0063 12.1766 15.4694 13.263L15.4694 13.263C14.936 13.6401 14.5445 14.2554 14.5445 14.9957V15.3934H9.62106V14.9957C9.62106 14.2554 9.2295 13.6401 8.69607 13.263ZM8.94028 17.3569C8.94028 17.3479 8.94317 17.3342 8.96059 17.3181C8.97742 17.3026 9.01685 17.2781 9.09085 17.2781H15.0747C15.1487 17.2781 15.1881 17.3026 15.2049 17.3181C15.2223 17.3342 15.2252 17.3479 15.2252 17.3569C15.2252 17.3661 15.2222 17.3802 15.2045 17.3965C15.1875 17.4122 15.1482 17.4367 15.0747 17.4367H14.393H9.77162H9.09084C9.01731 17.4367 8.97796 17.4122 8.96096 17.3965C8.94328 17.3802 8.94028 17.3661 8.94028 17.3569Z" stroke="#4E88C7"/>
<path d="M2.42675 8.20801C2.3136 8.20801 2.20509 8.25296 2.12508 8.33296C2.04507 8.41297 2.00012 8.52149 2.00012 8.63464C2.00012 8.74779 2.04507 8.8563 2.12508 8.93631C2.20509 9.01632 2.3136 9.06127 2.42675 9.06127H3.63373C3.74688 9.06127 3.8554 9.01632 3.93541 8.93631C4.01541 8.8563 4.06036 8.74779 4.06036 8.63464C4.06036 8.52149 4.01541 8.41297 3.93541 8.33296C3.8554 8.25296 3.74688 8.20801 3.63373 8.20801H2.42675Z" fill="#4E88C7"/>
<path d="M20.5299 8.20605C20.4168 8.20605 20.3082 8.251 20.2282 8.33101C20.1482 8.41102 20.1033 8.51954 20.1033 8.63268C20.1033 8.74583 20.1482 8.85435 20.2282 8.93436C20.3082 9.01437 20.4168 9.05932 20.5299 9.05932H21.7369C21.85 9.05932 21.9585 9.01437 22.0386 8.93436C22.1186 8.85435 22.1635 8.74583 22.1635 8.63268C22.1635 8.51954 22.1186 8.41102 22.0386 8.33101C21.9585 8.251 21.85 8.20605 21.7369 8.20605H20.5299Z" fill="#4E88C7"/>
<path d="M20.5299 8.20605C20.4168 8.20605 20.3082 8.251 20.2282 8.33101C20.1482 8.41102 20.1033 8.51954 20.1033 8.63268C20.1033 8.74583 20.1482 8.85435 20.2282 8.93436C20.3082 9.01437 20.4168 9.05932 20.5299 9.05932H21.7369C21.85 9.05932 21.9585 9.01437 22.0386 8.93436C22.1186 8.85435 22.1635 8.74583 22.1635 8.63268C22.1635 8.51954 22.1186 8.41102 22.0386 8.33101C21.9585 8.251 21.85 8.20605 21.7369 8.20605H20.5299Z" fill="#4E88C7"/>
<path d="M4.64757 2.00265C4.53488 2.01254 4.43072 2.06679 4.35802 2.15347C4.28536 2.24012 4.25008 2.35207 4.25992 2.46472C4.26977 2.57738 4.32393 2.68151 4.41052 2.75425L5.33502 3.53001C5.37794 3.56606 5.42754 3.59329 5.48098 3.61016C5.53443 3.62703 5.59067 3.6332 5.6465 3.62832C5.70234 3.62345 5.75666 3.60762 5.80637 3.58175C5.85608 3.55587 5.90021 3.52045 5.93623 3.47752C5.97227 3.4346 5.9995 3.38501 6.01637 3.33156C6.03324 3.27812 6.03941 3.22187 6.03454 3.16604C6.02966 3.11021 6.01383 3.05589 5.98796 3.00618C5.96208 2.95647 5.92667 2.91234 5.88373 2.87632L4.95923 2.10055C4.91626 2.06456 4.86662 2.03739 4.81314 2.02059C4.75967 2.00379 4.70341 1.99769 4.64757 2.00265Z" fill="#4E88C7"/>
<path d="M5.64864 13.6403C5.53603 13.6304 5.4241 13.6656 5.33743 13.7382L4.83414 14.1607L4.41292 14.514C4.36996 14.55 4.33451 14.5941 4.30859 14.6438C4.28268 14.6935 4.26681 14.7478 4.2619 14.8036C4.25698 14.8594 4.26312 14.9157 4.27995 14.9692C4.29678 15.0226 4.32398 15.0722 4.36 15.1152C4.39602 15.1581 4.44015 15.1935 4.48986 15.2194C4.53957 15.2453 4.5939 15.2611 4.64973 15.266C4.70556 15.2709 4.7618 15.2647 4.81525 15.2478C4.86869 15.231 4.91829 15.2037 4.96121 15.1677L5.38242 14.8144L5.88572 14.3919C5.9723 14.3192 6.02647 14.215 6.03631 14.1024C6.04615 13.9897 6.01087 13.8778 5.93821 13.7911C5.8655 13.7044 5.76134 13.6502 5.64864 13.6403Z" fill="#4E88C7"/>
<path d="M19.2028 2.09993L18.2783 2.87569C18.1917 2.94843 18.1376 3.05257 18.1277 3.16522C18.1179 3.27787 18.1532 3.38982 18.2258 3.47648C18.2985 3.56312 18.4026 3.61737 18.5153 3.62729C18.6279 3.63721 18.7399 3.602 18.8266 3.52939L19.7511 2.75362C19.7941 2.71763 19.8295 2.67353 19.8554 2.62383C19.8813 2.57413 19.8972 2.51982 19.9021 2.46399C19.907 2.40816 19.9009 2.3519 19.8841 2.29844C19.8672 2.24498 19.84 2.19537 19.804 2.15242C19.768 2.10949 19.7239 2.07407 19.6742 2.0482C19.6245 2.02232 19.5701 2.00649 19.5143 2.00162C19.4585 1.99674 19.4022 2.00292 19.3488 2.01978C19.2953 2.03665 19.2457 2.06389 19.2028 2.09993Z" fill="#4E88C7"/>
<path d="M18.8291 13.7357C18.7861 13.6996 18.7365 13.6724 18.6831 13.6555C18.6297 13.6387 18.5734 13.6325 18.5176 13.6374C18.4617 13.6422 18.4074 13.6581 18.3577 13.6839C18.308 13.7098 18.2639 13.7452 18.2279 13.7882C18.1918 13.8311 18.1646 13.8807 18.1477 13.9341C18.1308 13.9876 18.1247 14.0438 18.1295 14.0996C18.1344 14.1555 18.1502 14.2098 18.1761 14.2595C18.202 14.3092 18.2374 14.3533 18.2803 14.3894L19.2049 15.1651C19.2478 15.2012 19.2974 15.2284 19.3508 15.2453C19.4043 15.2621 19.4605 15.2683 19.5163 15.2634C19.5722 15.2586 19.6265 15.2427 19.6762 15.2169C19.7259 15.191 19.77 15.1556 19.8061 15.1126C19.8421 15.0697 19.8693 15.0201 19.8862 14.9667C19.9031 14.9132 19.9092 14.857 19.9044 14.8012C19.8995 14.7453 19.8837 14.691 19.8578 14.6413C19.8319 14.5916 19.7965 14.5475 19.7536 14.5114L18.8291 13.7357Z" fill="#4E88C7"/>
</svg>
