<svg fill="none" xmlns="http://www.w3.org/2000/svg" viewBox="0 0 21 19"><path d="m12.5881 17.0897-.001-.0013c.011-.0086.0089-.0088.0014.0008l.1085.1395.0001.0001.0001-.0001.1974-.2532m-.3065.1142a.17962.17962 0 0 0-.0142.0219c-.0191.0343-.0298.0764-.0298.1171 0 .0409.0109.0836.0303.1185a.19785.19785 0 0 0 .0138.0212m-.0001-.2787.1084.139.0004.0004-.1087.1393m-.0001-.2787.0001.2787m.3064-.3929-.197.2532-.0003.0004.1973.2536m0-.5072c.111.0866.1495.17.1495.2532 0 .0832-.0385.1674-.1495.254m0-.5072c-.1112-.0865-.2914-.1546-.502-.1546H7.77126c-.21052 0-.39073.0681-.50194.1546v.5072c.11121.0865.29142.1555.50194.1555h4.62134c.2106 0 .3908-.069.502-.1555m0 0-.1975-.2533-.1085.1394c.0041.0054.0068.0079.0067.0079-.0001-.0001-.0025-.0025-.0082-.0069l.0011-.0014m-5.8925-6.1059h-.00001c-1.537-1.0864-2.46968-2.85431-2.47987-4.7587C4.21605 3.2605 6.83808.64111 10.0824.64111c3.2442 0 5.865 2.61923 5.8657 5.86273-.0102 1.9045-.9421 3.67226-2.479 4.75866-.5335.3771-.925.9924-.925 1.7327v.3977H7.62069v-.3977c0-.7403-.39155-1.3556-.92499-1.7327Zm.24421 4.094c0-.0091.00289-.0228.02031-.0388.01684-.0156.05626-.0401.13026-.0401h5.98382c.074 0 .1134.0245.1303.0401.0174.016.0203.0297.0203.0388s-.003.0232-.0207.0395c-.017.0157-.0564.0402-.1299.0402H7.09048c-.07354 0-.11289-.0245-.12988-.0402-.01769-.0163-.02069-.0304-.02069-.0395Z" stroke="currentColor"/><path d="M.42663 6.20752a.42663.42663 0 0 0 0 .85326h1.20698a.42662.42662 0 0 0 0-.85326H.42663ZM18.5297 6.20605a.42672.42672 0 0 0-.4267.42663.42673.42673 0 0 0 .4267.42664h1.2069a.42673.42673 0 0 0 .4267-.42664.42672.42672 0 0 0-.4267-.42663h-1.2069Z" fill="currentColor"/><path d="M18.5297 6.20605a.42672.42672 0 0 0-.4267.42663.42673.42673 0 0 0 .4267.42664h1.2069a.42673.42673 0 0 0 .4267-.42664.42672.42672 0 0 0-.4267-.42663h-1.2069ZM2.64757.00313a.42663.42663 0 0 0-.28955.15082.42664.42664 0 0 0 .0525.60079l.9245.77576a.4267.4267 0 0 0 .60121-.05249.42676.42676 0 0 0 .09831-.31148.42679.42679 0 0 0-.15081-.28972l-.9245-.77577a.42662.42662 0 0 0-.31166-.0979ZM3.64864 11.6403a.42646.42646 0 0 0-.31121.0979l-.50329.4225-.42122.3533a.42657.42657 0 0 0 .40233.7338.42616.42616 0 0 0 .14596-.0801l.42121-.3533.5033-.4225a.4266.4266 0 0 0-.23708-.7516ZM17.2027.09993l-.9245.77577a.42666.42666 0 0 0-.0525.60078.42672.42672 0 0 0 .2894.15081.4267.4267 0 0 0 .3114-.0979l.9245-.77577a.4273.4273 0 0 0 .1043-.12979.42662.42662 0 0 0 .0467-.15984.4275.4275 0 0 0-.018-.16555.42814.42814 0 0 0-.0801-.14602.42548.42548 0 0 0-.1299-.10422.4264.4264 0 0 0-.3253-.02842.42615.42615 0 0 0-.146.08015ZM16.8291 11.7357a.42769.42769 0 0 0-.146-.0802.42729.42729 0 0 0-.1655-.0181.42626.42626 0 0 0-.1599.0465.42591.42591 0 0 0-.1298.1043.42632.42632 0 0 0-.0802.1459.42755.42755 0 0 0-.0182.1655.4264.4264 0 0 0 .0466.1599.42869.42869 0 0 0 .1042.1299l.9246.7757a.42632.42632 0 0 0 .1459.0802.4275.4275 0 0 0 .1655.0181.42626.42626 0 0 0 .1599-.0465.4275.4275 0 0 0 .1299-.1043.42776.42776 0 0 0 .0801-.1459.42755.42755 0 0 0 .0182-.1655.4264.4264 0 0 0-.0466-.1599.42869.42869 0 0 0-.1042-.1299l-.9245-.7757Z" fill="currentColor"/></svg>