<svg width="24" height="24" viewBox="0 0 24 24" fill="none" xmlns="http://www.w3.org/2000/svg">
    <path
        d="M12.0827 2.14111C8.56238 2.14111 5.71606 4.98425 5.71606 8.50424V8.50511C5.72668 10.5724 6.739 12.4915 8.40733 13.6708C8.8288 13.9687 9.12093 14.4409 9.12093 14.9952V15.8929H15.0443V14.9952C15.0443 14.4409 15.3365 13.9687 15.7579 13.6708C17.4263 12.4915 18.4377 10.5724 18.4484 8.50511C18.4484 4.98471 15.6032 2.14111 12.0827 2.14111ZM9.09072 16.7776C8.70658 16.7776 8.44015 17.0449 8.44015 17.3565C8.44015 17.668 8.70658 17.9362 9.09072 17.9362H9.7715H14.3929H15.0745C15.4587 17.9362 15.7251 17.668 15.7251 17.3565C15.7251 17.0449 15.4587 16.7776 15.0745 16.7776H9.09072ZM9.7715 18.8209C9.56098 18.8209 9.38077 18.889 9.26956 18.9755C9.15853 19.0621 9.12093 19.1455 9.12093 19.2287C9.12093 19.3119 9.15853 19.3961 9.26956 19.4827C9.38077 19.5692 9.56098 19.6382 9.7715 19.6382H10.721H13.4443H14.3929C14.6034 19.6382 14.7836 19.5692 14.8949 19.4827C15.0058 19.3961 15.0443 19.3119 15.0443 19.2287C15.0443 19.1455 15.0058 19.0621 14.8949 18.9755C14.7836 18.889 14.6034 18.8209 14.3929 18.8209H9.7715ZM11.2739 20.5229C11.4287 20.8087 11.7307 20.9998 12.0827 20.9998C12.4346 20.9998 12.7365 20.8087 12.8913 20.5229H11.2739Z"
        fill="#D3DBFE" />
    <path
        d="M2.42663 8.20752C2.31348 8.20752 2.20497 8.25247 2.12496 8.33248C2.04495 8.41248 2 8.521 2 8.63415C2 8.7473 2.04495 8.85581 2.12496 8.93582C2.20497 9.01583 2.31348 9.06078 2.42663 9.06078H3.63361C3.74676 9.06078 3.85527 9.01583 3.93528 8.93582C4.01529 8.85581 4.06024 8.7473 4.06024 8.63415C4.06024 8.521 4.01529 8.41248 3.93528 8.33248C3.85527 8.25247 3.74676 8.20752 3.63361 8.20752H2.42663Z"
        fill="#D3DBFE" />
    <path
        d="M20.5299 8.20605C20.4168 8.20605 20.3082 8.251 20.2282 8.33101C20.1482 8.41102 20.1033 8.51954 20.1033 8.63268C20.1033 8.74583 20.1482 8.85435 20.2282 8.93436C20.3082 9.01437 20.4168 9.05932 20.5299 9.05932H21.7369C21.85 9.05932 21.9585 9.01437 22.0386 8.93436C22.1186 8.85435 22.1635 8.74583 22.1635 8.63268C22.1635 8.51954 22.1186 8.41102 22.0386 8.33101C21.9585 8.251 21.85 8.20605 21.7369 8.20605H20.5299Z"
        fill="#D3DBFE" />
    <path
        d="M20.5299 8.20605C20.4168 8.20605 20.3082 8.251 20.2282 8.33101C20.1482 8.41102 20.1033 8.51954 20.1033 8.63268C20.1033 8.74583 20.1482 8.85435 20.2282 8.93436C20.3082 9.01437 20.4168 9.05932 20.5299 9.05932H21.7369C21.85 9.05932 21.9585 9.01437 22.0386 8.93436C22.1186 8.85435 22.1635 8.74583 22.1635 8.63268C22.1635 8.51954 22.1186 8.41102 22.0386 8.33101C21.9585 8.251 21.85 8.20605 21.7369 8.20605H20.5299Z"
        fill="#D3DBFE" />
    <path
        d="M4.64733 2.00313C4.53463 2.01303 4.43048 2.06728 4.35778 2.15395C4.28512 2.24061 4.24983 2.35256 4.25968 2.46521C4.26952 2.57786 4.32369 2.682 4.41027 2.75474L5.33478 3.5305C5.3777 3.56654 5.42729 3.59378 5.48074 3.61065C5.53418 3.62751 5.59043 3.63369 5.64626 3.62881C5.70209 3.62394 5.75641 3.60811 5.80613 3.58223C5.85584 3.55636 5.89997 3.52094 5.93599 3.47801C5.97203 3.43509 5.99926 3.38549 6.01613 3.33205C6.03299 3.27861 6.03917 3.22236 6.03429 3.16653C6.02942 3.1107 6.01359 3.05638 5.98771 3.00667C5.96184 2.95696 5.92642 2.91283 5.88349 2.87681L4.95898 2.10104C4.91601 2.06505 4.86637 2.03788 4.8129 2.02108C4.75942 2.00428 4.70316 1.99818 4.64733 2.00313Z"
        fill="#D3DBFE" />
    <path
        d="M5.64864 13.6403C5.53603 13.6304 5.4241 13.6656 5.33743 13.7382L4.83414 14.1607L4.41292 14.514C4.36996 14.55 4.33451 14.5941 4.30859 14.6438C4.28268 14.6935 4.26681 14.7478 4.2619 14.8036C4.25698 14.8594 4.26312 14.9157 4.27995 14.9692C4.29678 15.0226 4.32398 15.0722 4.36 15.1152C4.39602 15.1581 4.44015 15.1935 4.48986 15.2194C4.53957 15.2453 4.5939 15.2611 4.64973 15.266C4.70556 15.2709 4.7618 15.2647 4.81525 15.2478C4.86869 15.231 4.91829 15.2037 4.96121 15.1677L5.38242 14.8144L5.88572 14.3919C5.9723 14.3192 6.02647 14.215 6.03631 14.1024C6.04615 13.9897 6.01087 13.8778 5.93821 13.7911C5.8655 13.7044 5.76134 13.6502 5.64864 13.6403Z"
        fill="#D3DBFE" />
    <path
        d="M19.2027 2.09993L18.2782 2.87569C18.1916 2.94843 18.1374 3.05257 18.1276 3.16522C18.1178 3.27787 18.153 3.38982 18.2257 3.47648C18.2984 3.56312 18.4025 3.61737 18.5151 3.62729C18.6278 3.63721 18.7398 3.602 18.8265 3.52939L19.751 2.75362C19.7939 2.71763 19.8294 2.67353 19.8553 2.62383C19.8812 2.57413 19.8971 2.51982 19.902 2.46399C19.9069 2.40816 19.9008 2.3519 19.884 2.29844C19.8671 2.24498 19.8399 2.19537 19.8039 2.15242C19.7679 2.10949 19.7238 2.07407 19.674 2.0482C19.6243 2.02232 19.57 2.00649 19.5142 2.00162C19.4583 1.99674 19.4021 2.00292 19.3487 2.01978C19.2952 2.03665 19.2456 2.06389 19.2027 2.09993Z"
        fill="#D3DBFE" />
    <path
        d="M18.8288 13.7357C18.7859 13.6996 18.7363 13.6724 18.6829 13.6555C18.6294 13.6387 18.5732 13.6325 18.5173 13.6374C18.4615 13.6422 18.4072 13.6581 18.3575 13.6839C18.3078 13.7098 18.2636 13.7452 18.2276 13.7882C18.1916 13.8311 18.1643 13.8807 18.1475 13.9341C18.1306 13.9876 18.1244 14.0438 18.1293 14.0996C18.1342 14.1555 18.15 14.2098 18.1759 14.2595C18.2018 14.3092 18.2372 14.3533 18.2801 14.3894L19.2046 15.1651C19.2475 15.2012 19.2971 15.2284 19.3506 15.2453C19.404 15.2621 19.4603 15.2683 19.5161 15.2634C19.5719 15.2586 19.6262 15.2427 19.676 15.2169C19.7257 15.191 19.7698 15.1556 19.8058 15.1126C19.8419 15.0697 19.8691 15.0201 19.886 14.9667C19.9028 14.9132 19.909 14.857 19.9041 14.8012C19.8993 14.7453 19.8834 14.691 19.8575 14.6413C19.8317 14.5916 19.7963 14.5475 19.7533 14.5114L18.8288 13.7357Z"
        fill="#D3DBFE" />
</svg>
    