<svg fill="none" xmlns="http://www.w3.org/2000/svg" viewBox="0 0 20 19"><path d="M16.5 12.1684c.83 0 1.5.5953 1.5 1.3328 0 .7376-.67 1.333-1.5 1.333H14h2c.83 0 1.5.5953 1.5 1.3329 0 .7375-.67 1.3329-1.5 1.3329H7c-3.31 0-6-2.3992-6-5.3494 0-2.39922 1.77-4.43417 4.22-5.10951 1.23-.34655 2.15-1.2707 2.55-2.37258l.92-2.51475c.16-.5776.82-.72866 1.48-.62203 1.05.15995 1.94 1.35957 1.94 3.52777L12 6.83671h5.5c.83 0 1.5.59537 1.5 1.33289 0 .7376-.67 1.33298-1.5 1.33298H15h2c.83 0 1.5.59532 1.5 1.33292 0 .7375-.67 1.3329-1.5 1.3329h-2.5" stroke="currentColor" strokeMiterlimit="10" strokeLinecap="round" strokeLinejoin="round"/></svg>