<svg width="24" height="24" viewBox="0 0 24 24" fill="none" xmlns="http://www.w3.org/2000/svg">
<path d="M18.5 11.6684C19.33 11.6684 20 12.2637 20 13.0012C20 13.7388 19.33 14.3342 18.5 14.3342H16H18C18.83 14.3342 19.5 14.9295 19.5 15.6671C19.5 16.4046 18.83 17 18 17H17H9C5.69 17 3 14.6008 3 11.6506C3 9.25138 4.77 7.21643 7.22 6.54109C8.45 6.19454 9.37 5.27039 9.77 4.16851L10.69 1.65376C10.85 1.07616 11.51 0.9251 12.17 1.03173C13.22 1.19168 14.11 2.3913 14.11 4.5595L14 6.33671H19.5C20.33 6.33671 21 6.93208 21 7.6696C21 8.4072 20.33 9.00258 19.5 9.00258H17H19C19.83 9.00258 20.5 9.59787 20.5 10.3355C20.5 11.073 19.83 11.6684 19 11.6684H16.5" stroke="white" strokeMiterlimit="10" strokeLinecap="round" strokeLinejoin="round"/>
</svg>
