<svg width="105" height="40" viewBox="0 0 105 40" fill="none" xmlns="http://www.w3.org/2000/svg">
<path d="M52 12C67 12 73.9392 4 73.9392 4V36C73.9392 36 69 31 52 31V12Z" fill="#E2EAFD"/>
<path d="M105 20C105 31.0457 96.309 40 85.5882 40C74.8673 40 66.1764 31.0457 66.1764 20C66.1764 8.9543 74.8673 0 85.5882 0C96.309 0 105 8.9543 105 20Z" fill="#E2EAFD"/>
<path d="M53 12C38 12 31.0608 4 31.0608 4V36C31.0608 36 36 31 53 31V12Z" fill="#E2EAFD"/>
<path d="M5.34058e-05 20C5.34058e-05 31.0457 8.69101 40 19.4118 40C30.1327 40 38.8236 31.0457 38.8236 20C38.8236 8.9543 30.1327 0 19.4118 0C8.69101 0 5.34058e-05 8.9543 5.34058e-05 20Z" fill="#E2EAFD"/>
</svg>
