<svg width="48" height="52" viewBox="0 0 48 52" fill="none" xmlns="http://www.w3.org/2000/svg">
<g filter="url(#filter0_dd_1327_13048)">
<circle cx="24" cy="26" r="20" fill="#F26D6D"/>
</g>
<path d="M20 19C20 17.3432 21.3432 16 23 16H25C26.6569 16 28 17.3432 28 19V24H20V19Z" stroke="white" stroke-linecap="round" stroke-linejoin="round"/>
<path d="M29 24H19C17.8954 24 17 24.8954 17 26V34C17 35.1046 17.8954 36 19 36H29C30.1046 36 31 35.1046 31 34V26C31 24.8954 30.1046 24 29 24Z" stroke="white" stroke-linecap="round" stroke-linejoin="round"/>
<path d="M24 31V29" stroke="white" stroke-linecap="round" stroke-linejoin="round"/>
<path d="M24 33C24.5523 33 25 32.5523 25 32C25 31.4477 24.5523 31 24 31C23.4477 31 23 31.4477 23 32C23 32.5523 23.4477 33 24 33Z" stroke="white"/>
<defs>
<filter id="filter0_dd_1327_13048" x="0" y="0" width="48" height="52" filterUnits="userSpaceOnUse" color-interpolation-filters="sRGB">
<feFlood flood-opacity="0" result="BackgroundImageFix"/>
<feColorMatrix in="SourceAlpha" type="matrix" values="0 0 0 0 0 0 0 0 0 0 0 0 0 0 0 0 0 0 127 0" result="hardAlpha"/>
<feOffset dy="-2"/>
<feGaussianBlur stdDeviation="2"/>
<feComposite in2="hardAlpha" operator="out"/>
<feColorMatrix type="matrix" values="0 0 0 0 0.87451 0 0 0 0 0.533333 0 0 0 0 0.533333 0 0 0 0.3 0"/>
<feBlend mode="normal" in2="BackgroundImageFix" result="effect1_dropShadow_1327_13048"/>
<feColorMatrix in="SourceAlpha" type="matrix" values="0 0 0 0 0 0 0 0 0 0 0 0 0 0 0 0 0 0 127 0" result="hardAlpha"/>
<feOffset dy="2"/>
<feGaussianBlur stdDeviation="2"/>
<feComposite in2="hardAlpha" operator="out"/>
<feColorMatrix type="matrix" values="0 0 0 0 0.873473 0 0 0 0 0.531813 0 0 0 0 0.531813 0 0 0 0.4 0"/>
<feBlend mode="normal" in2="effect1_dropShadow_1327_13048" result="effect2_dropShadow_1327_13048"/>
<feBlend mode="normal" in="SourceGraphic" in2="effect2_dropShadow_1327_13048" result="shape"/>
</filter>
</defs>
</svg>
