<svg width="70" height="89" viewBox="0 0 70 89" fill="none" xmlns="http://www.w3.org/2000/svg">
<g filter="url(#filter0_dddd_5692_133591)">
<circle cx="35" cy="26" r="24" fill="#739EE4"/>
<mask id="path-2-inside-1_5692_133591" fill="white">
<path fill-rule="evenodd" clip-rule="evenodd" d="M25.4004 31.4777C25.4004 31.1034 25.8302 30.8 26.3604 30.8L43.6404 30.8C44.1706 30.8 44.6004 31.1034 44.6004 31.4777C44.6004 31.852 44.1706 32.1553 43.6404 32.1553H26.3604C25.8302 32.1553 25.4004 31.852 25.4004 31.4777Z"/>
</mask>
<path fill-rule="evenodd" clip-rule="evenodd" d="M25.4004 31.4777C25.4004 31.1034 25.8302 30.8 26.3604 30.8L43.6404 30.8C44.1706 30.8 44.6004 31.1034 44.6004 31.4777C44.6004 31.852 44.1706 32.1553 43.6404 32.1553H26.3604C25.8302 32.1553 25.4004 31.852 25.4004 31.4777Z" fill="white"/>
<path d="M27.4004 31.4777C27.4004 32.1147 27.0316 32.4936 26.8349 32.6325C26.633 32.775 26.4589 32.8 26.3604 32.8V28.8C25.7317 28.8 25.0776 28.9768 24.5282 29.3646C23.9841 29.7487 23.4004 30.4664 23.4004 31.4777H27.4004ZM26.3604 32.8H43.6404V28.8H26.3604V32.8ZM43.6404 32.8C43.5419 32.8 43.3678 32.775 43.1659 32.6325C42.9691 32.4936 42.6004 32.1147 42.6004 31.4777L46.6004 31.4777C46.6004 30.4664 46.0168 29.7487 45.4726 29.3646C44.9232 28.9768 44.2691 28.8 43.6404 28.8V32.8ZM42.6004 31.4777C42.6004 30.8407 42.9691 30.4618 43.1659 30.3229C43.3678 30.1804 43.5419 30.1553 43.6404 30.1553V34.1553C44.2691 34.1553 44.9232 33.9786 45.4726 33.5908C46.0168 33.2067 46.6004 32.489 46.6004 31.4777L42.6004 31.4777ZM43.6404 30.1553L26.3604 30.1553V34.1553H43.6404V30.1553ZM26.3604 30.1553C26.4589 30.1553 26.633 30.1804 26.8349 30.3229C27.0316 30.4618 27.4004 30.8407 27.4004 31.4777H23.4004C23.4004 32.489 23.9841 33.2067 24.5282 33.5908C25.0776 33.9786 25.7317 34.1553 26.3604 34.1553V30.1553Z" fill="white" mask="url(#path-2-inside-1_5692_133591)"/>
<mask id="path-4-inside-2_5692_133591" fill="white">
<path fill-rule="evenodd" clip-rule="evenodd" d="M25.4004 25.7177C25.4004 25.3434 25.8302 25.04 26.3604 25.04L43.6404 25.04C44.1706 25.04 44.6004 25.3434 44.6004 25.7177C44.6004 26.092 44.1706 26.3953 43.6404 26.3953H26.3604C25.8302 26.3953 25.4004 26.092 25.4004 25.7177Z"/>
</mask>
<path fill-rule="evenodd" clip-rule="evenodd" d="M25.4004 25.7177C25.4004 25.3434 25.8302 25.04 26.3604 25.04L43.6404 25.04C44.1706 25.04 44.6004 25.3434 44.6004 25.7177C44.6004 26.092 44.1706 26.3953 43.6404 26.3953H26.3604C25.8302 26.3953 25.4004 26.092 25.4004 25.7177Z" fill="white"/>
<path d="M27.4004 25.7177C27.4004 26.3547 27.0316 26.7336 26.8349 26.8725C26.633 27.015 26.4589 27.04 26.3604 27.04V23.04C25.7317 23.04 25.0776 23.2168 24.5282 23.6046C23.9841 23.9887 23.4004 24.7064 23.4004 25.7177H27.4004ZM26.3604 27.04H43.6404V23.04H26.3604V27.04ZM43.6404 27.04C43.5419 27.04 43.3678 27.015 43.1659 26.8724C42.9691 26.7336 42.6004 26.3547 42.6004 25.7177L46.6004 25.7177C46.6004 24.7064 46.0168 23.9887 45.4726 23.6046C44.9232 23.2168 44.2691 23.04 43.6404 23.04V27.04ZM42.6004 25.7177C42.6004 25.0807 42.9691 24.7018 43.1659 24.5629C43.3678 24.4204 43.5419 24.3953 43.6404 24.3953V28.3953C44.2691 28.3953 44.9232 28.2186 45.4726 27.8308C46.0168 27.4467 46.6004 26.729 46.6004 25.7177L42.6004 25.7177ZM43.6404 24.3953L26.3604 24.3953V28.3953H43.6404V24.3953ZM26.3604 24.3953C26.4589 24.3953 26.633 24.4204 26.8349 24.5629C27.0316 24.7018 27.4004 25.0806 27.4004 25.7177H23.4004C23.4004 26.729 23.9841 27.4467 24.5282 27.8308C25.0776 28.2186 25.7317 28.3953 26.3604 28.3953V24.3953Z" fill="white" mask="url(#path-4-inside-2_5692_133591)"/>
<path d="M25.7337 19.9577C25.7337 19.9079 25.7618 19.8299 25.8738 19.7508C25.9849 19.6724 26.1559 19.6134 26.3604 19.6134L43.6404 19.6134C43.8449 19.6134 44.0159 19.6724 44.127 19.7508C44.239 19.8299 44.2671 19.9079 44.2671 19.9577C44.2671 20.0074 44.239 20.0855 44.127 20.1645C44.0159 20.243 43.8449 20.302 43.6404 20.302H26.3604C26.1559 20.302 25.9849 20.243 25.8738 20.1645C25.7618 20.0855 25.7337 20.0074 25.7337 19.9577Z" fill="white" stroke="white" stroke-width="0.666667"/>
</g>
<defs>
<filter id="filter0_dddd_5692_133591" x="0" y="0" width="70" height="89" filterUnits="userSpaceOnUse" color-interpolation-filters="sRGB">
<feFlood flood-opacity="0" result="BackgroundImageFix"/>
<feColorMatrix in="SourceAlpha" type="matrix" values="0 0 0 0 0 0 0 0 0 0 0 0 0 0 0 0 0 0 127 0" result="hardAlpha"/>
<feOffset dy="2"/>
<feGaussianBlur stdDeviation="2"/>
<feColorMatrix type="matrix" values="0 0 0 0 0.196078 0 0 0 0 0.352941 0 0 0 0 0.52549 0 0 0 0.1 0"/>
<feBlend mode="normal" in2="BackgroundImageFix" result="effect1_dropShadow_5692_133591"/>
<feColorMatrix in="SourceAlpha" type="matrix" values="0 0 0 0 0 0 0 0 0 0 0 0 0 0 0 0 0 0 127 0" result="hardAlpha"/>
<feOffset dy="7"/>
<feGaussianBlur stdDeviation="3.5"/>
<feColorMatrix type="matrix" values="0 0 0 0 0.196078 0 0 0 0 0.352941 0 0 0 0 0.52549 0 0 0 0.09 0"/>
<feBlend mode="normal" in2="effect1_dropShadow_5692_133591" result="effect2_dropShadow_5692_133591"/>
<feColorMatrix in="SourceAlpha" type="matrix" values="0 0 0 0 0 0 0 0 0 0 0 0 0 0 0 0 0 0 127 0" result="hardAlpha"/>
<feOffset dy="16"/>
<feGaussianBlur stdDeviation="5"/>
<feColorMatrix type="matrix" values="0 0 0 0 0.196078 0 0 0 0 0.352941 0 0 0 0 0.52549 0 0 0 0.05 0"/>
<feBlend mode="normal" in2="effect2_dropShadow_5692_133591" result="effect3_dropShadow_5692_133591"/>
<feColorMatrix in="SourceAlpha" type="matrix" values="0 0 0 0 0 0 0 0 0 0 0 0 0 0 0 0 0 0 127 0" result="hardAlpha"/>
<feOffset dy="28"/>
<feGaussianBlur stdDeviation="5.5"/>
<feColorMatrix type="matrix" values="0 0 0 0 0.196078 0 0 0 0 0.352941 0 0 0 0 0.52549 0 0 0 0.01 0"/>
<feBlend mode="normal" in2="effect3_dropShadow_5692_133591" result="effect4_dropShadow_5692_133591"/>
<feBlend mode="normal" in="SourceGraphic" in2="effect4_dropShadow_5692_133591" result="shape"/>
</filter>
</defs>
</svg>
