<svg width="24" height="25" viewBox="0 0 24 25" fill="none" xmlns="http://www.w3.org/2000/svg">
    <path
        d="M12.002 17.8491C12.002 15.5991 13.5019 13.7191 15.5419 13.0891C14.2119 12.3091 12.6619 11.8491 11.002 11.8491C6.03195 11.8491 2.00195 15.8791 2.00195 20.8491H13.022C12.392 20.0091 12.002 18.9791 12.002 17.8491Z"
        stroke="currentColor" strokeMiterlimit="10" strokeLinecap="round" strokeLinejoin="round" />
    <path
        d="M11.0029 11.8481C13.4882 11.8481 15.5029 9.83342 15.5029 7.34814C15.5029 4.86286 13.4882 2.84814 11.0029 2.84814C8.51765 2.84814 6.50293 4.86286 6.50293 7.34814C6.50293 9.83342 8.51765 11.8481 11.0029 11.8481Z"
        stroke="currentColor" strokeMiterlimit="10" strokeLinecap="round" strokeLinejoin="round" />
    <path
        d="M17 22.8464C19.7614 22.8464 22 20.6078 22 17.8464C22 15.085 19.7614 12.8464 17 12.8464C14.2386 12.8464 12 15.085 12 17.8464C12 20.6078 14.2386 22.8464 17 22.8464Z"
        stroke="currentColor" strokeMiterlimit="10" strokeLinecap="round" strokeLinejoin="round" />
    <path d="M14.0029 17.8481H20.0029" stroke="currentColor" strokeMiterlimit="10"
        strokeLinejoin="round" />
</svg>
    