<svg width="24" height="25" viewBox="0 0 24 25" fill="none" xmlns="http://www.w3.org/2000/svg">
    <path d="M15 12.0767C13.67 11.2967 12.66 11.0767 11 11.0767C6.03 11.0767 2 15.1067 2 20.0767H11"
        stroke="currentColor" strokeMterlimit="10" strokeLinecap="round" strokeLinejoin="round" />
    <path
        d="M11 11.0767C13.4853 11.0767 15.5 9.06194 15.5 6.57666C15.5 4.09138 13.4853 2.07666 11 2.07666C8.51472 2.07666 6.5 4.09138 6.5 6.57666C6.5 9.06194 8.51472 11.0767 11 11.0767Z"
        stroke="currentColor" strokeMiterlimit="10" strokeLinecap="round" strokeLinejoin="round" />
    <mask id="path-3-inside-1_5292_67519" fill="yellow">
        <path fillRule="evenodd" clipRule="evenodd"
            d="M17.7899 12.4772L17.6039 11.0072C17.5859 10.8572 17.4599 10.7432 17.3039 10.7432H15.4379C15.2879 10.7432 15.1559 10.8572 15.1379 11.0072L14.9759 12.2972C14.9639 12.4052 14.8859 12.5012 14.7839 12.5372C14.2799 12.7232 13.7999 13.0112 13.3859 13.3832L12.0179 12.8072C11.8799 12.7472 11.7179 12.8012 11.6399 12.9332L10.7039 14.5532C10.6319 14.6852 10.6679 14.8532 10.7879 14.9432L11.9699 15.8372C11.8439 16.4432 11.8439 17.0612 11.9639 17.6492H11.9699L10.7879 18.5432C10.6679 18.6332 10.6319 18.8012 10.7099 18.9332L11.6459 20.5532C11.7239 20.6852 11.8859 20.7392 12.0239 20.6792L13.3919 20.1032L13.3859 20.1092C13.6079 20.3072 13.8599 20.4872 14.1299 20.6432C14.3999 20.7992 14.6759 20.9252 14.9639 21.0212V21.0092L15.1499 22.4792C15.1559 22.6292 15.2879 22.7432 15.4379 22.7432H17.3099C17.4599 22.7432 17.5859 22.6292 17.6099 22.4792L17.7719 21.1892C17.7839 21.0812 17.8619 20.9852 17.9639 20.9492C18.4679 20.7632 18.9479 20.4752 19.3619 20.1032L20.7299 20.6792C20.8679 20.7392 21.0299 20.6852 21.1079 20.5532L22.0439 18.9332C22.1219 18.8012 22.0859 18.6332 21.9659 18.5432L20.7839 17.6492C20.9099 17.0432 20.9099 16.4252 20.7899 15.8372H20.7839L21.9539 14.9432C22.0739 14.8532 22.1099 14.6852 22.0319 14.5532L21.0959 12.9332C21.0179 12.8012 20.8559 12.7472 20.7179 12.8072L19.3559 13.3832L19.3619 13.3772C19.1399 13.1792 18.8879 12.9992 18.6179 12.8432C18.3479 12.6872 18.0719 12.5612 17.7839 12.4652" />
    </mask>
    <path
        d="M17.6039 11.0072L17.0082 11.0787L17.0087 11.0825L17.6039 11.0072ZM15.1379 11.0072L15.7333 11.0819L15.7337 11.0787L15.1379 11.0072ZM14.9759 12.2972L14.3805 12.2224L14.3796 12.2309L14.9759 12.2972ZM14.7839 12.5372L14.5842 11.9713L14.5762 11.9743L14.7839 12.5372ZM13.3859 13.3832L13.1531 13.9361L13.5039 14.0838L13.787 13.8295L13.3859 13.3832ZM12.0179 12.8072L11.7787 13.3574L11.7851 13.3601L12.0179 12.8072ZM11.6399 12.9332L11.1234 12.6279L11.1204 12.633L11.6399 12.9332ZM10.7039 14.5532L10.1844 14.253L10.1807 14.2594L10.1772 14.2659L10.7039 14.5532ZM10.7879 14.9432L11.1499 14.4646L11.1479 14.4632L10.7879 14.9432ZM11.9699 15.8372L12.5574 15.9593L12.6347 15.5876L12.3319 15.3586L11.9699 15.8372ZM11.9639 17.6492L11.3761 17.7691L11.474 18.2492H11.9639V17.6492ZM11.9699 17.6492L12.3319 18.1277L13.7579 17.0492H11.9699V17.6492ZM10.7879 18.5432L11.1479 19.0232L11.1499 19.0217L10.7879 18.5432ZM10.7099 18.9332L11.2295 18.633L11.2265 18.6279L10.7099 18.9332ZM11.6459 20.5532L11.1264 20.8533L11.1294 20.8584L11.6459 20.5532ZM12.0239 20.6792L11.7911 20.1261L11.7847 20.1289L12.0239 20.6792ZM13.3919 20.1032L13.8162 20.5274L13.1591 19.5502L13.3919 20.1032ZM13.3859 20.1092L12.9617 19.6849L12.5125 20.1341L12.9866 20.5569L13.3859 20.1092ZM14.9639 21.0212L14.7742 21.5904L15.5639 21.8536V21.0212H14.9639ZM14.9639 21.0092L15.5592 20.9338L14.3639 21.0092H14.9639ZM15.1499 22.4792L15.7495 22.4552L15.7484 22.4294L15.7452 22.4038L15.1499 22.4792ZM17.6099 22.4792L18.2024 22.574L18.204 22.564L18.2053 22.5539L17.6099 22.4792ZM17.7719 21.1892L18.3673 21.2639L18.3683 21.2554L17.7719 21.1892ZM17.9639 20.9492L18.1636 21.515L18.1717 21.5121L17.9639 20.9492ZM19.3619 20.1032L19.5948 19.5502L19.244 19.4025L18.9609 19.6569L19.3619 20.1032ZM20.7299 20.6792L20.9692 20.1289L20.9628 20.1262L20.7299 20.6792ZM21.1079 20.5532L21.6245 20.8584L21.6275 20.8533L21.1079 20.5532ZM22.0439 18.9332L21.5274 18.6279L21.5244 18.633L22.0439 18.9332ZM21.9659 18.5432L21.604 19.0217L21.6059 19.0232L21.9659 18.5432ZM20.7839 17.6492L20.1965 17.527L20.1192 17.8987L20.422 18.1277L20.7839 17.6492ZM20.7899 15.8372L21.3778 15.7172L21.2799 15.2372H20.7899V15.8372ZM20.7839 15.8372L20.4196 15.3604L19.0105 16.4372H20.7839V15.8372ZM21.9539 14.9432L21.5939 14.4631L21.5896 14.4664L21.9539 14.9432ZM22.0319 14.5532L21.5124 14.8533L21.5154 14.8584L22.0319 14.5532ZM21.0959 12.9332L21.6155 12.633L21.6125 12.6279L21.0959 12.9332ZM20.7179 12.8072L20.9516 13.3598L20.9572 13.3574L20.7179 12.8072ZM19.3559 13.3832L18.9317 12.9589L19.5896 13.9358L19.3559 13.3832ZM19.3619 13.3772L19.7862 13.8014L20.2354 13.3522L19.7613 12.9294L19.3619 13.3772ZM18.3852 12.4018L18.1992 10.9318L17.0087 11.0825L17.1947 12.5525L18.3852 12.4018ZM18.1997 10.9357C18.1455 10.4842 17.7637 10.1432 17.3039 10.1432V11.3432C17.1561 11.3432 17.0264 11.2301 17.0082 11.0787L18.1997 10.9357ZM17.3039 10.1432H15.4379V11.3432H17.3039V10.1432ZM15.4379 10.1432C14.9916 10.1432 14.5973 10.4769 14.5422 10.9357L15.7337 11.0787C15.7146 11.2375 15.5843 11.3432 15.4379 11.3432V10.1432ZM14.5426 10.9324L14.3806 12.2224L15.5713 12.3719L15.7333 11.0819L14.5426 10.9324ZM14.3796 12.2309C14.3872 12.1629 14.414 12.1082 14.446 12.0683C14.4779 12.0286 14.5237 11.9927 14.5842 11.9714L14.9836 13.103C15.2975 12.9922 15.5342 12.7057 15.5723 12.3634L14.3796 12.2309ZM14.5762 11.9743C14.0006 12.1867 13.4551 12.5144 12.9849 12.9369L13.787 13.8295C14.1448 13.508 14.5592 13.2596 14.9917 13.1001L14.5762 11.9743ZM13.6188 12.8302L12.2508 12.2542L11.7851 13.3601L13.1531 13.9361L13.6188 12.8302ZM12.2572 12.2569C11.8334 12.0727 11.3509 12.2429 11.1234 12.6279L12.1565 13.2384C12.085 13.3594 11.9264 13.4216 11.7787 13.3574L12.2572 12.2569ZM11.1204 12.633L10.1844 14.253L11.2235 14.8533L12.1595 13.2333L11.1204 12.633ZM10.1772 14.2659C9.96355 14.6575 10.0677 15.153 10.4279 15.4232L11.1479 14.4632C11.2682 14.5534 11.3003 14.7128 11.2307 14.8405L10.1772 14.2659ZM10.426 15.4217L11.608 16.3157L12.3319 15.3586L11.1499 14.4646L10.426 15.4217ZM11.3825 15.715C11.24 16.4004 11.2396 17.1007 11.3761 17.7691L12.5518 17.5292C12.4482 17.0216 12.4479 16.486 12.5574 15.9593L11.3825 15.715ZM11.9639 18.2492H11.9699V17.0492H11.9639V18.2492ZM11.608 17.1706L10.426 18.0646L11.1499 19.0217L12.3319 18.1277L11.608 17.1706ZM10.4279 18.0632C10.0673 18.3337 9.95716 18.8387 10.1934 19.2384L11.2265 18.6279C11.3067 18.7637 11.2686 18.9327 11.1479 19.0232L10.4279 18.0632ZM10.1904 19.2333L11.1264 20.8533L12.1655 20.253L11.2295 18.633L10.1904 19.2333ZM11.1294 20.8584C11.3569 21.2434 11.8395 21.4136 12.2632 21.2294L11.7847 20.1289C11.9324 20.0647 12.091 20.1269 12.1625 20.2479L11.1294 20.8584ZM12.2568 21.2321L13.6248 20.6561L13.1591 19.5502L11.7911 20.1262L12.2568 21.2321ZM12.9677 19.6789L12.9617 19.6849L13.8102 20.5334L13.8162 20.5274L12.9677 19.6789ZM12.9866 20.5569C13.2415 20.7844 13.5273 20.9879 13.8298 21.1627L14.4301 20.1236C14.1926 19.9864 13.9743 19.83 13.7853 19.6614L12.9866 20.5569ZM13.8298 21.1627C14.1324 21.3375 14.4453 21.4807 14.7742 21.5904L15.1537 20.452C14.9066 20.3696 14.6675 20.2608 14.4301 20.1236L13.8298 21.1627ZM15.5639 21.0212V21.0092H14.3639V21.0212H15.5639ZM14.3687 21.0845L14.5547 22.5545L15.7452 22.4038L15.5592 20.9338L14.3687 21.0845ZM14.5504 22.5031C14.5707 23.0104 15.0027 23.3432 15.4379 23.3432V22.1432C15.5732 22.1432 15.7412 22.2479 15.7495 22.4552L14.5504 22.5031ZM15.4379 23.3432H17.3099V22.1432H15.4379V23.3432ZM17.3099 23.3432C17.7752 23.3432 18.1351 22.9943 18.2024 22.574L17.0175 22.3844C17.0367 22.264 17.1447 22.1432 17.3099 22.1432V23.3432ZM18.2053 22.5539L18.3673 21.2639L17.1766 21.1144L17.0146 22.4044L18.2053 22.5539ZM18.3683 21.2554C18.3607 21.3234 18.3339 21.3782 18.3019 21.418C18.27 21.4577 18.2242 21.4936 18.1636 21.515L17.7642 20.3834C17.4504 20.4942 17.2136 20.7806 17.1756 21.1229L18.3683 21.2554ZM18.1717 21.5121C18.7472 21.2996 19.2928 20.972 19.763 20.5495L18.9609 19.6569C18.6031 19.9784 18.1886 20.2267 17.7562 20.3863L18.1717 21.5121ZM19.1291 20.6561L20.4971 21.2321L20.9628 20.1262L19.5948 19.5502L19.1291 20.6561ZM20.4907 21.2294C20.9144 21.4136 21.397 21.2434 21.6245 20.8584L20.5914 20.2479C20.6629 20.1269 20.8215 20.0647 20.9692 20.1289L20.4907 21.2294ZM21.6275 20.8533L22.5635 19.2333L21.5244 18.633L20.5884 20.253L21.6275 20.8533ZM22.5605 19.2384C22.7967 18.8387 22.6866 18.3337 22.3259 18.0632L21.6059 19.0232C21.4853 18.9327 21.4472 18.7637 21.5274 18.6279L22.5605 19.2384ZM22.3279 18.0646L21.1459 17.1706L20.422 18.1277L21.604 19.0217L22.3279 18.0646ZM21.3714 17.7713C21.5139 17.086 21.5142 16.3856 21.3778 15.7172L20.2021 15.9571C20.3056 16.4647 20.306 17.0004 20.1965 17.527L21.3714 17.7713ZM20.7899 15.2372H20.7839V16.4372H20.7899V15.2372ZM21.1482 16.3139L22.3182 15.4199L21.5896 14.4664L20.4196 15.3604L21.1482 16.3139ZM22.3139 15.4232C22.6746 15.1527 22.7847 14.6477 22.5485 14.2479L21.5154 14.8584C21.4352 14.7227 21.4733 14.5537 21.5939 14.4632L22.3139 15.4232ZM22.5515 14.253L21.6155 12.633L20.5764 13.2333L21.5124 14.8533L22.5515 14.253ZM21.6125 12.6279C21.385 12.2429 20.9024 12.0727 20.4787 12.2569L20.9572 13.3574C20.8094 13.4216 20.6509 13.3594 20.5794 13.2384L21.6125 12.6279ZM20.4842 12.2546L19.1222 12.8306L19.5896 13.9358L20.9516 13.3598L20.4842 12.2546ZM19.7802 13.8074L19.7862 13.8014L18.9377 12.9529L18.9317 12.9589L19.7802 13.8074ZM19.7613 12.9294C19.5063 12.702 19.2206 12.4984 18.9181 12.3236L18.3178 13.3627C18.5553 13.4999 18.7735 13.6564 18.9626 13.8249L19.7613 12.9294ZM18.9181 12.3236C18.6155 12.1488 18.3026 12.0056 17.9737 11.896L17.5942 13.0344C17.8413 13.1167 18.0804 13.2255 18.3178 13.3627L18.9181 12.3236Z"
        fill="#5899E0" mask="url(#path-3-inside-1_5292_67519)" />
    <path
        d="M17.7899 12.4772L17.6039 11.0072C17.5859 10.8572 17.4599 10.7432 17.3039 10.7432H15.4379C15.2879 10.7432 15.1559 10.8572 15.1379 11.0072L14.9759 12.2972C14.9639 12.4052 14.8859 12.5012 14.7839 12.5372C14.2799 12.7232 13.7999 13.0112 13.3859 13.3832L12.0179 12.8072C11.8799 12.7472 11.7179 12.8012 11.6399 12.9332L10.7039 14.5532C10.6319 14.6852 10.6679 14.8532 10.7879 14.9432L11.9699 15.8372C11.8439 16.4432 11.8439 17.0612 11.9639 17.6492H11.9699L10.7879 18.5432C10.6679 18.6332 10.6319 18.8012 10.7099 18.9332L11.6459 20.5532C11.7239 20.6852 11.8859 20.7392 12.0239 20.6792L13.3919 20.1032L13.3859 20.1092C13.6079 20.3072 13.8599 20.4872 14.1299 20.6432C14.3999 20.7992 14.6759 20.9252 14.9639 21.0212V21.0092L15.1499 22.4792C15.1559 22.6292 15.2879 22.7432 15.4379 22.7432H17.3099C17.4599 22.7432 17.5859 22.6292 17.6099 22.4792L17.7719 21.1892C17.7839 21.0812 17.8619 20.9852 17.9639 20.9492C18.4679 20.7632 18.9479 20.4752 19.3619 20.1032L20.7299 20.6792C20.8679 20.7392 21.0299 20.6852 21.1079 20.5532L22.0439 18.9332C22.1219 18.8012 22.0859 18.6332 21.9659 18.5432L20.7839 17.6492C20.9099 17.0432 20.9099 16.4252 20.7899 15.8372H20.7839L21.9539 14.9432C22.0739 14.8532 22.1099 14.6852 22.0319 14.5532L21.0959 12.9332C21.0179 12.8012 20.8559 12.7472 20.7179 12.8072L19.3559 13.3832L19.3619 13.3772C19.1399 13.1792 18.8879 12.9992 18.6179 12.8432C18.3479 12.6872 18.0719 12.5612 17.7839 12.4652"
        stroke="currentColor" stroke-width="0.933333" stroke-miterlimit="10" stroke-linecap="round"
        stroke-linejoin="round" />
    <path
        d="M16.4 19.143C17.7255 19.143 18.8 18.0685 18.8 16.743C18.8 15.4175 17.7255 14.343 16.4 14.343C15.0745 14.343 14 15.4175 14 16.743C14 18.0685 15.0745 19.143 16.4 19.143Z"
        stroke="currentColor" strokeWidth="0.8" strokemiterlimit="10" strokeLinecap="round"
        strokeLinejoin="round" />
</svg>
    