<svg width="24" height="24" viewBox="0 0 24 24" fill="none" xmlns="http://www.w3.org/2000/svg">
<rect x="0.435" y="0.435" width="23.13" height="23.13" rx="11.565" stroke="white" stroke-width="0.87"/>
<path d="M13.5 10C13.5 9.44771 13.0523 9 12.5 9H12C11.4477 9 11 9.44772 11 10V19C11 19.5523 11.4477 20 12 20H12.5C13.0523 20 13.5 19.5523 13.5 19V10Z" fill="white"/>
<path d="M13.5 5C13.5 4.44772 13.0523 4 12.5 4H12C11.4477 4 11 4.44772 11 5V6C11 6.55228 11.4477 7 12 7H12.5C13.0523 7 13.5 6.55228 13.5 6V5Z" fill="white"/>
</svg>
