<svg width="24" height="25" viewBox="0 0 24 25" fill="none" xmlns="http://www.w3.org/2000/svg">
<g clip-path="url(#clip0_5747_107196)">
<path d="M13.07 5.59649C12.2658 4.79066 11.2405 4.2417 10.124 4.01914C9.00757 3.79659 7.85015 3.91048 6.79845 4.34636C5.74676 4.78225 4.84812 5.52052 4.21641 6.46762C3.58471 7.41473 3.24837 8.52804 3.25001 9.66649C3.25001 9.8654 3.32902 10.0562 3.46968 10.1968C3.61033 10.3375 3.80109 10.4165 4.00001 10.4165C4.19892 10.4165 4.38968 10.3375 4.53034 10.1968C4.67099 10.0562 4.75001 9.8654 4.75001 9.66649C4.74803 8.82309 4.99644 7.99809 5.46378 7.296C5.93111 6.59392 6.59633 6.04635 7.37515 5.72269C8.15397 5.39902 9.01134 5.31381 9.83863 5.47787C10.6659 5.64192 11.4259 6.04785 12.0223 6.64422C12.6186 7.2406 13.0246 8.00057 13.1886 8.82786C13.3527 9.65515 13.2675 10.5125 12.9438 11.2913C12.6201 12.0702 12.0726 12.7354 11.3705 13.2027C10.6684 13.6701 9.8434 13.9185 9.00001 13.9165C8.8019 13.9191 8.61264 13.9989 8.47254 14.139C8.33245 14.2791 8.2526 14.4684 8.25001 14.6665V16.6665C8.25001 16.8654 8.32902 17.0562 8.46968 17.1968C8.61033 17.3375 8.80109 17.4165 9.00001 17.4165C9.19892 17.4165 9.38968 17.3375 9.53034 17.1968C9.67099 17.0562 9.75001 16.8654 9.75001 16.6665V15.3665C10.813 15.2241 11.8152 14.7877 12.6436 14.1065C13.472 13.4252 14.0938 12.5263 14.4389 11.5108C14.784 10.4952 14.8387 9.40356 14.5968 8.35865C14.355 7.31373 13.8262 6.3571 13.07 5.59649Z" fill="#A4AEC5"/>
<path d="M9.75 20.1665C9.75 20.5807 9.41421 20.9165 9 20.9165C8.58579 20.9165 8.25 20.5807 8.25 20.1665C8.25 19.7523 8.58579 19.4165 9 19.4165C9.41421 19.4165 9.75 19.7523 9.75 20.1665Z" fill="#A4AEC5" stroke="#A4AEC5"/>
</g>
<g clip-path="url(#clip1_5747_107196)">
<path d="M18.7224 8.56947C18.0858 7.93153 17.2741 7.49693 16.3902 7.32074C15.5063 7.14455 14.59 7.23471 13.7574 7.57979C12.9248 7.92486 12.2134 8.50933 11.7133 9.25912C11.2132 10.0089 10.9469 10.8903 10.9482 11.7916C10.9482 11.949 11.0108 12.1 11.1222 12.2114C11.2335 12.3227 11.3845 12.3853 11.542 12.3853C11.6995 12.3853 11.8505 12.3227 11.9618 12.2114C12.0732 12.1 12.1357 11.949 12.1357 11.7916C12.1342 11.1239 12.3308 10.4707 12.7008 9.91492C13.0708 9.3591 13.5974 8.92561 14.214 8.66938C14.8306 8.41314 15.5093 8.34569 16.1642 8.47556C16.8192 8.60544 17.4208 8.9268 17.893 9.39893C18.3651 9.87106 18.6864 10.4727 18.8163 11.1276C18.9462 11.7826 18.8787 12.4613 18.6225 13.0779C18.3663 13.6945 17.9328 14.2211 17.377 14.5911C16.8211 14.961 16.168 15.1577 15.5003 15.1561C15.3435 15.1582 15.1937 15.2214 15.0828 15.3323C14.9718 15.4432 14.9086 15.5931 14.9066 15.7499V17.3332C14.9066 17.4907 14.9691 17.6417 15.0805 17.7531C15.1918 17.8644 15.3429 17.927 15.5003 17.927C15.6578 17.927 15.8088 17.8644 15.9202 17.7531C16.0315 17.6417 16.0941 17.4907 16.0941 17.3332V16.3041C16.9357 16.1913 17.729 15.8458 18.3849 15.3065C19.0407 14.7672 19.5329 14.0555 19.8061 13.2516C20.0793 12.4477 20.1226 11.5834 19.9311 10.7562C19.7397 9.92896 19.3211 9.17162 18.7224 8.56947Z" fill="#A4AEC5"/>
<path d="M15.5003 21.0935C16.0469 21.0935 16.4899 20.6505 16.4899 20.104C16.4899 19.5574 16.0469 19.1144 15.5003 19.1144C14.9538 19.1144 14.5107 19.5574 14.5107 20.104C14.5107 20.6505 14.9538 21.0935 15.5003 21.0935Z" fill="#A4AEC5"/>
</g>
<defs>
<clipPath id="clip0_5747_107196">
<rect width="12" height="18" fill="white" transform="translate(3 3.6665)"/>
</clipPath>
<clipPath id="clip1_5747_107196">
<rect width="11" height="15" fill="white" transform="translate(10 6.6665)"/>
</clipPath>
</defs>
</svg>
