<svg class="question-icon" width="24" height="24" viewBox="0 0 24 24" fill="none" xmlns="http://www.w3.org/2000/svg">
  <path d="M11.9998 3.42871C10.6358 3.42871 9.32771 3.97055 8.36324 4.93502C7.39877 5.89949 6.85693 7.2076 6.85693 8.57157C6.85693 8.74206 6.92466 8.90558 7.04522 9.02614C7.16578 9.1467 7.32929 9.21443 7.49979 9.21443C7.67029 9.21443 7.8338 9.1467 7.95436 9.02614C8.07492 8.90558 8.14265 8.74206 8.14265 8.57157C8.14265 8.06504 8.24242 7.56347 8.43625 7.0955C8.63009 6.62753 8.91421 6.20232 9.27238 5.84416C9.63055 5.48599 10.0558 5.20187 10.5237 5.00803C10.9917 4.81419 11.4933 4.71443 11.9998 4.71443C12.5063 4.71443 13.0079 4.81419 13.4759 5.00803C13.9438 5.20187 14.369 5.48599 14.7272 5.84416C15.0854 6.20232 15.3695 6.62753 15.5633 7.0955C15.7572 7.56347 15.8569 8.06504 15.8569 8.57157C15.8569 9.757 15.5998 10.4856 15.2595 11.005C14.9064 11.5424 14.4332 11.9093 13.8598 12.3456L13.8315 12.3679C13.2855 12.7836 12.6486 13.2696 12.1652 14.005C11.6621 14.7713 11.3569 15.757 11.3569 17.143V17.3573C11.3569 17.5278 11.4247 17.6913 11.5452 17.8119C11.6658 17.9324 11.8293 18.0001 11.9998 18.0001C12.1703 18.0001 12.3338 17.9324 12.4544 17.8119C12.5749 17.6913 12.6426 17.5278 12.6426 17.3573V17.143C12.6426 15.9576 12.8998 15.229 13.2401 14.7104C13.5932 14.1721 14.0664 13.8053 14.6398 13.369L14.6681 13.3467C15.2141 12.931 15.8509 12.445 16.3344 11.7096C16.8375 10.9433 17.1426 9.95757 17.1426 8.57157C17.1426 7.2076 16.6008 5.89949 15.6363 4.93502C14.6719 3.97055 13.3638 3.42871 11.9998 3.42871ZM11.9998 21.4287C12.2271 21.4287 12.4451 21.3384 12.6059 21.1777C12.7666 21.0169 12.8569 20.7989 12.8569 20.5716C12.8569 20.3442 12.7666 20.1262 12.6059 19.9655C12.4451 19.8047 12.2271 19.7144 11.9998 19.7144C11.7725 19.7144 11.5544 19.8047 11.3937 19.9655C11.233 20.1262 11.1426 20.3442 11.1426 20.5716C11.1426 20.7989 11.233 21.0169 11.3937 21.1777C11.5544 21.3384 11.7725 21.4287 11.9998 21.4287Z" fill="currentColor"/>
</svg>