<svg width="46" height="28" viewBox="0 0 46 28" fill="none" xmlns="http://www.w3.org/2000/svg">
<path d="M26.7867 7.21282C26.0385 6.46317 25.0846 5.95246 24.0459 5.74541C23.007 5.53834 21.9301 5.6443 20.9516 6.04987C19.9731 6.45543 19.1369 7.14234 18.5492 8.02356C17.9614 8.90478 17.6485 9.94065 17.65 10.9999L17.65 11.0005C17.65 11.0933 17.6869 11.1823 17.7525 11.248C17.8182 11.3136 17.9072 11.3505 18 11.3505C18.0928 11.3505 18.1819 11.3136 18.2475 11.248C18.313 11.1824 18.3499 11.0936 18.35 11.0009C18.35 11.0008 18.35 11.0006 18.35 11.0005H18.75L26.7867 7.21282ZM26.7867 7.21282C27.4902 7.92056 27.9821 8.81063 28.2071 9.78283C28.4322 10.7552 28.3813 11.7711 28.0602 12.716C27.739 13.661 27.1605 14.4976 26.3896 15.1315C25.6187 15.7654 24.6861 16.1715 23.6969 16.304L23.35 16.3505V16.7005V18.0005C23.35 18.0933 23.3131 18.1823 23.2475 18.248C23.1819 18.3136 23.0928 18.3505 23 18.3505C22.9072 18.3505 22.8182 18.3136 22.7525 18.248C22.6869 18.1823 22.65 18.0933 22.65 18.0005V16.0036C22.6518 15.9105 22.6895 15.8217 22.7554 15.7558C22.8212 15.6901 22.9099 15.6523 23.0028 15.6505C23.0036 15.6505 23.0044 15.6504 23.0052 15.6504L26.7867 7.21282Z" fill="#4E88C7" stroke="white" stroke-width="0.8"/>
<path d="M23.75 21.5C23.75 21.9142 23.4142 22.25 23 22.25C22.5858 22.25 22.25 21.9142 22.25 21.5C22.25 21.0858 22.5858 20.75 23 20.75C23.4142 20.75 23.75 21.0858 23.75 21.5Z" fill="#4E88C7" stroke="white"/>
</svg>
