<svg width="24" height="24" viewBox="0 0 24 24" fill="none" xmlns="http://www.w3.org/2000/svg">
<path d="M11.9752 15.3611C11.9752 14.5208 11.9752 14.5208 11.9752 14.5208C12.0256 13.2604 13.639 12.773 15.3867 10.6555C16.0086 9.88246 16.4791 9.32788 16.7648 8.38677C17.2522 6.87427 16.8656 5.58024 16.7648 5.31135C16.664 4.92482 16.1934 3.59718 14.849 2.68968C13.7398 1.95024 12.6642 1.91663 12.1937 1.91663C11.7904 1.91663 10.8829 1.91663 9.90814 2.42079C9.06786 2.85774 8.56369 3.42913 8.31161 3.76524C7.32008 4.97524 7.01758 6.33649 6.91675 7.05913" stroke="#62BEEB" stroke-width="1.68056" stroke-miterlimit="10" stroke-linecap="round" stroke-linejoin="round"/>
<path d="M11.9417 22.0834H11.9753" stroke="#62BEEB" stroke-width="1.68056" stroke-miterlimit="10" stroke-linecap="round"/>
</svg>
