<svg width="47" height="28" viewBox="0 0 47 28" fill="none" xmlns="http://www.w3.org/2000/svg">
    <path d="M32.2002 4.5C32.2002 4.22386 31.9763 4 31.7002 4H14.7002C14.4241 4 14.2002 4.22386 14.2002 4.5V23.5C14.2002 23.7761 14.4241 24 14.7002 24H31.7002C31.9763 24 32.2002 23.7761 32.2002 23.5V4.5Z" stroke="white" stroke-width="0.8" stroke-miterlimit="10" stroke-linecap="round"/>
    <path d="M32.2002 22.4098C32.2002 22.7187 31.9228 22.9538 31.618 22.903L20.618 21.0696C20.3769 21.0295 20.2002 20.8209 20.2002 20.5764V7.42356C20.2002 7.17914 20.3769 6.97055 20.618 6.93037L31.618 5.09703C31.9228 5.04624 32.2002 5.28126 32.2002 5.59023V22.4098Z" stroke="white" stroke-width="0.8" stroke-miterlimit="10" stroke-linecap="round"/>
    <path d="M22.2002 13.5V14.5" stroke="white" stroke-width="0.8" stroke-miterlimit="10" stroke-linecap="round"/>
    </svg>
    