<svg width="24" height="24" viewBox="0 0 24 24" fill="none" xmlns="http://www.w3.org/2000/svg">
    <path d="M0.600293 15.3972C0.600293 13.3151 2.22733 11.6272 4.23438 11.6272H9.30029V19.1672H4.23438C2.22733 19.1672 0.600293 17.4793 0.600293 15.3972Z" stroke="white" stroke-width="0.8"/>
    <path d="M6.77441 17.3373C6.77441 17.3373 6.18765 16.4707 5.15723 16.4707C4.12682 16.4707 3.55739 17.3598 3.55739 17.3598" stroke="white" stroke-width="0.6" stroke-linecap="round"/>
    <path d="M3.66532 15.1118C4.00524 15.1118 4.28258 14.83 4.28258 14.48C4.28258 14.1301 4.00524 13.8483 3.66532 13.8483C3.32539 13.8483 3.04805 14.1301 3.04805 14.48C3.04805 14.83 3.32539 15.1118 3.66532 15.1118ZM6.3272 15.1119C6.66713 15.1119 6.94446 14.83 6.94446 14.4801C6.94446 14.1302 6.66713 13.8483 6.3272 13.8483C5.98727 13.8483 5.70994 14.1302 5.70994 14.4801C5.70994 14.83 5.98727 15.1119 6.3272 15.1119Z" fill="white" stroke="white" stroke-width="0.09643"/>
    <path d="M9.40039 3H17.5524C20.7822 3 23.4004 5.68629 23.4004 9C23.4004 12.3137 20.7822 15 17.5524 15H9.40039V3Z" stroke="white" stroke-width="0.86891"/>
    <path d="M13.7222 10.4981C13.7222 10.4981 14.4844 11.6238 15.8228 11.6238C17.1613 11.6238 17.901 10.4689 17.901 10.4689" stroke="white" stroke-width="0.651682" stroke-linecap="round"/>
    <path d="M13.8649 8.70396C14.3064 8.70396 14.6667 8.33782 14.6667 7.8833C14.6667 7.42877 14.3064 7.06263 13.8649 7.06263C13.4233 7.06263 13.0631 7.42877 13.0631 7.8833C13.0631 8.33782 13.4233 8.70396 13.8649 8.70396ZM17.3226 8.70402C17.7641 8.70402 18.1244 8.33787 18.1244 7.88335C18.1244 7.42883 17.7641 7.06268 17.3226 7.06268C16.881 7.06268 16.5208 7.42883 16.5208 7.88335C16.5208 8.33787 16.881 8.70402 17.3226 8.70402Z" fill="white" stroke="white" stroke-width="0.12526"/>
    </svg>
    