<svg width="24" height="24" viewBox="0 0 24 24" fill="none" xmlns="http://www.w3.org/2000/svg">
<mask id="path-1-outside-1_5747_108151" maskUnits="userSpaceOnUse" x="0.998535" y="1" width="21" height="22" fill="black">
<rect fill="white" x="0.998535" y="1" width="21" height="22"/>
<path fill-rule="evenodd" clip-rule="evenodd" d="M13.8701 4.89L13.5601 2.44C13.5301 2.19 13.3201 2 13.0601 2H9.95011C9.70011 2 9.48011 2.19 9.45011 2.44L9.18011 4.59C9.16011 4.77 9.03011 4.93 8.86011 4.99C8.02011 5.3 7.22011 5.78 6.53011 6.4L4.25011 5.44C4.02011 5.34 3.75011 5.43 3.62011 5.65L2.06011 8.35C1.94011 8.57 2.00011 8.85 2.20011 9L4.17011 10.49C3.96011 11.5 3.96011 12.53 4.16011 13.51H4.17011L2.20011 15C2.00011 15.15 1.94011 15.43 2.07011 15.65L3.63011 18.35C3.76011 18.57 4.03011 18.66 4.26011 18.56L6.54011 17.6L6.53011 17.61C6.90011 17.94 7.32011 18.24 7.77011 18.5C8.22011 18.76 8.68011 18.97 9.16011 19.13V19.11L9.47011 21.56C9.48011 21.81 9.70011 22 9.95011 22H13.0701C13.3201 22 13.5301 21.81 13.5701 21.56L13.8401 19.41C13.8601 19.23 13.9901 19.07 14.1601 19.01C15.0001 18.7 15.8001 18.22 16.4901 17.6L18.7701 18.56C19.0001 18.66 19.2701 18.57 19.4001 18.35L20.9601 15.65C21.0901 15.43 21.0301 15.15 20.8301 15L18.8601 13.51C19.0701 12.5 19.0701 11.47 18.8701 10.49H18.8601L20.8101 9C21.0101 8.85 21.0701 8.57 20.9401 8.35L19.3801 5.65C19.2501 5.43 18.9801 5.34 18.7501 5.44L16.4801 6.4L16.4901 6.39C16.1201 6.06 15.7001 5.76 15.2501 5.5C14.8001 5.24 14.3401 5.03 13.8601 4.87"/>
</mask>
<path d="M13.5601 2.44L13.1629 2.48766L13.1633 2.49021L13.5601 2.44ZM9.45011 2.44L9.84699 2.48984L9.84726 2.48766L9.45011 2.44ZM9.18011 4.59L8.78318 4.54015L8.78255 4.54583L9.18011 4.59ZM8.86011 4.99L8.72696 4.61277L8.72162 4.61474L8.86011 4.99ZM6.53011 6.4L6.37488 6.76865L6.60873 6.86711L6.79745 6.69753L6.53011 6.4ZM4.25011 5.44L4.0906 5.80685L4.09488 5.80865L4.25011 5.44ZM3.62011 5.65L3.27572 5.4465L3.27376 5.44989L3.62011 5.65ZM2.06011 8.35L1.71365 8.14983L1.70895 8.15846L2.06011 8.35ZM2.20011 9L2.4414 8.68097L2.44011 8.68L2.20011 9ZM4.17011 10.49L4.56173 10.5714L4.61325 10.3236L4.4114 10.171L4.17011 10.49ZM4.16011 13.51L3.76818 13.59L3.83349 13.91H4.16011V13.51ZM4.17011 13.51L4.4114 13.829L5.36206 13.11H4.17011V13.51ZM2.20011 15L2.44011 15.32L2.4414 15.319L2.20011 15ZM2.07011 15.65L2.41647 15.4499L2.41448 15.4465L2.07011 15.65ZM3.63011 18.35L3.28374 18.5501L3.28574 18.5535L3.63011 18.35ZM4.26011 18.56L4.10487 18.1913L4.10062 18.1932L4.26011 18.56ZM6.54011 17.6L6.82296 17.8828L6.38488 17.2313L6.54011 17.6ZM6.53011 17.61L6.24726 17.3272L5.9478 17.6266L6.26386 17.9085L6.53011 17.61ZM9.16011 19.13L9.03361 19.5095L9.56011 19.685V19.13H9.16011ZM9.16011 19.11L9.55694 19.0598L8.76011 19.11H9.16011ZM9.47011 21.56L9.86979 21.544L9.8691 21.5268L9.86694 21.5098L9.47011 21.56ZM13.5701 21.56L13.9653 21.6232L13.967 21.6098L13.5701 21.56ZM13.8401 19.41L14.237 19.4598L14.2377 19.4542L13.8401 19.41ZM14.1601 19.01L14.2932 19.3872L14.2986 19.3853L14.1601 19.01ZM16.4901 17.6L16.6453 17.2313L16.4115 17.1329L16.2228 17.3025L16.4901 17.6ZM18.7701 18.56L18.9296 18.1931L18.9253 18.1913L18.7701 18.56ZM19.4001 18.35L19.7445 18.5535L19.7465 18.5501L19.4001 18.35ZM20.9601 15.65L20.6157 15.4465L20.6138 15.4499L20.9601 15.65ZM20.8301 15L20.5888 15.319L20.5901 15.32L20.8301 15ZM18.8601 13.51L18.4685 13.4286L18.417 13.6764L18.6188 13.829L18.8601 13.51ZM18.8701 10.49L19.262 10.41L19.1967 10.09H18.8701V10.49ZM18.8601 10.49L18.6172 10.1722L17.6778 10.89H18.8601V10.49ZM20.8101 9L20.5701 8.67999L20.5672 8.68216L20.8101 9ZM20.9401 8.35L20.5937 8.55012L20.5957 8.55349L20.9401 8.35ZM19.3801 5.65L19.7265 5.44988L19.7245 5.44651L19.3801 5.65ZM18.7501 5.44L18.9059 5.80843L18.9096 5.80683L18.7501 5.44ZM16.4801 6.4L16.1973 6.11716L16.6359 6.76841L16.4801 6.4ZM16.4901 6.39L16.7729 6.67284L17.0724 6.37338L16.7564 6.09148L16.4901 6.39ZM14.2669 4.83979L13.9569 2.38979L13.1633 2.49021L13.4733 4.94021L14.2669 4.83979ZM13.9573 2.39234C13.9031 1.94136 13.5226 1.6 13.0601 1.6V2.4C13.1176 2.4 13.1571 2.43864 13.163 2.48766L13.9573 2.39234ZM13.0601 1.6H9.95011V2.4H13.0601V1.6ZM9.95011 1.6C9.50253 1.6 9.10766 1.93647 9.05296 2.39234L9.84726 2.48766C9.84971 2.4672 9.86029 2.44541 9.88101 2.42728C9.90202 2.40889 9.92709 2.4 9.95011 2.4V1.6ZM9.05322 2.39016L8.78322 4.54016L9.57699 4.63984L9.84699 2.48984L9.05322 2.39016ZM8.78255 4.54583C8.77991 4.56965 8.75572 4.60266 8.72698 4.6128L8.99323 5.3672C9.30449 5.25734 9.54031 4.97035 9.57766 4.63417L8.78255 4.54583ZM8.72162 4.61474C7.8339 4.94235 6.99022 5.44881 6.26276 6.10247L6.79745 6.69753C7.44999 6.1112 8.20631 5.65765 8.99859 5.36526L8.72162 4.61474ZM6.68533 6.03135L4.40533 5.07135L4.09488 5.80865L6.37488 6.76865L6.68533 6.03135ZM4.4096 5.07317C3.98912 4.89035 3.50541 5.05782 3.27573 5.44651L3.96448 5.85349C3.9948 5.80218 4.0511 5.78965 4.09062 5.80683L4.4096 5.07317ZM3.27376 5.44989L1.71376 8.14989L2.40645 8.55011L3.96645 5.85011L3.27376 5.44989ZM1.70895 8.15846C1.49452 8.55158 1.59992 9.04986 1.96011 9.32L2.44011 8.68C2.40029 8.65014 2.38569 8.58842 2.41126 8.54154L1.70895 8.15846ZM1.95881 9.31903L3.92881 10.809L4.4114 10.171L2.4414 8.68097L1.95881 9.31903ZM3.77848 10.4086C3.55748 11.4715 3.55725 12.5564 3.76818 13.59L4.55203 13.43C4.36297 12.5036 4.36273 11.5285 4.56173 10.5714L3.77848 10.4086ZM4.16011 13.91H4.17011V13.11H4.16011V13.91ZM3.92881 13.191L1.95881 14.681L2.4414 15.319L4.4114 13.829L3.92881 13.191ZM1.96011 14.68C1.59966 14.9503 1.49026 15.455 1.72573 15.8535L2.41448 15.4465C2.38995 15.405 2.40055 15.3497 2.44011 15.32L1.96011 14.68ZM1.72376 15.8501L3.28376 18.5501L3.97645 18.1499L2.41645 15.4499L1.72376 15.8501ZM3.28574 18.5535C3.51541 18.9422 3.99912 19.1096 4.4196 18.9268L4.10062 18.1932C4.06109 18.2104 4.0048 18.1978 3.97448 18.1465L3.28574 18.5535ZM4.41533 18.9287L6.69533 17.9687L6.38488 17.2313L4.10488 18.1913L4.41533 18.9287ZM6.25726 17.3172L6.24726 17.3272L6.81296 17.8928L6.82296 17.8828L6.25726 17.3172ZM6.26386 17.9085C6.65585 18.2581 7.09835 18.5738 7.56999 18.8463L7.97022 18.1537C7.54186 17.9062 7.14436 17.6219 6.79635 17.3115L6.26386 17.9085ZM7.56999 18.8463C8.04176 19.1189 8.52633 19.3404 9.03361 19.5095L9.2866 18.7505C8.83388 18.5996 8.39845 18.4011 7.97022 18.1537L7.56999 18.8463ZM9.56011 19.13V19.11H8.76011V19.13H9.56011ZM8.76327 19.1602L9.07327 21.6102L9.86694 21.5098L9.55694 19.0598L8.76327 19.1602ZM9.07043 21.576C9.08995 22.0642 9.50992 22.4 9.95011 22.4V21.6C9.92616 21.6 9.90343 21.5906 9.88769 21.5764C9.87316 21.5634 9.87011 21.552 9.86979 21.544L9.07043 21.576ZM9.95011 22.4H13.0701V21.6H9.95011V22.4ZM13.0701 22.4C13.5303 22.4 13.8962 22.0535 13.9651 21.6232L13.1751 21.4968C13.164 21.5665 13.1099 21.6 13.0701 21.6V22.4ZM13.967 21.6098L14.237 19.4598L13.4432 19.3602L13.1732 21.5102L13.967 21.6098ZM14.2377 19.4542C14.2403 19.4304 14.2645 19.3973 14.2932 19.3872L14.027 18.6328C13.7157 18.7427 13.4799 19.0296 13.4426 19.3658L14.2377 19.4542ZM14.2986 19.3853C15.1863 19.0577 16.03 18.5512 16.7575 17.8975L16.2228 17.3025C15.5702 17.8888 14.8139 18.3423 14.0216 18.6347L14.2986 19.3853ZM16.3349 17.9687L18.6149 18.9287L18.9253 18.1913L16.6453 17.2313L16.3349 17.9687ZM18.6106 18.9268C19.0311 19.1096 19.5148 18.9422 19.7445 18.5535L19.0557 18.1465C19.0254 18.1978 18.9691 18.2104 18.9296 18.1932L18.6106 18.9268ZM19.7465 18.5501L21.3064 15.8501L20.6138 15.4499L19.0538 18.1499L19.7465 18.5501ZM21.3045 15.8535C21.5399 15.455 21.4305 14.9503 21.0701 14.68L20.5901 15.32C20.6297 15.3497 20.6403 15.405 20.6157 15.4465L21.3045 15.8535ZM21.0714 14.681L19.1014 13.191L18.6188 13.829L20.5888 15.319L21.0714 14.681ZM19.2517 13.5914C19.4727 12.5285 19.473 11.4436 19.262 10.41L18.4782 10.57C18.6672 11.4964 18.6675 12.4715 18.4685 13.4286L19.2517 13.5914ZM18.8701 10.09H18.8601V10.89H18.8701V10.09ZM19.103 10.8078L21.053 9.31784L20.5672 8.68216L18.6172 10.1722L19.103 10.8078ZM21.0501 9.32C21.4105 9.04967 21.52 8.54501 21.2845 8.14651L20.5957 8.55349C20.6203 8.59499 20.6097 8.65033 20.5701 8.68L21.0501 9.32ZM21.2865 8.14989L19.7264 5.44989L19.0338 5.85011L20.5938 8.55011L21.2865 8.14989ZM19.7245 5.44651C19.4948 5.05782 19.0111 4.89035 18.5906 5.07317L18.9096 5.80683C18.9491 5.78965 19.0054 5.80218 19.0357 5.85349L19.7245 5.44651ZM18.5943 5.07159L16.3243 6.03159L16.6359 6.76841L18.9059 5.80841L18.5943 5.07159ZM16.7629 6.68284L16.7729 6.67284L16.2073 6.10716L16.1973 6.11716L16.7629 6.68284ZM16.7564 6.09148C16.3644 5.74187 15.9219 5.42616 15.4502 5.15365L15.05 5.84635C15.4783 6.09384 15.8758 6.37813 16.2239 6.68852L16.7564 6.09148ZM15.4502 5.15365C14.9785 4.88108 14.4939 4.65962 13.9866 4.49053L13.7336 5.24947C14.1863 5.40038 14.6218 5.59892 15.05 5.84635L15.4502 5.15365Z" fill="white" mask="url(#path-1-outside-1_5747_108151)"/>
<path d="M13.8701 4.89L13.5601 2.44C13.5301 2.19 13.3201 2 13.0601 2H9.95011C9.70011 2 9.48011 2.19 9.45011 2.44L9.18011 4.59C9.16011 4.77 9.03011 4.93 8.86011 4.99C8.02011 5.3 7.22011 5.78 6.53011 6.4L4.25011 5.44C4.02011 5.34 3.75011 5.43 3.62011 5.65L2.06011 8.35C1.94011 8.57 2.00011 8.85 2.20011 9L4.17011 10.49C3.96011 11.5 3.96011 12.53 4.16011 13.51H4.17011L2.20011 15C2.00011 15.15 1.94011 15.43 2.07011 15.65L3.63011 18.35C3.76011 18.57 4.03011 18.66 4.26011 18.56L6.54011 17.6L6.53011 17.61C6.90011 17.94 7.32011 18.24 7.77011 18.5C8.22011 18.76 8.68011 18.97 9.16011 19.13V19.11L9.47011 21.56C9.48011 21.81 9.70011 22 9.95011 22H13.0701C13.3201 22 13.5301 21.81 13.5701 21.56L13.8401 19.41C13.8601 19.23 13.9901 19.07 14.1601 19.01C15.0001 18.7 15.8001 18.22 16.4901 17.6L18.7701 18.56C19.0001 18.66 19.2701 18.57 19.4001 18.35L20.9601 15.65C21.0901 15.43 21.0301 15.15 20.8301 15L18.8601 13.51C19.0701 12.5 19.0701 11.47 18.8701 10.49H18.8601L20.8101 9C21.0101 8.85 21.0701 8.57 20.9401 8.35L19.3801 5.65C19.2501 5.43 18.9801 5.34 18.7501 5.44L16.4801 6.4L16.4901 6.39C16.1201 6.06 15.7001 5.76 15.2501 5.5C14.8001 5.24 14.3401 5.03 13.8601 4.87" stroke="white" strokeWidth="0.7" stroke-miterlimit="10" strokeLinecap="round" strokeLinejoin="round"/>
<path d="M11.5098 16C13.7189 16 15.5098 14.2091 15.5098 12C15.5098 9.79086 13.7189 8 11.5098 8C9.30063 8 7.50977 9.79086 7.50977 12C7.50977 14.2091 9.30063 16 11.5098 16Z" stroke="white" strokeWidth="0.8" stroke-miterlimit="10" strokeLinecap="round" strokeLinejoin="round"/>
</svg>
