<svg width="46" height="28" viewBox="0 0 46 28" fill="none" xmlns="http://www.w3.org/2000/svg">
    <mask id="path-2-outside-1_5497_1591" maskUnits="userSpaceOnUse" x="11.9985" y="3" width="21" height="22" fill="black">
    <rect fill="white" x="11.9985" y="3" width="21" height="22"/>
    <path fill-rule="evenodd" clip-rule="evenodd" d="M24.8701 6.89L24.5601 4.44C24.5301 4.19 24.3201 4 24.0601 4H20.9501C20.7001 4 20.4801 4.19 20.4501 4.44L20.1801 6.59C20.1601 6.77 20.0301 6.93 19.8601 6.99C19.0201 7.3 18.2201 7.78 17.5301 8.4L15.2501 7.44C15.0201 7.34 14.7501 7.43 14.6201 7.65L13.0601 10.35C12.9401 10.57 13.0001 10.85 13.2001 11L15.1701 12.49C14.9601 13.5 14.9601 14.53 15.1601 15.51H15.1701L13.2001 17C13.0001 17.15 12.9401 17.43 13.0701 17.65L14.6301 20.35C14.7601 20.57 15.0301 20.66 15.2601 20.56L17.5401 19.6L17.5301 19.61C17.9001 19.94 18.3201 20.24 18.7701 20.5C19.2201 20.76 19.6801 20.97 20.1601 21.13V21.11L20.4701 23.56C20.4801 23.81 20.7001 24 20.9501 24H24.0701C24.3201 24 24.5301 23.81 24.5701 23.56L24.8401 21.41C24.8601 21.23 24.9901 21.07 25.1601 21.01C26.0001 20.7 26.8001 20.22 27.4901 19.6L29.7701 20.56C30.0001 20.66 30.2701 20.57 30.4001 20.35L31.9601 17.65C32.0901 17.43 32.0301 17.15 31.8301 17L29.8601 15.51C30.0701 14.5 30.0701 13.47 29.8701 12.49H29.8601L31.8101 11C32.0101 10.85 32.0701 10.57 31.9401 10.35L30.3801 7.65C30.2501 7.43 29.9801 7.34 29.7501 7.44L27.4801 8.4L27.4901 8.39C27.1201 8.06 26.7001 7.76 26.2501 7.5C25.8001 7.24 25.3401 7.03 24.8601 6.87"/>
    </mask>
    <path d="M24.5601 4.44L24.1629 4.48766L24.1633 4.49021L24.5601 4.44ZM20.4501 4.44L20.847 4.48984L20.8473 4.48766L20.4501 4.44ZM20.1801 6.59L19.7832 6.54015L19.7826 6.54583L20.1801 6.59ZM19.8601 6.99L19.727 6.61277L19.7216 6.61474L19.8601 6.99ZM17.5301 8.4L17.3749 8.76865L17.6087 8.86711L17.7975 8.69753L17.5301 8.4ZM15.2501 7.44L15.0906 7.80685L15.0949 7.80865L15.2501 7.44ZM14.6201 7.65L14.2757 7.4465L14.2738 7.44989L14.6201 7.65ZM13.0601 10.35L12.7137 10.1498L12.7089 10.1585L13.0601 10.35ZM13.2001 11L13.4414 10.681L13.4401 10.68L13.2001 11ZM15.1701 12.49L15.5617 12.5714L15.6132 12.3236L15.4114 12.171L15.1701 12.49ZM15.1601 15.51L14.7682 15.59L14.8335 15.91H15.1601V15.51ZM15.1701 15.51L15.4114 15.829L16.3621 15.11H15.1701V15.51ZM13.2001 17L13.4401 17.32L13.4414 17.319L13.2001 17ZM13.0701 17.65L13.4165 17.4499L13.4145 17.4465L13.0701 17.65ZM14.6301 20.35L14.2837 20.5501L14.2857 20.5535L14.6301 20.35ZM15.2601 20.56L15.1049 20.1913L15.1006 20.1932L15.2601 20.56ZM17.5401 19.6L17.823 19.8828L17.3849 19.2313L17.5401 19.6ZM17.5301 19.61L17.2473 19.3272L16.9478 19.6266L17.2639 19.9085L17.5301 19.61ZM20.1601 21.13L20.0336 21.5095L20.5601 21.685V21.13H20.1601ZM20.1601 21.11L20.5569 21.0598L19.7601 21.11H20.1601ZM20.4701 23.56L20.8698 23.544L20.8691 23.5268L20.8669 23.5098L20.4701 23.56ZM24.5701 23.56L24.9653 23.6232L24.967 23.6098L24.5701 23.56ZM24.8401 21.41L25.237 21.4598L25.2377 21.4542L24.8401 21.41ZM25.1601 21.01L25.2932 21.3872L25.2986 21.3853L25.1601 21.01ZM27.4901 19.6L27.6453 19.2313L27.4115 19.1329L27.2228 19.3025L27.4901 19.6ZM29.7701 20.56L29.9296 20.1931L29.9253 20.1913L29.7701 20.56ZM30.4001 20.35L30.7445 20.5535L30.7465 20.5501L30.4001 20.35ZM31.9601 17.65L31.6157 17.4465L31.6138 17.4499L31.9601 17.65ZM31.8301 17L31.5888 17.319L31.5901 17.32L31.8301 17ZM29.8601 15.51L29.4685 15.4286L29.417 15.6764L29.6188 15.829L29.8601 15.51ZM29.8701 12.49L30.262 12.41L30.1967 12.09H29.8701V12.49ZM29.8601 12.49L29.6172 12.1722L28.6778 12.89H29.8601V12.49ZM31.8101 11L31.5701 10.68L31.5672 10.6822L31.8101 11ZM31.9401 10.35L31.5937 10.5501L31.5957 10.5535L31.9401 10.35ZM30.3801 7.65L30.7265 7.44988L30.7245 7.44651L30.3801 7.65ZM29.7501 7.44L29.9059 7.80843L29.9096 7.80683L29.7501 7.44ZM27.4801 8.4L27.1973 8.11716L27.6359 8.76841L27.4801 8.4ZM27.4901 8.39L27.7729 8.67284L28.0724 8.37338L27.7564 8.09148L27.4901 8.39ZM25.2669 6.83979L24.9569 4.38979L24.1633 4.49021L24.4733 6.94021L25.2669 6.83979ZM24.9573 4.39234C24.9031 3.94136 24.5226 3.6 24.0601 3.6V4.4C24.1176 4.4 24.1571 4.43864 24.163 4.48766L24.9573 4.39234ZM24.0601 3.6H20.9501V4.4H24.0601V3.6ZM20.9501 3.6C20.5025 3.6 20.1077 3.93647 20.053 4.39234L20.8473 4.48766C20.8497 4.4672 20.8603 4.44541 20.881 4.42728C20.902 4.40889 20.9271 4.4 20.9501 4.4V3.6ZM20.0532 4.39016L19.7832 6.54016L20.577 6.63984L20.847 4.48984L20.0532 4.39016ZM19.7826 6.54583C19.7799 6.56965 19.7557 6.60266 19.727 6.6128L19.9932 7.3672C20.3045 7.25734 20.5403 6.97035 20.5777 6.63417L19.7826 6.54583ZM19.7216 6.61474C18.8339 6.94235 17.9902 7.44881 17.2628 8.10247L17.7975 8.69753C18.45 8.1112 19.2063 7.65765 19.9986 7.36526L19.7216 6.61474ZM17.6853 8.03135L15.4053 7.07135L15.0949 7.80865L17.3749 8.76865L17.6853 8.03135ZM15.4096 7.07317C14.9891 6.89035 14.5054 7.05782 14.2757 7.44651L14.9645 7.85349C14.9948 7.80218 15.0511 7.78965 15.0906 7.80683L15.4096 7.07317ZM14.2738 7.44989L12.7138 10.1499L13.4065 10.5501L14.9665 7.85011L14.2738 7.44989ZM12.7089 10.1585C12.4945 10.5516 12.5999 11.0499 12.9601 11.32L13.4401 10.68C13.4003 10.6501 13.3857 10.5884 13.4113 10.5415L12.7089 10.1585ZM12.9588 11.319L14.9288 12.809L15.4114 12.171L13.4414 10.681L12.9588 11.319ZM14.7785 12.4086C14.5575 13.4715 14.5572 14.5564 14.7682 15.59L15.552 15.43C15.363 14.5036 15.3627 13.5285 15.5617 12.5714L14.7785 12.4086ZM15.1601 15.91H15.1701V15.11H15.1601V15.91ZM14.9288 15.191L12.9588 16.681L13.4414 17.319L15.4114 15.829L14.9288 15.191ZM12.9601 16.68C12.5997 16.9503 12.4903 17.455 12.7257 17.8535L13.4145 17.4465C13.39 17.405 13.4005 17.3497 13.4401 17.32L12.9601 16.68ZM12.7238 17.8501L14.2838 20.5501L14.9765 20.1499L13.4165 17.4499L12.7238 17.8501ZM14.2857 20.5535C14.5154 20.9422 14.9991 21.1096 15.4196 20.9268L15.1006 20.1932C15.0611 20.2104 15.0048 20.1978 14.9745 20.1465L14.2857 20.5535ZM15.4153 20.9287L17.6953 19.9687L17.3849 19.2313L15.1049 20.1913L15.4153 20.9287ZM17.2573 19.3172L17.2473 19.3272L17.813 19.8928L17.823 19.8828L17.2573 19.3172ZM17.2639 19.9085C17.6558 20.2581 18.0983 20.5738 18.57 20.8463L18.9702 20.1537C18.5419 19.9062 18.1444 19.6219 17.7964 19.3115L17.2639 19.9085ZM18.57 20.8463C19.0418 21.1189 19.5263 21.3404 20.0336 21.5095L20.2866 20.7505C19.8339 20.5996 19.3985 20.4011 18.9702 20.1537L18.57 20.8463ZM20.5601 21.13V21.11H19.7601V21.13H20.5601ZM19.7633 21.1602L20.0733 23.6102L20.8669 23.5098L20.5569 21.0598L19.7633 21.1602ZM20.0704 23.576C20.09 24.0642 20.5099 24.4 20.9501 24.4V23.6C20.9262 23.6 20.9034 23.5906 20.8877 23.5764C20.8732 23.5634 20.8701 23.552 20.8698 23.544L20.0704 23.576ZM20.9501 24.4H24.0701V23.6H20.9501V24.4ZM24.0701 24.4C24.5303 24.4 24.8962 24.0535 24.9651 23.6232L24.1751 23.4968C24.164 23.5665 24.1099 23.6 24.0701 23.6V24.4ZM24.967 23.6098L25.237 21.4598L24.4432 21.3602L24.1732 23.5102L24.967 23.6098ZM25.2377 21.4542C25.2403 21.4304 25.2645 21.3973 25.2932 21.3872L25.027 20.6328C24.7157 20.7427 24.4799 21.0296 24.4426 21.3658L25.2377 21.4542ZM25.2986 21.3853C26.1863 21.0577 27.03 20.5512 27.7575 19.8975L27.2228 19.3025C26.5702 19.8888 25.8139 20.3423 25.0216 20.6347L25.2986 21.3853ZM27.3349 19.9687L29.6149 20.9287L29.9253 20.1913L27.6453 19.2313L27.3349 19.9687ZM29.6106 20.9268C30.0311 21.1096 30.5148 20.9422 30.7445 20.5535L30.0557 20.1465C30.0254 20.1978 29.9691 20.2104 29.9296 20.1932L29.6106 20.9268ZM30.7465 20.5501L32.3064 17.8501L31.6138 17.4499L30.0538 20.1499L30.7465 20.5501ZM32.3045 17.8535C32.5399 17.455 32.4305 16.9503 32.0701 16.68L31.5901 17.32C31.6297 17.3497 31.6403 17.405 31.6157 17.4465L32.3045 17.8535ZM32.0714 16.681L30.1014 15.191L29.6188 15.829L31.5888 17.319L32.0714 16.681ZM30.2517 15.5914C30.4727 14.5285 30.473 13.4436 30.262 12.41L29.4782 12.57C29.6672 13.4964 29.6675 14.4715 29.4685 15.4286L30.2517 15.5914ZM29.8701 12.09H29.8601V12.89H29.8701V12.09ZM30.103 12.8078L32.053 11.3178L31.5672 10.6822L29.6172 12.1722L30.103 12.8078ZM32.0501 11.32C32.4105 11.0497 32.52 10.545 32.2845 10.1465L31.5957 10.5535C31.6203 10.595 31.6097 10.6503 31.5701 10.68L32.0501 11.32ZM32.2865 10.1499L30.7264 7.44989L30.0338 7.85011L31.5938 10.5501L32.2865 10.1499ZM30.7245 7.44651C30.4948 7.05782 30.0111 6.89035 29.5906 7.07317L29.9096 7.80683C29.9491 7.78965 30.0054 7.80218 30.0357 7.85349L30.7245 7.44651ZM29.5943 7.07159L27.3243 8.03159L27.6359 8.76841L29.9059 7.80841L29.5943 7.07159ZM27.7629 8.68284L27.7729 8.67284L27.2073 8.10716L27.1973 8.11716L27.7629 8.68284ZM27.7564 8.09148C27.3644 7.74187 26.9219 7.42616 26.4502 7.15365L26.05 7.84635C26.4783 8.09384 26.8758 8.37813 27.2239 8.68852L27.7564 8.09148ZM26.4502 7.15365C25.9785 6.88108 25.4939 6.65962 24.9866 6.49053L24.7336 7.24947C25.1863 7.40038 25.6218 7.59892 26.05 7.84635L26.4502 7.15365Z" fill="white" mask="url(#path-2-outside-1_5497_1591)"/>
    <path d="M24.8701 6.89L24.5601 4.44C24.5301 4.19 24.3201 4 24.0601 4H20.9501C20.7001 4 20.4801 4.19 20.4501 4.44L20.1801 6.59C20.1601 6.77 20.0301 6.93 19.8601 6.99C19.0201 7.3 18.2201 7.78 17.5301 8.4L15.2501 7.44C15.0201 7.34 14.7501 7.43 14.6201 7.65L13.0601 10.35C12.9401 10.57 13.0001 10.85 13.2001 11L15.1701 12.49C14.9601 13.5 14.9601 14.53 15.1601 15.51H15.1701L13.2001 17C13.0001 17.15 12.9401 17.43 13.0701 17.65L14.6301 20.35C14.7601 20.57 15.0301 20.66 15.2601 20.56L17.5401 19.6L17.5301 19.61C17.9001 19.94 18.3201 20.24 18.7701 20.5C19.2201 20.76 19.6801 20.97 20.1601 21.13V21.11L20.4701 23.56C20.4801 23.81 20.7001 24 20.9501 24H24.0701C24.3201 24 24.5301 23.81 24.5701 23.56L24.8401 21.41C24.8601 21.23 24.9901 21.07 25.1601 21.01C26.0001 20.7 26.8001 20.22 27.4901 19.6L29.7701 20.56C30.0001 20.66 30.2701 20.57 30.4001 20.35L31.9601 17.65C32.0901 17.43 32.0301 17.15 31.8301 17L29.8601 15.51C30.0701 14.5 30.0701 13.47 29.8701 12.49H29.8601L31.8101 11C32.0101 10.85 32.0701 10.57 31.9401 10.35L30.3801 7.65C30.2501 7.43 29.9801 7.34 29.7501 7.44L27.4801 8.4L27.4901 8.39C27.1201 8.06 26.7001 7.76 26.2501 7.5C25.8001 7.24 25.3401 7.03 24.8601 6.87" stroke="white" stroke-width="0.7" stroke-miterlimit="10" stroke-linecap="round" stroke-linejoin="round"/>
    <path d="M22.5098 18C24.7189 18 26.5098 16.2091 26.5098 14C26.5098 11.7909 24.7189 10 22.5098 10C20.3006 10 18.5098 11.7909 18.5098 14C18.5098 16.2091 20.3006 18 22.5098 18Z" stroke="white" stroke-width="0.8" stroke-miterlimit="10" stroke-linecap="round" stroke-linejoin="round"/>
    </svg>
    