<svg width="25" height="24" viewBox="0 0 25 24" fill="none" xmlns="http://www.w3.org/2000/svg">
<path d="M11.4134 12.4952V4.12943C11.4134 3.22988 12.1439 2.50024 13.0445 2.50024C13.9452 2.50024 14.6757 3.22988 14.6757 4.12943V12.4952V5.62868C14.6757 4.72913 15.4062 3.99949 16.3068 3.99949C17.2074 3.99949 17.9379 4.72913 17.9379 5.62868V12.4952H17.9479V9.02698C17.9479 8.1874 18.6784 7.49774 19.5791 7.49774C20.4697 7.49774 21.2002 8.1874 21.2002 9.02698V17.0029C21.2002 20.0514 18.5884 22.5002 15.3361 22.5002H13.9552C12.5742 22.5002 11.3434 22.0404 10.3727 21.3508L3.68803 15.1739C3.03758 14.5642 3.03758 13.5147 3.68803 12.905C4.33848 12.2953 5.31916 12.4252 5.96961 13.0349L8.15113 15.0139V6.52823C8.15113 5.68865 8.88164 4.99899 9.78226 4.99899C10.6829 4.99899 11.4134 5.68865 11.4134 6.52823V12.5752" stroke="white" stroke-width="0.872727" stroke-linecap="round" stroke-linejoin="round"/>
</svg>
