<svg width="47" height="28" viewBox="0 0 47 28" fill="none" xmlns="http://www.w3.org/2000/svg">
    <path d="M22.4134 14.4952V6.12943C22.4134 5.22988 23.1439 4.50024 24.0445 4.50024C24.9452 4.50024 25.6757 5.22988 25.6757 6.12943V14.4952V7.62868C25.6757 6.72913 26.4062 5.99949 27.3068 5.99949C28.2074 5.99949 28.9379 6.72913 28.9379 7.62868V14.4952H28.9479V11.027C28.9479 10.1874 29.6784 9.49774 30.5791 9.49774C31.4697 9.49774 32.2002 10.1874 32.2002 11.027V19.0029C32.2002 22.0514 29.5884 24.5002 26.3361 24.5002H24.9552C23.5742 24.5002 22.3434 24.0404 21.3727 23.3508L14.688 17.1739C14.0376 16.5642 14.0376 15.5147 14.688 14.905C15.3385 14.2953 16.3192 14.4252 16.9696 15.0349L19.1511 17.0139V8.52823C19.1511 7.68865 19.8816 6.99899 20.7823 6.99899C21.6829 6.99899 22.4134 7.68865 22.4134 8.52823V14.5752" stroke="white" stroke-width="0.872727" stroke-linecap="round" stroke-linejoin="round"/>
    </svg>
    