<svg fill="none" xmlns="http://www.w3.org/2000/svg" viewBox="0 0 22 18"><g clip-path="url(#a)"><path d="M5.5.5h14.76c.58 0 1.01.44 1.01.9 0 .48-.42.91-.98.91H5.5c-.57 0-.98-.43-.98-.9 0-.48.41-.91.98-.91ZM.63 1.4c0-.54.4-.9.78-.9s.78.36.78.9c0 .55-.4.91-.78.91-.39 0-.78-.36-.78-.9Z" fill="currentColor" stroke="currentColor"/><path d="M20.13 5.06H5.37c-.82 0-1.48.63-1.48 1.4 0 .78.66 1.42 1.48 1.42h14.79c.82 0 1.48-.64 1.48-1.41 0-.78-.69-1.4-1.5-1.4ZM1.28 5.06C.58 5.06 0 5.7 0 6.46c0 .78.57 1.42 1.28 1.42.7 0 1.28-.64 1.28-1.41 0-.78-.58-1.4-1.28-1.4ZM20.13 10.4H5.37c-.82 0-1.48.64-1.48 1.41 0 .78.66 1.4 1.48 1.4h14.79c.82 0 1.48-.62 1.48-1.4 0-.77-.69-1.4-1.5-1.4ZM1.28 10.4c-.7 0-1.28.64-1.28 1.41 0 .78.57 1.4 1.28 1.4.7 0 1.28-.62 1.28-1.4 0-.77-.58-1.4-1.28-1.4ZM20.13 15.19H5.37c-.82 0-1.48.63-1.48 1.4 0 .78.66 1.41 1.48 1.41h14.79c.82 0 1.48-.63 1.48-1.4 0-.78-.69-1.41-1.5-1.41ZM1.28 15.19c-.7 0-1.28.63-1.28 1.4C0 17.37.57 18 1.28 18c.7 0 1.28-.63 1.28-1.4 0-.78-.58-1.41-1.28-1.41Z" fill="#C5DBE9"/></g><defs><clipPath id="a"><path fill="#fff" d="M0 0h22v18H0z"/></clipPath></defs></svg>