<svg width="24" height="24" viewBox="0 0 24 24" fill="none" xmlns="http://www.w3.org/2000/svg">
    <path
        d="M14 4C14 4.66667 13.3333 6 12 6C10.6667 6 10 4.98157 10 4C10 2.66667 11.1076 2 12 2C12.8924 2 14 2.66667 14 4Z"
        fill="#FF7979" />
    <path
        d="M15 10L14.6646 8.21146C14.4242 6.92919 13.3046 6 12 6C10.6954 6 9.57578 6.92919 9.33535 8.21146L9 10H15Z"
        fill="#FF7979" />
    <path
        d="M14 16C14 16.6667 13.3333 18 12 18C10.6667 18 10 16.9816 10 16C10 14.6667 11.1076 14 12 14C12.8924 14 14 14.6667 14 16Z"
        fill="#54CFFF" />
    <path
        d="M15 22L14.6646 20.2115C14.4242 18.9292 13.3046 18 12 18C10.6954 18 9.57578 18.9292 9.33535 20.2115L9 22H15Z"
        fill="#54CFFF" />
    <path
        d="M7 15C7 15.6667 6.33333 17 5 17C3.66667 17 3 15.9816 3 15C3 13.6667 4.10756 13 5 13C5.89245 13 7 13.6667 7 15Z"
        fill="#72A2FF" />
    <path
        d="M8 21L7.66465 19.2115C7.42422 17.9292 6.30461 17 5 17C3.69539 17 2.57578 17.9292 2.33535 19.2115L2 21H8Z"
        fill="#72A2FF" />
    <path
        d="M21 15C21 15.6667 20.3333 17 19 17C17.6667 17 17 15.9816 17 15C17 13.6667 18.1076 13 19 13C19.8924 13 21 13.6667 21 15Z"
        fill="#0072ED" />
    <path
        d="M22 21L21.6646 19.2115C21.4242 17.9292 20.3046 17 19 17C17.6954 17 16.5758 17.9292 16.3354 19.2115L16 21H22Z"
        fill="#0072ED" />
</svg>
    