<svg width="44" height="36" viewBox="0 0 44 36" fill="none" xmlns="http://www.w3.org/2000/svg">
<rect width="44" height="36" rx="2" fill="white"/>
<path fillRule="evenodd" clipRule="evenodd" d="M22.0001 12.167C22.4603 12.167 22.8334 12.5401 22.8334 13.0003V17.167H27.0001C27.4603 17.167 27.8334 17.5401 27.8334 18.0003C27.8334 18.4606 27.4603 18.8337 27.0001 18.8337H22.8334V23.0003C22.8334 23.4606 22.4603 23.8337 22.0001 23.8337C21.5398 23.8337 21.1667 23.4606 21.1667 23.0003V18.8337L17.0001 18.8337C16.5398 18.8337 16.1667 18.4606 16.1667 18.0003C16.1667 17.5401 16.5398 17.167 17.0001 17.167L21.1667 17.167V13.0003C21.1667 12.5401 21.5398 12.167 22.0001 12.167Z" fill="#4E88C7"/>
</svg>
