<svg width="84" height="84" viewBox="0 0 84 84" fill="none" xmlns="http://www.w3.org/2000/svg">
<path d="M34.3249 30.375C33.2073 30.375 32.4822 29.1968 32.9858 28.1991L40.9259 12.4687C41.071 12.1813 41.3655 12 41.6875 12C42.0095 12 42.304 12.1813 42.4491 12.4687L50.3892 28.1991C50.8928 29.1968 50.1677 30.375 49.0501 30.375H34.3249ZM39.0625 67.7069C39.0625 69.1099 37.3083 69.745 36.4102 68.6672L10.9252 38.0853C10.1111 37.1083 10.8058 35.625 12.0776 35.625H37.5625C38.3909 35.625 39.0625 36.2966 39.0625 37.125V67.7069ZM46.9648 68.6672C46.0667 69.745 44.3125 69.1099 44.3125 67.7069V37.125C44.3125 36.2966 44.9841 35.625 45.8125 35.625H71.2974C72.5692 35.625 73.2639 37.1083 72.4498 38.0853L46.9648 68.6672ZM58.1935 30.375C57.6233 30.375 57.1024 30.0517 56.8493 29.5407L49.235 14.1657C48.7413 13.1687 49.4667 12 50.5792 12H65.2604C65.8286 12 66.348 12.321 66.6021 12.8292L74.2896 28.2042C74.7883 29.2015 74.063 30.375 72.948 30.375H58.1935ZM10.4271 30.375C9.31198 30.375 8.58673 29.2015 9.08541 28.2042L16.7729 12.8292C17.027 12.321 17.5464 12 18.1146 12H32.7958C33.9083 12 34.6337 13.1687 34.14 14.1657L26.5257 29.5407C26.2726 30.0517 25.7517 30.375 25.1815 30.375H10.4271Z" fill="white"/>
</svg>
