<svg width="24" height="24" viewBox="0 0 24 24" fill="none" xmlns="http://www.w3.org/2000/svg">
<path d="M16.07 4.93047C15.2658 4.12465 14.2405 3.57568 13.124 3.35313C12.0076 3.13058 10.8501 3.24446 9.79845 3.68035C8.74676 4.11623 7.84812 4.8545 7.21641 5.80161C6.58471 6.74871 6.24837 7.86203 6.25001 9.00047C6.25001 9.19938 6.32902 9.39015 6.46968 9.5308C6.61033 9.67145 6.80109 9.75047 7.00001 9.75047C7.19892 9.75047 7.38968 9.67145 7.53034 9.5308C7.67099 9.39015 7.75001 9.19938 7.75001 9.00047C7.74803 8.15708 7.99644 7.33207 8.46378 6.62999C8.93111 5.9279 9.59633 5.38034 10.3752 5.05667C11.154 4.733 12.0113 4.6478 12.8386 4.81185C13.6659 4.97591 14.4259 5.38184 15.0223 5.97821C15.6186 6.57458 16.0246 7.33456 16.1886 8.16185C16.3527 8.98914 16.2675 9.84651 15.9438 10.6253C15.6201 11.4041 15.0726 12.0694 14.3705 12.5367C13.6684 13.004 12.8434 13.2524 12 13.2505C11.8019 13.2531 11.6126 13.3329 11.4725 13.473C11.3324 13.6131 11.2526 13.8024 11.25 14.0005V16.0005C11.25 16.1994 11.329 16.3902 11.4697 16.5308C11.6103 16.6715 11.8011 16.7505 12 16.7505C12.1989 16.7505 12.3897 16.6715 12.5303 16.5308C12.671 16.3902 12.75 16.1994 12.75 16.0005V14.7005C13.813 14.5581 14.8152 14.1217 15.6436 13.4404C16.472 12.7592 17.0938 11.8602 17.4389 10.8447C17.784 9.82923 17.8387 8.73755 17.5968 7.69263C17.355 6.64772 16.8262 5.69109 16.07 4.93047Z" fill="currentColor"/>
<path d="M12 20.75C12.6904 20.75 13.25 20.1904 13.25 19.5C13.25 18.8096 12.6904 18.25 12 18.25C11.3096 18.25 10.75 18.8096 10.75 19.5C10.75 20.1904 11.3096 20.75 12 20.75Z" fill="currentColor"/>
</svg>
