<svg width="1rem" height="1rem" viewBox="0 0 14 16" fill="none" xmlns="http://www.w3.org/2000/svg">
<rect x="9.87476" y="8.41663" width="1.33333" height="6.66667" rx="0.666667" fill="#4789D1"/>
<rect x="7.20837" y="12.4159" width="1.33333" height="6.66667" rx="0.666667" transform="rotate(-90 7.20837 12.4159)" fill="#4789D1"/>
<path d="M8.51671 1.90654C7.84656 1.23502 6.99215 0.777544 6.06175 0.592085C5.13135 0.406625 4.16683 0.501528 3.29042 0.864766C2.414 1.228 1.66514 1.84323 1.13872 2.63248C0.612298 3.42174 0.332012 4.3495 0.333379 5.2982C0.333379 5.46396 0.399227 5.62294 0.516437 5.74015C0.633647 5.85736 0.792619 5.9232 0.958379 5.9232C1.12414 5.9232 1.28311 5.85736 1.40032 5.74015C1.51753 5.62294 1.58338 5.46396 1.58338 5.2982C1.58173 4.59537 1.78874 3.90787 2.17819 3.3228C2.56763 2.73773 3.12198 2.28143 3.771 2.0117C4.42002 1.74198 5.13449 1.67098 5.8239 1.80769C6.51331 1.9444 7.14662 2.28267 7.6436 2.77965C8.14058 3.27663 8.47885 3.90994 8.61556 4.59935C8.75227 5.28876 8.68127 6.00323 8.41155 6.65225C8.14182 7.30127 7.68552 7.85562 7.10045 8.24506C6.51538 8.63451 5.82788 8.84152 5.12505 8.83987C4.95996 8.84203 4.80224 8.90857 4.68549 9.02532C4.56875 9.14206 4.5022 9.29978 4.50005 9.46487V11.1315C4.50005 11.2973 4.56589 11.4563 4.6831 11.5735C4.80031 11.6907 4.95929 11.7565 5.12505 11.7565C5.29081 11.7565 5.44978 11.6907 5.56699 11.5735C5.6842 11.4563 5.75005 11.2973 5.75005 11.1315V10.0482C6.63591 9.92952 7.47105 9.56587 8.1614 8.99818C8.85174 8.4305 9.36988 7.68134 9.65745 6.83509C9.94502 5.98884 9.9906 5.0791 9.78906 4.20834C9.58752 3.33758 9.14686 2.54038 8.51671 1.90654Z" fill="#4789D1"/>
<path d="M5.12504 15.0894C5.70034 15.0894 6.16671 14.6231 6.16671 14.0478C6.16671 13.4725 5.70034 13.0061 5.12504 13.0061C4.54974 13.0061 4.08337 13.4725 4.08337 14.0478C4.08337 14.6231 4.54974 15.0894 5.12504 15.0894Z" fill="#4789D1"/>
</svg>
