<svg fill="none" xmlns="http://www.w3.org/2000/svg" viewBox="0 0 22 21"><path d="M1.043 15.441h1.905c1.706 0 3.293-.876 4.455-2.326l.556 1.02c-1.34 1.74-3.157 2.718-5.01 2.718H1.042c-.07 0-.166-.036-.262-.162a.913.913 0 0 1-.168-.544c0-.52.314-.705.43-.705ZM17.373 6.471h.5v-.5H15.9c-1.706 0-3.295.877-4.443 2.35l-.566-1.017c1.34-1.738 3.157-2.715 5.009-2.715h1.974v-.5h-.5.5V1.892a96.507 96.507 0 0 0 1.934 1.935c.353.346.678.663.915.893l.282.273.077.075.02.02.006.005.001.001.348-.36-.348.36.008.008.008.007c.07.062.12.107.155.143-.036.044-.09.104-.172.183l-.005.005-3.228 3.227V6.471h-.5Zm3.97-1.145v-.001Z" fill="currentColor" stroke="currentColor"/><path d="m21.456 15.618-3.266-3.236c-.613-.647-.84-.794-.84.53v2.059h-1.474c-1.86 0-3.629-1.177-4.717-3.147L9.163 8.206c-1.43-2.588-3.765-4.118-6.215-4.118H1.043c-.499 0-.93.53-.93 1.206 0 .677.409 1.206.93 1.206h1.905c1.86 0 3.63 1.177 4.718 3.147l1.996 3.618c1.429 2.588 3.765 4.117 6.214 4.117h1.474v2.06c0 1.411.227 1.117.84.529l3.266-3.236c.544-.588.544-.588 0-1.117Z" fill="#C5DBE9"/></svg>