<svg width="44" height="44" viewBox="0 0 44 44" fill="none" xmlns="http://www.w3.org/2000/svg">
  <path d="M0 0H32C38.6274 0 44 5.37258 44 12V32C44 38.6274 38.6274 44 32 44H0V0Z" fill="white"/>
  <path d="M30.3335 26.1667V15.3334C30.3335 14.4167 29.5835 13.6667 28.6668 13.6667L15.3335 13.6667C14.4168 13.6667 13.6668 14.4167 13.6668 15.3334V28.6667C13.6668 29.5834 14.4168 30.3334 15.3335 30.3334H26.1668L30.3335 26.1667Z" stroke="currentColor" stroke-width="0.916667" stroke-miterlimit="10" stroke-linecap="round" stroke-linejoin="round"/>
  <path d="M17.0002 21.9999C17.0002 23.6108 18.306 24.9166 19.9168 24.9166C21.5277 24.9166 22.8335 23.6108 22.8335 21.9999C22.8335 20.3891 21.5277 19.0833 19.9168 19.0833C18.306 19.0833 17.0002 20.3891 17.0002 21.9999Z" stroke="currentColor" stroke-width="0.916667" stroke-miterlimit="10" stroke-linecap="round" stroke-linejoin="round"/>
  <path d="M30.3335 22.0001H26.1668V13.6667H28.6668C29.5835 13.6667 30.3335 14.4167 30.3335 15.3334V22.0001Z" stroke="currentColor" stroke-width="0.916667" stroke-miterlimit="10" stroke-linecap="round" stroke-linejoin="round"/>
</svg>
