<svg width="20" height="20" viewBox="0 0 20 20" fill="none" xmlns="http://www.w3.org/2000/svg">
    <path d="M18.333 14.1667V3.33341C18.333 2.41675 17.583 1.66675 16.6663 1.66675L3.33301 1.66675C2.41634 1.66675 1.66634 2.41675 1.66634 3.33341V16.6667C1.66634 17.5834 2.41634 18.3334 3.33301 18.3334H14.1663L18.333 14.1667Z" stroke="currentColor" strokeWidth="0.916667" strokeMiterlimit="10" strokeLinecap="round" strokeLinejoin="round"/>
    <path d="M5.00016 9.99992C5.00016 11.6108 6.306 12.9166 7.91683 12.9166C9.52766 12.9166 10.8335 11.6108 10.8335 9.99992C10.8335 8.38909 9.52766 7.08325 7.91683 7.08325C6.306 7.08325 5.00016 8.38909 5.00016 9.99992Z" stroke="currentColor" strokeWidth="0.916667" strokeMiterlimit="10" strokeLinecap="round" strokeLinejoin="round"/>
    <path d="M18.333 10.0001H14.1663V1.66675L16.6663 1.66675C17.583 1.66675 18.333 2.41675 18.333 3.33341V10.0001Z" stroke="currentColor" strokeWidth="0.916667" strokeMiterlimit="10" strokeLinecap="round" strokeLinejoin="round"/>
    </svg>
    