<svg width="24" height="24" fill="none" xmlns="http://www.w3.org/2000/svg"><path d="m13.9 4.9-.3-2.5c0-.2-.3-.4-.5-.4H10c-.3 0-.5.2-.5.4l-.3 2.2c0 .2-.2.3-.3.4-.9.3-1.7.8-2.4 1.4l-2.2-1a.5.5 0 0 0-.7.3L2.1 8.3c-.2.3-.1.5.1.7l2 1.5c-.2 1-.2 2 0 3h0l-2 1.5c-.2.2-.3.4-.1.7l1.5 2.7c.2.2.4.3.7.2l2.2-1h0a7.5 7.5 0 0 0 2.7 1.5v0l.3 2.5c0 .2.2.4.5.4h3c.3 0 .5-.2.6-.4l.2-2.2c0-.2.2-.3.4-.4.8-.3 1.6-.8 2.3-1.4l2.3 1c.2 0 .5 0 .6-.3l1.6-2.7c0-.2 0-.4-.2-.6l-2-1.5c.3-1 .3-2 0-3h0l2-1.5c.2-.2.3-.4.1-.7l-1.5-2.7a.5.5 0 0 0-.6-.2l-2.3 1h0a7.5 7.5 0 0 0-2.6-1.5" stroke="#fff" stroke-miterlimit="10" stroke-linecap="round" stroke-linejoin="round"/><path d="M11.5 16a4 4 0 1 0 0-8 4 4 0 0 0 0 8Z" stroke="currentColor" stroke-miterlimit="10" stroke-linecap="round" stroke-linejoin="round"/></svg>