<svg width="25" height="25" viewBox="0 0 25 25" fill="none" xmlns="http://www.w3.org/2000/svg">
    <path
        d="M14.4731 5.39L14.1631 2.94C14.1331 2.69 13.9231 2.5 13.6631 2.5H10.5531C10.3031 2.5 10.0831 2.69 10.0531 2.94L9.78313 5.09C9.76313 5.27 9.63313 5.43 9.46313 5.49C8.62313 5.8 7.82313 6.28 7.13313 6.9L4.85313 5.94C4.62313 5.84 4.35313 5.93 4.22313 6.15L2.66313 8.85C2.54313 9.07 2.60313 9.35 2.80313 9.5L4.77313 10.99C4.56313 12 4.56313 13.03 4.76313 14.01H4.77313L2.80313 15.5C2.60313 15.65 2.54313 15.93 2.67313 16.15L4.23313 18.85C4.36313 19.07 4.63313 19.16 4.86313 19.06L7.14313 18.1L7.13313 18.11C7.50313 18.44 7.92313 18.74 8.37313 19C8.82313 19.26 9.28313 19.47 9.76313 19.63V19.61L10.0731 22.06C10.0831 22.31 10.3031 22.5 10.5531 22.5H13.6731C13.9231 22.5 14.1331 22.31 14.1731 22.06L14.4431 19.91C14.4631 19.73 14.5931 19.57 14.7631 19.51C15.6031 19.2 16.4031 18.72 17.0931 18.1L19.3731 19.06C19.6031 19.16 19.8731 19.07 20.0031 18.85L21.5631 16.15C21.6931 15.93 21.6331 15.65 21.4331 15.5L19.4631 14.01C19.6731 13 19.6731 11.97 19.4731 10.99H19.4631L21.4131 9.5C21.6131 9.35 21.6731 9.07 21.5431 8.85L19.9831 6.15C19.8531 5.93 19.5831 5.84 19.3531 5.94L17.0831 6.9L17.0931 6.89C16.7231 6.56 16.3031 6.26 15.8531 6C15.4031 5.74 14.9431 5.53 14.4631 5.37"
        stroke="currentColor" stroke-miterlimit="10" stroke-linecap="round" stroke-linejoin="round" />
    <path
        d="M12.1094 16.5C14.3185 16.5 16.1094 14.7091 16.1094 12.5C16.1094 10.2909 14.3185 8.5 12.1094 8.5C9.90023 8.5 8.10938 10.2909 8.10938 12.5C8.10938 14.7091 9.90023 16.5 12.1094 16.5Z"
        stroke="currentColor" stroke-miterlimit="10" stroke-linecap="round" stroke-linejoin="round" />
</svg>