<svg fill="none" xmlns="http://www.w3.org/2000/svg" viewBox="0 0 34 34"><g filter="url(#a)"><path fill-rule="evenodd" clip-rule="evenodd" d="M31 14c0-7.732-6.268-14-14-14S3 6.268 3 14s6.268 14 14 14 14-6.268 14-14Zm-20.417-2.334c0-1.289.784-2.333 1.75-2.333.967 0 1.75 1.044 1.75 2.333 0 1.289-.783 2.333-1.75 2.333-.966 0-1.75-1.044-1.75-2.333ZM16.677 18c2.305 0 5.541-.426 5.758-.5l.091-.034c.306-.116 1.034-.393 1.487-.04.508.397.384 1.566-.013 2.074-1.837 2.353-4.303 3.753-7.323 3.753-3.021 0-5.34-1.4-7.177-3.753-.397-.508-.667-1.677-.16-2.073a.869.869 0 0 1 .48-.173c.364-.027.722.065 1.08.157.216.056.432.112.65.141 1.235.17 3.519.448 5.127.448Zm3.24-6.334c0-1.289.783-2.333 1.75-2.333.966 0 1.75 1.044 1.75 2.333 0 1.289-.784 2.333-1.75 2.333-.967 0-1.75-1.044-1.75-2.333Z" fill="#57C6B2"/></g><defs><filter id="a" x="0" y="0" width="34" height="39" filterUnits="userSpaceOnUse" colorInterpolationFilters="sRGB"><feFlood floodOpacity="0" result="BackgroundImageFix"/><feColorMatrix in="SourceAlpha" values="0 0 0 0 0 0 0 0 0 0 0 0 0 0 0 0 0 0 127 0" result="hardAlpha"/><feOffset dy="1"/><feGaussianBlur stdDeviation=".5"/><feColorMatrix values="0 0 0 0 0.25098 0 0 0 0 0.34902 0 0 0 0 0.32549 0 0 0 0.13 0"/><feBlend in2="BackgroundImageFix" result="effect1_dropShadow_2435_7090"/><feColorMatrix in="SourceAlpha" values="0 0 0 0 0 0 0 0 0 0 0 0 0 0 0 0 0 0 127 0" result="hardAlpha"/><feOffset dy="2"/><feGaussianBlur stdDeviation="1"/><feColorMatrix values="0 0 0 0 0.25098 0 0 0 0 0.34902 0 0 0 0 0.32549 0 0 0 0.11 0"/><feBlend in2="effect1_dropShadow_2435_7090" result="effect2_dropShadow_2435_7090"/><feColorMatrix in="SourceAlpha" values="0 0 0 0 0 0 0 0 0 0 0 0 0 0 0 0 0 0 127 0" result="hardAlpha"/><feOffset dy="5"/><feGaussianBlur stdDeviation="1.5"/><feColorMatrix values="0 0 0 0 0.25098 0 0 0 0 0.34902 0 0 0 0 0.32549 0 0 0 0.07 0"/><feBlend in2="effect2_dropShadow_2435_7090" result="effect3_dropShadow_2435_7090"/><feColorMatrix in="SourceAlpha" values="0 0 0 0 0 0 0 0 0 0 0 0 0 0 0 0 0 0 127 0" result="hardAlpha"/><feOffset dy="8"/><feGaussianBlur stdDeviation="1.5"/><feColorMatrix values="0 0 0 0 0.25098 0 0 0 0 0.34902 0 0 0 0 0.32549 0 0 0 0.02 0"/><feBlend in2="effect3_dropShadow_2435_7090" result="effect4_dropShadow_2435_7090"/><feBlend in="SourceGraphic" in2="effect4_dropShadow_2435_7090" result="shape"/></filter></defs></svg>