<svg width="24" height="24" viewBox="0 0 24 24" fill="none" xmlns="http://www.w3.org/2000/svg">
<path d="M11.5404 3.07234C11.7136 2.66828 12.2864 2.66828 12.4596 3.07234L14.8701 8.69696C14.9489 8.8808 15.1297 9 15.3297 9H20.9325C21.3564 9 21.588 9.49443 21.3166 9.82009L17.1693 14.7968C17.0634 14.9239 17.0272 15.0952 17.0727 15.2543L18.6626 20.8193C18.7858 21.2504 18.3231 21.6132 17.9338 21.3908L12.2481 18.1418C12.0944 18.0539 11.9056 18.0539 11.7519 18.1418L6.06618 21.3908C5.67689 21.6132 5.21418 21.2504 5.33735 20.8193L6.92735 15.2543C6.9728 15.0952 6.93661 14.9239 6.8307 14.7968L2.68341 9.82009C2.41202 9.49443 2.6436 9 3.06752 9H8.6703C8.87032 9 9.05109 8.8808 9.12987 8.69696L11.5404 3.07234Z" stroke="#0B5EB8" strokeMiterlimit="10" strokeLinecap="round" strokeLinejoin="round"/>
</svg>
