<svg width="24" height="24" viewBox="0 0 24 24" fill="none" xmlns="http://www.w3.org/2000/svg">
<path d="M11.3566 3.50127C11.599 2.9356 12.401 2.93559 12.6434 3.50127L14.8182 8.57574C14.9285 8.83312 15.1816 9 15.4616 9H20.5055C21.099 9 21.4232 9.6922 21.0432 10.1481L17.237 14.7156C17.0887 14.8935 17.0381 15.1333 17.1017 15.356L18.5277 20.347C18.7002 20.9505 18.0523 21.4585 17.5073 21.1471L12.3473 18.1985C12.1321 18.0755 11.8679 18.0755 11.6527 18.1985L6.49266 21.1471C5.94765 21.4585 5.29985 20.9505 5.47229 20.347L6.89828 15.356C6.96192 15.1333 6.91126 14.8935 6.76297 14.7156L2.95677 10.1481C2.57683 9.6922 2.90104 9 3.49453 9H8.53842C8.81844 9 9.07152 8.83312 9.18182 8.57574L11.3566 3.50127Z" fill="#0B5EB8"/>
</svg>
