<svg width="25" height="25" viewBox="0 0 25 25" fill="none" xmlns="http://www.w3.org/2000/svg">
    <g clip-path="url(#clip0_3676_59161)">
        <path
            d="M11.2146 10.4621C11.2146 9.18445 11.2146 5.29297 7.77402 5.29297C4.72597 5.29297 2.50465 7.94853 2.50465 11.6229C2.4568 13.0715 2.77868 14.5085 3.43994 15.7983C3.71779 16.3187 3.90155 16.8841 3.98275 17.4685L10.5298 17.0175C10.386 16.5284 10.3019 16.0237 10.2793 15.5144C10.2956 14.8405 10.4255 14.1742 10.6634 13.5436C11.0291 12.5574 11.2157 11.5139 11.2146 10.4621Z"
            stroke="currentColor" strokeWidth="0.835081" />
        <path
            d="M7.48985 23.9654H7.77378C8.66416 23.9494 9.51514 23.5954 10.1541 22.9751C10.793 22.3547 11.1721 21.5146 11.2143 20.6251C11.2034 19.9626 11.1137 19.3039 10.9471 18.6626L3.98251 19.1386C3.95822 19.7745 3.98615 20.4113 4.06602 21.0426C4.15656 21.8745 4.56142 22.6403 5.19782 23.1836C5.83423 23.7268 6.65411 24.0065 7.48985 23.9654Z"
            stroke="currentColor" strokeWidth="0.835081" />
        <path
            d="M22.2099 7.62289C22.2099 3.94853 19.9886 1.29297 16.9405 1.29297C13.5 1.29297 13.5 5.18445 13.5 6.46212C13.4998 7.51109 13.6865 8.5517 14.0512 9.53522C14.2891 10.1659 14.4189 10.8322 14.4353 11.506C14.4119 12.0725 14.3165 12.6338 14.1514 13.1762L20.7318 13.5102C20.8147 12.9263 20.9984 12.3611 21.2746 11.84C21.9428 10.5378 22.2649 9.08555 22.2099 7.62289Z"
            stroke="currentColor" strokeWidth="0.835081" />
        <path
            d="M13.5 16.6167C13.5423 17.5062 13.9213 18.3464 14.5602 18.9667C15.1992 19.587 16.0502 19.9411 16.9405 19.957H17.2245C18.0589 19.9983 18.8777 19.7198 19.5139 19.1782C20.1501 18.6367 20.5558 17.8729 20.6483 17.0426C20.7282 16.4141 20.7561 15.7801 20.7318 15.147L13.7338 14.7962C13.5879 15.3924 13.5094 16.003 13.5 16.6167Z"
            stroke="currentColor" strokeWidth="0.835081" />
    </g>
    <defs>
        <clipPath id="clip0_3676_59161">
            <rect width="24" height="24" fill="currentColor" transform="translate(0.5 0.666016)" />
        </clipPath>
    </defs>
</svg>
    