<svg width="25" height="25" viewBox="0 0 25 25" fill="none" xmlns="http://www.w3.org/2000/svg">
    <path
        d="M11.2146 10.4651C11.2146 9.18738 11.2146 5.2959 7.77402 5.2959C4.72597 5.2959 2.50465 7.95146 2.50465 11.6258C2.4568 13.0745 2.77868 14.5114 3.43994 15.8012C3.71779 16.3216 3.90155 16.887 3.98275 17.4714L10.5298 17.0204C10.386 16.5313 10.3019 16.0266 10.2793 15.5173C10.2956 14.8434 10.4255 14.1772 10.6634 13.5465C11.0291 12.5603 11.2157 11.5168 11.2146 10.4651Z"
        stroke="currentColor" strokeWidth="0.835081" />
    <path
        d="M7.48985 23.9683H7.77378C8.66416 23.9524 9.51514 23.5983 10.1541 22.978C10.793 22.3577 11.1721 21.5175 11.2143 20.628C11.2034 19.9656 11.1137 19.3068 10.9471 18.6656L3.98251 19.1416C3.95822 19.7774 3.98615 20.4142 4.06602 21.0455C4.15656 21.8774 4.56142 22.6432 5.19782 23.1865C5.83423 23.7298 6.65411 24.0094 7.48985 23.9683Z"
        stroke="currentColor" strokeWidth="0.835081" />
    <path
        d="M22.2099 7.99593C22.2099 4.32157 19.9886 1.66602 16.9405 1.66602C13.5 1.66602 13.5 5.5575 13.5 6.83517C13.4998 7.88413 13.6865 8.92474 14.0512 9.90827C14.2891 10.5389 14.4189 11.2052 14.4353 11.8791C14.4119 12.4456 14.3165 13.0068 14.1514 13.5492L20.7318 13.8833C20.8147 13.2993 20.9984 12.7342 21.2746 12.2131C21.9428 10.9108 22.2649 9.4586 22.2099 7.99593Z"
        stroke="currentColor" strokeWidth="0.835081" />
    <path
        d="M13.5 16.9897C13.5423 17.8793 13.9213 18.7194 14.5602 19.3397C15.1992 19.9601 16.0502 20.3141 16.9405 20.3301H17.2245C18.0589 20.3713 18.8777 20.0928 19.5139 19.5513C20.1501 19.0098 20.5558 18.246 20.6483 17.4156C20.7282 16.7871 20.7561 16.1531 20.7318 15.52L13.7338 15.1693C13.5879 15.7654 13.5094 16.3761 13.5 16.9897Z"
        stroke="currentColor" strokeWidth="0.835081" />
    <rect x="24.0537" y="0.96875" width="1.5" height="32.2603" rx="0.75"
        transform="rotate(46.3811 24.0537 0.96875)" fill="currentColor" />
</svg>
    