<svg width="28" height="28" viewBox="0 0 28 28" fill="none" xmlns="http://www.w3.org/2000/svg">
<path d="M14.1396 18.0483C14.723 15.7267 17.0563 14 19.833 14C23.053 14 25.6663 16.3217 25.6663 19.18C23.368 19.705 21.3613 19.8333 19.833 19.8333C18.1413 19.8333 16.648 19.67 15.3996 19.46C15.0613 18.935 14.6413 18.4567 14.1396 18.0483Z" stroke="white" stroke-miterlimit="10" stroke-linecap="round" stroke-linejoin="round"/>
<path d="M19.8337 10.5C21.4445 10.5 22.7503 9.19412 22.7503 7.58329C22.7503 5.97246 21.4445 4.66663 19.8337 4.66663C18.2228 4.66663 16.917 5.97246 16.917 7.58329C16.917 9.19412 18.2228 10.5 19.8337 10.5Z" stroke="white" stroke-miterlimit="10" stroke-linecap="round" stroke-linejoin="round"/>
<path d="M16.333 22.5517C13.5797 23.1817 11.1647 23.3334 9.33301 23.3334C6.49801 23.3334 4.10634 22.96 2.33301 22.5517C2.33301 19.1217 5.47134 16.3334 9.33301 16.3334C13.1947 16.3334 16.333 19.1217 16.333 22.5517Z" stroke="white" stroke-miterlimit="10" stroke-linecap="round" stroke-linejoin="round"/>
<path d="M9.33301 12.8334C11.266 12.8334 12.833 11.2664 12.833 9.33337C12.833 7.40038 11.266 5.83337 9.33301 5.83337C7.40002 5.83337 5.83301 7.40038 5.83301 9.33337C5.83301 11.2664 7.40002 12.8334 9.33301 12.8334Z" stroke="white" stroke-miterlimit="10" stroke-linecap="round" stroke-linejoin="round"/>
</svg>
