<svg width="44" height="43" viewBox="0 0 44 43" fill="none" xmlns="http://www.w3.org/2000/svg">
<path d="M29.0999 23.767C28.494 22.8835 26.1198 19.4206 25.3907 18.3526L27.2202 18.2998L28.0383 18.2762L27.6439 17.5591C27.0442 16.4687 26.2013 15.5284 25.1811 14.811C24.1608 14.0936 22.9902 13.6182 21.76 13.4219C20.5299 13.2256 19.273 13.3135 18.0871 13.6794C16.9011 14.0453 15.8181 14.6793 14.9224 15.5325C14.0267 16.3858 13.3428 17.4349 12.9239 18.5985C12.5049 19.762 12.3624 21.0082 12.507 22.2401C12.6516 23.472 13.0794 24.6563 13.7566 25.7011C14.4338 26.746 15.3423 27.6235 16.4115 28.2658C18.0156 29.2295 19.9004 29.6157 21.7472 29.3581C23.4579 29.1196 25.0389 28.3421 26.2614 27.1439L26.2825 27.1566L26.5579 26.842C26.6155 26.7762 26.6859 26.7222 26.7652 26.6833C26.8445 26.6445 26.9313 26.6214 27.0207 26.6157C27.2015 26.6043 27.3811 26.6649 27.5193 26.785C27.5877 26.8444 27.6435 26.9163 27.6838 26.9964C27.7241 27.0766 27.748 27.1633 27.7545 27.2515L28.2532 27.2148L27.7545 27.2515C27.761 27.3397 27.7499 27.4278 27.7222 27.5109C27.6954 27.5914 27.6533 27.6658 27.5982 27.7302C27.5958 27.7327 27.5934 27.7353 27.5909 27.7381L27.5908 27.738L27.5847 27.745C27.5797 27.7506 27.5727 27.758 27.557 27.7738L27.5507 27.7802L27.5446 27.7868C26.1638 29.2812 24.3272 30.2848 22.3107 30.6453C20.2941 31.0058 18.2069 30.7036 16.364 29.7832C14.5211 28.8627 13.0233 27.3745 12.096 25.5432C11.1688 23.7121 10.8625 21.6377 11.2219 19.6327C11.5812 17.6278 12.5868 15.8 14.0872 14.4243C15.5876 13.0485 17.5025 12.1987 19.5438 12.004C21.5853 11.8094 23.6424 12.2806 25.4048 13.3475C27.1672 14.4143 28.5384 16.0184 29.3123 17.9174L29.4428 18.2376L29.7886 18.2285C30.8163 18.2012 31.9368 18.1731 32.4558 18.1654L32.0686 18.8175C31.7457 19.3609 31.3123 20.0895 30.87 20.8305C30.148 22.0399 29.4212 23.2502 29.0999 23.767ZM27.6234 27.7055L27.6208 27.7078C27.623 27.7058 27.6247 27.7042 27.6244 27.7045L27.6241 27.7048L27.6234 27.7055ZM33.0337 18.1711L32.6311 17.9326C32.6311 17.9326 32.6311 17.9325 32.6311 17.9325L33.0337 18.1711ZM32.6416 17.8563C32.6417 17.8563 32.6412 17.8578 32.6396 17.861C32.6407 17.8579 32.6415 17.8564 32.6416 17.8563Z" fill="#787FFF" stroke="#787FFF"/>
</svg>
