<svg fill="none" xmlns="http://www.w3.org/2000/svg" viewBox="0 0 31 31"><path d="m23.658 22.531-.001.001-.002.002.003-.003Zm0 0Zm5.536-10.86-.002.005a.02.02 0 0 1 .002-.005Zm-.004.097.39.23-.39-.23Zm-3.185.243c1.195-.032 2.504-.065 3.027-.07l-.044.074a971.432 971.432 0 0 1-1.748 2.937 265.343 265.343 0 0 1-1.99 3.3 5975.628 5975.628 0 0 1-4.18-6.101l2.107-.062.818-.023-.394-.717a8.972 8.972 0 0 0-6.442-4.53 8.888 8.888 0 0 0-4.02.282A8.768 8.768 0 0 0 9.674 9.13a8.708 8.708 0 0 0-2.187 3.356 8.753 8.753 0 0 0-.457 3.986 8.869 8.869 0 0 0 1.368 3.789 8.965 8.965 0 0 0 8.748 4.004 8.79 8.79 0 0 0 4.97-2.451l.02.012.276-.315a.781.781 0 0 1 .544-.266.815.815 0 0 1 .861.747.784.784 0 0 1-.193.573l-.006.007a.786.786 0 0 1-.033.034l-.006.006-.006.007a10.359 10.359 0 0 1-5.79 3.163 10.601 10.601 0 0 1-11.3-5.644 10.41 10.41 0 0 1-.967-6.54 10.272 10.272 0 0 1 3.17-5.762 10.385 10.385 0 0 1 6.037-2.678 10.587 10.587 0 0 1 6.483 1.486A10.587 10.587 0 0 1 25.53 11.7l.13.32.346-.01Z" fill="currentColor" stroke="currentColor"/></svg>