<svg width="20" height="21" viewBox="0 0 20 21" fill="none" xmlns="http://www.w3.org/2000/svg">
    <path
        d="M10.0008 16.1879C10.0008 14.6545 9.16745 13.3045 7.92578 12.5795C8.98412 11.2212 10.6425 10.3545 12.5008 10.3545C15.7259 10.3545 18.3342 12.9629 18.3342 16.1879C18.3342 16.1879 13.4508 16.1879 10.0008 16.1879Z"
        stroke="currentColor" strokeWidth="0.833333" strokeMiterlimit="10" strokeLinecap="round"
        stroke-linejoin="round" />
    <path
        d="M12.5007 10.3549C14.1115 10.3549 15.4174 9.04904 15.4174 7.43819C15.4174 5.82733 14.1115 4.52148 12.5007 4.52148C10.8898 4.52148 9.58398 5.82733 9.58398 7.43819C9.58398 9.04904 10.8898 10.3549 12.5007 10.3549Z"
        stroke="currentColor" strokeWidth="0.833333" strokeMiterlimit="10" strokeLinecap="round"
        stroke-linejoin="round" />
    <path
        d="M5.83371 12.0215C3.53368 12.0215 1.66699 13.8882 1.66699 16.1882C1.67533 16.1882 10.0004 16.1882 10.0004 16.1882C10.0004 13.8882 8.13374 12.0215 5.83371 12.0215Z"
        stroke="currentColor" strokeWidth="0.833333" strokeMiterlimit="10" strokeLinecap="round"
        stroke-linejoin="round" />
    <path
        d="M5.83434 12.0212C6.98494 12.0212 7.91769 11.0884 7.91769 9.93785C7.91769 8.78725 6.98494 7.85449 5.83434 7.85449C4.68373 7.85449 3.75098 8.78725 3.75098 9.93785C3.75098 11.0884 4.68373 12.0212 5.83434 12.0212Z"
        stroke="currentColor" strokeWidth="0.833333" strokeMiterlimit="10" strokeLinecap="round"
        stroke-linejoin="round" />
</svg>
    