<svg width="20" height="21" viewBox="0 0 20 21" fill="none" xmlns="http://www.w3.org/2000/svg">
<path fill-rule="evenodd" clip-rule="evenodd" d="M14.137 14.558C14.0609 14.3574 13.9826 14.151 13.9548 14.0758L13.927 14H17C18.8696 14 20 12.6825 20 11C20 5.05648 18.7551 1.00005 16 1.00005C16 1.00005 9.02314 1.00027 8.99893 0.999762C8.34085 0.98796 7.50544 1.0805 6.66312 1.38187C6.29505 1.51356 5.95642 1.67742 5.65294 1.87375C5.29284 1.34629 4.68686 1.00005 4 1.00005H2C0.89543 1.00005 0 1.89548 0 3.00005V12C0 13.1046 0.89543 14 2 14H4C4.19836 14 4.38997 13.9712 4.57086 13.9174C5.26776 14.9321 7.03061 16.9465 8.44701 18.5651C9.21499 19.4426 9.88112 20.2038 10.2203 20.6262L10.5205 21H11.0077C11.6148 21.0001 12.1423 20.954 12.7483 20.7776C14.0919 20.3863 15 19.4721 15 18C15 17.4799 14.9079 16.9254 14.7382 16.3099C14.626 15.9027 14.4872 15.4915 14.2971 14.9811C14.2699 14.9082 14.2043 14.7354 14.137 14.558ZM6 12V5.00005C6 4.09782 6.45197 3.58158 7.33688 3.26497C7.91062 3.05969 8.52538 2.99159 8.9656 2.99946L14.5338 3.00003L16 3.00005C17.0151 3.00005 18 6.2093 18 11C18 11.6402 17.6912 12 17 12H13C11.8055 12 11.5555 12.9237 11.8047 13.9237C11.8633 14.159 11.9489 14.4179 12.079 14.7695C12.1101 14.8538 12.1944 15.0759 12.273 15.2831L12.2732 15.2835L12.2733 15.2838L12.2733 15.2838C12.3378 15.454 12.3986 15.6141 12.4229 15.6794C12.5944 16.1397 12.7161 16.5005 12.8101 16.8414C12.9359 17.2977 13 17.6835 13 18C13 18.451 12.7622 18.6905 12.1891 18.8573C11.9484 18.9274 11.7114 18.9661 11.46 18.9849C10.9338 18.3559 10.1803 17.4962 9.40468 16.6114C7.90194 14.8969 6.31645 13.0881 6.14171 12.6801C6.04443 12.4529 6 12.2402 6 12ZM2 12V3.00005H4V12H2Z" fill="#4269E2"/>
</svg>
