<svg width="106" height="90" viewBox="0 0 106 90" fill="none" xmlns="http://www.w3.org/2000/svg">
    <g clip-path="url(#clip0_6210_264687)">
    <path d="M12.3031 44.8426C12.2852 44.8444 12.2671 44.8444 12.2493 44.8426C11.9557 44.7946 11.6579 44.767 11.359 44.7602C11.2928 44.7602 11.2265 44.7602 11.152 44.7602C9.58436 44.7602 8.08094 45.2877 6.97247 46.2266C5.86399 47.1656 5.24125 48.4391 5.24125 49.7669V49.7792C5.24757 50.7597 5.59371 51.7169 6.2367 52.5322C6.87969 53.3475 7.79121 53.9848 8.85808 54.3651C6.53809 53.75 4.50387 52.5347 3.04119 50.89C1.57851 49.2453 0.760869 47.2537 0.703125 45.1951C0.703125 45.1215 0.703125 45.0461 0.703125 44.9689C0.703125 43.6666 1.31387 42.4176 2.40099 41.4968C3.48811 40.5759 4.96257 40.0586 6.5 40.0586C6.54555 40.0586 6.59523 40.0586 6.64078 40.0586C8.12932 40.0875 9.54766 40.6004 10.6018 41.4911C11.656 42.3817 12.2652 43.5818 12.3031 44.8426Z" fill="#F0807D"/>
    <path d="M23.8487 46.2743C23.4747 48.6382 22.1007 50.8069 19.9818 52.3776C17.8629 53.9482 15.1431 54.8142 12.3275 54.8147C11.9258 54.8147 11.5304 54.7972 11.1391 54.7656C10.3709 54.6972 9.61233 54.5657 8.87418 54.3728C7.80627 53.9905 6.89472 53.3506 6.25307 52.5326C5.61142 51.7147 5.26801 50.755 5.26562 49.7729V49.7607C5.26562 48.4328 5.88836 47.1593 6.99684 46.2203C8.10532 45.2814 9.60874 44.7539 11.1764 44.7539C11.2426 44.7539 11.3089 44.7539 11.3834 44.7539C11.6823 44.7602 11.9801 44.7877 12.2736 44.8363C12.2902 44.8363 12.3088 44.8363 12.3275 44.8363C12.375 44.8337 12.4227 44.8337 12.4703 44.8363C12.4703 44.8679 12.4703 44.9293 12.4703 44.9608C12.4532 46.1593 12.9541 47.3217 13.8786 48.2289C14.8032 49.1362 16.0876 49.7257 17.4898 49.8863C18.8919 50.047 20.315 49.7677 21.4909 49.1011C22.6668 48.4345 23.5143 47.4266 23.8736 46.2673L23.8487 46.2743Z" fill="#F0807D"/>
    <path d="M23.9485 44.9664C23.9483 45.4033 23.9144 45.8397 23.8471 46.2728C23.4877 47.4321 22.6403 48.44 21.4644 49.1066C20.2885 49.7732 18.8654 50.0525 17.4632 49.8918C16.0611 49.7312 14.7767 49.1417 13.8521 48.2344C12.9275 47.3272 12.4266 46.1648 12.4438 44.9664C12.4438 44.9348 12.4438 44.905 12.4438 44.8717V44.8419C13.9571 44.8422 15.4106 44.3413 16.4938 43.4461C17.577 42.5508 18.2039 41.3323 18.2407 40.0508C18.2438 40.0088 18.2438 39.9666 18.2407 39.9245C18.2412 38.8912 17.8569 37.8841 17.1424 37.0466C16.428 36.2091 15.4199 35.5838 14.2615 35.2598C16.7092 35.6107 18.9601 36.6159 20.6848 38.1283C22.4096 39.6407 23.5177 41.5809 23.8471 43.6651C23.9143 44.0965 23.9482 44.5312 23.9485 44.9664Z" fill="#F0807D"/>
    <path d="M18.2488 39.9263C18.2519 39.9683 18.2519 40.0105 18.2488 40.0525C18.212 41.334 17.5851 42.5526 16.5019 43.4478C15.4188 44.343 13.9653 44.844 12.4519 44.8436H12.3091C12.2722 43.5819 11.6632 42.3806 10.6085 41.4892C9.55374 40.5977 8.13428 40.0845 6.64469 40.056C6.59914 40.056 6.54945 40.056 6.50391 40.056C4.96648 40.056 3.49202 40.5734 2.4049 41.4942C1.31777 42.4151 0.707031 43.664 0.707031 44.9663C0.707616 43.5339 1.07707 42.1189 1.78963 40.8198C2.50218 39.5208 3.54069 38.369 4.83273 37.4449C6.12477 36.5208 7.63925 35.8465 9.27054 35.4691C10.9018 35.0917 12.6107 35.0202 14.2779 35.2597C15.4351 35.585 16.4416 36.2111 17.1545 37.0489C17.8674 37.8867 18.2503 38.8935 18.2488 39.9263Z" fill="#F0807D"/>
    <path d="M49.2225 33.8906C46.4566 35.0533 43.9329 36.2686 42.3056 37.398C36.701 37.7239 31.1254 38.3424 25.6106 39.2499C25.1183 39.3178 24.6141 39.2207 24.2049 38.9792C23.7956 38.7376 23.5134 38.3706 23.4182 37.9559C23.3229 37.5412 23.422 37.1113 23.6944 36.7574C23.9669 36.4035 24.3913 36.1533 24.8777 36.0599C32.9028 34.7387 41.0486 34.0128 49.2225 33.8906Z" fill="#81A0D3"/>
    <path d="M82.3981 38.4055C82.3077 38.7677 82.0734 39.0927 81.7343 39.3263C81.3953 39.5599 80.9719 39.688 80.5348 39.6892C80.3999 39.6898 80.2652 39.678 80.1332 39.6541C70.799 37.9711 61.2822 37.1211 51.7389 37.1183H51.685C48.5589 37.1183 45.4334 37.2095 42.3086 37.3919C43.9359 36.2678 46.4492 35.0525 49.2255 33.8845C50.0454 33.8728 50.8652 33.8664 51.685 33.8652H51.7409C61.5523 33.8673 71.3363 34.7413 80.9323 36.4729C81.1785 36.5181 81.4118 36.6039 81.6188 36.7255C81.8258 36.8471 82.0024 37.0021 82.1386 37.1816C82.2748 37.3611 82.3678 37.5616 82.4123 37.7717C82.4568 37.9817 82.452 38.1971 82.3981 38.4055Z" fill="#81A0D3"/>
    <path d="M77.8432 46.1443H28.046C27.5376 46.1443 27.0499 45.9732 26.6904 45.6687C26.3309 45.3641 26.1289 44.9511 26.1289 44.5204C26.1289 44.0897 26.3309 43.6767 26.6904 43.3721C27.0499 43.0676 27.5376 42.8965 28.046 42.8965H77.8432C78.3517 42.8965 78.8393 43.0676 79.1988 43.3721C79.5584 43.6767 79.7604 44.0897 79.7604 44.5204C79.7604 44.9511 79.5584 45.3641 79.1988 45.6687C78.8393 45.9732 78.3517 46.1443 77.8432 46.1443Z" fill="#FAC372"/>
    <path d="M40.1176 25.7266C36.0267 26.8314 32.9937 28.7867 32.3705 30.6035C28.3911 31.6271 24.5338 32.9646 20.8492 34.5984C20.399 34.7989 19.8732 34.8396 19.3875 34.7117C18.9018 34.5838 18.4959 34.2976 18.2593 33.9162C18.0226 33.5348 17.9745 33.0895 18.1256 32.678C18.2766 32.2666 18.6144 31.9228 19.0646 31.7224C25.6673 28.8002 32.772 26.7769 40.1176 25.7266Z" fill="#5BBBA9"/>
    <path d="M86.8929 34.4414C86.7725 34.6289 86.6095 34.7944 86.4133 34.9283C86.2172 35.0623 85.9916 35.162 85.7498 35.2218C85.5079 35.2817 85.2545 35.3004 85.004 35.2769C84.7536 35.2534 84.5111 35.1882 84.2905 35.085C79.4986 32.8657 74.4025 31.1541 69.1172 29.9889C70.1719 29.8797 71.2155 29.7038 72.2392 29.4628C73.4712 29.179 74.6695 28.7992 75.8188 28.3281C79.3737 29.3934 82.821 30.7006 86.1269 32.2371C86.5734 32.4435 86.9048 32.7916 87.0485 33.205C87.1921 33.6183 87.1362 34.063 86.8929 34.4414Z" fill="#5BBBA9"/>
    <path d="M75.8164 28.3321C74.6669 28.8013 73.4686 29.1794 72.2368 29.4614C71.2131 29.7025 70.1695 29.8783 69.1148 29.9875C66.6611 29.4426 64.1727 29.017 61.6616 28.7126C58.5394 28.3334 55.3896 28.1406 52.2355 28.1356C51.6931 28.1356 51.1458 28.1397 50.5938 28.1479C44.4166 28.2541 38.2861 29.0803 32.375 30.6031C32.9961 28.7863 36.0312 26.8309 40.1221 25.7261C42.6768 25.3594 45.2534 25.1123 47.8402 24.986C48.7208 24.9404 49.6138 24.9101 50.5192 24.8949C59.1281 24.7379 67.6994 25.9024 75.8184 28.3321H75.8164Z" fill="#5BBBA9"/>
    <path d="M49.2225 55.5913C46.4566 54.4286 43.9329 53.2151 42.3056 52.084C36.7011 51.7572 31.1255 51.1388 25.6106 50.2321C25.1183 50.1642 24.6141 50.2612 24.2049 50.5028C23.7956 50.7443 23.5134 51.1113 23.4182 51.5261C23.3229 51.9408 23.422 52.3706 23.6944 52.7246C23.9669 53.0785 24.3913 53.3286 24.8777 53.422C32.9028 54.7433 41.0486 55.4691 49.2225 55.5913Z" fill="#8F86C8"/>
    <path d="M82.3981 51.0688C82.3077 50.7066 82.0734 50.3817 81.7343 50.1481C81.3953 49.9145 80.9719 49.7864 80.5348 49.7852C80.4 49.7849 80.2654 49.796 80.1332 49.8185C70.7993 51.5033 61.2823 52.3532 51.7389 52.3543H51.685C48.5589 52.3543 45.4334 52.2637 42.3086 52.0825C43.9359 53.2066 46.4492 54.4201 49.2255 55.5898C50.0454 55.6039 50.8652 55.6103 51.685 55.6091H51.7409C61.5522 55.6076 71.3363 54.7342 80.9323 53.0032C81.1788 52.9581 81.4123 52.8722 81.6194 52.7505C81.8266 52.6287 82.0033 52.4736 82.1395 52.2939C82.2757 52.1141 82.3686 51.9134 82.413 51.7032C82.4574 51.493 82.4523 51.2774 82.3981 51.0688Z" fill="#8F86C8"/>
    <path d="M40.119 63.7484C36.0281 62.6435 32.9951 60.6882 32.3719 58.8714C28.3925 57.8478 24.5352 56.5103 20.8506 54.8765C20.4014 54.6824 19.88 54.6461 19.3994 54.7754C18.9187 54.9047 18.5176 55.1892 18.2829 55.5672C18.0481 55.9453 17.9987 56.3865 18.1453 56.7952C18.2919 57.2039 18.6227 57.5472 19.066 57.7508C25.6686 60.6736 32.7732 62.6976 40.119 63.7484Z" fill="#F0807D"/>
    <path d="M86.8929 55.0347C86.728 54.7787 86.4846 54.565 86.1884 54.4162C85.8922 54.2675 85.5541 54.1891 85.2097 54.1895C84.8881 54.1893 84.5717 54.2587 84.2905 54.3911C79.4989 56.6123 74.4028 58.3256 69.1172 59.4926C70.1717 59.5975 71.2154 59.7698 72.2392 60.0082C73.4712 60.2919 74.6695 60.6717 75.8188 61.1428C79.3731 60.0785 82.8204 58.773 86.1269 57.2391C86.5734 57.0327 86.9048 56.6845 87.0485 56.2712C87.1921 55.8579 87.1362 55.4131 86.8929 55.0347Z" fill="#F0807D"/>
    <path d="M75.8164 61.1427C74.6671 60.6717 73.4688 60.2918 72.2368 60.0081C71.213 59.7697 70.1693 59.5974 69.1148 59.4925C66.6608 60.0359 64.1724 60.461 61.6616 60.7657C58.5394 61.1446 55.3896 61.338 52.2355 61.3444C51.6931 61.3444 51.1458 61.3403 50.5938 61.3321C44.4168 61.2242 38.2866 60.3981 32.375 58.877C32.9961 60.6938 36.0312 62.6491 40.1221 63.7539C42.6768 64.1207 45.2534 64.3677 47.8402 64.494C48.7208 64.5396 49.6138 64.57 50.5192 64.5852C54.2651 64.6523 58.0114 64.4706 61.7238 64.0415C66.5259 63.4858 71.2481 62.5144 75.8164 61.1427Z" fill="#F0807D"/>
    <path d="M99.5986 49.7284C98.6373 49.7286 97.691 49.5262 96.845 49.1396C95.9989 48.7529 95.2797 48.1942 94.752 47.5135L90.4457 50.4457V46.3508H82.1914C82.5302 48.1635 83.46 49.8599 84.876 51.249C86.292 52.638 88.1379 53.6644 90.2056 54.2126C90.9437 54.4056 91.7022 54.5371 92.4705 54.6054C92.8618 54.6369 93.2593 54.6545 93.6589 54.6545C96.4764 54.6576 99.1994 53.7942 101.322 52.2247C103.444 50.6552 104.822 48.4863 105.199 46.1211C104.859 47.1583 104.128 48.0727 103.116 48.7242C102.105 49.3757 100.869 49.7284 99.5986 49.7284Z" fill="#5BBBA9"/>
    <path d="M105.3 44.8117C105.3 45.248 105.266 45.6838 105.199 46.1164C104.906 47.0302 104.308 47.853 103.477 48.4855C102.645 49.1181 101.615 49.5335 100.511 49.6818C99.4074 49.8301 98.2764 49.7048 97.2546 49.3211C96.2328 48.9375 95.3637 48.3118 94.752 47.5193L99.0582 44.5837L97.5241 43.5315C98.1548 43.0849 98.6657 42.5294 99.0227 41.9022C99.3797 41.275 99.5746 40.5905 99.5944 39.8944C99.5944 39.8505 99.5944 39.8084 99.5944 39.7663C99.5951 38.7333 99.2111 37.7263 98.497 36.8888C97.783 36.0513 96.7753 35.4259 95.6173 35.1016C98.0629 35.4536 100.311 36.4589 102.035 37.9705C103.758 39.4821 104.865 41.4208 105.195 43.5034C105.263 43.9371 105.299 44.3741 105.3 44.8117Z" fill="#5BBBA9"/>
    <path d="M95.6218 35.1038C92.6547 34.6772 89.608 35.2416 87.122 36.6782C84.636 38.1149 82.9044 40.312 82.291 42.8077H90.446V38.7111L94.7522 41.645L97.5244 43.5337C98.155 43.0871 98.6659 42.5316 99.0229 41.9044C99.38 41.2772 99.5749 40.5927 99.5947 39.8966C99.5947 39.8527 99.5947 39.8106 99.5947 39.7685C99.5956 38.7359 99.2122 37.7293 98.499 36.8918C97.7857 36.0543 96.7789 35.4287 95.6218 35.1038Z" fill="#5BBBA9"/>
    </g>
    <defs>
    <clipPath id="clip0_6210_264687">
    <rect width="106" height="89.7882" fill="white"/>
    </clipPath>
    </defs>
    </svg>
    