<svg width="329" height="228" viewBox="0 0 329 228" fill="none" xmlns="http://www.w3.org/2000/svg">
    <path d="M64.7266 119.992H14.7266V168H6.71875V111.984H64.7266V119.992ZM57.8516 144.016H18.7109V136.008H57.8516V144.016ZM114.219 131.984H84.2188C83.3854 131.984 82.6042 132.154 81.875 132.492C81.1458 132.805 80.5078 133.234 79.9609 133.781C79.4141 134.328 78.9844 134.966 78.6719 135.695C78.3594 136.424 78.2031 137.193 78.2031 138V168H70.1953V138C70.1953 136.047 70.5599 134.224 71.2891 132.531C72.0182 130.839 73.0208 129.367 74.2969 128.117C75.5729 126.841 77.0573 125.839 78.75 125.109C80.4427 124.38 82.2656 124.016 84.2188 124.016H114.219V131.984ZM171.328 138C171.328 139.953 170.964 141.776 170.234 143.469C169.505 145.161 168.503 146.646 167.227 147.922C165.977 149.172 164.492 150.161 162.773 150.891C161.081 151.62 159.271 151.984 157.344 151.984H126.68C127.253 153.156 127.969 154.237 128.828 155.227C129.688 156.216 130.651 157.062 131.719 157.766C132.786 158.469 133.945 159.016 135.195 159.406C136.471 159.797 137.799 159.992 139.18 159.992H165.352V168H139.18C136.159 167.974 133.32 167.388 130.664 166.242C128.008 165.07 125.69 163.495 123.711 161.516C121.758 159.51 120.208 157.18 119.062 154.523C117.917 151.867 117.344 149.029 117.344 146.008C117.344 142.987 117.917 140.148 119.062 137.492C120.208 134.836 121.758 132.518 123.711 130.539C125.69 128.534 128.008 126.958 130.664 125.812C133.32 124.641 136.159 124.042 139.18 124.016H157.344C159.271 124.016 161.081 124.38 162.773 125.109C164.492 125.839 165.977 126.841 167.227 128.117C168.503 129.367 169.505 130.839 170.234 132.531C170.964 134.224 171.328 136.047 171.328 138ZM157.344 144.016C158.151 144.016 158.919 143.859 159.648 143.547C160.378 143.234 161.016 142.805 161.562 142.258C162.109 141.711 162.539 141.073 162.852 140.344C163.164 139.615 163.32 138.833 163.32 138C163.32 137.193 163.164 136.424 162.852 135.695C162.539 134.966 162.109 134.328 161.562 133.781C161.016 133.234 160.378 132.805 159.648 132.492C158.919 132.154 158.151 131.984 157.344 131.984H139.18C137.409 131.984 135.742 132.297 134.18 132.922C132.643 133.547 131.263 134.406 130.039 135.5C128.841 136.568 127.839 137.844 127.031 139.328C126.25 140.786 125.742 142.349 125.508 144.016H157.344ZM230.391 138C230.391 139.953 230.026 141.776 229.297 143.469C228.568 145.161 227.565 146.646 226.289 147.922C225.039 149.172 223.555 150.161 221.836 150.891C220.143 151.62 218.333 151.984 216.406 151.984H185.742C186.315 153.156 187.031 154.237 187.891 155.227C188.75 156.216 189.714 157.062 190.781 157.766C191.849 158.469 193.008 159.016 194.258 159.406C195.534 159.797 196.862 159.992 198.242 159.992H224.414V168H198.242C195.221 167.974 192.383 167.388 189.727 166.242C187.07 165.07 184.753 163.495 182.773 161.516C180.82 159.51 179.271 157.18 178.125 154.523C176.979 151.867 176.406 149.029 176.406 146.008C176.406 142.987 176.979 140.148 178.125 137.492C179.271 134.836 180.82 132.518 182.773 130.539C184.753 128.534 187.07 126.958 189.727 125.812C192.383 124.641 195.221 124.042 198.242 124.016H216.406C218.333 124.016 220.143 124.38 221.836 125.109C223.555 125.839 225.039 126.841 226.289 128.117C227.565 129.367 228.568 130.839 229.297 132.531C230.026 134.224 230.391 136.047 230.391 138ZM216.406 144.016C217.214 144.016 217.982 143.859 218.711 143.547C219.44 143.234 220.078 142.805 220.625 142.258C221.172 141.711 221.602 141.073 221.914 140.344C222.227 139.615 222.383 138.833 222.383 138C222.383 137.193 222.227 136.424 221.914 135.695C221.602 134.966 221.172 134.328 220.625 133.781C220.078 133.234 219.44 132.805 218.711 132.492C217.982 132.154 217.214 131.984 216.406 131.984H198.242C196.471 131.984 194.805 132.297 193.242 132.922C191.706 133.547 190.326 134.406 189.102 135.5C187.904 136.568 186.901 137.844 186.094 139.328C185.312 140.786 184.805 142.349 184.57 144.016H216.406Z" fill="#5D8FE1"/>
    <path d="M305.234 139.992C305.234 143.872 304.609 147.518 303.359 150.93C302.135 154.341 300.391 157.31 298.125 159.836C295.859 162.362 293.138 164.354 289.961 165.812C286.81 167.271 283.307 168 279.453 168H251.211V159.992H279.453C282.214 159.992 284.688 159.471 286.875 158.43C289.089 157.388 290.951 155.969 292.461 154.172C293.997 152.349 295.169 150.227 295.977 147.805C296.81 145.357 297.227 142.753 297.227 139.992C297.227 137.232 296.81 134.641 295.977 132.219C295.169 129.797 293.997 127.688 292.461 125.891C290.951 124.068 289.089 122.635 286.875 121.594C284.688 120.526 282.214 119.992 279.453 119.992H247.227V168H239.219V111.984H279.453C283.307 111.984 286.81 112.727 289.961 114.211C293.138 115.669 295.859 117.674 298.125 120.227C300.391 122.753 302.135 125.721 303.359 129.133C304.609 132.518 305.234 136.138 305.234 139.992ZM324.492 114.016C324.492 114.849 324.336 115.63 324.023 116.359C323.711 117.062 323.281 117.688 322.734 118.234C322.188 118.781 321.549 119.211 320.82 119.523C320.091 119.836 319.323 119.992 318.516 119.992C317.682 119.992 316.901 119.836 316.172 119.523C315.443 119.211 314.805 118.781 314.258 118.234C313.711 117.688 313.281 117.062 312.969 116.359C312.656 115.63 312.5 114.849 312.5 114.016C312.5 113.208 312.656 112.44 312.969 111.711C313.281 110.982 313.711 110.344 314.258 109.797C314.805 109.25 315.443 108.82 316.172 108.508C316.901 108.169 317.682 108 318.516 108C319.323 108 320.091 108.169 320.82 108.508C321.549 108.82 322.188 109.25 322.734 109.797C323.281 110.344 323.711 110.982 324.023 111.711C324.336 112.44 324.492 113.208 324.492 114.016ZM322.5 168H314.492V124.016H322.5V168Z" fill="#5BBBA9"/>
    <path d="M107.411 63.8206C107.386 63.8232 107.36 63.8232 107.335 63.8206C106.92 63.7527 106.498 63.7137 106.075 63.704C105.981 63.704 105.888 63.704 105.782 63.704C103.564 63.704 101.436 64.4505 99.8678 65.7792C98.2992 67.1079 97.418 68.91 97.418 70.789V70.8064C97.4269 72.1938 97.9167 73.5484 98.8266 74.7021C99.7365 75.8558 101.026 76.7577 102.536 77.2958C99.2531 76.4254 96.3745 74.7057 94.3047 72.3782C92.2349 70.0508 91.0778 67.2325 90.9961 64.3194C90.9961 64.2152 90.9961 64.1085 90.9961 63.9993C90.9961 62.1565 91.8603 60.3891 93.3987 59.086C94.9371 57.7829 97.0236 57.0508 99.1992 57.0508C99.2637 57.0508 99.334 57.0508 99.3984 57.0508C101.505 57.0916 103.512 57.8175 105.004 59.0778C106.495 60.3382 107.358 62.0365 107.411 63.8206Z" fill="#F0807D"/>
    <path d="M123.748 65.8469C123.219 69.192 121.274 72.2608 118.276 74.4835C115.278 76.7061 111.429 77.9316 107.444 77.9324C106.876 77.9324 106.316 77.9075 105.763 77.8629C104.676 77.766 103.602 77.5799 102.558 77.307C101.046 76.766 99.7565 75.8604 98.8485 74.703C97.9405 73.5455 97.4546 72.1874 97.4512 70.7977V70.7803C97.4512 68.9013 98.3324 67.0992 99.901 65.7705C101.47 64.4418 103.597 63.6953 105.815 63.6953C105.909 63.6953 106.003 63.6953 106.108 63.6953C106.531 63.7042 106.953 63.7432 107.368 63.8119C107.392 63.8119 107.418 63.8119 107.444 63.8119C107.512 63.8082 107.579 63.8082 107.646 63.8119C107.646 63.8566 107.646 63.9435 107.646 63.9881C107.622 65.6841 108.331 67.3289 109.639 68.6128C110.948 69.8966 112.765 70.7308 114.749 70.9582C116.734 71.1855 118.748 70.7903 120.412 69.847C122.075 68.9036 123.275 67.4774 123.783 65.8369L123.748 65.8469Z" fill="#F0807D"/>
    <path d="M123.89 63.9975C123.89 64.6157 123.842 65.2333 123.747 65.8463C123.238 67.4867 122.039 68.913 120.375 69.8563C118.711 70.7996 116.697 71.1948 114.713 70.9675C112.729 70.7402 110.911 69.906 109.603 68.6221C108.295 67.3382 107.586 65.6934 107.61 63.9975C107.61 63.9528 107.61 63.9106 107.61 63.8635V63.8213C109.752 63.8218 111.808 63.1129 113.341 61.8461C114.874 60.5793 115.761 58.855 115.813 57.0415C115.817 56.982 115.817 56.9223 115.813 56.8628C115.814 55.4006 115.27 53.9755 114.259 52.7903C113.248 51.6051 111.821 50.7202 110.182 50.2617C113.646 50.7583 116.831 52.1807 119.272 54.3209C121.713 56.4611 123.281 59.2067 123.747 62.1561C123.842 62.7666 123.89 63.3817 123.89 63.9975Z" fill="#F0807D"/>
    <path d="M115.823 56.8642C115.828 56.9237 115.828 56.9834 115.823 57.0429C115.771 58.8564 114.884 60.5807 113.351 61.8475C111.819 63.1144 109.762 63.8232 107.62 63.8227H107.418C107.366 62.0372 106.504 60.3374 105.011 59.0759C103.519 57.8144 101.51 57.0881 99.4023 57.0479C99.3379 57.0479 99.2676 57.0479 99.2031 57.0479C97.0275 57.0479 94.941 57.7799 93.4026 59.083C91.8643 60.3861 91 62.1535 91 63.9964C91.0008 61.9694 91.5236 59.9669 92.532 58.1287C93.5403 56.2904 95.0099 54.6606 96.8383 53.3528C98.6666 52.0451 100.81 51.0909 103.118 50.5569C105.427 50.0228 107.845 49.9217 110.204 50.2606C111.842 50.721 113.266 51.6069 114.275 52.7925C115.284 53.978 115.825 55.4028 115.823 56.8642Z" fill="#F0807D"/>
    <path d="M159.654 48.3242C155.739 49.9695 152.168 51.6893 149.865 53.2875C141.934 53.7486 134.044 54.6238 126.24 55.908C125.544 56.0042 124.83 55.8668 124.251 55.525C123.672 55.1832 123.273 54.6639 123.138 54.077C123.003 53.4901 123.143 52.8818 123.529 52.381C123.914 51.8802 124.515 51.5262 125.203 51.394C136.56 49.5243 148.087 48.4972 159.654 48.3242Z" fill="#81A0D3"/>
    <path d="M206.602 54.712C206.474 55.2246 206.142 55.6845 205.662 56.015C205.182 56.3456 204.583 56.5268 203.965 56.5286C203.774 56.5294 203.583 56.5127 203.396 56.4789C190.188 54.0972 176.721 52.8945 163.216 52.8905H163.14C158.716 52.8905 154.293 53.0196 149.871 53.2776C152.174 51.6869 155.73 49.9672 159.659 48.3144C160.819 48.2979 161.979 48.2888 163.14 48.2871H163.219C177.103 48.29 190.948 49.5269 204.527 51.9773C204.876 52.0411 205.206 52.1626 205.499 52.3346C205.792 52.5067 206.042 52.7261 206.234 52.9801C206.427 53.2341 206.559 53.5179 206.622 53.8151C206.685 54.1123 206.678 54.4171 206.602 54.712Z" fill="#81A0D3"/>
    <path d="M200.157 65.6643H129.689C128.97 65.6643 128.28 65.4222 127.771 64.9913C127.262 64.5603 126.977 63.9758 126.977 63.3663C126.977 62.7569 127.262 62.1724 127.771 61.7414C128.28 61.3105 128.97 61.0684 129.689 61.0684H200.157C200.877 61.0684 201.567 61.3105 202.076 61.7414C202.584 62.1724 202.87 62.7569 202.87 63.3663C202.87 63.9758 202.584 64.5603 202.076 64.9913C201.567 65.4222 200.877 65.6643 200.157 65.6643Z" fill="#FAC372"/>
    <path d="M146.771 36.7715C140.982 38.3349 136.69 41.1019 135.808 43.6729C130.176 45.1214 124.718 47.014 119.504 49.326C118.867 49.6097 118.123 49.6673 117.435 49.4863C116.748 49.3052 116.174 48.9003 115.839 48.3606C115.504 47.8209 115.436 47.1907 115.65 46.6085C115.863 46.0263 116.341 45.5398 116.979 45.2561C126.322 41.121 136.376 38.2578 146.771 36.7715Z" fill="#5BBBA9"/>
    <path d="M212.961 49.1021C212.791 49.3674 212.56 49.6016 212.282 49.7911C212.005 49.9806 211.686 50.1218 211.343 50.2064C211.001 50.2911 210.642 50.3176 210.288 50.2843C209.934 50.2511 209.59 50.1588 209.278 50.0128C202.497 46.8723 195.286 44.4502 187.807 42.8013C189.299 42.6468 190.776 42.3979 192.225 42.0568C193.968 41.6553 195.664 41.1178 197.29 40.4512C202.321 41.9586 207.199 43.8085 211.877 45.9827C212.509 46.2748 212.978 46.7675 213.181 47.3524C213.384 47.9373 213.305 48.5666 212.961 49.1021Z" fill="#5BBBA9"/>
    <path d="M197.286 40.458C195.66 41.122 193.964 41.657 192.221 42.0562C190.772 42.3973 189.295 42.6461 187.803 42.8006C184.331 42.0296 180.809 41.4272 177.256 40.9965C172.838 40.4599 168.38 40.187 163.917 40.18C163.149 40.18 162.375 40.1858 161.594 40.1974C152.852 40.3477 144.177 41.5168 135.812 43.6717C136.691 41.1007 140.986 38.3337 146.775 36.7703C150.391 36.2514 154.037 35.9017 157.697 35.7231C158.943 35.6585 160.207 35.6155 161.488 35.594C173.671 35.3719 185.8 37.0198 197.289 40.458H197.286Z" fill="#5BBBA9"/>
    <path d="M159.654 79.0337C155.739 77.3884 152.168 75.6711 149.865 74.0705C141.934 73.608 134.045 72.7329 126.24 71.4499C125.544 71.3537 124.83 71.4911 124.251 71.8329C123.672 72.1747 123.273 72.6941 123.138 73.2809C123.003 73.8678 123.143 74.4761 123.529 74.9769C123.914 75.4778 124.515 75.8318 125.203 75.9639C136.56 77.8336 148.087 78.8608 159.654 79.0337Z" fill="#8F86C8"/>
    <path d="M206.602 72.633C206.474 72.1204 206.142 71.6605 205.662 71.3299C205.182 70.9994 204.583 70.8181 203.965 70.8164C203.774 70.816 203.584 70.8318 203.396 70.8636C190.188 73.2477 176.721 74.4504 163.216 74.452H163.14C158.716 74.452 154.293 74.3238 149.871 74.0673C152.174 75.658 155.73 77.3753 159.659 79.0306C160.819 79.0504 161.979 79.0595 163.14 79.0579H163.219C177.103 79.0558 190.948 77.8198 204.527 75.3702C204.876 75.3064 205.206 75.1848 205.5 75.0126C205.793 74.8403 206.043 74.6208 206.236 74.3665C206.428 74.1121 206.56 73.8281 206.623 73.5306C206.685 73.2331 206.678 72.9281 206.602 72.633Z" fill="#8F86C8"/>
    <path d="M146.773 90.5749C140.984 89.0115 136.692 86.2445 135.81 83.6735C130.178 82.2251 124.72 80.3324 119.506 78.0204C118.87 77.7458 118.132 77.6944 117.452 77.8773C116.772 78.0603 116.205 78.4629 115.872 78.9979C115.54 79.5328 115.47 80.1572 115.678 80.7355C115.885 81.3139 116.353 81.7997 116.981 82.0878C126.324 86.2239 136.378 89.088 146.773 90.5749Z" fill="#F0807D"/>
    <path d="M212.961 78.243C212.728 77.8807 212.383 77.5783 211.964 77.3678C211.545 77.1573 211.066 77.0464 210.579 77.0469C210.124 77.0467 209.676 77.1449 209.278 77.3323C202.498 80.4754 195.286 82.9 187.807 84.5513C189.299 84.6997 190.776 84.9436 192.225 85.2809C193.968 85.6824 195.664 86.2199 197.29 86.8865C202.32 85.3804 207.198 83.533 211.877 81.3624C212.509 81.0703 212.978 80.5777 213.181 79.9927C213.384 79.4078 213.305 78.7785 212.961 78.243Z" fill="#F0807D"/>
    <path d="M197.286 86.8879C195.66 86.2213 193.964 85.6838 192.221 85.2823C190.772 84.945 189.295 84.7011 187.803 84.5527C184.33 85.3217 180.809 85.9232 177.256 86.3543C172.838 86.8906 168.38 87.1643 163.917 87.1733C163.149 87.1733 162.375 87.1675 161.594 87.1559C152.853 87.0032 144.178 85.8342 135.812 83.6816C136.691 86.2526 140.986 89.0196 146.775 90.583C150.391 91.102 154.037 91.4516 157.697 91.6303C158.943 91.6948 160.207 91.7378 161.488 91.7593C166.789 91.8544 172.09 91.5971 177.344 90.99C184.139 90.2035 190.822 88.829 197.286 86.8879Z" fill="#F0807D"/>
    <path d="M230.941 70.7355C229.581 70.7358 228.242 70.4494 227.045 69.9023C225.848 69.3552 224.83 68.5644 224.083 67.6013L217.989 71.7505V65.956H206.309C206.788 68.521 208.104 70.9217 210.108 72.8873C212.111 74.8529 214.723 76.3054 217.649 77.081C218.694 77.3542 219.767 77.5403 220.854 77.6369C221.408 77.6816 221.971 77.7064 222.536 77.7064C226.523 77.7109 230.377 76.4891 233.38 74.268C236.384 72.047 238.333 68.9778 238.866 65.6309C238.386 67.0986 237.351 68.3925 235.919 69.3144C234.488 70.2364 232.74 70.7356 230.941 70.7355Z" fill="#5BBBA9"/>
    <path d="M239.009 63.7778C239.008 64.3953 238.96 65.012 238.865 65.6242C238.452 66.9173 237.605 68.0816 236.428 68.9767C235.252 69.8719 233.794 70.4597 232.232 70.6695C230.67 70.8793 229.07 70.7021 227.624 70.1592C226.178 69.6162 224.948 68.7308 224.082 67.6094L230.176 63.4552L228.005 61.9662C228.897 61.3342 229.62 60.5482 230.125 59.6606C230.631 58.7731 230.907 57.8044 230.935 56.8194C230.935 56.7573 230.935 56.6978 230.935 56.6382C230.936 55.1763 230.392 53.7514 229.382 52.5662C228.371 51.3811 226.945 50.496 225.307 50.0371C228.767 50.5353 231.949 51.9579 234.388 54.0969C236.826 56.236 238.393 58.9795 238.859 61.9265C238.957 62.5402 239.007 63.1586 239.009 63.7778Z" fill="#5BBBA9"/>
    <path d="M225.313 50.0403C221.115 49.4367 216.803 50.2354 213.286 52.2684C209.768 54.3014 207.317 57.4105 206.449 60.9421H217.989V55.145L224.083 59.2968L228.006 61.9695C228.898 61.3375 229.621 60.5514 230.126 59.6639C230.632 58.7763 230.908 57.8077 230.936 56.8226C230.936 56.7606 230.936 56.701 230.936 56.6414C230.937 55.1801 230.394 53.7557 229.385 52.5706C228.376 51.3855 226.951 50.5001 225.313 50.0403Z" fill="#5BBBA9"/>
    </svg>
    