<svg width="329" height="228" viewBox="0 0 329 228" fill="none" xmlns="http://www.w3.org/2000/svg">
<path d="M64.7266 119.992H14.7266V168H6.71875V111.984H64.7266V119.992ZM57.8516 144.016H18.7109V136.008H57.8516V144.016ZM114.219 131.984H84.2188C83.3854 131.984 82.6042 132.154 81.875 132.492C81.1458 132.805 80.5078 133.234 79.9609 133.781C79.4141 134.328 78.9844 134.966 78.6719 135.695C78.3594 136.424 78.2031 137.193 78.2031 138V168H70.1953V138C70.1953 136.047 70.5599 134.224 71.2891 132.531C72.0182 130.839 73.0208 129.367 74.2969 128.117C75.5729 126.841 77.0573 125.839 78.75 125.109C80.4427 124.38 82.2656 124.016 84.2188 124.016H114.219V131.984ZM171.328 138C171.328 139.953 170.964 141.776 170.234 143.469C169.505 145.161 168.503 146.646 167.227 147.922C165.977 149.172 164.492 150.161 162.773 150.891C161.081 151.62 159.271 151.984 157.344 151.984H126.68C127.253 153.156 127.969 154.237 128.828 155.227C129.688 156.216 130.651 157.062 131.719 157.766C132.786 158.469 133.945 159.016 135.195 159.406C136.471 159.797 137.799 159.992 139.18 159.992H165.352V168H139.18C136.159 167.974 133.32 167.388 130.664 166.242C128.008 165.07 125.69 163.495 123.711 161.516C121.758 159.51 120.208 157.18 119.062 154.523C117.917 151.867 117.344 149.029 117.344 146.008C117.344 142.987 117.917 140.148 119.062 137.492C120.208 134.836 121.758 132.518 123.711 130.539C125.69 128.534 128.008 126.958 130.664 125.812C133.32 124.641 136.159 124.042 139.18 124.016H157.344C159.271 124.016 161.081 124.38 162.773 125.109C164.492 125.839 165.977 126.841 167.227 128.117C168.503 129.367 169.505 130.839 170.234 132.531C170.964 134.224 171.328 136.047 171.328 138ZM157.344 144.016C158.151 144.016 158.919 143.859 159.648 143.547C160.378 143.234 161.016 142.805 161.562 142.258C162.109 141.711 162.539 141.073 162.852 140.344C163.164 139.615 163.32 138.833 163.32 138C163.32 137.193 163.164 136.424 162.852 135.695C162.539 134.966 162.109 134.328 161.562 133.781C161.016 133.234 160.378 132.805 159.648 132.492C158.919 132.154 158.151 131.984 157.344 131.984H139.18C137.409 131.984 135.742 132.297 134.18 132.922C132.643 133.547 131.263 134.406 130.039 135.5C128.841 136.568 127.839 137.844 127.031 139.328C126.25 140.786 125.742 142.349 125.508 144.016H157.344ZM230.391 138C230.391 139.953 230.026 141.776 229.297 143.469C228.568 145.161 227.565 146.646 226.289 147.922C225.039 149.172 223.555 150.161 221.836 150.891C220.143 151.62 218.333 151.984 216.406 151.984H185.742C186.315 153.156 187.031 154.237 187.891 155.227C188.75 156.216 189.714 157.062 190.781 157.766C191.849 158.469 193.008 159.016 194.258 159.406C195.534 159.797 196.862 159.992 198.242 159.992H224.414V168H198.242C195.221 167.974 192.383 167.388 189.727 166.242C187.07 165.07 184.753 163.495 182.773 161.516C180.82 159.51 179.271 157.18 178.125 154.523C176.979 151.867 176.406 149.029 176.406 146.008C176.406 142.987 176.979 140.148 178.125 137.492C179.271 134.836 180.82 132.518 182.773 130.539C184.753 128.534 187.07 126.958 189.727 125.812C192.383 124.641 195.221 124.042 198.242 124.016H216.406C218.333 124.016 220.143 124.38 221.836 125.109C223.555 125.839 225.039 126.841 226.289 128.117C227.565 129.367 228.568 130.839 229.297 132.531C230.026 134.224 230.391 136.047 230.391 138ZM216.406 144.016C217.214 144.016 217.982 143.859 218.711 143.547C219.44 143.234 220.078 142.805 220.625 142.258C221.172 141.711 221.602 141.073 221.914 140.344C222.227 139.615 222.383 138.833 222.383 138C222.383 137.193 222.227 136.424 221.914 135.695C221.602 134.966 221.172 134.328 220.625 133.781C220.078 133.234 219.44 132.805 218.711 132.492C217.982 132.154 217.214 131.984 216.406 131.984H198.242C196.471 131.984 194.805 132.297 193.242 132.922C191.706 133.547 190.326 134.406 189.102 135.5C187.904 136.568 186.901 137.844 186.094 139.328C185.312 140.786 184.805 142.349 184.57 144.016H216.406Z" fill="#5D8FE1"/>
<path d="M305.234 139.992C305.234 143.872 304.609 147.518 303.359 150.93C302.135 154.341 300.391 157.31 298.125 159.836C295.859 162.362 293.138 164.354 289.961 165.812C286.81 167.271 283.307 168 279.453 168H251.211V159.992H279.453C282.214 159.992 284.688 159.471 286.875 158.43C289.089 157.388 290.951 155.969 292.461 154.172C293.997 152.349 295.169 150.227 295.977 147.805C296.81 145.357 297.227 142.753 297.227 139.992C297.227 137.232 296.81 134.641 295.977 132.219C295.169 129.797 293.997 127.688 292.461 125.891C290.951 124.068 289.089 122.635 286.875 121.594C284.688 120.526 282.214 119.992 279.453 119.992H247.227V168H239.219V111.984H279.453C283.307 111.984 286.81 112.727 289.961 114.211C293.138 115.669 295.859 117.674 298.125 120.227C300.391 122.753 302.135 125.721 303.359 129.133C304.609 132.518 305.234 136.138 305.234 139.992ZM324.492 114.016C324.492 114.849 324.336 115.63 324.023 116.359C323.711 117.062 323.281 117.688 322.734 118.234C322.188 118.781 321.549 119.211 320.82 119.523C320.091 119.836 319.323 119.992 318.516 119.992C317.682 119.992 316.901 119.836 316.172 119.523C315.443 119.211 314.805 118.781 314.258 118.234C313.711 117.688 313.281 117.062 312.969 116.359C312.656 115.63 312.5 114.849 312.5 114.016C312.5 113.208 312.656 112.44 312.969 111.711C313.281 110.982 313.711 110.344 314.258 109.797C314.805 109.25 315.443 108.82 316.172 108.508C316.901 108.169 317.682 108 318.516 108C319.323 108 320.091 108.169 320.82 108.508C321.549 108.82 322.188 109.25 322.734 109.797C323.281 110.344 323.711 110.982 324.023 111.711C324.336 112.44 324.492 113.208 324.492 114.016ZM322.5 168H314.492V124.016H322.5V168Z" fill="#5BBBA9"/>
<path d="M20.2578 199.838V202.018H8.93555V209.283H19.3799V211.463H8.93555V220H6.63477V199.838H20.2578ZM22.0439 212.189C22.0439 210.575 22.3467 209.172 22.9521 207.981C23.5576 206.771 24.4053 205.832 25.4951 205.166C26.6051 204.48 27.8867 204.137 29.3398 204.137C30.7728 204.137 32.0342 204.48 33.124 205.166C34.2139 205.832 35.0615 206.771 35.667 207.981C36.2725 209.172 36.5752 210.575 36.5752 212.189C36.5752 213.804 36.2725 215.227 35.667 216.458C35.0615 217.669 34.2139 218.618 33.124 219.304C32.0342 219.97 30.7728 220.303 29.3398 220.303C27.8867 220.303 26.6051 219.97 25.4951 219.304C24.4053 218.618 23.5576 217.669 22.9521 216.458C22.3467 215.227 22.0439 213.804 22.0439 212.189ZM34.2139 212.189C34.2139 210.312 33.7799 208.859 32.9121 207.83C32.0645 206.781 30.8737 206.256 29.3398 206.256C27.7656 206.256 26.5446 206.781 25.6768 207.83C24.8291 208.859 24.4053 210.312 24.4053 212.189C24.4053 214.087 24.8291 215.56 25.6768 216.609C26.5446 217.659 27.7656 218.184 29.3398 218.184C30.8737 218.184 32.0645 217.659 32.9121 216.609C33.7799 215.56 34.2139 214.087 34.2139 212.189ZM46.8076 213.4L44.2949 213.067C42.7005 212.886 41.4795 212.452 40.6318 211.766C39.8044 211.059 39.3906 210.05 39.3906 208.738C39.3906 207.346 39.9255 206.246 40.9951 205.438C42.085 204.611 43.5785 204.197 45.4756 204.197C47.2718 204.197 48.7249 204.641 49.835 205.529C50.9652 206.417 51.611 207.628 51.7725 209.162H49.502C49.3203 208.133 48.8965 207.366 48.2305 206.861C47.5846 206.357 46.6562 206.104 45.4453 206.104C44.3151 206.104 43.3968 206.337 42.6904 206.801C42.0042 207.265 41.6611 207.87 41.6611 208.617C41.6611 209.364 41.9134 209.909 42.418 210.252C42.9225 210.595 43.6592 210.827 44.6279 210.948L47.1709 211.251C48.8662 211.453 50.1175 211.937 50.9248 212.704C51.7523 213.451 52.166 214.521 52.166 215.913C52.166 217.245 51.611 218.305 50.501 219.092C49.4111 219.879 47.9681 220.272 46.1719 220.272C44.1335 220.272 42.5088 219.828 41.2979 218.94C40.1071 218.032 39.4209 216.831 39.2393 215.338H41.6309C41.974 217.356 43.4876 218.365 46.1719 218.365C47.2819 218.365 48.18 218.153 48.8662 217.729C49.5524 217.285 49.8955 216.69 49.8955 215.943C49.8955 214.49 48.8662 213.643 46.8076 213.4ZM61.8838 217.941V220H60.4912C59.8454 220 59.2399 219.869 58.6748 219.606C58.1097 219.344 57.6455 218.93 57.2822 218.365C56.9391 217.78 56.7676 217.003 56.7676 216.034V206.498H53.9219V204.5H56.7676V200.474H59.0381V204.5H61.8838V206.498H59.0381V215.731C59.0381 216.619 59.1895 217.215 59.4922 217.518C59.7949 217.8 60.1885 217.941 60.6729 217.941H61.8838ZM63.8213 212.189C63.8213 210.535 64.1139 209.112 64.6992 207.921C65.3047 206.73 66.1423 205.812 67.2119 205.166C68.3018 204.52 69.5833 204.197 71.0566 204.197C72.4694 204.197 73.7106 204.53 74.7803 205.196C75.8701 205.862 76.7279 206.781 77.3535 207.951C77.9792 209.102 78.292 210.413 78.292 211.887V212.825H66.1826C66.2835 214.581 66.7578 215.923 67.6055 216.852C68.4733 217.76 69.6842 218.214 71.2383 218.214C72.5098 218.214 73.5189 217.931 74.2656 217.366C75.0326 216.801 75.5068 216.044 75.6885 215.096H78.1104C77.7673 216.751 77.0205 218.022 75.8701 218.91C74.7399 219.798 73.196 220.242 71.2383 220.242C69.7246 220.242 68.4128 219.919 67.3027 219.273C66.1927 218.607 65.335 217.679 64.7295 216.488C64.124 215.277 63.8213 213.844 63.8213 212.189ZM71.0566 206.165C68.1706 206.165 66.5661 207.77 66.2432 210.979H75.8398C75.7188 209.505 75.2243 208.335 74.3564 207.467C73.4886 206.599 72.3887 206.165 71.0566 206.165ZM81.2588 204.5H83.5596V206.831C84.0641 205.983 84.71 205.338 85.4971 204.894C86.2842 204.429 87.0915 204.197 87.9189 204.197H88.6152V206.589H87.9492C87.1217 206.589 86.375 206.76 85.709 207.104C85.043 207.447 84.5182 207.921 84.1348 208.526C83.7513 209.132 83.5596 209.828 83.5596 210.615V220H81.2588V204.5ZM91.1279 199.777H93.8525V202.32H91.1279V199.777ZM91.3398 204.5H93.6406V220H91.3398V204.5ZM107.657 210.615C107.657 209.102 107.274 208.012 106.507 207.346C105.76 206.66 104.761 206.316 103.51 206.316C102.279 206.316 101.249 206.7 100.422 207.467C99.5944 208.234 99.1807 209.213 99.1807 210.403V220H96.8799V204.5H99.1807V206.892C99.7458 206.024 100.482 205.348 101.391 204.863C102.299 204.379 103.227 204.137 104.176 204.137C105.851 204.137 107.223 204.651 108.293 205.681C109.383 206.71 109.928 208.193 109.928 210.131V220H107.657V210.615ZM127.305 204.5V220.333C127.305 221.463 127.012 222.452 126.427 223.3C125.862 224.168 125.064 224.844 124.035 225.328C123.026 225.812 121.835 226.055 120.463 226.055C118.424 226.055 116.749 225.59 115.438 224.662C114.126 223.754 113.349 222.533 113.106 220.999H115.498C115.619 221.948 116.104 222.684 116.951 223.209C117.819 223.734 118.969 223.996 120.402 223.996C121.855 223.996 122.986 223.663 123.793 222.997C124.62 222.331 125.034 221.393 125.034 220.182V216.549C124.469 217.558 123.722 218.345 122.794 218.91C121.886 219.455 120.836 219.728 119.646 219.728C118.293 219.728 117.103 219.405 116.073 218.759C115.064 218.113 114.277 217.205 113.712 216.034C113.147 214.864 112.864 213.491 112.864 211.917C112.864 210.363 113.147 209.011 113.712 207.86C114.277 206.69 115.064 205.782 116.073 205.136C117.103 204.49 118.293 204.167 119.646 204.167C120.836 204.167 121.886 204.45 122.794 205.015C123.722 205.56 124.469 206.326 125.034 207.315V204.5H127.305ZM115.226 211.917C115.226 213.733 115.649 215.136 116.497 216.125C117.365 217.114 118.576 217.608 120.13 217.608C121.684 217.608 122.885 217.114 123.732 216.125C124.6 215.136 125.034 213.733 125.034 211.917C125.034 210.141 124.6 208.758 123.732 207.77C122.885 206.76 121.684 206.256 120.13 206.256C118.576 206.256 117.365 206.76 116.497 207.77C115.649 208.758 115.226 210.141 115.226 211.917ZM136.447 209.858C136.447 207.78 136.811 205.973 137.537 204.439C138.264 202.885 139.283 201.685 140.595 200.837C141.907 199.969 143.44 199.535 145.196 199.535C146.791 199.535 148.203 199.828 149.435 200.413C150.686 200.978 151.685 201.796 152.432 202.865C153.178 203.915 153.612 205.156 153.733 206.589H151.372C151.291 205.075 150.696 203.884 149.586 203.017C148.476 202.129 147.023 201.685 145.227 201.685C143.208 201.685 141.634 202.401 140.504 203.834C139.374 205.267 138.809 207.275 138.809 209.858C138.809 212.462 139.374 214.48 140.504 215.913C141.634 217.346 143.208 218.062 145.227 218.062C147.003 218.062 148.446 217.629 149.556 216.761C150.666 215.873 151.271 214.672 151.372 213.158H153.733C153.592 214.611 153.148 215.873 152.401 216.942C151.655 217.992 150.656 218.809 149.404 219.395C148.173 219.96 146.771 220.242 145.196 220.242C143.461 220.242 141.937 219.808 140.625 218.94C139.313 218.073 138.284 216.862 137.537 215.308C136.811 213.754 136.447 211.937 136.447 209.858ZM156.397 212.189C156.397 210.575 156.7 209.172 157.306 207.981C157.911 206.771 158.759 205.832 159.849 205.166C160.959 204.48 162.24 204.137 163.693 204.137C165.126 204.137 166.388 204.48 167.478 205.166C168.567 205.832 169.415 206.771 170.021 207.981C170.626 209.172 170.929 210.575 170.929 212.189C170.929 213.804 170.626 215.227 170.021 216.458C169.415 217.669 168.567 218.618 167.478 219.304C166.388 219.97 165.126 220.303 163.693 220.303C162.24 220.303 160.959 219.97 159.849 219.304C158.759 218.618 157.911 217.669 157.306 216.458C156.7 215.227 156.397 213.804 156.397 212.189ZM168.567 212.189C168.567 210.312 168.133 208.859 167.266 207.83C166.418 206.781 165.227 206.256 163.693 206.256C162.119 206.256 160.898 206.781 160.03 207.83C159.183 208.859 158.759 210.312 158.759 212.189C158.759 214.087 159.183 215.56 160.03 216.609C160.898 217.659 162.119 218.184 163.693 218.184C165.227 218.184 166.418 217.659 167.266 216.609C168.133 215.56 168.567 214.087 168.567 212.189ZM173.896 198.294H176.196V220H173.896V198.294ZM179.436 198.294H181.736V220H179.436V198.294ZM197.6 209.707V220H195.299V217.245C194.734 218.174 193.967 218.92 192.998 219.485C192.049 220.05 190.98 220.333 189.789 220.333C188.8 220.333 187.912 220.141 187.125 219.758C186.358 219.354 185.753 218.809 185.309 218.123C184.885 217.417 184.673 216.609 184.673 215.701C184.673 214.45 185.056 213.451 185.823 212.704C186.61 211.957 187.71 211.544 189.123 211.463L193.482 211.13C194.148 211.09 194.613 210.958 194.875 210.736C195.158 210.494 195.299 210.111 195.299 209.586V209.525C195.299 208.557 194.915 207.749 194.148 207.104C193.402 206.438 192.483 206.104 191.394 206.104C188.83 206.104 187.428 207.204 187.186 209.404H184.794C184.895 207.81 185.541 206.538 186.731 205.59C187.922 204.641 189.466 204.167 191.363 204.167C192.554 204.167 193.614 204.409 194.542 204.894C195.491 205.378 196.237 206.044 196.782 206.892C197.327 207.719 197.6 208.658 197.6 209.707ZM187.004 215.641C187.004 216.468 187.317 217.124 187.942 217.608C188.568 218.093 189.406 218.335 190.455 218.335C191.383 218.335 192.211 218.123 192.938 217.699C193.664 217.255 194.239 216.66 194.663 215.913C195.087 215.166 195.299 214.319 195.299 213.37V212.886L189.91 213.249C187.973 213.39 187.004 214.188 187.004 215.641ZM200.899 198.294H203.2V207.376C203.745 206.367 204.472 205.58 205.38 205.015C206.308 204.429 207.358 204.137 208.528 204.137C209.881 204.137 211.061 204.48 212.07 205.166C213.1 205.832 213.897 206.771 214.462 207.981C215.047 209.172 215.34 210.575 215.34 212.189C215.34 213.804 215.047 215.227 214.462 216.458C213.897 217.669 213.1 218.618 212.07 219.304C211.061 219.97 209.881 220.303 208.528 220.303C207.358 220.303 206.308 220.02 205.38 219.455C204.472 218.87 203.745 218.062 203.2 217.033V220H200.899V198.294ZM212.979 212.189C212.979 210.312 212.545 208.859 211.677 207.83C210.829 206.781 209.638 206.256 208.104 206.256C206.53 206.256 205.319 206.781 204.472 207.83C203.624 208.859 203.2 210.312 203.2 212.189C203.2 214.087 203.624 215.56 204.472 216.609C205.319 217.659 206.53 218.184 208.104 218.184C209.638 218.184 210.829 217.659 211.677 216.609C212.545 215.56 212.979 214.087 212.979 212.189ZM218.004 212.189C218.004 210.575 218.307 209.172 218.912 207.981C219.518 206.771 220.365 205.832 221.455 205.166C222.565 204.48 223.847 204.137 225.3 204.137C226.733 204.137 227.994 204.48 229.084 205.166C230.174 205.832 231.021 206.771 231.627 207.981C232.232 209.172 232.535 210.575 232.535 212.189C232.535 213.804 232.232 215.227 231.627 216.458C231.021 217.669 230.174 218.618 229.084 219.304C227.994 219.97 226.733 220.303 225.3 220.303C223.847 220.303 222.565 219.97 221.455 219.304C220.365 218.618 219.518 217.669 218.912 216.458C218.307 215.227 218.004 213.804 218.004 212.189ZM230.174 212.189C230.174 210.312 229.74 208.859 228.872 207.83C228.024 206.781 226.834 206.256 225.3 206.256C223.726 206.256 222.505 206.781 221.637 207.83C220.789 208.859 220.365 210.312 220.365 212.189C220.365 214.087 220.789 215.56 221.637 216.609C222.505 217.659 223.726 218.184 225.3 218.184C226.834 218.184 228.024 217.659 228.872 216.609C229.74 215.56 230.174 214.087 230.174 212.189ZM235.502 204.5H237.803V206.831C238.307 205.983 238.953 205.338 239.74 204.894C240.527 204.429 241.335 204.197 242.162 204.197H242.858V206.589H242.192C241.365 206.589 240.618 206.76 239.952 207.104C239.286 207.447 238.761 207.921 238.378 208.526C237.994 209.132 237.803 209.828 237.803 210.615V220H235.502V204.5ZM257.813 209.707V220H255.513V217.245C254.948 218.174 254.181 218.92 253.212 219.485C252.263 220.05 251.194 220.333 250.003 220.333C249.014 220.333 248.126 220.141 247.339 219.758C246.572 219.354 245.966 218.809 245.522 218.123C245.099 217.417 244.887 216.609 244.887 215.701C244.887 214.45 245.27 213.451 246.037 212.704C246.824 211.957 247.924 211.544 249.337 211.463L253.696 211.13C254.362 211.09 254.826 210.958 255.089 210.736C255.371 210.494 255.513 210.111 255.513 209.586V209.525C255.513 208.557 255.129 207.749 254.362 207.104C253.616 206.438 252.697 206.104 251.607 206.104C249.044 206.104 247.642 207.204 247.399 209.404H245.008C245.109 207.81 245.755 206.538 246.945 205.59C248.136 204.641 249.68 204.167 251.577 204.167C252.768 204.167 253.827 204.409 254.756 204.894C255.704 205.378 256.451 206.044 256.996 206.892C257.541 207.719 257.813 208.658 257.813 209.707ZM247.218 215.641C247.218 216.468 247.531 217.124 248.156 217.608C248.782 218.093 249.619 218.335 250.669 218.335C251.597 218.335 252.425 218.123 253.151 217.699C253.878 217.255 254.453 216.66 254.877 215.913C255.301 215.166 255.513 214.319 255.513 213.37V212.886L250.124 213.249C248.187 213.39 247.218 214.188 247.218 215.641ZM268.076 217.941V220H266.684C266.038 220 265.432 219.869 264.867 219.606C264.302 219.344 263.838 218.93 263.475 218.365C263.132 217.78 262.96 217.003 262.96 216.034V206.498H260.114V204.5H262.96V200.474H265.23V204.5H268.076V206.498H265.23V215.731C265.23 216.619 265.382 217.215 265.685 217.518C265.987 217.8 266.381 217.941 266.865 217.941H268.076ZM270.498 199.777H273.223V202.32H270.498V199.777ZM270.71 204.5H273.011V220H270.71V204.5ZM275.947 212.189C275.947 210.575 276.25 209.172 276.855 207.981C277.461 206.771 278.309 205.832 279.398 205.166C280.508 204.48 281.79 204.137 283.243 204.137C284.676 204.137 285.938 204.48 287.027 205.166C288.117 205.832 288.965 206.771 289.57 207.981C290.176 209.172 290.479 210.575 290.479 212.189C290.479 213.804 290.176 215.227 289.57 216.458C288.965 217.669 288.117 218.618 287.027 219.304C285.938 219.97 284.676 220.303 283.243 220.303C281.79 220.303 280.508 219.97 279.398 219.304C278.309 218.618 277.461 217.669 276.855 216.458C276.25 215.227 275.947 213.804 275.947 212.189ZM288.117 212.189C288.117 210.312 287.683 208.859 286.815 207.83C285.968 206.781 284.777 206.256 283.243 206.256C281.669 206.256 280.448 206.781 279.58 207.83C278.732 208.859 278.309 210.312 278.309 212.189C278.309 214.087 278.732 215.56 279.58 216.609C280.448 217.659 281.669 218.184 283.243 218.184C284.777 218.184 285.968 217.659 286.815 216.609C287.683 215.56 288.117 214.087 288.117 212.189ZM304.223 210.615C304.223 209.102 303.839 208.012 303.072 207.346C302.326 206.66 301.326 206.316 300.075 206.316C298.844 206.316 297.815 206.7 296.987 207.467C296.16 208.234 295.746 209.213 295.746 210.403V220H293.445V204.5H295.746V206.892C296.311 206.024 297.048 205.348 297.956 204.863C298.864 204.379 299.793 204.137 300.741 204.137C302.416 204.137 303.789 204.651 304.858 205.681C305.948 206.71 306.493 208.193 306.493 210.131V220H304.223V210.615ZM316.998 213.4L314.485 213.067C312.891 212.886 311.67 212.452 310.822 211.766C309.995 211.059 309.581 210.05 309.581 208.738C309.581 207.346 310.116 206.246 311.186 205.438C312.275 204.611 313.769 204.197 315.666 204.197C317.462 204.197 318.915 204.641 320.025 205.529C321.156 206.417 321.801 207.628 321.963 209.162H319.692C319.511 208.133 319.087 207.366 318.421 206.861C317.775 206.357 316.847 206.104 315.636 206.104C314.506 206.104 313.587 206.337 312.881 206.801C312.195 207.265 311.852 207.87 311.852 208.617C311.852 209.364 312.104 209.909 312.608 210.252C313.113 210.595 313.85 210.827 314.818 210.948L317.361 211.251C319.057 211.453 320.308 211.937 321.115 212.704C321.943 213.451 322.356 214.521 322.356 215.913C322.356 217.245 321.801 218.305 320.691 219.092C319.602 219.879 318.159 220.272 316.362 220.272C314.324 220.272 312.699 219.828 311.488 218.94C310.298 218.032 309.611 216.831 309.43 215.338H311.821C312.164 217.356 313.678 218.365 316.362 218.365C317.472 218.365 318.37 218.153 319.057 217.729C319.743 217.285 320.086 216.69 320.086 215.943C320.086 214.49 319.057 213.643 316.998 213.4Z" fill="#232F4A"/>
<path d="M107.411 63.8206C107.386 63.8232 107.36 63.8232 107.335 63.8206C106.92 63.7527 106.498 63.7137 106.075 63.704C105.981 63.704 105.888 63.704 105.782 63.704C103.564 63.704 101.436 64.4505 99.8678 65.7792C98.2992 67.1079 97.418 68.91 97.418 70.789V70.8064C97.4269 72.1938 97.9167 73.5484 98.8266 74.7021C99.7365 75.8558 101.026 76.7577 102.536 77.2958C99.2531 76.4254 96.3745 74.7057 94.3047 72.3782C92.2349 70.0508 91.0778 67.2325 90.9961 64.3194C90.9961 64.2152 90.9961 64.1085 90.9961 63.9993C90.9961 62.1565 91.8603 60.3891 93.3987 59.086C94.9371 57.7829 97.0236 57.0508 99.1992 57.0508C99.2637 57.0508 99.334 57.0508 99.3984 57.0508C101.505 57.0916 103.512 57.8175 105.004 59.0778C106.495 60.3382 107.358 62.0365 107.411 63.8206Z" fill="#F0807D"/>
<path d="M123.748 65.8469C123.219 69.192 121.274 72.2608 118.276 74.4835C115.278 76.7061 111.429 77.9316 107.444 77.9324C106.876 77.9324 106.316 77.9075 105.763 77.8629C104.676 77.766 103.602 77.5799 102.558 77.307C101.046 76.766 99.7565 75.8604 98.8485 74.703C97.9405 73.5455 97.4546 72.1874 97.4512 70.7977V70.7803C97.4512 68.9013 98.3324 67.0992 99.901 65.7705C101.47 64.4418 103.597 63.6953 105.815 63.6953C105.909 63.6953 106.003 63.6953 106.108 63.6953C106.531 63.7042 106.953 63.7432 107.368 63.8119C107.392 63.8119 107.418 63.8119 107.444 63.8119C107.512 63.8082 107.579 63.8082 107.646 63.8119C107.646 63.8566 107.646 63.9435 107.646 63.9881C107.622 65.6841 108.331 67.3289 109.639 68.6128C110.948 69.8966 112.765 70.7308 114.749 70.9582C116.734 71.1855 118.748 70.7903 120.412 69.847C122.075 68.9036 123.275 67.4774 123.783 65.8369L123.748 65.8469Z" fill="#F0807D"/>
<path d="M123.89 63.9975C123.89 64.6157 123.842 65.2333 123.747 65.8463C123.238 67.4867 122.039 68.913 120.375 69.8563C118.711 70.7996 116.697 71.1948 114.713 70.9675C112.729 70.7402 110.911 69.906 109.603 68.6221C108.295 67.3382 107.586 65.6934 107.61 63.9975C107.61 63.9528 107.61 63.9106 107.61 63.8635V63.8213C109.752 63.8218 111.808 63.1129 113.341 61.8461C114.874 60.5793 115.761 58.855 115.813 57.0415C115.817 56.982 115.817 56.9223 115.813 56.8628C115.814 55.4006 115.27 53.9755 114.259 52.7903C113.248 51.6051 111.821 50.7202 110.182 50.2617C113.646 50.7583 116.831 52.1807 119.272 54.3209C121.713 56.4611 123.281 59.2067 123.747 62.1561C123.842 62.7666 123.89 63.3817 123.89 63.9975Z" fill="#F0807D"/>
<path d="M115.823 56.8642C115.828 56.9237 115.828 56.9834 115.823 57.0429C115.771 58.8564 114.884 60.5807 113.351 61.8475C111.819 63.1144 109.762 63.8232 107.62 63.8227H107.418C107.366 62.0372 106.504 60.3374 105.011 59.0759C103.519 57.8144 101.51 57.0881 99.4023 57.0479C99.3379 57.0479 99.2676 57.0479 99.2031 57.0479C97.0275 57.0479 94.941 57.7799 93.4026 59.083C91.8643 60.3861 91 62.1535 91 63.9964C91.0008 61.9694 91.5236 59.9669 92.532 58.1287C93.5403 56.2904 95.0099 54.6606 96.8383 53.3528C98.6666 52.0451 100.81 51.0909 103.118 50.5569C105.427 50.0228 107.845 49.9217 110.204 50.2606C111.842 50.721 113.266 51.6069 114.275 52.7925C115.284 53.978 115.825 55.4028 115.823 56.8642Z" fill="#F0807D"/>
<path d="M159.654 48.3242C155.739 49.9695 152.168 51.6893 149.865 53.2875C141.934 53.7486 134.044 54.6238 126.24 55.908C125.544 56.0042 124.83 55.8668 124.251 55.525C123.672 55.1832 123.273 54.6639 123.138 54.077C123.003 53.4901 123.143 52.8818 123.529 52.381C123.914 51.8802 124.515 51.5262 125.203 51.394C136.56 49.5243 148.087 48.4972 159.654 48.3242Z" fill="#81A0D3"/>
<path d="M206.602 54.712C206.474 55.2246 206.142 55.6845 205.662 56.015C205.182 56.3456 204.583 56.5268 203.965 56.5286C203.774 56.5294 203.583 56.5127 203.396 56.4789C190.188 54.0972 176.721 52.8945 163.216 52.8905H163.14C158.716 52.8905 154.293 53.0196 149.871 53.2776C152.174 51.6869 155.73 49.9672 159.659 48.3144C160.819 48.2979 161.979 48.2888 163.14 48.2871H163.219C177.103 48.29 190.948 49.5269 204.527 51.9773C204.876 52.0411 205.206 52.1626 205.499 52.3346C205.792 52.5067 206.042 52.7261 206.234 52.9801C206.427 53.2341 206.559 53.5179 206.622 53.8151C206.685 54.1123 206.678 54.4171 206.602 54.712Z" fill="#81A0D3"/>
<path d="M200.157 65.6643H129.689C128.97 65.6643 128.28 65.4222 127.771 64.9913C127.262 64.5603 126.977 63.9758 126.977 63.3663C126.977 62.7569 127.262 62.1724 127.771 61.7414C128.28 61.3105 128.97 61.0684 129.689 61.0684H200.157C200.877 61.0684 201.567 61.3105 202.076 61.7414C202.584 62.1724 202.87 62.7569 202.87 63.3663C202.87 63.9758 202.584 64.5603 202.076 64.9913C201.567 65.4222 200.877 65.6643 200.157 65.6643Z" fill="#FAC372"/>
<path d="M146.771 36.7715C140.982 38.3349 136.69 41.1019 135.808 43.6729C130.176 45.1214 124.718 47.014 119.504 49.326C118.867 49.6097 118.123 49.6673 117.435 49.4863C116.748 49.3052 116.174 48.9003 115.839 48.3606C115.504 47.8209 115.436 47.1907 115.65 46.6085C115.863 46.0263 116.341 45.5398 116.979 45.2561C126.322 41.121 136.376 38.2578 146.771 36.7715Z" fill="#5BBBA9"/>
<path d="M212.961 49.1021C212.791 49.3674 212.56 49.6016 212.282 49.7911C212.005 49.9806 211.686 50.1218 211.343 50.2064C211.001 50.2911 210.642 50.3176 210.288 50.2843C209.934 50.2511 209.59 50.1588 209.278 50.0128C202.497 46.8723 195.286 44.4502 187.807 42.8013C189.299 42.6468 190.776 42.3979 192.225 42.0568C193.968 41.6553 195.664 41.1178 197.29 40.4512C202.321 41.9586 207.199 43.8085 211.877 45.9827C212.509 46.2748 212.978 46.7675 213.181 47.3524C213.384 47.9373 213.305 48.5666 212.961 49.1021Z" fill="#5BBBA9"/>
<path d="M197.286 40.458C195.66 41.122 193.964 41.657 192.221 42.0562C190.772 42.3973 189.295 42.6461 187.803 42.8006C184.331 42.0296 180.809 41.4272 177.256 40.9965C172.838 40.4599 168.38 40.187 163.917 40.18C163.149 40.18 162.375 40.1858 161.594 40.1974C152.852 40.3477 144.177 41.5168 135.812 43.6717C136.691 41.1007 140.986 38.3337 146.775 36.7703C150.391 36.2514 154.037 35.9017 157.697 35.7231C158.943 35.6585 160.207 35.6155 161.488 35.594C173.671 35.3719 185.8 37.0198 197.289 40.458H197.286Z" fill="#5BBBA9"/>
<path d="M159.654 79.0337C155.739 77.3884 152.168 75.6711 149.865 74.0705C141.934 73.608 134.045 72.7329 126.24 71.4499C125.544 71.3537 124.83 71.4911 124.251 71.8329C123.672 72.1747 123.273 72.6941 123.138 73.2809C123.003 73.8678 123.143 74.4761 123.529 74.9769C123.914 75.4778 124.515 75.8318 125.203 75.9639C136.56 77.8336 148.087 78.8608 159.654 79.0337Z" fill="#8F86C8"/>
<path d="M206.602 72.633C206.474 72.1204 206.142 71.6605 205.662 71.3299C205.182 70.9994 204.583 70.8181 203.965 70.8164C203.774 70.816 203.584 70.8318 203.396 70.8636C190.188 73.2477 176.721 74.4504 163.216 74.452H163.14C158.716 74.452 154.293 74.3238 149.871 74.0673C152.174 75.658 155.73 77.3753 159.659 79.0306C160.819 79.0504 161.979 79.0595 163.14 79.0579H163.219C177.103 79.0558 190.948 77.8198 204.527 75.3702C204.876 75.3064 205.206 75.1848 205.5 75.0126C205.793 74.8403 206.043 74.6208 206.236 74.3665C206.428 74.1121 206.56 73.8281 206.623 73.5306C206.685 73.2331 206.678 72.9281 206.602 72.633Z" fill="#8F86C8"/>
<path d="M146.773 90.5749C140.984 89.0115 136.692 86.2445 135.81 83.6735C130.178 82.2251 124.72 80.3324 119.506 78.0204C118.87 77.7458 118.132 77.6944 117.452 77.8773C116.772 78.0603 116.205 78.4629 115.872 78.9979C115.54 79.5328 115.47 80.1572 115.678 80.7355C115.885 81.3139 116.353 81.7997 116.981 82.0878C126.324 86.2239 136.378 89.088 146.773 90.5749Z" fill="#F0807D"/>
<path d="M212.961 78.243C212.728 77.8807 212.383 77.5783 211.964 77.3678C211.545 77.1573 211.066 77.0464 210.579 77.0469C210.124 77.0467 209.676 77.1449 209.278 77.3323C202.498 80.4754 195.286 82.9 187.807 84.5513C189.299 84.6997 190.776 84.9436 192.225 85.2809C193.968 85.6824 195.664 86.2199 197.29 86.8865C202.32 85.3804 207.198 83.533 211.877 81.3624C212.509 81.0703 212.978 80.5777 213.181 79.9927C213.384 79.4078 213.305 78.7785 212.961 78.243Z" fill="#F0807D"/>
<path d="M197.286 86.8879C195.66 86.2213 193.964 85.6838 192.221 85.2823C190.772 84.945 189.295 84.7011 187.803 84.5527C184.33 85.3217 180.809 85.9232 177.256 86.3543C172.838 86.8906 168.38 87.1643 163.917 87.1733C163.149 87.1733 162.375 87.1675 161.594 87.1559C152.853 87.0032 144.178 85.8342 135.812 83.6816C136.691 86.2526 140.986 89.0196 146.775 90.583C150.391 91.102 154.037 91.4516 157.697 91.6303C158.943 91.6948 160.207 91.7378 161.488 91.7593C166.789 91.8544 172.09 91.5971 177.344 90.99C184.139 90.2035 190.822 88.829 197.286 86.8879Z" fill="#F0807D"/>
<path d="M230.941 70.7355C229.581 70.7358 228.242 70.4494 227.045 69.9023C225.848 69.3552 224.83 68.5644 224.083 67.6013L217.989 71.7505V65.956H206.309C206.788 68.521 208.104 70.9217 210.108 72.8873C212.111 74.8529 214.723 76.3054 217.649 77.081C218.694 77.3542 219.767 77.5403 220.854 77.6369C221.408 77.6816 221.971 77.7064 222.536 77.7064C226.523 77.7109 230.377 76.4891 233.38 74.268C236.384 72.047 238.333 68.9778 238.866 65.6309C238.386 67.0986 237.351 68.3925 235.919 69.3144C234.488 70.2364 232.74 70.7356 230.941 70.7355Z" fill="#5BBBA9"/>
<path d="M239.009 63.7778C239.008 64.3953 238.96 65.012 238.865 65.6242C238.452 66.9173 237.605 68.0816 236.428 68.9767C235.252 69.8719 233.794 70.4597 232.232 70.6695C230.67 70.8793 229.07 70.7021 227.624 70.1592C226.178 69.6162 224.948 68.7308 224.082 67.6094L230.176 63.4552L228.005 61.9662C228.897 61.3342 229.62 60.5482 230.125 59.6606C230.631 58.7731 230.907 57.8044 230.935 56.8194C230.935 56.7573 230.935 56.6978 230.935 56.6382C230.936 55.1763 230.392 53.7514 229.382 52.5662C228.371 51.3811 226.945 50.496 225.307 50.0371C228.767 50.5353 231.949 51.9579 234.388 54.0969C236.826 56.236 238.393 58.9795 238.859 61.9265C238.957 62.5402 239.007 63.1586 239.009 63.7778Z" fill="#5BBBA9"/>
<path d="M225.313 50.0403C221.115 49.4367 216.803 50.2354 213.286 52.2684C209.768 54.3014 207.317 57.4105 206.449 60.9421H217.989V55.145L224.083 59.2968L228.006 61.9695C228.898 61.3375 229.621 60.5514 230.126 59.6639C230.632 58.7763 230.908 57.8077 230.936 56.8226C230.936 56.7606 230.936 56.701 230.936 56.6414C230.937 55.1801 230.394 53.7557 229.385 52.5706C228.376 51.3855 226.951 50.5001 225.313 50.0403Z" fill="#5BBBA9"/>
</svg>
