<svg id="Layer_1" data-name="Layer 1" xmlns="http://www.w3.org/2000/svg" xmlns:xlink="http://www.w3.org/1999/xlink" viewBox="0 0 128 128"><defs><style>.cls-1{fill:none;}.cls-2{fill:url(#linear-gradient);}.cls-3{fill:url(#linear-gradient-2);}.cls-4{fill:url(#linear-gradient-3);}.cls-5{fill:url(#linear-gradient-4);}.cls-6{fill:url(#linear-gradient-5);}.cls-7{fill:url(#linear-gradient-6);}.cls-8{fill:url(#linear-gradient-7);}.cls-9{fill:url(#linear-gradient-8);}.cls-10{fill:url(#linear-gradient-9);}.cls-11{fill:url(#linear-gradient-10);}.cls-12{fill:url(#linear-gradient-11);}.cls-13{fill:url(#linear-gradient-12);}.cls-14{fill:url(#linear-gradient-13);}.cls-15{fill:url(#linear-gradient-14);}.cls-16{fill:url(#linear-gradient-15);}.cls-17{fill:url(#linear-gradient-16);}.cls-18{fill:url(#linear-gradient-17);}.cls-19{fill:url(#linear-gradient-18);}</style><linearGradient id="linear-gradient" x1="7.38" y1="69.1" x2="9.22" y2="60.89" gradientUnits="userSpaceOnUse"><stop offset="0" stop-color="#bd1f21"/><stop offset="1" stop-color="#e66063"/></linearGradient><linearGradient id="linear-gradient-2" x1="22.57" y1="72.19" x2="10.88" y2="65.4" xlink:href="#linear-gradient"/><linearGradient id="linear-gradient-3" x1="25.36" y1="56.13" x2="18.97" y2="63.44" xlink:href="#linear-gradient"/><linearGradient id="linear-gradient-4" x1="8.24" y1="57.77" x2="18.13" y2="55.93" xlink:href="#linear-gradient"/><linearGradient id="linear-gradient-5" x1="52.35" y1="50.18" x2="33.59" y2="52.72" gradientUnits="userSpaceOnUse"><stop offset="0" stop-color="#ff8910"/><stop offset="1" stop-color="#ffd411"/></linearGradient><linearGradient id="linear-gradient-6" x1="94.96" y1="55.02" x2="62.73" y2="50.3" xlink:href="#linear-gradient-5"/><linearGradient id="linear-gradient-7" x1="37.63" y1="62.8" x2="88.96" y2="62.8" gradientUnits="userSpaceOnUse"><stop offset="0" stop-color="#54f42d"/><stop offset="1" stop-color="#029743"/></linearGradient><linearGradient id="linear-gradient-8" x1="22.47" y1="42.79" x2="48.7" y2="42.79" xlink:href="#linear-gradient"/><linearGradient id="linear-gradient-9" x1="84.06" y1="47.34" x2="103.86" y2="43.66" xlink:href="#linear-gradient"/><linearGradient id="linear-gradient-10" x1="39.69" y1="44.33" x2="90.15" y2="34.95" xlink:href="#linear-gradient"/><linearGradient id="linear-gradient-11" x1="52.35" y1="-712.3" x2="33.59" y2="-709.76" gradientTransform="matrix(1, 0, 0, -1, 0, -636.27)" gradientUnits="userSpaceOnUse"><stop offset="0" stop-color="#312df4"/><stop offset="1" stop-color="#0990fa"/></linearGradient><linearGradient id="linear-gradient-12" x1="94.96" y1="-707.46" x2="62.73" y2="-712.18" xlink:href="#linear-gradient-11"/><linearGradient id="linear-gradient-13" x1="28.21" y1="80.17" x2="39.61" y2="86.84" gradientUnits="userSpaceOnUse"><stop offset="0" stop-color="#9521fa"/><stop offset="1" stop-color="#6d31eb"/></linearGradient><linearGradient id="linear-gradient-14" x1="102.52" y1="79" x2="88.25" y2="84.3" xlink:href="#linear-gradient-13"/><linearGradient id="linear-gradient-15" x1="39.69" y1="-718.15" x2="90.15" y2="-727.53" gradientTransform="matrix(1, 0, 0, -1, 0, -636.27)" gradientUnits="userSpaceOnUse"><stop offset="0" stop-color="#9521fa"/><stop offset="0.47" stop-color="#6d31eb"/><stop offset="0.96" stop-color="#9122f9"/></linearGradient><linearGradient id="linear-gradient-16" x1="118.21" y1="71.55" x2="102.85" y2="62.63" gradientUnits="userSpaceOnUse"><stop offset="0" stop-color="#029743"/><stop offset="1" stop-color="#54f42d"/></linearGradient><linearGradient id="linear-gradient-17" x1="122.01" y1="55.91" x2="115.62" y2="63.22" xlink:href="#linear-gradient-16"/><linearGradient id="linear-gradient-18" x1="101.51" y1="55.92" x2="118.44" y2="55.25" xlink:href="#linear-gradient-16"/></defs><path class="cls-1" d="M14.53,63.13a6.26,6.26,0,0,1,1.06.12A6,6,0,0,1,14.53,63.13Z"/><path class="cls-1" d="M15.82,63.25v0l-.17,0h.17Z"/><path class="cls-1" d="M15.59,63.25a6,6,0,0,1-1.06-.12A6.26,6.26,0,0,1,15.59,63.25Z"/><path class="cls-1" d="M18,49.81a13.67,13.67,0,0,0-2.31-.19,15,15,0,0,0-1.79.11,7,7,0,0,1,4.1.08Z"/><path class="cls-2" d="M15.65,63.25h-.06a6.26,6.26,0,0,0-1.06-.12h-.24a7,7,0,0,0-7,7h0a7,7,0,0,0,4.29,6.46A13.83,13.83,0,0,1,1.87,63.74c0-.1,0-.21,0-.31a6.9,6.9,0,0,1,6.9-6.9h.17A6.88,6.88,0,0,1,15.65,63.25Z"/><path class="cls-1" d="M14.53,63.13a6.26,6.26,0,0,1,1.06.12A6,6,0,0,1,14.53,63.13Z"/><path class="cls-1" d="M15.65,63.26h0Z"/><path class="cls-3" d="M29.37,65.26a13.82,13.82,0,0,1-13.69,12c-.48,0-.95,0-1.42-.07h0a14,14,0,0,1-2.69-.55h0a7,7,0,0,1-4.29-6.46h0a7,7,0,0,1,7-7h.24a6,6,0,0,1,1.06.12h.23v.18a6.89,6.89,0,0,0,5.49,6.75,6.53,6.53,0,0,0,1.4.15A6.92,6.92,0,0,0,29.37,65.26Z"/><path class="cls-1" d="M11.57,76.62a14,14,0,0,0,2.69.55A6.84,6.84,0,0,1,11.57,76.62Z"/><path class="cls-4" d="M29.49,63.43a15.77,15.77,0,0,1-.12,1.83,6.92,6.92,0,0,1-6.66,5.07,6.53,6.53,0,0,1-1.4-.15,6.89,6.89,0,0,1-5.49-6.75v-.18a6.89,6.89,0,0,0,6.89-6.72v-.18A6.9,6.9,0,0,0,18,49.81,13.84,13.84,0,0,1,29.37,61.6,15.77,15.77,0,0,1,29.49,63.43Z"/><path class="cls-5" d="M22.71,56.35v.18a6.89,6.89,0,0,1-6.89,6.72h-.17a6.88,6.88,0,0,0-6.72-6.71H8.76a6.9,6.9,0,0,0-6.9,6.9,13.83,13.83,0,0,1,12-13.7,15,15,0,0,1,1.79-.11,13.67,13.67,0,0,1,2.31.19A6.9,6.9,0,0,1,22.71,56.35Z"/><path class="cls-1" d="M108.09,76.62a14.1,14.1,0,0,0,2.69.55A6.92,6.92,0,0,1,108.09,76.62Z"/><path class="cls-6" d="M59.51,47.89a47.4,47.4,0,0,0-8.22,4.91,162.75,162.75,0,0,0-19.83,2.6,2.28,2.28,0,0,1-.87-4.48A167.7,167.7,0,0,1,59.51,47.89Z"/><path class="cls-7" d="M98.93,54.22A2.27,2.27,0,0,1,96.71,56a2.59,2.59,0,0,1-.48,0A161.67,161.67,0,0,0,62.5,52.42h-.07c-3.71,0-7.43.13-11.14.38a47.4,47.4,0,0,1,8.22-4.91l2.92,0h.07a167.33,167.33,0,0,1,34.68,3.66A2.27,2.27,0,0,1,98.93,54.22Z"/><path class="cls-8" d="M93.52,65.08H34.35a2.28,2.28,0,1,1,0-4.56H93.52a2.28,2.28,0,1,1,0,4.56Z"/><path class="cls-9" d="M48.7,36.44c-4.86,1.55-8.47,4.29-9.21,6.84a79.8,79.8,0,0,0-13.69,5.6,2.28,2.28,0,0,1-2.12-4A84.22,84.22,0,0,1,48.7,36.44Z"/><path class="cls-10" d="M104.26,48.66a2.26,2.26,0,0,1-2,1.19,2.21,2.21,0,0,1-1.1-.29,79.11,79.11,0,0,0-18-7.15,26.31,26.31,0,0,0,3.71-.72,25,25,0,0,0,4.25-1.6,83.78,83.78,0,0,1,12.25,5.48A2.27,2.27,0,0,1,104.26,48.66Z"/><path class="cls-11" d="M91.11,40.09a25,25,0,0,1-4.25,1.6,26.31,26.31,0,0,1-3.71.72,79.06,79.06,0,0,0-8.85-1.79h0a80.88,80.88,0,0,0-11.19-.81c-.65,0-1.3,0-2,0a80.08,80.08,0,0,0-21.66,3.45c.74-2.55,4.35-5.29,9.21-6.84h0a85.27,85.27,0,0,1,9.17-1c1-.06,2.11-.11,3.18-.13a85.28,85.28,0,0,1,30.06,4.82Z"/><path class="cls-12" d="M59.51,78.32a47.4,47.4,0,0,1-8.22-4.91,162.75,162.75,0,0,1-19.83-2.6,2.28,2.28,0,1,0-.87,4.47A166.73,166.73,0,0,0,59.51,78.32Z"/><path class="cls-13" d="M98.93,72a2.27,2.27,0,0,0-2.22-1.8,2.61,2.61,0,0,0-.48,0A161.67,161.67,0,0,1,62.5,73.79h-.07c-3.71,0-7.43-.13-11.14-.38a47.4,47.4,0,0,0,8.22,4.91l2.92,0h.07a166.64,166.64,0,0,0,34.68-3.65A2.28,2.28,0,0,0,98.93,72Z"/><path class="cls-14" d="M48.7,89.77c-4.86-1.55-8.47-4.29-9.21-6.84A79,79,0,0,1,25.8,77.32a2.28,2.28,0,0,0-2.12,4A84.51,84.51,0,0,0,48.7,89.77Z"/><path class="cls-15" d="M104.26,77.55a2.26,2.26,0,0,0-2-1.19,2.31,2.31,0,0,0-1.1.28,79.08,79.08,0,0,1-18,7.16,26.31,26.31,0,0,1,3.71.72,25,25,0,0,1,4.25,1.59,82.78,82.78,0,0,0,12.25-5.47A2.27,2.27,0,0,0,104.26,77.55Z"/><path class="cls-16" d="M91.11,86.11a25,25,0,0,0-4.25-1.59,26.31,26.31,0,0,0-3.71-.72,79.09,79.09,0,0,1-8.85,1.78h0a79.32,79.32,0,0,1-11.19.82l-2,0a80.08,80.08,0,0,1-21.66-3.45c.74,2.55,4.35,5.29,9.21,6.84h0a85.27,85.27,0,0,0,9.17,1c1,.06,2.11.1,3.18.12a84.66,84.66,0,0,0,13.31-.76A84.25,84.25,0,0,0,91.11,86.11Z"/><path class="cls-1" d="M108.22,76.4a14.74,14.74,0,0,0,2.69.55A7.06,7.06,0,0,1,108.22,76.4Z"/><path class="cls-1" d="M114.64,49.59a13.59,13.59,0,0,0-2.31-.19,15.09,15.09,0,0,0-1.79.11,7,7,0,0,1,4.1.08Z"/><path class="cls-17" d="M119.36,70.1A6.52,6.52,0,0,1,118,70a6.85,6.85,0,0,1-4.35-3l-5.12,4.11V65.37h-9.8a13.79,13.79,0,0,0,9.52,11h0a14,14,0,0,0,2.69.55h0c.47,0,.94.07,1.42.07A13.82,13.82,0,0,0,126,65,6.91,6.91,0,0,1,119.36,70.1Z"/><path class="cls-18" d="M126.14,63.21A15.77,15.77,0,0,1,126,65a6.91,6.91,0,0,1-6.66,5.06A6.52,6.52,0,0,1,118,70a6.85,6.85,0,0,1-4.35-3l5.11-4.12-1.82-1.46a6.9,6.9,0,0,0,2.46-5.11v-.18a6.89,6.89,0,0,0-4.72-6.54A13.83,13.83,0,0,1,126,61.38,15.62,15.62,0,0,1,126.14,63.21Z"/><path class="cls-19" d="M114.64,49.59a13.67,13.67,0,0,0-2.31-.19,15,15,0,0,0-1.79.11A13.84,13.84,0,0,0,98.8,60.4h9.69V54.65l5.12,4.12,3.29,2.65a6.9,6.9,0,0,0,2.46-5.11v-.18A6.89,6.89,0,0,0,114.64,49.59Z"/></svg>