<svg id="Layer_1" data-name="Layer 1" xmlns="http://www.w3.org/2000/svg" xmlns:xlink="http://www.w3.org/1999/xlink" viewBox="0 0 192 192"><defs><style>.cls-1{fill:none;}.cls-2{fill:url(#linear-gradient);}.cls-3{fill:url(#linear-gradient-2);}.cls-4{fill:url(#linear-gradient-3);}.cls-5{fill:url(#linear-gradient-4);}.cls-6{fill:url(#linear-gradient-5);}.cls-7{fill:url(#linear-gradient-6);}.cls-8{fill:url(#linear-gradient-7);}.cls-9{fill:url(#linear-gradient-8);}.cls-10{fill:url(#linear-gradient-9);}.cls-11{fill:url(#linear-gradient-10);}.cls-12{fill:url(#linear-gradient-11);}.cls-13{fill:url(#linear-gradient-12);}.cls-14{fill:url(#linear-gradient-13);}.cls-15{fill:url(#linear-gradient-14);}.cls-16{fill:url(#linear-gradient-15);}.cls-17{fill:url(#linear-gradient-16);}.cls-18{fill:url(#linear-gradient-17);}.cls-19{fill:url(#linear-gradient-18);}</style><linearGradient id="linear-gradient" x1="10.65" y1="104.15" x2="13.43" y2="91.77" gradientUnits="userSpaceOnUse"><stop offset="0" stop-color="#bd1f21"/><stop offset="1" stop-color="#e66063"/></linearGradient><linearGradient id="linear-gradient-2" x1="33.54" y1="108.8" x2="15.94" y2="98.57" xlink:href="#linear-gradient"/><linearGradient id="linear-gradient-3" x1="37.76" y1="84.59" x2="28.13" y2="95.61" xlink:href="#linear-gradient"/><linearGradient id="linear-gradient-4" x1="11.94" y1="87.07" x2="26.86" y2="84.29" xlink:href="#linear-gradient"/><linearGradient id="linear-gradient-5" x1="78.44" y1="75.63" x2="50.16" y2="79.44" gradientUnits="userSpaceOnUse"><stop offset="0" stop-color="#ff8910"/><stop offset="1" stop-color="#ffd411"/></linearGradient><linearGradient id="linear-gradient-6" x1="142.67" y1="82.92" x2="94.09" y2="75.81" xlink:href="#linear-gradient-5"/><linearGradient id="linear-gradient-7" x1="56.26" y1="94.65" x2="133.63" y2="94.65" gradientUnits="userSpaceOnUse"><stop offset="0" stop-color="#54f42d"/><stop offset="1" stop-color="#029743"/></linearGradient><linearGradient id="linear-gradient-8" x1="33.4" y1="64.49" x2="72.93" y2="64.49" xlink:href="#linear-gradient"/><linearGradient id="linear-gradient-9" x1="126.24" y1="71.34" x2="156.08" y2="65.79" xlink:href="#linear-gradient"/><linearGradient id="linear-gradient-10" x1="59.35" y1="66.81" x2="135.42" y2="52.66" xlink:href="#linear-gradient"/><linearGradient id="linear-gradient-11" x1="78.44" y1="-686.85" x2="50.16" y2="-683.04" gradientTransform="matrix(1, 0, 0, -1, 0, -572.27)" gradientUnits="userSpaceOnUse"><stop offset="0" stop-color="#312df4"/><stop offset="1" stop-color="#0990fa"/></linearGradient><linearGradient id="linear-gradient-12" x1="142.67" y1="-679.56" x2="94.09" y2="-686.67" xlink:href="#linear-gradient-11"/><linearGradient id="linear-gradient-13" x1="42.06" y1="120.82" x2="59.23" y2="130.89" gradientUnits="userSpaceOnUse"><stop offset="0" stop-color="#9521fa"/><stop offset="1" stop-color="#6d31eb"/></linearGradient><linearGradient id="linear-gradient-14" x1="154.07" y1="119.07" x2="132.56" y2="127.05" xlink:href="#linear-gradient-13"/><linearGradient id="linear-gradient-15" x1="59.35" y1="-695.67" x2="135.42" y2="-709.82" gradientTransform="matrix(1, 0, 0, -1, 0, -572.27)" gradientUnits="userSpaceOnUse"><stop offset="0" stop-color="#9521fa"/><stop offset="0.47" stop-color="#6d31eb"/><stop offset="0.96" stop-color="#9122f9"/></linearGradient><linearGradient id="linear-gradient-16" x1="177.71" y1="107.84" x2="154.56" y2="94.39" gradientUnits="userSpaceOnUse"><stop offset="0" stop-color="#029743"/><stop offset="1" stop-color="#54f42d"/></linearGradient><linearGradient id="linear-gradient-17" x1="183.44" y1="84.26" x2="173.81" y2="95.27" xlink:href="#linear-gradient-16"/><linearGradient id="linear-gradient-18" x1="152.53" y1="84.28" x2="178.07" y2="83.26" xlink:href="#linear-gradient-16"/></defs><path class="cls-1" d="M21.43,95.14a10.31,10.31,0,0,1,1.59.18A10.46,10.46,0,0,1,21.43,95.14Z"/><path class="cls-1" d="M23.37,95.33v.06l-.25,0-.1,0h.35Z"/><path class="cls-1" d="M23,95.32a10.46,10.46,0,0,1-1.59-.18A10.31,10.31,0,0,1,23,95.32Z"/><path class="cls-1" d="M26.64,75.07a21,21,0,0,0-3.48-.29,21.71,21.71,0,0,0-2.69.17,10.26,10.26,0,0,1,2.9-.41A10.14,10.14,0,0,1,26.64,75.07Z"/><path class="cls-2" d="M23.12,95.32H23a10.31,10.31,0,0,0-1.59-.18h-.36a10.58,10.58,0,0,0-10.58,10.58v0A10.57,10.57,0,0,0,17,115.47a20.81,20.81,0,0,1-14.6-19.4c0-.16,0-.32,0-.48A10.39,10.39,0,0,1,12.74,85.2H13A10.37,10.37,0,0,1,23.12,95.32Z"/><path class="cls-1" d="M21.43,95.14a10.31,10.31,0,0,1,1.59.18A10.46,10.46,0,0,1,21.43,95.14Z"/><path class="cls-1" d="M23.12,95.34l-.1,0h.1Z"/><path class="cls-3" d="M43.79,98.35a20.82,20.82,0,0,1-20.63,18.06c-.72,0-1.43,0-2.13-.11h0a20.92,20.92,0,0,1-4.05-.82h0a10.57,10.57,0,0,1-6.46-9.72v0A10.58,10.58,0,0,1,21.07,95.14h.36a9,9,0,0,1,1.59.18h.1c.09,0,.17,0,.25,0v.26a10.4,10.4,0,0,0,8.29,10.18,9.75,9.75,0,0,0,2.11.22A10.41,10.41,0,0,0,43.79,98.35Z"/><path class="cls-1" d="M17,115.48a20.92,20.92,0,0,0,4.05.82A10.46,10.46,0,0,1,17,115.48Z"/><path class="cls-4" d="M44,95.59a20.85,20.85,0,0,1-.19,2.76,10.41,10.41,0,0,1-10,7.64,9.75,9.75,0,0,1-2.11-.22,10.4,10.4,0,0,1-8.29-10.18v-.26A10.41,10.41,0,0,0,33.76,85.2a2.44,2.44,0,0,0,0-.27,10.38,10.38,0,0,0-7.13-9.86A20.87,20.87,0,0,1,44,95.59Z"/><path class="cls-5" d="M33.77,84.93a2.44,2.44,0,0,1,0,.27A10.41,10.41,0,0,1,23.37,95.33h-.25A10.37,10.37,0,0,0,13,85.21h-.25A10.39,10.39,0,0,0,2.34,95.59,20.82,20.82,0,0,1,20.47,75a21.71,21.71,0,0,1,2.69-.17,21,21,0,0,1,3.48.29A10.38,10.38,0,0,1,33.77,84.93Z"/><path class="cls-1" d="M162.46,115.48a20.92,20.92,0,0,0,4,.82A10.5,10.5,0,0,1,162.46,115.48Z"/><path class="cls-6" d="M89.23,72.17a71.09,71.09,0,0,0-12.38,7.4A247.27,247.27,0,0,0,47,83.49a3.43,3.43,0,0,1-1.31-6.74A251.64,251.64,0,0,1,89.23,72.17Z"/><path class="cls-7" d="M148.65,81.72a3.42,3.42,0,0,1-3.35,2.71,3.51,3.51,0,0,1-.72-.07A244.19,244.19,0,0,0,93.73,79h-.09q-8.4,0-16.79.57a71.09,71.09,0,0,1,12.38-7.4c1.47,0,2.94,0,4.41,0h.1A251.72,251.72,0,0,1,146,77.64,3.43,3.43,0,0,1,148.65,81.72Z"/><path class="cls-8" d="M140.5,98.08H51.31a3.44,3.44,0,0,1,0-6.87H140.5a3.44,3.44,0,0,1,0,6.87Z"/><path class="cls-9" d="M72.93,54.91c-7.32,2.34-12.76,6.47-13.87,10.31a118.16,118.16,0,0,0-20.63,8.45,3.44,3.44,0,0,1-3.2-6.08A127.25,127.25,0,0,1,72.93,54.91Z"/><path class="cls-10" d="M156.69,73.33a3.43,3.43,0,0,1-3,1.79,3.39,3.39,0,0,1-1.65-.43,119.34,119.34,0,0,0-27.17-10.78,38.21,38.21,0,0,0,5.59-1.09,37.43,37.43,0,0,0,6.41-2.4,125.59,125.59,0,0,1,18.47,8.25A3.44,3.44,0,0,1,156.69,73.33Z"/><path class="cls-11" d="M136.86,60.42a37.43,37.43,0,0,1-6.41,2.4,38.21,38.21,0,0,1-5.59,1.09,116.45,116.45,0,0,0-13.34-2.69h0A121.88,121.88,0,0,0,94.64,60L91.7,60a120.74,120.74,0,0,0-32.64,5.2c1.11-3.84,6.55-8,13.87-10.31h0a126.78,126.78,0,0,1,13.82-1.56c1.57-.1,3.17-.16,4.79-.2a128.89,128.89,0,0,1,20.07,1.15A127.18,127.18,0,0,1,136.86,60.42Z"/><path class="cls-12" d="M89.23,118a69.87,69.87,0,0,1-12.38-7.4A245.27,245.27,0,0,1,47,106.72a3.43,3.43,0,0,0-1.31,6.74A251.63,251.63,0,0,0,89.23,118Z"/><path class="cls-13" d="M148.65,108.49a3.43,3.43,0,0,0-3.35-2.72,3.53,3.53,0,0,0-.72.08,244.87,244.87,0,0,1-50.85,5.36h-.09q-8.4,0-16.79-.58A69.87,69.87,0,0,0,89.23,118c1.47,0,2.94,0,4.41,0h.1A251.05,251.05,0,0,0,146,112.56,3.42,3.42,0,0,0,148.65,108.49Z"/><path class="cls-14" d="M72.93,135.29C65.61,133,60.17,128.83,59.06,125a119,119,0,0,1-20.63-8.44,3.44,3.44,0,0,0-3.2,6.08A127,127,0,0,0,72.93,135.29Z"/><path class="cls-15" d="M156.69,116.87a3.42,3.42,0,0,0-3-1.78,3.38,3.38,0,0,0-1.65.42,119.31,119.31,0,0,1-27.17,10.79,36.93,36.93,0,0,1,5.59,1.09,35.84,35.84,0,0,1,6.41,2.4,124.5,124.5,0,0,0,18.47-8.26A3.44,3.44,0,0,0,156.69,116.87Z"/><path class="cls-16" d="M136.86,129.79a35.84,35.84,0,0,0-6.41-2.4,36.93,36.93,0,0,0-5.59-1.09A120.91,120.91,0,0,1,111.52,129h0a120.4,120.4,0,0,1-16.88,1.22c-1,0-2,0-2.94,0A120.72,120.72,0,0,1,59.06,125c1.11,3.85,6.55,8,13.87,10.31h0a124.31,124.31,0,0,0,13.82,1.57c1.57.1,3.17.16,4.79.19a127.68,127.68,0,0,0,20.07-1.15A127.2,127.2,0,0,0,136.86,129.79Z"/><path class="cls-1" d="M162.65,115.14a21,21,0,0,0,4.06.83A10.37,10.37,0,0,1,162.65,115.14Z"/><path class="cls-1" d="M172.33,74.74a20,20,0,0,0-3.48-.3,19.82,19.82,0,0,0-2.69.18,10.27,10.27,0,0,1,2.9-.42A10.15,10.15,0,0,1,172.33,74.74Z"/><path class="cls-17" d="M179.45,105.66a10.49,10.49,0,0,1-2.11-.22,10.34,10.34,0,0,1-6.57-4.47l-7.71,6.2V98.52H148.28a20.86,20.86,0,0,0,14.36,16.62h0a21,21,0,0,0,4.06.83h0c.7.07,1.41.11,2.12.11A20.83,20.83,0,0,0,189.48,98,10.41,10.41,0,0,1,179.45,105.66Z"/><path class="cls-18" d="M189.66,95.26a21,21,0,0,1-.18,2.76,10.39,10.39,0,0,1-18.71,3l7.71-6.2-2.75-2.21a10.33,10.33,0,0,0,3.71-7.69,2.44,2.44,0,0,0,0-.27,10.37,10.37,0,0,0-7.12-9.86,20.78,20.78,0,0,1,17.33,20.52Z"/><path class="cls-19" d="M172.33,74.74a20.13,20.13,0,0,0-3.49-.3,19.92,19.92,0,0,0-2.69.18A20.84,20.84,0,0,0,148.45,91h14.61V82.36l7.71,6.21,5,4a10.33,10.33,0,0,0,3.71-7.69,2.44,2.44,0,0,0,0-.27A10.37,10.37,0,0,0,172.33,74.74Z"/></svg>