<svg id="Layer_1" data-name="Layer 1" xmlns="http://www.w3.org/2000/svg" xmlns:xlink="http://www.w3.org/1999/xlink" viewBox="0 0 48 48"><defs><style>.cls-1{fill:none;}.cls-2{fill:url(#linear-gradient);}.cls-3{fill:url(#linear-gradient-2);}.cls-4{fill:url(#linear-gradient-3);}.cls-5{fill:url(#linear-gradient-4);}.cls-6{fill:url(#linear-gradient-5);}.cls-7{fill:url(#linear-gradient-6);}.cls-8{fill:url(#linear-gradient-7);}.cls-9{fill:url(#linear-gradient-8);}.cls-10{fill:url(#linear-gradient-9);}.cls-11{fill:url(#linear-gradient-10);}.cls-12{fill:url(#linear-gradient-11);}.cls-13{fill:url(#linear-gradient-12);}.cls-14{fill:url(#linear-gradient-13);}.cls-15{fill:url(#linear-gradient-14);}.cls-16{fill:url(#linear-gradient-15);}.cls-17{fill:url(#linear-gradient-16);}.cls-18{fill:url(#linear-gradient-17);}.cls-19{fill:url(#linear-gradient-18);}</style><linearGradient id="linear-gradient" x1="2.58" y1="25.37" x2="3.27" y2="22.27" gradientUnits="userSpaceOnUse"><stop offset="0" stop-color="#bd1f21"/><stop offset="1" stop-color="#e66063"/></linearGradient><linearGradient id="linear-gradient-2" x1="8.31" y1="26.53" x2="3.9" y2="23.97" xlink:href="#linear-gradient"/><linearGradient id="linear-gradient-3" x1="9.37" y1="20.47" x2="6.96" y2="23.23" xlink:href="#linear-gradient"/><linearGradient id="linear-gradient-4" x1="2.9" y1="21.09" x2="6.64" y2="20.4" xlink:href="#linear-gradient"/><linearGradient id="linear-gradient-5" x1="19.56" y1="18.23" x2="12.47" y2="19.18" gradientUnits="userSpaceOnUse"><stop offset="0" stop-color="#ff8910"/><stop offset="1" stop-color="#ffd411"/></linearGradient><linearGradient id="linear-gradient-6" x1="35.64" y1="20.05" x2="23.48" y2="18.27" xlink:href="#linear-gradient-5"/><linearGradient id="linear-gradient-7" x1="14" y1="22.99" x2="33.38" y2="22.99" gradientUnits="userSpaceOnUse"><stop offset="0" stop-color="#54f42d"/><stop offset="1" stop-color="#029743"/></linearGradient><linearGradient id="linear-gradient-8" x1="8.27" y1="15.44" x2="18.18" y2="15.44" xlink:href="#linear-gradient"/><linearGradient id="linear-gradient-9" x1="31.53" y1="17.15" x2="39" y2="15.76" xlink:href="#linear-gradient"/><linearGradient id="linear-gradient-10" x1="14.78" y1="16.02" x2="33.83" y2="12.47" xlink:href="#linear-gradient"/><linearGradient id="linear-gradient-11" x1="19.56" y1="-744.25" x2="12.47" y2="-743.3" gradientTransform="matrix(1, 0, 0, -1, 0, -716.27)" gradientUnits="userSpaceOnUse"><stop offset="0" stop-color="#312df4"/><stop offset="1" stop-color="#0990fa"/></linearGradient><linearGradient id="linear-gradient-12" x1="35.64" y1="-742.43" x2="23.48" y2="-744.21" xlink:href="#linear-gradient-11"/><linearGradient id="linear-gradient-13" x1="10.44" y1="29.54" x2="14.75" y2="32.06" gradientUnits="userSpaceOnUse"><stop offset="0" stop-color="#9521fa"/><stop offset="1" stop-color="#6d31eb"/></linearGradient><linearGradient id="linear-gradient-14" x1="38.5" y1="29.1" x2="33.11" y2="31.1" xlink:href="#linear-gradient-13"/><linearGradient id="linear-gradient-15" x1="14.78" y1="-746.46" x2="33.83" y2="-750.01" gradientTransform="matrix(1, 0, 0, -1, 0, -716.27)" gradientUnits="userSpaceOnUse"><stop offset="0" stop-color="#9521fa"/><stop offset="0.47" stop-color="#6d31eb"/><stop offset="0.96" stop-color="#9122f9"/></linearGradient><linearGradient id="linear-gradient-16" x1="44.42" y1="26.29" x2="38.62" y2="22.92" gradientUnits="userSpaceOnUse"><stop offset="0" stop-color="#029743"/><stop offset="1" stop-color="#54f42d"/></linearGradient><linearGradient id="linear-gradient-17" x1="45.85" y1="20.39" x2="43.44" y2="23.15" xlink:href="#linear-gradient-16"/><linearGradient id="linear-gradient-18" x1="38.11" y1="20.39" x2="44.51" y2="20.14" xlink:href="#linear-gradient-16"/></defs><path class="cls-1" d="M5.28,23.11a2.73,2.73,0,0,1,.4.05A2.57,2.57,0,0,1,5.28,23.11Z"/><path class="cls-1" d="M5.77,23.16v0l-.07,0h.07Z"/><path class="cls-1" d="M5.68,23.16a2.57,2.57,0,0,1-.4-.05A2.73,2.73,0,0,1,5.68,23.16Z"/><path class="cls-1" d="M6.58,18.09a4.66,4.66,0,0,0-1.54,0A2.46,2.46,0,0,1,5.76,18,2.43,2.43,0,0,1,6.58,18.09Z"/><path class="cls-2" d="M5.7,23.16h0a2.73,2.73,0,0,0-.4-.05H5.19a2.65,2.65,0,0,0-2.65,2.65h0A2.64,2.64,0,0,0,4.16,28.2,5.2,5.2,0,0,1,.5,23.35v-.12a2.6,2.6,0,0,1,2.6-2.61h.06A2.6,2.6,0,0,1,5.7,23.16Z"/><path class="cls-1" d="M5.28,23.11a2.73,2.73,0,0,1,.4.05A2.57,2.57,0,0,1,5.28,23.11Z"/><path class="cls-1" d="M5.7,23.16h0Z"/><path class="cls-3" d="M10.88,23.92a5.21,5.21,0,0,1-5.17,4.52,4.58,4.58,0,0,1-.53,0h0a5,5,0,0,1-1-.2h0a2.64,2.64,0,0,1-1.62-2.43h0a2.65,2.65,0,0,1,2.65-2.65h.09a2.57,2.57,0,0,1,.4.05h0a.16.16,0,0,1,.07,0,.17.17,0,0,0,0,.07,2.61,2.61,0,0,0,2.08,2.55,3.07,3.07,0,0,0,.53,0A2.6,2.6,0,0,0,10.88,23.92Z"/><path class="cls-1" d="M4.16,28.21a5,5,0,0,0,1,.2A2.65,2.65,0,0,1,4.16,28.21Z"/><path class="cls-4" d="M10.92,23.23a5.32,5.32,0,0,1,0,.69,2.6,2.6,0,0,1-2.51,1.91,3.07,3.07,0,0,1-.53,0,2.61,2.61,0,0,1-2.08-2.55.07.07,0,0,1,0-.05v0a2.61,2.61,0,0,0,2.6-2.54v-.06a2.59,2.59,0,0,0-1.79-2.47,5.21,5.21,0,0,1,4.3,4.44A5.37,5.37,0,0,1,10.92,23.23Z"/><path class="cls-5" d="M8.37,20.56v.06a2.61,2.61,0,0,1-2.6,2.54H5.7a2.6,2.6,0,0,0-2.54-2.54H3.1A2.6,2.6,0,0,0,.5,23.23,5.22,5.22,0,0,1,5,18.06a4.66,4.66,0,0,1,1.54,0A2.59,2.59,0,0,1,8.37,20.56Z"/><path class="cls-1" d="M40.6,28.21a4.76,4.76,0,0,0,1,.2A2.6,2.6,0,0,1,40.6,28.21Z"/><path class="cls-6" d="M22.26,17.36a18.32,18.32,0,0,0-3.1,1.85,64.46,64.46,0,0,0-7.49,1,.86.86,0,1,1-.33-1.68A62.34,62.34,0,0,1,22.26,17.36Z"/><path class="cls-7" d="M37.14,19.75a.86.86,0,0,1-.84.68.55.55,0,0,1-.18,0,61.08,61.08,0,0,0-12.73-1.34h0c-1.4,0-2.8.05-4.2.14a18.32,18.32,0,0,1,3.1-1.85h1.13a63.18,63.18,0,0,1,13.09,1.38A.86.86,0,0,1,37.14,19.75Z"/><path class="cls-8" d="M35.1,23.85H12.76a.86.86,0,0,1,0-1.72H35.1a.86.86,0,0,1,0,1.72Z"/><path class="cls-9" d="M18.18,13c-1.84.58-3.2,1.62-3.48,2.58a29.5,29.5,0,0,0-5.17,2.12.86.86,0,0,1-.8-1.53A31.88,31.88,0,0,1,18.18,13Z"/><path class="cls-10" d="M39.15,17.65a.84.84,0,0,1-.75.45A.87.87,0,0,1,38,18a30,30,0,0,0-6.81-2.7,9.31,9.31,0,0,0,1.4-.27,10.15,10.15,0,0,0,1.61-.6,31,31,0,0,1,4.62,2.06A.86.86,0,0,1,39.15,17.65Z"/><path class="cls-11" d="M34.19,14.42a10.15,10.15,0,0,1-1.61.6,9.31,9.31,0,0,1-1.4.27,30.8,30.8,0,0,0-3.34-.67h0a29.82,29.82,0,0,0-4.23-.31h-.73a29.89,29.89,0,0,0-8.18,1.3c.28-1,1.64-2,3.48-2.58h0a30.47,30.47,0,0,1,3.46-.39c.39,0,.79,0,1.2-.05a32.12,32.12,0,0,1,11.35,1.82Z"/><path class="cls-12" d="M22.26,28.85A17.66,17.66,0,0,1,19.16,27a60.41,60.41,0,0,1-7.49-1,.86.86,0,1,0-.33,1.69A63.31,63.31,0,0,0,22.26,28.85Z"/><path class="cls-13" d="M37.14,26.46a.85.85,0,0,0-.84-.68h-.18a61.09,61.09,0,0,1-12.73,1.35h0q-2.1,0-4.2-.15a17.66,17.66,0,0,0,3.1,1.86h1.13a63.18,63.18,0,0,0,13.09-1.38A.86.86,0,0,0,37.14,26.46Z"/><path class="cls-14" d="M18.18,33.17c-1.84-.59-3.2-1.62-3.48-2.58a30.29,30.29,0,0,1-5.17-2.12A.86.86,0,0,0,8.73,30,31.86,31.86,0,0,0,18.18,33.17Z"/><path class="cls-15" d="M39.15,28.56a.84.84,0,0,0-.75-.45.86.86,0,0,0-.41.1,29.51,29.51,0,0,1-6.81,2.71,9.47,9.47,0,0,1,3,.87,31,31,0,0,0,4.62-2.07A.85.85,0,0,0,39.15,28.56Z"/><path class="cls-16" d="M34.19,31.79a9.47,9.47,0,0,0-3-.87,30.8,30.8,0,0,1-3.34.67h0a31.37,31.37,0,0,1-4.23.31h-.73a30.27,30.27,0,0,1-8.18-1.3c.28,1,1.64,2,3.48,2.58h0a32.93,32.93,0,0,0,3.46.39c.39,0,.79,0,1.2,0a31.24,31.24,0,0,0,5-.29A32,32,0,0,0,34.19,31.79Z"/><path class="cls-1" d="M40.65,28.12a5.48,5.48,0,0,0,1,.21A2.61,2.61,0,0,1,40.65,28.12Z"/><path class="cls-1" d="M43.07,18a5.59,5.59,0,0,0-1.55,0,2.52,2.52,0,0,1,.73-.1A2.76,2.76,0,0,1,43.07,18Z"/><path class="cls-17" d="M44.85,25.75a2.24,2.24,0,0,1-.52-.06,2.58,2.58,0,0,1-1.65-1.12l-1.93,1.56V24h-3.7a5.21,5.21,0,0,0,3.59,4.16h0a5.48,5.48,0,0,0,1,.21h0a4.89,4.89,0,0,0,.54,0,5.2,5.2,0,0,0,5.16-4.53A2.6,2.6,0,0,1,44.85,25.75Z"/><path class="cls-18" d="M47.41,23.14a5.09,5.09,0,0,1,0,.69,2.6,2.6,0,0,1-2.51,1.92,2.24,2.24,0,0,1-.52-.06,2.58,2.58,0,0,1-1.65-1.12L44.61,23l-.69-.55a2.6,2.6,0,0,0,.93-1.93v-.07A2.59,2.59,0,0,0,43.07,18a5.22,5.22,0,0,1,4.29,4.45A5.34,5.34,0,0,1,47.41,23.14Z"/><path class="cls-19" d="M43.07,18a5.59,5.59,0,0,0-1.55,0,5.23,5.23,0,0,0-4.43,4.11h3.66V19.91l1.93,1.56,1.24,1a2.6,2.6,0,0,0,.93-1.93v-.07A2.59,2.59,0,0,0,43.07,18Z"/></svg>