<svg id="Layer_1" data-name="Layer 1" xmlns="http://www.w3.org/2000/svg" xmlns:xlink="http://www.w3.org/1999/xlink" viewBox="0 0 512 512"><defs><style>.cls-1{fill:none;}.cls-2{fill:url(#linear-gradient);}.cls-3{fill:url(#linear-gradient-2);}.cls-4{fill:url(#linear-gradient-3);}.cls-5{fill:url(#linear-gradient-4);}.cls-6{fill:url(#linear-gradient-5);}.cls-7{fill:url(#linear-gradient-6);}.cls-8{fill:url(#linear-gradient-7);}.cls-9{fill:url(#linear-gradient-8);}.cls-10{fill:url(#linear-gradient-9);}.cls-11{fill:url(#linear-gradient-10);}.cls-12{fill:url(#linear-gradient-11);}.cls-13{fill:url(#linear-gradient-12);}.cls-14{fill:url(#linear-gradient-13);}.cls-15{fill:url(#linear-gradient-14);}.cls-16{fill:url(#linear-gradient-15);}.cls-17{fill:url(#linear-gradient-16);}.cls-18{fill:url(#linear-gradient-17);}.cls-19{fill:url(#linear-gradient-18);}</style><linearGradient id="linear-gradient" x1="25.8" y1="279.49" x2="33.28" y2="246.11" gradientUnits="userSpaceOnUse"><stop offset="0" stop-color="#bd1f21"/><stop offset="1" stop-color="#e66063"/></linearGradient><linearGradient id="linear-gradient-2" x1="87.55" y1="292.06" x2="40.05" y2="264.45" xlink:href="#linear-gradient"/><linearGradient id="linear-gradient-3" x1="98.91" y1="226.74" x2="72.94" y2="256.46" xlink:href="#linear-gradient"/><linearGradient id="linear-gradient-4" x1="29.29" y1="233.43" x2="69.53" y2="225.94" xlink:href="#linear-gradient"/><linearGradient id="linear-gradient-5" x1="208.64" y1="202.57" x2="132.37" y2="212.87" gradientUnits="userSpaceOnUse"><stop offset="0" stop-color="#ff8910"/><stop offset="1" stop-color="#ffd411"/></linearGradient><linearGradient id="linear-gradient-6" x1="381.87" y1="222.24" x2="250.85" y2="203.05" xlink:href="#linear-gradient-5"/><linearGradient id="linear-gradient-7" x1="148.8" y1="253.87" x2="357.49" y2="253.87" gradientUnits="userSpaceOnUse"><stop offset="0" stop-color="#54f42d"/><stop offset="1" stop-color="#029743"/></linearGradient><linearGradient id="linear-gradient-8" x1="87.14" y1="172.53" x2="193.78" y2="172.53" xlink:href="#linear-gradient"/><linearGradient id="linear-gradient-9" x1="337.57" y1="191.01" x2="418.04" y2="176.04" xlink:href="#linear-gradient"/><linearGradient id="linear-gradient-10" x1="157.16" y1="178.79" x2="362.31" y2="140.62" xlink:href="#linear-gradient"/><linearGradient id="linear-gradient-11" x1="208.64" y1="-559.9" x2="132.37" y2="-549.61" gradientTransform="matrix(1, 0, 0, -1, 0, -252.27)" gradientUnits="userSpaceOnUse"><stop offset="0" stop-color="#312df4"/><stop offset="1" stop-color="#0990fa"/></linearGradient><linearGradient id="linear-gradient-12" x1="381.87" y1="-540.24" x2="250.85" y2="-559.43" xlink:href="#linear-gradient-11"/><linearGradient id="linear-gradient-13" x1="110.51" y1="324.47" x2="156.83" y2="351.61" gradientUnits="userSpaceOnUse"><stop offset="0" stop-color="#9521fa"/><stop offset="1" stop-color="#6d31eb"/></linearGradient><linearGradient id="linear-gradient-14" x1="412.62" y1="319.74" x2="354.6" y2="341.26" xlink:href="#linear-gradient-13"/><linearGradient id="linear-gradient-15" x1="157.16" y1="-583.69" x2="362.31" y2="-621.86" gradientTransform="matrix(1, 0, 0, -1, 0, -252.27)" gradientUnits="userSpaceOnUse"><stop offset="0" stop-color="#9521fa"/><stop offset="0.47" stop-color="#6d31eb"/><stop offset="0.96" stop-color="#9122f9"/></linearGradient><linearGradient id="linear-gradient-16" x1="476.38" y1="289.45" x2="413.96" y2="253.17" gradientUnits="userSpaceOnUse"><stop offset="0" stop-color="#029743"/><stop offset="1" stop-color="#54f42d"/></linearGradient><linearGradient id="linear-gradient-17" x1="491.85" y1="225.85" x2="465.88" y2="255.56" xlink:href="#linear-gradient-16"/><linearGradient id="linear-gradient-18" x1="408.48" y1="225.92" x2="477.35" y2="223.16" xlink:href="#linear-gradient-16"/></defs><path class="cls-1" d="M54.87,255.21a26.44,26.44,0,0,1,4.3.47A24.4,24.4,0,0,1,54.87,255.21Z"/><path class="cls-1" d="M60.12,255.71v.17c-.22-.06-.45-.11-.68-.15l-.27,0a1.1,1.1,0,0,0,.26,0h.69Z"/><path class="cls-1" d="M59.17,255.68a24.4,24.4,0,0,1-4.3-.47A26.44,26.44,0,0,1,59.17,255.68Z"/><path class="cls-1" d="M68.93,201.07a56.25,56.25,0,0,0-16.65-.32,27.7,27.7,0,0,1,7.83-1.11A27.4,27.4,0,0,1,68.93,201.07Z"/><path class="cls-2" d="M59.43,255.7a1.1,1.1,0,0,1-.26,0,26.44,26.44,0,0,0-4.3-.47c-.32,0-.64,0-1,0a28.55,28.55,0,0,0-28.55,28.55v.07A28.54,28.54,0,0,0,42.79,310,56.19,56.19,0,0,1,3.4,257.71c0-.42,0-.85,0-1.29a28,28,0,0,1,28-28c.22,0,.46,0,.68,0A28,28,0,0,1,59.43,255.7Z"/><path class="cls-1" d="M54.87,255.21a26.44,26.44,0,0,1,4.3.47A24.4,24.4,0,0,1,54.87,255.21Z"/><path class="cls-1" d="M59.44,255.73l-.27,0a1.1,1.1,0,0,0,.26,0A0,0,0,0,1,59.44,255.73Z"/><path class="cls-3" d="M115.19,263.87a56.16,56.16,0,0,1-55.65,48.7c-1.94,0-3.85-.1-5.74-.28h0a57.54,57.54,0,0,1-10.94-2.24h0a28.54,28.54,0,0,1-17.43-26.23v-.07a28.55,28.55,0,0,1,28.55-28.55c.32,0,.64,0,1,0a25.73,25.73,0,0,1,4.3.47c.08,0,.17,0,.26,0a5.27,5.27,0,0,1,.69,0c0,.18,0,.53,0,.71a28,28,0,0,0,55.08,7.45Z"/><path class="cls-1" d="M42.83,310.05a57.54,57.54,0,0,0,10.94,2.24A28.43,28.43,0,0,1,42.83,310.05Z"/><path class="cls-4" d="M115.68,256.42a57.19,57.19,0,0,1-.49,7.45,28,28,0,0,1-55.08-7.45c0-.18,0-.35,0-.54v-.17a28,28,0,0,0,28-27.32,5.78,5.78,0,0,0,0-.72,28,28,0,0,0-19.22-26.6A56.17,56.17,0,0,1,115.19,249,57,57,0,0,1,115.68,256.42Z"/><path class="cls-5" d="M88.15,227.67a5.78,5.78,0,0,1,0,.72,28,28,0,0,1-28,27.32h-.69A28,28,0,0,0,32.1,228.41c-.22,0-.46,0-.68,0a28,28,0,0,0-28,28,56.16,56.16,0,0,1,65.55-55.35A28,28,0,0,1,88.15,227.67Z"/><path class="cls-1" d="M435.25,310.05a57.38,57.38,0,0,0,10.94,2.24A28.43,28.43,0,0,1,435.25,310.05Z"/><path class="cls-6" d="M237.75,193.25c-13.36,6.63-25.55,13.56-33.41,20a659.8,659.8,0,0,0-80.64,10.56,9.27,9.27,0,0,1-3.54-18.19A679.13,679.13,0,0,1,237.75,193.25Z"/><path class="cls-7" d="M398,219a9.23,9.23,0,0,1-9,7.32,9.06,9.06,0,0,1-1.94-.2,659.85,659.85,0,0,0-137.15-14.46h-.26q-22.65,0-45.29,1.56c7.86-6.41,20-13.34,33.41-20q5.94-.1,11.88-.11h.27a677.53,677.53,0,0,1,141,14.87A9.25,9.25,0,0,1,398,219Z"/><path class="cls-8" d="M376,263.13H135.47a9.26,9.26,0,1,1,0-18.52H376a9.26,9.26,0,0,1,0,18.52Z"/><path class="cls-9" d="M193.78,146.7c-19.76,6.3-34.41,17.45-37.42,27.81a321.28,321.28,0,0,0-55.65,22.78,9.26,9.26,0,0,1-8.62-16.4A342.81,342.81,0,0,1,193.78,146.7Z"/><path class="cls-10" d="M419.7,196.39a9.23,9.23,0,0,1-12.57,3.67A321.66,321.66,0,0,0,333.84,171,102.92,102.92,0,0,0,348.92,168a99.83,99.83,0,0,0,17.29-6.47A337.54,337.54,0,0,1,416,183.82,9.27,9.27,0,0,1,419.7,196.39Z"/><path class="cls-11" d="M366.21,161.56A99.83,99.83,0,0,1,348.92,168,102.92,102.92,0,0,1,333.84,171a321.62,321.62,0,0,0-36-7.27h0a325,325,0,0,0-45.53-3.29q-3.93,0-7.93.07a325.11,325.11,0,0,0-88,14c3-10.36,17.66-21.51,37.42-27.81h0a340.28,340.28,0,0,1,37.28-4.22q6.38-.39,12.94-.52a344.59,344.59,0,0,1,122.2,19.6Z"/><path class="cls-12" d="M237.75,317c-13.36-6.63-25.55-13.55-33.41-20a661.75,661.75,0,0,1-80.64-10.56,9.27,9.27,0,0,0-3.54,18.19A679.12,679.12,0,0,0,237.75,317Z"/><path class="cls-13" d="M398,291.21a9.23,9.23,0,0,0-9-7.32,9.74,9.74,0,0,0-1.94.19,658.5,658.5,0,0,1-137.15,14.46h-.26q-22.65,0-45.29-1.55c7.86,6.41,20,13.33,33.41,20q5.94.12,11.88.11h.27a677.52,677.52,0,0,0,141-14.86A9.25,9.25,0,0,0,398,291.21Z"/><path class="cls-14" d="M193.78,363.51c-19.76-6.3-34.41-17.45-37.42-27.81a321.28,321.28,0,0,1-55.65-22.78,9.26,9.26,0,0,0-8.62,16.39A342.78,342.78,0,0,0,193.78,363.51Z"/><path class="cls-15" d="M419.7,313.82a9.25,9.25,0,0,0-8.13-4.82,9.13,9.13,0,0,0-4.44,1.15,321.66,321.66,0,0,1-73.29,29.09,101.62,101.62,0,0,1,15.08,2.94,99.83,99.83,0,0,1,17.29,6.47A338.59,338.59,0,0,0,416,326.39,9.27,9.27,0,0,0,419.7,313.82Z"/><path class="cls-16" d="M366.21,348.65a99.83,99.83,0,0,0-17.29-6.47,101.62,101.62,0,0,0-15.08-2.94,323.93,323.93,0,0,1-36,7.26h0a326.44,326.44,0,0,1-45.53,3.3q-3.93,0-7.93-.07a325.89,325.89,0,0,1-88-14c3,10.36,17.66,21.51,37.42,27.81h0a340.28,340.28,0,0,0,37.28,4.22q6.38.39,12.94.52a346.14,346.14,0,0,0,54.12-3.1A342.51,342.51,0,0,0,366.21,348.65Z"/><path class="cls-1" d="M435.77,309.15a57.54,57.54,0,0,0,10.94,2.24A28.47,28.47,0,0,1,435.77,309.15Z"/><path class="cls-1" d="M461.88,200.17a56.31,56.31,0,0,0-16.66-.32,28.07,28.07,0,0,1,16.66.32Z"/><path class="cls-17" d="M481.08,283.57a28,28,0,0,1-23.41-12.63l-20.8,16.72V264.31H397a56.18,56.18,0,0,0,38.71,44.83h0a57.38,57.38,0,0,0,10.94,2.24h0c1.89.18,3.81.28,5.74.28A56.17,56.17,0,0,0,508.13,263,28.07,28.07,0,0,1,481.08,283.57Z"/><path class="cls-18" d="M508.62,255.53a57.15,57.15,0,0,1-.49,7.44,28,28,0,0,1-50.46,8l20.8-16.74-7.41-6a27.91,27.91,0,0,0,10-20.74c0-.25,0-.49,0-.73a28,28,0,0,0-19.21-26.6,56.17,56.17,0,0,1,46.26,47.91A57.19,57.19,0,0,1,508.62,255.53Z"/><path class="cls-19" d="M461.87,200.17a56.17,56.17,0,0,0-64.39,43.93h39.39V220.74l20.8,16.73,13.39,10.77a27.91,27.91,0,0,0,10-20.74c0-.25,0-.49,0-.73A28,28,0,0,0,461.87,200.17Z"/></svg>