<svg id="Layer_1" data-name="Layer 1" xmlns="http://www.w3.org/2000/svg" xmlns:xlink="http://www.w3.org/1999/xlink" viewBox="0 0 72 72"><defs><style>.cls-1{fill:none;}.cls-2{fill:url(#linear-gradient);}.cls-3{fill:url(#linear-gradient-2);}.cls-4{fill:url(#linear-gradient-3);}.cls-5{fill:url(#linear-gradient-4);}.cls-6{fill:url(#linear-gradient-5);}.cls-7{fill:url(#linear-gradient-6);}.cls-8{fill:url(#linear-gradient-7);}.cls-9{fill:url(#linear-gradient-8);}.cls-10{fill:url(#linear-gradient-9);}.cls-11{fill:url(#linear-gradient-10);}.cls-12{fill:url(#linear-gradient-11);}.cls-13{fill:url(#linear-gradient-12);}.cls-14{fill:url(#linear-gradient-13);}.cls-15{fill:url(#linear-gradient-14);}.cls-16{fill:url(#linear-gradient-15);}.cls-17{fill:url(#linear-gradient-16);}.cls-18{fill:url(#linear-gradient-17);}.cls-19{fill:url(#linear-gradient-18);}</style><linearGradient id="linear-gradient" x1="4.22" y1="38.47" x2="5.25" y2="33.86" gradientUnits="userSpaceOnUse"><stop offset="0" stop-color="#bd1f21"/><stop offset="1" stop-color="#e66063"/></linearGradient><linearGradient id="linear-gradient-2" x1="12.75" y1="40.2" x2="6.19" y2="36.39" xlink:href="#linear-gradient"/><linearGradient id="linear-gradient-3" x1="14.31" y1="31.19" x2="10.73" y2="35.29" xlink:href="#linear-gradient"/><linearGradient id="linear-gradient-4" x1="4.7" y1="32.11" x2="10.26" y2="31.08" xlink:href="#linear-gradient"/><linearGradient id="linear-gradient-5" x1="29.46" y1="27.85" x2="18.93" y2="29.27" gradientUnits="userSpaceOnUse"><stop offset="0" stop-color="#ff8910"/><stop offset="1" stop-color="#ffd411"/></linearGradient><linearGradient id="linear-gradient-6" x1="53.38" y1="30.57" x2="35.29" y2="27.92" xlink:href="#linear-gradient-5"/><linearGradient id="linear-gradient-7" x1="21.2" y1="34.93" x2="50.01" y2="34.93" gradientUnits="userSpaceOnUse"><stop offset="0" stop-color="#54f42d"/><stop offset="1" stop-color="#029743"/></linearGradient><linearGradient id="linear-gradient-8" x1="12.69" y1="23.7" x2="27.41" y2="23.7" xlink:href="#linear-gradient"/><linearGradient id="linear-gradient-9" x1="47.26" y1="26.26" x2="58.37" y2="24.19" xlink:href="#linear-gradient"/><linearGradient id="linear-gradient-10" x1="22.36" y1="24.57" x2="50.68" y2="19.3" xlink:href="#linear-gradient"/><linearGradient id="linear-gradient-11" x1="29.46" y1="-734.63" x2="18.93" y2="-733.21" gradientTransform="matrix(1, 0, 0, -1, 0, -692.27)" gradientUnits="userSpaceOnUse"><stop offset="0" stop-color="#312df4"/><stop offset="1" stop-color="#0990fa"/></linearGradient><linearGradient id="linear-gradient-12" x1="53.38" y1="-731.91" x2="35.29" y2="-734.56" xlink:href="#linear-gradient-11"/><linearGradient id="linear-gradient-13" x1="15.92" y1="44.68" x2="22.31" y2="48.43" gradientUnits="userSpaceOnUse"><stop offset="0" stop-color="#9521fa"/><stop offset="1" stop-color="#6d31eb"/></linearGradient><linearGradient id="linear-gradient-14" x1="57.62" y1="44.03" x2="49.61" y2="47" xlink:href="#linear-gradient-13"/><linearGradient id="linear-gradient-15" x1="22.36" y1="-737.91" x2="50.68" y2="-743.18" gradientTransform="matrix(1, 0, 0, -1, 0, -692.27)" gradientUnits="userSpaceOnUse"><stop offset="0" stop-color="#9521fa"/><stop offset="0.47" stop-color="#6d31eb"/><stop offset="0.96" stop-color="#9122f9"/></linearGradient><linearGradient id="linear-gradient-16" x1="66.42" y1="39.84" x2="57.81" y2="34.84" gradientUnits="userSpaceOnUse"><stop offset="0" stop-color="#029743"/><stop offset="1" stop-color="#54f42d"/></linearGradient><linearGradient id="linear-gradient-17" x1="68.56" y1="31.06" x2="64.97" y2="35.17" xlink:href="#linear-gradient-16"/><linearGradient id="linear-gradient-18" x1="57.05" y1="31.07" x2="66.56" y2="30.69" xlink:href="#linear-gradient-16"/></defs><path class="cls-1" d="M8.23,35.12a3.81,3.81,0,0,1,.6.06A3,3,0,0,1,8.23,35.12Z"/><path class="cls-1" d="M9,35.19v0l-.09,0H9Z"/><path class="cls-1" d="M8.83,35.18a3,3,0,0,1-.6-.06A3.81,3.81,0,0,1,8.83,35.18Z"/><path class="cls-1" d="M10.18,27.64a8.05,8.05,0,0,0-1.3-.11,8.12,8.12,0,0,0-1,.07,4,4,0,0,1,2.3,0Z"/><path class="cls-2" d="M8.86,35.19h0a3.81,3.81,0,0,0-.6-.06H8.1a3.93,3.93,0,0,0-3.94,3.94h0a4,4,0,0,0,2.41,3.62,7.76,7.76,0,0,1-5.44-7.23v-.17A3.87,3.87,0,0,1,5,31.42h.09A3.87,3.87,0,0,1,8.86,35.19Z"/><path class="cls-1" d="M8.23,35.12a3.81,3.81,0,0,1,.6.06A3,3,0,0,1,8.23,35.12Z"/><path class="cls-1" d="M8.87,35.19h0Z"/><path class="cls-3" d="M16.56,36.31A7.75,7.75,0,0,1,8.88,43c-.27,0-.53,0-.79,0h0a8.43,8.43,0,0,1-1.51-.31h0a4,4,0,0,1-2.41-3.62h0A3.93,3.93,0,0,1,8.1,35.12h.13a3.81,3.81,0,0,1,.6.06H9v.1A3.88,3.88,0,0,0,12,39.08a4.15,4.15,0,0,0,.79.08A3.88,3.88,0,0,0,16.56,36.31Z"/><path class="cls-1" d="M6.57,42.69A8.43,8.43,0,0,0,8.08,43,4,4,0,0,1,6.57,42.69Z"/><path class="cls-4" d="M16.63,35.29a6.9,6.9,0,0,1-.07,1,3.88,3.88,0,0,1-3.73,2.85,4.15,4.15,0,0,1-.79-.08A3.88,3.88,0,0,1,9,35.29v-.1a3.88,3.88,0,0,0,3.87-3.77v-.1a3.87,3.87,0,0,0-2.65-3.68,7.76,7.76,0,0,1,6.38,6.62A6.94,6.94,0,0,1,16.63,35.29Z"/><path class="cls-5" d="M12.83,31.32v.1A3.88,3.88,0,0,1,9,35.19h-.1a3.87,3.87,0,0,0-3.77-3.77H5a3.87,3.87,0,0,0-3.87,3.87A7.75,7.75,0,0,1,7.88,27.6a8.12,8.12,0,0,1,1-.07,8.05,8.05,0,0,1,1.3.11A3.87,3.87,0,0,1,12.83,31.32Z"/><path class="cls-1" d="M60.74,42.69a8.53,8.53,0,0,0,1.52.31A4,4,0,0,1,60.74,42.69Z"/><path class="cls-6" d="M33.48,26.57a26.26,26.26,0,0,0-4.61,2.75,92.08,92.08,0,0,0-11.13,1.46,1.28,1.28,0,0,1-.49-2.51A92.9,92.9,0,0,1,33.48,26.57Z"/><path class="cls-7" d="M55.6,30.12a1.26,1.26,0,0,1-1.24,1,1.24,1.24,0,0,1-.27,0,91.09,91.09,0,0,0-18.93-2h0c-2.08,0-4.17.07-6.25.21a26.26,26.26,0,0,1,4.61-2.75c.55,0,1.09,0,1.64,0h0A93.4,93.4,0,0,1,54.62,28.6,1.28,1.28,0,0,1,55.6,30.12Z"/><path class="cls-8" d="M52.57,36.21H19.36a1.28,1.28,0,1,1,0-2.55H52.57a1.28,1.28,0,1,1,0,2.55Z"/><path class="cls-9" d="M27.41,20.14c-2.73.87-4.75,2.41-5.16,3.84a44.18,44.18,0,0,0-7.69,3.14,1.28,1.28,0,0,1-1.19-2.26A47.43,47.43,0,0,1,27.41,20.14Z"/><path class="cls-10" d="M58.6,27a1.28,1.28,0,0,1-1.74.5,44.21,44.21,0,0,0-10.11-4,13.87,13.87,0,0,0,2.08-.41,13.07,13.07,0,0,0,2.38-.89,47.46,47.46,0,0,1,6.88,3.07A1.28,1.28,0,0,1,58.6,27Z"/><path class="cls-11" d="M51.21,22.19a13.07,13.07,0,0,1-2.38.89,13.87,13.87,0,0,1-2.08.41,44.1,44.1,0,0,0-5-1h0A44.82,44.82,0,0,0,35.49,22H34.4A45.06,45.06,0,0,0,22.25,24c.41-1.43,2.43-3,5.16-3.84h0a45.26,45.26,0,0,1,5.15-.58c.58,0,1.18-.06,1.78-.08a48.36,48.36,0,0,1,7.48.43A47.49,47.49,0,0,1,51.21,22.19Z"/><path class="cls-12" d="M33.48,43.64a26.26,26.26,0,0,1-4.61-2.75,92.08,92.08,0,0,1-11.13-1.46,1.28,1.28,0,0,0-.49,2.51A92.9,92.9,0,0,0,33.48,43.64Z"/><path class="cls-13" d="M55.6,40.09a1.26,1.26,0,0,0-1.24-1l-.27,0a90.42,90.42,0,0,1-18.93,2h0C33,41.1,31,41,28.87,40.89a26.26,26.26,0,0,0,4.61,2.75l1.64,0h0A93.41,93.41,0,0,0,54.62,41.6,1.26,1.26,0,0,0,55.6,40.09Z"/><path class="cls-14" d="M27.41,50.07c-2.73-.87-4.75-2.41-5.16-3.84a44.13,44.13,0,0,1-7.69-3.15,1.28,1.28,0,0,0-1.19,2.27A47.43,47.43,0,0,0,27.41,50.07Z"/><path class="cls-15" d="M58.6,43.21a1.27,1.27,0,0,0-1.12-.67,1.39,1.39,0,0,0-.62.16,44.64,44.64,0,0,1-10.11,4,15.18,15.18,0,0,1,2.08.4,13.86,13.86,0,0,1,2.38.9,46.35,46.35,0,0,0,6.88-3.08A1.27,1.27,0,0,0,58.6,43.21Z"/><path class="cls-16" d="M51.21,48a13.86,13.86,0,0,0-2.38-.9,15.18,15.18,0,0,0-2.08-.4,44.1,44.1,0,0,1-5,1h0a46.37,46.37,0,0,1-6.29.46H34.4a45.06,45.06,0,0,1-12.15-1.94c.41,1.43,2.43,3,5.16,3.84h0a47.65,47.65,0,0,0,5.15.58c.58,0,1.18.06,1.78.07a46,46,0,0,0,7.48-.43A46.83,46.83,0,0,0,51.21,48Z"/><path class="cls-1" d="M60.82,42.56a7.49,7.49,0,0,0,1.51.31A3.77,3.77,0,0,1,60.82,42.56Z"/><path class="cls-1" d="M64.42,27.52a7.86,7.86,0,0,0-1.3-.11,6.63,6.63,0,0,0-1,.07,3.53,3.53,0,0,1,1.08-.16A3.76,3.76,0,0,1,64.42,27.52Z"/><path class="cls-17" d="M67.07,39a3.33,3.33,0,0,1-.78-.08,3.86,3.86,0,0,1-2.45-1.66L61,39.6V36.37h-5.5a7.73,7.73,0,0,0,5.34,6.19h0a7.49,7.49,0,0,0,1.51.31h0a7,7,0,0,0,.79,0,7.77,7.77,0,0,0,7.69-6.72A3.88,3.88,0,0,1,67.07,39Z"/><path class="cls-18" d="M70.87,35.16a8.77,8.77,0,0,1-.06,1A3.88,3.88,0,0,1,67.07,39a3.33,3.33,0,0,1-.78-.08,3.86,3.86,0,0,1-2.45-1.66L66.71,35l-1-.82a3.88,3.88,0,0,0,1.38-2.87v-.1a3.87,3.87,0,0,0-2.65-3.67,7.77,7.77,0,0,1,6.39,6.61A8.77,8.77,0,0,1,70.87,35.16Z"/><path class="cls-19" d="M64.42,27.52a8,8,0,0,0-1.3-.11,6.63,6.63,0,0,0-1,.07,7.74,7.74,0,0,0-6.59,6.1H61V30.36l2.87,2.31,1.85,1.49a3.88,3.88,0,0,0,1.38-2.87v-.1A3.87,3.87,0,0,0,64.42,27.52Z"/></svg>