<svg id="Layer_1" data-name="Layer 1" xmlns="http://www.w3.org/2000/svg" xmlns:xlink="http://www.w3.org/1999/xlink" viewBox="0 0 96 96"><defs><style>.cls-1{fill:none;}.cls-2{fill:url(#linear-gradient);}.cls-3{fill:url(#linear-gradient-2);}.cls-4{fill:url(#linear-gradient-3);}.cls-5{fill:url(#linear-gradient-4);}.cls-6{fill:url(#linear-gradient-5);}.cls-7{fill:url(#linear-gradient-6);}.cls-8{fill:url(#linear-gradient-7);}.cls-9{fill:url(#linear-gradient-8);}.cls-10{fill:url(#linear-gradient-9);}.cls-11{fill:url(#linear-gradient-10);}.cls-12{fill:url(#linear-gradient-11);}.cls-13{fill:url(#linear-gradient-12);}.cls-14{fill:url(#linear-gradient-13);}.cls-15{fill:url(#linear-gradient-14);}.cls-16{fill:url(#linear-gradient-15);}.cls-17{fill:url(#linear-gradient-16);}.cls-18{fill:url(#linear-gradient-17);}.cls-19{fill:url(#linear-gradient-18);}</style><linearGradient id="linear-gradient" x1="5.02" y1="51.63" x2="6.41" y2="45.43" gradientUnits="userSpaceOnUse"><stop offset="0" stop-color="#bd1f21"/><stop offset="1" stop-color="#e66063"/></linearGradient><linearGradient id="linear-gradient-2" x1="16.48" y1="53.97" x2="7.66" y2="48.84" xlink:href="#linear-gradient"/><linearGradient id="linear-gradient-3" x1="18.59" y1="41.84" x2="13.77" y2="47.35" xlink:href="#linear-gradient"/><linearGradient id="linear-gradient-4" x1="5.66" y1="43.08" x2="13.14" y2="41.69" xlink:href="#linear-gradient"/><linearGradient id="linear-gradient-5" x1="38.97" y1="37.35" x2="24.81" y2="39.26" gradientUnits="userSpaceOnUse"><stop offset="0" stop-color="#ff8910"/><stop offset="1" stop-color="#ffd411"/></linearGradient><linearGradient id="linear-gradient-6" x1="71.14" y1="41" x2="46.81" y2="37.44" xlink:href="#linear-gradient-5"/><linearGradient id="linear-gradient-7" x1="27.86" y1="46.87" x2="66.62" y2="46.87" gradientUnits="userSpaceOnUse"><stop offset="0" stop-color="#54f42d"/><stop offset="1" stop-color="#029743"/></linearGradient><linearGradient id="linear-gradient-8" x1="16.41" y1="31.77" x2="36.21" y2="31.77" xlink:href="#linear-gradient"/><linearGradient id="linear-gradient-9" x1="62.92" y1="35.2" x2="77.86" y2="32.42" xlink:href="#linear-gradient"/><linearGradient id="linear-gradient-10" x1="29.41" y1="32.93" x2="67.51" y2="25.84" xlink:href="#linear-gradient"/><linearGradient id="linear-gradient-11" x1="38.97" y1="-725.13" x2="24.81" y2="-723.22" gradientTransform="matrix(1, 0, 0, -1, 0, -668.27)" gradientUnits="userSpaceOnUse"><stop offset="0" stop-color="#312df4"/><stop offset="1" stop-color="#0990fa"/></linearGradient><linearGradient id="linear-gradient-12" x1="71.14" y1="-721.48" x2="46.81" y2="-725.04" xlink:href="#linear-gradient-11"/><linearGradient id="linear-gradient-13" x1="20.75" y1="59.99" x2="29.35" y2="65.03" gradientUnits="userSpaceOnUse"><stop offset="0" stop-color="#9521fa"/><stop offset="1" stop-color="#6d31eb"/></linearGradient><linearGradient id="linear-gradient-14" x1="76.86" y1="59.11" x2="66.08" y2="63.1" xlink:href="#linear-gradient-13"/><linearGradient id="linear-gradient-15" x1="29.41" y1="-729.55" x2="67.51" y2="-736.64" gradientTransform="matrix(1, 0, 0, -1, 0, -668.27)" gradientUnits="userSpaceOnUse"><stop offset="0" stop-color="#9521fa"/><stop offset="0.47" stop-color="#6d31eb"/><stop offset="0.96" stop-color="#9122f9"/></linearGradient><linearGradient id="linear-gradient-16" x1="88.7" y1="53.48" x2="77.1" y2="46.74" gradientUnits="userSpaceOnUse"><stop offset="0" stop-color="#029743"/><stop offset="1" stop-color="#54f42d"/></linearGradient><linearGradient id="linear-gradient-17" x1="91.57" y1="41.67" x2="86.75" y2="47.19" xlink:href="#linear-gradient-16"/><linearGradient id="linear-gradient-18" x1="76.09" y1="41.68" x2="88.88" y2="41.17" xlink:href="#linear-gradient-16"/></defs><path class="cls-1" d="M10.42,47.12a5.16,5.16,0,0,1,.79.09A5,5,0,0,1,10.42,47.12Z"/><path class="cls-1" d="M11.39,47.22v0l-.13,0h.13Z"/><path class="cls-1" d="M11.21,47.21a5,5,0,0,1-.79-.09A5.16,5.16,0,0,1,11.21,47.21Z"/><path class="cls-1" d="M13,37.07A10.23,10.23,0,0,0,9.93,37a5.15,5.15,0,0,1,3.1.06Z"/><path class="cls-2" d="M11.26,47.21h0a5.16,5.16,0,0,0-.79-.09h-.18a5.3,5.3,0,0,0-5.31,5.3h0a5.33,5.33,0,0,0,3.24,4.88A10.44,10.44,0,0,1,.86,47.59a1.93,1.93,0,0,1,0-.24,5.21,5.21,0,0,1,5.21-5.21h.13A5.19,5.19,0,0,1,11.26,47.21Z"/><path class="cls-1" d="M10.42,47.12a5.16,5.16,0,0,1,.79.09A5,5,0,0,1,10.42,47.12Z"/><path class="cls-1" d="M11.26,47.22h0Z"/><path class="cls-3" d="M21.62,48.73a10.44,10.44,0,0,1-10.34,9.05,9.28,9.28,0,0,1-1.06-.06h0a10.44,10.44,0,0,1-2-.41h0a5.33,5.33,0,0,1-3.24-4.88h0a5.3,5.3,0,0,1,5.31-5.3h.18a5,5,0,0,1,.79.09h0c.05,0,.09,0,.13,0v.13a5.21,5.21,0,0,0,10.23,1.38Z"/><path class="cls-1" d="M8.18,57.31a10.44,10.44,0,0,0,2,.41A5.26,5.26,0,0,1,8.18,57.31Z"/><path class="cls-4" d="M21.71,47.35a10.43,10.43,0,0,1-.09,1.38,5.21,5.21,0,0,1-10.23-1.38v-.13a5.22,5.22,0,0,0,5.2-5.08.57.57,0,0,0,0-.13A5.21,5.21,0,0,0,13,37.07a10.41,10.41,0,0,1,8.68,10.28Z"/><path class="cls-5" d="M16.6,42a.57.57,0,0,1,0,.13,5.22,5.22,0,0,1-5.2,5.08h-.13a5.19,5.19,0,0,0-5.07-5.06H6.06A5.21,5.21,0,0,0,.85,47.35,10.43,10.43,0,0,1,9.93,37a10.23,10.23,0,0,1,3.1.06A5.21,5.21,0,0,1,16.6,42Z"/><path class="cls-1" d="M81.06,57.31a10.44,10.44,0,0,0,2,.41A5.26,5.26,0,0,1,81.06,57.31Z"/><path class="cls-6" d="M44.38,35.62a35.5,35.5,0,0,0-6.21,3.7,123.12,123.12,0,0,0-15,2,1.72,1.72,0,0,1-.66-3.38A125.84,125.84,0,0,1,44.38,35.62Z"/><path class="cls-7" d="M74.14,40.4a1.71,1.71,0,0,1-1.68,1.36,1.47,1.47,0,0,1-.36,0A122.12,122.12,0,0,0,46.63,39h0q-4.22,0-8.42.28a35.5,35.5,0,0,1,6.21-3.7c.74,0,1.47,0,2.21,0h0a125.62,125.62,0,0,1,26.18,2.76A1.71,1.71,0,0,1,74.14,40.4Z"/><path class="cls-8" d="M70.06,48.59H25.38a1.72,1.72,0,1,1,0-3.44H70.06a1.72,1.72,0,0,1,0,3.44Z"/><path class="cls-9" d="M36.21,27c-3.67,1.17-6.39,3.24-6.95,5.17a59,59,0,0,0-10.33,4.23,1.72,1.72,0,0,1-1.6-3A63.88,63.88,0,0,1,36.21,27Z"/><path class="cls-10" d="M78.17,36.2a1.72,1.72,0,0,1-2.33.68,60,60,0,0,0-13.62-5.4,19.48,19.48,0,0,0,2.8-.55,18.73,18.73,0,0,0,3.22-1.2,63.25,63.25,0,0,1,9.25,4.13A1.73,1.73,0,0,1,78.17,36.2Z"/><path class="cls-11" d="M68.24,29.73A18.73,18.73,0,0,1,65,30.93a19.48,19.48,0,0,1-2.8.55,59.71,59.71,0,0,0-6.68-1.35h0a59.65,59.65,0,0,0-8.45-.61c-.49,0-1,0-1.48,0a60.26,60.26,0,0,0-16.35,2.61c.56-1.93,3.28-4,7-5.17h0a63.58,63.58,0,0,1,6.92-.78c.79-.05,1.59-.08,2.4-.1a64.66,64.66,0,0,1,10.05.58A63.91,63.91,0,0,1,68.24,29.73Z"/><path class="cls-12" d="M44.38,58.59a35.47,35.47,0,0,1-6.21-3.71,121.16,121.16,0,0,1-15-2,1.72,1.72,0,0,0-.66,3.38A126.83,126.83,0,0,0,44.38,58.59Z"/><path class="cls-13" d="M74.14,53.81a1.71,1.71,0,0,0-1.68-1.36,1.47,1.47,0,0,0-.36,0,122.12,122.12,0,0,1-25.47,2.68h0q-4.22,0-8.42-.29a35.47,35.47,0,0,0,6.21,3.71l2.21,0h0a125.62,125.62,0,0,0,26.18-2.76A1.72,1.72,0,0,0,74.14,53.81Z"/><path class="cls-14" d="M36.21,67.24c-3.67-1.17-6.39-3.24-6.95-5.17a59.82,59.82,0,0,1-10.33-4.23,1.72,1.72,0,0,0-1.6,3A63.88,63.88,0,0,0,36.21,67.24Z"/><path class="cls-15" d="M78.17,58a1.72,1.72,0,0,0-1.51-.9,1.63,1.63,0,0,0-.82.22,60,60,0,0,1-13.62,5.4,19.34,19.34,0,0,1,6,1.75,63.2,63.2,0,0,0,9.25-4.14A1.71,1.71,0,0,0,78.17,58Z"/><path class="cls-16" d="M68.24,64.48a19.34,19.34,0,0,0-6-1.75,59.71,59.71,0,0,1-6.68,1.35h0a61.17,61.17,0,0,1-8.45.61H45.61a60.65,60.65,0,0,1-16.35-2.61c.56,1.93,3.28,4,7,5.17h0a63.58,63.58,0,0,0,6.92.78c.79,0,1.59.08,2.4.1a64.66,64.66,0,0,0,10.05-.58A63.91,63.91,0,0,0,68.24,64.48Z"/><path class="cls-1" d="M81.16,57.14a11.25,11.25,0,0,0,2,.42A5.45,5.45,0,0,1,81.16,57.14Z"/><path class="cls-1" d="M86,36.9a10.17,10.17,0,0,0-3.09-.06,5.34,5.34,0,0,1,1.45-.2A5.17,5.17,0,0,1,86,36.9Z"/><path class="cls-17" d="M89.57,52.39a5.29,5.29,0,0,1-1.06-.11A5.18,5.18,0,0,1,85.22,50l-3.86,3.11V48.81H74a10.43,10.43,0,0,0,7.19,8.33h0a11.54,11.54,0,0,0,2,.42h0c.35,0,.71,0,1.07,0a10.42,10.42,0,0,0,10.33-9A5.2,5.2,0,0,1,89.57,52.39Z"/><path class="cls-18" d="M94.68,47.18a10.43,10.43,0,0,1-.09,1.38,5.2,5.2,0,0,1-5,3.83,5.29,5.29,0,0,1-1.06-.11A5.18,5.18,0,0,1,85.22,50l3.86-3.1-1.37-1.11A5.22,5.22,0,0,0,89.57,42v-.14A5.19,5.19,0,0,0,86,36.9a10.41,10.41,0,0,1,8.68,10.28Z"/><path class="cls-19" d="M86,36.9a11.14,11.14,0,0,0-1.74-.15,10,10,0,0,0-1.35.09A10.45,10.45,0,0,0,74,45.06h7.32V40.72l3.86,3.11,2.49,2A5.22,5.22,0,0,0,89.57,42v-.14A5.19,5.19,0,0,0,86,36.9Z"/></svg>