<svg width="263" height="108" viewBox="0 0 263 108" fill="none" xmlns="http://www.w3.org/2000/svg">
    <path d="M51.7812 23.5938H11.7812V62H5.375V17.1875H51.7812V23.5938ZM46.2812 42.8125H14.9688V36.4062H46.2812V42.8125ZM91.375 33.1875H67.375C66.7083 33.1875 66.0833 33.3229 65.5 33.5938C64.9167 33.8438 64.4062 34.1875 63.9688 34.625C63.5312 35.0625 63.1875 35.5729 62.9375 36.1562C62.6875 36.7396 62.5625 37.3542 62.5625 38V62H56.1562V38C56.1562 36.4375 56.4479 34.9792 57.0312 33.625C57.6146 32.2708 58.4167 31.0938 59.4375 30.0938C60.4583 29.0729 61.6458 28.2708 63 27.6875C64.3542 27.1042 65.8125 26.8125 67.375 26.8125H91.375V33.1875ZM137.062 38C137.062 39.5625 136.771 41.0208 136.188 42.375C135.604 43.7292 134.802 44.9167 133.781 45.9375C132.781 46.9375 131.594 47.7292 130.219 48.3125C128.865 48.8958 127.417 49.1875 125.875 49.1875H101.344C101.802 50.125 102.375 50.9896 103.062 51.7812C103.75 52.5729 104.521 53.25 105.375 53.8125C106.229 54.375 107.156 54.8125 108.156 55.125C109.177 55.4375 110.24 55.5938 111.344 55.5938H132.281V62H111.344C108.927 61.9792 106.656 61.5104 104.531 60.5938C102.406 59.6562 100.552 58.3958 98.9688 56.8125C97.4062 55.2083 96.1667 53.3438 95.25 51.2188C94.3333 49.0938 93.875 46.8229 93.875 44.4062C93.875 41.9896 94.3333 39.7188 95.25 37.5938C96.1667 35.4688 97.4062 33.6146 98.9688 32.0312C100.552 30.4271 102.406 29.1667 104.531 28.25C106.656 27.3125 108.927 26.8333 111.344 26.8125H125.875C127.417 26.8125 128.865 27.1042 130.219 27.6875C131.594 28.2708 132.781 29.0729 133.781 30.0938C134.802 31.0938 135.604 32.2708 136.188 33.625C136.771 34.9792 137.062 36.4375 137.062 38ZM125.875 42.8125C126.521 42.8125 127.135 42.6875 127.719 42.4375C128.302 42.1875 128.812 41.8438 129.25 41.4062C129.688 40.9688 130.031 40.4583 130.281 39.875C130.531 39.2917 130.656 38.6667 130.656 38C130.656 37.3542 130.531 36.7396 130.281 36.1562C130.031 35.5729 129.688 35.0625 129.25 34.625C128.812 34.1875 128.302 33.8438 127.719 33.5938C127.135 33.3229 126.521 33.1875 125.875 33.1875H111.344C109.927 33.1875 108.594 33.4375 107.344 33.9375C106.115 34.4375 105.01 35.125 104.031 36C103.073 36.8542 102.271 37.875 101.625 39.0625C101 40.2292 100.594 41.4792 100.406 42.8125H125.875ZM184.312 38C184.312 39.5625 184.021 41.0208 183.438 42.375C182.854 43.7292 182.052 44.9167 181.031 45.9375C180.031 46.9375 178.844 47.7292 177.469 48.3125C176.115 48.8958 174.667 49.1875 173.125 49.1875H148.594C149.052 50.125 149.625 50.9896 150.312 51.7812C151 52.5729 151.771 53.25 152.625 53.8125C153.479 54.375 154.406 54.8125 155.406 55.125C156.427 55.4375 157.49 55.5938 158.594 55.5938H179.531V62H158.594C156.177 61.9792 153.906 61.5104 151.781 60.5938C149.656 59.6562 147.802 58.3958 146.219 56.8125C144.656 55.2083 143.417 53.3438 142.5 51.2188C141.583 49.0938 141.125 46.8229 141.125 44.4062C141.125 41.9896 141.583 39.7188 142.5 37.5938C143.417 35.4688 144.656 33.6146 146.219 32.0312C147.802 30.4271 149.656 29.1667 151.781 28.25C153.906 27.3125 156.177 26.8333 158.594 26.8125H173.125C174.667 26.8125 176.115 27.1042 177.469 27.6875C178.844 28.2708 180.031 29.0729 181.031 30.0938C182.052 31.0938 182.854 32.2708 183.438 33.625C184.021 34.9792 184.312 36.4375 184.312 38ZM173.125 42.8125C173.771 42.8125 174.385 42.6875 174.969 42.4375C175.552 42.1875 176.062 41.8438 176.5 41.4062C176.938 40.9688 177.281 40.4583 177.531 39.875C177.781 39.2917 177.906 38.6667 177.906 38C177.906 37.3542 177.781 36.7396 177.531 36.1562C177.281 35.5729 176.938 35.0625 176.5 34.625C176.062 34.1875 175.552 33.8438 174.969 33.5938C174.385 33.3229 173.771 33.1875 173.125 33.1875H158.594C157.177 33.1875 155.844 33.4375 154.594 33.9375C153.365 34.4375 152.26 35.125 151.281 36C150.323 36.8542 149.521 37.875 148.875 39.0625C148.25 40.2292 147.844 41.4792 147.656 42.8125H173.125Z" fill="#5D8FE1"/>
    <path d="M244.188 39.5938C244.188 42.6979 243.688 45.6146 242.688 48.3438C241.708 51.0729 240.312 53.4479 238.5 55.4688C236.688 57.4896 234.51 59.0833 231.969 60.25C229.448 61.4167 226.646 62 223.562 62H200.969V55.5938H223.562C225.771 55.5938 227.75 55.1771 229.5 54.3438C231.271 53.5104 232.76 52.375 233.969 50.9375C235.198 49.4792 236.135 47.7812 236.781 45.8438C237.448 43.8854 237.781 41.8021 237.781 39.5938C237.781 37.3854 237.448 35.3125 236.781 33.375C236.135 31.4375 235.198 29.75 233.969 28.3125C232.76 26.8542 231.271 25.7083 229.5 24.875C227.75 24.0208 225.771 23.5938 223.562 23.5938H197.781V62H191.375V17.1875H223.562C226.646 17.1875 229.448 17.7812 231.969 18.9688C234.51 20.1354 236.688 21.7396 238.5 23.7812C240.312 25.8021 241.708 28.1771 242.688 30.9062C243.688 33.6146 244.188 36.5104 244.188 39.5938ZM259.594 18.8125C259.594 19.4792 259.469 20.1042 259.219 20.6875C258.969 21.25 258.625 21.75 258.188 22.1875C257.75 22.625 257.24 22.9688 256.656 23.2188C256.073 23.4688 255.458 23.5938 254.812 23.5938C254.146 23.5938 253.521 23.4688 252.938 23.2188C252.354 22.9688 251.844 22.625 251.406 22.1875C250.969 21.75 250.625 21.25 250.375 20.6875C250.125 20.1042 250 19.4792 250 18.8125C250 18.1667 250.125 17.5521 250.375 16.9688C250.625 16.3854 250.969 15.875 251.406 15.4375C251.844 15 252.354 14.6562 252.938 14.4062C253.521 14.1354 254.146 14 254.812 14C255.458 14 256.073 14.1354 256.656 14.4062C257.24 14.6562 257.75 15 258.188 15.4375C258.625 15.875 258.969 16.3854 259.219 16.9688C259.469 17.5521 259.594 18.1667 259.594 18.8125ZM258 62H251.594V26.8125H258V62Z" fill="#5BBBA9"/>
    <path d="M19.8125 86.3906V88.0781H11.0469V93.7031H19.1328V95.3906H11.0469V102H9.26562V86.3906H19.8125ZM21.1953 95.9531C21.1953 94.7031 21.4297 93.6172 21.8984 92.6953C22.3672 91.7578 23.0234 91.0312 23.8672 90.5156C24.7266 89.9844 25.7188 89.7188 26.8438 89.7188C27.9531 89.7188 28.9297 89.9844 29.7734 90.5156C30.6172 91.0312 31.2734 91.7578 31.7422 92.6953C32.2109 93.6172 32.4453 94.7031 32.4453 95.9531C32.4453 97.2031 32.2109 98.3047 31.7422 99.2578C31.2734 100.195 30.6172 100.93 29.7734 101.461C28.9297 101.977 27.9531 102.234 26.8438 102.234C25.7188 102.234 24.7266 101.977 23.8672 101.461C23.0234 100.93 22.3672 100.195 21.8984 99.2578C21.4297 98.3047 21.1953 97.2031 21.1953 95.9531ZM30.6172 95.9531C30.6172 94.5 30.2812 93.375 29.6094 92.5781C28.9531 91.7656 28.0312 91.3594 26.8438 91.3594C25.625 91.3594 24.6797 91.7656 24.0078 92.5781C23.3516 93.375 23.0234 94.5 23.0234 95.9531C23.0234 97.4219 23.3516 98.5625 24.0078 99.375C24.6797 100.188 25.625 100.594 26.8438 100.594C28.0312 100.594 28.9531 100.188 29.6094 99.375C30.2812 98.5625 30.6172 97.4219 30.6172 95.9531ZM40.3672 96.8906L38.4219 96.6328C37.1875 96.4922 36.2422 96.1562 35.5859 95.625C34.9453 95.0781 34.625 94.2969 34.625 93.2812C34.625 92.2031 35.0391 91.3516 35.8672 90.7266C36.7109 90.0859 37.8672 89.7656 39.3359 89.7656C40.7266 89.7656 41.8516 90.1094 42.7109 90.7969C43.5859 91.4844 44.0859 92.4219 44.2109 93.6094H42.4531C42.3125 92.8125 41.9844 92.2188 41.4688 91.8281C40.9688 91.4375 40.25 91.2422 39.3125 91.2422C38.4375 91.2422 37.7266 91.4219 37.1797 91.7812C36.6484 92.1406 36.3828 92.6094 36.3828 93.1875C36.3828 93.7656 36.5781 94.1875 36.9688 94.4531C37.3594 94.7188 37.9297 94.8984 38.6797 94.9922L40.6484 95.2266C41.9609 95.3828 42.9297 95.7578 43.5547 96.3516C44.1953 96.9297 44.5156 97.7578 44.5156 98.8359C44.5156 99.8672 44.0859 100.688 43.2266 101.297C42.3828 101.906 41.2656 102.211 39.875 102.211C38.2969 102.211 37.0391 101.867 36.1016 101.18C35.1797 100.477 34.6484 99.5469 34.5078 98.3906H36.3594C36.625 99.9531 37.7969 100.734 39.875 100.734C40.7344 100.734 41.4297 100.57 41.9609 100.242C42.4922 99.8984 42.7578 99.4375 42.7578 98.8594C42.7578 97.7344 41.9609 97.0781 40.3672 96.8906ZM52.0391 100.406V102H50.9609C50.4609 102 49.9922 101.898 49.5547 101.695C49.1172 101.492 48.7578 101.172 48.4766 100.734C48.2109 100.281 48.0781 99.6797 48.0781 98.9297V91.5469H45.875V90H48.0781V86.8828H49.8359V90H52.0391V91.5469H49.8359V98.6953C49.8359 99.3828 49.9531 99.8438 50.1875 100.078C50.4219 100.297 50.7266 100.406 51.1016 100.406H52.0391ZM53.5391 95.9531C53.5391 94.6719 53.7656 93.5703 54.2188 92.6484C54.6875 91.7266 55.3359 91.0156 56.1641 90.5156C57.0078 90.0156 58 89.7656 59.1406 89.7656C60.2344 89.7656 61.1953 90.0234 62.0234 90.5391C62.8672 91.0547 63.5312 91.7656 64.0156 92.6719C64.5 93.5625 64.7422 94.5781 64.7422 95.7188V96.4453H55.3672C55.4453 97.8047 55.8125 98.8438 56.4688 99.5625C57.1406 100.266 58.0781 100.617 59.2812 100.617C60.2656 100.617 61.0469 100.398 61.625 99.9609C62.2188 99.5234 62.5859 98.9375 62.7266 98.2031H64.6016C64.3359 99.4844 63.7578 100.469 62.8672 101.156C61.9922 101.844 60.7969 102.188 59.2812 102.188C58.1094 102.188 57.0938 101.938 56.2344 101.438C55.375 100.922 54.7109 100.203 54.2422 99.2812C53.7734 98.3438 53.5391 97.2344 53.5391 95.9531ZM59.1406 91.2891C56.9062 91.2891 55.6641 92.5312 55.4141 95.0156H62.8438C62.75 93.875 62.3672 92.9688 61.6953 92.2969C61.0234 91.625 60.1719 91.2891 59.1406 91.2891ZM67.0391 90H68.8203V91.8047C69.2109 91.1484 69.7109 90.6484 70.3203 90.3047C70.9297 89.9453 71.5547 89.7656 72.1953 89.7656H72.7344V91.6172H72.2188C71.5781 91.6172 71 91.75 70.4844 92.0156C69.9688 92.2812 69.5625 92.6484 69.2656 93.1172C68.9688 93.5859 68.8203 94.125 68.8203 94.7344V102H67.0391V90ZM74.6797 86.3438H76.7891V88.3125H74.6797V86.3438ZM74.8438 90H76.625V102H74.8438V90ZM87.4766 94.7344C87.4766 93.5625 87.1797 92.7188 86.5859 92.2031C86.0078 91.6719 85.2344 91.4062 84.2656 91.4062C83.3125 91.4062 82.5156 91.7031 81.875 92.2969C81.2344 92.8906 80.9141 93.6484 80.9141 94.5703V102H79.1328V90H80.9141V91.8516C81.3516 91.1797 81.9219 90.6562 82.625 90.2812C83.3281 89.9062 84.0469 89.7188 84.7812 89.7188C86.0781 89.7188 87.1406 90.1172 87.9688 90.9141C88.8125 91.7109 89.2344 92.8594 89.2344 94.3594V102H87.4766V94.7344ZM102.688 90V102.258C102.688 103.133 102.461 103.898 102.008 104.555C101.57 105.227 100.953 105.75 100.156 106.125C99.375 106.5 98.4531 106.688 97.3906 106.688C95.8125 106.688 94.5156 106.328 93.5 105.609C92.4844 104.906 91.8828 103.961 91.6953 102.773H93.5469C93.6406 103.508 94.0156 104.078 94.6719 104.484C95.3438 104.891 96.2344 105.094 97.3438 105.094C98.4688 105.094 99.3438 104.836 99.9688 104.32C100.609 103.805 100.93 103.078 100.93 102.141V99.3281C100.492 100.109 99.9141 100.719 99.1953 101.156C98.4922 101.578 97.6797 101.789 96.7578 101.789C95.7109 101.789 94.7891 101.539 93.9922 101.039C93.2109 100.539 92.6016 99.8359 92.1641 98.9297C91.7266 98.0234 91.5078 96.9609 91.5078 95.7422C91.5078 94.5391 91.7266 93.4922 92.1641 92.6016C92.6016 91.6953 93.2109 90.9922 93.9922 90.4922C94.7891 89.9922 95.7109 89.7422 96.7578 89.7422C97.6797 89.7422 98.4922 89.9609 99.1953 90.3984C99.9141 90.8203 100.492 91.4141 100.93 92.1797V90H102.688ZM93.3359 95.7422C93.3359 97.1484 93.6641 98.2344 94.3203 99C94.9922 99.7656 95.9297 100.148 97.1328 100.148C98.3359 100.148 99.2656 99.7656 99.9219 99C100.594 98.2344 100.93 97.1484 100.93 95.7422C100.93 94.3672 100.594 93.2969 99.9219 92.5312C99.2656 91.75 98.3359 91.3594 97.1328 91.3594C95.9297 91.3594 94.9922 91.75 94.3203 92.5312C93.6641 93.2969 93.3359 94.3672 93.3359 95.7422ZM109.766 94.1484C109.766 92.5391 110.047 91.1406 110.609 89.9531C111.172 88.75 111.961 87.8203 112.977 87.1641C113.992 86.4922 115.18 86.1562 116.539 86.1562C117.773 86.1562 118.867 86.3828 119.82 86.8359C120.789 87.2734 121.562 87.9062 122.141 88.7344C122.719 89.5469 123.055 90.5078 123.148 91.6172H121.32C121.258 90.4453 120.797 89.5234 119.938 88.8516C119.078 88.1641 117.953 87.8203 116.562 87.8203C115 87.8203 113.781 88.375 112.906 89.4844C112.031 90.5938 111.594 92.1484 111.594 94.1484C111.594 96.1641 112.031 97.7266 112.906 98.8359C113.781 99.9453 115 100.5 116.562 100.5C117.938 100.5 119.055 100.164 119.914 99.4922C120.773 98.8047 121.242 97.875 121.32 96.7031H123.148C123.039 97.8281 122.695 98.8047 122.117 99.6328C121.539 100.445 120.766 101.078 119.797 101.531C118.844 101.969 117.758 102.188 116.539 102.188C115.195 102.188 114.016 101.852 113 101.18C111.984 100.508 111.188 99.5703 110.609 98.3672C110.047 97.1641 109.766 95.7578 109.766 94.1484ZM125.211 95.9531C125.211 94.7031 125.445 93.6172 125.914 92.6953C126.383 91.7578 127.039 91.0312 127.883 90.5156C128.742 89.9844 129.734 89.7188 130.859 89.7188C131.969 89.7188 132.945 89.9844 133.789 90.5156C134.633 91.0312 135.289 91.7578 135.758 92.6953C136.227 93.6172 136.461 94.7031 136.461 95.9531C136.461 97.2031 136.227 98.3047 135.758 99.2578C135.289 100.195 134.633 100.93 133.789 101.461C132.945 101.977 131.969 102.234 130.859 102.234C129.734 102.234 128.742 101.977 127.883 101.461C127.039 100.93 126.383 100.195 125.914 99.2578C125.445 98.3047 125.211 97.2031 125.211 95.9531ZM134.633 95.9531C134.633 94.5 134.297 93.375 133.625 92.5781C132.969 91.7656 132.047 91.3594 130.859 91.3594C129.641 91.3594 128.695 91.7656 128.023 92.5781C127.367 93.375 127.039 94.5 127.039 95.9531C127.039 97.4219 127.367 98.5625 128.023 99.375C128.695 100.188 129.641 100.594 130.859 100.594C132.047 100.594 132.969 100.188 133.625 99.375C134.297 98.5625 134.633 97.4219 134.633 95.9531ZM138.758 85.1953H140.539V102H138.758V85.1953ZM143.047 85.1953H144.828V102H143.047V85.1953ZM157.109 94.0312V102H155.328V99.8672C154.891 100.586 154.297 101.164 153.547 101.602C152.812 102.039 151.984 102.258 151.062 102.258C150.297 102.258 149.609 102.109 149 101.812C148.406 101.5 147.938 101.078 147.594 100.547C147.266 100 147.102 99.375 147.102 98.6719C147.102 97.7031 147.398 96.9297 147.992 96.3516C148.602 95.7734 149.453 95.4531 150.547 95.3906L153.922 95.1328C154.438 95.1016 154.797 95 155 94.8281C155.219 94.6406 155.328 94.3438 155.328 93.9375V93.8906C155.328 93.1406 155.031 92.5156 154.438 92.0156C153.859 91.5 153.148 91.2422 152.305 91.2422C150.32 91.2422 149.234 92.0938 149.047 93.7969H147.195C147.273 92.5625 147.773 91.5781 148.695 90.8438C149.617 90.1094 150.812 89.7422 152.281 89.7422C153.203 89.7422 154.023 89.9297 154.742 90.3047C155.477 90.6797 156.055 91.1953 156.477 91.8516C156.898 92.4922 157.109 93.2188 157.109 94.0312ZM148.906 98.625C148.906 99.2656 149.148 99.7734 149.633 100.148C150.117 100.523 150.766 100.711 151.578 100.711C152.297 100.711 152.938 100.547 153.5 100.219C154.062 99.875 154.508 99.4141 154.836 98.8359C155.164 98.2578 155.328 97.6016 155.328 96.8672V96.4922L151.156 96.7734C149.656 96.8828 148.906 97.5 148.906 98.625ZM159.664 85.1953H161.445V92.2266C161.867 91.4453 162.43 90.8359 163.133 90.3984C163.852 89.9453 164.664 89.7188 165.57 89.7188C166.617 89.7188 167.531 89.9844 168.312 90.5156C169.109 91.0312 169.727 91.7578 170.164 92.6953C170.617 93.6172 170.844 94.7031 170.844 95.9531C170.844 97.2031 170.617 98.3047 170.164 99.2578C169.727 100.195 169.109 100.93 168.312 101.461C167.531 101.977 166.617 102.234 165.57 102.234C164.664 102.234 163.852 102.016 163.133 101.578C162.43 101.125 161.867 100.5 161.445 99.7031V102H159.664V85.1953ZM169.016 95.9531C169.016 94.5 168.68 93.375 168.008 92.5781C167.352 91.7656 166.43 91.3594 165.242 91.3594C164.023 91.3594 163.086 91.7656 162.43 92.5781C161.773 93.375 161.445 94.5 161.445 95.9531C161.445 97.4219 161.773 98.5625 162.43 99.375C163.086 100.188 164.023 100.594 165.242 100.594C166.43 100.594 167.352 100.188 168.008 99.375C168.68 98.5625 169.016 97.4219 169.016 95.9531ZM172.906 95.9531C172.906 94.7031 173.141 93.6172 173.609 92.6953C174.078 91.7578 174.734 91.0312 175.578 90.5156C176.438 89.9844 177.43 89.7188 178.555 89.7188C179.664 89.7188 180.641 89.9844 181.484 90.5156C182.328 91.0312 182.984 91.7578 183.453 92.6953C183.922 93.6172 184.156 94.7031 184.156 95.9531C184.156 97.2031 183.922 98.3047 183.453 99.2578C182.984 100.195 182.328 100.93 181.484 101.461C180.641 101.977 179.664 102.234 178.555 102.234C177.43 102.234 176.438 101.977 175.578 101.461C174.734 100.93 174.078 100.195 173.609 99.2578C173.141 98.3047 172.906 97.2031 172.906 95.9531ZM182.328 95.9531C182.328 94.5 181.992 93.375 181.32 92.5781C180.664 91.7656 179.742 91.3594 178.555 91.3594C177.336 91.3594 176.391 91.7656 175.719 92.5781C175.062 93.375 174.734 94.5 174.734 95.9531C174.734 97.4219 175.062 98.5625 175.719 99.375C176.391 100.188 177.336 100.594 178.555 100.594C179.742 100.594 180.664 100.188 181.32 99.375C181.992 98.5625 182.328 97.4219 182.328 95.9531ZM186.453 90H188.234V91.8047C188.625 91.1484 189.125 90.6484 189.734 90.3047C190.344 89.9453 190.969 89.7656 191.609 89.7656H192.148V91.6172H191.633C190.992 91.6172 190.414 91.75 189.898 92.0156C189.383 92.2812 188.977 92.6484 188.68 93.1172C188.383 93.5859 188.234 94.125 188.234 94.7344V102H186.453V90ZM203.727 94.0312V102H201.945V99.8672C201.508 100.586 200.914 101.164 200.164 101.602C199.43 102.039 198.602 102.258 197.68 102.258C196.914 102.258 196.227 102.109 195.617 101.812C195.023 101.5 194.555 101.078 194.211 100.547C193.883 100 193.719 99.375 193.719 98.6719C193.719 97.7031 194.016 96.9297 194.609 96.3516C195.219 95.7734 196.07 95.4531 197.164 95.3906L200.539 95.1328C201.055 95.1016 201.414 95 201.617 94.8281C201.836 94.6406 201.945 94.3438 201.945 93.9375V93.8906C201.945 93.1406 201.648 92.5156 201.055 92.0156C200.477 91.5 199.766 91.2422 198.922 91.2422C196.938 91.2422 195.852 92.0938 195.664 93.7969H193.812C193.891 92.5625 194.391 91.5781 195.312 90.8438C196.234 90.1094 197.43 89.7422 198.898 89.7422C199.82 89.7422 200.641 89.9297 201.359 90.3047C202.094 90.6797 202.672 91.1953 203.094 91.8516C203.516 92.4922 203.727 93.2188 203.727 94.0312ZM195.523 98.625C195.523 99.2656 195.766 99.7734 196.25 100.148C196.734 100.523 197.383 100.711 198.195 100.711C198.914 100.711 199.555 100.547 200.117 100.219C200.68 99.875 201.125 99.4141 201.453 98.8359C201.781 98.2578 201.945 97.6016 201.945 96.8672V96.4922L197.773 96.7734C196.273 96.8828 195.523 97.5 195.523 98.625ZM211.672 100.406V102H210.594C210.094 102 209.625 101.898 209.188 101.695C208.75 101.492 208.391 101.172 208.109 100.734C207.844 100.281 207.711 99.6797 207.711 98.9297V91.5469H205.508V90H207.711V86.8828H209.469V90H211.672V91.5469H209.469V98.6953C209.469 99.3828 209.586 99.8438 209.82 100.078C210.055 100.297 210.359 100.406 210.734 100.406H211.672ZM213.547 86.3438H215.656V88.3125H213.547V86.3438ZM213.711 90H215.492V102H213.711V90ZM217.766 95.9531C217.766 94.7031 218 93.6172 218.469 92.6953C218.938 91.7578 219.594 91.0312 220.438 90.5156C221.297 89.9844 222.289 89.7188 223.414 89.7188C224.523 89.7188 225.5 89.9844 226.344 90.5156C227.188 91.0312 227.844 91.7578 228.312 92.6953C228.781 93.6172 229.016 94.7031 229.016 95.9531C229.016 97.2031 228.781 98.3047 228.312 99.2578C227.844 100.195 227.188 100.93 226.344 101.461C225.5 101.977 224.523 102.234 223.414 102.234C222.289 102.234 221.297 101.977 220.438 101.461C219.594 100.93 218.938 100.195 218.469 99.2578C218 98.3047 217.766 97.2031 217.766 95.9531ZM227.188 95.9531C227.188 94.5 226.852 93.375 226.18 92.5781C225.523 91.7656 224.602 91.3594 223.414 91.3594C222.195 91.3594 221.25 91.7656 220.578 92.5781C219.922 93.375 219.594 94.5 219.594 95.9531C219.594 97.4219 219.922 98.5625 220.578 99.375C221.25 100.188 222.195 100.594 223.414 100.594C224.602 100.594 225.523 100.188 226.18 99.375C226.852 98.5625 227.188 97.4219 227.188 95.9531ZM239.656 94.7344C239.656 93.5625 239.359 92.7188 238.766 92.2031C238.188 91.6719 237.414 91.4062 236.445 91.4062C235.492 91.4062 234.695 91.7031 234.055 92.2969C233.414 92.8906 233.094 93.6484 233.094 94.5703V102H231.312V90H233.094V91.8516C233.531 91.1797 234.102 90.6562 234.805 90.2812C235.508 89.9062 236.227 89.7188 236.961 89.7188C238.258 89.7188 239.32 90.1172 240.148 90.9141C240.992 91.7109 241.414 92.8594 241.414 94.3594V102H239.656V94.7344ZM249.547 96.8906L247.602 96.6328C246.367 96.4922 245.422 96.1562 244.766 95.625C244.125 95.0781 243.805 94.2969 243.805 93.2812C243.805 92.2031 244.219 91.3516 245.047 90.7266C245.891 90.0859 247.047 89.7656 248.516 89.7656C249.906 89.7656 251.031 90.1094 251.891 90.7969C252.766 91.4844 253.266 92.4219 253.391 93.6094H251.633C251.492 92.8125 251.164 92.2188 250.648 91.8281C250.148 91.4375 249.43 91.2422 248.492 91.2422C247.617 91.2422 246.906 91.4219 246.359 91.7812C245.828 92.1406 245.562 92.6094 245.562 93.1875C245.562 93.7656 245.758 94.1875 246.148 94.4531C246.539 94.7188 247.109 94.8984 247.859 94.9922L249.828 95.2266C251.141 95.3828 252.109 95.7578 252.734 96.3516C253.375 96.9297 253.695 97.7578 253.695 98.8359C253.695 99.8672 253.266 100.688 252.406 101.297C251.562 101.906 250.445 102.211 249.055 102.211C247.477 102.211 246.219 101.867 245.281 101.18C244.359 100.477 243.828 99.5469 243.688 98.3906H245.539C245.805 99.9531 246.977 100.734 249.055 100.734C249.914 100.734 250.609 100.57 251.141 100.242C251.672 99.8984 251.938 99.4375 251.938 98.8594C251.938 97.7344 251.141 97.0781 249.547 96.8906Z" fill="#232F4A"/>
    </svg>
    