<svg width="27" height="24" viewBox="0 0 27 24" fill="none" xmlns="http://www.w3.org/2000/svg">
<path fill-rule="evenodd" clip-rule="evenodd" d="M13.2683 8C14.4456 8 15.4088 7.1 15.4088 6C15.4088 4.9 14.4456 4 13.2683 4C12.091 4 11.1278 4.9 11.1278 6C11.1278 7.1 12.091 8 13.2683 8ZM13.2683 10C12.091 10 11.1278 10.9 11.1278 12C11.1278 13.1 12.091 14 13.2683 14C14.4456 14 15.4088 13.1 15.4088 12C15.4088 10.9 14.4456 10 13.2683 10ZM11.1278 18C11.1278 16.9 12.091 16 13.2683 16C14.4456 16 15.4088 16.9 15.4088 18C15.4088 19.1 14.4456 20 13.2683 20C12.091 20 11.1278 19.1 11.1278 18Z" fill="white"/>
</svg>
