<svg width="147" height="142" fill="none" xmlns="http://www.w3.org/2000/svg"><circle cx="107.312" cy="37.301" r="2.301" fill="#8389FF"/><circle cx="113.064" cy="109.785" r="3.452" fill="#3E94F1"/><circle cx="137.876" cy="51.876" r="2.876" fill="#76CDFF"/><circle cx="143.554" cy="87.349" r="2.876" fill="#2E9AD9"/><circle cx="118.242" cy="129.919" r="2.876" fill="#60C4FE"/><circle cx="83.301" cy="122.301" r="2.301" fill="#20A5F2"/><circle cx="53.812" cy="135.672" r="6.328" fill="#3E94F1" fill-opacity=".4"/><circle cx="24.296" cy="128.07" r="1.726" fill="#2E9AD9"/><g filter="url(#a)"><path d="M87.4 58.688C75.43 32.926 69.205 23.14 49.649 23.549c-6.967.142-5.297-5.05-10.61-3.081-5.303 1.968-.75 4.85-6.18 9.308-15.235 12.51-13.833 24.082-6.767 51.66 2.977 11.618-7.176 12.185-3.16 23.441 2.935 8.211 24.565 11.65 47.381 3.187 22.822-8.468 37.202-25.273 34.267-33.484-4.016-11.262-12.133-5.046-17.178-15.892Zm-19.56 42.435c-20.381 7.56-37.129 3.119-37.837 1.14-1.218-3.413 6.578-14.784 29.877-23.431 23.3-8.647 36.304-5.439 37.664-1.633.803 2.252-9.319 16.36-29.705 23.924ZM61.286 82.78c-10.652 3.953-18.054 8.474-22.853 12.542 3.376 3.066 9.697 3.812 15.992 1.475 8.016-2.966 12.946-9.796 10.998-15.245l-.084-.19c-1.317.431-2.667.898-4.053 1.418Z" fill="#519CED"/></g><defs><filter id="a" x=".988" y=".021" width="123.969" height="132.942" filterUnits="userSpaceOnUse" color-interpolation-filters="sRGB"><feFlood flood-opacity="0" result="BackgroundImageFix"/><feColorMatrix in="SourceAlpha" values="0 0 0 0 0 0 0 0 0 0 0 0 0 0 0 0 0 0 127 0" result="hardAlpha"/><feOffset/><feGaussianBlur stdDeviation="10"/><feComposite in2="hardAlpha" operator="out"/><feColorMatrix values="0 0 0 0 0.286812 0 0 0 0 0.301463 0 0 0 0 0.56936 0 0 0 0.5 0"/><feBlend in2="BackgroundImageFix" result="effect1_dropShadow_0_1"/><feBlend in="SourceGraphic" in2="effect1_dropShadow_0_1" result="shape"/></filter></defs></svg>